<?xml version="1.0" encoding="utf-8"?>
<!-- Generator: Adobe Illustrator 19.2.1, SVG Export Plug-In . SVG Version: 6.00 Build 0)  -->
<svg version="1.1" id="Layer_1" xmlns="http://www.w3.org/2000/svg" xmlns:xlink="http://www.w3.org/1999/xlink" x="0px" y="0px"
	 viewBox="0 0 32 32.5" style="enable-background:new 0 0 32 32.5;" xml:space="preserve">
<style type="text/css">
	.st0{fill:#FFFFFF;}
</style>
<g>
	<path class="st0" d="M4.7,26.1c0.1,0,0.2,0,0.4,0.1c0-6.5,0-13,0-19.6c0.7-0.1,1.3-0.2,1.9-0.2c2.8,0,5.6,0,8.4,0
		c0.6,0,1.1-0.1,1.9-0.2c-0.5-0.5-0.8-0.8-1.2-1C16.1,5,16.2,5,16.3,4.9c-0.1-0.1-0.2-0.4-0.4-0.4c-4.1,0-8.2,0-12.5,0
		c0.1,7.9,0.2,15.8,0.4,23.8c7.9,0,15.8,0,23.7,0c0-4.2,0-8.3,0-12.4c0-0.4,0-0.8-0.2-1c-0.3-0.4-0.7-0.6-1.3-1.1
		c-0.1,1.2-0.2,2.1-0.2,2.9c-0.1,0-0.2,0-0.3,0c-0.1-0.5-0.2-0.9-0.3-1.4c-0.1,0-0.1,0-0.2,0c0,3.7,0,7.3,0,11.1
		c-0.4,0.1-0.8,0.2-1.2,0.3c0,0,0,0.1,0,0.1c0.7,0,1.5,0,2.2,0c0,0.1,0,0.2,0,0.3c-7.2,0.2-14.4,0.5-21.8,0.7c0-7.7,0-15.2,0-22.7
		c0.8,0,1.5,0,2.1,0c0,0.1,0,0.1,0,0.2C5.8,5.3,5.2,5.4,4.7,5.4C4.7,12.4,4.7,19.2,4.7,26.1z M29.8,3.8c-2-1-2-1-3.1,0.2
		c-1.3,1.5-2.6,3-3.9,4.6c-2.8,3.3-5.6,6.7-8.5,10.1c-0.9-1.5-1.6-2.8-2.4-4.1c-0.5-0.9-1.1-1.1-2-0.4c0.1,0.4,0.2,0.7,0.4,1.2
		c-0.4-0.2-0.7-0.3-0.9-0.4c1.1,2,1.8,4.3,3.9,5.6c-0.1-0.4-0.3-0.8-0.4-1.1c0.1,0,0.1,0,0.2-0.1c0.3,0.4,0.6,0.8,0.9,1.1
		c3.9-4.7,7.7-9.4,11.5-14.1c0.1,0.1,0.2,0.2,0.3,0.3c-1.2,1.6-2.5,3.1-3.7,4.7c0.1,0.1,0.1,0.1,0.2,0.2C24.7,8.9,27.2,6.4,29.8,3.8
		z"/>
	<path d="M4.7,26.1c0-6.9,0-13.7,0-20.7c0.5-0.1,1.1-0.1,1.8-0.2c0-0.1,0-0.1,0-0.2c-0.7,0-1.4,0-2.1,0c0,7.5,0,15,0,22.7
		c7.3-0.2,14.5-0.5,21.8-0.7c0-0.1,0-0.2,0-0.3c-0.7,0-1.5,0-2.2,0c0,0,0-0.1,0-0.1c0.4-0.1,0.8-0.2,1.2-0.3c0-3.7,0-7.4,0-11.1
		c0.1,0,0.1,0,0.2,0c0.1,0.5,0.2,0.9,0.3,1.4c0.1,0,0.2,0,0.3,0c0.1-0.8,0.1-1.7,0.2-2.9c0.6,0.5,1,0.7,1.3,1.1
		c0.2,0.3,0.2,0.7,0.2,1c0,4.1,0,8.2,0,12.4c-7.9,0-15.7,0-23.7,0c-0.1-8-0.2-15.9-0.4-23.8c4.3,0,8.4,0,12.5,0
		c0.1,0,0.2,0.3,0.4,0.4C16.2,5,16.1,5,16.1,5.1c0.3,0.3,0.6,0.6,1.2,1c-0.8,0.1-1.3,0.2-1.9,0.2c-2.8,0-5.6,0-8.4,0
		C6.3,6.4,5.7,6.5,5,6.6c0,6.6,0,13.1,0,19.6C4.9,26.1,4.8,26.1,4.7,26.1z"/>
	<path d="M25.4,6.3c-3.8,4.7-7.6,9.4-11.5,14.1c-0.3-0.3-0.6-0.7-0.9-1.1c-0.1,0-0.1,0-0.2,0.1c0.1,0.4,0.3,0.8,0.4,1.1
		c-2.1-1.2-2.8-3.5-3.9-5.6c0.2,0.1,0.5,0.2,0.9,0.4c-0.2-0.5-0.3-0.9-0.4-1.2c0.8-0.7,1.5-0.5,2,0.4c0.7,1.3,1.5,2.6,2.4,4.1
		c2.9-3.5,5.7-6.8,8.5-10.1C24,7,25.3,5.5,26.6,4c1.1-1.3,1.2-1.2,3.1-0.2c-2.6,2.6-5.1,5.2-7.6,7.7c-0.1-0.1-0.1-0.1-0.2-0.2"/>
</g>
</svg>
