<?xml version="1.0" encoding="utf-8"?>
<!-- Generator: Adobe Illustrator 19.2.1, SVG Export Plug-In . SVG Version: 6.00 Build 0)  -->
<svg version="1.1" id="Layer_1" xmlns="http://www.w3.org/2000/svg" xmlns:xlink="http://www.w3.org/1999/xlink" x="0px" y="0px"
	 viewBox="0 0 51.5 55.4" style="enable-background:new 0 0 51.5 55.4;" xml:space="preserve">
<path d="M15.9,3.9c1.9,0.7,2,0.9,2.5-1.3c1.9,0.9,3.7,0.6,5.6,0c1.4-0.5,2.4,0.1,3.4,1c0.3,0.3,1.1,0.4,1.2,0.8
	c0.6,1.6,2.1,1.6,3.3,2.1c0.2,0.1,0.6,0,0.9-0.1c1.4-0.6,2-0.3,1.8,1.2c-0.3,2.4-0.7,4.8-0.9,7.2c-0.2,2.2,0.1,2.4,2.3,2.5
	c2.4,0,4.8-0.1,7.2-0.2c1,0,1.9,0.1,3,0.2c-0.5,2.2,1.3,4.4,2.9,5.3c0.9,0.5,1.6,1.3,2.4,2.1c0.2,0.2,0.2,0.6,0.1,0.8
	c-0.4,1-1,2-1.5,3c-0.3,0.7-0.5,1.6-0.7,2.3c-0.4,1.1-0.6,2.4-1.3,3.1c-1.1,1.1-2.7,1.8-4.1,2.6c-0.1,0.1-0.3,0.1-0.5,0.1
	c-2.3,0.2-4.6,0.4-7,0.4c-1.7,0.1-1.8,0.1-1.9,1.8c-0.1,2.8-0.3,5.6-0.6,8.4c-0.1,1.2-0.6,2.3-1,3.5c-0.2,0.4-0.5,0.8-0.8,1.2
	c-0.8-0.1-1.6-0.5-2.3-0.3c-1.8,0.4-3.5-0.2-5.3,0c-0.8,0.1-1.7-0.3-2.4,0.5c-0.4-0.4-0.8-0.7-1.3-1.1c-0.6,0-1.4,0-2.4,0
	c-1.7-4.8-1.2-9.8-2.4-14.7c-1.4,0-3.2-0.5-4.5,0.1c-1.3,0.7-2.3,0.3-3.4,0.4c-1.3,0.1-2.7,0-4.1-0.1c-0.2,0-0.4-0.2-0.9-0.5
	c0.5-0.2,0.8-0.3,1.1-0.5c0.1-0.1,0.2-0.2,0.3-0.3c-0.5-0.2-1.1-0.3-1.6-0.5c0.1-0.2,0.2-0.3,0.4-0.5c0.3-0.1,0.5-0.3,0.7-0.4
	c-0.7-0.5-1.4-1.1-2.1-1.6c0-0.1,0.1-0.2,0.1-0.2c0.8,0,1.5,0,2.4,0c-0.2-0.1-0.3-0.2-0.3-0.2c-1.9,0.1-1.9-1.3-2.1-2.5
	c0-0.3,0.2-0.6,0.2-0.9c0.1-0.4,0.3-0.9,0.2-1.2c-0.3-0.8-0.8-1.4-1.2-2.2c0.6-0.3,0.9-0.5,1.4-0.8c-0.5-0.1-0.8-0.2-1.2-0.3
	c1.1-0.4,0.5-0.8,0.2-1.3c0.4-0.3,0.8-0.6,1.2-0.9c-0.6-0.8-1-1.3-1.6-2.1c2.7-0.5,5.2-0.9,7.7-1.3c1.5-0.2,3-0.4,4.5-0.5
	c0.7-0.1,1-0.3,1.1-1.2c0.2-3.5,0.6-7,0.8-10.5C15.8,5.6,15.8,4.8,15.9,3.9z M23.8,4.1c-0.1,0-0.2,0-0.3,0c0,0.9,0,1.9,0,2.8
	c0.1,0,0.2,0,0.3,0C23.8,5.9,23.8,5,23.8,4.1z"/>
</svg>
