<?xml version="1.0" encoding="utf-8"?>
<!-- Generator: Adobe Illustrator 19.2.1, SVG Export Plug-In . SVG Version: 6.00 Build 0)  -->
<svg version="1.1" id="Layer_1" xmlns="http://www.w3.org/2000/svg" xmlns:xlink="http://www.w3.org/1999/xlink" x="0px" y="0px"
	 viewBox="0 0 86.8 32.5" style="enable-background:new 0 0 86.8 32.5;" xml:space="preserve">
<style type="text/css">
	.st0{fill:#4DAA55;}
	.st1{enable-background:new    ;}
</style>
<g id="Layer_2">
</g>
<g id="Layer_1_1_">
	<g>
		<g>
			<g>
				<path class="st0" d="M77.7,14.1c-0.4,0.1-0.7,0.2-1.1,0.3c-3.3,0.8-6.4,0.8-9.3,0.7s-5.9-0.5-8.8-1.1c-4.2-1-8.9-1.7-12.9-2.2
					c4.8,0.9,9.7,1.9,14.8,2.7c2.6,0.4,5.1,0.8,7.8,1s5.6,0.3,8.6-0.4c-1,0.9-2.4,1.7-4.1,1.9c-2,0.2-3.9,0.1-5.6,0
					s-3.4-0.3-5.1-0.5c0-0.2,0.1-0.7,0.1-0.9c-4.7-0.1-9-1.2-13.2-2.1c-4.2-0.9-8.2-1.6-12.5-1.2c0.3,0.1,0.1,0.3,0,0.5h-0.1h0.1
					c-0.1,0.1,0,0.2,0.5,0.3c-0.5,0-0.6-0.1-0.5-0.3c4.2,0,8.1,0.5,12.3,1.3c4.1,0.7,8.3,1.7,12.9,2.4c-7.2-1-13.7-2.4-20-3
					s-12.9-0.3-19.9-0.2c-0.6,0-1.8,0-2.4,0c-2.4-0.6-4.8-0.8-7.3-0.9c0.6-1.1-1.7-3.4,3-2.9c0-0.2,0-0.7,0-0.9
					c-4.8-1.2-6.4-4.4-1.7-5.2c5.2-0.8,12.3-0.2,19-0.6c2.5-0.1,4.9-0.1,7.5,0c2.5,0.1,5.1,0.5,7.5,1.1C54,5.5,60.7,6.7,66.8,7.8
					c1.1,0.2,2.6,0,3.8-0.1c1.3-0.2,2.2-0.4,2.8-0.2c0.7,0.1,0.9,0.6,1,1.1C71.2,9.5,67.5,9.4,63.8,9C59.2,8.3,54.6,7.2,50,6
					c4.5,1.3,9.1,2.4,13.7,2.9c3.7,0.5,7.4,0.8,10.7,0.1c0,0.5,0,1,0.4,1.3c0,0,1.1-0.3,1.6-0.6c1.3,0,2,0.3,2.4,0.9
					c0.4,0.6,0.3,1.4-0.1,2.3C78.3,13.3,78.1,13.7,77.7,14.1z"/>
			</g>
		</g>
	</g>
	<g>
		<g>
			<g>
				<path class="st0" d="M11.5,15.3c0.3,0.2,0.6,0.3,0.9,0.5c2.8,1.5,5.1,3,7.5,4c1.2,0.5,2.3,0.9,3.6,1.2c1.2,0.3,2.6,0.5,4,0.6
					c2,0.3,4.3,0.2,6.6,0s4.7-0.4,6.8-0.5c-2.6,0.1-5.2,0.2-7.8,0.3c-2.6,0.1-5.1,0.2-7.5-0.1c-1.2-0.2-2.3-0.4-3.3-0.7
					c-1-0.3-2-0.8-3.1-1.4c-2.1-1.1-4.2-2.6-6.6-4c1.3-0.1,2.7,0.1,3.9,0.7c1.5,0.8,2.9,1.6,4.1,2.2c1.3,0.6,2.3,1,3.6,1.2
					c0,0.2-0.1,0.7-0.1,0.9c1.9,0.1,3.9,0.1,6.1,0.1s4.5-0.1,6.7-0.1c4.5-0.1,9-0.3,13.3-1.5c-0.3-0.1-0.2-0.3-0.1-0.4h0.1h-0.1
					c0-0.1,0-0.2-0.6-0.1c0.5-0.1,0.6,0,0.6,0.1c-4.3,0.8-8.7,1.2-13.1,1.4c-2.2,0.1-4.5,0.2-6.6,0.2s-4.1-0.1-5.9-0.5
					c2.8,0.5,6,0.3,9.6,0.1c3.5-0.2,7-0.5,10.4-0.8c6.8-0.7,13.3-2.2,19.9-4.4c0.6-0.2,1.7-0.6,2.2-0.8c2.5-0.2,4.8-0.8,7-1.8
					c-0.1,1.3,3.1,2.4-1.7,3.9c0.1,0.2,0.3,0.6,0.3,0.8C75,16,77,16.2,77.9,17c0.9,0.7,0.6,2-1.7,3.5c-2.5,1.6-5.8,2.8-9.2,3.9
					c-3.5,1.1-7.1,1.9-10.7,2.9c-5.1,1.3-10.4,2.1-15.5,2.1c-1.8,0-3.6,0-5.3,0c-1.8,0-3.6,0.1-5.5,0.1s-4-0.1-6-0.5
					c-2-0.3-4.2-1-5.9-2c-1.3-0.6-3-1.3-4.5-1.9s-2.6-1.2-3-1.7c-0.6-0.6-0.5-1.1-0.1-1.5c1.8,0.8,3.6,1.8,5.5,2.7
					c1.9,0.9,4,1.8,6.3,2.3c2.7,0.7,5.4,0.9,8,1c2.5,0,5,0.1,7.6,0.1c-2.5-0.2-4.9-0.2-7.5-0.2c-2.6-0.1-5.4-0.2-8.1-0.8
					c-2.2-0.6-4.3-1.5-6.1-2.5c-1.9-1-3.6-2-5.3-2.9c0.3-0.4,0.6-0.7,0.6-1.3c0,0-1.1-0.5-1.7-0.7c-1-0.9-1.3-1.7-1.1-2.4
					c0.2-0.6,0.9-1.2,1.7-1.5C10.5,15.5,11,15.4,11.5,15.3z"/>
			</g>
		</g>
	</g>
	<g>
		<g>
			<g>
				<path class="st0" d="M48.9,17.7c-0.1,0-0.3-0.1-0.4-0.1c-2.5-0.5-4.9-0.1-7.7-0.4c-1.9-0.3-4.1,0-6,0.1c4.5,0.2,9.3-0.3,13.7,1
					c-0.4,0.6-0.9,1-1.5,1.1c-1.5-0.1-3-0.2-4.4-0.2c0-0.2,0-0.7-0.1-0.9c-4.1,0.9-8-0.7-12,0.6c0.2,0.1,0.1,0.3,0,0.4l0,0l0,0
					c0,0.1,0,0.2,0.3,0.2c-0.3,0-0.3-0.1-0.3-0.2c4-0.4,7.8-0.4,11.9-0.2c-6.3,0-12.3,0.7-18.7,0.9c-0.3,0-0.8,0-1.1,0
					c-1.1-0.6-2.2-0.8-3.3-0.8c0.2-1.1-0.9-3.4,1.3-3c0-0.2,0-0.7,0-0.9c-2.2-1.1-3.1-4.2-0.9-5.2c2.4-1,5.7-0.2,8.6-0.7
					c2.1-0.3,4.3-0.6,6.5-0.3c3,0.5,6.2,0.1,9.2,0.8c1.1,0.2,2.9-0.6,3.5,0c0.4,0.3,0.5,0.8,0.4,1.3c-1.8,0-3.6,0.1-5.3,0.2
					c-2.2-0.1-4.3-0.3-6.5-0.6c2.1,0.5,4.3,0.6,6.5,0.6c1.8,0.1,3.5,0.2,5.3,0.3c0,0.5-0.1,0.9,0.1,1.4c0,0,0.5,0,0.8-0.1
					c1.2,1,1,2.6,0.5,3.8C49.2,17.2,49.1,17.5,48.9,17.7z"/>
			</g>
		</g>
	</g>
	<g>
		<g>
			<g>
				<path class="st0" d="M7.6,21.7c0-0.1,0.1-0.1,0.1-0.2c0.5-1.1,0.1-2.1,0.4-3.4c0.3-0.9,0-1.8-0.2-2.5c-0.1,1.9,0.3,3.9-0.9,6
					c-0.6-0.1-1-0.3-1-0.5c0.1-0.7,0.2-1.3,0.2-1.9c0.2,0,0.7-0.1,0.9-0.1c-0.9-1.6,0.6-3.5-0.8-4.9c-0.1,0.1-0.3,0.1-0.4,0.1l0,0
					l0,0c-0.1,0-0.2,0-0.2,0.1c0-0.1,0.1-0.1,0.2-0.1c0.5,1.5,0.5,3.1,0.3,4.9c0-2.7-0.7-5.1-1.3-7.2c0-0.1-0.1-0.3-0.1-0.3
					c0.5-0.5,0.6-1,0.5-1.3c1.1-0.3,3-1.5,2.9-0.5C8.4,9.7,8.8,9.5,9,9.5c0.8-1.2,3.5-2.9,4.7-2.1c1.3,1,0.9,2.9,1.6,4.2
					c0.4,1,0.8,2,0.5,3c-0.5,1.4,0,2.7-0.7,4.2c-0.2,0.5,0.6,1.2,0,1.5c-0.3,0.2-0.8,0.3-1.3,0.3c0-0.8-0.1-1.5-0.1-2.3
					c0.1-1,0.3-1.9,0.6-2.9c-0.5,1-0.6,1.9-0.6,2.9c-0.1,0.8-0.2,1.5-0.3,2.3c-0.5,0-0.9,0.1-1.4,0.2c0,0,0,0.2,0.1,0.3
					c-1,0.6-2.6,0.7-3.8,0.7C8.2,21.8,7.9,21.8,7.6,21.7z"/>
			</g>
		</g>
	</g>
	<g>
		<g>
			<g>
				<path class="st0" d="M79.6,10.6c0,0.1,0,0.2-0.1,0.3c-0.1,1,0,1.9,0.1,2.8c0.1,0.5,0.1,0.9,0.1,1.4c0,0.2,0,0.5,0,0.7
					c0,0.3,0,0.6,0,0.9c-0.1,1,0,2,0,3c0.1,1,0.2,2,0,2.9c0.3-0.9,0.3-2.1,0.3-3.2c0-0.6,0-1.2-0.1-1.8c0-0.5-0.1-1.1-0.1-1.7
					c-0.1-1.7-0.1-3.4,0.3-5.1c0.6,0.2,1.1,0.5,1.2,0.9c0.1,1.1,0.1,2.2,0.2,3.3c-0.2,0-0.7,0.1-0.9,0.1c0.1,0.2,0.1,0.4,0.2,0.5
					c0,0.1,0.1,0.2,0.1,0.3s0.1,0.3,0.1,0.4c0.1,0.6,0.2,1.2,0.2,1.8c0.1,1.2,0,2.3-0.1,3.4c0,0.6-0.2,1-0.3,1.5
					c-0.2,0.4-0.3,0.9-0.5,1.2c-0.1,0.2-0.2,0.4-0.2,0.6c-0.1,0.2-0.3,0.4-0.4,0.6c-0.3,0.3-0.6,0.5-0.9,0.9c0.2,0,0.3,0.2,0.4,0.4
					l0,0l0,0c0.1,0.1,0.2,0.2,0.4,0.1c-0.2,0.1-0.3,0-0.4-0.1c0.4-0.3,0.7-0.5,1-0.8c0.2-0.1,0.4-0.4,0.5-0.6s0.2-0.4,0.3-0.6
					c0.2-0.4,0.3-0.9,0.5-1.3c0.1-0.2,0.1-0.5,0.1-0.8l0.1-0.4v-0.4c0-1.1,0-2.3,0-3.5s-0.1-2.6-0.1-3.2c0,0.2,0,0.5,0.1,0.7
					c0,0.4,0.1,0.7,0.1,1.1c0.1,0.7,0.1,1.5,0.2,2.3s0.1,1.5,0.1,2.2v1.1l-0.1,1c-0.1,0.6-0.3,1.2-0.6,1.7c-0.1,0.3-0.2,0.5-0.4,0.7
					c-0.2,0.3-0.4,0.4-0.6,0.6c-0.8,0.6-1.9,1.3-3.5,1.4c-1.7,0.1-3.5,0.2-5.2,0.3c-0.2,0-0.6,0-0.7,0c-0.8-0.6-1.5-0.8-2.3-0.8
					c0.1-1.1-0.7-3.3,0.8-3c0-0.2,0-0.7-0.1-0.9c-1.5-1-2.3-4.2-0.8-5.1c0.7-0.5,1.6-0.5,2.6-0.6c0.1,0,0.3,0,0.3,0l0,0
					c0,0,0,0,0.1,0c0,0,0.1,0,0.1-0.1c0,0,0,0,0-0.1s-0.1-0.2-0.2-0.2c0,0,0,0,0.3,0.1c0.4,0.1,0.5,0,0.6-0.1
					c0.2,0.1,0.1-1.3,0.4-2.2c0.1-0.7-0.8-1.7-0.3-2.2c0.3-0.3,0.7-0.5,1.2-0.6c0.2,1.1,0.4,2.2,0.5,3.4c0,0.3,0,0.7,0,1
					c0,0.2-0.1,0.4-0.1,0.6c-0.1,0.3-0.3,0.6-0.5,0.8c0.3-0.1,0.5-0.4,0.6-0.8c0.1-0.2,0.1-0.4,0.1-0.6c0-0.3,0-0.7-0.1-1
					c0-1.1-0.1-2.3-0.1-3.4c0.5-0.1,0.9-0.2,1.3-0.3c0,0-0.1-0.4-0.1-0.5c0.9-1,2.4-1.3,3.6-1.2C79,10.5,79.3,10.6,79.6,10.6z"/>
			</g>
		</g>
	</g>
	<g>
		<g>
			<g>
				<g>
					<g>
						<g>
							<path d="M51.3,5.4c0-0.1-0.1-0.3-0.1-0.2v0.3L51.3,5.4z"/>
							<path d="M50.7,4.9c0,0.2-0.1,0.5,0.1,0.8c0-0.3,0.1-0.2,0-0.6C50.9,5,51,5.2,51,5.3c0-0.1,0.1,0,0.1-0.2
								c-0.1-0.2-0.2-0.2-0.3,0C50.8,5.1,50.8,5,50.7,4.9z"/>
							<path d="M40.8,3.9C40.8,3.9,40.9,3.9,40.8,3.9C40.8,3.8,40.8,3.9,40.8,3.9z"/>
							<path d="M44.6,4.6L44.6,4.6C44.5,4.6,44.5,4.6,44.6,4.6z"/>
							<path d="M50,5.9C50.1,5.9,50.1,5.8,50,5.9C50.1,5.8,50,5.8,50,5.9L50,5.9z"/>
							<path d="M46.3,4.5L46.3,4.5L46.3,4.5L46.3,4.5z"/>
							<path d="M47.5,4.4c0,0,0,0.3,0,0.4c0-0.1,0-0.2,0.1-0.2C47.5,4.6,47.5,4.5,47.5,4.4z"/>
							<polygon points="7.3,4.5 7.4,4.4 7.3,4.3 							"/>
							<path d="M27.8,2.4c0.1,0.3-0.2,0.3,0,0.6C27.8,2.9,28,2.6,27.8,2.4z"/>
							<path d="M35.1,3.1C35.1,3,35.1,3,35.1,3.1C35,3.1,35,3.1,35.1,3.1C35,3,35.1,3,35.1,3.1z"/>
							<path d="M12.3,5.3c0-0.1-0.1-0.2-0.1-0.2C12.3,5.3,12.1,5.4,12.3,5.3z"/>
							<path d="M34.9,5.3l-0.2-0.1C34.7,5.3,34.8,5.3,34.9,5.3z"/>
							<path d="M34.2,5.2c0-0.1-0.1-0.2-0.1-0.2S34.1,5,34.2,5.2L34.2,5.2z"/>
							<path d="M11.1,5.8c0.2,0,0.1-0.4,0.1-0.6c0.2-0.1,0.1,0.3,0.2,0.4c0.1-0.1,0.2-0.5,0.3-0.4c0,0.1,0,0.1,0,0.2
								c0.1-0.3,0.4,0,0.5-0.4v0.1c0-0.2-0.1-0.4-0.1-0.5c0.1,0,0.1-0.2,0.2,0c0,0,0,0.1-0.1,0.2l0.1-0.1c0.2,0.3,0,0.1,0,0.3
								c0.1-0.1,0.3-0.4,0.4-0.3c0,0.3-0.3,0.1-0.1,0.4L12.4,5c0.2,0.5-0.1,0,0.1,0.5c0.2,0.1,0.3-0.2,0.5-0.1c0-0.2,0-0.3,0-0.5
								c0.3-0.4,0.3,0.8,0.5,0.4c0-0.2,0-0.7,0.2-0.4v0.4c0.2,0,0.1-0.6,0.4-0.3c0,0.2-0.2,0.1-0.1,0.2C14.2,5.5,14.1,5,14.2,5v0.3
								C14.4,5.2,14.7,5,15,4.9c0,0.1,0,0.2,0,0.3c0.3-0.2,0.7,0,1.1,0.2L16.3,5c0,0,0.1,0.1,0,0.2c0.1,0.1,0-0.2,0.1-0.3
								c0.1,0,0.1,0.2,0.1,0.3c0.2-0.3,0.6-0.6,0.9-0.3V5c0.2,0.1,0.2-0.6,0.4-0.4v0.1c0.4,0.1,0.9-0.2,1.2,0.2
								c0-0.4,0.4,0.2,0.4-0.4c0.2,0.3,0.2,0.4,0.5,0.6c0.1,0,0.1-0.4,0.2-0.4V5l0.1-0.3V5l0.1-0.1c0,0-0.1-0.1-0.1-0.2
								c0.2-0.1,0.4,0.2,0.4,0.4L21,4.7c0,0.1-0.1,0.2-0.1,0.3c0.2-0.3,0,0.3,0.2,0c0-0.1,0-0.2,0-0.2C21.2,5,21.4,5,21.6,4.9v0.2
								c0.3,0,0.6-0.1,0.9-0.1c-0.1-0.1-0.1-0.5,0-0.5v0.3c0.1-0.2-0.1-0.1,0-0.4c0.1,0,0.1,0.4,0,0.5l0.1-0.1c0,0.1,0,0.1,0,0.3
								c0.1-0.2,0.3,0.3,0.3,0v0.1c0.3,0,0.5-0.1,0.7-0.1c0-0.3,0.1-0.2,0.2-0.4C24,4.8,24.2,5,24.4,5c0.2-0.1,0-0.2,0.1-0.4
								c0,0.3,0.2,0.2,0.1,0.4c0.3,0,0.3-0.1,0.7-0.3c0-0.1-0.1-0.1-0.1-0.2c0.1,0,0.1,0.1,0.1,0.2l0,0c0.4-0.4,0.9,0.7,1.2,0.2l0,0
								l0.3-0.3c0.1,0-0.1,0.2,0,0.4c0.3-0.4,0.5,0.1,0.8-0.2c0.2,0.8,0.8,0,1.1,0.4V5c0.2-0.3,0.2,0,0.3,0c0-0.1-0.1-0.2,0-0.3
								c0.6-0.2,1.3,0.3,2,0.5c0.2,0.1,0.2-0.9,0.5-0.5L31.4,5c0.5-0.4,1,0.1,1.5-0.2c0,0.1,0,0.2-0.1,0.2C32.7,5.3,33,5,33,4.9
								c0.1,0,0,0.2,0,0.3c0.1,0.1,0.3-0.3,0.3-0.1c0,0,0,0.1-0.1,0.1c0.1-0.1,0.3,0,0.3-0.2c0.3,0.1,0.5-0.2,0.6,0
								c0.1-0.3,0.3,0.2,0.4-0.3c0,0.5,0.3,0.4,0.4,0.2c0,0.1,0.1,0.1,0,0.3c0.1,0,0.3-0.1,0.3-0.3c0.2,0.6,0.5-0.4,0.6,0.3
								c0.4-0.2,0.8-0.3,1.1-0.4c-0.1,0.4-0.4,0-0.4,0.5C36.8,5.2,37,4.8,37.3,5c0.1,0.1-0.1,0.2-0.1,0.3c0.3-0.2,0.6,0.1,0.9-0.1
								c0,0,0,0.1-0.1,0.1c0.1,0,0.1,0.1,0.1-0.1H38c-0.1-0.3,0.3-0.6,0.3-0.7c-0.2,0.6,0.3,0.2,0,0.9c0,0,0.1-0.1,0.1-0.3
								c0.1,0,0.1,0.1,0,0.3c0.2-0.1,0.2-0.3,0.4-0.3c0,0.1-0.1,0.1-0.1,0.2C39,5.1,39.1,5,39.2,5.1c0,0.1,0,0.1-0.1,0.1
								c0.3,0,0.5-0.5,0.8-0.2c-0.1,0.4,0.1,0.2,0,0.5l0.2-0.1V5.2c0.1,0,0.3-0.2,0.4-0.1l-0.1,0.1h0.3L40.6,5
								c0.2-0.2,0.1-0.5,0.2-0.3c0,0,0.1,0,0.2,0.3l0,0c0.1-0.1,0.2-0.2,0.3-0.1c0,0.1-0.1,0.4-0.1,0.5c0.1-0.3,0.3,0,0.5-0.4
								c0,0.1-0.1,0.3-0.1,0.3l0.1-0.2c0.1,0.1,0.1,0.1,0,0.3c0.2,0.1,0-0.5,0.2-0.2c0,0,0,0.1-0.1,0.1c0.2,0.1,0.5-0.1,0.7,0.1
								c0,0.4-0.2,0.1-0.2,0.4c0.3,0,0.7-0.4,1-0.2h-0.1c0.1-0.5,0.2,0.3,0.4,0.1c0,0-0.1,0.3-0.1,0.2c0.2,0.1,0.4-0.1,0.8-0.2
								l-0.1,0.1c0.1,0.1,0.3,0.1,0.4,0.2c0.1-0.1,0.1-0.1,0.1-0.3C45,6.5,45.5,5.4,45.8,6l-0.1,0.1L46,6c0-0.2,0-0.1-0.1-0.3
								c0-0.1,0.1-0.2,0.2-0.2c-0.1,0.1,0,0.4,0,0.5c0-0.1,0-0.1,0-0.2c0.1,0.4,0-0.5,0.3-0.2v0.1c0.1-0.1,0.2-0.2,0.3-0.2
								c0,0.3-0.1,0.1-0.1,0.3c0.1,0,0.3-0.5,0.4-0.2c0.1-0.1,0-0.1,0,0c0.1,0.3,0.1,0.2,0.2,0.3l0,0L47.4,6l-0.1-0.1
								c0.2-0.7,0.3-0.1,0.5-0.6c-0.2,0.4,0,0.3,0,0.6C47.9,5.9,48,6,48,6.1c0.1-0.2,0.2,0.2,0.3-0.2c0,0.1,0.1,0,0.1,0.3
								c0.1-0.1,0-0.2,0-0.3c0.2-0.3,0.5,0.4,0.8-0.1c0.2-0.2,0.2-0.6,0.4-0.7c0.1,0.1,0,0.4,0,0.4c0.1,0.1,0.2,0.1,0.3,0
								c0,0.1,0,0.2,0.1,0.3c0.1,0,0-0.4,0.2-0.2c0,0.1,0,0.3,0,0.4c0.1-0.1,0.2-0.3,0.3-0.4c0.1,0.2,0,0.3,0,0.4
								c0.1-0.1,0.3-0.2,0.3-0.5l-0.1-0.1c0,0,0.1,0.2,0,0.3c-0.1,0.2-0.2-0.1-0.2-0.2l0.1-0.1c-0.2-0.5-0.3,0.1-0.5,0.1V5.1L50,5.5
								c-0.1-0.1-0.1-0.3,0-0.4c-0.1-0.2-0.1,0.2-0.2-0.1V4.9L49.7,5c0-0.1-0.1-0.3,0-0.2c-0.2-0.2-0.3,0.4-0.4,0l0,0
								c-0.3,0.2,0,0.3-0.2,0.7l-0.2-0.7v0.3c0,0-0.1,0-0.1-0.1c-0.1,0.2,0,0.1,0,0.3C48.6,5,48.4,5.5,48.4,5c0,0.2,0.1,0.2,0,0.3
								c-0.3-0.7-0.4,0-0.5-0.3c0-0.3,0.2-0.1,0-0.4c-0.1,0.5-0.2-0.1-0.3,0c0,0.4-0.2,0.2-0.4,0.3c0-0.1-0.3-0.2-0.5-0.3V4.5
								c0,0.4-0.2,0.3-0.3,0.4c0-0.2,0-0.3,0.1-0.4h-0.1c0,0.1-0.1,0.2-0.2,0.2V4.4c-0.2,0-0.3,0.3-0.5,0.1c0,0.3,0.1,0.7-0.1,0.9
								c0-0.1,0-0.4,0.1-0.4c0,0-0.1,0.1-0.1,0l0.1-0.2C45.5,4.7,45.6,5,45.5,5c0-0.2,0-0.1,0-0.3c0,0,0.1,0.1,0.1,0
								c-0.1,0-0.2-0.2-0.2-0.3c0,0.1,0,0.3-0.1,0.3c-0.2,0,0-0.2-0.1-0.4c-0.1,0.1-0.1,0-0.2,0.3c0,0,0-0.1-0.1-0.2
								c-0.1,0.1-0.4,0-0.3,0.3l0,0l0,0l0,0l0,0c-0.3,0.3-0.5-0.2-0.8-0.1V4.5c-0.2,0.1-0.4,0-0.5,0.2c0,0-0.1-0.2-0.1-0.3
								c-0.1,0.1-0.2,0.2-0.3,0c0.1-0.2,0-0.2,0.1-0.1c-0.1-0.1-0.2-0.3-0.4,0C42.7,4.1,42.5,4,42.4,4l0.1,0.2c-0.1,0-0.2,0-0.2,0
								l0.1-0.3c-0.3-0.4-0.7,0.6-0.8-0.1c-0.1,0.2,0.2,0.2,0,0.4c-0.1-0.1-0.2-0.6-0.3-0.6c0-0.3-0.1,0.4-0.3,0.2
								c0,0.1,0,0.4-0.2,0.5c-0.1-0.1-0.1-0.5,0-0.6c0,0,0,0,0,0.1c0.1,0,0.1-0.1,0.1-0.2v0.1c-0.1-0.1-0.3-0.1-0.2-0.3
								c-0.1,0.1-0.1,0.2,0,0.3c-0.2-0.2-0.3,0-0.5-0.2c0,0.1,0,0.2,0,0.2c-0.3-0.2-0.2,0.2-0.4,0.2c-0.1-0.2,0.1-0.4-0.1-0.3
								c-0.1-0.1,0-0.3,0.1-0.4C39.6,3.4,39.5,3,39.4,3l0.1-0.1c-0.1,0-0.1,0-0.2,0v0.2c-0.1,0-0.1-0.1-0.1-0.2
								c-0.1,0.1,0,0.4-0.2,0.6c-0.1-0.1-0.2,0.1-0.2-0.2C39,3.4,38.8,3,39,3h-0.1V2.9c-0.2-0.3-0.1,0.3-0.4,0.3
								c0.1-0.2,0-0.3-0.1-0.3c0.1,0,0,0.3-0.1,0.4c-0.1-0.2-0.2,0.1-0.3,0.1l0.1,0.1C38,3.7,38,3.6,37.9,3.7c0-0.1,0.1-0.1,0.1-0.1
								c0,0.2,0-0.5-0.2-0.3c-0.1-0.1,0-0.3,0-0.4c-0.2,0.2-0.2-0.3-0.4-0.1c0,0.2,0,0.2-0.1,0.4l0.3-0.1l-0.2,0.3
								c0.1,0,0.2-0.1,0.3-0.1c-0.1,0.2-0.1,0.1-0.1,0.3c-0.1-0.4-0.3,0.2-0.4-0.1V3c-0.2-0.3-0.4,0.3-0.7,0.1l0.1,0.1
								c-0.1,0.2-0.2,0-0.3,0.1c0-0.2,0-0.3-0.1-0.4c0,0.1-0.2,0-0.3,0.4L35.8,3c-0.2-0.1-0.3,0.5-0.5,0.5c0.1-0.2,0-0.4,0.2-0.5
								c-0.1,0-0.1,0-0.2,0.1c0-0.1-0.2,0.2-0.3,0.1c0,0.1-0.1,0.3-0.1,0.3V3.4c0,0.1-0.1,0.1-0.1,0.3C34.6,3,34.1,3.6,34,3
								c-0.2,0.1-0.4,0.1-0.5,0.1c0-0.1,0-0.1,0-0.1c-0.2-0.2-0.2,0.6-0.4,0.3C33,3,33.2,3.1,33.2,3c0-0.7-0.3,0.1-0.4-0.3l0,0
								c-0.1-0.2-0.3,0.2-0.5,0.2V2.8c-0.2,0.3-0.4,0.4-0.6,0.5c0.1-0.3,0.1-0.1,0.1-0.4c-0.1,0,0,0.4-0.2,0.5
								c0-0.1-0.2-0.3-0.2-0.5h0.2c-0.1-0.4-0.2,0-0.3-0.1V2.6C31.1,2.6,31,3,30.8,3v0.1c-0.2,0.4-0.1-0.2-0.3,0.1V2.8
								c-0.1,0.1-0.3,0.4-0.5,0.4c0.1-0.3,0.3-0.4,0.4-0.6c-0.1,0-0.3,0-0.4,0.2l0.1-0.1C30,3,29.8,3.2,29.6,3.1
								c0.1-0.8-0.5-0.2-0.6-0.8c-0.3,0.3-0.7-0.1-1.1-0.1c0.1,0.6-0.1,0-0.1,0.6c-0.1,0-0.1,0-0.1,0l-0.3-0.4
								c-0.1-0.2,0.1-0.1,0.1-0.3c-0.2,0-0.1-0.3-0.2-0.4c0,0.2-0.1,0.3-0.2,0.2l0.2,0.3C27,2.5,27.1,1.7,26.8,2l0.1-0.2
								c-0.1,0.1-0.5,0-0.7,0.5c0-0.1-0.1-0.2,0-0.3c-0.3-0.1-0.8,0.5-1,0.2V2.1c-0.1,0-0.1,0.3-0.2,0.1c0-0.1,0-0.1,0-0.2
								c0,0.1-0.2,0.3-0.3,0.2L24.8,2c-0.3-0.2-0.5,0.4-0.8,0.5c0-0.4-0.3-0.6-0.4-0.6V1.8c-0.4,0-0.7,0.4-1,0.6
								c-0.2-0.5-0.8-0.2-1.1-0.4c0.1,0.1,0,0.3-0.1,0.4c-0.1-0.1-0.2,0.3-0.2-0.1l0,0C21.1,1.9,21,2,20.8,2v0.5
								c-0.4-0.8-0.9,0.3-1.1-0.4c-0.1,0.1-0.2,0.1-0.3,0.3V2.1C19.2,2,19,2,18.8,2.1V1.9c-0.2,0-0.2,0.8-0.3,0.9l-0.1-0.4
								c-0.3,0-0.6-0.3-0.9,0.1c0-0.1,0-0.2,0-0.2C17.4,2.3,17,2,17,2.6c0-0.4-0.3,0-0.4,0.2V2.5c-0.1,0.4-0.1,0.5-0.3,0.6
								c0,0-0.1-0.2,0-0.2C16.1,2.8,16.2,3.2,16,3l0.1-0.2c-0.1,0-0.1,0.1-0.2,0.3c-0.1,0.1-0.3-0.1-0.3-0.3c0,0.2-0.1,0.4-0.2,0.3
								c0-0.1,0-0.2,0-0.2c-0.3-0.2-0.3,0.3-0.5,0.1c0-0.1,0-0.1,0-0.2c0.2,0,0.4,0,0.3,0c0-0.3-0.2-0.3-0.1-0.7
								c0.1,0.6-0.1,1-0.2,0.9c0,0,0,0,0-0.1l0,0h-0.1c-0.1,0-0.1-0.1-0.1-0.1c0-0.2-0.2-0.1-0.3-0.1c0,0.3-0.1,0.2,0,0.5
								c0,0,0,0,0.1,0l0,0l0,0c0.1,0,0.1,0,0.2,0c-0.1,0.1-0.1,0.3-0.2,0.1c0,0.2-0.1,0.4-0.1,0.5C14.3,3.3,14,3.1,14,2.9
								c-0.2,0.2-0.6,0.1-0.7,0.7c-0.1,0.1-0.1-0.1-0.1-0.2c0-0.1,0.1-0.1,0.1-0.1c-0.1,0.1-0.4,0.1-0.4,0.5
								c-0.2-0.2,0.1-0.3-0.2-0.3V3.4c-0.5-0.6-0.7,1-1.3,0.3l0.1,0.1c-0.6-0.3-1.2,0.4-1.8-0.1C9.6,3.5,9.6,3.8,9.5,3.9L9.4,3.6
								L9.3,4C9,4.3,8.8,3.3,8.5,3.8L8.6,4C8.4,4,8.2,4.2,8.2,3.9c0,0,0,0.2-0.1,0.1V3.8L7.9,4.2c-0.2-0.1,0-0.6-0.3-0.6
								C7.4,3.6,7.3,4,7.3,4.1c0,0,0.1,0.1,0.1,0.2v0.1c0,0.5,0,0.9,0.3,1.3l0.2-0.3L8,5.6H7.8c0.1,0.2,0.1,0,0.2-0.1
								c0,0.1,0.1,0.2,0.1,0.2l0.1-0.5c0,0.2-0.1,0.4,0.1,0.5c0.1-0.2-0.1-0.4,0-0.5c0.1,0.2,0.1,0.4,0.2,0.2c0,0.1,0,0.2,0,0.3
								c0.1-0.2,0.2-0.1,0.3-0.3c0.1,0.3,0.3-0.1,0.3,0.3c0-0.1,0.1-0.4,0.2-0.4c-0.1,0.5,0.3,0,0.3,0.6c0-0.5,0.3-0.3,0.4-0.5v0.1
								c0.1,0,0.2,0.2,0.2,0.3c0-0.4,0.2-0.5,0.2-0.7c0.2,0.4,0,0.5,0,0.8c0-0.3,0.2-0.3,0.1-0.6c0.1,0.2,0.1,0.1,0.2,0.4
								c0-0.5,0.1-0.1,0.2-0.4c0.2,0.2,0.1,0.5,0.2,0.3C11.3,5.7,11.1,5.8,11.1,5.8z M15,4.7L15,4.7C15,4.7,15,4.8,15,4.7L15,4.7z
								 M15.4,4.7h-0.1c0-0.1,0-0.2,0-0.2C15.2,4.6,15.3,4.6,15.4,4.7z M14.5,2.8C14.6,2.8,14.6,2.8,14.5,2.8
								C14.6,2.9,14.5,2.9,14.5,2.8L14.5,2.8C14.5,2.9,14.5,2.8,14.5,2.8z"/>
							<polygon points="20,5 19.9,4.9 19.9,5 							"/>
							<path d="M47.2,5.8L47.2,5.8C47.3,5.9,47.2,5.9,47.2,5.8z"/>
							<path d="M41,5L41,5C40.9,5.1,41,5.2,41,5z"/>
							<path d="M40.7,5.1C40.7,5.2,40.8,5.2,40.7,5.1C40.8,5.1,40.8,5.1,40.7,5.1z"/>
							<path d="M49.5,5.9c0.1,0,0.2,0.2,0.3,0.1V5.9C49.7,6.1,49.5,5.7,49.5,5.9z"/>
							<path d="M48.3,4.7l0.2,0.1c0-0.1-0.1-0.2,0-0.3C48.3,4.2,48.6,4.7,48.3,4.7z"/>
							<path d="M47.7,4.6c0.1-0.1,0-0.2,0-0.2C47.7,4.5,47.6,4.5,47.7,4.6z"/>
							<path d="M43.2,4.3V4C43.2,4,43.3,4.1,43.2,4.3z"/>
							<polygon points="42.2,5.4 42.2,5.6 42.3,5.4 							"/>
							<polygon points="41.9,3.6 42,3.5 41.8,3.6 							"/>
							<path d="M34.2,2.7V3C34.2,3,34.3,2.7,34.2,2.7z"/>
							<path d="M30.8,2.9c0-0.2-0.1-0.3-0.2-0.1C30.7,2.8,30.8,2.9,30.8,2.9z"/>
							<path d="M20.7,2.4l0.1-0.1L20.7,2.4z"/>
						</g>
					</g>
				</g>
			</g>
		</g>
		<g>
			<g>
				<g>
					<g>
						<g>
							<path d="M6,28.4c0.1,0,0.3,0,0.2-0.1L6,28.4L6,28.4z"/>
							<path d="M6.6,28.1c-0.2,0-0.4,0-0.7,0C6.2,28.1,6.1,28.1,6.6,28.1c-0.1,0-0.2,0.1-0.3,0.1c0.1,0-0.1,0.1,0.1,0.1
								c0.2-0.1,0.3-0.1,0-0.2C6.4,28.1,6.5,28.1,6.6,28.1z"/>
							<path d="M5.7,27.7C5.8,27.8,5.8,27.8,5.7,27.7C5.8,27.8,5.8,27.7,5.7,27.7L5.7,27.7z"/>
							<path d="M7.2,26.3c0,0-0.3,0-0.4,0c0.1,0,0.2,0,0.2,0C7.1,26.4,7.2,26.4,7.2,26.3z"/>
							<path d="M6.8,16.1c-0.2,0.1-0.3-0.1-0.6,0C6.3,16.1,6.7,16.2,6.8,16.1z"/>
							<path d="M4.3,8.1c0.1,0,0.2,0,0.3,0C4.3,8,4.3,8,4.3,8.1z"/>
							<path d="M4.4,19.6c0.1,0,0.2,0,0.2-0.1c0,0,0,0-0.1,0L4.4,19.6z"/>
							<path d="M3.9,7.4c0,0.1,0.4,0,0.6,0.1c0.1,0.1-0.3,0-0.5,0.1c0.1,0.1,0.4,0.1,0.4,0.2c-0.1,0-0.1,0-0.2,0
								c0.3,0.1,0,0.2,0.4,0.3H4.5C4.7,8,4.9,8,5,8c0,0,0.2,0.1,0,0.1c0,0-0.1,0-0.2,0h0.1C4.6,8.1,4.8,8,4.5,8
								C4.7,8.1,5,8.2,4.9,8.3c-0.3,0-0.1-0.1-0.4-0.1l0.1-0.1c-0.5,0.1,0-0.1-0.5,0C4,8.3,4.2,8.3,4.1,8.4c0.2,0,0.3,0,0.5,0
								C5,8.6,3.8,8.6,4.2,8.7c0.2,0,0.7,0,0.4,0.1H4.2c0,0.1,0.6,0.1,0.3,0.2C4.4,9,4.4,8.9,4.4,8.9C4.1,9,4.6,9,4.6,9.1H4.3
								c0.1,0.1,0.3,0.3,0.4,0.4c-0.1,0-0.2,0-0.3,0c0.2,0.2,0,0.4-0.2,0.6l0.3,0.1c0,0-0.1,0-0.2,0c-0.1,0.1,0.2,0,0.3,0
								c0,0-0.2,0.1-0.3,0c0.3,0.1,0.5,0.3,0.2,0.5H4.4c-0.1,0.1,0.6,0.1,0.3,0.2H4.6c-0.1,0.2,0.1,0.5-0.3,0.6
								c0.4,0-0.2,0.2,0.4,0.2c-0.3,0.1-0.4,0.1-0.6,0.3l0.4,0.1H4.2l0.3,0.1l-0.4,0.1l0.1,0.1c0,0,0.1,0,0.2,0
								c0.1,0.1-0.2,0.2-0.4,0.2l0.3,0.2c-0.1,0-0.2,0-0.2-0.1c0.3,0.1-0.3,0,0,0.1c0.1,0,0.2,0,0.2,0C4.1,12.9,4.1,13,4.2,13H4
								c0,0.1,0.1,0.3,0.1,0.5c0.1-0.1,0.5-0.1,0.5,0H4.3c0.2,0,0.1-0.1,0.4,0c0,0.1-0.4,0.1-0.5,0l0.1,0.1c-0.1,0-0.1,0-0.3,0
								c0.2,0-0.3,0.1,0,0.2H3.9C3.9,14,4,14,4,14.2c0.3,0,0.2,0,0.4,0.1c-0.1,0.1-0.3,0.2-0.3,0.3c0.1,0.1,0.2,0,0.4,0
								c-0.3,0-0.2,0.1-0.4,0.1c0,0.1,0.1,0.2,0.3,0.4c0.1,0,0.1,0,0.2,0c0,0-0.1,0.1-0.2,0.1l0,0c0.4,0.2-0.7,0.5-0.2,0.6l0,0
								L4.5,16c0,0.1-0.2,0-0.4,0c0.4,0.2,0,0.3,0.2,0.4c-0.7,0.2,0.1,0.4-0.4,0.6h0.2C4.3,17,4,17.1,4,17.1c0.1,0,0.2-0.1,0.3,0
								c0.2,0.3-0.2,0.7-0.4,1.1c0,0.1,0.9,0,0.5,0.2H4.1c0.4,0.2,0,0.5,0.4,0.8c-0.1,0-0.2,0-0.2,0c-0.2,0.1,0,0.2,0.2,0.2
								c0,0-0.2,0-0.3,0.1c-0.1,0.1,0.3,0.1,0.1,0.2H4.2c0.1,0,0,0.2,0.3,0.1c-0.1,0.1,0.1,0.2,0,0.3c0.3,0-0.1,0.2,0.3,0.2
								c-0.5,0-0.4,0.2-0.1,0.2c-0.1,0-0.1,0.1-0.3,0.1c0,0.1,0.1,0.1,0.3,0.1c-0.5,0.2,0.5,0.2-0.2,0.3c0.3-0.4,0.5-0.2,0.6,0
								c-0.5,0-0.1-0.2-0.5-0.2C4.8,21,5.2,21,5.1,21.2c-0.1,0-0.2,0-0.3,0c0.2,0.2,0,0.3,0.2,0.5H4.9c0,0-0.1,0.1,0.1,0.1H4.9
								c0.3-0.1,0.6,0.1,0.8,0.1c-0.6,0-0.1,0.2-0.9,0.1c0,0,0.1,0,0.3,0c0,0-0.1,0-0.3,0c0.2,0,0.5,0,0.5,0.1c-0.1,0-0.1,0-0.3,0
								c0.2,0,0.4,0.1,0.3,0.2c-0.1,0-0.1,0-0.1,0c0,0.1,0.5,0.2,0.4,0.4c-0.4,0-0.1,0.1-0.5,0.1l0.1,0.1h0.2c0,0.1,0.3,0.1,0.2,0.2
								H5.4V23l0.1-0.1C5.7,23,6,22.8,5.9,23c0,0,0,0.1-0.2,0.1l0,0c0.1,0,0.2,0.1,0.2,0.1c-0.1,0-0.4,0-0.5,0
								c0.3,0,0.1,0.2,0.4,0.2c-0.1,0-0.3,0-0.3,0h0.3c-0.1,0-0.1,0-0.3,0.1c0,0.1,0.5-0.1,0.3,0.1H5.7c-0.1,0.1,0.2,0.2,0.1,0.3
								c-0.4,0.1-0.1-0.1-0.4,0c0.1,0.2,0.5,0.3,0.4,0.5l0,0c0.5,0-0.2,0.1,0,0.2c0,0-0.3,0-0.2,0c-0.1,0.1,0.2,0.2,0.3,0.4H5.8
								c-0.1,0.1-0.1,0.2-0.1,0.2c0.1,0,0.1,0,0.3,0c-0.8,0.3,0.5,0.4-0.2,0.6H5.7l0.1,0.1c0.2,0,0.1,0,0.3-0.1c0.1,0,0.2,0,0.3,0.1
								c-0.2-0.1-0.4,0-0.5,0.1C6,26,6,26,6.1,26c-0.4,0.1,0.5,0,0.2,0.1H6.2c0.1,0,0.2,0.1,0.2,0.1c-0.3,0-0.1,0-0.3,0
								c0,0.1,0.5,0.1,0.3,0.2c-0.1,0-0.1-0.1-0.2-0.1c-0.3,0.1-0.2,0.1-0.3,0.1l0,0l-0.1,0.1h0.1c0.7,0,0.1,0.1,0.6,0.2
								c-0.4-0.1-0.3,0-0.6,0c-0.1,0-0.2,0.1-0.3,0.1c0.2,0-0.2,0.1,0.2,0.1c-0.1,0,0,0.1-0.2,0.1c0.1,0.1,0.2,0,0.3,0
								c0.3,0.1-0.4,0.3,0.1,0.4c0.2,0.1,0.5,0.1,0.7,0.2c-0.2,0.1-0.4,0-0.4,0c-0.1,0.1-0.1,0.1,0,0.2c-0.1,0-0.2,0-0.3,0
								c0,0,0.4,0,0.2,0.1c-0.1,0-0.3,0-0.4,0c0.1,0,0.3,0.1,0.4,0.1c-0.2,0-0.3,0-0.4,0c0.1-0.1,0.2,0,0.5,0h0.1c0,0-0.2,0-0.3,0
								c-0.2,0,0.1-0.1,0.2-0.1h0.1c0.6-0.1-0.1-0.2-0.1-0.2h0.4H6.3c0.1,0,0.3-0.1,0.4,0c0.2-0.1-0.2,0,0.1-0.1h0.1H6.8
								c0.1,0,0.3,0,0.2,0c0.2-0.1-0.3-0.1,0-0.2l0,0c-0.2-0.1-0.3,0-0.7-0.1L7,27H6.7c0,0,0,0,0.2-0.1c-0.2,0-0.1,0-0.3,0
								c0.3-0.1-0.2-0.2,0.3-0.3c-0.2,0-0.2,0.1-0.3,0c0.5-0.1-0.1-0.1,0.1-0.2c0.3,0,0.1,0.1,0.4,0c-0.5,0,0.1-0.1,0-0.2
								c-0.4,0-0.2-0.1-0.3-0.2c0.1,0,0.2-0.2,0.3-0.3h0.1c-0.4,0-0.3-0.1-0.4-0.1c0.2,0,0.3,0,0.4,0v-0.1c-0.1,0-0.2,0-0.2-0.1h0.3
								c0-0.1-0.3-0.1-0.2-0.3c-0.3,0-0.7,0.2-0.9,0.1c0.1,0,0.4,0,0.4,0H6.5h0.2c0.1-0.1-0.2,0-0.2,0c0.2,0,0.1,0,0.3-0.1
								c0,0-0.1,0,0,0c0,0,0.1-0.1,0.3-0.1c-0.1,0-0.3,0-0.3,0c0-0.1,0.2-0.1,0.3-0.1c-0.1,0,0-0.1-0.3,0c0,0,0.1,0,0.2-0.1
								c-0.1,0-0.1-0.2-0.4-0.1l0,0l0,0l0,0l0,0c-0.3-0.1,0.1-0.3,0-0.4h0.1c-0.1-0.1-0.1-0.2-0.3-0.2c0,0,0.2-0.1,0.3-0.1
								c-0.1-0.1-0.2-0.1,0-0.2c0.2,0,0.1,0,0.1,0.1c0.1-0.1,0.2-0.1,0-0.2c0.3,0,0.3-0.1,0.2-0.1l-0.2,0.1v-0.1h0.3
								c0.4-0.2-0.7-0.2,0-0.4c-0.2,0-0.2,0.1-0.4,0.1c0-0.1,0.5-0.2,0.5-0.2C7.4,23,6.7,23,6.9,22.9c-0.1,0-0.4,0.1-0.5,0
								c0-0.1,0.5-0.1,0.6-0.1c0,0,0,0-0.1,0c0,0,0.1,0,0.2,0H7c0.1,0,0.1-0.2,0.3-0.1c-0.1,0-0.2,0-0.3,0c0.2-0.1,0-0.2,0.1-0.3
								c-0.1,0-0.2,0-0.2,0c0.1-0.2-0.2,0-0.3-0.1c0.2-0.1,0.4,0,0.3-0.1c0.1-0.1,0.3,0,0.4,0C7,22.1,7.4,22,7.4,22h0.1
								c-0.1,0-0.1,0-0.1-0.1H7.2c0,0,0-0.1,0.1-0.1c-0.2,0-0.4,0.1-0.6,0c0.1,0-0.1-0.1,0.2-0.1c-0.1,0.1,0.3,0,0.4,0.1
								c0,0,0,0,0-0.1h0.1c0.3-0.1-0.4,0-0.4-0.1c0.2,0,0.3-0.1,0.3-0.1s-0.3,0-0.4,0c0.1-0.1-0.1-0.1-0.1-0.1l-0.1,0.1
								c-0.2,0-0.2,0-0.2-0.1c0.1,0,0.1,0,0.2,0c-0.3,0,0.3-0.2,0.1-0.2c0.1,0,0.3,0,0.4-0.1C7,21,7.4,21,7.2,20.9
								c-0.2,0-0.2,0-0.4,0L7,21.1L6.6,21c0,0,0.2,0.1,0.1,0.1c-0.2,0-0.1,0-0.3,0c0.4-0.1-0.2-0.1,0-0.2H7c0.3-0.1-0.3-0.2-0.2-0.3
								l-0.1,0.1c-0.2,0,0-0.1-0.1-0.1c0.2,0,0.3,0,0.4-0.1c-0.1,0,0-0.1-0.4-0.1l0.3-0.1C7,20.1,6.3,20.1,6.4,20c0.2,0,0.4,0,0.5,0
								c0,0,0-0.1-0.1-0.1c0.1,0-0.3-0.1-0.1-0.1c-0.1,0-0.3,0-0.3,0h0.1c-0.1,0-0.1-0.1-0.4,0c0.6-0.2-0.1-0.3,0.5-0.5
								c-0.1-0.1-0.1-0.2-0.2-0.3c0.1,0,0.1,0,0.1,0c0.2-0.1-0.6,0-0.4-0.2c0.3-0.1,0.2,0.1,0.3,0c0.6-0.1-0.1-0.1,0.3-0.2l0,0
								c0.2-0.1-0.3-0.1-0.2-0.2h0.1c-0.3,0-0.5-0.2-0.5-0.3c0.3,0,0.1,0,0.4,0c0,0-0.4,0-0.5,0c0.1,0,0.3-0.1,0.5-0.1v0.1
								c0.4-0.1,0-0.1,0-0.2h0.2c-0.1-0.1-0.4-0.1-0.4-0.2H6.2c-0.4-0.1,0.2-0.1-0.1-0.1h0.4c-0.1,0-0.4-0.2-0.5-0.2
								c0.3,0,0.5,0.1,0.6,0.2c0,0,0-0.2-0.2-0.2c0,0,0.1,0,0.1,0.1c-0.3,0-0.5-0.1-0.5-0.2c0.8,0,0.2-0.3,0.8-0.4
								c-0.3-0.2,0.1-0.3,0-0.5c-0.6,0.1,0-0.1-0.6,0v-0.1L6.6,16c0.2,0,0.1,0,0.3,0c0-0.1,0.3-0.1,0.4-0.1c-0.2,0-0.3,0-0.2-0.1
								l-0.3,0.1c-0.3-0.1,0.5-0.1,0.2-0.3h0.2c-0.1-0.1,0-0.3-0.5-0.3c0.1,0,0.2,0,0.3,0c0.1-0.2-0.5-0.4-0.2-0.5h0.1
								c0,0-0.3,0-0.1-0.1c0.1,0,0.1,0,0.2,0c-0.1,0-0.3-0.1-0.2-0.1H7c0.2-0.2-0.4-0.2-0.5-0.4c0.4,0,0.6-0.2,0.6-0.2L7,14
								c0-0.2-0.4-0.3-0.6-0.5c0.5-0.1,0.2-0.4,0.4-0.6c-0.1,0-0.3,0-0.4,0c0.1,0-0.3-0.1,0.1-0.1l0,0c0.4,0,0.3-0.1,0.3-0.2H6.3
								C7.1,12.4,6,12.1,6.7,12c-0.1,0-0.1-0.1-0.3-0.1h0.3c0.1-0.1,0.1-0.2,0-0.3h0.2c0-0.1-0.8-0.1-0.8-0.2h0.4
								c0-0.1,0.4-0.3,0-0.4c0.1,0,0.2,0,0.2,0c0-0.1,0.3-0.3-0.3-0.2c0.4,0,0-0.2-0.1-0.2h0.3c-0.4-0.1-0.5-0.1-0.6-0.2h0.2
								c0.1-0.1-0.3-0.1-0.1-0.1h0.2c0-0.1-0.1-0.1-0.3-0.1c-0.1,0,0.1-0.1,0.3-0.2C6.2,9.9,6,9.9,6,9.8c0.1,0,0.2,0,0.2,0
								c0.2-0.1-0.3-0.2-0.1-0.3c0.1,0,0.1,0,0.2,0c0,0.1,0,0.2,0,0.2c0.3,0,0.3-0.1,0.7,0C6.7,9.6,6.3,9.5,6.4,9.4c0,0,0,0,0.1,0
								l0,0c0,0,0,0,0-0.1c0,0,0.1,0,0.1-0.1c0.2,0,0.1-0.1,0.1-0.1c-0.3,0-0.2,0-0.5,0l0,0l0,0l0,0v0.1c-0.1,0-0.3-0.1-0.1-0.1
								c-0.2,0-0.4,0-0.5-0.1c0.6,0.1,0.8,0,1,0C6.4,8.9,6.5,8.7,6,8.6c-0.1,0,0.2,0,0.2-0.1c0.1,0,0,0,0.1,0.1
								c-0.1,0,0-0.2-0.4-0.2c0.2-0.1,0.3,0,0.3-0.1h0.1C6.9,8.1,5.4,8,6.1,7.7H6c0.3-0.3-0.3-0.6,0.2-0.9c0.1-0.1-0.1-0.1-0.3-0.1
								h0.3L5.8,6.5C5.6,6.4,6.6,6.3,6.1,6.1H5.9C5.9,6.1,5.8,6,6,6c0,0-0.2,0-0.1,0h0.2L5.8,5.8c0.1-0.1,0.6,0,0.7-0.1
								C6.4,5.6,6,5.5,5.9,5.5c0,0-0.1,0.1-0.3,0.1V5.5c-0.5,0-0.9-0.1-1.3,0.1l0.3,0.1H4.4V5.6c-0.2,0,0,0.1,0.1,0.1
								c-0.1,0-0.2,0-0.2,0l0.4,0.1c-0.2,0-0.4,0-0.5,0c0.2,0,0.4,0,0.5,0C4.5,6,4.3,5.9,4.5,6C4.4,6,4.3,6,4.3,6
								c0.1,0,0.1,0.1,0.3,0.2c-0.3,0,0.1,0.2-0.4,0.2c0.1,0,0.3,0.1,0.4,0.1C4,6.3,4.5,6.6,4,6.5c0.5,0.1,0.2,0.2,0.5,0.3H4.4
								c0,0.1-0.2,0.1-0.3,0.1C4.5,7,4.6,7,4.8,7.1c-0.4,0.1-0.5,0-0.8,0c0.3,0,0.3,0.1,0.6,0.1c-0.2,0.1-0.1,0-0.4,0.1
								c0.5,0,0.1,0.1,0.4,0.1c-0.3,0-0.6,0-0.4,0.1C4,7.5,3.9,7.4,3.9,7.4z M4.7,9.5L4.7,9.5L4.7,9.5L4.7,9.5z M4.7,9.7
								C4.7,9.6,4.7,9.6,4.7,9.7c0.1-0.1,0.2-0.1,0.2-0.1C4.9,9.6,4.8,9.6,4.7,9.7z M6.7,9.3L6.7,9.3C6.6,9.3,6.6,9.3,6.7,9.3
								L6.7,9.3C6.6,9.3,6.6,9.3,6.7,9.3z"/>
							<path d="M5.8,27.5c0,0-0.2,0.1-0.1,0.1h0.1C5.6,27.6,6,27.5,5.8,27.5z"/>
							<path d="M7,26.8l-0.1,0.1c0.1,0,0.2-0.1,0.3,0C7.5,26.7,7,26.9,7,26.8z"/>
							<path d="M7.1,26.5c0.1,0.1,0.2,0,0.2,0C7.2,26.4,7.2,26.4,7.1,26.5z"/>
							<path d="M6.9,24.1h0.3C7.1,24,7,24.1,6.9,24.1z"/>
							<path d="M6.5,17.7c0.2,0,0.3-0.1,0.1-0.1C6.6,17.6,6.4,17.6,6.5,17.7z"/>
							<polygon points="6.8,12.5 6.9,12.5 6.8,12.4 							"/>
						</g>
					</g>
				</g>
			</g>
		</g>
		<g>
			<g>
				<g>
					<g>
						<g>
							<path d="M75.9,29.5c0.1-0.1,0.1-0.3-0.1-0.3l-0.1,0.3H75.9z"/>
							<path d="M75,28.8c-0.2,0.1-0.4,0.4-0.4,0.7c0.2-0.3,0.2-0.2,0.5-0.5c0.1,0,0.2,0.1,0.2,0.3c0.1-0.1,0.2,0.1,0.3-0.1
								c-0.1-0.3-0.4-0.3-0.6-0.1C74.9,28.9,75,28.9,75,28.8z"/>
							<path d="M52.7,26.6C52.8,26.6,52.8,26.5,52.7,26.6C52.8,26.5,52.7,26.5,52.7,26.6z"/>
							<path d="M61.3,27.1L61,26.9C61,27.1,61.2,27,61.3,27.1z"/>
							<path d="M73,29.3c0,0,0.1,0,0.1-0.1C73.1,29.3,73.1,29.3,73,29.3L73,29.3z"/>
							<path d="M65.1,27L65.1,27c0.1,0,0.1-0.1,0.1-0.1L65.1,27z"/>
							<path d="M68,27.2c-0.1,0-0.1,0.3-0.1,0.4c0-0.1,0.1-0.2,0.2-0.2C68,27.3,68,27.2,68,27.2z"/>
							<path d="M48.7,25.5L48.7,25.5C48.8,25.4,48.8,25.4,48.7,25.5z"/>
							<path d="M24.1,23c0.3,0.2-0.4,0.4,0,0.6C24.1,23.5,24.5,23.2,24.1,23z"/>
							<path d="M42.7,24.6c0,0.1,0,0.1,0,0.1C42.8,24.7,42.7,24.6,42.7,24.6z"/>
							<path d="M47.1,25.8L47.1,25.8L47.1,25.8z"/>
							<path d="M40.3,24.5c-0.1,0-0.1-0.1-0.2-0.1l0,0C40.2,24.4,40.2,24.4,40.3,24.5z"/>
							<path d="M37.8,24C37.8,24,37.9,24.1,37.8,24l0.1,0.1L37.8,24z"/>
							<path d="M6.7,18.1C6.8,18.1,6.9,18,7,18C6.8,18.1,6.7,17.7,6.7,18.1z"/>
							<path d="M73,29.2c0,0.1,0,0.1-0.1,0.1H73C73.1,29.2,73.1,29.2,73,29.2z"/>
							<path d="M39.8,26.6l-0.4-0.1C39.5,26.6,39.6,26.6,39.8,26.6z"/>
							<path d="M38.2,26.3c-0.1-0.1-0.1-0.2-0.2-0.2c0,0,0,0-0.1,0.1L38.2,26.3z"/>
							<path d="M6.2,15.4c0,0.4,0.4,0.2,0.6,0.2C6.9,16,6.5,15.8,6.4,16c0.1,0.3,0.5,0.5,0.5,0.7c-0.1,0-0.1,0.1-0.2,0
								c0.2,0.3,0,0.9,0.4,1.3C7,18,7,18,7,18c0.2-0.1,0.4-0.1,0.5-0.1c0,0.2,0.2,0.3,0,0.4c0-0.1-0.1-0.1-0.2-0.2l0.1,0.2
								c-0.3,0.2-0.1-0.2-0.4-0.2c0.1,0.3,0.4,0.7,0.4,1c-0.3,0.1-0.1-0.6-0.4-0.2l0.1-0.4c-0.5,0.3,0-0.2-0.5,0.1
								c-0.1,0.5,0.2,0.6,0.1,1.1c0.2,0.1,0.3-0.1,0.5,0.1c0.4,0.7-0.8,0.6-0.3,1.2c0.1,0,0.6,0,0.4,0.4l-0.4-0.1
								c0,0.5,0.6,0.3,0.3,0.8C7,22,7.1,21.7,7,21.8c-0.3,0.4,0.2,0.2,0.2,0.5l-0.3,0.1C7,23,7.3,23.6,7.4,24.2
								c-0.1,0-0.2-0.1-0.3,0c0.1,0.4,0.1,0.8,0.1,1.2v0.3v0.1l0,0C7,25.9,7,26,6.9,26l0.3,0.2c0,0-0.1,0-0.2-0.1
								c-0.1,0,0.2,0.1,0.3,0.2c0,0.1-0.2-0.1-0.3-0.2c0.1,0.1,0.2,0.2,0.2,0.4c0,0.1,0.1,0.2,0.1,0.2v0.1l0,0
								c-0.1,0-0.3-0.1-0.4-0.3v-0.1c-0.1-0.1,0,0.1-0.1,0.2c0,0.1-0.1,0.2-0.2,0.1l0,0c-0.1,0-0.1-0.1-0.2-0.1H6.3H6.1
								c-0.2,0-0.5-0.1-0.7-0.1c-0.5-0.1-0.9-0.1-1.3-0.3l0.6,2.1h0.1c-0.1-0.4,0.8-0.2,0.6-0.7c0.6,0.1,0.5,0.2,1.1,0.2
								c0.2,0,0.1-0.4,0.3-0.5l0.1,0.3l0.2-0.4l0.2,0.3l0.2-0.1c-0.1,0-0.2-0.1-0.2-0.2c0.3-0.2,0.8,0,0.9,0.2L8.9,27
								c0,0.1-0.1,0.2-0.2,0.3c0.4-0.4,0.1,0.3,0.5,0c-0.1-0.1,0-0.2,0-0.2c0.2,0.2,0.7,0.1,1,0v0.2c0.6,0,1.3-0.2,2-0.3
								c-0.3-0.1-0.2-0.5,0-0.5l0.1,0.3c0.1-0.2-0.2-0.1,0-0.4c0.3,0,0.2,0.4,0.1,0.5l0.3-0.1c0,0.1,0,0.2-0.1,0.3
								c0.1-0.2,0.6,0.3,0.7-0.1v0.1c0.7-0.1,1-0.2,1.6-0.3c0-0.3,0.2-0.2,0.4-0.5c0.4,0,0.9,0.2,1.4,0.1c0.3-0.2,0.1-0.2,0.2-0.4
								c0.1,0.3,0.6,0.2,0.3,0.4c0.6-0.1,0.8-0.2,1.5-0.5c-0.1-0.1-0.2-0.1-0.2-0.2c0.1-0.1,0.3,0.1,0.3,0.2l0,0
								c0.8-0.5,2.1,0.5,2.7-0.1l0,0l0.7-0.4c0.3,0-0.2,0.2,0.1,0.3c0.7-0.5,1.2-0.1,1.8-0.4c0.6,0.7,1.7-0.2,2.4,0.2v-0.2
								c0.2-0.2,0.2,0.1,0.3,0.1c0-0.1-0.2-0.2-0.1-0.3c1.4-0.3,2.9,0.2,4.3,0.4c0.5,0.1,0.4-0.9,1-0.4l-0.2,0.3
								c1.1-0.3,2.1,0.2,3.2,0.1c-0.1,0.1-0.1,0.2-0.2,0.1c0.2,0.3,0.8,0.1,0.8-0.1c0.2,0,0,0.2,0.1,0.3c0.2,0.2,0.6-0.2,0.7,0
								l-0.1,0.1c0.2-0.1,0.7,0.1,0.6-0.2c0.4,0.2,0.8,0,1.1,0.2c0.3-0.3,0.6,0.3,0.8-0.1c-0.1,0.4,0.6,0.5,0.9,0.3
								c-0.1,0.1,0.2,0.2,0.1,0.3c0.3,0.1,0.6,0,0.6-0.2c0.4,0.6,1.1-0.2,1.3,0.5c0.9-0.1,1.7-0.1,2.5,0c-0.1,0.4-0.9-0.1-0.9,0.4
								c0.8,0,1.3-0.3,2-0.1c0.2,0.1-0.1,0.2-0.2,0.2c0.8-0.1,1.4,0.3,2.1,0.1c0,0-0.1,0.1-0.2,0.1c0.1,0,0.3,0.1,0.3-0.1h-0.1
								c-0.2-0.3,0.6-0.5,0.6-0.7c-0.3,0.6,0.6,0.2,0.2,0.9c0.1,0,0.2-0.1,0.2-0.2c0.1,0.1,0.2,0.1,0,0.3c0.5,0,0.3-0.3,0.8-0.2
								c0,0.1-0.1,0.1-0.2,0.2c0.2-0.2,0.5-0.3,0.8-0.2c0,0.1,0,0.1-0.1,0.1c0.6,0,1.1-0.4,1.7-0.2c-0.2,0.4,0.2,0.2,0.2,0.5
								l0.4-0.1l-0.1-0.2c0.3,0,0.6-0.2,0.9-0.1L52.3,28h0.6l-0.3-0.2c0.3-0.2,0-0.5,0.4-0.3c-0.1,0,0.3,0,0.5,0.3l0,0
								c0.2-0.1,0.3-0.2,0.6-0.1c0.1,0.1-0.1,0.4,0,0.5c0.2-0.3,0.7-0.1,0.9-0.4c-0.1,0.1-0.1,0.3-0.1,0.3l0.1-0.2
								c0.1,0.1,0.2,0.1,0.1,0.3c0.4,0.1-0.1-0.5,0.4-0.3c0,0,0,0.1-0.1,0.1c0.5,0.1,1-0.1,1.5,0c0.1,0.4-0.4,0.1-0.3,0.4
								c0.7,0,1.4-0.4,2.1-0.3h-0.1c0.1-0.5,0.5,0.3,0.8,0c-0.1,0-0.1,0.3-0.1,0.2c0.5,0.1,0.9-0.1,1.6-0.2l-0.1,0.1
								c0.3,0.1,0.7,0.1,1,0.2c0.1-0.1,0.3-0.1,0.2-0.3c0.9,0.8,1.7-0.3,2.5,0.4c-0.1,0-0.2,0.1-0.2,0.1l0.7-0.1
								c0-0.2-0.1-0.1-0.2-0.3c0.1-0.1,0.3-0.2,0.5-0.2c-0.3,0.1,0,0.4,0.1,0.5c0-0.1,0-0.1,0-0.2c0.3,0.4,0.1-0.5,0.6-0.1v0.1
								c0.2,0,0.4-0.2,0.6-0.1c0.1,0.3-0.2,0.1-0.2,0.3c0.3,0,0.6-0.5,0.8-0.2c-0.1,0.1-0.3,0.1-0.4,0.1c0.2,0.3,0.3,0.3,0.5,0.3
								l0,0l0.4,0.2l-0.1-0.1c0.4-0.7,0.7-0.1,1.2-0.5c-0.5,0.4-0.1,0.2-0.2,0.5c0.1,0.1,0.3,0.2,0.2,0.3c0.2-0.2,0.3,0.2,0.7-0.1
								c0,0.1,0.2,0,0.2,0.3c0.3,0,0-0.2,0-0.3c0.5-0.3,1,0.5,1.6,0.1c0.6-0.1,0.7-0.4,1.2-0.5c0.1,0.2-0.2,0.3-0.2,0.3
								c0.3,0.2,0.5,0.2,0.7,0.1c-0.1,0.1,0,0.2,0,0.3c0.2,0,0.2-0.3,0.4-0.2c-0.1,0.1-0.1,0.3-0.3,0.4c0.3-0.1,0.5-0.2,0.8-0.3
								c0,0.2-0.2,0.2-0.3,0.3c0.3,0,0.7-0.1,0.9-0.3l-0.2-0.1c0.1,0,0,0.2-0.1,0.3C74,29.4,74,29,74,28.9h0.2
								c-0.1-0.6-0.7,0-1.1-0.1l0.2-0.4l-0.4,0.3c-0.1-0.1-0.1-0.4,0.1-0.4c-0.2-0.2-0.2,0.1-0.4-0.1v-0.1l-0.3,0.1
								c0.1-0.1,0-0.3,0.1-0.2c-0.4-0.3-0.8,0.2-0.9-0.1l0,0c-0.6,0.1-0.1,0.3-0.6,0.6l-0.2-0.8L70.6,28c-0.1,0-0.2-0.1-0.2-0.2
								c-0.3,0.2,0,0.1-0.1,0.3c-0.3-0.3-0.9,0-0.9-0.4c-0.1,0.2,0.3,0.2-0.1,0.3c0-0.5-0.4,0.1-0.7-0.2c0.1-0.3,0.4-0.1,0.1-0.4
								c-0.2,0.4-0.5-0.2-0.8-0.1c0,0.4-0.5,0.1-1,0.2c0-0.1-0.7-0.3-1.1-0.4V27c-0.1,0.4-0.5,0.3-0.8,0.3c0-0.2,0.1-0.3,0.2-0.4
								h-0.3c-0.1,0.1-0.2,0.2-0.3,0.2l0.1-0.3c-0.4,0-0.7,0.3-1.2,0.1c0,0.3,0.3,0.7-0.2,0.9c0-0.1,0-0.4,0.1-0.4
								c0,0-0.2,0.1-0.2,0l0.2-0.2c-0.2-0.1-0.1,0.2-0.3,0.2c0-0.2-0.1-0.1-0.1-0.3c0,0,0.1,0.1,0.2,0c-0.2,0-0.4-0.2-0.5-0.3
								c0,0.1,0,0.3-0.2,0.3c-0.4,0-0.1-0.2-0.3-0.4c-0.1,0.1-0.3,0-0.3,0.3c-0.1,0-0.1-0.1-0.2-0.2c-0.2,0.1-0.9,0-0.7,0.3l0,0l0,0
								l0,0l0,0c-0.6,0.3-1.2-0.2-1.8-0.1v-0.1c-0.4,0.1-0.8,0-1.1,0.2c-0.1,0-0.2-0.2-0.2-0.3c-0.3,0.1-0.3,0.2-0.7,0
								c0.3-0.2-0.1-0.2,0.3-0.1c-0.4-0.1-0.4-0.3-0.8,0c0.1-0.2-0.3-0.3-0.4-0.3l0.2,0.2c-0.2,0-0.4,0-0.5,0l0.1-0.3
								c-0.7-0.4-1.3,0.6-1.8-0.1c-0.2,0.2,0.4,0.2,0.2,0.4c-0.3-0.1-0.7-0.6-0.8-0.6c-0.4-0.2-0.4,0.5-0.9,0.3
								c0.1,0.1,0.1,0.4-0.3,0.5c-0.3-0.1-0.4-0.5-0.2-0.6c0.1,0,0.1,0,0.1,0.1c0.1,0,0.3-0.1,0.1-0.2v0.1c-0.2-0.1-0.6-0.1-0.5-0.3
								c-0.3,0.1-0.1,0.2,0.1,0.3C51.7,26,51.4,26.1,51,26c0.1,0.1,0.1,0.2,0,0.2c-0.6-0.2-0.3,0.2-0.7,0.2
								c-0.2-0.2,0.1-0.4-0.3-0.3c-0.3-0.1,0-0.3,0.1-0.4c-0.4,0.2-0.7-0.2-0.9-0.3l0.2-0.1c-0.1,0-0.2,0-0.3,0l0.1,0.2
								c-0.1-0.1-0.2-0.1-0.2-0.2c-0.1,0.1,0,0.4-0.2,0.6c-0.1-0.1-0.5,0.1-0.5-0.3c0.5,0.2,0-0.3,0.4-0.3c-0.1,0-0.2,0-0.3,0
								c0,0,0-0.1,0.1-0.1c-0.4-0.3-0.3,0.3-0.8,0.2c0.1-0.2-0.1-0.4-0.2-0.3c0.2,0,0.1,0.3-0.2,0.4c-0.3-0.2-0.4,0-0.5,0l0.2,0.1
								c-0.1,0.2-0.3,0.1-0.5,0.1c0-0.1,0.2-0.1,0.1-0.1c-0.3,0.3-0.5-0.4-0.9-0.3c-0.1-0.1,0-0.3-0.1-0.4c-0.4,0.2-0.4-0.3-0.8-0.2
								c0.1,0.3,0.1,0.2-0.2,0.4h0.7l-0.5,0.3c0.2,0,0.5-0.1,0.6,0c-0.2,0.2-0.2,0.1-0.1,0.3c-0.2-0.4-0.6,0.1-0.9-0.2l0.1-0.6
								c-0.4-0.3-0.9,0.1-1.5-0.1l0.2,0.1c-0.1,0.2-0.4,0-0.6,0c0.1-0.2-0.1-0.3-0.1-0.4c0,0.1-0.5-0.1-0.6,0.3l-0.2-0.3
								c-0.5-0.2-0.7,0.4-1.2,0.3c0.2-0.2,0-0.4,0.4-0.4c-0.2,0-0.3-0.1-0.3,0c-0.1-0.1-0.5,0.2-0.6,0c-0.1,0.1-0.1,0.3-0.3,0.2
								v-0.1c0,0.1-0.3,0.1-0.2,0.3c-0.4-0.7-1.4-0.2-1.8-0.8c-0.4,0-0.8,0-1.2-0.1c0-0.1,0-0.1,0.1-0.1c-0.4-0.3-0.4,0.5-0.9,0.2
								c-0.2-0.4,0.3-0.1,0.2-0.3c0-0.7-0.6,0-0.9-0.4h0.1c-0.2-0.3-0.7,0.1-1.1,0v-0.1c-0.3,0.3-0.9,0.3-1.4,0.4
								c0.2-0.2,0.2-0.1,0.2-0.4c-0.2,0,0,0.4-0.4,0.5c-0.1-0.2-0.4-0.3-0.4-0.6h0.4c-0.2-0.4-0.5,0-0.7-0.1v-0.2
								c-0.6,0-0.6,0.4-1.2,0.3l0.1,0.1c-0.3,0.4-0.3-0.2-0.6,0l-0.1-0.4c-0.2,0.1-0.8,0.4-1.1,0.4c0.2-0.3,0.7-0.4,1-0.6
								c-0.2,0-0.7,0-0.8,0.2c0.1,0,0.2-0.1,0.3-0.1c-0.3,0.3-0.6,0.5-1,0.5c0.1-0.8-1.1-0.2-1.4-0.7c-0.7,0.3-1.5,0-2.4,0.1
								c0.4,0.6-0.3,0-0.1,0.6c-0.2,0.1-0.3,0.1-0.3,0l-0.6-0.3c-0.2-0.2,0.2-0.2,0.1-0.3c-0.4,0-0.2-0.2-0.5-0.4
								c0.1,0.2-0.1,0.3-0.4,0.3l0.4,0.2c-0.6,0.4-0.6-0.4-1.2,0l0.2-0.2c-0.3,0.2-1.2,0.1-1.4,0.7c-0.1-0.1-0.2-0.2,0-0.3
								c-0.8,0-1.6,0.7-2.2,0.5v-0.2c-0.1,0.1-0.2,0.3-0.4,0.2c0-0.1,0-0.2,0-0.2C18,23.8,17.7,24,17.5,24l0.1-0.2
								c-0.8-0.1-1.1,0.6-1.7,0.7c-0.1-0.4-0.6-0.5-0.9-0.6v-0.1c-0.8,0-1.4,0.5-2.2,0.7c-0.5-0.4-1.7-0.1-2.5-0.3
								c0.1,0.1,0,0.3-0.1,0.4c-0.2-0.1-0.5,0.4-0.5,0h0.1c-0.2-0.4-0.6-0.2-0.9-0.2L9,25c-0.9-0.7-2,0.6-2.7,0.1
								c-0.2,0.2-0.4,0.3-0.6,0.4l-0.1-0.3c-0.6,0.1-0.9,0.2-1.5,0.6v-0.2c-0.3,0.1-0.2,0.7-0.3,1l-1.2,3.3l1.6-1.8L4.3,28l0.1,0.4
								c0.3,0,0.6,0.1,0.8,0.2c0.1,0,0.3,0.1,0.4,0.1s0.1,0,0.2,0h0.1c0.1,0,0.1,0,0.2,0c0,0.1-0.1,0.2-0.2,0.2
								c0.2,0,0.8,0.3,1.2,0.4c0.4,0.2,0.8,0.3,0.5-0.2C8,29.5,9,29.6,9.3,29.5l0,0l0.2,0.3L9.6,30l0,0c-0.3-0.7-0.4-1-0.5-1.6
								c0-0.1,0.2,0.1,0.2,0.2c0.1-0.3-0.3-0.6-0.2-1l0.2,0.3c0-0.5-0.1-0.5-0.3-0.9c-0.1-0.3,0-0.8,0.3-0.9C9.1,26,8.9,25.7,9,25.6
								c0.1,0,0.2,0,0.2,0.1c0.2-0.6-0.4-0.8-0.1-1.2c0.1,0,0.1,0,0.2-0.1c0,0.4,0,0.8,0,0.8c0.3,0,0.3-0.4,0.7-0.1
								c-0.2-0.3-0.7-0.7-0.5-1.1c0,0,0,0,0.1,0l0,0c0-0.1,0-0.2-0.1-0.2c0-0.1,0.1-0.2,0.1-0.3c0.2-0.1,0.1-0.4,0.1-0.6
								c-0.3,0-0.2-0.2-0.5,0c0,0,0,0,0.1,0.1v0.1l0,0c0,0.1,0,0.3,0,0.4C9.2,23.4,9,23.2,9.2,23c-0.2-0.1-0.4-0.2-0.5-0.2
								c0.4-0.3,0.6-0.7,0.8-0.8c-0.2-0.5-0.2-1.3-0.7-1.6c-0.1-0.1,0.1-0.2,0.2-0.2c0.1,0.1,0.1,0.2,0.1,0.2
								c-0.2-0.3-0.1-0.9-0.5-1C8.7,19,9,19.6,8.9,19.1L9,19.2c0.5-1.1-1-1.6-0.3-2.8c0,0.1-0.1,0.1-0.1,0.1c0.3-1.3-0.4-2.7,0-4
								C8.5,12.2,8.2,12.2,8,12l0.3-0.1L8,11.5c-0.3-0.5,0.7-1,0.2-1.6H8c0-0.2-0.2-0.7,0-0.7c0,0-0.2-0.1-0.1-0.2h0.2L7.8,8.4
								c0.1-0.5,0.6,0,0.6-0.6C8.3,7.5,7.9,7.1,7.8,7.2c0,0.1-0.1,0.3-0.2,0.3L7.5,7.2C7,7.2,6.5,7,6.2,7.6L6.5,8L6.3,8.2V7.9
								C6.1,8,6.3,8.1,6.4,8.3c-0.1,0-0.2,0.1-0.2,0.2l0.5,0.4c-0.3,0-0.5-0.2-0.5,0C6.4,9.1,6.6,8.7,6.7,9C6.5,9.2,6.3,9.2,6.5,9.4
								c-0.1,0-0.2,0-0.3-0.1c0.2,0.2,0.1,0.5,0.3,0.6c-0.3,0.2,0.1,0.7-0.3,0.7c0.1,0.1,0.4,0.3,0.4,0.5c-0.5-0.3,0,0.7-0.6,0.6
								c0.5,0.2,0.3,0.9,0.5,1.3l-0.1-0.1c0,0.2-0.2,0.3-0.2,0.5c0.4,0,0.5,0.4,0.8,0.6c-0.4,0.3-0.5-0.2-0.8,0
								c0.3,0,0.3,0.5,0.6,0.4c-0.2,0.2-0.1,0.2-0.4,0.3c0.5,0,0.1,0.2,0.4,0.4c-0.2,0.3-0.5,0.1-0.3,0.5
								C6.4,15.8,6.2,15.4,6.2,15.4z M7.5,24.2L7.5,24.2c0-0.1,0-0.1,0-0.2C7.5,24,7.5,24.1,7.5,24.2z M7.5,24.9c0-0.1,0-0.2,0-0.3
								c0.1,0,0.2,0,0.2,0.1C7.6,24.6,7.6,24.8,7.5,24.9z M9.4,23.3c0,0.1,0,0.2-0.1,0.2c0-0.1,0-0.1,0-0.2l0,0
								C9.3,23.2,9.4,23.2,9.4,23.3z"/>
							<path d="M9,23.1C9,23,9,23,9,23.1C9,23,8.9,23.1,9,23.1L9,23.1L9,23.1z"/>
							<path d="M67.1,28.5l0.2,0.1C67.3,28.5,67.2,28.5,67.1,28.5z"/>
							<path d="M53.4,27.7c-0.1,0-0.1,0.1-0.2,0.1C53.3,27.8,53.4,27.8,53.4,27.7z"/>
							<path d="M52.9,27.8c0.1,0.1,0.2,0.1,0.3,0C53.1,27.8,53,27.7,52.9,27.8z"/>
							<path d="M74.5,29.4h-0.2C74.4,29.5,74.5,29.5,74.5,29.4z"/>
							<path d="M71.9,29.1c0.1,0,0.3,0.3,0.5,0.2v-0.1C72.3,29.4,72.1,29,71.9,29.1z"/>
							<path d="M69.8,27.6l0.4,0.1c-0.1-0.1-0.2-0.3,0.1-0.3C69.8,27.1,70.4,27.7,69.8,27.6z"/>
							<path d="M68.4,27.3c0.2,0,0-0.2,0-0.2C68.3,27.2,68.2,27.2,68.4,27.3z"/>
							<path d="M58.2,26.8v-0.3C58,26.6,58.2,26.6,58.2,26.8z"/>
							<polygon points="56.2,28 56.4,28.2 56.5,28 							"/>
							<path d="M38.3,23.9v0.3C38.5,24.1,38.5,23.8,38.3,23.9z"/>
							<path d="M30.8,23.2c-0.1-0.2-0.3-0.3-0.4-0.1C30.6,23.1,30.7,23.2,30.8,23.2z"/>
							<polygon points="8.5,24.7 8.7,24.6 8.4,24.7 							"/>
						</g>
					</g>
				</g>
			</g>
		</g>
		<g>
			<g>
				<g>
					<g>
						<g>
							<path d="M63.4,27.5c0,0.1,0,0.3,0.1,0.2L63.4,27.5L63.4,27.5z"/>
							<path d="M64.3,28c0.1-0.2,0.2-0.5,0.1-0.8c-0.1,0.3-0.1,0.2-0.2,0.6c-0.1,0.1-0.2-0.1-0.2-0.2c0,0.1-0.2,0-0.2,0.2
								c0.2,0.2,0.4,0.2,0.6,0C64.3,27.8,64.3,27.9,64.3,28z"/>
							<path d="M75.7,26.6l0.2,0.1C75.9,26.6,75.8,26.6,75.7,26.6z"/>
							<path d="M65.7,26.9L65.6,27C65.7,27,65.7,27,65.7,26.9L65.7,26.9z"/>
							<path d="M72.7,27.4L72.7,27.4c-0.1,0-0.1,0.1-0.1,0.2L72.7,27.4z"/>
							<path d="M70.3,27.8c0.1,0,0-0.3,0-0.4c0,0.1,0,0.2-0.1,0.2C70.2,27.7,70.3,27.8,70.3,27.8z"/>
							<path d="M54.2,27.9c0.2,0.2-0.4,0.3,0,0.6C54.2,28.4,54.5,28.1,54.2,27.9z"/>
							<path d="M69.3,26.5c0,0,0,0.1,0.1,0.1C69.4,26.6,69.3,26.6,69.3,26.5z"/>
							<path d="M67.4,27.2C67.3,27.2,67.3,27.1,67.4,27.2L67.4,27.2C67.3,27.2,67.3,27.2,67.4,27.2z"/>
							<path d="M65.4,27.4C65.4,27.5,65.4,27.5,65.4,27.4L65.4,27.4L65.4,27.4z"/>
							<path d="M25.6,29.2c0-0.1-0.1-0.2-0.1-0.3C25.5,29.1,25.2,29.1,25.6,29.2z"/>
							<path d="M65.8,27.1c0-0.1,0-0.1,0-0.1h-0.1C65.7,27,65.7,27.1,65.8,27.1z"/>
							<path d="M66.3,29.6c-0.1-0.1-0.1-0.1-0.2-0.2c0,0,0,0,0,0.1L66.3,29.6z"/>
							<path d="M23.3,29.3c0.3,0,0.2-0.3,0.3-0.6c0.4-0.1,0.1,0.3,0.2,0.5c0.2-0.1,0.4-0.4,0.6-0.4c0,0.1,0,0.1,0,0.2
								c0.3-0.3,0.7,0.1,1-0.3v0.1c0-0.2,0-0.4,0-0.5c0.1,0,0.3-0.2,0.3,0c-0.1,0-0.1,0.1-0.2,0.1l0.2-0.1c0.1,0.4-0.2,0.1-0.2,0.3
								c0.3-0.1,0.7-0.3,0.9-0.2c0,0.3-0.5,0-0.3,0.4l-0.3-0.2c0.2,0.6-0.2-0.1,0,0.5c0.4,0.2,0.5-0.1,0.9,0c0.1-0.2,0-0.3,0.1-0.5
								c0.7-0.2,0.4,0.9,0.9,0.5c0.2-0.2,0.3-0.6,0.6-0.4l-0.2,0.4c0.4,0.1,0.3-0.5,0.7-0.2C28.7,29,28.4,29,28.5,29
								c0.2,0.3,0.2-0.2,0.5-0.2v0.3c0.5,0,1-0.2,1.5-0.1c0,0.1-0.1,0.2,0,0.3c0.7-0.1,1.4,0.2,2,0.5l0.3-0.3c0.1,0,0.1,0.1,0,0.2
								c0.2,0.1,0-0.2,0.2-0.3c0.1,0,0.2,0.2,0.1,0.3c0.5-0.2,1.3-0.4,1.7,0l-0.1,0.1c0.3,0.2,0.5-0.6,0.8-0.3h-0.1
								c0.8,0.2,1.6,0,2.2,0.5c0.1-0.4,0.8,0.2,0.8-0.4c0.4,0.3,0.3,0.4,0.9,0.6c0.2,0,0.3-0.4,0.5-0.4v0.3l0.3-0.3l0.1,0.4l0.2-0.1
								c-0.1,0-0.2-0.1-0.1-0.2c0.3-0.1,0.7,0.2,0.7,0.4l0.7-0.3c0,0.1-0.1,0.2-0.2,0.2c0.4-0.3,0.1,0.3,0.4,0c0-0.1,0-0.2,0-0.2
								c0.2,0.2,0.6,0.2,0.9,0.1L42.6,31c0.5,0.1,1.1-0.1,1.7-0.1c-0.2-0.1-0.2-0.5,0-0.5l0.1,0.3c0.1-0.2-0.2-0.1,0-0.4
								c0.2,0,0.2,0.4,0,0.5l0.3-0.1c0,0.1,0,0.1-0.1,0.3c0.1-0.2,0.5,0.3,0.6,0v0.1c0.6,0,0.8-0.1,1.3-0.2c0-0.3,0.2-0.2,0.3-0.5
								c0.4,0.1,0.7,0.3,1.2,0.2c0.3-0.2,0.1-0.2,0.2-0.4c0,0.3,0.5,0.2,0.2,0.4c0.5-0.1,0.6-0.1,1.3-0.3c-0.1-0.1-0.2-0.1-0.1-0.2
								c0.1,0,0.3,0.1,0.3,0.2l0,0c0.7-0.4,1.7,0.7,2.2,0.1l0,0l0.6-0.3c0.3,0-0.2,0.2,0.1,0.3c0.6-0.5,1,0,1.5-0.3
								c0.4,0.7,1.4-0.1,2,0.3v-0.2c0.1-0.2,0.2,0.1,0.3,0.1c0-0.1-0.2-0.2-0.1-0.3c1.2-0.3,2.5,0.1,3.7,0.2c0.5,0,0.2-0.9,0.8-0.6
								l-0.1,0.3c0.9-0.5,1.9-0.1,2.7-0.6c0,0.1,0,0.2-0.1,0.2c0.2,0.2,0.7-0.1,0.7-0.2c0.1,0,0,0.2,0.1,0.3
								c0.2,0.1,0.4-0.4,0.6-0.1c0,0,0,0.1-0.1,0.1c0.1-0.1,0.6,0,0.4-0.3c0.3,0.1,0.6-0.2,0.9-0.1c0.1-0.3,0.6,0.1,0.6-0.4
								c0,0.5,0.6,0.3,0.8,0.1c-0.1,0.1,0.2,0.1,0.1,0.3c0.2,0,0.5-0.1,0.4-0.4c0.5,0.5,0.8-0.6,1.2,0.1c0.7-0.3,1.3-0.6,1.9-0.8
								c0,0.4-0.7,0.2-0.6,0.6c0.6-0.3,0.9-0.7,1.5-0.7c0.2,0-0.1,0.2-0.1,0.3c0.6-0.3,1.2-0.2,1.7-0.5c0,0,0,0.1-0.1,0.1
								c0.1,0,0.3,0,0.2-0.2L73.6,28c-0.2-0.3,0.3-0.7,0.3-0.9c-0.1,0.6,0.6,0,0.4,0.8c0.1-0.1,0.1-0.2,0.1-0.3
								c0.1,0,0.2,0.1,0.1,0.3c0.4-0.2,0.2-0.4,0.5-0.4c0,0.1,0,0.1-0.1,0.3c0.1-0.2,0.3-0.5,0.6-0.4c0,0.1,0,0.1,0,0.1
								c0.5-0.1,0.7-0.7,1.3-0.6c-0.1,0.5,0.2,0.1,0.3,0.4l0.3-0.2L77.2,27c0.3-0.1,0.4-0.4,0.7-0.3l-0.2,0.2l0.5-0.2l-0.3-0.1
								c0.2-0.3-0.1-0.5,0.2-0.4c-0.1,0.1,0.3-0.1,0.4,0.1l0,0c0.1-0.1,0.2-0.3,0.4-0.3c0.1,0.1,0.1,0.4,0.1,0.5
								c0-0.3,0.6-0.3,0.6-0.6c0,0.1,0,0.3,0,0.3v-0.3c0.1,0,0.2,0.1,0.2,0.2c0.4-0.1-0.2-0.4,0.2-0.3c0,0,0,0.1-0.1,0.1
								c0.1,0,0.1,0,0.2,0l-0.2-1c-0.4,0-0.7,0.3-1,0.2c-0.2-0.4,0.3-0.1,0.1-0.4c-0.6,0.2-1.1,0.6-1.7,0.6h0.1
								c0,0.5-0.4-0.2-0.7,0.1c0.1,0,0-0.3,0-0.2c-0.4,0-0.7,0.3-1.3,0.5v-0.1c-0.2-0.1-0.6,0-0.8,0c0,0.1-0.2,0.1-0.1,0.3
								c-0.9-0.6-1.3,0.6-2.1,0.1c0.1,0,0.2-0.1,0.1-0.1L72,26.1c0.1,0.2,0.1,0.1,0.2,0.3c0,0.1-0.2,0.3-0.3,0.3
								c0.2-0.2-0.1-0.4-0.2-0.5c0,0.1,0,0.2,0,0.2c-0.4-0.4,0,0.5-0.4,0.3v-0.1c-0.1,0.1-0.2,0.3-0.4,0.3c-0.1-0.3,0.1-0.1,0.1-0.4
								c-0.2,0.1-0.4,0.6-0.6,0.3c0.1-0.1,0.2-0.1,0.3-0.2c-0.3-0.3-0.3-0.2-0.5-0.2l0,0l-0.4-0.1l0.1,0.1c-0.2,0.7-0.6,0.2-0.9,0.7
								c0.3-0.5,0-0.3,0-0.6c-0.1-0.1-0.3-0.1-0.2-0.2c-0.1,0.3-0.3-0.1-0.5,0.3c0-0.1-0.2,0-0.2-0.2c-0.2,0.1,0.1,0.2,0.1,0.3
								c-0.3,0.4-0.9-0.3-1.3,0.3c-0.4,0.3-0.4,0.6-0.8,0.8c-0.2-0.1,0.1-0.4,0.1-0.4c-0.2-0.1-0.4-0.1-0.6,0.1c0-0.1,0-0.2-0.1-0.3
								c-0.2,0.1-0.1,0.4-0.3,0.3c0-0.1,0-0.3,0.1-0.4c-0.2,0.1-0.4,0.3-0.5,0.5c-0.1-0.2,0.1-0.3,0.1-0.4c-0.2,0.1-0.6,0.2-0.6,0.5
								l0.2,0.1c-0.1,0-0.1-0.2,0-0.3c0.2-0.2,0.3,0,0.3,0.1H65c0.2,0.5,0.6-0.2,0.9-0.2l-0.1,0.4l0.2-0.4c0.1,0.1,0.2,0.3,0,0.4
								c0.2,0.2,0.2-0.2,0.4,0v0.1l0.2-0.2c0,0.1,0.1,0.3-0.1,0.2c0.4,0.2,0.6-0.4,0.7-0.1l0,0c0.5-0.2,0-0.3,0.3-0.7l0.4,0.7v-0.3
								c0.1,0,0.2,0,0.2,0.1c0.2-0.2-0.1-0.1,0-0.3c0.3,0.2,0.7-0.2,0.8,0.2c0.1-0.2-0.3-0.1,0-0.3c0.2,0.5,0.3-0.1,0.6,0.1
								c0,0.3-0.3,0.2,0,0.4c0.1-0.5,0.5,0,0.7-0.1c0-0.4,0.4-0.2,0.7-0.4c0,0.1,0.7,0.1,1,0.2v0.1c0-0.4,0.3-0.4,0.6-0.5
								c0,0.2,0,0.3-0.1,0.4h0.2c0-0.1,0.1-0.2,0.2-0.3v0.3c0.3-0.1,0.5-0.4,0.9-0.3c0-0.3-0.4-0.7,0-0.9c0,0.1,0.1,0.4,0,0.4
								c0,0,0.1-0.1,0.2-0.1l-0.1,0.3c0.2,0.1,0.1-0.2,0.2-0.2c0,0.2,0.1,0.1,0.1,0.3c0,0-0.1-0.1-0.2,0c0.2,0,0.4,0.1,0.4,0.2
								c0-0.1,0-0.3,0.1-0.3c0.3-0.1,0.1,0.2,0.3,0.3c0-0.1,0.3,0,0.2-0.3c0.1,0,0.1,0.1,0.2,0.2c0.1-0.2,0.7-0.2,0.5-0.4l0,0l0,0
								l0,0l0,0c0.4-0.4,1.1,0,1.5-0.2v0.1c0.3-0.2,0.6-0.2,0.8-0.4c0.1,0,0.2,0.1,0.2,0.3c0.2-0.1,0.2-0.2,0.6-0.1
								c-0.2,0.2,0.1,0.1-0.2,0.2c0.3,0,0.4,0.2,0.7-0.1c-0.1,0.3,0.3,0.3,0.4,0.2l-0.2-0.1c0.1-0.1,0.3-0.1,0.4-0.1v0.3
								c0.3,0.1,0.5,0,0.6-0.1l-0.5-2c-0.3,0.2-0.5,0.6-0.8,0.2c-0.1,0.3,0.4,0.1,0.3,0.4c-0.3,0-0.7-0.4-0.8-0.3
								c-0.4-0.1-0.2,0.6-0.6,0.5c0.1,0.1,0.2,0.4-0.1,0.6c-0.3,0-0.5-0.4-0.3-0.5c0.1,0,0.1,0,0.1,0c0.1-0.1,0.2-0.1,0-0.2v0.1
								c-0.2-0.1-0.5,0-0.5-0.2c-0.2,0.2,0,0.2,0.1,0.2c-0.4-0.1-0.5,0.1-0.9,0.1c0.1,0,0.2,0.2,0.1,0.2c-0.5,0-0.2,0.3-0.5,0.4
								c-0.2-0.1,0-0.4-0.3-0.2c-0.2-0.1-0.1-0.3-0.1-0.4c-0.3,0.3-0.6,0-0.8,0l0.1-0.1c-0.1,0.1-0.2,0.1-0.3,0.1l0.1,0.2
								c-0.1,0-0.2,0-0.2-0.1c-0.1,0.2,0.2,0.4,0,0.6c-0.2-0.1-0.4,0.2-0.5-0.1c0.4,0-0.1-0.3,0.2-0.4c-0.1,0.1-0.1,0.1-0.3,0v-0.1
								c-0.5-0.2-0.1,0.4-0.5,0.5c0-0.2-0.2-0.3-0.2-0.3c0.2,0,0.1,0.3,0,0.4c-0.3-0.1-0.3,0.2-0.4,0.2H73c0,0.2-0.2,0.2-0.3,0.3
								c0-0.1,0.2-0.1,0.1-0.2c-0.2,0.3-0.5-0.2-0.8,0c-0.2-0.1-0.1-0.3-0.2-0.4c-0.3,0.3-0.4-0.2-0.7,0.1c0.1,0.2,0.1,0.2-0.1,0.4
								l0.5-0.3l-0.3,0.4c0.2,0,0.3-0.2,0.4-0.2c-0.1,0.2-0.1,0.2,0,0.3c-0.3-0.3-0.4,0.3-0.7,0.1l-0.1-0.6
								c-0.4-0.2-0.7,0.4-1.2,0.3l0.2,0.1c0,0.2-0.3,0.1-0.5,0.2c0-0.2-0.1-0.3-0.2-0.4c0,0.1-0.4,0-0.4,0.4l-0.3-0.2
								c-0.4,0-0.4,0.6-0.8,0.6c0.1-0.2-0.1-0.3,0.1-0.5c-0.1,0-0.3,0-0.2,0.1c-0.1-0.1-0.3,0.3-0.5,0.1c0,0.1,0,0.3-0.2,0.3v-0.1
								c0,0.1-0.2,0.2-0.1,0.4c-0.5-0.6-1.2,0.2-1.6-0.3c-0.3,0.1-0.6,0.2-0.9,0.2c0-0.1,0-0.1,0-0.1c-0.4-0.1-0.2,0.6-0.6,0.4
								c-0.2-0.3,0.2-0.2,0.1-0.3c-0.1-0.6-0.5,0.1-0.8-0.2H63c-0.2-0.2-0.5,0.3-0.9,0.3v-0.1c-0.2,0.3-0.7,0.5-1,0.6
								c0.1-0.3,0.1-0.1,0.1-0.4c-0.2,0,0.1,0.4-0.2,0.5c-0.1-0.1-0.3-0.2-0.4-0.5h0.3c-0.2-0.3-0.4,0-0.5,0v-0.2
								C60,27.6,60,28,59.5,28l0.1,0.1c-0.2,0.4-0.2-0.2-0.5,0.1V28c-0.2,0.1-0.6,0.4-0.9,0.5c0.2-0.3,0.5-0.5,0.7-0.7
								c-0.2,0-0.6,0.1-0.7,0.3c0.1,0,0.1-0.1,0.2-0.1c-0.2,0.3-0.5,0.5-0.8,0.5c0-0.8-0.9-0.1-1.2-0.7c-0.6,0.3-1.2,0-1.9,0
								c0.3,0.6-0.2,0-0.1,0.6c-0.2,0-0.2,0-0.2,0l-0.5-0.3c-0.1-0.2,0.1-0.1,0.1-0.3c-0.4,0-0.2-0.3-0.4-0.4
								c0.1,0.2-0.1,0.3-0.3,0.2l0.3,0.3c-0.5,0.4-0.5-0.5-1-0.1l0.2-0.2c-0.3,0.1-1,0-1.2,0.6c0-0.1-0.1-0.2,0-0.3
								c-0.6,0-1.4,0.6-1.9,0.3V28c-0.1,0-0.2,0.3-0.3,0.1c0-0.1,0-0.2,0-0.2c-0.1,0.1-0.3,0.3-0.5,0.2l0.1-0.2
								c-0.6-0.2-0.9,0.5-1.4,0.6c0-0.4-0.5-0.6-0.7-0.6v-0.1c-0.7,0-1.2,0.4-1.8,0.6c-0.4-0.5-1.4-0.2-2-0.4c0.1,0.1,0,0.3-0.1,0.4
								c-0.2-0.1-0.4,0.3-0.4-0.1h0.1c-0.1-0.4-0.4-0.3-0.7-0.3v0.5c-0.6-0.8-1.7,0.3-2-0.4c-0.2,0.1-0.3,0.1-0.5,0.2V28
								c-0.4-0.1-0.6-0.1-1.2-0.1l0.1-0.2c-0.3,0-0.4,0.8-0.7,0.8l-0.1-0.4c-0.5,0-1-0.4-1.5-0.1c0-0.1,0-0.2,0.1-0.2
								c-0.2,0-0.9-0.4-0.9,0.2c0-0.4-0.5-0.1-0.8,0l0.1-0.3c-0.3,0.3-0.3,0.4-0.6,0.5c-0.1,0,0-0.2,0.1-0.1c-0.2-0.2-0.2,0.2-0.5,0
								l0.1-0.2c-0.3-0.1-0.3,0-0.4,0.2c-0.2,0.1-0.5-0.1-0.5-0.4c-0.1,0.1-0.2,0.3-0.4,0.2c0-0.1,0.1-0.1,0.1-0.2
								c-0.4-0.3-0.7,0.2-1-0.1c0-0.1,0-0.1,0-0.2c0.4,0.1,0.6,0.1,0.6,0.1c0-0.3-0.2-0.3,0-0.7c-0.3,0.2-0.7,0.5-1,0.4v-0.1l0,0
								c-0.1,0-0.1,0-0.2,0C30.6,27,30.6,27,30.5,27c0-0.2-0.3-0.2-0.5-0.2c0,0.3-0.2,0.2-0.1,0.5c0,0,0,0,0.1,0c0,0,0,0,0.1,0l0,0
								c0.1,0,0.2,0,0.4,0c-0.1,0.1-0.3,0.2-0.4,0c-0.1,0.2-0.2,0.3-0.3,0.4c-0.1-0.4-0.5-0.7-0.5-0.9c-0.5,0.1-1.1-0.1-1.4,0.4
								c-0.1,0-0.1-0.2-0.2-0.3c0.1,0,0.2,0,0.2-0.1c-0.3,0.1-0.8-0.1-0.9,0.3c-0.3-0.2,0.2-0.3-0.2-0.3l0.1-0.1
								c-0.8-0.7-1.5,0.8-2.4-0.1c0.1,0.1,0.1,0.1,0.1,0.1c-1.1-0.4-2.3,0.1-3.3-0.4c-0.3-0.1-0.3,0.1-0.5,0.3l-0.1-0.3l-0.3,0.3
								c-0.4,0.3-0.8-0.7-1.4-0.2l0.1,0.2c-0.2,0-0.7,0.2-0.6-0.1c0,0-0.1,0.2-0.1,0.1v-0.2l-0.5,0.3c-0.4-0.1,0-0.6-0.6-0.6
								c-0.2,0.1-0.6,0.5-0.5,0.6c0.1,0,0.2,0.1,0.3,0.2L16.9,27c0,0.5,0,1,0.5,1.2l0.3-0.3l0.1,0.2h-0.3c0.2,0.2,0.2,0,0.3-0.1
								c0,0.1,0.1,0.2,0.2,0.2l0.3-0.5c0.1,0.2-0.1,0.4,0.1,0.5c0.1-0.2-0.2-0.4,0.1-0.6c0.2,0.2,0.1,0.4,0.3,0.2
								c0,0.1,0,0.2-0.1,0.3c0.1-0.2,0.4-0.1,0.5-0.3c0.2,0.3,0.5-0.1,0.5,0.4c0-0.1,0.3-0.4,0.4-0.4c-0.3,0.5,0.6,0,0.5,0.6
								c0.2-0.5,0.7-0.2,1.1-0.5L21.6,28c0.2,0,0.3,0.2,0.4,0.3c0-0.4,0.4-0.5,0.5-0.7c0.2,0.4-0.2,0.4-0.1,0.8
								c0-0.3,0.4-0.3,0.4-0.6C23,28,23,27.9,23,28.3c0.1-0.5,0.2-0.1,0.4-0.4c0.3,0.3,0,0.5,0.3,0.3C23.6,29.2,23.3,29.3,23.3,29.3
								z M30.6,29.4L30.6,29.4c-0.1,0-0.1,0-0.2,0C30.5,29.4,30.5,29.4,30.6,29.4z M31.2,29.5c-0.1,0-0.2,0-0.3,0
								c0-0.1,0-0.2,0.1-0.2C31,29.4,31.1,29.4,31.2,29.5z M30.2,27.4c0.1,0,0.1,0,0.1,0.1c0,0-0.1,0-0.2,0l0,0L30.2,27.4z"/>
							<path d="M30,27.7C29.9,27.7,29.9,27.8,30,27.7C29.9,27.8,29.9,27.8,30,27.7L30,27.7L30,27.7z"/>
							<polygon points="39.7,30.8 39.7,30.7 39.6,30.8 							"/>
							<path d="M70.7,26.4l-0.2-0.1C70.6,26.3,70.6,26.4,70.7,26.4z"/>
							<path d="M73.5,28.2L73.5,28.2C73.4,28.3,73.4,28.2,73.5,28.2z"/>
							<path d="M78.6,26.3c0,0.1-0.1,0.1-0.1,0.2C78.5,26.5,78.6,26.5,78.6,26.3z"/>
							<path d="M78.2,26.6c0.1,0,0.2,0,0.2-0.1C78.4,26.5,78.3,26.5,78.2,26.6z"/>
							<path d="M64.5,27.2l0.1-0.1C64.6,27.1,64.5,27.1,64.5,27.2z"/>
							<path d="M66.7,26.8c-0.1,0-0.3-0.2-0.4-0.1v0.1C66.3,26.7,66.6,27,66.7,26.8z"/>
							<path d="M68.7,27.8h-0.4c0.1,0.1,0.2,0.2,0,0.3C68.9,28.3,68.2,27.8,68.7,27.8z"/>
							<path d="M69.9,27.8c-0.2,0.1,0,0.2,0,0.2C70,27.9,70.1,27.8,69.9,27.8z"/>
							<path d="M78.3,26.4v0.3C78.4,26.6,78.3,26.6,78.3,26.4z"/>
							<polygon points="79.6,24.8 79.5,24.7 79.4,24.9 							"/>
							<polygon points="79.4,24.5 79.5,24.4 79.3,24.6 							"/>
							<path d="M65.7,27.1l0.1,0.3C65.9,27.4,65.9,27,65.7,27.1z"/>
							<path d="M59.7,28c-0.1-0.2-0.3-0.2-0.4-0.1C59.4,27.9,59.6,28.1,59.7,28z"/>
							<polygon points="41.3,28.3 41.5,28.2 41.2,28.3 							"/>
						</g>
					</g>
				</g>
			</g>
		</g>
		<g>
			<g>
				<g>
					<g>
						<g>
							<path d="M80.2,21.6c0.2,0,0.4,0.1,0.7,0.1C80.6,21.7,80.7,21.6,80.2,21.6c0.1,0,0.2-0.1,0.3-0.1c-0.1,0,0.1-0.1-0.1-0.1
								C80.1,21.5,80.1,21.5,80.2,21.6C80.3,21.6,80.2,21.6,80.2,21.6z"/>
							<path d="M79.7,25.8l-0.1,0.1C79.7,25.9,79.7,25.8,79.7,25.8z"/>
							<path d="M82.4,19.1c-0.2,0.1-0.3-0.1-0.6,0.1C81.9,19.1,82.3,19.2,82.4,19.1z"/>
							<path d="M78,9.3c0.1,0,0.2-0.1,0.2-0.1C78.1,9.2,78,9.2,78,9.3z"/>
							<path d="M80.3,23.5c0.1,0,0.2,0,0.2-0.1c0,0,0,0-0.1,0L80.3,23.5z"/>
							<path d="M77.5,8.5c0,0.1,0.4,0,0.6,0c0.1,0.1-0.3,0.1-0.4,0.2c0.1,0.1,0.5,0.1,0.4,0.2c-0.1,0-0.1,0-0.2,0
								c0.3,0,0.1,0.3,0.4,0.3h-0.1c0.2,0,0.4-0.1,0.5-0.1c0,0,0.2,0.1,0,0.1c0,0-0.1,0-0.2,0h0.1c-0.3,0.1-0.1-0.1-0.4,0
								c0.1,0.1,0.4,0.2,0.3,0.3c-0.3,0.1-0.1-0.2-0.4,0l0.1-0.1c-0.5,0.2,0-0.1-0.5,0.1C77.8,9.6,78,9.6,78,9.8
								c0.2,0,0.3-0.1,0.5-0.1c0.4,0.2-0.8,0.3-0.3,0.4c0.2,0,0.7-0.1,0.5,0.1h-0.4c0,0.2,0.6,0,0.3,0.2c-0.2,0-0.1-0.1-0.2-0.1
								c-0.3,0.2,0.2,0,0.2,0.1l-0.3,0.1c0.1,0.2,0.4,0.3,0.5,0.5c-0.1,0-0.2,0-0.3,0.1c0.2,0.2,0.1,0.5-0.1,0.8h0.3
								c0,0-0.1,0.1-0.2,0.1c-0.1,0.1,0.2,0,0.3,0l-0.2,0.1c0.3,0.1,0.6,0.3,0.3,0.6h-0.1c-0.1,0.1,0.6,0,0.4,0.2h-0.1
								c-0.1,0.3,0.3,0.5-0.1,0.8c0.4-0.1-0.1,0.3,0.5,0.2C79.1,14,79,14,78.9,14.2c0,0.1,0.4,0,0.5,0.1L79,14.4h0.3L79,14.5h0.1
								c0,0,0.1-0.1,0.2-0.1c0.2,0.1-0.2,0.3-0.3,0.3l0.3,0.2c-0.1,0-0.2,0-0.3,0c0.3,0.1-0.3,0.1,0,0.2c0.1,0,0.2,0,0.2,0
								c-0.2,0.1-0.1,0.2,0,0.3H79c0,0.2,0.2,0.4,0.2,0.6c0.1-0.1,0.4-0.2,0.5-0.1L79.4,16c0.2,0,0.1-0.1,0.4-0.1
								c0,0.1-0.4,0.1-0.5,0.1l0.1,0.1c-0.1,0-0.1,0-0.3,0c0.2,0-0.3,0.2,0.1,0.2h-0.1c0,0.2,0.2,0.3,0.2,0.4c0.3-0.1,0.2,0,0.5,0
								c-0.1,0.1-0.2,0.3-0.2,0.5c0.2,0.1,0.2,0,0.4,0c-0.2,0.1-0.2,0.2-0.4,0.2c0.1,0.2,0.1,0.2,0.3,0.4c0.1,0,0.1-0.1,0.2-0.1
								c0,0-0.1,0.1-0.2,0.1l0,0c0.4,0.2-0.6,0.7-0.1,0.8l0,0l0.3,0.2c0,0.1-0.2,0-0.3,0.1c0.5,0.1,0,0.4,0.3,0.5
								c-0.7,0.3,0.1,0.5-0.3,0.8H80c0.2,0-0.1,0.1-0.1,0.1c0.1,0,0.2-0.1,0.3-0.1c0.3,0.4-0.1,0.9-0.2,1.3c0,0.2,0.9,0,0.5,0.2
								h-0.3c0.4,0.3,0,0.6,0.4,0.9c-0.1,0-0.2,0-0.2,0c-0.2,0.1,0,0.2,0.2,0.2c0,0-0.2,0-0.3,0c-0.1,0.1,0.3,0.2,0.1,0.2h-0.1
								c0.1,0,0,0.2,0.2,0.1c-0.1,0.1,0.1,0.2,0,0.3c0.3,0.1-0.2,0.2,0.3,0.2c-0.5,0-0.4,0.2-0.2,0.3c-0.1,0-0.1,0-0.3,0
								c0,0.1,0.1,0.2,0.3,0.2c-0.6,0.1,0.4,0.3-0.3,0.3c0.2,0.3,0.3,0.5,0.4,0.7c-0.4-0.1,0-0.2-0.5-0.3c0.1,0.2,0.5,0.4,0.3,0.6
								c-0.1,0-0.2-0.1-0.3-0.1c0.1,0.2-0.1,0.3,0,0.6c0,0-0.1,0-0.1-0.1c0,0-0.1,0,0.1,0.1l0,0c0.3,0,0.5,0.3,0.7,0.4
								C80.4,26,80.7,26.4,80,26c0,0,0.1,0.1,0.2,0.1c-0.1,0-0.1,0-0.3-0.1c0.1,0.1,0.3,0.2,0.2,0.3c-0.1,0-0.1-0.1-0.2-0.1
								c0.2,0.1,0.3,0.3,0.2,0.3c-0.1,0-0.1-0.1-0.1-0.1c0,0.1,0.3,0.5,0.1,0.5c-0.3-0.3-0.2,0-0.5-0.2v0.1L80,27
								c0,0.1,0.1,0.3,0,0.3l-0.1-0.1v0.2h0.2c0.1,0.2,0.4,0.3,0.2,0.3c0,0-0.1,0.1-0.3,0l0,0c0.1,0.1,0.1,0.2,0,0.2l0,0l0,0
								c0.2,0.1,0.4,0.1,0.6,0.2C80.4,28,80.2,28,80,27.9l0.6,0.2l0,0l0,0l0,0l0,0l0,0l0,0l0,0l0,0l-0.8-0.3
								c-0.1-0.1-0.2-0.2-0.2-0.2l0,0l1.3,0.5c-0.3,0-0.1-0.2-0.4-0.3c0.1,0,0.3,0,0.3,0h-0.3c0.1,0,0.1-0.1,0.3,0
								c0-0.1-0.5,0-0.3-0.1h0.1c0.1-0.2-0.2-0.3,0-0.4c0.4,0,0.1,0.1,0.4,0.1c-0.1-0.2-0.5-0.4-0.4-0.6l0,0c-0.5,0,0.3-0.2,0-0.3
								c0,0,0.3,0,0.2,0c0.1-0.1-0.1-0.3-0.3-0.5h0.1c0.1-0.1,0.1-0.2,0.1-0.3c-0.1,0-0.1-0.1-0.3,0c0.8-0.3-0.4-0.5,0.2-0.8
								c0,0,0.1,0.1,0.1,0l-0.1-0.2c-0.2,0-0.1,0-0.3,0.1c-0.1,0-0.2-0.1-0.2-0.1c0.2,0.1,0.4,0,0.5,0c-0.1,0-0.1,0-0.2,0
								c0.4-0.1-0.5,0-0.2-0.2h0.1c-0.1-0.1-0.2-0.1-0.2-0.2c0.3,0,0.1,0.1,0.3,0.1c0-0.1-0.5-0.2-0.2-0.2c0.1,0,0.1,0.1,0.2,0.1
								c0.3-0.1,0.2-0.1,0.3-0.2l0,0l0.1-0.1h-0.1c-0.7-0.1-0.1-0.2-0.6-0.3c0.4,0.1,0.3,0,0.6,0c0.1,0,0.2-0.1,0.3-0.1
								c-0.2-0.1,0.2-0.1-0.2-0.2c0.1,0,0-0.1,0.3-0.1c-0.1-0.1-0.2,0-0.3,0c-0.3-0.1,0.4-0.3-0.1-0.5c-0.2-0.2-0.5-0.2-0.7-0.3
								c0.2-0.1,0.4,0,0.4,0c0.1-0.1,0.1-0.1,0-0.2c0.1,0,0.2,0,0.3,0c0-0.1-0.4,0-0.2-0.1c0.1,0,0.3,0,0.4,0.1
								c-0.1-0.1-0.3-0.1-0.4-0.2c0.2,0,0.3,0,0.4,0.1c-0.1-0.1-0.2-0.2-0.4-0.2l-0.1,0.1c0,0,0.2,0,0.3,0c0.2,0.1-0.1,0.1-0.2,0.1
								l-0.1-0.1c-0.6,0.1,0.1,0.2,0.1,0.3h-0.4l0.3,0.1c-0.1,0-0.3,0-0.4,0c-0.2,0.1,0.1,0.1-0.1,0.1h-0.1l0.1,0.1
								c-0.1,0-0.3,0-0.2,0c-0.2,0.1,0.3,0.2,0,0.3l0,0c0.1,0.2,0.3,0,0.7,0.2L79.6,23h0.3c0,0,0,0.1-0.2,0.1c0.2,0.1,0.1,0,0.3,0
								c-0.3,0.1,0.1,0.3-0.4,0.3c0.2,0,0.2-0.1,0.3,0c-0.5,0,0.1,0.1-0.1,0.2c-0.3,0-0.1-0.1-0.4,0c0.5,0-0.1,0.2,0,0.2
								c0.4,0,0.2,0.2,0.3,0.3c-0.1,0-0.2,0.2-0.3,0.3h-0.1c0.4,0,0.3,0.1,0.4,0.2c-0.2,0-0.3,0-0.4-0.1v0.1c0.1,0,0.2,0,0.2,0.1
								h-0.3c0,0.1,0.3,0.2,0.1,0.4c0.3,0,0.7-0.1,0.9,0c-0.1,0-0.4,0-0.4,0s0.1,0,0.1,0.1l-0.2-0.1c-0.1,0.1,0.2,0,0.2,0.1
								c-0.2,0-0.1,0-0.3,0c0,0,0.1,0,0-0.1c0,0.1-0.2,0.1-0.3,0.2c0.1,0,0.3,0,0.3,0c0,0.1-0.2,0-0.3,0.1c0.1,0,0,0.1,0.3,0.1
								c0,0-0.1,0-0.2,0.1c0.1,0.1,0,0.3,0.4,0.2l0,0l0,0l0,0l0,0c0.3,0.2-0.2,0.4,0,0.6h-0.1c0.1,0.1,0.1,0.2,0.3,0.3
								c0,0-0.2,0.1-0.3,0.1c0.1,0.1,0.2,0.1,0,0.2c-0.2-0.1-0.2,0-0.1-0.1c-0.1,0.1-0.2,0.1,0,0.2c-0.3,0-0.3,0.1-0.2,0.1l0.2-0.1
								c0,0.1,0,0.1,0,0.2h-0.3c-0.4,0.2,0.7,0.4,0,0.6c0.2,0.1,0.2-0.1,0.4-0.1c0,0.1-0.2,0.1-0.3,0.1c-0.1,0-0.1,0-0.2,0.1
								c0,0,0,0-0.1,0l0,0l0,0l0,0l0,0l1.9,0.7l0,0l0,0c0.2,0-0.3-0.4-0.1-0.5c-0.1-0.1-0.4-0.2-0.4-0.4c0.1-0.1,0.5,0.2,0.5,0.3
								c0,0,0,0-0.1,0c0,0.1,0,0.1,0.2,0.2L81,28.2c0.1,0,0.2-0.1,0.4,0c0-0.1-0.1-0.1-0.2-0.1c0.2,0,0.1-0.2,0.3-0.3
								c-0.1,0-0.2-0.1-0.2-0.1c0.2-0.1-0.1-0.2-0.1-0.3c0.2,0,0.4,0.2,0.3,0c0.2,0,0.3,0.1,0.4,0.2c-0.1-0.2,0.3-0.2,0.3-0.2v0.1
								c0-0.1,0-0.1,0-0.1L82,27.3c0.1,0,0.1-0.1,0.2,0c-0.1-0.1-0.4-0.1-0.5-0.3c0.1,0-0.1-0.2,0.2-0.1c-0.2,0.1,0.3,0.1,0.3,0.3
								c0,0,0-0.1,0.1-0.1c0,0,0.1,0,0.1,0.1c0.3-0.1-0.3-0.2-0.2-0.4c0.2,0.1,0.3,0.1,0.3,0c0,0.1-0.3-0.1-0.4-0.2
								c0.2-0.1-0.1-0.2,0-0.2H82c-0.2-0.1-0.1-0.1-0.1-0.2c0.1,0,0.1,0.1,0.1,0.1c-0.3-0.2,0.4-0.1,0.2-0.3c0.1,0,0.3,0.1,0.4,0.1
								c-0.2-0.2,0.3-0.1,0.1-0.3c-0.2,0-0.2,0-0.4-0.1l0.1,0.3l-0.3-0.2c0,0.1,0.1,0.2,0.1,0.2c-0.2-0.1-0.1-0.1-0.3-0.1
								c0.4,0-0.2-0.2,0.1-0.3l0.6,0.1c0.3-0.1-0.2-0.4,0-0.5h-0.1c-0.2-0.1,0-0.1-0.1-0.2c0.2,0,0.3,0,0.4,0c-0.1,0,0-0.2-0.4-0.2
								l0.3-0.1c0.1-0.2-0.5-0.3-0.5-0.4c0.2,0.1,0.4,0,0.5,0.1c0-0.1,0-0.1-0.1-0.1c0.1,0-0.2-0.2-0.1-0.2c-0.1,0-0.3-0.1-0.3-0.1
								h0.1c-0.1,0-0.1-0.1-0.3-0.1c0.6-0.1,0-0.4,0.5-0.6c-0.1-0.1-0.1-0.3-0.1-0.4c0.1,0,0.1,0,0.1,0c0.2-0.1-0.6-0.1-0.4-0.2
								c0.3-0.1,0.2,0.1,0.3,0c0.6,0-0.1-0.2,0.3-0.3l0,0c0.2-0.1-0.3-0.2-0.2-0.3h0.1c-0.3-0.1-0.5-0.2-0.6-0.4c0.3,0,0.1,0,0.4,0
								c0-0.1-0.4,0.1-0.5-0.1c0.1,0,0.2-0.1,0.5-0.2v0.1c0.4-0.1,0-0.1,0-0.2h0.2c-0.1-0.2-0.5-0.1-0.5-0.3H82
								c-0.4-0.1,0.2-0.1-0.1-0.2l0.4-0.1c-0.1-0.1-0.4-0.2-0.5-0.3c0.3,0,0.5,0.1,0.6,0.2c0-0.1-0.1-0.2-0.3-0.2c0,0,0.1,0,0.1,0.1
								c-0.3,0-0.5-0.1-0.5-0.2c0.8-0.1,0.1-0.4,0.7-0.5c-0.3-0.2,0.1-0.5,0-0.7c-0.6,0.2,0-0.1-0.6,0c0-0.1,0-0.1,0-0.1l0.3-0.2
								c0.2-0.1,0.1,0,0.3,0c0-0.1,0.2-0.1,0.4-0.2c-0.2,0.1-0.3,0-0.2-0.1l-0.3,0.2c-0.4-0.1,0.5-0.3,0.1-0.4h0.2
								c-0.1-0.1-0.1-0.4-0.6-0.4c0.1,0,0.2-0.1,0.3,0c0-0.2-0.6-0.4-0.3-0.6h0.1c-0.1,0-0.3,0-0.2-0.1c0.1,0,0.1,0,0.2,0
								c-0.1,0-0.3-0.1-0.2-0.1h0.2c0.1-0.3-0.5-0.3-0.6-0.4c0.4-0.1,0.5-0.3,0.6-0.4h0.1c0-0.3-0.4-0.4-0.7-0.6
								c0.4-0.2,0.1-0.5,0.3-0.8c-0.1,0.1-0.3,0.1-0.4,0c0.1-0.1-0.3-0.1,0.1-0.2l0,0c0.4-0.1,0.2-0.2,0.2-0.3l-0.5,0.1
								c0.7-0.4-0.4-0.5,0.2-0.8c-0.1,0-0.2-0.1-0.3-0.1l0.3-0.1c0-0.2,0.1-0.3-0.1-0.4h0.2c0-0.1-0.8,0-0.9-0.1l0.4-0.1
								c0-0.2,0.3-0.4-0.1-0.6c0.1,0,0.2,0,0.2,0c0-0.1,0.2-0.4-0.4-0.2c0.4-0.1,0-0.2-0.2-0.3h0.3c-0.4,0-0.5,0-0.6-0.1
								c0,0,0.2-0.1,0.2,0c0.1-0.1-0.3,0-0.2-0.2h0.2c0-0.1-0.1-0.1-0.3-0.1c-0.1,0,0-0.2,0.3-0.3c-0.2,0-0.4,0-0.3-0.1
								c0.1,0,0.2,0,0.2,0c0.2-0.2-0.4-0.2-0.1-0.3c0.1,0,0.1,0,0.2-0.1c0,0.1,0,0.2,0,0.2c0.3-0.1,0.3-0.2,0.6-0.2
								c-0.2,0-0.6-0.1-0.5-0.2c0,0,0,0,0.1,0l0,0c0,0,0,0-0.1-0.1l0.1-0.1c0.2-0.1,0.1-0.1,0.1-0.2c-0.3,0.1-0.2,0-0.5,0.1
								c0,0,0,0,0.1,0l0,0l0,0v0.1c-0.1,0-0.3,0-0.1-0.1c-0.2,0-0.4,0-0.5,0c0.4-0.1,0.6-0.3,0.8-0.4c-0.2-0.1-0.2-0.3-0.7-0.4
								c-0.1,0,0.1-0.1,0.2-0.1s0.1,0,0.1,0C80,9.1,80,8.9,79.6,9c0.1-0.1,0.3,0,0.3-0.1H80c0.5-0.4-1-0.3-0.3-0.8
								c0,0-0.1,0-0.1,0.1c0.3-0.4-0.4-0.8,0.1-1.2c0.1-0.1-0.1-0.1-0.3-0.1l0.3-0.1l-0.4-0.1C79,7,80,6.7,79.5,6.6h-0.2
								c0-0.1-0.1-0.2,0.1-0.2c0,0-0.2,0-0.1,0h0.2l-0.3-0.2c0.1-0.1,0.6,0,0.6-0.2c-0.1-0.1-0.5-0.2-0.6-0.1c0,0-0.1,0.1-0.2,0.1
								l-0.1-0.1c-0.5,0-0.9,0-1.3,0.2l0.3,0.1l-0.2,0.1V6.2c-0.2,0.1,0,0.1,0.1,0.1c-0.1,0-0.2,0-0.2,0.1H78c-0.2,0-0.4,0-0.5,0.1
								c0.2,0,0.4-0.1,0.5,0c-0.2,0.1-0.4,0.1-0.2,0.1c-0.1,0-0.2,0-0.3,0c0.1,0,0.1,0.2,0.3,0.2C77.5,6.9,77.9,7,77.4,7
								C77.7,7,78,7,78,7.1c-0.5,0,0,0.2-0.6,0.3c0.5,0,0.2,0.3,0.5,0.4h-0.1c0,0.1-0.2,0.1-0.3,0.2c0.4,0,0.5,0.1,0.7,0.1
								C78,8.1,77.9,8,77.5,8c0.3,0,0.3,0.1,0.6,0.1c-0.2,0.1-0.1,0.1-0.4,0.2c0.5-0.1,0.1,0.1,0.4,0.1c-0.2,0.1-0.5,0.1-0.3,0.2
								C77.7,8.6,77.5,8.5,77.5,8.5z M78.8,11L78.8,11L78.8,11L78.8,11z M78.8,11.2L78.8,11.2c0.1-0.1,0.2-0.1,0.2-0.1
								C78.9,11.1,78.9,11.2,78.8,11.2z M80.6,10.4C80.7,10.4,80.6,10.5,80.6,10.4C80.5,10.4,80.5,10.4,80.6,10.4L80.6,10.4
								L80.6,10.4z"/>
							<path d="M80,27.6l-0.1-0.1C79.9,27.4,79.9,27.5,80,27.6z"/>
							<path d="M80.9,22.5c0,0,0.2-0.1,0.2-0.2H81C81.1,22.4,80.7,22.5,80.9,22.5z"/>
							<path d="M79.7,23.2l0.1-0.1c-0.1,0-0.3,0.1-0.3,0C79.1,23.3,79.7,23,79.7,23.2z"/>
							<path d="M79.5,23.6c-0.1-0.1-0.2,0-0.2,0C79.4,23.7,79.4,23.7,79.5,23.6z"/>
							<path d="M79.6,26.7h-0.3C79.3,26.8,79.4,26.7,79.6,26.7z"/>
							<polygon points="80.9,27.3 81,27.2 80.8,27.2 							"/>
							<path d="M79.1,27.7L79,27.6L79.1,27.7z"/>
							<path d="M82.3,21.1c0.2,0,0.2-0.1,0.1-0.1C82.4,21.1,82.2,21.1,82.3,21.1z"/>
						</g>
					</g>
				</g>
			</g>
		</g>
		<g>
			<g>
				<g>
					<g>
						<g>
							<path d="M72.4,5.3c-0.1,0.2-0.1,0.4-0.1,0.7C72.4,5.7,72.4,5.8,72.4,5.3c0,0.1,0.1,0.2,0.1,0.3c0-0.1,0.1,0.1,0.1-0.1
								C72.6,5.2,72.5,5.2,72.4,5.3C72.3,5.4,72.4,5.3,72.4,5.3z"/>
							<path d="M68.2,4.5L68.2,4.5C68.3,4.6,68.2,4.6,68.2,4.5z"/>
							<path d="M68.2,4.5L68.2,4.5L68.2,4.5z"/>
							<path d="M70.3,4.3c0,0,0,0.3-0.1,0.4c0-0.1,0-0.2,0.1-0.2C70.3,4.5,70.3,4.4,70.3,4.3z"/>
							<path d="M57.1,3.1c0.1,0.3-0.2,0.3-0.1,0.6C57,3.6,57.2,3.2,57.1,3.1z"/>
							<path d="M61.9,3.8C61.9,3.8,61.8,3.7,61.9,3.8C61.8,3.8,61.8,3.8,61.9,3.8C61.8,3.8,61.8,3.7,61.9,3.8z"/>
							<path d="M46.5,4.4c0-0.1,0-0.2,0-0.3C46.5,4.4,46.4,4.4,46.5,4.4z"/>
							<path d="M51.9,4.9L51.9,4.9C51.8,5,51.8,4.9,51.9,4.9z"/>
							<path d="M61.2,6c0-0.1,0-0.2-0.1-0.2C61.1,5.8,61.1,5.8,61.2,6L61.2,6z"/>
							<path d="M45.6,4.7c0.1,0,0.1-0.4,0.1-0.6c0.1-0.1,0,0.3,0.1,0.5c0.1-0.1,0.2-0.4,0.3-0.4c0,0.1,0,0.1,0,0.2
								c0.1-0.3,0.3,0,0.4-0.3v0.1c0-0.2,0-0.4,0-0.5c0.1,0,0.1-0.2,0.1,0c0,0,0,0.1-0.1,0.2l0.1-0.1c0,0.4-0.1,0.1-0.1,0.4
								c0.1-0.1,0.3-0.4,0.3-0.3c0,0.3-0.2,0.1-0.1,0.4l-0.1-0.1c0,0.5-0.1,0,0,0.5c0.2,0.1,0.2-0.2,0.3,0c0.1-0.2,0-0.3,0.1-0.5
								c0.3-0.3,0.1,0.9,0.3,0.4c0.1-0.2,0.1-0.6,0.2-0.4l-0.1,0.4c0.2,0.1,0.1-0.5,0.3-0.3c0,0.1-0.1,0.1-0.1,0.2
								c0.1,0.3,0.1-0.2,0.2-0.2v0.3c0.2,0,0.4-0.3,0.6-0.3c0,0.1-0.1,0.2,0,0.3c0.3-0.1,0.5,0.1,0.7,0.3l0.1-0.3c0,0,0,0.1,0,0.2
								c0.1,0.1,0-0.2,0.1-0.3c0.1,0,0,0.2,0,0.3c0.2-0.2,0.5-0.5,0.6-0.2v0.1c0.1,0.1,0.2-0.6,0.3-0.3l0,0c0.3,0.2,0.6-0.1,0.8,0.4
								c0.1-0.4,0.3,0.2,0.3-0.4c0.1,0.3,0.1,0.4,0.3,0.6c0.1,0,0.1-0.4,0.2-0.4v0.3l0.1-0.3V5L52,4.9c0,0,0-0.1,0-0.2
								c-0.1-0.1,0,0.3,0,0.4l0.3-0.2c0,0.1-0.1,0.2-0.1,0.2c0.2-0.3,0,0.3,0.1,0.1c0-0.1,0-0.2,0-0.2c0,0.2,0.2,0.2,0.3,0.1v0.2
								c0.2,0.1,0.4-0.1,0.6,0c-0.1-0.1,0-0.5,0-0.5v0.3c0.1-0.2-0.1-0.1,0.1-0.4c0.1,0,0,0.4,0,0.5l0.1-0.1c0,0.1,0,0.1,0,0.3
								c0.1-0.2,0.1,0.3,0.2,0v0.1c0.2,0,0.3-0.1,0.5-0.1c0-0.3,0.1-0.2,0.2-0.4c0.1,0.1,0.2,0.3,0.4,0.3c0.1-0.1,0.1-0.2,0.1-0.4
								c0,0.3,0.1,0.2,0,0.4c0.2,0,0.2,0,0.5-0.2c0-0.1,0-0.2,0-0.2s0.1,0.1,0.1,0.2l0,0c0.3-0.4,0.5,0.8,0.8,0.3l0,0l0.2-0.3
								c0.1,0.1-0.1,0.2,0,0.4c0.3-0.4,0.4,0.1,0.6-0.2c0.1,0.8,0.5,0,0.7,0.5V5.6c0.1-0.2,0.1,0.1,0.1,0.2c0-0.1,0-0.2,0-0.3
								C58.1,5.3,58.5,5.8,59,6c0.2,0.1,0.2-0.9,0.3-0.5l-0.1,0.3c0.4-0.4,0.7,0.1,1-0.2c0,0.1,0,0.2-0.1,0.2c0.1,0.2,0.3,0,0.3-0.2
								c0,0,0,0.2,0,0.3c0.1,0.1,0.2-0.3,0.2-0.1v0.1c0.1-0.1,0.2,0,0.2-0.2c0.1,0.1,0.2-0.1,0.3,0.1c0.1-0.3,0.2,0.2,0.2-0.3
								c0,0.5,0.2,0.4,0.3,0.2c0,0.1,0.1,0.1,0,0.3c0.1,0,0.2-0.1,0.2-0.3C62,6.2,62.2,5.3,62.3,6c0.3-0.2,0.5-0.4,0.8-0.5
								c0,0.4-0.3,0-0.3,0.5c0.2-0.2,0.4-0.5,0.6-0.4c0.1,0.1,0,0.2-0.1,0.3c0.2-0.2,0.4,0.1,0.6-0.2v0.1c0,0,0.1,0.1,0.1-0.1v0.1
								c0-0.3,0.2-0.6,0.2-0.8c-0.1,0.6,0.2,0.2,0,0.9c0,0,0.1-0.1,0.1-0.3c0,0,0,0.1,0,0.3c0.1-0.1,0.1-0.3,0.2-0.3
								c0,0.1,0,0.1-0.1,0.3c0.1-0.2,0.2-0.4,0.3-0.3c0,0.1,0,0.1,0,0.1c0.2,0,0.3-0.5,0.5-0.3c-0.1,0.4,0.1,0.1,0,0.5l0.1-0.1V5.6
								c0.1,0,0.2-0.3,0.3-0.1l-0.1,0.1l0.2-0.1l-0.1-0.1c0.1-0.2,0-0.5,0.1-0.4c0,0,0.1,0,0.1,0.2l0,0C65.9,5.1,65.9,5,66,5.1
								c0,0.1,0,0.4,0,0.5c0.1-0.3,0.2-0.1,0.3-0.4c0,0.1,0,0.3,0,0.3l0.1-0.3c0,0.1,0,0.1,0,0.3c0.1,0.1,0-0.5,0.1-0.3v0.1
								c0.2,0.1,0.3-0.1,0.4,0c0,0.4-0.1,0.1-0.1,0.4c0.2-0.1,0.5-0.4,0.7-0.3l0,0c0.1-0.5,0.1,0.3,0.3,0c0,0,0,0.3,0,0.2
								c0.1,0.1,0.3-0.1,0.5-0.3v0.1c0.1,0.1,0.2,0.1,0.3,0.1c0-0.1,0.1-0.1,0.1-0.3c0,1,0.3-0.2,0.5,0.5l-0.1,0.1l0.2-0.1
								c0-0.2,0-0.1-0.1-0.3c0-0.1,0.1-0.2,0.1-0.2c-0.1,0.1,0,0.4,0,0.5c0-0.1,0-0.1,0-0.2c0.1,0.4,0-0.5,0.2-0.2v0.1
								c0.1-0.1,0.1-0.2,0.2-0.2c0,0.3-0.1,0.1-0.1,0.3c0.1,0,0.2-0.5,0.3-0.2c0,0.1-0.1,0.1-0.1,0.1c0.1,0.3,0.1,0.2,0.1,0.3l0,0
								L70,5.8V5.7c0.1-0.7,0.2-0.1,0.4-0.6c-0.2,0.4,0,0.2-0.1,0.6c0,0.1,0.1,0.2,0.1,0.3c0.1-0.2,0.1,0.2,0.2-0.2
								c0,0.1,0.1,0,0,0.3c0.1-0.1,0-0.2,0-0.3c0.1-0.3,0.3,0.4,0.5,0c0.2-0.2,0.2-0.5,0.4-0.7c0,0.2-0.1,0.4-0.1,0.4
								c0.1,0.1,0.1,0.1,0.2,0c0,0.1,0,0.2,0,0.3c0.1,0,0.1-0.4,0.1-0.2c0,0.1,0,0.3-0.1,0.4C71.9,5.9,72,5.7,72,5.6
								c0.1,0.2,0,0.3,0,0.4c0.1-0.1,0.2-0.1,0.3-0.4l-0.1-0.1c0,0,0,0.2,0,0.3C72.1,6,72,5.6,72,5.6l0.1-0.1c0-0.6-0.2,0.1-0.3,0
								l0.1-0.4l-0.1,0.3c0-0.1,0-0.3,0-0.4c-0.1-0.2-0.1,0.1-0.1-0.1V4.8L71.5,5c0-0.1,0-0.3,0-0.2c-0.1-0.2-0.2,0.3-0.3,0l0,0
								c-0.2,0.1,0,0.3-0.2,0.7l-0.1-0.8V5c0,0-0.1,0,0-0.2c-0.1,0.2,0,0.1,0,0.3c-0.1-0.3-0.3,0.1-0.3-0.4c0,0.2,0.1,0.2,0,0.3
								c0-0.5-0.1,0.1-0.2-0.2c0-0.3,0.1-0.1,0-0.4c-0.1,0.5-0.2-0.1-0.2,0c0,0.4-0.2,0.1-0.3,0.3c0-0.1-0.2-0.2-0.3-0.3V4.3
								c0,0.4-0.2,0.3-0.2,0.4c0-0.2,0-0.3,0.1-0.4h-0.1c0,0.1-0.1,0.2-0.1,0.2V4.2c-0.1,0-0.2,0.3-0.4,0.1c0,0.3,0.1,0.7-0.1,0.9
								c0-0.1,0-0.4,0.1-0.4l-0.1,0.1l0.1-0.2c-0.1-0.1,0,0.2-0.1,0.2c0-0.2,0-0.1,0-0.3c0,0,0,0.1,0.1,0c-0.1,0-0.1-0.2-0.1-0.3
								c0,0.1,0,0.3-0.1,0.3s0-0.2-0.1-0.3c0,0.1-0.1,0-0.1,0.3c0,0,0-0.1,0-0.2c-0.1,0.1-0.3,0-0.2,0.3l0,0l0,0l0,0l0,0
								c-0.2,0.3-0.4-0.2-0.6-0.1V4.5c-0.1,0.1-0.2,0.1-0.3,0.3c0,0-0.1-0.2,0-0.3c-0.1,0.1-0.1,0.2-0.2,0c0.1-0.2,0-0.2,0.1-0.1
								c-0.1-0.1-0.1-0.3-0.2,0C67,4.1,66.9,4,66.9,4.1L67,4.3c-0.1,0-0.1,0-0.2,0V4c-0.2-0.4-0.4,0.7-0.6,0c-0.1,0.2,0.1,0.2,0,0.4
								C66.1,4.3,66,3.9,66,3.9c-0.1-0.2-0.2,0.5-0.3,0.3c0,0.1,0,0.4-0.1,0.5c-0.1,0-0.1-0.5,0-0.6c0,0,0,0,0,0.1
								c0,0,0.1-0.1,0-0.2v0.1c0-0.1-0.2-0.1-0.1-0.3c-0.1,0.1,0,0.2,0,0.3c-0.1-0.2-0.2,0-0.3-0.1c0,0.1,0,0.2,0,0.2
								C65,4,65.1,4.4,65,4.5c0-0.4,0.1-0.6,0-0.5c-0.1-0.1,0-0.3,0-0.4c-0.1,0.2-0.2-0.2-0.3-0.2l0.1-0.1c0,0.1-0.1,0.1-0.1,0v0.2
								c0,0-0.1,0-0.1-0.1c0,0.2,0,0.4-0.1,0.6c0-0.1-0.2,0.1-0.2-0.2c0.1,0.1,0-0.3,0.1-0.4h-0.1V3.3c-0.1-0.3-0.1,0.4-0.2,0.3
								c0-0.2,0-0.3,0-0.3c0.1,0,0,0.3-0.1,0.4c0,0,0,0.3,0,0.2V4c0,0.2-0.1,0.1-0.2,0.2c0-0.1,0.1-0.1,0-0.2
								c-0.1,0.3-0.2-0.3-0.3-0.1c0-0.1,0-0.3,0-0.4c-0.1,0.2-0.1-0.3-0.3-0.1c0,0.2,0,0.2-0.1,0.4l0.2-0.2L63.4,4
								c0.1,0,0.1-0.1,0.2-0.1c-0.1,0.2-0.1,0.1,0,0.3c-0.1-0.4-0.2,0.2-0.3-0.1V3.5c-0.1-0.3-0.3,0.3-0.5,0.1l0.1,0.1
								c0,0.2-0.1,0-0.2,0.1c0-0.2,0-0.3,0-0.4c0,0.1-0.1,0-0.2,0.4l-0.1-0.3C62.3,3.4,62.2,4,62,4c0.1-0.2,0-0.4,0.1-0.5
								c-0.1,0-0.1,0-0.1,0.1c0-0.1-0.2,0.3-0.2,0.1c0,0.1,0,0.3-0.1,0.3V3.9c0,0.1-0.1,0.1-0.1,0.3c-0.1-0.6-0.4,0-0.5-0.5
								c-0.1,0.1-0.3,0.1-0.4,0.1c0-0.1,0-0.1,0-0.1c-0.1-0.2-0.1,0.6-0.3,0.3c-0.1-0.3,0.1-0.2,0.1-0.3c0-0.6-0.2,0.1-0.3-0.3l0,0
								c-0.1-0.2-0.2,0.2-0.3,0.2V3.5c-0.1,0.3-0.3,0.4-0.4,0.5c0.1-0.3,0.1-0.1,0.1-0.4c-0.1,0,0,0.4-0.1,0.5
								c0-0.1-0.1-0.3-0.1-0.5h0.1c0-0.4-0.1,0-0.2-0.1V3.3c-0.2,0-0.2,0.4-0.4,0.4L59,4c-0.1,0.4-0.1-0.2-0.2,0.1V3.7
								c0,0-0.2,0.3-0.3,0.3c0.1-0.3,0.2-0.4,0.3-0.6c-0.1,0-0.2,0-0.3,0.2l0.1-0.1C58.5,3.9,58.4,4,58.3,4c0.1-0.8-0.3-0.2-0.4-0.8
								c-0.2,0.3-0.4-0.2-0.7-0.1c0,0.6-0.1,0-0.1,0.6c-0.1,0-0.1,0-0.1,0l-0.2-0.4c0-0.2,0.1-0.1,0.1-0.3c-0.1-0.1,0-0.3-0.1-0.4
								c0,0.2-0.1,0.3-0.1,0.2l0.1,0.3c-0.2,0.3-0.1-0.5-0.3-0.2l0.1-0.2c-0.1,0.1-0.3,0-0.5,0.4c0-0.1,0-0.2,0-0.3
								c-0.2-0.1-0.5,0.5-0.7,0.2V2.9c0,0-0.1,0.3-0.1,0.1c0-0.1,0-0.1,0-0.2c0,0-0.1,0.3-0.2,0.2l0.1-0.2c-0.2-0.2-0.4,0.4-0.6,0.5
								c0-0.4-0.1-0.6-0.2-0.7V2.5c-0.3-0.1-0.5,0.3-0.7,0.5c-0.1-0.5-0.5-0.2-0.7-0.5c0,0.1,0,0.3-0.1,0.4c0-0.1-0.2,0.3-0.1-0.1
								l0,0c0-0.4-0.1-0.3-0.2-0.3L52.5,3c-0.2-0.8-0.6,0.2-0.7-0.5c-0.1,0.1-0.1,0.1-0.2,0.2V2.4c-0.1-0.1-0.2-0.1-0.4-0.1l0.1-0.2
								C51.1,2.2,51,3,50.9,3V2.6c-0.2,0-0.3-0.4-0.6,0c0-0.1,0-0.2,0.1-0.2c-0.1,0-0.3-0.3-0.3,0.3c0-0.4-0.2-0.1-0.3,0.1V2.5
								c-0.1,0.3-0.1,0.4-0.3,0.5c0,0,0-0.2,0-0.1c-0.1-0.2-0.1,0.3-0.2,0.1l0.1-0.2c-0.1,0-0.1,0.1-0.2,0.3C49.1,3.2,49,3,49,2.8
								c0,0.2-0.1,0.4-0.2,0.3c0-0.1,0-0.2,0-0.2c-0.1-0.2-0.3,0.3-0.4,0c0-0.1,0-0.1,0-0.2c0.1,0,0.2,0,0.2,0.1
								c0-0.3-0.1-0.3,0-0.7c-0.1,0.2-0.3,0.6-0.4,0.5V2.5l0,0c0,0,0,0-0.1,0c0,0,0-0.1-0.1-0.1c0-0.2-0.1-0.1-0.2-0.1
								c0,0.3-0.1,0.2,0,0.5l0,0l0,0l0,0h0.1c-0.1,0.1-0.1,0.3-0.2,0.1c0,0.2-0.1,0.4-0.1,0.4c0-0.4-0.1-0.6-0.1-0.9
								C47.3,2.5,47.1,2.5,47,3c-0.1,0.1,0-0.2,0-0.2s0.1,0,0.1-0.1c-0.1,0.1-0.3,0-0.3,0.4C47,2.7,47.2,2.5,47,2.6V2.5
								c-0.2-0.6-0.6,0.9-0.9,0.1v0.1c-0.4-0.4-0.8,0.2-1.2-0.3c-0.1-0.1-0.1,0.1-0.2,0.3V2.4l-0.2,0.3c-0.2,0.2-0.2-0.8-0.5-0.3
								v0.2c-0.1,0-0.2,0.1-0.2-0.1c0,0,0,0.2-0.1,0.1V2.4l-0.2,0.2c-0.1-0.1,0.1-0.6-0.1-0.7c-0.1,0.1-0.3,0.4-0.3,0.5
								c0,0,0.1,0.1,0.1,0.3l-0.1,0.1c-0.1,0.5-0.2,0.9,0,1.3l0.2-0.3V4h-0.1c0,0.2,0.1,0,0.1-0.1c0,0.1,0,0.2,0,0.3l0.2-0.4
								c0,0.2-0.1,0.4,0,0.5c0.1-0.2,0-0.4,0.1-0.5c0,0.2,0,0.4,0.1,0.2c0,0.1,0,0.2-0.1,0.2c0.1-0.1,0.2,0,0.2-0.3
								c0,0.3,0.2,0,0.2,0.4C44,4.2,44.1,4,44.2,4c-0.2,0.5,0.2,0.1,0.1,0.6c0.1-0.5,0.3-0.2,0.5-0.4v0.1c0.1,0,0.1,0.2,0.1,0.3
								c0.1-0.4,0.2-0.5,0.3-0.7c0,0.4-0.1,0.5-0.1,0.8c0-0.3,0.2-0.3,0.2-0.6c0,0.2,0,0.1,0,0.4c0.1-0.5,0.1-0.1,0.2-0.4
								c0.1,0.3,0,0.5,0.1,0.3C45.7,4.6,45.6,4.7,45.6,4.7z M48.4,4.2L48.4,4.2C48.3,4.2,48.3,4.2,48.4,4.2
								C48.3,4.2,48.3,4.2,48.4,4.2z M48.6,4.2C48.6,4.2,48.5,4.2,48.6,4.2C48.5,4.1,48.5,4,48.5,4S48.6,4.1,48.6,4.2z M48.3,2.2
								C48.4,2.2,48.4,2.2,48.3,2.2C48.3,2.3,48.3,2.3,48.3,2.2L48.3,2.2L48.3,2.2z"/>
							<path d="M63.9,5.8L63.9,5.8C63.8,5.9,63.8,5.9,63.9,5.8z"/>
							<path d="M65.8,5.3C65.8,5.3,65.8,5.4,65.8,5.3C65.8,5.4,65.8,5.5,65.8,5.3z"/>
							<path d="M72.1,6.1L72.1,6.1C72.2,6,72.2,6,72.1,6.1z"/>
							<path d="M71.4,6l0.1,0.2L71.4,6C71.5,6.2,71.5,5.8,71.4,6z"/>
							<path d="M70.8,4.7L70.8,4.7c0.1,0,0.1-0.2,0.1-0.2C70.8,4.1,71,4.7,70.8,4.7z"/>
							<path d="M70.4,4.5c0.1,0,0-0.2,0-0.2C70.4,4.4,70.3,4.4,70.4,4.5z"/>
							<polygon points="66.4,3.8 66.4,3.7 66.3,3.8 							"/>
							<path d="M59,3.7C59,3.5,58.9,3.4,59,3.7C59,3.6,59,3.7,59,3.7z"/>
							<path d="M52.4,2.6L52.4,2.6L52.4,2.6z"/>
						</g>
					</g>
				</g>
			</g>
		</g>
	</g>
	<g>
		<g>
			<g>
				<path class="st0" d="M59,21.9c-0.1,0-0.2-0.1-0.3-0.1c-1-0.2-2.2-0.2-3.6-0.6c-0.7-0.2-1.4-0.5-2.1-1c-0.3-0.3-0.7-0.5-1-0.9
					c-0.6-0.7-0.3-0.5-0.4-0.7c0-0.8-0.1-1.5-0.4-2c0.1,0.5,0.1,0.9,0.1,1.3c0,0.2,0,0.4,0.1,0.6c0,0.1,0,0.2,0.1,0.3v0.1l0,0
					c-0.1-0.1,0,0,0,0l0.1,0.1l0.1,0.1l0.1,0.2c2.3,2.7,5.2,2.7,7,3.3c-0.3,0.6-0.7,1.1-1.4,1.1c-0.4,0-0.8-0.1-1.4-0.2h-0.1l0,0
					h-0.1l0,0l0,0l-0.4-0.1c-0.3-0.1-0.5-0.1-0.7-0.2c-1-0.3-2-0.8-3-1.6c0.1-0.2,0.4-0.5,0.5-0.7c-0.4-0.2-0.6-0.4-1-0.8
					c-0.1-0.1-0.2-0.2-0.3-0.3l-0.1-0.2c0,0,0,0,0.1,0.1l0,0l0,0l0,0c-0.1,0-0.1-0.1-0.1-0.2c0-0.2,0.1-0.4,0.1-0.7
					c0-0.1,0-0.3,0-0.4s-0.1-0.3-0.2-0.2c-0.2,0.1-0.4,0.3-0.6,0.7c0,0.1,0,0.4-0.1,0.5l0,0l0,0c0,0.2,0,0.3,0,0.3s0-0.1,0-0.3
					c0.1-0.1,0.2-0.2,0.3-0.3c0.1-0.1,0.1,0.2,0.1,0.3c0,0.1,0,0.3-0.1,0.5c0,0.1,0,0.1,0,0.2l0,0l0,0c-0.1-0.1-0.1-0.1,0,0l0.1,0.2
					c0.4,0.5,0.7,0.8,1,1.1c-0.2-0.2-0.4-0.3-0.6-0.5c-0.1-0.1-0.2-0.2-0.3-0.4c-0.1-0.1-0.2-0.3-0.3-0.3c0-0.1,0-0.1,0-0.1v-0.2
					c0-0.1,0-0.2,0-0.3c0,0,0-0.1-0.1-0.1L50,19.6c-0.1,0.1-0.1,0.1-0.2,0.2l-0.1,0.1c-0.1,0.1,0.2-0.1-0.7,0.4
					c-0.2,0.1-0.6,0.3-0.8,0.4c-1.1-0.2-2-0.1-2.9,0.1c-0.1-1.1-1.5-3.1,0.1-3.1c-0.1-0.2-0.2-0.6-0.3-0.8c-0.9-0.3-1.6-1.2-1.9-2.2
					c-0.4-1-0.4-2-0.2-2.6c0.3-0.6,0.8-0.8,1.5-1.1l0.3-0.1l0.6-0.3c0.4-0.2,0.8-0.4,1.2-0.7c0.8-0.5,1.6-1,2.4-1.5l0.3-0.2
					c1.1-0.7,2.2-1,3.2-1c0.5,0,0.9,0.1,1.3,0.2c0.2,0.1,0.5,0.2,0.7,0.3C54.7,7.8,54.9,8,55,8.1c0.4,0.5,0.8,0.9,1.2,1.5
					s0.7,1.3,1,2.2c0.2,0.5,0.3,1,0.4,1.5l0.1,0.4c0,0.1,0,0,0,0.1L57.6,14v0.1c1.5-1.1-2,1.6-1.6,1.3l0,0l0,0l0,0h0.1v-0.1l0.1-0.1
					c0.1-0.1,0.2-0.3,0.3-0.5c0.1-0.1,0.1-0.2,0.1-0.3s0.1-0.2,0.1-0.2c-0.1,0.2,0.4-0.4,0.7,0.2c0.2,0.3,0.3,0.8,0.3,1.3
					c-0.5,0-0.8,0-1.2,0c-0.2,0-0.5-0.2-0.5-0.3v-0.1c0,0-0.1,0-0.1,0.1v0.1l0,0l0,0l0,0l0,0l0,0c-0.1,0,0.5-0.4,0.2-0.2l0,0l0,0
					c0.1-0.2,0-0.1,0-0.2V15v-0.1v-0.2L56,14.3c-0.1-0.3-0.1-0.6-0.2-0.9c-0.3-1.1-0.6-2-0.9-2.9c0.3,0.9,0.6,1.8,0.8,2.9
					c0.2,0.6,0.3,1.2,0.4,1.7c0,0,0,0.1-0.1,0.1l0,0l0,0c-0.4,0.3-0.1,0.1-0.2,0.1l0,0l0,0l0,0l0,0c0,0,0,0,0-0.1s0.1-0.1,0-0.1
					c0,0,0,0,0,0.1s0.3,0.3,0.5,0.5c0.3,0.1,0.7,0.2,1.2,0.3c0,0.5,0,0.9,0.2,1.4c0,0,0.3,0,0.5-0.1c0.9,1,1,2.6,0.8,3.7
					C59.2,21.3,59.1,21.6,59,21.9z"/>
			</g>
		</g>
	</g>
	<g>
		<g>
			<g>
				<path class="st0" d="M22.3,17.1c-0.1,0-0.2,0-0.2,0c-0.7,0.1-1.2,0.3-1.7,0.4s-1,0.2-1.5,0c-0.7-0.4-1.2-0.1-1.9-0.2
					c0.7,0.3,1.4,0.4,2.2,0.4c0.8,0,1.8,0.1,3.2-0.1c0.2,0.6,0.1,1.1-0.2,1.3c-0.9,0.3-1.6,0.4-2.3,0.5c-0.1-0.2-0.2-0.6-0.2-0.9
					c-0.8,0.5-1.6,0.3-2.3,0c-0.1-0.1-0.5-0.2-0.6-0.2c0,0-0.1,0-0.1-0.1c-0.1,0-0.2-0.1-0.3-0.1c-0.3-0.1-0.6-0.1-1,0.1
					c0,0.1-0.1,0.3-0.1,0.4l0,0l0,0c-0.1,0.1-0.1,0.2,0,0.2c-0.1,0,0-0.1,0-0.2c0.3,0.1,0.6,0.1,1,0.2c0.1,0,0.2,0.1,0.4,0.1h0.1
					c0.1,0,0.5,0.1,0.6,0.1c0.7,0.1,1.5,0.3,2.5,0.3c-0.7,0.1-1.4,0.1-2,0c-0.3,0-0.6,0-1-0.1c-0.2,0,0,0-0.4-0.1
					c-0.1,0-0.3,0-0.4-0.1c-1.1-0.2-2-0.5-2.6-0.9c-0.1,0-0.2-0.1-0.2-0.1c0.1-0.7,0.1-1-0.1-1.1c0.6-0.9,1.6-3,1.7-2.4
					c0.1-0.2,0.3-0.6,0.5-0.8c0.3-1.1,1.8-3.9,2.5-4.5c0.7-0.6,0.6,0.3,0.8-0.1l0,0c0,0,0-0.1,0,0s-0.1,0.2-0.1,0.4
					c-0.1,0.2-0.1,0.4-0.2,0.6c-0.1,0.2-0.1,0.3-0.1,0.4v0.1l0,0l0,0l-0.3,1l0,0l0,0l0,0h0.1c-0.1-0.1-0.1,0.5,0.1,0.8
					c0.1,0.1,0.1,0.3,0.2,0.3l0,0c-0.1-0.1-0.2-0.3-0.2-0.5C18,11.9,18,11.6,18,11.6c0,0.1,0,0.4,0.1,0.7c0.1,0.2,0.2,0.4,0.2,0.5
					c0.3,0.3,0.6,0.7,0.8,1c0,0,0,0,0.1-0.1c0.9,0.7,2.1,1.7,2.7,2.7C22,16.6,22.2,16.9,22.3,17.1z"/>
			</g>
		</g>
	</g>
	<g>
		<g>
			<g>
				<path class="st0" d="M42.3,19.3c0,0,0-0.1-0.1-0.1c-0.5-0.6-0.9-0.3-1.6-0.5c-0.6-0.3-1,0.2-1.4,0.4c0.6-0.1,1.1-0.3,1.7-0.3
					c0.5,0,1.1,0.3,1.4,1c0,0.5,0,1-0.1,1c-0.2-0.2-0.4-0.3-0.6-0.3c-0.1-0.2-0.2-0.6-0.3-0.9c-0.2,0.4-0.7,0.3-1.2,0.3
					s-1,0.1-1.1,0.9c0.1,0.1,0.2,0.2,0.3,0.4l0,0l0,0c0.1,0.1,0.1,0.2,0.2,0.2c-0.1,0-0.1,0-0.2-0.2c0.7-0.7,1.6-0.9,2.3-0.7
					c-0.5-0.1-1.1,0.2-1.6,0.6c-0.6,0.4-1.1,1-1.8,1.5c-0.1,0-0.2,0.1-0.2,0.2c-0.7-0.3-1.1-0.3-1.3-0.1c-0.7-0.9-2.4-2.4-1.5-2.5
					c-0.1-0.2-0.4-0.5-0.6-0.7c-1.2-0.4-3.5-2.7-3.5-3.8c0.1-1.2,1.5-1.2,2.2-2.3c0.5-0.7,1.2-1.4,2.2-1.4c1.4,0,2.7-0.9,4.4-0.3
					c0.5,0.1,1.3-0.7,1.7-0.1c0.2,0.3,0.3,0.8,0.3,1.3c-0.7,0-1.5,0.1-2.2,0.2c-0.9,0-1.8,0.1-2.8,0.1c1,0.2,1.9,0,2.8-0.1
					c0.7,0,1.5,0,2.2,0.2c0,0.5,0,0.9,0.1,1.4c0,0,0.2,0,0.3,0c0.4,1.1,0.3,2.7,0.3,3.8C42.3,18.8,42.3,19,42.3,19.3z"/>
			</g>
		</g>
	</g>
	<g>
		<g>
			<g>
				<path class="st0" d="M64.7,20.8c-0.1,0-0.2,0-0.3,0c-1,0-1.8-0.1-2.4-0.2c-0.7-0.2-1.3-0.4-1.8-0.9c-0.1-0.1-0.1-0.2-0.2-0.3
					c-0.1-0.1-0.2-0.2-0.3-0.3c0,0,0,0,0-0.1l0,0l0,0l-0.1-0.1l0,0l0,0c-0.1-0.1-0.2-0.1-0.2-0.2c-0.3-0.3-0.6-0.5-0.8-0.7
					c0.2,0.4,0.4,0.7,0.7,1.1c0.3,0.3,0.8,0.7,1.3,1c0.9,0.6,2.1,1.2,4.1,1.4c-0.2,0.6-0.6,1.2-1.1,1.3c-1.3,0-2.4-0.4-3.2-0.8
					c0.1-0.2,0.2-0.6,0.3-0.8c-0.3,0-0.6-0.1-0.9-0.2c-0.3-0.1-0.5-0.2-0.8-0.5c-0.1-0.1-0.1-0.1-0.1-0.1v-0.1l0,0l0,0l0,0l-0.1-0.1
					l0,0l0,0L58.4,20l-0.1-0.1c-0.1-0.2-0.3-0.4-0.4-0.6c-0.4-0.8-0.7-1.4-1.4-1.6c-0.1,0.1-0.2,0.2-0.4,0.2l0,0l0,0
					C56,18,55.9,18.1,56,18.1c0-0.1,0-0.1,0.2-0.2c0.4,0.4,0.8,1,1.4,1.8c0.1,0.2,0.3,0.4,0.5,0.5c0.1,0.1,0.2,0.2,0.3,0.3l0,0l0,0
					l0.1,0.1l0,0l0,0l0,0l0,0v0.1c0.2,0.1,0.3,0.3,0.5,0.4c0.1,0.1,0.2,0.2,0.4,0.3c0.3,0.2,0.5,0.4,0.8,0.5
					c-0.5-0.2-0.9-0.5-1.3-0.7c-0.1-0.1-0.3-0.2-0.4-0.3c-0.1-0.1-0.1-0.1-0.1-0.1l0,0l-0.2-0.1L58,20.5l-0.2-0.2
					c-0.6-0.6-1-1.1-1.4-1.5c-0.4-0.5-0.6-0.8-0.8-1.1c-0.2-0.3-0.4-0.5-0.5-0.8c0,0-0.1-0.1-0.1-0.2c0.5-0.5,0.6-0.8,0.4-1
					c1-0.5,2.8-1.8,2.7-1.2c0.2-0.1,0.6-0.3,0.8-0.4c0.8-0.9,3.4-2.7,4.4-2.7s0.6,1,1.3,1.3c0.2,0.1,0.3,0.1,0.4,0.2
					c0,0,0.1,0,0,0.1c-0.4,0.3-0.7,0.5-1,0.8c-0.3,0.3-0.6,0.5-0.7,0.7c-0.1,0.1-0.1,0.2-0.2,0.2l0,0l0,0l-0.4,0.4l0,0l0,0l0,0h0.1
					c0.1,0,0,0,0,0c0-0.1-0.1,0.1-0.1,0.3s0,0.5,0,0.5l0,0c-0.1-0.1-0.1-0.5,0-0.8c0.1-0.1,0-0.2,0.1-0.1l0,0h-0.1l0,0l0,0l0,0l0,0
					l0,0l0.4-0.4l0,0l0,0l0,0l0.1-0.1c0.1-0.1,0.2-0.2,0.3-0.4c-0.1,0.1-0.3,0.3-0.3,0.4l-0.1,0.1l0,0l0,0c-0.8,0.9-0.2,0.2-0.4,0.4
					l0,0l0,0l0,0l0,0l0,0l0,0c0.1,0,0.1,0,0.1,0c0-0.1,0,0-0.1,0.1c-0.1,0.2-0.1,0.6,0,0.8c-0.1-0.2,0.2,0.5,0.3,0.9h0.1
					c0.6,0.9,1.6,2.2,1.8,3.4C64.7,20.3,64.7,20.6,64.7,20.8z"/>
			</g>
		</g>
	</g>
	<g>
		<g>
			<g>
				<path class="st0" d="M38.4,22l-0.1-0.1c-0.8-0.6-1.6-0.4-2.6-0.8c-0.6-0.4-1.4-0.2-2-0.2c1.5,0.4,3,0.2,4.6,1.6
					c-0.1,0.5-0.3,1-0.5,1c-0.5-0.2-1-0.3-1.5-0.4c0-0.2,0-0.7,0-0.9c-1.3,0.7-2.7-1-4,0.1c0,0.1,0,0.3,0,0.4l0,0l0,0
					c0,0.1,0,0.2,0.1,0.2c-0.1,0-0.1-0.1-0.1-0.2c1.3-0.2,2.6,0,4,0.3c-2.1-0.3-4.1,0.1-6.3,0.1c-0.1,0-0.3,0-0.4,0
					c-0.4-0.7-0.7-0.9-1.1-0.9c0.1-1.1-0.2-3.4,0.5-2.9c0-0.2,0-0.7,0-0.9c-0.7-1.1-0.8-4.3-0.1-5.2c0.8-0.9,1.8,0,2.7-0.4
					c0.7-0.2,1.3-0.5,2,0c0.9,0.7,1.9,0.4,2.9,1.3c0.4,0.2,0.9-0.5,1.1,0.2c0.1,0.3,0.2,0.8,0.2,1.3c-0.6,0-1.1,0-1.7-0.1
					c-0.7-0.2-1.4-0.5-2.1-0.9c0.7,0.6,1.4,0.8,2.1,0.9c0.6,0.2,1.1,0.3,1.7,0.6c0,0.5,0,0.9,0.1,1.4c0,0,0.2,0,0.3,0
					c0.4,1.1,0.4,2.7,0.3,3.8C38.5,21.5,38.5,21.8,38.4,22z"/>
			</g>
		</g>
	</g>
</g>
<g id="Layer_3">
	<g class="st1">
		<path d="M19.5,19l0,0.1l-0.2,0.1l0.1,0v-0.1l0.1-0.1v0.1l0,0l-0.1,0.1l-0.1,0l0.1,0.1l-0.1,0.1v0.1l0,0l0.1,0v0.1l0.1,0l-0.1,0.1
			l-0.1,0l-0.1,0.1l0,0h-0.1l-0.1,0.1l0.1,0L19,20.1l0,0.1L19,20.3h0.1L19,20.4v0.1l0.1,0.1l0,0.1h0l0-0.1h-0.1l-0.2,0.2v-0.1l0-0.1
			v-0.1l0,0.1l-0.1,0l-0.1,0.1l0,0l0.1-0.1l0,0.2l-0.1,0.1l-0.1,0v-0.1l-0.1-0.1l-0.2-0.5l0.1-1.7l0.1-0.5l-0.1,0l-0.2,0l-0.3,0.1
			l-0.4,0.2h-0.1l0,0L17,18.4L16.7,19l-0.1,0.5v0.2l-0.1,0.2L16.5,20l-0.3,0.2l-0.5,0.1l-0.3-0.2L15,20.1L14.8,20l0-0.1l0-0.4
			l0.2-0.4L15,19l0.2-0.4l0.2-0.5l0.1-0.2l0-0.1v-0.1l0.1,0l0.1-0.4l-0.1,0.1l0.1-0.1h0.1l0.1-0.1l0.2-0.4v-0.1l0.1-0.2l0.1-0.1
			v-0.1l1.5-2.5l0.3-0.4l0.6-0.7l0.6-0.6l0.5-0.3H20L20,12l0,0l0.1,0.1l0,0.2L20,12.3l0,0l0.1-0.1l0.1,0l-0.1,0.1v0.2l0,0.1l0.1-0.1
			l0.1,0l-0.1-0.1l0.1,0l0-0.1l0,0l0.1-0.1l-0.1,0h0.1v0.1l0.1,0l0,0.2h0.1l0,0.1h0.1l0,0.1l0,0.2l0,0.2l0.1,0l-0.1,0.1v0.4
			l-0.1,0.1v0.1L20.5,14v0.1l-0.1,0.5l0,0l-0.2,0.7l0,0.1l0,0.2L20,16l0,0.2l-0.1,0.2v0.1l-0.1,0.1v0.7l-0.1,0.2l0.1,0.1l-0.1,0.2
			l0,0.3h-0.1l0,0l0,0l0,0.1v0.1l0-0.1h0l-0.1,0.1l0,0l-0.1,0.1l-0.1,0l0,0.1l0.1,0l-0.1-0.1l0.1,0l0,0v0.1l0,0l-0.1,0.1V19L19.5,19
			L19.5,19l-0.2,0.1h0.1L19.5,19L19.5,19z M17.8,16.5l0.8-0.1l0.1-0.4v-0.1l0-0.1l0.1-0.5l0-0.1v-0.1l0.1-0.2l0-0.2L18.7,15
			l-0.1,0.1L17.8,16.5z M19.1,20.3v0.1V20.3L19.1,20.3z M19.3,20.1L19.3,20.1L19.3,20.1L19.3,20.1z M19.4,18.4L19.4,18.4L19.4,18.4
			L19.4,18.4z M19.5,19.5L19.5,19.5L19.5,19.5L19.5,19.5z M19.5,19.6L19.5,19.6L19.5,19.6L19.5,19.6z M19.5,16.5L19.5,16.5l0.1-0.1
			L19.5,16.5z M19.9,15.6L19.9,15.6L19.9,15.6L19.9,15.6z M19.9,16.2L19.9,16.2L19.9,16.2L19.9,16.2L19.9,16.2z M20.1,12.8
			L20.1,12.8v-0.1V12.8z M20.2,12.4L20.2,12.4L20.2,12.4L20.2,12.4z M20.4,12.6L20.4,12.6L20.4,12.6L20.4,12.6z"/>
		<path d="M21.5,20.5l-0.1,0l-0.2-0.2L21.1,20l0-0.6l0.1-1.1l0.4-2.4h0.1l0-0.1l0-0.1l0.1,0v-0.1l0,0v-0.1l0.1,0v-0.1l-0.1,0l0,0
			l0-0.1l0.6-1.9l0-0.1l-0.1-0.1L22.1,13l0-0.1l0.1,0l0-0.2l0.2-0.1l0.3,0l0.1-0.3v-0.1L23,12h0.3l0.6,0.3h0.8l0.5,0.1l0.6,0.3
			l0.3,0.4l0,0.1l0,0l0.3,0.5v0.1l0.1,0.5l0,0.5l-0.1,0.5L26,16l-0.3,0.5l0-0.1l0.1-0.3l0.1-0.1l0.1-0.3l0.1-0.1l0.1-0.3l0-0.1l0,0
			l-0.5,0.9l-0.1,0.1l0,0.1l-0.1,0.1l-0.2,0.3L25,16.9L25,17l0,0.1l-0.2,0.1l0,0.1l-0.1,0.1v0.1l-0.1,0.1l-0.1,0.1h-0.1L24.3,18
			l-0.1,0.1V18l0,0l-0.1,0.1v0.1h0.1l-0.2,0.3l-0.3,0.2l0,0.1l0.1-0.1l-0.1,0.1h-0.1L23.5,19l-0.1,0.1l0-0.1l-0.1,0.1l0.1-0.2
			l-0.1,0.2l-0.1,0L23,19.3l0,0l-0.1,0.1l0,0l-0.1,0.1l0,0l-0.1,0.1h0l-0.2,0.2l0.1-0.3l-0.1,0v0l-0.1,0.1l-0.1-0.1h0l0,0.2h0v0.1
			h-0.1l-0.1,0.1l-0.1,0.1l0-0.2h-0.1l0,0.1l-0.1,0.2L22,20l0-0.1l0,0.1l0,0.2l-0.1,0.1l0.1,0.2l-0.1,0l-0.1,0.2L21.5,20.5
			L21.5,20.5z M21.8,15.7L21.8,15.7L21.8,15.7L21.8,15.7L21.8,15.7z M22.2,19.4L22.2,19.4L22.2,19.4L22.2,19.4L22.2,19.4z
			 M22.4,19.3L22.4,19.3L22.4,19.3L22.4,19.3z M22.5,19.3L22.5,19.3l0.1-0.1h-0.1L22.5,19.3z M22.8,17.4l0.3-0.4l0.3-1.4l-0.1-0.1
			l-0.1,0l0,0.2l-0.1,0.2V16L23,16.2l-0.2,0.6l-0.1,0.1l0,0.2l-0.1,0.1L22.8,17.4l0-0.1L22.8,17.4z M22.7,19.4L22.7,19.4l0-0.1
			L22.7,19.4z M22.8,19.4l0.1-0.2h0L22.8,19.4z M23.1,18.9l0.1-0.2h-0.1L23,18.8L23.1,18.9L23.1,18.9z M23.8,16.1l1.1-1.7l0.2-0.4
			l0-0.2l-0.7,0l-0.4,0l-0.1,0.3L23.1,17L23.8,16.1z M23.4,18.9L23.4,18.9l0.1-0.1L23.4,18.9L23.4,18.9z M24.1,18.2L24.1,18.2
			l-0.1,0.2L24.1,18.2L24.1,18.2z M25,17.4L25,17.4L25,17.4L25,17.4z M25.4,16.9l-0.3,0.5L25,17.4L25.4,16.9z M25.7,16.5l-0.2,0.4
			v-0.1L25.7,16.5z"/>
		<path d="M26.9,20.5l-0.1,0l-0.2-0.2L26.5,20l0-0.6l0.1-1.1l0.4-2.4H27l0-0.1l0-0.1l0.1,0v-0.1l0,0v-0.1l0.1,0v-0.1l-0.1,0l0,0
			l0-0.1l0.6-1.9l0-0.1l-0.1-0.1L27.4,13l0-0.1l0.1,0l0-0.2l0.2-0.1l0.3,0l0.1-0.3v-0.1l0.2-0.1h0.3l0.6,0.3h0.8l0.5,0.1l0.6,0.3
			l0.3,0.4l0,0.1l0,0l0.3,0.5v0.1l0.1,0.5l0,0.5l-0.1,0.5L31.3,16L31,16.5l0-0.1l0.1-0.3l0.1-0.1l0.1-0.3l0.1-0.1l0.1-0.3l0-0.1l0,0
			L31,16.2l-0.1,0.1l0,0.1l-0.1,0.1l-0.2,0.3l-0.2,0.2L30.3,17l0,0.1l-0.2,0.1l0,0.1L30,17.5v0.1l-0.1,0.1l-0.1,0.1h-0.1L29.6,18
			l-0.1,0.1V18l0,0l-0.1,0.1v0.1h0.1l-0.2,0.3L29,18.7l0,0.1l0.1-0.1L29,18.8h-0.1L28.9,19l-0.1,0.1l0-0.1l-0.1,0.1l0.1-0.2
			l-0.1,0.2l-0.1,0l-0.1,0.1l0,0l-0.1,0.1l0,0l-0.1,0.1l0,0l-0.1,0.1h0L28,19.8l0.1-0.3l-0.1,0v0L28,19.6l-0.1-0.1h0l0,0.2h0v0.1
			h-0.1l-0.1,0.1l-0.1,0.1l0-0.2h-0.1l0,0.1l-0.1,0.2L27.3,20l0-0.1l0,0.1l0,0.2l-0.1,0.1l0.1,0.2l-0.1,0l-0.1,0.2L26.9,20.5
			L26.9,20.5z M27.2,15.7L27.2,15.7L27.2,15.7L27.2,15.7L27.2,15.7z M27.5,19.4L27.5,19.4L27.5,19.4L27.5,19.4L27.5,19.4z
			 M27.8,19.3L27.8,19.3L27.8,19.3L27.8,19.3z M27.9,19.3L27.9,19.3l0.1-0.1h-0.1L27.9,19.3z M28.1,17.4l0.3-0.4l0.3-1.4l-0.1-0.1
			l-0.1,0l0,0.2l-0.1,0.2V16l-0.1,0.2l-0.2,0.6l-0.1,0.1l0,0.2L28,17.2L28.1,17.4l0-0.1L28.1,17.4z M28.1,19.4L28.1,19.4l0-0.1
			L28.1,19.4z M28.2,19.4l0.1-0.2h0L28.2,19.4z M28.4,18.9l0.1-0.2h-0.1l-0.1,0.1L28.4,18.9L28.4,18.9z M29.1,16.1l1.1-1.7l0.2-0.4
			l0-0.2l-0.7,0l-0.4,0l-0.1,0.3L28.5,17L29.1,16.1z M28.7,18.9L28.7,18.9l0.1-0.1L28.7,18.9L28.7,18.9z M29.5,18.2L29.5,18.2
			l-0.1,0.2L29.5,18.2L29.5,18.2z M30.4,17.4L30.4,17.4L30.4,17.4L30.4,17.4z M30.8,16.9l-0.3,0.5l-0.1,0.1L30.8,16.9z M31,16.5
			l-0.2,0.4v-0.1L31,16.5z"/>
		<path d="M36.8,19.7l-0.1-1v-1l0.1-0.6l0.2-1.4l0.4-1.5h-0.5l-0.4-0.1L36.2,14l-0.1-0.1v-0.2l0.1-0.3l0.2-0.3l0.4-0.3l0.2-0.1
			l0.9-0.5h0.1l0.3-0.3l0.7-0.2l0.2,0H40l0.4,0.1l0.7,0.3l0,0h-0.1l-0.2,0.1l-0.3,0.3l-0.4,0.2l-0.1,0.2l-0.2,0.7l-0.3,0.7v0.1
			l-0.3,1v0.1l-0.4,2.6v0.1l-0.1,0.1v0.3l0,0.2v0.2l-0.1,0.2l0,0.1l-0.1,0.2l-0.3,0.1h-0.1v-0.1l-0.2,0.1h-0.2l-0.1-0.1L37.1,20
			l-0.2,0L36.8,19.7z"/>
		<path d="M40.6,20.5l-0.3-0.3l-0.2-0.3L40,19.4v-0.7l0-0.4l0.4-1.9l0.6-1.7l0.5-1l0.4-0.4H42l0.1,0l0.1,0h0.1l0.5,0.1l0-0.1
			l0.2-0.3l0.3-0.1h0.2l0-0.1l0,0.1l0.1-0.1l0.1,0.1h0.1l0-0.1l0.2,0.1v0.2l0.1,0.1h0.1l0,0.1l0.2,0.2v0.1l0.1-0.1l-0.1-0.1l0.1-0.1
			l0.1,0.1l0,0.1l0.1,0.1l-0.1,0.1l0,0l0.1-0.1h0.1v-0.1l0.1,0v0.1l0,0l-0.1,0.1l0,0.1l0-0.1l0,0l0.1-0.1l0,0.1l0.1,0l0,0l0,0.1
			l0-0.1l-0.1,0.1l0,0v0.1l0.1,0.2h-0.1l0.1,0.1l0.1-0.1l0,0.1l0,0.1v0.2l0,0l0-0.1v0.3l0,0.1v0.2h0.1v0.1h-0.1v0.1l0.1-0.1l0,0.1
			l-0.1,0.1v0.2l-0.1,0.1l-0.1,0v0.4l-0.1,0.1l0.1,0.1l-0.1,0.1l0,0.1L45,16.1l0,0.1l-0.1,0.1l-0.1,0.1l-0.1,0.2v0.1l0,0h0v0.2
			L44.6,17l0,0l-0.1,0.2l0,0.2l0,0l0,0.1l0,0l0,0.2l0,0v0l-0.1,0.1L44.1,18l-0.1,0.1l-0.1,0.4l-0.2,0.4l-0.1,0.3l-0.3,0.5l-0.2,0.3
			l-0.3,0.2l-0.2,0.2l-0.4,0.3l-0.8,0.2l-0.6-0.1L40.6,20.5z M42.2,17.8l1-2.2l0.3-1.2v-0.3h-0.1l-0.2,0.4l-0.9,2.7l-0.1,0.5V17.8z
			 M43.4,19.6L43.4,19.6l-0.2,0.2L43.4,19.6L43.4,19.6z M43.6,19.4L43.6,19.4l0.1-0.2L43.6,19.4l-0.1,0.2L43.6,19.4z M45.2,15.1
			L45.2,15.1L45.2,15.1L45.2,15.1z M45.3,14.4v-0.1l0,0L45.3,14.4z M45.4,14.3L45.4,14.3l0,0.1L45.4,14.3L45.4,14.3z M45.5,13.8
			L45.5,13.8L45.5,13.8L45.5,13.8z M45.6,13.6L45.6,13.6l0,0.2L45.6,13.6L45.6,13.6z"/>
		<path d="M50.8,20.6l-0.4-0.2l-0.5-0.6v-0.4l0,0V19l0.1-0.4l1.4-3.8l0.7-1.2l0.5-0.6l0.7-0.8l0.5-0.3l0.1,0l0,0l0.5-0.2l0.2,0.1
			l0.3,0.2l0.2,0.2h0l0.1,0.1h0.1l0.4,0.4l0,0.1h0.1l0,0.1l0.1,0l0,0.1l0.2,0.3l0,0.3l-0.1,0.1l0,0.2l-0.2,0.4l-0.1,0.1L55.3,15
			L55,15.3l-0.2,0.4l-0.6,0.2l-0.6,0l-0.2,0l-0.3,0.7l-0.1-0.2H53l-0.7,1.6l-0.1,0.1l-0.1,0.5l-0.2,0.3l-0.1,0.4h0.1l0.3-0.2l0-0.1
			l0,0h0.1l0.1-0.1l0.7-0.4l0.8-1.3l0.3-0.3l0.3,0l0.1,0.1h0.1v0.1l0.1,0v0.1h0.1l0.2,0.1l0,0l0.1,0h0.1v0.1l0.1-0.1l0.3,0.4
			l0.1,0.2v0.2l-0.1,0.1l-0.1,0.1h0l-0.2,0.2v0.1l-0.1,0l0,0.1L55,19.1l-0.3,0.3l0,0.1l0,0l-0.1,0.1l-0.5,0l-0.3,0.2l0,0l-0.1,0.1
			l-0.1,0l0,0.1v0.1l-0.1,0.1l-0.2,0.1L53,20.3h-0.1l-0.2,0.1l0-0.1h-0.1l-0.1,0.1h-0.1l-0.1-0.1h-0.1v0.1l0,0h-0.1L52,20.6
			l-0.1-0.1l0,0.1h-0.1l0,0l-0.1,0h-0.2l0,0l-0.1,0.1l0-0.1l-0.1,0.1l-0.3,0.1v-0.2H50.8z M51.2,20.5L51.2,20.5L51.2,20.5L51.2,20.5
			z M52.8,17.2l0,0.2L52.8,17.2L52.8,17.2z M53,16.5L53,16.5L52.9,17V17L53,16.5z"/>
		<path d="M60.6,19l0,0.1l-0.2,0.1l0.1,0v-0.1l0.1-0.1v0.1l0,0l-0.1,0.1l-0.1,0l0.1,0.1l-0.1,0.1v0.1l0,0l0.1,0v0.1l0.1,0l-0.1,0.1
			l-0.1,0l-0.1,0.1l0,0h-0.1l-0.1,0.1l0.1,0l-0.1,0.1l0,0.1l-0.1,0.1h0.1l-0.1,0.1v0.1l0.1,0.1l0,0.1h0l0-0.1H60l-0.2,0.2v-0.1
			l0-0.1v-0.1l0,0.1l-0.1,0l-0.1,0.1l0,0l0.1-0.1l0,0.2l-0.1,0.1l-0.1,0v-0.1l-0.1-0.1l-0.2-0.5l0.1-1.7l0.1-0.5l-0.1,0l-0.2,0
			l-0.3,0.1l-0.4,0.2h-0.1l0,0L58,18.4L57.8,19l-0.1,0.5v0.2l-0.1,0.2L57.6,20l-0.3,0.2l-0.5,0.1l-0.3-0.2l-0.3-0.1L55.9,20l0-0.1
			l0-0.4l0.2-0.4l0.1-0.2l0.2-0.4l0.2-0.5l0.1-0.2l0-0.1v-0.1l0.1,0l0.1-0.4l-0.1,0.1l0.1-0.1h0.1l0.1-0.1l0.2-0.4v-0.1l0.1-0.2
			l0.1-0.1v-0.1l1.5-2.5l0.3-0.4l0.6-0.7l0.6-0.6l0.5-0.3H61l0.1,0.1l0,0l0.1,0.1l0,0.2l-0.1,0.1l0,0l0.1-0.1l0.1,0l-0.1,0.1v0.2
			l0,0.1l0.1-0.1l0.1,0l-0.1-0.1l0.1,0l0-0.1l0,0l0.1-0.1l-0.1,0h0.1v0.1l0.1,0l0,0.2h0.1l0,0.1h0.1l0,0.1l0,0.2l0,0.2l0.1,0
			l-0.1,0.1v0.4l-0.1,0.1v0.1L61.5,14v0.1l-0.1,0.5l0,0l-0.2,0.7l0,0.1l0,0.2L61,16l0,0.2l-0.1,0.2v0.1l-0.1,0.1v0.7l-0.1,0.2
			l0.1,0.1l-0.1,0.2l0,0.3h-0.1l0,0l0,0l0,0.1v0.1l0-0.1h0l-0.1,0.1l0,0l-0.1,0.1l-0.1,0l0,0.1l0.1,0l-0.1-0.1l0.1,0l0,0v0.1l0,0
			l-0.1,0.1V19L60.6,19L60.6,19l-0.2,0.1h0.1L60.6,19L60.6,19z M58.9,16.5l0.8-0.1l0.1-0.4v-0.1l0-0.1l0.1-0.5l0-0.1v-0.1l0.1-0.2
			l0-0.2L59.8,15l-0.1,0.1L58.9,16.5z M60.2,20.3v0.1V20.3L60.2,20.3z M60.4,20.1L60.4,20.1L60.4,20.1L60.4,20.1z M60.5,18.4
			L60.5,18.4L60.5,18.4L60.5,18.4z M60.6,19.5L60.6,19.5L60.6,19.5L60.6,19.5z M60.6,19.6L60.6,19.6L60.6,19.6L60.6,19.6z
			 M60.6,16.5L60.6,16.5l0.1-0.1L60.6,16.5z M61,15.6L61,15.6L61,15.6L61,15.6z M61,16.2L61,16.2L61,16.2L61,16.2L61,16.2z
			 M61.2,12.8L61.2,12.8v-0.1V12.8z M61.3,12.4L61.3,12.4L61.3,12.4L61.3,12.4z M61.5,12.6L61.5,12.6L61.5,12.6L61.5,12.6z"/>
		<path d="M63,19.6l0,0.1l-0.1,0.1l0,0l-0.1,0l0,0l-0.1,0L62.6,20l0,0h-0.1l0,0l0,0.1l-0.1,0.1l0,0.1l0-0.1l-0.1,0l-0.1-0.1
			l-0.1,0.1l0,0.1L62,20.9l-0.2-0.4l-0.1-0.1l-0.1-0.4l0-0.5l0.7-3.7l0.5-1.7l0.1-0.6l0.1-0.4l0-0.1l-0.2-0.2l-0.1-0.2l0-0.1
			l0.4-0.3l0.7-0.2l0.8-0.1H66l0.6,0.1l0.1,0h0.1l0.6,0.3l0.4,0.4l0.2,0.5v0.1l0.2,0.4l0,0.2L68.2,14L68,14.2l-0.1,0.3l-0.1,0.1
			l-0.1,0l-0.2,0.2L67,15.2H67l-0.3,0.2L66,15.9h-0.1L65.6,16l-0.1,0.1l0.7,0.4l0.8,0.6l0.8,0.9l0.2,0.4L68,19l0.1,0.1l-0.1,0
			l-0.1,0l0,0.1l0.2,0.4l-0.1,0.1h-0.1l0-0.1l-0.2,0.1l-0.1-0.1l-0.1,0.1l-0.3,0.3v-0.1l-0.1,0v-0.1l0.1,0l0,0l0-0.1l-0.1,0l-0.1,0
			l-0.1,0.1l-0.1-0.1l-0.1,0l-0.1-0.1l-0.5-0.2h-0.1l-0.2-0.1H66l0-0.1h-0.1l0,0l0,0.1l0,0.1h-0.1v-0.1h-0.1l-0.2-0.2l0,0l-0.4-0.3
			l-1.1-1.3l-0.1,0l-0.2,0.7l0-0.1l0.1-0.6l-0.1-0.2l-0.1,0.2l0,0.1l0,0.1l0,0.1l-0.2,0.9l-0.1,0.2h0L63.4,19h-0.1l0,0.2l-0.2,0.7
			L63,19.6L63,19.6l0,0.1L63,19.6L63,19.6z M62.2,20.1L62.2,20.1L62.2,20.1l0.1-0.1h-0.1V20.1z M62.6,19.9L62.6,19.9L62.6,19.9
			l0-0.1L62.6,19.9z M63.1,19.5L63.1,19.5L63.1,19.5L63.1,19.5z M63.2,19.4L63.2,19.4L63.2,19.4L63.2,19.4z M63.3,19L63.3,19
			L63.3,19L63.3,19z M63.3,17.9l0.1-0.1h-0.1L63.3,17.9z M63.4,19l-0.1,0.2L63.4,19L63.4,19z M63.4,18.5L63.4,18.5L63.4,18.5
			L63.4,18.5L63.4,18.5z M63.5,17.9l0-0.1L63.5,17.9L63.5,17.9z M64.7,14.6l1.6-1l0.3-0.3l-0.4-0.1l-1,0.1l-0.1,0.2L64.7,14.6z"/>
		<path d="M69.4,19.7l-0.1-1v-1l0.1-0.6l0.2-1.4l0.4-1.5h-0.5L69,14.1L68.8,14l-0.1-0.1v-0.2l0.1-0.3l0.2-0.3l0.4-0.3l0.2-0.1
			l0.9-0.5h0.1l0.3-0.3l0.7-0.2l0.2,0h0.7l0.4,0.1l0.7,0.3l0,0h-0.1l-0.2,0.1l-0.3,0.3l-0.4,0.2l-0.1,0.2l-0.2,0.7l-0.3,0.7v0.1
			l-0.3,1v0.1l-0.4,2.6v0.1L71,18.5v0.3l0,0.2v0.2l-0.1,0.2l0,0.1l-0.1,0.2l-0.3,0.1h-0.1v-0.1l-0.2,0.1h-0.2l-0.1-0.1L69.7,20
			l-0.2,0L69.4,19.7z"/>
	</g>
</g>
</svg>
