<?xml version="1.0" encoding="utf-8"?>
<!-- Generator: Adobe Illustrator 19.2.1, SVG Export Plug-In . SVG Version: 6.00 Build 0)  -->
<svg version="1.1" id="Layer_1" xmlns="http://www.w3.org/2000/svg" xmlns:xlink="http://www.w3.org/1999/xlink" x="0px" y="0px"
	 viewBox="0 0 100 100" style="enable-background:new 0 0 100 100;" xml:space="preserve">
<style type="text/css">
	.st0{enable-background:new    ;}
</style>
<g>
	<path d="M47.2,71.1c0.5,0.1,3.7,1.4,4.3,1.6c1.2,0.5,4.9,1.2,6,1.6l2.5,1.1c1.5,0.8,1.4,0.6,3.1,1.2c1.1,0.4,3.7,1.3,5.2,1.4
		c2.6,0.2,4.2,1,6.7,1.2c0.6,0,2.5,0,3.3-0.2c1.4-0.3,1.9-0.3,3.4-0.8c0.7-0.3,1.8-0.6,2.7-1c0.4-0.2,3.6-1.9,4-2.4
		c0.5-0.5,1.8-2.8,2-3.3c0.3-0.4-0.4-1.7-0.3-2c0.1-1.2,1.8-0.5,1.9-1.7c0.1-0.6,0.6-4-0.1-5.7c-0.1-0.1,0.5-4.7,0.6-4.9
		c0.5-1.9-0.2-6.1-0.9-6.8C89.2,48,80.5,38.7,79.9,38.2c-0.7-0.4-1.4-2.7-4.1-2.2c-2,0.3-5.9,0.8-4.5-0.7l0,0
		c1.3-1.4,1.9-1.5,2.3-1.5c0.7,0,1.1,0.4,1.8,0.4c3.6,0.5,6.5,1.9,8.8,3.8c2.2,1.8,4,3.9,6.1,5.8c1.2,1.2,2.3,2.5,3.4,3.9
		c0.8,1.1,1.3,2.2,1.9,3.5c0.1,0.4,0.4,0.7,0.5,1.1c0.1,0.4,0.5,0.5,0.2,1.2c-0.7,2,0.2,2.2,0.5,3.1c0,0.4,0.3,0.6,0.6,0.6
		c0.4,0.1-0.1,0.9-0.4,1.6c-0.3,1.1-0.5,2.2-0.4,2.9c0,0.7,0.3,1,0.6,1.3c0.7,0.4,0,2-0.9,3.7c-0.1,0.2-0.4,0.6-0.6,1.1
		c-1.6,3.1-4.7,6.4-8,9.5c-1,1-2.3,1.8-3.3,2.4c-1.7,1-2.4,1-3.4,1.1c-1.5,0.2-3.1,0.3-4.6,0.5c-0.9,0.1-2,0.4-2.8,0.6
		c-0.2,0.1-0.3,0-0.6,0.1c-1.5-0.1-3.1,0-4.5-0.3c-3.8-0.7-8.1-0.8-11.3-2.2c-1.4-0.7-3.6-0.5-5.5-0.7c-0.4-0.1-1.1-0.1-1.4-0.3
		c-2-1.6-5-2.1-7.7-3c-1.6-0.5-3-1.2-4.6-1.8c-0.5-0.2-1.4,0-1.9-0.2c-1.7-0.7-3.4-1.3-5-2.1c-1.9-0.8-4-1.5-5.7-2.5
		c-1.9-0.8-3.7-1.9-5.4-2.8c-1.8-1-3.6-2.1-5.2-3.3c-1.7-1.3-3.3-2.8-5-4.2c-0.6-0.5-1.5-0.8-1.9-1.5c-1-1.3-1.9-2.8-2.7-4.3
		c-0.9-1.5-1.9-2.8-2.5-4.7c-0.8-3.1-1.5-6.4,0.5-12c1.1-2.9,3-6.4,7.2-11.2c2.6-3.1,5.3-5.5,8-7.5c3.3-2.5,5.9-3.9,8.3-4.9
		c4.9-2.2,8.8-3.1,12.8-4.2c7-1.9,13-2.7,18.6-3C62.5,5,65.9,5.6,69.5,6c1.7,0.3,3.2,0.7,4.6,1.1c2.6,0.5,5.2,1,7.4,1.8
		c2.2,0.8,4.1,2,6,3.1c2.5,1.4,5,2.8,7.3,4.4c1.1,0.7,1.9,1.8,2.6,2.8c0.4,0.4-1.8,0.8-2.1,0.8c-2.6-2.2-6.8-2.2-9.6-4.2
		c-1.5-1.1-7.7-3.8-9.6-4.6c-1.5-0.8-7.1-1.1-8.8-1.7c-1.7-0.6-6-0.6-7.8-1c-2.2-0.4-5.9,1.5-8.3,1.2c-0.9-0.2-6,0.9-7.1,0.9
		c-2.5-0.1-4.4,1.5-7,1.6c-2.6,0.2,0.4-1.1-2.5-0.5c-2,0.4-1.7,0.7-3.9,1.3c-1.1,0.3-5.1,2.3-6.1,2.6c-3.3,1.2-4.1,3.7-7.5,5.1
		c-2.2,0.9-1.8,2.6-5.1,5.3c-1.1,0.9-1.4,2.3-1.7,3c-2.1,3.9-4.6,9-4.7,11.2c0.1,3,2.4,7,3.5,9c1.5,3.1,5.5,4.4,7.3,7.2
		c0.4,0.7,4.5,3.4,5,4c0.8,0.7,5.5,3.2,6.3,3.9c0.4,0.3,6.1,2,6.4,2.3C34.7,67.3,46.6,70.8,47.2,71.1z"/>
</g>
<g class="st0">
	<path d="M22.2,25.9l0.1,0.1l-0.1,0.1l0,0.6l2.4-1.5l0.5-0.6l0.2-0.6l0.3-0.1l0.1,0.1l0.1,0l0.1,0.2l0.2-0.1l0.1,0.1l0.1,0l0.4,0.2
		l0.1,0.1l0.1,0l0.2,0.2l0.1,0l0.1,0.3l0.2,0.1L27.5,26l-0.1,0.2l0.1,0.1l-0.3,0.2l-0.1,0l-0.1,0.2l-0.1,0L26.6,27l0-0.2l-0.1,0
		l0,0.1l0.1,0l-0.2,0.2l0-0.1l-0.1,0.1l0-0.1l0,0.2l-0.1,0.2l-0.1,0l-0.1-0.1l-0.1,0.1l0,0.2l-0.1,0.1l0.1,0.2l-0.3,0.1l0-0.2
		l-0.2,0.1l0,0.2l-0.1,0.1L25,28.1l0.1,0l0-0.2l-0.2,0.2l0.1,0.1l0,0l0,0.1l-0.3,0l-0.2,0.3l-0.2,0.1l0,0.1l-0.2,0.1l-0.3,0.1
		L23.6,29l-0.1,0l0,0.1l-0.1,0.1l0,0l-0.1,0l0,0.1l-0.1,0.1l-0.3,0l-0.2,0.1l-0.1-0.1l-0.1,0.1l0-0.1l-0.1,0l-0.1-0.1l-0.1,0.2
		l0-0.1l-0.1,0l-0.1,0.1l0-0.1l-0.2,0.3l0-0.1l-0.1,0l-0.1,0.2l0-0.1l-0.3-0.1l-0.1,0.1l-0.4-0.1l-0.1-0.2l-0.1,0.1l-0.5-0.2
		L19.9,29l-0.5-0.6l-0.2-0.3l-0.1-0.4l-0.1-0.5l0-0.9l0.1-0.7l0.3-0.8l0.9-2.4l2.6-3.7l1.7-1.8l1-0.8l1.7-1l0.4-0.1l0.2-0.1l0.3,0.1
		l0.9,0.7l0,0.1l0.2,0.1l0.9,0.8l0.1,0l0.4,0.5l0.1,0l0.1,0.1l0.1,0l0.3,0.3l0,0.2l0.1,0.2l0.1,0l0.1,0.3l0.1,0.1l0,0.1l0.1,0.1
		l-0.2,0.9l-1.2,2.5l-0.2,0.6l-0.4,0.1l-0.3,0l-0.9-0.2l-1.1-0.4l-0.6-0.4l0.1-0.8L28,19l-0.2-0.4l-0.6,0.4L26.2,20l-1.5,1.6
		L24,22.7l-0.5,0.8l-0.1,0.1l-0.2,0.5l-0.2,0.3l0,0.1l-0.1,0l-0.1,0.3l-0.2,0.3L22.2,25.9z M23.4,28.5l0-0.2l-0.1,0.1L23.4,28.5z"/>
	<path d="M37.2,30.8l0-0.1l-0.3-0.4l0,0.2l-0.4-0.6l-0.2-0.1l-0.1-0.2l-0.1,0l-0.2-0.4l-0.3-0.4l-0.1,0l0-0.1L34.8,28l-0.1,0l0-0.1
		l-0.3-0.5l-0.2-0.4l-0.1-0.1l-0.3-0.5l-0.1,0l-0.1,0.5l0.1,0.1l0,0.4l0.2,0.8l0.2,0.2l0.1,0.2l0.4,0.5l0,0.1l0.1,0.1l-0.1,0.1
		l-0.1-0.1l-0.4-0.7l0-0.1l-0.1-0.1l-0.1,0l0-0.2l-0.1,0l-0.6-0.9l-0.2,0.6L33,28.4l-0.4,0.5l0.1,0l-0.1,0.3l-0.3,0.3l0.1,0l0,0.1
		l-0.1,0l0,0.1L32,30.5l-0.1,0.1l0,0.2l-0.3,0.3l-0.2,0l0,0.1l-0.2,0l-0.1,0l-0.2,0.2l-0.3,0l-0.4,0.2l-0.1,0.1l-0.2,0l0-0.1
		l-0.2,0.2l-0.3,0l0-0.1l-0.1,0.1l-0.1,0l-0.1,0.1l-0.1-0.1L29,31.9l-0.4-0.2l-0.1-0.2l0-0.5l0.5-1.2l0.1-0.3L28.9,29l3.2-7.1l2-3.8
		L34,17.8l-0.2-0.2l0.1-0.3l0.2,0l0.6,0.2l0.9-0.1l0.2,0l0,0.1l0.2-0.1l0.3,0.1l0.1,0l0.1,0l0.2-0.1l1.8,0.4l0.9,0.4l0.9,0.6
		l0.4,0.3l0,0.2l0.1,0l0,0.1l0.1,0l-0.1,0.2l0.1,0.2l-0.1,0l0,0.1l0.1,0.1L40.8,20l0,0.2l0.2,0l0.1,0L41,20.3l0.2,0l0,0.1l0,0l0,0.1
		l0.2,0l0.1,0.1l-0.2,0L41.1,21l0.1,0.2l-0.1,0.3L41,21.5l0.1-0.1l0-0.1L41,21.5l0-0.2l0.1-0.2L41,21.1l0,0.1l-0.2,0.3l0,0.2
		l0.1,0.1l0.1-0.2l-0.1,0.3l-0.2,0.1l0,0l-0.2,0.2l0.2,0l-0.4,0.3l-0.1,0.1l-0.2,0l0,0.1l0,0.1l-0.1,0.1L39.8,23l0.1-0.4l-0.1,0.1
		l0,0l-0.1,0.2L39.5,23l0.1-0.2L39.4,23l0,0.2l0.1,0l0,0.1l-0.2,0l-0.3-0.1l0,0.1l0.1,0l0,0.2l-0.2,0.1l0.1-0.1l0-0.1l-0.2,0.1
		l0,0.1l-0.1,0l-0.1,0.2l-0.1-0.1l-0.2,0.2l-0.1,0l0-0.1l0,0l-0.3,0l-0.1,0.1l-0.1,0l0,0.1l0.1,0l0.1,0.1l-0.1,0.1l0-0.1l-0.2,0
		l0-0.2l0.1-0.1l-0.1,0l-0.1,0.2L37,24.3L37,24.6l-0.2,0.1l-0.1,0.1l-0.1,0L35.8,25l0,0.2l-0.2,0.2l0,0.2l0.1,0.1l0,0.1L35.6,26
		l0.1,0.1l0.1-0.1l0,0.1l0,0.1l0.3,0.3l0.1,0.5l0,0.3l0.2,0l0,0.1l0.1,0l0,0.2l0.1,0.2l0.1,0.2l0.2,0.3l0.1,0.1l0.1,0.2l0.1,0.1
		L37.1,29l0,0.3l0,0l0.1-0.4l0,0.1l0.1,0l0,0.3l0.2,0.1l0,0.1l0.2,0l0.1,0.2l0.2,0.1l0.1,0l0,0.2l0.1-0.1l0.2,0.2l0,0.1l0.1,0
		l0.1,0.3l0,0.2l0.2,0.1l0.1,0l-0.1,0.4l-0.2,0l-0.1,0.4L38.4,32l0.1,0.5l-0.1,0.3L38.2,33l0,0.1l0,0.2l-0.1,0l-0.5-0.4l-0.1-0.1
		l-0.3-0.2l0.1,0l-0.7-0.6l0-0.1l0-0.1l-0.3,0l-0.3-0.3l0.1-0.1l0.2,0.3l0.1,0l0.2,0l0.2,0.1l0.2,0l0-0.2l0.2,0l0,0.2l0.1,0.1l0.1,0
		l0-0.1l0.1-0.1l0-0.1l-0.2-0.2l0.1-0.1l0.1,0.1L37.2,31l-0.3-0.4l0.1-0.1L37.2,30.8z M34.6,27.1l-0.4-0.9l-0.1,0l0.1,0.4l0.1,0.1
		l0,0.2l0.1-0.1l0.1,0.2l0,0.1L34.6,27.1z M34.8,27.6l0-0.1l-0.1-0.2l-0.1,0.1L34.8,27.6z M35.6,25.1L35.6,25.1L35.6,25.1l0.2-0.2
		l0.2-0.2l-0.2,0l-0.2,0l-0.1,0.2L35.6,25.1z M35.6,27.2L35.6,27.2l0.2-0.1l0-0.1l-0.1,0.1L35.6,27.2z M35.7,26.9l0-0.2l0,0
		L35.7,26.9L35.7,26.9z M35.8,30.8l-0.1,0.1l0.1-0.2L35.8,30.8z M38.4,20.5l0.6-0.6l0-0.2l-0.3-0.1l-0.3,0l-0.2,0l-0.2,0l-0.1,0
		l-0.8,0l-0.2,0.1l0,0.1l0.2,0.2l0.1,0.3L37,20.6l-0.3,0.1l-0.2,0.1l-0.6,1L38.4,20.5z M36.1,29.4L36.1,29.4L36.1,29.4L36.1,29.4z
		 M36.3,28.2L36.3,28.2L36.3,28.2l0.1-0.1l0-0.1L36.3,28L36.3,28.2z M36.6,24.7l0.3-0.2l0.1-0.2l-0.3,0.3L36.6,24.7z M36.8,28.6
		l-0.1-0.2l0,0.2L36.8,28.6z M36.9,30.2l-0.1-0.1l0,0.1L36.9,30.2z M36.9,30.6l-0.1,0.2L36.9,30.6L36.9,30.6z M36.9,29.8L36.9,29.8
		l0.2,0l-0.2-0.1L36.9,29.8z M36.9,28.8l0.1,0l0-0.1L36.9,28.8z M37.2,30.1l0-0.1l-0.1,0L37.2,30.1z M37.1,24.3l0.2,0.1l0.1-0.1
		l0,0.1l-0.2,0L37.1,24.3z M37.5,30.1l0.1,0l0,0.1l0.1-0.1L37.5,30.1L37.5,30.1z M38,30.3l0-0.2l-0.1,0.1L38,30.3z M38.1,23.8
		L38,23.9L38.1,23.8L38.1,23.8z M38.4,23.9L38.2,24l0-0.1L38.4,23.9z M38.3,23.7l0.1-0.1L38.3,23.7L38.3,23.7z M38.5,23.4l0.1-0.1
		l0-0.1L38.5,23.4L38.5,23.4z M38.8,23.3L38.8,23.3L38.8,23.3L38.8,23.3z M41,20.3l-0.2,0.2l0.2,0L41,20.3z M41.3,19.9l-0.1,0.2
		l0-0.1L41.3,19.9z"/>
	<path d="M42.4,32.6l0,0.1l-0.2,0.1l0.1,0.1L42,32.8l0.1,0l-0.2-0.1l-0.1,0.2l-0.1,0l0-0.2l-0.2,0l-0.2,0.1l-0.6,0.1l-0.4-0.4
		L40.2,32l0-0.1l-0.1-0.5l0.1-0.1l0-0.3l0.7-2l0.4-0.9l0-0.2l0.8-2l2.2-4.3l0.2-0.3l0-0.2L44.3,21l-0.3-0.4L44,20.3l0-0.1l0.2-0.1
		l0.3,0.1l0.6,0l0.1,0l0.1,0l0.5-0.5l0.3,0.2l0.2,0.2l2.3-0.2l0.2,0l0.2-0.1l0,0l0.4,0.1l0.2,0.2l0.2-0.1l0.4,0.1l0.1,0l0.2,0
		l0.6-0.1l-0.1-0.1l0.5,0l0,0.2l0.1,0l0,0.1l0.3,0.1l0,0.1l0.3,0.1l-0.1,0.1l0.5-0.1l0.1,0.2l0.1-0.1l0-0.1l0.2,0l0.3,0.2l0.2,0.5
		l-0.1,0.4l-0.1,0.1l0,0l0,0.2l-0.1,0l0-0.1L53.2,22l-0.1-0.2l-0.1,0l0,0.2l0.2,0.3l-0.1,0.1l0,0.2l-0.2,0.1l-0.1,0.1l0.2-0.1
		l-0.2,0.2l0.1,0.1l-0.1,0l-0.1,0l-0.4,0l-0.2,0l-0.1-0.1l-0.4,0l-0.4,0l-0.9,0l-0.2,0l-0.7,0.1l-0.2,0l-0.8,0L48.1,23l-0.2,0.1
		l-0.4,0.3l-0.2,0.3l-0.1,0l-0.3,0.4l-0.1,0.3l1.5,0l1,0.1l1.4,0.5l-0.3,0.1l-0.1,0.1l-1.2,0.1l-0.7,0.3l-0.2,0.3l-0.3,0.3l-0.3,0.5
		L47.3,27l-0.6,0.1l-0.4,0l-0.1,0.1l0-0.1l-0.6,0l-0.9,1.8l0.1,0l2.9-0.7l0.7,0.1l0.4,0.2l0.6,0.6l-0.1,0.5l0.1,0l0,0.2l0.1,0.1
		l-0.1,0l-0.2,0.3l0.2-0.2l0.1,0l-0.2,0.1l0,0.1l0,0.1l-0.1,0.1l-0.1-0.1l-0.1,0.2l0.2,0l0,0.1L49,30.6l-0.3,0.2l-0.1,0l0.1-0.2
		l-0.2,0.2l-0.1,0l-0.2,0.1l-0.1,0l-0.1-0.1l-0.2,0.2L47.7,31l-0.4,0l-0.1,0.1l-0.1,0L47,31.3l-0.3,0.1l0,0l-0.1,0.1l-0.1-0.1l0-0.1
		l0-0.1l-0.2,0.3l0.1,0l-0.1,0.1l-0.2,0l-0.1,0.1l0,0.1l-0.2,0.1l-0.2,0l-0.3,0.2L45,32l-0.2,0.1l0-0.1l-0.2,0.1l0.1,0l-0.5,0.2
		l0-0.1l-0.3,0.2l-0.2,0l0.1,0.1l-0.2,0.2l0-0.1l-0.3,0l-0.1,0.1l-0.2,0l-0.5,0.1l0.1-0.1l-0.1-0.1l-0.2,0L42.4,32.6z M42.6,32.8
		l-0.1-0.1l0.1,0L42.6,32.8z M47.6,20.8l0.1,0L47.6,20.8L47.6,20.8z M48.3,21.2l0-0.2L48.3,21.2L48.3,21.2z M49,21.3l0.1-0.1l0.1,0
		l0-0.1L49,21L49,21.1l-0.1,0l-0.1,0L49,21.3z M49.4,29.3L49.4,29.3l0.1-0.1L49.4,29.3z M49.6,29.5l-0.1,0.1L49.6,29.5L49.6,29.5z
		 M49.6,21.6l0.1-0.1l-0.1,0L49.6,21.6z M49.7,20.9L49.7,20.9L49.7,20.9L49.7,20.9z M49.9,21.6l0.1-0.2l0.1,0l0-0.1l-0.1-0.1
		l-0.2,0.1L49.9,21.6z M50.1,20.4l-0.1-0.1l-0.1,0L50.1,20.4z M50.3,21.2l0-0.1L50.3,21.2L50.3,21.2z M50.3,20.2l0.4,0.1L50.3,20.2
		L50.3,20.2z M50.4,21.7l0.2-0.1l-0.1-0.2l0.1-0.1l-0.1-0.1l0,0.1l-0.1,0.1L50.4,21.7z M50.9,21.6l0-0.2l-0.1,0.1l0-0.1l-0.1,0.2
		L50.9,21.6z M51.2,21.8L51.2,21.8l0-0.2l-0.1-0.1l0-0.1l-0.1-0.1L51,21.6l0.1,0l0,0.1l0.1,0L51.2,21.8z M51.1,20.5L51.1,20.5
		l0.2-0.1L51.1,20.5z M51.2,21l0.1,0l0.1,0L51.2,21L51.2,21z M51.4,21.6l0.1-0.2l-0.1,0L51.4,21.6z M51.5,22l0.1-0.2l-0.2,0L51.5,22
		z M51.5,21.1l0.1,0L51.5,21.1L51.5,21.1z M51.5,21.7l0.2,0l0-0.1L51.5,21.7L51.5,21.7z M51.9,20.6l0.1,0l0-0.1L51.9,20.6L51.9,20.6
		z M51.9,21.8L51.9,21.8L51.9,21.8L51.9,21.8z M52.1,22l0.1-0.1l0-0.1L52.1,22L52.1,22z M52.7,22.3l0.1-0.2l-0.2,0L52.7,22.3z
		 M53.3,22.4L53.3,22.4l-0.1,0.2l0,0L53.3,22.4z M53.4,22.8l-0.2,0.1l0.1-0.1L53.4,22.8z M53.5,22.1l0,0.1l-0.2,0l0-0.1L53.5,22.1z
		 M53.7,21.9l0,0.2L53.7,21.9L53.7,21.9z"/>
	<path d="M55.5,35.7l0-3.5l-1.6,0l-0.2,0l-0.2,0l-0.1,0l-0.3-0.1L53,32.3l-0.9,2.1l-0.4,0.4L51.1,35l-0.2,0l-0.9,0l-0.1-0.1
		l-0.4-0.1l-0.2-0.2l-0.3-0.1l-0.3-0.2L48.7,34l1.1-2.7l3.3-5.4l2-2.4l0.9-0.9l0.9-0.7l0.6-0.2l0.2,0l0.4,0.3l0,0.1l0.3,0.1l0.1,0.4
		l0.1-0.1l0.2,0.2l0.4,0.1l0,0.2l0.4,0.4l0.4,0.1l0,0.4l-1.2,7.2L59,30l0.1-0.4l0.1-1.1l0.1-0.3l0-0.1l0.1-0.3l0-0.4l-0.2,0
		l-0.5,2.3l0,0.2l-0.1,0.7l-0.2,0.2l0.2-0.1l-0.1,0.5l0.1,0.2l-0.1,0.1l-0.1,0.4l0.1,0.1l-0.2,0.1l0.1,0.2l0.1-0.1l-0.1,0.4
		l-0.1,0.2l0,0.2l0,0.3l-0.1,0l0,0.1l0.2,0l0,0.2l-0.1,0.3l0.1,1l-0.1,0.8l-0.1,0l0-0.2l-0.1,0l0,0.1l-0.1,0l-0.1,0.2l0-0.2
		l-0.1-0.2l-0.2,0.2l-0.1,0.1l0-0.3l-0.1,0.1L57,35.9l-0.1,0l-0.1,0l-0.2-0.1L56.5,36l0-0.1l-0.1,0.1l-0.1,0l-0.1,0.2l-0.2,0.1
		l0-0.1L55.5,35.7z M55,29.7l0.7,0.1l0.3-1.3l0.2-1.1l-1.5,2.2L55,29.7z M55.2,28.2l0.2-0.1l0.3-0.6l0.3-0.3l0.1-0.6l-0.1,0.2
		L56,26.9l-0.4,0.6l-0.1-0.2l-0.2,0.6L55.2,28L55.2,28.2z M56.1,25.9l0-0.2l-0.1,0L56.1,25.9L56.1,25.9z"/>
	<path d="M61.3,36.4l0-2.1l0.7-2.4l1.9-4.8l-0.1,0.1l-0.1,0.1l-0.6-0.2l-0.3-0.3l-0.2-0.2L62,25.8l-0.2-0.6L61.6,25l-0.4-0.9
		l0.2-0.3l1-0.4l0.1,0l0.3-0.2l0.9-0.2l0,0.1l0.1,0.1l1.2,0l0.1,0l0.2,0l0.1-0.2l-0.3,0L65.1,23l0.1-0.2l0.2,0.1l0.7,0L65.9,23
		l0.2,0l0.2,0l0.2-0.1l0.2,0.1l0.1,0l-0.1,0.1l0.4,0l0.5,0.1l0.8,0l0.2,0.1l0.1-0.1l0.6,0.2l0.9,0.2l0.9,0.3l0.1,0h0.2l-0.1,0
		l0.3,0.1l1.5,0.8l-1.6,0.9l-0.3,0.8l-0.1,0.4l-0.2,0.2l-0.4,0l-1.1,0L69,27l-0.2,0.1L68,28l-0.4,0.7l-0.7,0.8l-1.6,3.9l-0.1,0.3
		l-0.4,1l-0.1,0.5l-0.1,0.1l0,0.1l-0.1,0.4l0.1,0.2l-0.2,0.2l0,0.1l0.1-0.1l-0.1,0.3l-0.2,0l0.1,0.1l-0.3,0.1L64,36.7l-0.1,0
		l-0.1,0.1l0,0.1l-0.2,0l0.1-0.1l0-0.1l-0.1,0L63.3,37l-0.1,0l-0.1,0.1l-0.3,0L62.7,37l-0.1,0l-0.1,0.1L62.4,37l-0.2,0.2l-0.6-0.4
		L61.3,36.4z M61.4,34.6L61.4,34.6l0-0.2L61.4,34.6z M70.6,23.9l0.1,0.1L70.6,23.9L70.6,23.9z"/>
	<path d="M71.6,38.4l0,0.1l-0.2,0.1l0.1,0.1l-0.3-0.1l0.1,0L71,38.4l-0.1,0.2l-0.1,0l0-0.2l-0.2,0l-0.2,0.1l-0.6,0.1l-0.4-0.4
		l-0.2-0.4l0-0.1l-0.1-0.5l0.1-0.1l0-0.3l0.7-2l0.4-0.9l0-0.2l0.8-2l2.2-4.3l0.2-0.3l0-0.2l-0.2-0.1l-0.3-0.4l-0.1-0.3l0-0.1
		l0.2-0.1l0.3,0.1l0.6,0l0.1,0l0.1,0l0.5-0.5l0.3,0.2l0.2,0.2l2.3-0.2l0.2,0l0.2-0.1l0,0l0.4,0.1l0.2,0.2l0.2-0.1l0.4,0.1l0.1,0
		l0.2,0l0.6-0.1l-0.1-0.1l0.5,0l0,0.2l0.1,0l0,0.1l0.3,0.1l0,0.1l0.3,0.1l-0.1,0.1l0.5-0.1l0.1,0.2l0.1-0.1l0-0.1l0.2,0l0.3,0.2
		l0.2,0.5l-0.1,0.4l-0.1,0.1l0,0l0,0.2l-0.1,0l0-0.1l-0.2,0.3l-0.1-0.2l-0.1,0l0,0.2l0.2,0.3l-0.1,0.1l0,0.2L82,28.4l-0.1,0.1
		l0.2-0.1L82,28.6l0.1,0.1l-0.1,0l-0.1,0l-0.4,0l-0.2,0l-0.1-0.1l-0.4,0l-0.4,0l-0.9,0l-0.2,0l-0.7,0.1l-0.2,0l-0.8,0l-0.3,0.2
		l-0.2,0.1l-0.4,0.3l-0.2,0.3l-0.1,0l-0.3,0.4l-0.1,0.3l1.5,0l1,0.1l1.4,0.5l-0.3,0.1L79.7,31l-1.2,0.1l-0.7,0.3l-0.2,0.3L77.3,32
		l-0.3,0.5l-0.5,0.3L75.8,33l-0.4,0l-0.1,0.1l0-0.1l-0.6,0l-0.9,1.8l0.1,0l2.9-0.7l0.7,0.1l0.4,0.2l0.6,0.6l-0.1,0.5l0.1,0l0,0.2
		l0.1,0.1l-0.1,0L78.2,36l0.2-0.2l0.1,0l-0.2,0.1l0,0.1l0,0.1l-0.1,0.1l-0.1-0.1l-0.1,0.2l0.1,0l0,0.1l-0.1-0.1l-0.3,0.2l-0.1,0
		l0.1-0.2l-0.2,0.2l-0.1,0l-0.2,0.1l-0.1,0l-0.1-0.1l-0.2,0.2l-0.1-0.1l-0.4,0L76.4,37l-0.1,0l-0.1,0.1l-0.3,0.1l0,0l-0.1,0.1
		l-0.1-0.1l0-0.1l0-0.1l-0.2,0.3l0.1,0l-0.1,0.1l-0.2,0L75,37.4l0,0.1l-0.2,0.1l-0.2,0l-0.3,0.2l-0.2,0L74,37.9l0-0.1l-0.2,0.1
		l0.1,0l-0.5,0.2l0-0.1l-0.3,0.2l-0.2,0l0.1,0.1l-0.2,0.2l0-0.1l-0.3,0l-0.1,0.1l-0.2,0l-0.5,0.1l0.1-0.1l-0.1-0.1l-0.2,0L71.6,38.4
		z M71.7,38.6l-0.1-0.1l0.1,0L71.7,38.6z M76.8,26.6l0.1,0L76.8,26.6L76.8,26.6z M77.5,27l0-0.2L77.5,27L77.5,27z M78.1,27.1
		l0.1-0.1l0.1,0l0-0.1l-0.2,0l-0.1,0.1l-0.1,0l-0.1,0L78.1,27.1z M78.6,35.1L78.6,35.1l0.1-0.1L78.6,35.1z M78.7,35.3l-0.1,0.1
		L78.7,35.3L78.7,35.3z M78.8,27.4l0.1-0.1l-0.1,0L78.8,27.4z M78.8,26.7L78.8,26.7L78.8,26.7L78.8,26.7z M79.1,27.4l0.1-0.2l0.1,0
		l0-0.1l-0.1-0.1l-0.2,0.1L79.1,27.4z M79.3,26.2l-0.1-0.1l-0.1,0L79.3,26.2z M79.5,27l0-0.1L79.5,27L79.5,27z M79.4,26.1l0.4,0.1
		L79.4,26.1L79.4,26.1z M79.6,27.5l0.2-0.1l-0.1-0.2l0.1-0.1L79.7,27l0,0.1l-0.1,0.1L79.6,27.5z M80.1,27.4l0-0.2L80,27.2l0-0.1
		l-0.1,0.2L80.1,27.4z M80.4,27.6L80.4,27.6l0-0.2l-0.1-0.1l0-0.1l-0.1-0.1l-0.1,0.2l0.1,0l0,0.1l0.1,0L80.4,27.6z M80.3,26.3
		L80.3,26.3l0.2-0.1L80.3,26.3z M80.4,26.8l0.1,0l0.1,0L80.4,26.8L80.4,26.8z M80.5,27.5l0.1-0.2l-0.1,0L80.5,27.5z M80.6,27.8
		l0.1-0.2l-0.2,0L80.6,27.8z M80.6,26.9l0.1,0L80.6,26.9L80.6,26.9z M80.7,27.5l0.2,0l0-0.1L80.7,27.5L80.7,27.5z M81.1,26.4l0.1,0
		l0-0.1L81.1,26.4L81.1,26.4z M81,27.6L81,27.6L81,27.6L81,27.6z M81.3,27.8l0.1-0.1l0-0.1L81.3,27.8L81.3,27.8z M81.9,28.1l0.1-0.2
		l-0.2,0L81.9,28.1z M82.5,28.2L82.5,28.2l-0.1,0.2l0,0L82.5,28.2z M82.6,28.6l-0.2,0.1l0.1-0.1L82.6,28.6z M82.6,27.9l0,0.1l-0.2,0
		l0-0.1L82.6,27.9z M82.9,27.7l0,0.2L82.9,27.7L82.9,27.7z"/>
</g>
<g class="st0">
	<path d="M21.2,52.2l0-3.5l-1.6,0l-0.2,0l-0.2,0l-0.1,0l-0.3-0.1l-0.1,0.2l-0.9,2.1l-0.4,0.4l-0.6,0.1l-0.2,0l-0.9,0l-0.1-0.1
		l-0.4-0.1L15,51.1L14.7,51l-0.3-0.2l-0.1-0.3l1.1-2.7l3.3-5.4l2-2.4l0.9-0.9l0.9-0.7l0.6-0.2l0.2,0l0.4,0.3l0,0.1l0.3,0.1l0.1,0.4
		l0.1-0.1l0.2,0.2l0.4,0.1l0,0.2l0.4,0.4l0.4,0.1l0,0.4l-1.2,7.2l0.1-1.2l0.1-0.4l0.1-1.1l0.1-0.3l0-0.1l0.1-0.3l0-0.4l-0.2,0
		l-0.5,2.3l0,0.2l-0.1,0.7L24,47.3l0.2-0.1L24,47.7l0.1,0.2L24,48.1l-0.1,0.4l0.1,0.1l-0.2,0.1l0.1,0.2l0.1-0.1l-0.1,0.4l-0.1,0.2
		l0,0.2l0,0.3l-0.1,0l0,0.1l0.2,0l0,0.2l-0.1,0.3l0.1,1l-0.1,0.8l-0.1,0l0-0.2l-0.1,0l0,0.2l-0.1,0l-0.1,0.2l0-0.2l-0.1-0.2L23,52.2
		l-0.1,0.1l0-0.3l-0.1,0.1l-0.1,0.2l-0.1,0l-0.1,0l-0.2-0.1l-0.2,0.2l0-0.1L22,52.5l-0.1,0l-0.1,0.2l-0.2,0.1l0-0.1L21.2,52.2z
		 M20.6,46.2l0.7,0.1l0.3-1.3l0.2-1.1l-1.5,2.2L20.6,46.2z M20.9,44.7l0.2-0.1l0.3-0.6l0.3-0.3l0.1-0.6l-0.1,0.2l-0.1,0.1L21.2,44
		l-0.1-0.2L21,44.4l-0.2,0.2L20.9,44.7z M21.8,42.4l0-0.2l-0.1,0L21.8,42.4L21.8,42.4z"/>
	<path d="M28,50.4l0.1,0.1L28,50.7l0,0.6l2.4-1.5l0.5-0.6l0.2-0.6l0.3-0.1l0.1,0.1l0.1,0l0.1,0.2l0.2-0.1l0.1,0.1l0.1,0l0.4,0.2
		l0.1,0.1l0.1,0l0.2,0.2l0.1,0l0.1,0.3l0.2,0.1l-0.1,0.5l-0.1,0.2l0.1,0.1L33,51l-0.1,0l-0.1,0.2l-0.1,0l-0.2,0.4l0-0.2l-0.1,0
		l0,0.1l0.1,0l-0.2,0.2l0-0.1l-0.1,0.1l0-0.1l0,0.2l-0.1,0.2l-0.1,0l-0.1-0.1l-0.1,0.1l0,0.2L31.5,52l0.1,0.2l-0.3,0.1l0-0.2
		l-0.2,0.1l0,0.2l-0.1,0.1l-0.1-0.1l0.1,0l0-0.2l-0.2,0.2l0.1,0.1l0,0l0,0.1l-0.2,0l-0.2,0.3l-0.2,0.1l0,0.1l-0.2,0.1l-0.3,0.1
		l-0.1,0.1l-0.1,0l0,0.1l-0.1,0.1l0,0l-0.1,0l0,0.1L29,53.8l-0.3,0l-0.2,0.1l-0.1-0.1l-0.1,0.1l0-0.1l-0.1,0l-0.1-0.1L28,53.9l0-0.1
		l-0.1,0L27.7,54l0-0.1l-0.2,0.3l0-0.1l-0.1,0l-0.1,0.2l0-0.1L27,53.9L26.9,54l-0.4-0.1l-0.1-0.2l-0.1,0.1l-0.5-0.2l-0.1-0.2
		l-0.5-0.6L25,52.6l-0.1-0.4l-0.1-0.5l0-0.9l0.1-0.7l0.3-0.8l0.9-2.4l2.6-3.7l1.7-1.8l1-0.8l1.7-1l0.4-0.1l0.2-0.1l0.3,0.1l0.9,0.7
		l0,0.1l0.2,0.1l0.9,0.8l0.1,0l0.4,0.5l0.1,0l0.1,0.1l0.1,0l0.3,0.3l0,0.2l0.1,0.2l0.1,0l0.1,0.3l0.1,0.1l0,0.1l0.1,0.1l-0.2,0.9
		L36,46.7l-0.2,0.6l-0.4,0.1l-0.3,0l-0.9-0.2l-1.1-0.4l-0.6-0.4l0.1-0.8l1.1-2.1l-0.2-0.4l-0.6,0.4L32,44.5L30.6,46l-0.8,1.1
		L29.2,48l-0.1,0.1l-0.2,0.5l-0.2,0.3l0,0.1l-0.1,0l-0.1,0.3l-0.2,0.3L28,50.4z M29.2,53l0-0.2L29,52.9L29.2,53z"/>
	<path d="M37.8,52.4l0.1,0.1l-0.1,0.1l0,0.6l2.4-1.5l0.5-0.6l0.2-0.6l0.3-0.1l0.1,0.1l0.1,0l0.1,0.2l0.2-0.1l0.1,0.1l0.1,0l0.4,0.2
		l0.1,0.1l0.1,0l0.2,0.2l0.1,0l0.1,0.3l0.2,0.1l-0.1,0.5L43,52.6l0.1,0.1l-0.3,0.2l-0.1,0l-0.1,0.2l-0.1,0l-0.2,0.4l0-0.2l-0.1,0
		l0,0.1l0.1,0L42,53.6l0-0.1l-0.1,0.1l0-0.1l0,0.2l-0.1,0.2l-0.1,0l-0.1-0.1l-0.1,0.1l0,0.2L41.3,54l0.1,0.2l-0.3,0.1l0-0.2
		l-0.2,0.1l0,0.2l-0.1,0.1l-0.1-0.1l0.1,0l0-0.2l-0.2,0.2l0.1,0.1l0,0l0,0.1l-0.2,0L40.1,55l-0.2,0.1l0,0.1l-0.2,0.1l-0.3,0.1
		l-0.1,0.1l-0.1,0l0,0.1l-0.1,0.1l0,0l-0.1,0l0,0.1l-0.1,0.1l-0.3,0l-0.2,0.1l-0.1-0.1l-0.1,0.1l0-0.1l-0.1,0L38,55.7l-0.1,0.2
		l0-0.1l-0.1,0l-0.1,0.2l0-0.1l-0.2,0.3l0-0.1l-0.1,0l-0.1,0.2l0-0.1l-0.3-0.1L36.7,56l-0.4-0.1l-0.1-0.2l-0.1,0.1l-0.5-0.2
		l-0.1-0.2l-0.5-0.6l-0.2-0.3l-0.1-0.4l-0.1-0.5l0-0.9l0.1-0.7l0.3-0.8l0.9-2.4l2.6-3.7l1.7-1.8l1-0.8l1.7-1l0.4-0.1l0.2-0.1
		l0.3,0.1l0.9,0.7l0,0.1l0.2,0.1l0.9,0.8l0.1,0l0.4,0.5l0.1,0l0.1,0.1l0.1,0l0.3,0.3l0,0.2l0.1,0.2l0.1,0l0.1,0.3l0.1,0.1l0,0.1
		l0.1,0.1l-0.2,0.9l-1.2,2.5l-0.2,0.6l-0.4,0.1l-0.3,0l-0.9-0.2L43,48.8l-0.6-0.4l0.1-0.8l1.1-2.1l-0.2-0.4l-0.6,0.4l-0.9,0.8
		L40.4,48l-0.8,1.1L39.1,50L38.9,50l-0.2,0.5l-0.2,0.3l0,0.1l-0.1,0l-0.1,0.3l-0.2,0.3L37.8,52.4z M39,54.9l0-0.2l-0.1,0.1L39,54.9z
		"/>
	<path d="M46.9,56.5l-0.4-1l-0.1-1l0.2-1.6l0.4-1.4l1.5-3.9l1.2-2l0.9-1.1l1-0.9l0.2-0.1l0.9,0.3l0.5,0.1l0.9,0.5l0,0.2l0.1-0.2
		l0.2,0l0.1,0.1l0.2,0l0,0.1l0.2,0l0.1,0.2l0,0.1l0.2-0.1l0,0.5l0.2-0.2l0-0.1l0.1,0l0.1,0l0.1,0.2l0.1,0l0,0.1l0.1,0l0,0.1l0.1,0
		l-0.1,0.1l0.1,0l0.1,0.2l0.2-0.1l0.1,0.3l-0.1,0.3l0.1,0.2l0.1-0.1l0-0.1l0.1,0l0,0.1l0,0.2l0.2,0l0,0.3l0.2-0.4L57,47l0,0.1
		l-0.3,0.5l0,0.1l-0.1,0.2l0,0.2l0.1-0.1l0.1,0.2l-0.1,0.6l-0.1,0l0,0.2l-0.1,0.2l-0.4,1.4l0.1,0l0.1-0.5l0,0.1l0.1,0.1l-0.1,0.1
		l0,0.2l-0.1,0.1l-0.1,0.3l-0.1,0l0,0.2l-0.1,0.1l0,0.2l-0.2,0.1l-0.1,0.4l-0.2,0.1l-0.1,0.3l0,0.1l0,0.2l-0.1,0.1l0-0.1l0.1-0.4
		l-0.2,0.2l0,0.2l0.1,0.1L54.9,53l-0.1,0.5l-0.1-0.1l0,0.2l-0.2,0.3l0,0.1l-0.1,0.1L53.8,55l-0.2,0.1l0.1,0l0.1,0l-0.1,0.1l-0.1,0
		l0,0l-0.1,0l0,0.2l0,0.1l-0.1,0l0,0.2l-0.1,0.1L53,56.1l0,0.1l-0.2,0.1l-0.1,0.1l-0.1,0.1l-0.1,0.3l-0.2,0L52.1,57l-0.4,0.2
		l0.1-0.1l-0.3,0.2l0-0.2l-0.3,0.3l-0.1,0l0,0.1l-0.1,0l0-0.1l-0.1-0.1l-0.3,0.2l-0.3,0.3l-0.1,0l-0.1,0l0-0.1L49.7,58l-0.2,0
		l-0.3-0.1l-0.1,0.1l-0.9,0.1l-0.5-0.3L46.9,56.5z M50,54.7l1.3-1.8l0.3-0.2l0.2-0.4l0.5-0.7l1-1.9l0.5-1.2l-0.1-0.5l-0.1-0.1l0-0.3
		l-0.2-0.3l-0.2-0.1l-0.1,0.2L53,47.6l-2.1,3.9l-0.5,1.4l0,0.2l-0.1,0.1L50,54.5L50,54.7z M54.2,45l0.4,0l-0.1-0.1l-0.2,0L54.2,45z
		 M54.4,45.4l0.1-0.1l0-0.1l-0.2-0.2l0,0.1L54.4,45.4z M54.3,53.2l0.2-0.3l-0.1-0.1L54.3,53L54.3,53.2z M55.1,46l-0.1-0.5l-0.1-0.2
		l-0.1,0l0.2,0.4l-0.1,0l-0.2-0.2l-0.1,0.4l0.1,0L55.1,46z M55.4,51.8l0.1-0.3l0-0.1l-0.2,0.4L55.4,51.8z M55.3,52l0.2,0l0.1-0.3
		l-0.1,0.1L55.3,52z M55.7,51.5l0.2-0.3l0.2-0.5L56,50.6l0-0.2l-0.2,0.7l-0.2,0.2L55.7,51.5L55.7,51.5L55.7,51.5z M56.5,49.8
		l0.1-0.3l0.1,0l-0.1-0.3l0.2-0.3l-0.2,0.8l-0.2,0.5L56.5,49.8L56.5,49.8z M57,48.2l0-0.1l0.1-0.3L57,47.8l0.1-0.4l0.2,0.1l-0.2,0.1
		l-0.1,0.7L57,48.5l-0.1-0.2L57,48.2z M57.3,46.9l-0.1,0.3l-0.1-0.1L57.3,46.9z"/>
	<path d="M65.2,53.9l0-0.2L65,53.8l0,0.2l-0.2,0.2l-0.2,0.3l-0.2,0.2L64.3,55L64,55.2l-0.1,0.3l-0.1,0.1l-0.1,0.3l-0.3,0.3l0,0.1
		l-0.2,0l0,0.2L63,56.8l0.1-0.3L63,56.6l0,0.2l-0.1,0l0-0.1l-0.1,0.4l-0.2,0.1l-0.1,0.4l-0.1,0.1l0.1,0.1l-0.1,0l0,0.1L62,58.1
		l-0.1,0.1l-0.2,0l-0.1,0.3l-0.1,0.1l0.1-0.3l-0.3,0.5l-0.1-0.1l-0.2,0.1l-0.1,0l-0.2,0.1l-0.2,0L60.5,59l-0.2,0.1l0-0.1l0.2-0.1
		l-0.1-0.1l-0.1,0l0,0.1l-0.1,0.1l-0.2,0.2l-0.2,0.1l-0.2,0l-0.1,0.2l-0.2-0.2l0,0.2L59,59.3l-0.1,0.1l-0.2,0l0.1-0.2l-0.3,0.1
		l0,0.1l-0.4,0.1L58,59.2l-0.2,0l-0.5-0.6l-0.5-0.9l0-0.2l-0.1,0l0-0.4l0-0.1l-0.1-0.1l0-0.3l-0.1-0.9l0.8-3.8l1.8-4.6l0.7-1.2
		l0.5-0.5l0.4-0.3l0.4,0.2l0.6,0.7l0.1,0l0.6,0.4l0.1,0.1l0.2,0.2l0.7,1l-0.3,0.4l-0.1,0l-0.1,0.3l-0.3,0.4l-0.4,0.9l-1.6,4.8
		l-0.1,0.7l2.3-2.3l1.2-1.6l0.9-2l0.1,0l0-0.1l0.1-0.2l0.1-0.5l-0.2-0.2l0.1-0.2l0.5-0.3l0.2-0.3l0-0.1l0.5-0.1l0.6,0.2l0.1,0.2
		l0.1,0l0.5,0.6l0.1,0.3l0.2,0.3l0.1,0.5l0,0.7l-0.2,0.4l0,0.1L67.4,51l-0.2,0.6L66.8,52l-0.2,0.3l-0.2,0.1l0,0.2l-0.3,0.2l-0.3,0.4
		l-0.1,0.2l-0.2,0.1l-0.2,0.3l-0.1,0.1v0.1L65.2,53.9z M58.9,59.3l0.1-0.2L59,59.2L58.9,59.3z M59.9,59l0.2,0l0.1-0.3L59.9,59
		L59.9,59z M62.1,57.8L62.1,57.8l0.1,0l0-0.5L62,57.5l0.1,0.2L62.1,57.8z"/>
	<path d="M79.7,51.1l-0.1,0.4l0.1,0.3l0,0.1l0,0.2l0,0.2l0-0.1L79.6,52l-0.1,0.1l0.1,0.1l-0.1,0.1l0.1,0.3l-0.1,0.3L79.5,53l0-0.8
		l-0.1,0l-0.1,0.3l-0.1,0.2l0,0.2l0.2,0l-0.5,1l0,0.2l-0.2,0.3l0,0.1l0,0.1l-0.1,0.2l0-0.1l-0.2,0.3l0.2,0l-0.2,0.9l-0.2,0.3
		l-0.1,0.3l0,0l-0.1,0l0,0.1l-0.1,0.2l-0.1,0.3l-0.2,0.2l0,0.3l-0.4,1l-0.1,0.3l-0.2,0l0,0.6l-1.2,2.9l-0.3,0.3l-0.2,0.4l0,0.2
		l-0.1,0l-0.1-0.1l-0.3-0.1l-0.2,0.1l-0.1,0l0,0.1l-0.2,0l0-0.1l-0.1,0l0.1-0.1l0-0.2l-0.2,0.1l-0.3,0.1l-0.2,0l0-0.1L73,63.2l0-0.1
		l-0.1,0.1l-0.1-0.1l-0.3,0.1l-0.1-0.1l-0.1,0l-0.3,0.2L72,62.9l0-0.1l-0.1-0.1l0.1-0.9l-0.9-6.5l-0.1,0l-0.3,0.8l0,0.2l-0.2,0.2
		l0,0.1l-0.1,0.1l0,0.2L70.3,57l-0.1,0.7L69.9,58l0,0.2l-0.2,0.4l-0.4,0.3l0,0.2L69,59.2l-0.3,0.3l-0.1,0.2l0-0.1l-0.2,0l-0.5,0.5
		l-0.1,0.1l-0.1,0.2l-0.1-0.1l-0.2,0l-0.2,0.3L66.9,61l-0.7,0.9l-0.2,0l-0.2-1.6l0.3-1.6l1.8-5l0.1-0.2l0.3-0.9l1.4-2.6L70,49
		l0.3-0.5l0.3-0.2l0.1,0.2l0.2,0.1l0,0.1l0.2,0.1l0.5,0.5l0.7,0.4l0.2,0l0,0.1l0.3,0.2l0.3,0.5l0.2,0.2l0.2,0.3l0.3,0.7l0.3,1.2
		l0.2,2.6l0,0.1l0.4-0.8l0.1,0l0.8-1.5l0.3-0.5l0.3-0.6l0.1,0.1l0.2,0l0.1-0.3l-0.2,0l0.3-0.4l-0.2,0.1l0-0.2l1.4-1.8l0,0.3L78,50.2
		l0,0.1l0.8-0.3l-0.2-0.1l0.1-0.1l0.3-0.1l0-0.1l0.3,0.1l0.1-0.1l0.4,0.2L79.5,50l-0.1,0.4l0.1,0l0.2-0.4l0,0.2l-0.2,0.4l0.1,0.2
		l-0.1,0.1l-0.1,0.3l-0.1,0l0,0.1l0,0.3l0.1-0.1L79.7,51.1L79.7,51.1z M69.2,58.6L69.2,58.6l0-0.1L69.2,58.6z M69.4,58.3l0,0.1
		l0.1-0.3L69.4,58.3z M76.7,56.4l0-0.2l-0.1-0.1L76.7,56.4L76.7,56.4z M76.9,56l0.2-0.4l-0.1,0L76.9,56z M77.1,55.4l0,0.2L77.1,55.4
		L77.1,55.4z M77.1,51.3l0.3-0.5l-0.3,0.3L77.1,51.3z M77.2,56.7l0.1-0.4l0.1,0l0.1-0.3l0.1-0.2l-0.1,0l0-0.4l-0.1,0.3l-0.2,0.1
		l0,0.3l-0.1,0.4L77.2,56.7z M77.2,55.1l0.1-0.1l0-0.2L77.2,55.1z M77.6,55.6l0.1-0.1l0-0.2l0.2-0.2l0.1-0.2l0.1,0l0.2-0.2l-0.1-0.1
		l-0.1,0.1l0-0.1l-0.1,0l-0.2,0.2L77.8,55l-0.2,0L77.6,55.6z M77.8,55l0,0.1L77.8,55L77.8,55z M77.8,54.7L77.8,54.7l0.1-0.3l-0.1,0
		L77.8,54.7z M78,55.8l0-0.2l0.1-0.1l-0.1-0.1l-0.1,0.5L78,55.8L78,55.8z M77.9,53.8l0.1-0.2l-0.1,0L77.9,53.8z M78,54.4l0.1,0
		l0.1-0.1l0.1,0l0.2-0.6l-0.1,0l-0.1,0l-0.1,0.5l-0.1,0.1L78,54.4z M79,52.7l-0.1,0.3l-0.2,0.5l0,0.2l-0.2,0.3l0.1,0.2l0.2-0.5
		l0.2-0.3l0.1-0.6L79,52.7l0.1-0.2L79,52.7z M79.2,52.5l0-0.2L79.2,52.5L79.2,52.5z M79.9,52.4l0,0.1l-0.1,0.1l0-0.1L79.9,52.4z"/>
	<path d="M80.9,63.7l0-2.1l0.7-2.4l1.9-4.8l-0.1,0.1l-0.1,0.1l-0.6-0.2l-0.3-0.3l-0.2-0.2l-0.6-0.9l-0.2-0.6l-0.1-0.2l-0.4-0.9
		l0.2-0.3l1-0.4l0.1,0l0.3-0.2l0.9-0.2l0,0.1l0.1,0.1l1.2,0l0.1,0l0.2,0l0.1-0.2l-0.3,0l-0.1-0.1l0.1-0.2l0.2,0.1l0.7,0l-0.2,0.1
		l0.2,0l0.2,0l0.2-0.1l0.2,0.1l0.1,0l-0.1,0.1l0.4,0l0.5,0.1l0.8,0l0.2,0.1l0.1-0.1l0.6,0.2l0.9,0.2l0.9,0.3l0.1,0H91l-0.1,0
		l0.3,0.1l1.5,0.8L91.1,53l-0.3,0.8l-0.1,0.4l-0.2,0.2l-0.4,0l-1.1,0l-0.5-0.1l-0.2,0.1l-0.8,0.9L87.2,56l-0.7,0.8l-1.6,3.9L84.8,61
		l-0.4,1l-0.1,0.5l-0.1,0.1l0,0.1L84.2,63l0.1,0.2l-0.2,0.2l0,0.1l0.1-0.1l-0.1,0.3l-0.2,0l0.1,0.1l-0.3,0.1L83.6,64l-0.1,0L83.3,64
		l0,0.1h-0.2l0.1-0.1l0-0.1l-0.1,0l-0.1,0.3l-0.1,0l-0.1,0.1l-0.3,0l-0.1-0.1l-0.1,0l-0.1,0.1L82,64.3l-0.2,0.2l-0.6-0.4L80.9,63.7z
		 M81,61.9L81,61.9l0-0.2L81,61.9z M90.2,51.1l0.1,0.1L90.2,51.1L90.2,51.1z"/>
</g>
</svg>
