<?xml version="1.0" encoding="utf-8"?>
<!-- Generator: Adobe Illustrator 19.2.1, SVG Export Plug-In . SVG Version: 6.00 Build 0)  -->
<svg version="1.1" id="Layer_1" xmlns="http://www.w3.org/2000/svg" xmlns:xlink="http://www.w3.org/1999/xlink" x="0px" y="0px"
	 viewBox="0 0 100 100" style="enable-background:new 0 0 100 100;" xml:space="preserve">
<style type="text/css">
	.st0{enable-background:new    ;}
</style>
<g>
	<path d="M59.8,78.8c0.5-0.2,3.8-1.2,4.4-1.4c1.2-0.4,4.6-2.1,5.8-2.5c0.1,0,2.6-0.7,2.7-0.7c1.7-0.3,1.4-0.4,3.1-1
		c1.1-0.4,3.7-1.3,4.9-2.1c2.1-1.5,3.9-1.8,6-3.2c0.5-0.4,1.9-1.5,2.4-2.2c0.9-1.1,1.3-1.4,2.2-2.8c0.4-0.7,1.1-1.6,1.5-2.5
		c0.2-0.5,1.7-3.7,1.7-4.4c0.1-0.7-0.3-3.3-0.4-3.8s-1.4-1.1-1.5-1.4c-0.7-1,1.1-1.5,0.5-2.5c-0.3-0.5-2-3.5-3.6-4.4
		c-0.1,0-2.5-4-2.6-4.3c-0.8-1.8-3.9-4.7-4.9-4.8c-3.5-0.3-16.2-2.2-16.9-2.2c-0.8,0.1-2.7-1.2-4.6,0.8c-1.4,1.5-4.1,4.3-4,2.2
		c0,0,0,0,0-0.1c0.1-1.9,0.6-2.3,0.9-2.6c0.5-0.4,1.1-0.4,1.6-0.8c3.2-1.9,6.2-2.5,9.3-2.5c2.8,0,5.6,0.5,8.4,0.8
		c1.7,0.2,3.4,0.6,5.1,1c1.2,0.4,2.4,0.9,3.6,1.5c0.4,0.3,0.7,0.3,1.1,0.6c0.3,0.3,0.7,0.1,0.9,0.8c0.6,2,1.6,1.6,2.4,2.1
		c0.3,0.3,0.6,0.3,0.9,0.1c0.4-0.2,0.4,0.8,0.6,1.5c0.5,1,1,2,1.5,2.5c0.4,0.5,0.8,0.6,1.3,0.6c0.8-0.2,1.2,1.6,1.6,3.5
		c0.1,0.2,0.1,0.7,0.2,1.2c0.7,3.4,0.3,7.9-0.3,12.4c-0.2,1.4-0.7,2.8-1.1,4c-0.7,1.9-1.3,2.3-2,2.9c-1.1,1.1-2.2,2.2-3.3,3.3
		c-0.6,0.7-1.3,1.6-1.9,2.2c-0.1,0.2-0.2,0.2-0.4,0.4c-1.2,0.8-2.5,1.9-3.7,2.5c-3.4,1.8-6.9,4.4-10.2,5.3c-1.5,0.3-3.2,1.9-4.8,2.9
		c-0.4,0.2-0.9,0.6-1.3,0.6c-2.6,0-5.2,1.4-7.9,2.4c-1.6,0.6-3.1,0.9-4.7,1.5c-0.5,0.2-1.1,0.9-1.6,1c-1.8,0.6-3.5,1.1-5.2,1.4
		c-2,0.5-4.1,1.3-6,1.6c-2,0.5-4,0.8-6,1.1c-2,0.3-4.1,0.6-6.1,0.6c-2.2,0-4.3-0.2-6.5-0.1c-0.8-0.1-1.6,0.3-2.4,0
		c-1.6-0.4-3.2-1-4.8-1.6c-1.7-0.6-3.3-1-4.8-2.1c-2.5-1.9-5.1-4.1-7.1-9.8c-1-3-1.6-6.9-1.3-13.3c0.1-4.1,0.8-7.6,1.6-10.9
		c1-4,2.2-6.7,3.5-9c2.5-4.8,5-7.9,7.4-11.3c4.3-5.8,8.5-10.2,12.7-13.9c3.1-2.8,6.2-4.4,9.3-6.3c1.5-0.8,2.9-1.4,4.3-2
		c2.3-1.2,4.7-2.4,6.9-3.2s4.5-1,6.7-1.3c2.8-0.5,5.6-0.9,8.4-1.1c1.3-0.1,2.6,0.2,3.8,0.6c0.6,0.1-1,1.7-1.2,1.9
		c-3.4-0.1-6.7,2.5-10.1,2.6c-1.9,0.1-8.4,1.8-10.4,2.4c-1.6,0.3-6.3,3.5-7.9,4.1c-1.7,0.6-5.1,3.3-6.7,4.1c-2,1-3.7,4.9-5.7,6.1
		c-0.9,0.4-4.1,4.4-5,5.1c-2,1.5-2.6,3.9-4.5,5.6c-1.9,1.7-0.4-1-2.2,1.2c-1.3,1.6-0.9,1.6-2.2,3.4C10.6,44,8.7,48.1,8,49
		c-1.8,2.9-0.9,5.5-2.7,8.7c-1.1,2,0.2,3.1-0.7,7.3c-0.3,1.4,0.3,2.7,0.6,3.4c0.8,4.4,2,9.9,3.3,11.7c1.9,2.3,6.2,4,8.3,4.9
		c3.1,1.5,7,0.1,10.2,1.1c0.7,0.3,5.6-0.1,6.4,0c1,0.1,6.3-0.9,7.4-0.8c0.5,0,6-2.2,6.5-2.2C47.6,83.5,59.1,78.9,59.8,78.8z"/>
</g>
<g class="st0">
	<path d="M10.9,73.3l-0.3-1.3l0-1.8l2.8-16.2v-0.6l0.1-0.2l0.1-0.5l0.3-0.4l0.3-0.2l0.4,0.1l0.8,0l2.8,0.9l0.6,0.4l0.5,0.2l0,0.8
		l-0.7,4.7l-0.2,0.2l-0.2,1.2l-0.6,2.6l2.3-1.1l0.7-0.1l1.7,0.6l0.4,0.4l0.2,0l1,0.7l0.5,0.1L24,64.3l-0.3,0l-0.6,0.3L23,65l-1,0.4
		l-0.3,0.2l-1.1,0.3l-0.8,0.5L19.2,67l-0.6,0.4l-1.6,1.9l-0.6,1.2l-0.3,1l-0.1,0.1L16,71.8l-0.4,0.6l-1.1,0.7l-0.8,0.1l-0.6,0.2
		l-1.7,0L10.9,73.3z"/>
	<path d="M27.3,71.7L26.5,71l-0.6-0.7l-0.5-1.2l-0.3-1.8l-0.1-1l0.2-4.9l0.8-4.4l0.8-2.7l0.8-1.2l0.3,0l0.2-0.1l0.3,0.1l0.2,0
		l1.4,0.1l0.1-0.2l0.5-0.8l0.7-0.4l0.6-0.1l0.1-0.2l0.1,0.1l0.2-0.2l0.2,0.2l0.2,0l0.1-0.2l0.5,0.2l0.1,0.4l0.3,0.1l0.2,0l0.1,0.2
		l0.6,0.4l0,0.2l0.2-0.3L34.3,52l0.1-0.2l0.2,0.1l0.1,0.2l0.2,0.1l-0.2,0.3l0.1,0.1l0.1-0.2l0.2,0l0-0.2l0.2-0.1l0,0.2l0.1,0.1
		l-0.1,0.2l0.1,0.2l0.1-0.2l0.1-0.1l0.1-0.3l0.1,0.3l0.2-0.1l0.1,0.1l0,0.3l-0.1-0.1l-0.1,0.2l0.1,0.1l0,0.2l0.3,0.4l-0.2,0l0.2,0.2
		l0.3-0.2l0.1,0.2l-0.1,0.2l0.1,0.5l0.1,0.1l0-0.3l0.1,0.7l0,0.3l0.1,0.5l0.2,0l0,0.2l-0.3,0l0,0.3l0.2-0.2l0,0.3l-0.1,0.2l0.1,0.5
		L36.7,57l-0.1,0.1l0.2,1l-0.3,0.2l0.2,0.1l-0.1,0.3l0,0.4l-0.2,0.2l0.1,0.1l-0.2,0.2l-0.1,0.3l-0.2,0.4l0,0.3L36,60.6l-0.1,0
		l0.1,0.5l-0.2,0.4l0.1,0.1l-0.3,0.5l0,0.4l-0.1,0.1l-0.1,0.2l-0.1,0.1l-0.1,0.4l-0.1,0.1l0,0.1l-0.1,0.2l-0.1,0.4l-0.2,0.2l-0.2,1
		l-0.4,1l-0.1,0.7l-0.7,1.3l-0.3,0.7l-0.6,0.6l-0.4,0.6l-0.9,0.8l-1.8,0.7L28,71.9L27.3,71.7z M30.4,64.5l1.6-5.8l0.4-3L32.2,55
		l-0.2,0l-0.5,1.1L30.4,63l-0.1,1.3L30.4,64.5z M33.9,68.5l-0.1,0.3l-0.3,0.4l0.2-0.6L33.9,68.5z M34.2,67.9l0-0.2l0.2-0.3l-0.3,0.7
		l-0.3,0.3L34.2,67.9z M36.5,54.9l0-0.3l-0.1-0.1L36.5,54.9z M36.6,56.7l0.1-0.2l-0.1,0.1L36.6,56.7z M36.8,53.4l0,0.2l-0.1,0
		L36.8,53.4z M36.8,54.8l0,0.2l-0.1,0.2l0-0.2L36.8,54.8z M37,52.9l0,0.2l-0.1,0.2L37,52.9L37,52.9z"/>
	<path d="M43,69.4l0,0.2l-1.1,0.1l-0.2-0.1l-0.5,0L41,69.5l-0.1,0l-0.5-0.1L40,69.3l-0.3-0.5l0.1-0.1l0-0.1l-0.1,0.2L39.1,68
		l-0.5-1.1l-0.4-1.6L38,61.5l0.1-1.2l0.7-3.1l1.4-3.6l1.8-2.9l2.7-3.3l1.5-1.2l0.7-0.4l0.1-0.2l0.2,0l0.3-0.2l0.9-0.1l1,0.2l0.5,0.1
		l0.2,0.1l3,0.9l0.7,0.5l0.4,0.7l0.1,0.8l-0.1,0.3l0,0.3L54,50.3l-2.4,6l-1,0.7l-1,0.4l-0.7,0.1l-0.2-0.1l-0.1,0L48,57.4l-0.8-0.3
		L46.8,57l0-0.5l2.5-7.1l-0.1-0.1l-0.4,0.1l-1.5,1.5l-1.9,2.6l-0.1,0.2L45,54l-0.3,0.7l-0.4,0.5l-0.6,1.4l-0.1,0.1l-0.2,0.7l0,0.1
		l-0.2,0.3l-0.2,0.5l-0.2,1.1l-0.2,0.2l-0.2,1.2l-0.2,0.6l0.1,0.1l0,0.3l0,0.2L42,62.5l0,0.7l0.1,0.2l0,0.6L42,64.3l0.1,0.1l0,0.2
		l0.1,0l0.1,1.7l0.1,0l0,0.3l0.1,0l2.2-2.7l-0.6-0.4l-0.1,0.1l0-0.1l-0.1-0.1l-0.3-0.1l-0.2-0.3l0-0.1l-0.1,0.1l-0.4-0.6l-0.1-0.1
		L43,62l-0.1,0.1l0.2-0.3l0.1,0l0.2-0.2l0.4-0.4l0.1,0.1l0.1-0.2l0.3-0.2l0.3,0.2l0.1-0.2l-0.1,0l0-0.1l0.5-0.2l0.1-0.1l-0.1,0.3
		l0.2,0l0.1-0.3l0.3,0l-0.2,0.2l0.2,0l0.1-0.2l0.1,0l0,0.1l0.4-0.2l0.2-0.2l-0.2,0.3l0.1,0l0.2-0.2l-0.1-0.1l0.2-0.1l0.2,0l0.1-0.2
		l0.1,0l0.1,0l0.2,0.1l0.1-0.2l-0.1-0.1l0.4-0.1l0.1-0.1l0,0.1l0.1-0.2l0.3,0l0.1,0l0-0.1l0.3,0l0.2-0.2l0.3,0l0.7-0.2l-0.1,0.2
		l0.1,0l0.1-0.1l0.1,0.1l0.1-0.1l0.1,0.1l0-0.1l0.3,0L50.5,59l0.2,0l0.2,0.1l0.3-0.4l0.1,0l-0.2,0.3l0.1,0l-0.1,0.1l0.1,0l0.1-0.3
		l0.2,0l-0.1,0l0,0.2l0.5-0.4l0.1-0.1l0.3-0.1l0.5,0.1l0,0.2l0.2,0.2l-0.1,0.1l0.6,0.1l0.2,0.2l0.1,0.4l-0.1,0.2l0.1,0.2l0,0.1
		l0,0.2l-0.1,0.2l0.1-0.1l0,0.2l0.1,0.1L54,60.8l0,0.2l0.1,0l-0.1,0.2l0.1,0l0.2,0l0.1,0.1l-0.2,0.1l0.1,0.1l-0.1,0l0,0.2l0.1-0.1
		l0.2,0.2l-0.3,0.3l0,0.2l0.4-0.3l-0.1,0.2l0.2,0.1l-0.3,0l0,0.1l-0.1-0.1l-0.1,0.1l-0.4,0.1l0.1-0.2l-0.1,0l-0.1,0.3l-0.3,0
		l-0.2-0.1l-0.5,0.1L52.3,63l0-0.1l-0.5,0.2l-1.6,0.4l-0.3,0.2l-0.1,0L49.5,64l-0.2-0.1l-0.2,0.3l0,0.3L49,64.5l0-0.1l-0.3,0
		l-0.1,0.1l0.2,0l-0.2,0.3l-0.1-0.3l-0.1,0.3l0-0.1l-0.1,0L48.1,65l-0.2,0.2l0.1,0.3l-0.2,0.1l0,0.3L47.5,66l0-0.1l-0.2,0.5l-0.2,0
		L47,66.7L46.8,67l-0.1,0.5l0-0.1l-0.1,0l0,0.1l-0.3,0l0,0.2l-0.4,0.1l0,0.1l0.1,0l0.2,0.1l-0.3,0L45.7,68l-0.3,0.4l-0.1,0.3
		l-0.2-0.1l-0.3,0l-0.4,0.4l0-0.1l-0.1,0l-0.1-0.1l-0.1,0.2l0-0.2l-0.1,0l-0.1,0.5l0-0.3l-0.2,0.2l-0.1-0.1l-0.2,0.2l-0.1,0.3
		l-0.1,0l0.1-0.1L43,69.4z M40.4,62.8l0.1-0.2l-0.1-0.4l-0.1,0.4L40.4,62.8z M40.5,61l0-0.3l-0.1,0.1l0.1,0.1L40.5,61z M40.5,62
		L40.5,62l-0.1-0.5L40.5,62z M44.8,68.8L44.8,68.8L44.8,68.8L44.8,68.8z M45.7,67.9l0-0.2l-0.1-0.1l0,0.1L45.7,67.9z M46.2,67.4
		l0.1,0L46.2,67.4L46.2,67.4z M47,66.8l-0.3,0.3l0.1-0.2L47,66.8z M47.7,65.9l0.1,0l-0.1-0.1L47.7,65.9z M48,65l0.1-0.3L48,64.8
		l-0.1,0l0,0.1l-0.1,0.1L48,65z M48.5,64.9l-0.3,0.4l0.1-0.4L48.5,64.9z M51.8,62.6l-0.3,0l-0.2,0.1l0,0.1l0.4-0.1L51.8,62.6z
		 M51.9,62.8l0.1-0.1l0.1,0.1l0.1-0.3l-0.1-0.1l-0.1,0.1L52,62.5l-0.1,0.2L51.9,62.8z M52.4,62.3l-0.2-0.2l0,0.3L52.4,62.3z
		 M52.6,62.7l0-0.3l-0.1,0.1L52.6,62.7L52.6,62.7z M52.8,62.7l0.2-0.2l-0.1,0l0.1-0.1l-0.1-0.1l-0.1,0.1l0.1,0.1l-0.1,0l0,0.1
		L52.8,62.7z M53.5,62.5l-0.1-0.2l0.1-0.2l-0.1,0l-0.3,0.4l0.1,0.1l0.1,0L53.5,62.5z"/>
	<path d="M67.7,64.1l-0.2-0.5L68,52.2l0.8-4.4l0.6-2l0.2-0.3l0.8,0.1l1.8,0.5l0.4,0l0.4,0.2l0.2,0l1,0.6l0.2,0.3l0.2,0.2l0,0.3
		L74,49.8l-1,7.5l-0.2-0.5l-0.3,0l0,0.5l-0.2,0.6l0.1,0.4l-0.1,0.4l0.1,0.5L72,60.3l0,0.8l-0.4,0.5l-0.3-0.1l0,0.2l0.1,0.1l-0.1,0.1
		l0,0.1l-0.2,0.2l-0.2,0l-0.1,0.1l-0.2,0.1l0-0.2l-0.2,0l0,0.3L70,63.2l-0.2,0.2l-0.3,0.4L69.2,64l-0.3,0.3l-1.1,0.2L67.7,64.1z
		 M72.9,57.8l0.1-0.5l-0.1,2.4l-0.1-0.1L72.9,57.8z"/>
	<path d="M76.5,63.9l-0.4-1.4l0-11.8l1.1-6.8l0.3-0.5l1-0.2l0.7,0.3l0.3,0l0.9,0.6l0.5,0.7l0.5,1.3l0.2,0.4l0.5,1.6l0.3,1.7l0.1,0.2
		l0.1,0.8l0.3,0.4l0,0.3l0.2,0.5l0.1,0.1l0.1,0.5l0.2,0.3l1-3.8l0.8-2l0.1-0.1l0.2-0.6l0.2,0l0-0.2l0.2-0.4l1-1.3l0.1,0.1l0.1-0.2
		l0.1,0l0.4-0.4l0.1,1l0.1,0l0.3,0.4l0,0.3l0.2,0.1l0,0.2l0.2,0.1l0,0.3l0.1,0.3l0.1,0.4l0.3,0.2l-0.1,0.2l0.2,0.5L89,48l-0.1,0.3
		l0.1,0l-0.2,0.3l0.3,0L88.9,49L88.9,49l-0.4-0.2l0.1,0.2l0.1,0.4l0,0.3l-0.3-0.1l-0.1,0.3l-0.3,0.4l0.4-0.2l-0.1,0.1l0.1,0.2
		l0.1-0.2l0.1,0.4l-0.1-0.1l-0.1,0.2l0.1,0l0,0.1L88.1,51l-0.3,0.4l-0.2,0.1l0.2,0.2l0.4-0.4l-0.2,0.4l0.3,0l0,0.2l-0.4,0.1
		l-0.1-0.2l-0.1,0.4l0.2-0.1l-0.1,0.3l-0.2,0.2l0.1,0l-0.2,0.1l0.1,0.1L87.6,53l0.1,0.4l0.1-0.1l-0.1,0.2l0.1,0.1l0.1,0.4l-0.1-0.3
		l-0.2,0.3l0,0.3l-0.2,0.5l0,0.2l0.3,0l-0.2,0.1l0,0.3l0.2,0l0,0.2l-0.1,0.2l0.1-0.2l-0.3,0l-0.1,0.1l0.1,0.1l0,0.3l0.1-0.2l0,0.3
		l0.1,0.5l-0.1,0.2l0.1,0.9l-0.1,0.1l0.1,0.4l0,1.6l-0.2,0.6l0.1,0.5l0,0.3l0,0.3L87.4,62l0,0.3l-0.1,0L87,62.2l-0.1,0.2l-0.3,0.5
		l-0.2-0.2l-0.2,0l-0.1,0.4l-0.4,0.2l-0.1,0l-0.2,0.1l-1.6,0.2l-0.3-0.2l-3-5.7l-0.2-0.3l0-0.2L80,56.9l0,0.2l-0.2,0.3l0,0.2l-0.2,0
		l0.1,0.5l0,0.5l0.2,0.1l-0.2,0.3l0.1,0.5l-0.1,0l0,0.2l0,0.3l-0.1-0.2l-0.1,0.3l0.1,0.6l-0.1,0.2l0.1,0.3l0,0.4l-0.1-0.1l0,0.2
		l0.2,0.1l-0.1,0.7L79.2,63L79,63.4l-0.3,0l-0.2,0.4l0,0.2l-0.1,0.2l-0.1-0.1l-0.1,0.4l-0.7,0.1l-0.5-0.1L76.5,63.9z M78.7,63.4
		l0-0.2l-0.1,0l0.1,0L78.7,63.4z M79.4,62.4l0-0.2l-0.1,0l0,0.2L79.4,62.4z M79.5,57.4l0.1-0.1l0.2-0.4l0.1-0.4l-0.2,0l-0.1,0.6
		l-0.1,0.1L79.5,57.4z M80,60.6l-0.2,0.8l0-0.7L80,60.6z M83.2,53.6L83.2,53.6l0.1-0.2L83.2,53.6z M86,62.8l0.1-0.1l-0.1-0.1
		L86,62.8z M87.1,56.3l0.2-0.1l0-0.2L87.1,56.3z M87.5,53.7l-0.2,0l0.1,0.4L87.5,53.7z M87.3,57L87.3,57l0-0.3l-0.1,0.1L87.3,57z
		 M87.8,54.4l-0.2,0.2l0.1-0.2L87.8,54.4z M88,49.2l0.1-0.1l-0.1-0.2L88,49.2L88,49.2z M87.9,51L87.9,51l0-0.2L87.9,51z M89,49.4
		L88.9,50l0-0.2L89,49.4z"/>
</g>
</svg>
