<?xml version="1.0" encoding="utf-8"?>
<!-- Generator: Adobe Illustrator 19.2.1, SVG Export Plug-In . SVG Version: 6.00 Build 0)  -->
<svg version="1.1" id="Layer_1" xmlns="http://www.w3.org/2000/svg" xmlns:xlink="http://www.w3.org/1999/xlink" x="0px" y="0px"
	 viewBox="0 0 100 100" style="enable-background:new 0 0 100 100;" xml:space="preserve">
<style type="text/css">
	.st0{enable-background:new    ;}
</style>
<g>
	<path d="M97.5,22.5c0-0.2-0.1-0.6-0.2-1c-0.4-3-2.1-6.6-4.1-10c-0.6-1.1-1.5-2-2.2-2.8c-1.2-1.3-1.9-1.4-2.7-1.6
		c-1.4-0.5-2.7-1-4.1-1.4c-0.8-0.3-1.6-0.8-2.4-1.1c-0.2-0.1-0.3-0.1-0.5-0.2c-1.4-0.2-2.9-0.7-4.2-0.7c-3.7-0.2-7.7-1-11.1-0.5
		c-1.5,0.3-3.5-0.3-5.3-0.6c-0.4,0-1-0.2-1.4,0c-2.4,1-5.3,0.8-8,1c-1.6,0.1-3.2,0.4-4.8,0.5c-0.5,0-1.3-0.3-1.8-0.3
		c-1.8,0.2-3.6,0.4-5.3,0.8c-2,0.3-4.2,0.5-6.1,1c-2,0.3-4,0.8-5.9,1.3c-2,0.5-4,1.1-5.9,1.8c-2,0.8-4,1.7-6,2.5
		c-0.7,0.3-1.6,0.3-2.2,0.9c-1.4,0.9-2.6,2-3.9,3.1s-2.7,2.1-3.9,3.5C3.8,21.1,2.1,23.8,2,29.2c0,2.8,0.6,6.2,2.8,11.3
		c1.3,3.3,3,5.9,4.8,8.2c2.2,2.9,4.1,4.7,5.9,6.1c3.8,3,7,4.6,10.3,6.4c5.7,3.2,11,5.2,16,6.6c2.2,0.7,4.3,1,6.4,1.3
		c0.2-0.1,0.4-0.1,0.5-0.2c0-0.3,0.1-0.6,0.1-1c-0.3-0.5-0.5-1-0.7-1.5c-0.1-0.1-0.2-0.2-0.2-0.3c-1-0.1-1.9-0.4-2.7-0.8
		c-0.5-0.1-0.9-0.1-1.2-0.1c-2.1-0.1-4.9-2.6-7.2-2.9c-0.9,0-5.1-2.1-6.2-2.3c-2.3-0.5-3.5-2.2-5.9-2.9c-2.3-0.7,0,1-2.4-0.1
		c-1.7-0.8-1.3-1-3.1-2c-0.9-0.5-3.9-3.1-4.7-3.6c-2.6-1.7-2.5-4.1-5.1-6.1c-1.7-1.2-0.7-2.6-2.9-5.7c-0.7-1-0.5-2.3-0.5-3
		C5.4,33,4.9,28,5.5,26c1.1-2.6,4.6-5.6,6.2-7.1c2.5-2.4,6.5-2.7,9.1-4.7c0.6-0.5,5.3-2,6-2.4c0.9-0.5,6.1-1.6,7.1-2.1
		c0.4-0.2,6.2-0.4,6.7-0.7c0.6-0.3,12.8-0.9,13.5-1c0.5,0,3.9-0.4,4.5-0.5c1.2-0.1,4.9,0,6.1-0.1c0,0,2.6-0.4,2.7-0.4
		c1.7-0.4,1.4-0.2,3.2-0.4c1.2-0.1,3.9-0.3,5.2-0.1c2.4,0.4,4.2,0,6.6,0.4c0.6,0.2,2.2,0.5,2.9,0.9c1.2,0.6,1.6,0.7,2.9,1.4
		c0.6,0.4,1.5,0.9,2.1,1.5c0.3,0.3,2.7,2.4,2.9,3c0.3,0.6,0.7,2.8,0.7,3.3c0.1,0.4-0.9,1.4-1,1.7c-0.3,1.1,1.5,0.8,1.2,1.9
		c-0.1,0.5-0.8,3.6-2,4.9c-0.1,0-1.1,4.2-1.1,4.4c-0.2,1.7-2.2,5.3-3.1,5.7c-3.2,1.6-14.3,7.8-15,8.1c-0.8,0.2-2.2,2-4.5,1
		c-1.7-0.7-5.1-1.9-4.3-0.3l0,0c0.7,1.5,1.2,1.7,1.6,1.8c0.6,0.1,1.1-0.1,1.8,0c3.5,0.3,6.5-0.3,9.4-1.4c2.6-1.1,5-2.5,7.5-3.8
		c1.5-0.8,3-1.7,4.4-2.7c1-0.8,2-1.7,2.9-2.6c0.3-0.4,0.6-0.5,0.9-0.9c0.2-0.3,0.6-0.3,0.6-1c0-1.9,1-1.9,1.5-2.6
		c0.2-0.3,0.5-0.5,0.8-0.4c0.4,0,0.2-0.8,0.1-1.5c0.1-1,0.3-2,0.6-2.6c0.2-0.6,0.6-0.8,1-1C97.8,25.8,97.7,24.2,97.5,22.5z"/>
</g>
<g class="st0">
	<path d="M34.2,34.2l0.1-0.6l0.2-0.2l0.1,0.1l0-0.4l0.3-0.2l0,0.2l-0.1,0.2l0,0.2l-0.2,0.2l0,0.3l0.1,0.2l0.3-0.2l0,0.4l0.1,0.1
		l-0.4,0l-0.1,0.1l-0.2,0l0.1-0.1l-0.2,0l0,0.5l0.3-0.4l0.3,0l-0.2,0.1l-0.1,0.2l-0.2,0l0.2,0.6l0.3,0.2l-0.2,0.1l-0.2,0l0,0.3
		l-0.2,0.1l0-0.2l-0.2,0L34,36.2l0-0.3l0.4-0.2l-0.1,0.2l0.2-0.1l0-0.4l-0.1-0.2l-0.3,0.4l-0.2,0l-0.1,0.4l0.1,0.2l-0.1,0.8l0.1,0.1
		l0.1-0.2l0-0.5l0.3-0.2l-0.1,0.4l-0.1,0.1l0.1,0.1l-0.4,0.7l0.2,0.1l-0.3,0.2l-0.2,0l0,0.4l0.2,0.1l0,0.7l-0.2,0.4l0.5-0.2
		l-0.1,0.3l0.2,0.1l-0.4,0.4l0,0.2L33.3,40l0,0.2l-0.5,0.5l-0.2,0l0.1-0.2l-0.1-0.2l-0.1,0.3l-0.1-0.1L32.1,41l-0.2,0l-0.3,0.2
		l-0.1,0.2l-0.2,0.3l0,0.2l-0.2,0.2l0-0.2L31,41.7l0-0.3L31,41.3l0-0.3l-0.1-0.1l-0.1-1.8l0-1.1l-0.1-1l0-0.3l-0.1-1.1l0.1-0.4
		l0-0.6l0.1-0.3l0-0.4l0.1-3.2l0-0.6l0.1-0.2l0-0.6l0.3-4.2l0-0.5l-0.4,0.5l-0.2,0l0,0.3l-0.2,0l0,0.6l-0.1-0.1l-0.2-0.5l0-0.3
		L30,25l0.1-0.2l0-0.5l-0.2,0.4l0,0.3l-0.1,0.3l0,0.3l-0.2-0.1l-0.3-0.4l-0.1-0.2l-0.1,0.5l-0.1,0.2l0.2,0.1L29.4,26l0,0.3l0.2-0.1
		l0.3,0.6l-0.2,0.4l-0.2-0.1l0,0.2l-0.1,0.1l-0.1-0.2l0-0.4l-0.2,0l0,0.6l-0.1,0.2L29,27.5l-0.1,0.2l0,0.3L29,28l-0.1,0.1l0.2,0.1
		L29,28.4l0,0.3l-0.2,0.4l-0.1,0.4l0.1,0.1l0,0.2l-0.1,0.2l-0.3-0.8l0.2-0.4l0-0.3l-0.1-0.1l0-0.3l0.1,0.1l0-0.4l-0.1-0.2l-0.2,0.5
		l0,0.6l0.1,0.1l-0.1,0.3l0.1,0.5l0,0.3l0.1,0.1l-0.4,0.2l0.2,0.1l0.2-0.1l-0.1,0.3l0.1,0.1l-0.4,0.7l-0.1,0.1l0.1,1L28,32.5l0,0.4
		l-0.1,1.5l-0.1,0l0,0.5L27.7,35l0,0.5l-0.1,0.2L27.5,36l0,0.3l-0.1,0.2l0,0.5l0.1,0.8l-0.1,0.5l0,0.6l-0.5,0.3l-0.8,0.2l-1.7,0.1
		l-1.2-0.1l-0.7-0.2L22.1,39l-0.2-2.3l-1.2-3.9l-0.2-0.6l-0.1,0.1l-1.5,8.2l-0.2,0.6l-0.8,0.4L16,41.7l-1-0.2l-1-0.1L13.1,41
		L13,40.2L16,25l0.1-0.1l1.3-4.6l1-2.5l0.8-0.9l0.7-0.4l0.2,0.2l0.2,0l1.4,0.5l0.3,0.3l0,0.2l0.2,0l0.4,0.2l0.5,0.1l0.3,0.3l0.3,0.1
		l0.1,0.1l1,0.3l0.2,0.4l0.2,6.6l2.7-4.9l0.4-0.4l0.2-0.4l3-3.4l0.9-0.8l0.2-0.3l0.4-0.2l0.1-0.1l0.4-0.2l0.4,0.3l0.1,0l0.5,0.3
		l0.2,0.1l0.4,0.3l0.4,0.2l0.2,0.3l0.3,0.1l0.1,0.1l0.2,0l0.2,0.4l0.2,0l0,0.5l0.2-0.1l0.2,0.2l0.1,0.2l0.1,0.1L37,19.3l-0.4,1.4
		l-0.1,1.4L36.2,23l0,0.4L36,23.8l0.1,0.2L36,24.7l0.1,0.9l-0.1,0.2l-0.1,0.4l-0.2,0.1l0.1,0.1l-0.4,0.5l0.1-0.6l-0.3,0.2l-0.1,0.3
		l0.1,0.1L35,27.1l-0.2,0l-0.2,0.6l0.3,0.3l0.1-0.1l0-0.1l-0.2,0.1l0-0.3l0.2-0.1l0.2-0.3l0,0.2l0.5-0.4l0,0.3l-0.3,0l-0.3,0.4
		l0,0.2l0.2-0.2l0,0.3l-0.1,0.2l0.2-0.3l0-0.3l0.2-0.1l0,0.4l-0.2,0.1l0,0.2l-0.4,1.2l0-0.3l-0.1-0.1l-0.2,0.2l0,0.3l-0.3,0.6
		l-0.3-0.1l0,0.5l0.3-0.2l0.2-0.5l0.2,0l0.1-0.2L35,30l0.2,0.1l0.2-0.4l0,0.3l-0.2,0.3l0.1,0.2l0.1-0.2l0,0.2l-0.1,0.2l0,0.2
		l-0.1,0.1l0,0.3l0.3-0.7l0.2,0l-0.1,0.2l0,0.1l-0.4,0.5l-0.2,0l0-0.3L34.8,31l0.2-0.1l-0.1-0.2l-0.2,0l0.1-0.6l-0.2,0.2l0.1,1
		l-0.1,0.2l0.1,0.1l-0.2,0.1l-0.1,0.2l0.1,0l0.1-0.2l0.1,0.1l-0.1,0.1l0.1,0.1l-0.4,0.5l-0.2,0.1l0.3,0l0.4-0.3l-0.2,0.4l0,0.2
		l-0.2,0.3l0-0.3l-0.1-0.1l-0.3,0.3l0.2,0l0,0.2l-0.3,0l0.1,0.1l-0.1,0.5l-0.5,0.4l0.4,0L34.2,34.2z M24.7,26.8l0.1-0.1l0.2-0.6
		l-0.2-0.2l-0.2,0.3l0.2,0.6L24.7,26.8z M27.5,32.7l0.1,0.1l0.1-0.3L27.5,32.7z M27.6,32.2L28,32l0-0.3l-0.1,0.2L27.6,32.2z
		 M27.8,31.6l0.1,0.1l0-0.2L27.8,31.6z M28,30.2l0.1-0.3L28,30L28,30.2z M28.1,31l0.2,0l0-0.5l-0.2,0L28.1,31z M28.4,27.8l0-0.5
		l-0.2,0.3L28.4,27.8z M28.8,27.5L28.8,27.5l0.2-0.5l-0.2,0.3L28.8,27.5z M29.3,27.7l-0.2,0.1l0.2-0.2l0.2,0l0,0.2l-0.2,0.1l0.1,0.2
		l-0.2,0l-0.1-0.1L29.3,27.7z M29.6,26.9l0.1-0.1l-0.2-0.1L29.6,26.9z M29.8,23.9l0-0.3l-0.1,0.3L29.8,23.9z M30,26.2l-0.1,0.1
		l0-0.3L30,26.2z M30.7,23l0-0.2l-0.4,0L30.7,23z M30.4,24.6l0.3,0l0-0.4L30.4,24.6z M30.6,23.9l0.1-0.2l0-0.3l-0.2,0.3L30.6,23.9z
		 M31.1,24.4l0.1,0l-0.2-0.3l0.1-0.3l0.1-0.2l-0.3,0l-0.1,0.2l0,0.4L31.1,24.4z M31.1,23.4l0.1-0.1l0-0.2l0.1-0.2l-0.1-0.3l0,0.3
		L31,23l0,0.4L31.1,23.4z M31.4,22.1l-0.1-0.8l-0.1,0.8L31.4,22.1z M33.4,33.6l0.1-0.1l0.3,0l0-0.3l-0.2,0.1l-0.2,0L33.4,33.6z
		 M33.5,35.7l0.2-0.1l-0.3-0.3L33.5,35.7z M33.5,32.4l0.2-0.3l-0.2,0.1L33.5,32.4z M33.5,34.7l0.3-0.1l-0.2,0L33.5,34.7z M33.7,31.6
		l0-0.2l-0.1-0.1l0,0.2L33.7,31.6z M33.7,33.2l0-0.2l-0.1,0.1L33.7,33.2z M33.8,34.4l0.2,0l-0.1-0.2L33.8,34.4z M34.1,40.1l-0.2,0.2
		l-0.2,0l0.3-0.4L34.1,40.1z M34,35.2l0.2,0l0-0.4l-0.1-0.1l0.3-0.5l0-0.3L34.3,34l0,0.3L34,34.5l-0.2,0.4l0.2,0L34,35.2z
		 M33.9,39.2l0.3-0.6l0.4-0.2l0-0.3l0,0.4l-0.2,0.1l0,0.2l0.1,0.1L34.4,39l0,0.2l0-0.5L33.9,39.2z M34.1,28.4l0-0.3l-0.2,0l0,0.5
		L34.1,28.4z M33.9,37.8l0.3-0.3l0.1-0.4l0.1-0.2l-0.2,0.7l0,0.2l-0.1,0.3l0.2,0l0,0.3l-0.2,0.2L34,38.4L33.9,37.8z M34.1,31.8
		l0-0.2L34,31.7L34.1,31.8z M34.3,29.5l-0.1-0.2l-0.1,0.5L34.3,29.5z M34.2,31.4l0.1-0.1l0.1-0.5l0.2-0.1l-0.3-0.1L34.2,31
		L34.2,31.4z M34.5,32l0.1-0.1l-0.3,0L34.5,32z M34.5,36.2l0.4,0.2l-0.4,0.3l-0.1-0.2L34.5,36.2z M34.6,28.8l0.4-0.4l-0.2-0.2
		l-0.2,0.2l-0.1,0.3L34.6,28.8z M34.7,39.4l-0.2,0.1l0.1-0.3L34.7,39.4z M34.7,26.9l0.1,0.1l0-0.3L34.7,26.9z M34.9,35.1l0,0.2
		l-0.1-0.1L34.9,35.1z M35,32.2l-0.1,0.5l-0.1-0.1L35,32.2z M35.1,33l-0.1,0.2L35,33.1L35.1,33z M35.3,34.6L35,35.1l0-0.3L35.3,34.6
		z M35.1,26.3l0.5-0.3l0-0.2l-0.3,0.3l-0.2,0L35.1,26.3z M35.4,33.8l-0.3,0.3l0-0.2L35.4,33.8z M35.2,33.5l0.3-0.1l0,0.3L35.2,33.5
		L35.2,33.5z M35.3,29.3L35.3,29.3l0.1,0.2l-0.2,0.1L35.3,29.3z M35.3,25.6l0.2,0l-0.1-0.5L35.3,25.6z M35.5,31.3l-0.1,0.2l0-0.3
		L35.5,31.3z M35.6,30.3l-0.1,0.2l0-0.3L35.6,30.3z"/>
	<path d="M38.9,38.9l-0.5-1.1L38.2,35l1.6-12.3l1.7-6.9l0.4-0.9l0.8,0.1l0.5,0.3l1.1-0.1l1.9-0.9l1.1-0.2l1.4-0.1l1,0l1.4,0.2
		l1.1,0.3l0.3,0.2l0.4,0.4l-0.2,0.4l-0.3,0l0-0.2l-0.2,0.1l-0.1,0.2l-0.6,0l-0.7,0.4l-0.5,0.5l-3.4,1.1l-1.2,4.1l0.2,0l2.5-0.7
		l0.2-0.1l1-0.2l0.5,0l0.5-0.2l0.3,0.3l0,0.4l-0.3,0.5l-0.2,0.4l-0.6,0.3l-0.4,0.4l-0.4,0.5L48.8,24L48.6,24l-0.2,0.4l-0.2,0.1
		L48,24.9l-1.9,0.7l-1,0.3L44.9,26l-0.8,5.6l1.9-1.7l1.2-0.8l0.9-0.4l0.5-0.1L50,28l0.1,0.1l-0.1,0.3l0,0.4l0.2,0.3l0,0.3l-0.2,0.3
		l-0.1,0.3l-0.1,0.1l0,0.6l0.2,0.2l-0.1,0.2l0,0.3l-0.2,0.4l-0.2,0.1l0,0.3l-0.3,0l-0.1,0.3l0,0.3l-0.2,0l0,0.2l-1,1L47.8,34
		l-0.4,0.5l-0.3,0.3L45,38.3l0,0.1l0.4,0l0.7-0.8l2.5-3.5l1.3-1.3l-1.7,1.9l-2.6,3.9L45,38.9l-0.4,0l-0.3-0.1L44.2,39l-0.6,0.2
		l-0.1,0.2l-0.9,0.2l-2.2,0.2l-0.6-0.1L38.9,38.9z M43,28.3l0.1-0.2L43,28l-0.1,0.2L43,28.3z M43.9,31.7l0.5-4.3l0.1-0.2l0.1-0.9
		L44.5,26l-0.2,0.2l0,0.2l-0.3,1.1l-0.2,0.4l0,0.6l-0.2,0.3l0.1,0.1l-0.1,0.8l-0.1,0.1l0,0.3l-0.2,0.2l0.2,0l-0.1,0.4l-0.2,0.2
		l0.1,0.1l0,0.4l-0.1-0.1l-0.3,0.3l0.2,0.3l0.1-0.3l0,1.1L43.9,31.7z"/>
	<path d="M52.5,39.1l-0.4-1.7l1-13.6l1.8-7.8l0.4-0.5l1.2-0.1l0.7,0.5l0.3,0.1l1,0.8l0.5,0.9l0.4,1.6l0.2,0.5l0.5,1.9l0.3,2l0.1,0.2
		l0.1,1l0.3,0.5l0,0.4l0.1,0.6l0.1,0.1l0,0.6l0.3,0.4l1.5-4.3l1.1-2.3l0.1-0.1l0.3-0.6l0.2,0l0-0.3l0.3-0.4l1.2-1.4l0.1,0.1l0.1-0.2
		l0.1,0l0.5-0.4l0.1,1.1l0.2,0l0.3,0.5l0,0.3l0.2,0.1l0,0.2l0.2,0.1l0,0.4l0.2,0.3l0,0.4l0.3,0.3l-0.1,0.2l0.2,0.6l-0.2-0.1L68,22.1
		l0.1,0.1l-0.3,0.3l0.3,0L68,22.9L68,22.9l-0.4-0.3l0.1,0.2l0,0.5l-0.1,0.3l-0.4-0.1l-0.1,0.3l-0.4,0.4l0.5-0.2l-0.1,0.1l0.1,0.2
		l0.1-0.2l0,0.5l-0.1-0.1L67,24.7l0.1,0l0,0.1l-0.3,0.2l-0.4,0.4l-0.3,0.1l0.2,0.2l0.5-0.5l-0.2,0.5l0.4,0l0,0.2l-0.5,0l-0.1-0.2
		l-0.2,0.5l0.3-0.1l-0.1,0.4l-0.2,0.2l0.1,0.1l-0.2,0.1l0.1,0.1l-0.1,0.2l0,0.4l0.2-0.1L66.2,28l0.1,0.1l0,0.5l-0.1-0.3l-0.3,0.3
		l0,0.4l-0.2,0.6l0,0.2l0.3,0.1L65.7,30l0,0.3l0.3,0l0,0.3l-0.2,0.2l0.1-0.2l-0.3,0l-0.1,0.1l0.1,0.1l0,0.4l0.2-0.2l-0.1,0.4l0,0.6
		l-0.2,0.2l0.1,1.1l-0.1,0.1l0,0.5l-0.1,1.9l-0.2,0.6l0,0.6l-0.1,0.3l0,0.3l-0.1,0.2l0,0.3l-0.2,0l-0.3-0.1l-0.1,0.2l-0.3,0.6
		L64,38.4l-0.3,0l-0.1,0.5l-0.5,0.2l-0.2,0l-0.3,0.1L61,39.4l-0.4-0.3l-3-6.8L57.4,32l0-0.2l-0.2-0.6l-0.1,0.3l-0.3,0.3l0,0.3
		l-0.3,0l0,0.6l-0.1,0.6l0.2,0.1l-0.2,0.3l0,0.6l-0.2,0l0,0.3L56.3,35l-0.1-0.2L56,35.1l0.1,0.7l-0.1,0.3l0.2,0.3L56,36.8l-0.1-0.1
		l0,0.2l0.2,0.1L56,37.8l-0.4,0.4l-0.2,0.5l-0.4,0l-0.3,0.4l0,0.3l-0.1,0.2l-0.1-0.1L54.4,40L53.7,40l-0.6-0.1L52.5,39.1z M55,38.7
		l0-0.2l-0.2,0l0.1,0.1L55,38.7z M56,37.6l0-0.3l-0.1,0l0,0.2L56,37.6z M56.8,35.5l-0.3,0.9l0.1-0.8L56.8,35.5z M56.5,31.8l0.2-0.1
		l0.3-0.4l0.1-0.5l-0.3,0l-0.2,0.7l-0.1,0.1L56.5,31.8z M61.1,27.8l0.1-0.1l0-0.1L61.1,27.8z M63.5,38.6l0.1-0.1l-0.1-0.2L63.5,38.6
		z M65.3,31.2l0.2-0.1l0-0.2L65.3,31.2z M65.5,32l0.1-0.1l0-0.3l-0.1,0.1L65.5,32z M66,28.2l-0.3,0l0,0.5L66,28.2z M66.3,29.1
		l-0.2,0.2l0.1-0.2L66.3,29.1z M66.7,25.1l0.1-0.1l-0.1-0.1L66.7,25.1z M66.9,23L67,23l-0.1-0.2L66.9,23L66.9,23z M68.1,23.4
		L67.9,24l0-0.3L68.1,23.4z"/>
	<path d="M79.4,36.6l0.9-1.1L80,36.1l-1,1l-0.4,0.3l-1,0.1l0-0.2l-0.3,0.2l-0.2-0.2l-0.4,0.2l-0.3,0l-0.2,0.2L74.6,38l-1.2-0.4
		L72,36.8l-1.1-2l-0.2-1.2l-0.2-2.1l0.8-7.7l1.8-7.8l0.7-0.4l0.9-0.1l0.8,0.3l0.6,0.5l0.4,0l1.9,1.3l0.3,0.5l0.1,0.7l-2,9.2l0,0.5
		l3.6-9.2l-0.1-1.8l0.5-1.3l0.2-0.2l0.2-0.5l0.3-0.1l0.4,0.4L81.6,16l0,0.5l0.3-0.1l0.1,0.2l0.2,0l-0.1,0.2l0,0.2l0.4,0l0.2,0.1
		l0,0.2l0.1,0.1l-0.2,0.3l0.4,0.3l0.4,0l0.3,0.5L84,18l0,0.2l-0.2,0.2l0.4,0l0,0.3l0.1,0.3l0,0.3l0.1,0.1l0.1-0.3l0,0.5l0.2-0.1
		l0,0.2l0.1,0.1l0,0.1l0.2,0l0,0.3L85,20.3l-0.1-0.2l0,0.5l0.4,0.2L85.2,21l0,0.3l-0.3,0.2l0.1,0.9L84.8,23l-0.1-0.2l-0.2,1.4
		L84.3,24l-0.2,0.4l0,0.6L84,24.7l-0.2,0.8l0,0.5l-0.2,0.2l0,0.3l-0.3,0.2L83.3,27l0.2,0l-0.2,0.2l0,0.2l-0.7,1.5l0,0.5l-1.5,3.5
		l-0.2,0.3l-0.1,0.5l-0.2,0.3l-0.4,0.8l-0.3,0.5L79.4,36l-0.7,0.6L78.6,37l0.1,0.1L79.4,36.6z M81.2,34l-0.8,1.2l1-1.6L81.2,34z
		 M81.6,33.4l-0.2,0.2l0-0.2L81.6,33.4z M81.9,32.7l-0.2,0.5l0-0.2L81.9,32.7z M82.2,32l-0.1,0.1l0.1-0.2L82.2,32z M83.3,17.3
		l-0.2,0.1l0.1-0.2L83.3,17.3z M84,23.2l0.1-0.3L83.9,23L84,23.2z M84.4,24.4l-0.1,0.6l0-0.3L84.4,24.4z M84.3,23.7l0.3-0.3l-0.3,0
		L84.3,23.7z"/>
</g>
</svg>
