<?xml version="1.0" encoding="utf-8"?>
<!-- Generator: Adobe Illustrator 19.2.1, SVG Export Plug-In . SVG Version: 6.00 Build 0)  -->
<svg version="1.1" id="Layer_1" xmlns="http://www.w3.org/2000/svg" xmlns:xlink="http://www.w3.org/1999/xlink" x="0px" y="0px"
	 viewBox="0 0 100 100" style="enable-background:new 0 0 100 100;" xml:space="preserve">
<style type="text/css">
	.st0{fill:#E3D5A0;}
	.st1{fill:#DFC883;}
	.st2{fill:#E0D09B;}
	.st3{fill:#D5C590;}
	.st4{fill:#C8B680;}
	.st5{fill:#BDAB75;}
	.st6{fill:#E2CD91;}
	.st7{fill:#D6C07C;}
	.st8{fill:#E7D69C;}
	.st9{fill:#ECDCA0;}
	.st10{fill:#E8D59C;}
	.st11{fill:#E1CF95;}
	.st12{fill:#C2AA69;}
	.st13{fill:#F3E7B3;}
	.st14{fill:#F5E9B9;}
	.st15{fill:#C5B277;}
	.st16{fill:#EBDBA3;}
	.st17{fill:#BDB291;}
	.st18{fill:#B9A364;}
	.st19{fill:#F0DC97;}
	.st20{fill:#B59F5E;}
	.st21{fill:#B7A060;}
	.st22{fill:#CEBA81;}
	.st23{fill:#ECD594;}
	.st24{fill:#CCB572;}
	.st25{fill:#C2B17C;}
</style>
<g>
	<path class="st0" d="M80.9,12.7c2-1.2,4.2-1.5,6.3-2.3c0.1,0.1,0.2,0.1,0.3,0.2c-0.1,0.4,0,0.8,0.3,1.1c1.5,1.1,1.1,3.2,2.4,4.4
		c0.1,0.1,0.1,0.6,0,0.8c-0.8,0.9-0.2,1.8-0.2,2.7c-1.3,0.3-1.8-0.1-1.7-1.6c0-0.8,0.7-1.5,0.3-2.3c-0.1-0.3-0.3-0.5-0.4-0.8
		c-0.7-0.7-1.2-1.5-2.3-0.7c-0.1,0.1-0.3,0.1-0.3,0.1C84.2,12.9,82.2,13.9,80.9,12.7z"/>
	<path class="st1" d="M88.9,15.4c0.7,0.7-0.1,1.2-0.2,1.8c-0.2,1-0.2,2.2,1.3,2.4c1.1,1.8,2.7,3.4,3.4,5.5c0,2.2-0.4,4.4-0.8,6.6
		c-0.8,2-0.8,4.1-1.3,6.2c-0.1,0.9,0,2-0.7,2.7c-3.3,1.9-6.9,2.8-10.3,4.3c-0.8,0.4-1.6,0.7-2.4,1c-1.2,0.4-2.6,0.3-3.7,1
		c-0.1-0.1-0.1-0.1-0.2-0.2c-0.3-0.6-0.9-1-1.3-1.5c-0.1-0.1-0.1-0.3,0-0.4c0.3-0.3,0.8-0.4,1.2-0.4c-0.9-0.9-2.1-1.2-3.2-1.6
		c-0.5-0.2-1.2-0.2-1.6-0.8c0.2-0.9,0.1-2,1.3-2.5c0.6-0.2,0.3-0.7,0.2-1.1c-0.8-1.9,0-3.6,0.9-5.2c0.4-0.7,0.6-1.2,0.2-2
		c-1.6-3.2-3.3-6.5-5.1-9.6c-0.3-0.5-0.7-0.7-1.1-0.9c-0.6-0.4-1.3-0.6-1.4-1.5c5.6-2.4,11.2-4.5,16.9-6.4c1-0.1,1.9,0.7,2.9,0
		c0.4-0.3,0.7,0.4,1,0.7c0.3,0.4,0.7,0.7,1.1,0c0.3-0.6,0.7-0.7,1.1,0c0.4,0.6,1.6,0.3,1.7,1.4c-0.3,0.1-0.5,0.3-0.4,0.6
		C88.3,15.6,88.6,15.4,88.9,15.4z"/>
	<path class="st2" d="M97.2,32.1c0.5,1.5,0.3,3.1,0.9,4.6c0.3,0.8-0.6,0.9-1.1,1.2c-2,0.9-4,1.7-6.1,2.5c-0.2-0.8,0.2-1.6,0.1-2.4
		c0.3-2,0.5-4,2.7-4.9c0.5-0.2,0.4-0.7,0.4-1.2c0-0.5,0-0.9,0.5-1.1c0.5-0.2,0.8,0.2,1.2,0.5C96.4,31.5,96.8,31.8,97.2,32.1z"/>
	<path class="st3" d="M97.2,32.1c-0.9,0.7-1.1-0.2-1.5-0.6c-0.2-0.2-0.5-0.6-0.8-0.4c-0.4,0.2-0.3,0.6-0.2,0.9
		c0.4,1.1-0.1,1.4-1.1,1.7c-1.5,0.5-1.5,2-2,3.2c-0.2,0.4,0,0.9-0.3,1.3c-0.3,0-0.5-0.1-0.5-0.4c0.5-2.1,0.3-4.4,1.5-6.4
		c1.1-0.4,0.7-1.5,1-2.3c0.3-0.7-0.2-1.8,0.8-2.3C95.7,28.2,97.1,29.8,97.2,32.1z"/>
	<path class="st4" d="M94.2,26.7c-0.3,1.5-0.5,3-0.8,4.5c-0.1,0.3-0.1,0.7-0.5,0.6c-0.2,0-0.3-0.4-0.5-0.6c0.4-2.1,0.3-4.3,1.1-6.3
		C93.7,25.6,93.9,26.1,94.2,26.7z"/>
	<path class="st5" d="M90.9,37.7c0.2,0.1,0.3,0.3,0.5,0.4c0,0.8,0,1.5-0.4,2.2c-0.2,0-0.3,0.1-0.5,0.1
		C90.7,39.5,90.8,38.6,90.9,37.7z"/>
	<path class="st1" d="M33.6,65.1c-3.2,1.8-6.5,3.5-9.7,5.3c-3.8,2.1-7.8,4.1-11.5,6.5c-0.3,0.2-0.6,0.2-0.9,0.3
		c-1.2-0.4-1.4-1.4-1.5-2.4c-0.1-2.7-1.2-4.9-2.8-7c-0.8-1.1-1.2-2.6-1.9-3.9C4.9,63.3,5.5,63,6.2,63c1.6,0.5,2.8-0.7,4.3-0.9
		c0.5-0.1,0.8-0.7,0.7-1.2c-0.2-0.9,0.2-1.9-0.1-2.8c-0.1-0.4-0.2-0.8,0.3-1c0.4-0.3,0.8-0.1,1.3,0.1c0.5,0.2,0.7,1.1,1.5,0.7
		c-0.2-0.6-0.7-0.3-1-0.5c-0.5-0.2-1.1-0.4-1.1-1.1c0.1-0.7,0.6-1.1,1.3-1c1.1,0.2,1.3-0.5,1.6-1.3c0.2-0.6,0-1.5,1-1.5
		c1,0,1.9,0.2,2.5,1.1c0.2,0.4,0.4,0.9,0.8,1.3c0.2-1.3,0.4-2.5,1.1-3.5c0.4-0.5,0.2-1,0-1.6c-0.2-0.6-0.5-1.4,0.4-1.7
		c0.8-0.3,1.4,0,1.8,0.7c1,1.5,1.2,1.6,2.6,0.4c0.7-0.5,1.3-0.9,1.7,0c0.6,1.3,1.8,1.7,3,2.2c0.1-0.4-0.2-0.5-0.5-0.7
		c-0.2-0.2-0.5-0.2-0.8-0.2c-0.6-0.1-0.9-0.4-0.9-1c0-0.5,0.2-0.9,0.7-1c0.8-0.2,1-0.6,0.5-1.3c-0.2-0.2-0.2-0.5-0.2-0.8
		c-0.3-1.6-0.1-1.7,1.4-1.3c0.2,0,0.3,0.1,0.5,0c0.3-1.9,0.3-1.9,2.3-1.6c-1.1-0.8-1.5-2.3-3.2-2.3c-0.5,0-1-0.1-1.2-0.7
		c-0.2-0.6,0.4-0.7,0.6-1c0.7-0.8,1.3-1.5,2.5-0.5c-2.2-1.5-2.2-1.5-0.8-2.6c-1.5-0.8-1.5-1-0.4-2.6c0.3-0.2,0.6-0.3,0.9-0.5
		c0.1,0,0.2,0,0.3,0c0.5,0.3,3.3,4.3,3.4,4.9c0.1,0.5,0.5,1.2-0.2,1.5c-0.6,0.2-0.9-0.4-1.1-0.8c-0.1-0.2-0.2-0.4-0.3-0.6
		c0.3,2,2.7,2.2,3,3.1c-0.3-0.9-1.3-2.4-1.5-4.2c-0.1-0.6-0.7-1.2,0.3-1.6c0.4-0.1,0-0.3-0.1-0.4c-0.3-0.3-0.6-0.6-0.9-0.9
		c-0.3-0.3-0.6-0.7-0.4-1.2c0.1-0.4,0.5-0.4,0.8-0.4c0.5,0,0.7,0.4,0.9,0.9c0,0.2,0.1,0.4,0.2,0.6c-0.2-0.6-0.3-1.3-0.5-1.9
		c-0.1-0.3-0.1-0.7,0.3-0.9c0.4-0.3,0.7-0.1,1,0.2c0.3,0.2,0.5,0.5,0.6,0.8c0.7,1.3,1.6,2.3,3.1,2.5c0.2,0,0.3,0.1,0.4,0.2
		c0.7,0.6,0.9,1.4,0.9,2.2c0,0.4-0.3,0.6-0.6,0.7c-0.9,0.2-1.3-0.5-1.8-1c-0.3-0.3-0.5-0.7-0.7-1.1c0.2,0.5,0.4,1-0.2,1.3
		c-0.9,0.4-0.6,1,0,1.2c1.6,0.5,2.2,1.9,3,3.2c0.6,0.9,1.1,1.9,2,2.6c-1.2-1.2-1.9-2.7-2.8-4c-0.2-0.3-0.7-0.5-0.4-1
		c0.4-0.5,0.8-0.2,1.2,0c0.5,0.3,1.1,0.4,1.7,0.6c-0.8-2.5-0.8-2.5,1.9-2.6c1,0,2-0.1,2.8-0.8c0.4-0.4,1-0.6,1.5-0.4
		c1.2,0.4,1.9,0,2.5-1c0.3-0.5,0.8-0.9,1.8-0.7c-2.2-1.7-1-3.8-0.9-5.7c0.8-0.2,1.5-0.7,1.4-1.7c0-0.4,0.1-0.9,0.5-1.2
		c0.3,0,0.8,0.2,0.7-0.5c0-0.4,0-0.9,0.5-1.1c0.2,0,0.3,0,0.4,0.2c0.1,0.3,0.1,0.6,0.2,0.9c0-0.3-0.1-0.6,0.1-0.9
		c0.7-0.6-0.1-1.6,0.6-2.2c0.5-0.5,1.1-0.6,1.8-0.7c0.2,0.5,0,1-0.1,1.6c0.3-0.7,0.7-0.9,1.4-0.8c0.6,0.2,0.8,0.6,0.9,1.1
		c0.3,1.3-0.3,2.3-1.2,3.1c-0.9,0.9-1.7,2-2.8,2.8c1.3,0.1,2.1-0.6,2.9-1.4c0.7-0.7,1.1-1.2,1.6,0.1c0.5,1.2,1.6,0.8,2.5,0.8
		c2.5,0.1,5.3,3.2,4.8,5.5c-0.2,0.7-0.4,1.4-1.3,1.4c-0.3,0-0.5-0.1-0.6,0.3c-0.1,0.7-0.3,1.3-1.1,1.2c-1-0.2-2-0.6-2.4-1.5
		c-0.4-0.9-0.5-2.2-1.4-2.5c-0.8-0.2-1.8,0.3-2.8,0.6c0.6,0,1-0.2,1.4-0.3c1.2-0.2,2.2,0.1,2.5,1.3c0.3,1.1,0.2,2.3-1.1,2.7
		c-0.8,0.3-0.6,0.6-0.3,1.1c0.4,0.7,0.8,1.2,1.6,1.4c0.5,0.1,1.1,0.1,1.5,0.6c-0.2,1.1-1,0.9-1.8,0.9c-0.6,0-1.3-0.3-1.3,0.7
		c-1.1,1-2.5,0.6-3.7,1c1.9,0.1,3.8-0.1,5.6-0.6c3-0.8,5.7,0.1,8.5,1c0.6,0.2,0.8,0.7,0.9,1.3l0,0c0.3,0.8,1.2,1.1,1.4,1.9
		c0,0,0,0.1,0,0.1c-3.9,1.4-7.5,3.4-11.5,4.6c-0.9,0-1.7,0.4-2.4,1c-3.7,2.1-7.7,3.6-11.5,5.4c-4.4,2.2-8.9,4.3-13.3,6.4
		c-0.3,0.1-0.6,0.2-0.9,0.3c-0.2,0-0.3,0-0.4-0.1c-0.2-1.8,0-3.7-0.2-5.5c-0.3,0.5-1.2,0.5-1.2,1.4c-0.2,0-0.4,0-0.5-0.1
		C32.7,61.8,33.1,63.5,33.6,65.1z"/>
	<path class="st6" d="M30.4,33.8c-0.1,0.9-1.2,2.2,0.9,2.1c0.2,0,0.5,0.3,0.6,0.5c0.1,0.5-0.4,0.5-0.7,0.5c-0.4,0-0.9,0-1,0.4
		C30,38,30.7,37.9,31,38.2c0.5,0.5,1.3,0.8,1.3,1.7c-0.7,0-0.8-0.7-1.3-0.9c-0.7-0.3-1.2-0.4-1.3,0.5c0,0.2,0,0.3,0,0.5
		c-0.1,0.5-1.2-0.5-1,0.5c0.2,0.8,0.9,0.1,1.4,0.3c0.5,0.2,1.1,0.3,1.4,0.8c0.2,0.5,0.5,0.9,1.2,0.9c0.4,0,0.7,0.4,0.7,0.8
		c-0.1,0.5-0.1,1.1-0.6,1.3c-0.4,0.2-0.7-0.2-0.9-0.6c-0.2-0.3-0.4-0.5-0.8-0.3c-0.1,0.1-0.1,0.4-0.1,0.6c-0.2,0.5,1,0.9,0.1,1.4
		c-0.7,0.4-1.3-0.1-1.8-0.5c-0.1-0.1-0.3-0.1-0.7-0.2c0.6,0.9,0.2,1.9,1,2.7c0.6,0.6,0,1-0.7,1.1c-0.4,0-1.1-0.2-1.1,0.6
		c0,0.8,0.5,0.6,1.1,0.6c1-0.1,1.2,0.9,1.7,1.4c0.1,0.1,0.2,0.5-0.1,0.5c-0.3,0.1-0.7,0.1-1,0c-1-0.8-2.5-0.9-3-2.4
		c-0.2-0.6-0.4-1.1-1.2-0.1c-1.2,1.5-2.4,1.3-3.2-0.4c-0.3-0.7-0.8-0.9-1.5-0.7c-0.8,0.3-0.4,0.9-0.2,1.2c0.5,0.9,0.8,1.5-0.2,2.4
		c-0.6,0.5-1,1.7-0.7,2.7c0.1,0.3,0.3,0.8-0.2,1c-0.4,0.1-0.7-0.3-0.9-0.6c-0.2-0.3-0.3-0.7-0.4-1.1c-0.3-1.2-1.4-1.2-2.3-1.2
		c-1.1,0-0.1,1-0.4,1.2c-0.8,0.4-0.3,2.7-2.2,1.5c-0.3-0.2-1,0.3-1,0.7c0,0.9,0.9,0.7,1.5,0.9c0.4,0.1,1.1-0.5,1.1,0.4
		c0,0.6-0.7,0.9-1.1,1c-0.3,0.1-0.8-0.5-1.1-0.8c-0.4-0.4-0.7-0.8-1.2-0.4c-0.4,0.4,0.2,0.6,0.2,1c0.1,1,0,2,0,3
		c0,1.2-1,1.6-2.3,1.6c-1,0-1.9,1.5-3.1,0.5c-0.1-1-0.8-0.3-1-0.2c-0.9,0.3-1.6,0.2-2-0.8c0-0.2-0.1-0.3-0.1-0.5
		c1.1-1.5,2.5-1.6,4.2-1.3c1,1,1,1,2.4,0c-0.2-0.1-0.5,0-0.8-0.2c-1.1-0.4-2.3-0.3-3.4-0.2c-0.4,0.1-1,0.1-1.1-0.4
		c-0.2-0.6,0.3-0.8,0.7-0.9c1.1-0.3,1-1,0.6-1.8c-0.3-0.7-0.6-1.3-1.2-1.8c-0.6-0.5-1-1.1-1.4-1.8c-0.2-0.3-0.4-0.8-0.1-1.1
		c0.3-0.3,0.7-0.1,1,0.2c0.7,0.6,1.2,0.6,1.8-0.1c1-1.1,1.2-1.1,1.9,0.2c0.1,0.2,0.2,0.5,0.4,0.7c-0.6-1-0.4-2.3-1.4-3.1
		c-0.2-0.2-0.3-0.5-0.1-0.8c0.2-0.3,0.6-0.3,0.9-0.2C8,49.6,8.3,49.8,8.6,50c1.5-1.5,2-4.1,4.7-4.2c-0.3-0.9-1.4-1.8-0.5-3
		c0.7-0.4,1.5-0.8,2.2-1.2c1.2-0.3,2.2,0,2.8,1.1c0.4-1.7,1.8-2.3,3.6-1.6c0.1,0,0.2,0.1,0.3,0.1c2.1-1.4,1.9,0.7,2.4,1.6
		c0.4,0.7,0.5,1.5,1.8,1.6c-1-1.5-0.9-3-1.4-4.4c-0.3-0.8-1.2-1.6-0.4-2.4c0.8-0.8,1.5,0.3,2.4,0.4c-0.1-0.8-1-1.1-0.7-1.9
		C27.3,35,28.7,34.3,30.4,33.8z"/>
	<path class="st7" d="M64.4,40.8c-1.7-0.2-3.1-0.8-3.9-2.5c-0.3-0.7-0.3-1.1,0.6-1.1c1.6,0.1,1.4-1.1,1.4-2c0-1.1-0.7-1.4-1.8-1.4
		c-0.9,0-1.5,0.8-2.4,0.4c-0.2-0.1-0.3-0.3-0.6-0.6c1.5-0.3,2.8-0.4,4-1.1c0.5-0.3,0.8,0.3,0.9,0.8c0.3,1.3,0.8,2.4,2,3.1
		c1,0.6,1.5,0.8,1.5-0.6c0-0.4,0.1-0.8,0.1-1.2c0.5,0,0.6,1,1.2,0.7c0.5-0.3,0.5-0.8,0.6-1.3c0.6-1.7-0.7-2.7-1.7-3.6
		c-1-0.9-2.2-1.6-3.8-1.3c-1.2,0.2-2.1-0.2-2-1.9c-0.7,1.5-2,1.9-3.2,2.5c-0.4,0.2-1.1,0.8-1.4,0c-0.3-0.7,0.2-1.2,0.8-1.5
		c1.4-0.7,2.2-2,3.1-3.1c0.4-0.5,0.5-1.2,0.3-1.9c-0.1-0.4-0.3-0.7-0.8-0.7c-0.5-0.1-0.7,0.2-0.7,0.7c0,0.5-0.1,1-0.7,0.8
		c-0.5-0.2-0.5-0.7-0.3-1.1c0.2-0.5,0.4-0.9,0.6-1.4c1.7-1,3.5-1.7,5.4-2.2c2.5,0.9,3.8,3.2,4.9,5.2c1.2,2.4,2.4,4.8,3.6,7.2
		c0.1,0.2,0.1,0.6,0,0.8c-0.7,1-1.2,2.1-1.6,3.4c-0.3,1-0.4,1.7,0.1,2.5c0.5,0.8,1,1.5-0.6,1.6c-0.5,0-0.7,0.2-0.7,0.7
		c0,0.5-0.1,1-0.6,1.2c-0.2,0.1-0.5,0-0.7-0.1c-0.7-0.4-1.5-0.6-2.3-0.5C65.5,41.2,64.9,41.4,64.4,40.8z"/>
	<path class="st6" d="M52.7,28.6c0.1,2-0.8,4.1,1.1,5.9c-1.4-0.4-2,0.4-2.3,1.3c-0.4,1-0.9,1-1.7,0.7c-1-0.4-1.6-0.2-2.5,0.6
		c-0.9,0.9-2.3,0.5-3.6,0.6c-0.3,0-0.7-0.5-1-0.1c-0.3,0.4,0.1,0.7,0.2,1.1c0.1,0.2,0.3,0.4,0.4,0.7c0.2,0.3,0.5,0.6,0.2,0.9
		c-0.2,0.3-0.6,0.2-0.9,0c-0.7-0.6-1.8-0.4-2.6-1.1c1.3,1,1.3,2.8,2.7,3.7c0.1,0.1,0.2,0.1,0.3,0.2c0.5,0.5,1.3,1.2,0.7,1.8
		c-0.5,0.4-1.2-0.4-1.5-0.9c-0.7-1-1.2-2.2-1.9-3.3c-0.6-0.8-0.8-2-2.4-1.8c-0.7,0.1-0.7-1.2-1.2-2.1c3.3,0.7,0.5-1.2,0.9-1.8
		c1,0.6,1.5,1.5,2.2,2.3c0.3,0.3,0.6,0.5,1,0.3c0.4-0.2,0.1-0.6,0.1-0.9c-0.1-0.9-0.4-1.6-1.6-1.7c-1-0.1-1.8-0.8-2.3-1.7
		c-0.4-0.8-0.9-1.4-1.7-2c-0.3,1.4,0.5,2.4,0.7,3.6c-0.7-0.2-1.1-0.6-1.2-1.3c0-0.3-0.1-0.7-0.5-0.7c-0.2,0-0.5,0.1-0.6,0.2
		c-0.2,0.5,0.2,0.7,0.5,0.9c0.9,0.6,1.4,1.3,1.6,2.4C35.4,37,35.5,35.9,35,36c0,0.1-0.1,0.1-0.1,0.1c0.4,2.5,1.7,4.7,2.3,7.3
		c-1.1-2.1-3.7-2.7-4.4-5c-0.1-0.4-0.7-0.8-0.1-1.1c0.4-0.2,0.8,0.3,0.9,0.8c0.2,0.6,0.6,1,1.1,1.4c-0.1-1.3-0.1-2.6-1.7-3
		c-0.5-0.1-0.5-0.3-0.5-0.7c0-1-0.6-1.7-1.3-2.4c2.6-1.6,5.3-2.9,8.3-3.8c1.5,0.3,0.6,1.8,1.3,2.6c0-0.9-0.9-2.3,0.9-2.2
		c0.9,0,2,0.4,2.4,1.5c0.3,1,1.1,1.5,1.8,2.1c0.2,0.2,0.4,0.5,0.7,0.3c0.1-0.1,0.2-0.3,0.1-0.5c0-0.2-0.2-0.5-0.4-0.4
		c-1.2,0.2-1.5-0.6-1.6-1.5c-0.1-0.6-0.5-1-1.1-1.2c-0.6-0.3-1-0.6-0.5-1.2c0.5-0.5,1-0.7,1.6-0.2c0.2,0.2,0.4,0.4,0.5,0.6
		c1.1,1.2,2.4,1.5,3.9,0.8c0.9-0.1,0.7,1.4,1.7,1.3c1.2-0.6,1.2-0.9,0-1.9c-0.7-0.8-2.2-1.1-1.7-2.7c0.9-0.3,1.2,0.7,1.9,0.8
		c0.4,0.2,0.9,0.4,1.3,0.6C52.6,28.4,52.7,28.5,52.7,28.6z"/>
	<path class="st8" d="M12.8,42.8c-0.5,1.5,1.3,2.4,1.1,3.8c-0.8,0.5-1.2-1.2-1.9-0.2c-1,1.4-2.9,2.3-2.8,4.6
		c-0.8-0.1-1.3-1.2-2.7-1.2c2,1.3,1.7,3.2,2.6,4.9c-1.1-0.5-1.4-1.2-1.7-2c-0.1-0.3-0.1-0.7-0.6-0.7c-0.5,0-0.2,0.4-0.3,0.6
		c-1.1,1.6-2.2,1.1-3.3,0c0.5,1,0.7,2,1.7,2.6c1.2,0.7,1.1,2.1,1.7,3.2c0.2,0.4-0.4,0.6-0.7,0.8c-0.4,0.3-1,0.1-1.5,0.8
		c1.5,0,2.7-0.1,4-0.1c0.4,0,0.9-0.2,0.5,0.5C8.5,61,8,61.2,7.3,60.8c-1.5-0.1-2.9,0.4-4.2,1.1c-0.3-0.8-0.2-1.7-1.1-2.2
		c-0.2-0.1-0.3-0.5-0.3-0.7c0.7-2,0.8-4.1,0.7-6.2c0-0.3,0.1-0.7,0.1-1c-0.5-2.1-0.1-3,1.7-4.2C7,45.8,9.8,44.1,12.8,42.8z"/>
	<path class="st9" d="M49.4,30.3c-1.2,1.2-3.4,0.9-4.7-0.8C44,28.6,44,28.6,43,29.6c1.4,0.3,2.3,0.8,2,2.4c-0.1,0.5,0.4,0.9,0.9,0.5
		c0.6-0.6,0.9-0.4,1.1,0.3c0.2,0.7,0.4,1.2-0.4,1.7c-1,0.6-0.7-0.5-1.1-0.6c-1.6-0.7-1.6-3-3.5-3.5c-0.4-0.1-0.7-0.4-1-0.1
		c-0.4,0.3-0.1,0.7,0,1c0.1,0.2,0.1,0.4,0.1,0.6c0.1,0.3,0.6,0.7,0,0.9c-0.5,0.2-0.9-0.1-1-0.6c-0.1-0.4-0.4-0.8-0.2-1.3
		c0.2-0.6-0.1-1.1-0.5-1.5c3.2-1.8,6.6-3.2,10.1-4.1c0.4,0,0.5,0.2,0.5,0.6c-0.2,0.4-0.6,0.6-0.8,1c-0.2,1.4,1.4,1.6,1.8,2.6
		c0.8,1.4,0.8,1.7-0.3,2.1C50,31.6,50,30.5,49.4,30.3z"/>
	<path class="st10" d="M25.9,36c0.2,0.3,0.4,0.7,0.7,0.9c0.4,0.4,1,0.9,0.6,1.4c-0.4,0.4-1.2,0.1-1.6-0.2c-0.3-0.3-0.6-0.8-1.1-0.4
		c-0.5,0.4-0.2,0.8,0.1,1.1c1.3,1.5,0.6,3.6,1.8,5.2c0.2,0.3,0.2,0.7-0.1,0.9c-0.3,0.3-0.6,0.1-0.9-0.1c-0.7-0.4-1.4-0.7-1.4-1.7
		c-0.1-0.9-0.7-1.6-1.2-2.3c-1.1,1.5-1.1,1.5-2.2-0.4c-0.3,0.7-0.1,1.9-1.4,1c-0.5-0.4-0.9,0.9-0.5,2.2c-1.1-0.9-2.1-2-3.6-2.1
		C18.5,39.4,22.1,37.6,25.9,36z"/>
	<path class="st8" d="M3.2,62.3C4,63.3,5,62.8,5.9,62.4c0.4-0.1,0.8-0.5,1,0c0.3,0.6-0.4,0.7-0.7,0.9c-0.5-0.1-1,0-0.6,0.7
		c0.7,1.1,2.1,2,1.6,3.6c1.2,0.5,1.4,1.6,1.9,2.6c0.7,1.4,1.5,2.6,1.3,4.3c-0.2,1.1,0.5,2,1.1,2.8c-1,0.2-1.6-0.1-1.8-1.2
		c-0.4-1.9-1.6-3.6-1.9-5.6c-0.1-1-1.2-1.6-1.9-2.2C4.3,66.6,3.7,64.5,3.2,62.3z"/>
	<path class="st11" d="M52.4,28.4c-0.7,0.4-1,0-1.3-0.5c-0.5,0-0.7-0.2-0.8-0.7c0.4-0.4,0.4-0.8,0.2-1.3c-0.2-0.4-0.2-0.9,0.3-1.1
		c0.9-0.5,1.8-0.9,2.7-1.4c0,0.1,0,0.2,0,0.2c-0.5,0.9-0.7,1.8-0.6,2.8C53.1,27.1,53.4,28,52.4,28.4z"/>
	<path class="st12" d="M33.6,65.1c-1.4-1.5-0.8-3.9-2.4-5.5c0.8-0.1,1.1,0.4,1.6,0.6c0.8,0.1,0.6,0.8,0.8,1.3c0.3,0.9,0,2,0.7,2.8
		c0.1,0.1,0.2,0.1,0.3,0.2C34.3,64.8,34,65.1,33.6,65.1z"/>
	<path class="st13" d="M55.6,24.1c-0.3,0.4-0.2,0.9-0.2,1.4c0,0.3,0,0.6-0.3,0.7c-0.4,0.1-0.4-0.4-0.7-0.5c-0.5-0.7-0.6-1.5-0.8-2.2
		c0,0,0-0.1,0-0.1c0.7-0.3,1.3-0.6,2-0.9C55.7,23.1,55.9,23.6,55.6,24.1z"/>
	<path class="st14" d="M51,24.8c-0.4,0.6,0.1,1,0.2,1.5c0.1,0.3,0.4,1.1-0.6,0.7c-0.5-0.1-0.6-0.5-0.5-0.9c-0.1-0.2-0.3-0.4-0.4-0.7
		C50,25.1,50.4,24.8,51,24.8z"/>
	<path class="st15" d="M55.6,24.1c-0.2-0.5-0.4-1.1,0-1.6c0.1,0,0.2,0,0.3,0.1c0.5,0.5,0.9,0.9,0.5,1.6c0,0.6,0,1.2,0,2.1
		C55.7,25.6,56,24.7,55.6,24.1z"/>
	<path class="st16" d="M56.4,24.3c-0.2-0.5-0.3-1.1-0.5-1.6c0.2-0.3,0.4-0.6,0.8-0.6c0.1,0.7,0.1,1.4,0.2,2.1
		C56.9,24.6,56.6,24.4,56.4,24.3z"/>
	<path class="st17" d="M60.3,52.4c0.6-0.8,1.2-1.6,2.4-1C61.9,51.8,61.1,52.1,60.3,52.4z"/>
	<path class="st18" d="M88.9,15.4c-0.3,0.3-0.4,0.9-0.9,0.7c-0.4-0.1-0.3-0.6-0.2-0.9c0.1-0.5,0.3-0.9,0.9-0.5
		C88.7,14.9,88.8,15.1,88.9,15.4z"/>
	<path class="st19" d="M68.6,41.4c0.2,0.1,0.4,0.3,0.5,0.4c1.7,0.5,3.4,1.1,4.9,2c0.4,0.3,1.1,0.5,0.8,1c-0.4,0.6-0.8-0.2-1.2-0.3
		c-1.7-0.5-3.3-1.3-5-1.7c-1.9-0.5-3.9-0.6-5.9-0.4c-0.5-0.1-1.1,0.3-1.6-0.2c-0.2-0.2-0.7-0.4-0.5-0.7C61,40.9,61.6,41,62,41
		c0.9,0.1,1.7,0.4,2.5-0.3c0.6,0.1,1.1,0.3,1.7,0C66.9,41,67.7,41.3,68.6,41.4z"/>
	<path class="st20" d="M62.7,42c3.9-0.3,7.6,0.5,11,2.4c-0.2,0.5-0.7,0.2-1.1,0.4c-2.7-2-5.8-2.3-9-2c-0.1,0-0.2,0-0.3,0
		C62.8,42.7,62.3,42.7,62.7,42z"/>
	<path class="st21" d="M74.1,46.7c-0.8-0.4-1.4-0.9-1.4-1.9C73.1,45.4,74.2,45.6,74.1,46.7z"/>
	<path class="st22" d="M53.6,23.5c0.9,0.5,0.8,1.4,0.8,2.2c-0.1,0.5-0.3,1.1-0.2,1.6c0.2,1.3-0.4,1.5-1.5,1.3
		c-0.1-0.1-0.2-0.1-0.3-0.2c0.4-0.8,0.3-1.6,0.2-2.4C52.5,25,52.7,24.1,53.6,23.5z"/>
	<path class="st23" d="M34.2,64.3c-1-0.7-0.9-1.9-1.1-2.9c-0.1-0.4,0-0.9-0.4-1.2c0.1-0.5-0.4-0.6-0.6-1.1c1.4,0.5,1.5-0.6,1.9-1.5
		C34.2,59.9,34.7,62.1,34.2,64.3z"/>
	<path class="st24" d="M62.7,42c0,0.4,0.3,0.6,0.6,0.8c-1.9,0.8-4,0.9-6,0.8c-0.3,0-0.8,0.1-0.8-0.4c0-0.5,0.5-0.6,0.9-0.6
		c1.3,0,2.6,0,3.9-0.5C61.8,42.2,62.2,41.8,62.7,42z"/>
	<path class="st1" d="M7.3,60.8c0.5-0.2,1.1-0.3,1.6-0.5c0.5,0.1,1-0.9,1.4,0c0.4,0.9-0.6,0.9-1,1.1C7.9,62.1,7.4,62,7.3,60.8z"/>
	<path class="st1" d="M68.6,41.4c-1,0.4-1.7,0-2.5-0.6C67,40.7,67.8,40.8,68.6,41.4z"/>
	<path class="st11" d="M50.7,31.3c0.4,0.2,0.7,0.4,0.6-0.3c-0.1-0.5-0.1-0.9-0.2-1.4c1.3,0,1,1.1,1,1.8c-0.1,0.8-0.7,0.8-1.4,0.4
		C50.4,31.6,50.5,31.5,50.7,31.3z"/>
	<path class="st25" d="M50,26.1c0.2,0.3,0.4,0.6,0.5,0.9c0,0.4,0.3,0.6,0.6,0.9c-1.1,0.7-1-0.9-1.8-0.9C49.2,26.4,48.9,25.7,50,26.1
		z"/>
	<path class="st1" d="M50.7,31.3c0,0.2,0,0.3,0.1,0.5c-1.3,0.3-1-0.9-1.4-1.5C50.3,30,50.1,31.2,50.7,31.3z"/>
</g>
</svg>
