<?xml version="1.0" encoding="utf-8"?>
<!-- Generator: Adobe Illustrator 19.2.1, SVG Export Plug-In . SVG Version: 6.00 Build 0)  -->
<svg version="1.1" id="Layer_1" xmlns="http://www.w3.org/2000/svg" xmlns:xlink="http://www.w3.org/1999/xlink" x="0px" y="0px"
	 viewBox="0 0 100 100" style="enable-background:new 0 0 100 100;" xml:space="preserve">
<style type="text/css">
	.st0{enable-background:new    ;}
</style>
<g>
	<path d="M48.9,11.4c-0.5,0-3.7-0.3-4.3-0.3c-1.2-0.1-4.7,0.2-5.9,0.1c0,0-2.5-0.3-2.5-0.4c-1.6-0.3-1.4-0.2-3.1-0.3
		c-1.1-0.1-3.7-0.2-5.1,0.1c-2.4,0.6-4.1,0.2-6.5,0.7c-0.6,0.2-2.3,0.7-3,1.1c-1.2,0.7-1.7,0.8-3,1.7c-0.6,0.5-1.6,1-2.3,1.7
		c-0.4,0.3-2.9,2.7-3.2,3.4C9.7,20,8.9,22.5,8.8,23c-0.1,0.5,0.7,1.5,0.7,1.8C9.7,26,8,25.7,8.2,26.9c0,0.6,0.3,3.9,1.3,5.3
		c0.1,0,0.5,4.6,0.5,4.8c0,1.9,1.5,5.7,2.3,6.1c2.9,1.6,13,7.9,13.5,8.2c0.7,0.2,1.8,2.1,4.3,0.9c1.8-0.9,5.2-2.4,4.3-0.6l0,0
		c-0.9,1.7-1.4,1.9-1.8,2c-0.6,0.2-1.1-0.1-1.7,0.1c-3.5,0.5-6.4,0-8.9-1.1c-2.4-1.1-4.5-2.5-6.8-3.8c-1.4-0.8-2.7-1.8-4-2.7
		c-0.9-0.8-1.7-1.7-2.5-2.7C8.5,43,8.2,42.8,8,42.5c-0.2-0.4-0.6-0.3-0.5-1.1c0.2-2-0.7-2-1.1-2.8c-0.1-0.3-0.4-0.5-0.7-0.4
		c-0.4,0.1-0.1-0.8,0.1-1.6c0-1.1,0-2.2-0.2-2.8c-0.1-0.6-0.5-0.8-0.8-1c-0.7-0.1-0.4-1.9,0-3.8c0-0.3,0.2-0.7,0.4-1.2
		c0.8-3.4,2.9-7.3,5.3-11.2c0.7-1.2,1.7-2.3,2.5-3.2c1.3-1.4,2-1.6,2.9-1.9c1.4-0.6,2.8-1.2,4.2-1.8c0.8-0.4,1.7-1,2.5-1.3
		c0.2-0.2,0.3-0.1,0.5-0.3c1.4-0.3,2.9-0.8,4.2-1c3.6-0.4,7.6-1.5,10.9-1c1.4,0.3,3.5-0.5,5.3-0.9c0.4,0,1-0.2,1.3-0.1
		C47,6,49.9,5.7,52.5,5.8c1.6,0,3,0.3,4.6,0.4C57.3,6.4,58,6,58.5,6c1.7,0.1,3.4,0.3,5.1,0.6c1.9,0.2,4,0.3,5.8,0.8
		c1.9,0.2,3.8,0.7,5.6,1.2c1.8,0.5,3.7,1,5.5,1.7c1.9,0.8,3.6,1.7,5.5,2.5c0.6,0.3,1.5,0.3,2,0.9c1.2,1,2.3,2.1,3.4,3.3
		c1.2,1.2,2.4,2.1,3.3,3.7c1.4,2.7,2.7,5.6,2.1,11.5c-0.3,3.1-1.4,6.8-4.3,12.6c-1.7,3.7-3.7,6.6-5.8,9.3c-2.5,3.2-4.6,5.3-6.6,6.9
		c-4.1,3.4-7.4,5.4-10.9,7.5c-6,3.7-11.4,6.2-16.5,8c-3.8,1.4-7.1,1.8-10.5,2.4C40.8,79,39.3,79,37.9,79c-2.5,0.3-5,0.5-7.2,0.4
		s-4.2-0.7-6.2-1.3c-2.6-0.6-5.2-1.2-7.7-2.1c-1.1-0.4-2.1-1.2-3-2c-0.4-0.2,1.5-1.2,1.8-1.3c2.9,1.3,6.8,0.2,9.7,1.3
		c1.6,0.6,7.9,1.4,9.9,1.7c1.5,0.3,6.8-0.9,8.4-0.8c1.7,0.1,5.6-1.1,7.4-1.2c2.1-0.2,5.1-3.1,7.4-3.5c0.9,0,5.3-2.5,6.3-2.8
		c2.3-0.6,3.7-2.6,6.1-3.4c2.3-0.9-0.1,1.1,2.4-0.2c1.7-0.9,1.4-1.2,3.3-2.3c0.9-0.6,4.2-3.6,5.1-4.2c2.8-2,3-4.7,5.8-6.9
		c1.8-1.4,1.1-2.9,3.6-6.4c0.8-1.2,0.8-2.6,0.9-3.3c1.1-4.3,2.3-9.8,1.9-11.9c-0.7-2.8-3.7-5.9-5.1-7.5c-2.1-2.5-6-2.6-8.3-4.7
		c-0.5-0.6-4.9-2-5.5-2.3c-0.9-0.5-5.8-1.5-6.6-2c-0.4-0.2-6-0.2-6.4-0.4C61.3,11.5,49.5,11.4,48.9,11.4z"/>
</g>
<g class="st0">
	<path d="M25.4,22.2L25.4,22l0,0.3L25,22.5l-0.1,0.4l-0.5,0.6l0,0.2l-0.1-0.1l-0.1,0l-0.2,0.2l0,0.3l-0.2,0.2l0-0.1l-0.1,0.1
		l-0.1,0.5l-0.1,0.1l0.1-0.4l-0.3,0.5l0,0.2l0.1,0.1l-0.5,0.7l0,0.1l-0.4,0.5l0,0.1l-0.3,0.9l-0.1,0l0,0.2l-0.2,0l0,0.1l0.2,0
		L21.8,28l-0.1,0.2l0,0.3l-0.3,0.1l0.1,0.1L21.4,29l-0.1,0.1l0,0.1l-0.1,0.1l0,0.1l-0.3,0.9l-0.5,1.9l-0.1,0l0,0.4l-0.3,1.6
		l-0.1,0.2l0,0.2l-0.2,0.3l-0.1,0l-0.1,0.1l-0.1-0.1l-0.1,0.1L19,35.2l-0.1,0.3l-0.3,0.1l0-0.2l-0.1,0.2l-0.2-0.2l-0.2,0.2l0.1,0.1
		l-0.5,0.2l-0.3,0l0,0.1l-0.6,0.3l-0.8,0l-0.5-1l-0.2-1l-0.5-5.1l0-0.8L13.9,23l0-2.5l-0.1-0.6l0.2-0.6l0.2-0.1l0.3,0l2.4,0.9
		l0.8,0.2l0.9,0.5l0.2,0.3L18.4,22l0.2,1.9l0.2,1l0.6-1l0.2-0.3l0.5-0.7l3.3-3.5l0.2-0.4l0.5-0.6l0.5,0.1l0.1,0.1l0.3,0l0.1,0.3
		l0.4,0l0.2,0.4l0.1-0.1l0.1-0.1l-0.1,0l0-0.2l0.2,0l0.1-0.1l0.1,0.1l0,0.4l0.2,0.2l-0.2,0.1l0.2,0.2l0.1-0.2l0.2,0.3l0.1,0l0.1,0.2
		l0-0.3l0.1,0.1l0.1,0L27,19.9l0.1-0.1l0,0.2l0,0.2l-0.1,0l-0.1-0.2l-0.2,0l-0.1,0.3l-0.1,0.1l-0.1,0.2l0,0.4l-0.1,0l-0.1,0.3l0,0.2
		l-0.4,0l0.2,0.2L25.7,22L25.4,22.2z M22.7,26.3L22.7,26.3L22.7,26.3L22.7,26.3z M22.7,25.7l0.1,0l0.1-0.1l-0.1-0.1L22.7,25.7z
		 M22.9,25.1L22.9,25.1l0-0.1L22.9,25.1z M23.9,23.6l-0.1-0.1l-0.1,0.1L23.9,23.6z M26.2,19.8l0-0.2L26.2,19.8L26.2,19.8z
		 M26.5,20.3l0-0.1l-0.1,0l0,0.2L26.5,20.3L26.5,20.3z M26.6,20.9L26.5,21L26.6,20.9L26.6,20.9z M26.8,20.3l-0.1,0.3l0.1-0.4
		L26.8,20.3z M26.8,20.8l0.1,0l0,0.1l-0.2,0L26.8,20.8L26.8,20.8z M27.5,20.7l0,0.4L27.5,20.7L27.5,20.7z M27.5,20l0,0.2L27.5,20
		L27.5,20z"/>
	<path d="M27.6,34.8L27.4,34l-0.2-1.9L27,31.3l0.5-5.2l1-5.4l0.4-1.5l0.5-1.3l0.2-0.3l0.2-0.5l0.7-0.1l2.2,1l0.5,0.1l1,0.9l0,0.4
		l-0.1,0.1l-0.6,0.3l-0.5,0.9L32,25.3l0,0.2L32,25.8l-0.1,0.5l-0.1,0.1l0,0.4l-0.1,0.3l-0.1,0.1l0,0.2L31.4,28l0.1,0.2l-0.2,0.4
		l0.2-0.2l0.1,0l-0.1,0.1l0,0.8l-0.2,0.9l0,0.2l0.1,0.1L31.2,31l0,0.3l0.1,0.6L31,32.5l-0.1,0l0,0.3l-0.2,0.2l-0.1,0l-0.2,0.4
		l-0.3,0.2L29.8,34l-0.2,0l-0.2,0.3l-0.3,0.3l-0.7,1l-0.2,0.4L28,36L27.6,34.8z M31,32.1l0-0.3L31,32.1L31,32.1z M31.6,29.3l-0.1,0
		l0.1-0.4L31.6,29.3z"/>
	<path d="M38.4,33.6l0.1,0.1l-0.2,0.1l0.1,0.1L38,34l0.1-0.1l-0.4-0.1l-0.1,0.3l-0.1,0l0-0.2l-0.2,0L37,34.2l-0.6,0.4l-0.6-0.4
		l-0.4-0.4l0-0.2L35,33l0.1-0.1l-0.2-0.4l0.1-2.8l0.1-1.3l0-0.2l0.3-2.8l1.2-6.2l0.1-0.5l0-0.2l-0.3-0.1L35.9,18l-0.2-0.4l0-0.2
		l0.3-0.2l0.4,0l0.8-0.2l0.1-0.1l0.1,0l0.5-0.8l0.4,0.1l0.3,0.1l2.7-1.1l0.3,0l0.3-0.1l0.1,0l0.5,0l0.3,0.1l0.2-0.2l0.6-0.1l0.1-0.1
		l0.2,0l0.7-0.3l-0.2,0l0.6-0.2l0,0.2l0.1-0.1l0.1,0.1l0.4,0l0.1,0.1l0.4,0l-0.1,0.2l0.6-0.4l0.2,0.2l0.1-0.1l0-0.1l0.3,0l0.5,0.1
		l0.5,0.6l0.1,0.5l-0.1,0.2l0.1,0l0,0.2l-0.1,0.1L48,15.8l-0.2,0.5l-0.2-0.2l-0.2,0l0,0.2l0.4,0.3l-0.1,0.1l0,0.3l-0.2,0.2l0,0.1
		l0.2-0.1l-0.1,0.3l0.2,0.1l-0.1,0l-0.1,0.1l-0.5,0.1l-0.2,0.1l-0.2-0.1L46.2,18l-0.5,0.1l-1.1,0.3l-0.3,0l-0.8,0.4l-0.3,0l-1,0.3
		l-0.3,0.4l-0.2,0.1l-0.4,0.5l-0.2,0.5l-0.1,0.1l-0.2,0.7l0,0.3l1.8-0.6l1.3-0.2l2,0.1l-0.3,0.3l-0.1,0.1l-1.4,0.6l-0.8,0.6L43.3,23
		L43,23.4l-0.2,0.8l-0.5,0.6l-0.8,0.4L41,25.4l-0.1,0.2l-0.1-0.1l-0.7,0.2l-0.4,2.5l0.1,0l3.4-2l0.9-0.1l0.5,0.1l1,0.5l0.1,0.7
		l0.1-0.1l0,0.2l0.1,0l-0.1,0.1l-0.1,0.4l0.2-0.3l0.1,0l-0.2,0.1l0.1,0.2l0,0.2l-0.1,0.1l-0.1-0.1l-0.1,0.2l0.2,0l0,0.1l-0.1,0
		L45.6,29l-0.1,0l0.1-0.2l-0.2,0.4l-0.2,0l-0.2,0.2l-0.1,0.1l-0.1,0l-0.2,0.4l-0.1-0.1l-0.5,0.2l0,0.2l-0.2,0.1l0,0.2l-0.3,0.3
		l-0.1,0l-0.1,0.1l-0.2-0.1l0-0.1l-0.1-0.1l-0.2,0.4l0.2,0l-0.2,0.1l-0.3,0l-0.1,0.1l0.1,0.1l-0.2,0.2l-0.3,0.1l-0.3,0.3l-0.3,0.1
		l-0.2,0.2l0-0.1L41,32.2l0.1,0l-0.5,0.4l0-0.1l-0.2,0.3l-0.3,0l0.1,0.1L40,33.2l0-0.1l-0.3,0.1l-0.1,0.2l-0.3,0l-0.5,0.3l0.1-0.1
		l-0.2-0.1l-0.2,0L38.4,33.6z M38.6,33.8l-0.2-0.1l0.1-0.1L38.6,33.8z M40.4,16.9l0.2,0L40.4,16.9L40.4,16.9z M41.4,17.1l0-0.3
		L41.4,17.1L41.4,17.1z M42.3,17l0.1-0.2l0.2-0.1l0-0.1l-0.2,0l-0.1,0.2l-0.1,0L42,16.9L42.3,17z M43,16.2L43,16.2l0-0.1L43,16.2z
		 M43.4,15.4l-0.1-0.1l-0.1,0.1L43.4,15.4z M43.2,17.1l0.1-0.2l-0.1,0L43.2,17.1z M43.5,15.2l0.5-0.1l-0.5-0.1L43.5,15.2z
		 M43.6,17.1l0.1-0.2l0.2,0l0-0.1l-0.2-0.1l-0.2,0.2L43.6,17.1z M43.9,16.4l0-0.2L43.9,16.4L43.9,16.4z M44.3,17l0.2-0.2l-0.2-0.2
		l0.1-0.2l-0.2-0.1l0,0.1l-0.1,0.2L44.3,17z M44.8,16.6l0-0.3l-0.1,0.2l-0.1-0.1l-0.1,0.2L44.8,16.6z M44.7,15.2l0.1,0l0.1-0.2
		L44.7,15.2z M45.3,16.8L45.3,16.8l0-0.3l-0.2-0.1l0-0.1L45,16.3l-0.1,0.3l0.1,0l0,0.1l0.1-0.1L45.3,16.8z M45,15.8l0.1,0l0.1-0.1
		L45,15.8L45,15.8z M45.3,15.8l0.1-0.1l-0.1,0L45.3,15.8z M45.4,16.6l0.1-0.3l-0.1,0L45.4,16.6z M45.7,15l0.2,0l-0.1-0.2l-0.3,0.1
		L45.7,15z M45.7,16.9l0.1-0.3l-0.3,0.1L45.7,16.9z M45.6,16.5l0.2,0l0-0.1l-0.2,0L45.6,16.5z M45.8,26.8l0-0.1l0.1-0.1L45.8,26.8z
		 M46.1,16.6L46.1,16.6L46.1,16.6L46.1,16.6z M46.1,27.1L46,27.3l0-0.2L46.1,27.1z M46.5,16.7l0-0.2l-0.1-0.1l-0.1,0.2L46.5,16.7z
		 M47.3,16.9l0.1-0.3l-0.2,0L47.3,16.9z M48.1,16.8l0,0.1L48.1,17L48,17L48.1,16.8z M48.3,16.4l0,0.2l-0.2,0l0-0.1L48.3,16.4z
		 M48.4,17.2l-0.2,0.2l0.1-0.1L48.4,17.2z M48.5,16l0,0.3L48.5,16L48.5,16z"/>
	<path d="M51.2,33.4L51,30.5l-0.9-9.7l-0.3-2.1l0-2.3l0-0.4l-0.1-0.9l0.4-0.2l0.6-0.1l1.2,0.4l0.3,0l1,0.3l0.3,0.2l0.1,0l0.7,0.6
		l0.7,1.2l0.1,0.6l-0.2,0.5l0.2,1.4l0.7-1l0.1-0.2l0.4-0.5l0.9-1.3l0.1-0.3l0.3-0.3l0.1,0l0-0.2l0.1-0.2l-0.2-0.3l0.2-0.3l0.8-0.1
		l0.3,0.1l1-0.8l0.2,0l0,0.4l-0.1,0.6l0.6,0.3l0.2,0.2l0.6,0.3l0.5,0.7l0.3,1.1L62.4,19l0.1,1.3l0,0.5l0.1,0.6l0.2,0.2l0.4-0.9
		l0.1-0.5l0.3-0.4l0.1,0l0.1-0.4l0.2-0.2l0-0.1l0.1,0l0.2-0.5l0.1,0.1l0.1-0.2l0,0.1l-0.1,0.4L64,19.5l0.2,0l0.1-0.2l0.1,0.7
		L64.4,20l-0.1-0.2l-0.1,0.5l0,0.1l0.3-0.4l-0.1-0.6l0.1-0.1l0.1,0.1l0,0.4l0.2,0.2l-0.2,0.1l-0.1,0.2l-0.1-0.1l-0.1,0.3l-0.1,0.7
		l0.3-0.7l0,0.2l-0.1,0.5l-0.1,0.2l-0.1-0.1L64.1,21l0.1,0.8l-0.1,0.4l0.2,0.4l0,0.3l-0.2,0l-0.2-0.3l-0.2,0.7l0.2,0.3l0.1-0.3
		l0-0.5l0.1,0.1l0,0.4L64,23.7l0.1,0.2l-0.1,0.2l0.3,0.3l0.1-0.1l0,0.3l0.1,0.1l0.1,0l-0.1,0.2l0.1,0.2l0,0.2l0.2,0l-0.1,0.2l-0.1,0
		l0,0.2l0.1,0.1l0.2-0.2l0.2,0l0,0.3l0.1-0.2l-0.1-0.6l0.1-0.3l0-0.5l0.1-0.2l-0.1,0l-0.1,0.2l0-0.4l0.3-0.3l0-0.2l0.3-1.1l0,0.1
		l0.3-0.2L66.2,22l-0.1,0.1l-0.1,0l0.3-0.3l0.1-0.2l0.1,0.6l-0.1,0.1l-0.1,0.3l-0.2,0.2l0.1,0.2L66,23.4l0.1-0.1l0.1,0.1l0.1,0
		l0,0.1l-0.3,0.2l0-0.1l-0.2,0.2L66,24l0.1-0.3l0.1,0.1l-0.1,0.3l-0.2,0.1l0,0.2l0.1,0.1l-0.2,1l0.1,0.2l-0.1,0.3l-0.1,0.1l0.2,0.1
		l-0.1,0.2l0,0.2l-0.1,0.2l0,0.1l0.1-0.2l-0.1,0.2l-0.1,0.2l0,0.3l0.1,0.1l-0.2,0.2l-0.2,0.7l0.1-0.1l0.1,0.1l-0.1,0.3l0.1,0.1
		l-0.1,0.8l-0.1,0.1l0,0.4l0,0.6l-0.1,0.2l0,0.1l0.1,0.1l-0.1,0.1l0,0.4l-0.1,0.1l0.1,0.2l-0.1,0.3L64.9,32l0.1-0.2l-0.3,0l-0.1-0.3
		l0,0.4l-0.3-0.1l-0.1-0.3L64,31.6L64,32l0.2,0.1L64,32.1l-0.1,0.2l0.1,0.1L64,32.5l-0.1-0.1L63.8,32l-0.1-0.1l-0.2,0.2l-0.1,0.8
		l-0.1-0.3l0-0.2L63,32.5l-0.2,0.3l-0.1-0.1l0-0.3l-0.4,0.2l0.1-0.2l-0.2-0.4l-0.1,0L61.9,32l0,0.1l0.1,0.1l-0.3,0.1l0-0.2l-0.4-0.4
		l0,0.3l0,0.2l-0.1,0.1l-0.2,0.6l0.1,0l0.3-0.5l0,0.1l-0.3,0.4L61.1,33l-0.1,0.2l-0.1-0.1L60.5,33l-0.1,0.1l0.1-0.4l-0.2,0l-0.1-0.7
		l0-0.1l-0.1-0.1l0.1-0.5L60.2,31L60,30L60,30l-0.3-1.2l-0.2-0.5l0-0.4l-0.3-0.7l-0.8-4l-0.1-0.3l0-0.4l-0.2,0L57.9,23l-0.2,0
		l-0.1,0.8l-0.1,0.1l0.1,0.2l-0.1,0.1l0,0.2l-0.2,0.2l0.1,0l-0.1,0.2l-0.1,0.2l0,0.5l-0.2,0L57,26.3l-0.1,0.1l0,0.4l-0.2,0.4
		L56.7,28l-0.2,0.2l0,0.4L56,30.7l-0.1,0.3l0.1,0.8l-0.6,1.1l-0.3,0.3l-0.2,0l-0.3,0.2l-0.3,0.3l-0.4,0L53.3,34l-0.2-0.1L53,34
		l-0.6,0.2l-0.5,0l-0.5-0.4L51.2,33.4z M57.8,22.5l0.3-0.2L57.9,22l0.1-0.4l-0.1-0.1l-0.1,0.1l0,0.2L57.6,22l0.1,0.1l-0.1,0.1
		l0.1,0.1L57.8,22.5z M59.9,23.4L59.9,23.4l0-0.1L59.9,23.4z M60.3,29L60.2,28L60,28l0,0.4l0.1,0.1l0,0.4L60.3,29z M60.8,31.8
		l0.2-0.4l-0.1,0.1l0-0.3l0.2-0.2l0-0.1l-0.2-0.2l0-0.2l0.1-0.1l-0.1,0l-0.1,0.4l-0.1-0.2l-0.1,0.3l0,0.2l-0.1,0.1l0.3,0.2l0.1,0.5
		l0.1-0.2L60.8,31.8z M60.5,29.5l0.1-0.2l0-0.3l-0.1-0.1l-0.2,0.2L60.5,29.5z M60.6,30.1l0.1,0l-0.1-0.7l-0.1,0.2l0,0.3L60.6,30
		L60.6,30.1z M60.9,28.1l0-0.1L60.9,28.1L60.9,28.1z M61,27.4L61,27.4l0-0.3l-0.1,0l0,0.1L61,27.4z M61.4,31.5l0.1-0.2l0-0.2
		l-0.1,0.2L61.4,31.5z M61.8,21.9l0-0.1l0.1-0.2l-0.2,0.2L61.8,21.9z M62,22.4l0.2-0.2l-0.2,0L62,22.4z M62.3,31.5L62.3,31.5
		l0.2-0.2l-0.2,0L62.3,31.5z M62.6,31.2l0.1,0l0-0.5l-0.1-0.1l-0.2,0.2l0.1,0L62.6,31.2z M63,28.9l0.2-0.5l-0.2,0L63,28.9z
		 M63.6,31.9l0.1-0.3l0.1-0.1l0-0.1l-0.1,0.1l-0.1-0.1l-0.2,0.4L63.6,31.9z M63.4,21.7l0.2,0.1l-0.2-0.2L63.4,21.7z M63.8,22.7
		l0-0.2l0.1-0.3l-0.1-0.4l-0.2,0L63.8,22.7z M63.6,21l0.1-0.1l0.1-0.3l-0.1,0l-0.1,0.1L63.6,21z M63.7,28l0.1-0.2l-0.1,0.1L63.7,28z
		 M63.8,26.3L63.8,26.3l0-0.3l-0.1,0.1L63.8,26.3z M63.8,24.3l0.1-0.2l0-0.2l-0.1,0.3L63.8,24.3z M64.2,25.7l0-0.3l-0.1-0.8
		l-0.2-0.3l0,0.5l0.1,0.1l0,0.4l-0.2,0.3L64.2,25.7z M64,27l0.2,0l0-0.2L64,27l0-0.1L64,27z M64.3,26.1l0.1-0.2l0-0.2l-0.1,0
		l-0.2,0.3L64.3,26.1z M64.2,28l0.2-0.2l-0.1,0L64.2,28z M64.4,21.5l0.1,0.6L64.3,22L64.4,21.5z M64.4,27.4L64.4,27.4l0-0.1
		L64.4,27.4z M64.4,23.1l0.1-0.1l0.3,0.6l-0.2,0.6l-0.1-0.8L64.4,23.1z M64.5,18.8l0,0.5l0-0.2L64.5,18.8z M64.6,24.5L64.6,24.5
		l0-0.2L64.6,24.5z M64.7,26.3l0.1,0l0-0.1l-0.1-0.1l0-0.3l-0.1,0.4L64.7,26.3z M64.7,22.6l-0.1,0.2L64.7,22.6L64.7,22.6z
		 M64.9,27.1l0-0.1l-0.2-0.3l0,0.4L64.9,27.1z M65,24.6l-0.1,0.1L64.8,24l0.2-0.6L64.8,22l0.2,0l0,0.2l-0.2-0.1l0,0.5l0.1,0.2
		l0.1,0.8l-0.2,0.3l0.2,0.2l0,0.1l0.1,0.1l0,0.6L65,24.8l-0.1,0.2l0-0.1L65,24.6z M65.2,18.9l0-0.1l0.1,0l0,0.6l-0.1-0.2L65.2,18.9z
		 M65.4,21.8l-0.1-0.1l0-0.3l0.1-0.1l0.2-0.8l0.1,0.1l0,0.2l0.1,0l0,0.3l-0.1-0.1l-0.2,0l-0.1,0.5l-0.1,0.1l0.2,0.2l0,0.1l-0.1,0.1
		l-0.2-0.1l0,0.4l-0.1,0.2l0,0.2l-0.1,0.2l0-0.5L65.4,21.8z M65.4,23.2l0-0.4l0.2,0.3l-0.2,0.6L65.4,23.2z M65.5,18.4l-0.1,0.3
		l-0.1-0.6L65.5,18.4z M65.4,26.9L65.4,26.9l0.2-0.2L65.4,26.9z M66.8,19.4L67,19l-0.2-0.1l-0.1,0.3l-0.2-0.1l-0.1,0.1l0.3-0.6
		l-0.1-0.1l0.1-0.6l-0.1-0.2l0-0.3l-0.2,0l-0.1-0.2l-0.2-0.1l0.3-0.4l0-0.4l-0.2,0.2l-0.1-0.1l-0.1,0.2l0,0.3l0.1,0.1L66,17L66,17.2
		L65.9,17l0.1-0.1L65.9,16l-0.2,0.2l0-0.4l-0.1-0.2l0.3-0.9l0.3-0.4l0-0.4l-0.2,0l0.4-0.4l0.4-0.7l0.3,0l-0.2,0.2l0.1,0.5l-0.1,0.2
		l0,0.2l0.1,0.1l0.2-0.2l0-0.1l0.1,0l-0.1,0.4l-0.2,0.2l0,0.2l0.1-0.2l0,0.3l-0.1,0.1l0,0.1l-0.1,0.2l0.3,0.1L67,15.3l0,0.5L67,16.2
		l0,0.4l0.1-0.3l0-0.2l0.3,0.2l-0.1,0.5l0.2,0.4l-0.2,0.1l0-0.3l-0.2,0l0.1,0.6L67,17.8l0,0.2L67,18.4l-0.1-0.1l-0.1,0.1l0,0.1
		l0.1,0.1l0.2,0.1l0,0.7L66.8,19.4l0,0.2L66.8,19.4z M65.8,23.9l-0.1-0.1l-0.1,0.1L65.8,23.9z M65.8,18.8l0,0.2l-0.1-0.1L65.8,18.8z
		 M65.8,19.3l0-0.1l0.1-0.1l0,0.4l-0.1,0L65.8,19.3L65.8,19.3z M66.1,21.8l-0.1,0l0-0.1L66.1,21.8z M66,21.2l0-0.3l0.3,0l0.1-0.3
		l0-0.5l0.1-0.1l-0.1-0.1l0.1-0.5l0.1,0.1l0-0.2l0.1-0.1l0.1,0.1l0.2,0l-0.1,0.2l0,0.4l0,0.7l0.1,0.6l-0.3,0.3l0.1-0.2l0-0.4l-0.1,0
		l-0.3,0.4l0,0.1L66,21.6l-0.1-0.1L66,21.2z M66.1,20.4l0,0.1l-0.1,0.1l0-0.4L66.1,20.4z M66,16.3l0.1-0.5l0.1-0.1l-0.1-0.1L66,15.9
		L66,16.3z M66.2,22.8l0,0.4l-0.1-0.1L66.2,22.8z M66.5,17.6l0,0.3l-0.1-0.3L66.5,17.6z M66.8,17.8l0-0.3l0.1-0.1l-0.1-0.2l0-0.2
		l-0.1-0.2l-0.1-0.1l-0.2,0.6l0.1,0l0.1,0l0.2,0.1L66.8,17.8z M66.5,20.8l0,0.4L66.5,20.8L66.5,20.8z M66.5,22.9L66.5,22.9
		L66.5,22.9L66.5,22.9z M66.5,16.3l0.1,0.2L66.5,16L66.5,16.3z M66.7,21.6L66.7,21.6l0,0.3L66.7,22l0,0.2l-0.1,0.1l0-0.2L66.7,21.6z
		 M66.9,19.6L66.9,19.6l-0.1-0.2L66.9,19.6z M67.3,18.8l0,0.1L67.3,18.8L67.3,18.8z M67.5,17.5l-0.1,0.2L67.5,17.5L67.5,17.5z
		 M67.7,17.9l0,0.2l-0.2,0.6l0.2-0.7L67.7,17.9z"/>
</g>
<g class="st0">
	<path d="M35.1,66.2l0-1.5l0-0.1L35,64.5l0-0.2l-0.2-0.1L35,64l-0.1-0.7L35,63L34.9,63l-0.2-1.3l0.1-0.2l-0.1-0.1l0.1-0.4l-0.1-0.1
		l0.2-0.4l-0.1-0.2l0.1-0.5l-0.1-0.2l0-0.3l-0.1,0.1l0-0.4l-0.1-0.2l0.1-0.1l0-0.2l0.1-0.1l0-0.3l-0.1,0.1l0-0.4l0.3-0.1l0-0.3
		l0.1-0.5L34.7,56l-0.1-0.3l-0.2-1l-0.1,0.4l0.1,0.3l-0.3-0.2l-0.2,0l-0.2-1.9l-0.2-0.9l-0.1-0.1l0.1-0.1l0-0.2l-0.1,0l0.1-0.7
		l-0.1,0l0.1-0.4l-0.1-0.5l-0.2,0.1l0,0.3l-0.1-0.1l0-0.5L33,50.2l-0.1,0.2l0.1,0l0,0.4l-0.1,0.3l0,0.4l-0.1,0.2l-0.1-0.1L32.6,51
		l-0.1,0.1l0,0.3l-0.1,0.3l0.3,0.2l0.1,0.6l-0.2,0.2l-0.1,0l0.1-0.3l0.1-0.1l-0.1-0.5l-0.3,0l-0.1-0.1l0,0.2l0.1,0.1l-0.2,0.2l0-0.2
		L32,52.4l0,0.3l0.2,0.2L32.1,53l0.1,0.5l-0.1,0l0.1,0.5l-0.2,0l0,0.1l0.2,0l0,0.3l-0.2,0l-0.1-0.1l-0.1,0.2l0,0.3l0,0.6l0.2,0.2
		l-0.2,0.5l0,0.3l0.2,0.2l0,0.1L32,57l0,0.3l-0.1,0.2l0.2,0.1l0-0.4l0.3,0l0-0.3l-0.1-0.3l0.1-0.2l0-0.1l-0.1,0.3L32,56.5l0-0.8
		l0.1-0.3l0-0.2l-0.1,0l0.2-0.8l0.1,0l-0.1-0.6l0.2,0l0-0.3l0-0.1l0-0.2l0.1-0.3l0.1,0.7l-0.2,0.1l0,0.5l0.2,0l0.1-0.1l0,0.5
		l-0.1-0.1l0,0.3L32.8,55l-0.1-0.2l-0.1,0.1l0-0.1l-0.1-0.1l0,0.2l-0.1,0.6l-0.1,0.1l0,0.2l0.1-0.1l0.1,0.4l0.1,0.1l-0.1,0.2
		l-0.1,0.5l-0.1,0l0,0.1l0.2,0.1l0.2,0.4l-0.3,0.3l0.1,0.3l-0.1,0.9l0,0.2l-0.1,0.5l0,0.3l-0.1,0.2l0,0.4l-0.4,4.4l-0.1,0.3l0,0.2
		l-0.7,0.4l-0.7,0.2l-0.3,0l-0.1,0.1l-0.6,0.2l-0.5,0.3L29,66.4l-0.1,0.1l-0.8,0l0.3-0.2l0.1,0l0-0.1l-0.6,0.1l0-0.1l-0.1-0.1
		l0.1-0.2l-0.2-0.2l-0.1-0.1l0-0.4l-0.3-0.7l-0.1-0.1l-2.5-7.3l-0.3,0.7l0,0.8l-0.4,1.6l0,0.1l-0.4,2.2l-0.1,1.8l0.2,0.4l0.2,0.2
		l0,0.3l-0.2,0.2l-0.8,0.3L22,65.9l-0.8-0.1l-1.7,0.4l-1,0.1l-0.3-0.2L18,65.3l0.2-0.5l0.9-5.3l0.6-2.7l0-0.2l0.4-1.4l0.4-1.7
		l1.4-5.2l0.8-1.5l0.4-0.5l0.7-0.1l0.9,0.3l0.1,0.2l0.2,0l0.5,0.2l0.1,0.1l0.2,0l0.3,0.3L26,47.5l0.2-0.1l0.1,0.2l0.1-0.2l0.1,0.1
		l0.2,0.4l0.1-0.1l0.1,0.2l0.1,0l0,0.3l0.2,0.5l0.1,0.7l0.1,0.5l0.2,1.8l0,0.1l0.1,0.1l0.1,0.6l0.2,0.5l-0.2,0.4l0.1,0.2l0.1-0.2
		l0.1,0l0.1,1l0.1,0.1l0,0.2l-0.1,0.1l0.1,0.6l0.1,0.1l0.3-0.3l0.4-1.2l0.1-0.5l0.8-2.1l0.1-0.5l0.1,0l0.2-0.4l0-0.1l0.3-0.6
		l0.3-0.3l0.4-1.2l0.2,0l0.2-0.5l0.3-0.4l0.1,0l0.2-0.5l0.3-0.4l0.1-0.4l0.1,0l0.1-0.3l0.2,0L33.1,46l0.2-0.2l0,0.1l0.1,0.1l0.1-0.3
		l-0.1-0.4l0.1,0l-0.1,0.1l0.1,0.1l0.3,0l0-0.2l0.1-0.2l0.1,0.2l0.2-0.1l0-0.1l0.2,0.2l0,0.2l0.2,0.4l0.2,0l0.1-0.3l0.2,0.3
		l-0.1,0.2l0.1,0l-0.3,0.6l0,0.2l0.1-0.2l0.2-0.1l0.2-0.3l0.1,0l-0.2,0.3l0,0.2l0.1,0l0-0.2l0.2,0.1l0-0.1l0.1-0.1l0,0.3l-0.2,0
		L35.4,47l0.4,0l-0.2,0.2l-0.1,0.1l0.2,0.1l0.1-0.2l0,0.4l0.1,0.1l0,0.2l-0.1,0.1l0.1,0.1L36,48l0-0.3l0.1,0.1l0-0.3l0.1-0.1
		l0.2,0.1l-0.1,0.2l0.1,0l0,0.1l-0.1,0.6l0.2,0.2l0,0.2l0.1-0.1l0,0.3l0.1,0l0,0.4l0.1-0.1l0.1,0.3l-0.2,0.2l0.1,0.2l0,0.3l0.1,0.3
		l0.1,0.5l0,0.3l0.1,0.9l-0.1,0.4l-0.2,0.2l0,0.3L37,53.3l0-0.2L37,53L37,52.5l0.2-0.2l0-0.3l-0.3,0l-0.1,0.2l0.1,0.1l0.1-0.2
		l0.2,0.1l-0.2,0.4l0,0.3l-0.2,0.3l-0.1,0.3l0,0.3l0.2-0.3l0.2,0.1l-0.1,0.1l-0.1,0l-0.1,0.1l0,0.6l-0.1,0.2l0.2,0.2l0.1-0.4
		l0.1-0.2l0-0.6l0.1,1L37,54.7l0.1,0.1L37,54.8l-0.1,1l0.2-0.1l0,0.4l-0.1,0l0,0.3l-0.2,0.2l0.1,0.2l0.3-0.5l0.1-0.2l0,0.3l-0.2,0.2
		l0,0.1l0.2,0.1L37.3,57l0,0.1l-0.1,0.3l0,0.4l0.1,0.1l-0.1,0.1L37,58.5l0,0.2l0.2,0l0.2-0.2l0,0.1l-0.1,0.2l-0.1,0l0,0.2l-0.1,0.2
		L37,60l-0.1,0.3l0.1,0.7l0.2,0.1L37,60.2l0.3-0.3l0-0.5l0.1-0.1l0.1-0.4l0.2,0.1l-0.1,0.1l0.2,0.2l0,0.3l0.2,0.2l0.1-0.1l0-0.3
		l0.1-0.1l-0.1-0.1l0.2-0.2l-0.3-0.3l0.1,0l0.2-0.6l0.1,0.1l0,0.2l0.1,0.1l-0.2,0.3l0.2-0.2l0.1,0.1L38.4,59l0,0.2l-0.1,0l0,0.1
		l0.2,0.1l-0.2,0.3L38.2,60L38,60.2L38,60.4l0.3,0.1l0.1-0.5l0.2-0.2l0-0.6l0.1-0.1l0.1,0.1l-0.1,0.1l0.1,0.2l-0.2,0.3l-0.1,0.4
		l0,0.2l-0.3,0l0,0.3l-0.3,0l0.2,0.4l-0.1,0.3l0.2,0l0.1-0.6l0.2-0.2l0,0.3l-0.4,0.7l0,0.2l-0.2,0.2l0.1,0.2l0.1-0.2l0.1-0.1l0-0.3
		l0.1-0.1l0.2,0.1l0-0.4l0.2-0.5l0-0.5l0.1,0.6l-0.1,0.1l0,0.7L38.5,62l0,0.6l-0.1,0.2l0.1,0.4l-0.1,0.1l0.1,0.1l0.1-0.2l0,0.1
		l0.1,0.1l-0.2,0.2L38.4,64l-0.1,0.5l-0.2-0.1L38,64.5l-0.2,0l0,0.4l0.1,0l-0.2,0.4l-0.1-0.2l-0.2,0.2l-0.2,0.3l-0.1-0.8L37,65
		l0.1,0.1l0,0.3l-0.2-0.3l-0.1,0l-0.3,0.5l0.1-0.3l-0.2,0.1l0.1-0.4l-0.2,0.2l-0.1-0.1l-0.4,0.5l-0.2-0.2l-0.1,0.1l0,0.2l-0.1,0.1
		l-0.1-0.1L35.3,66l0,0.1l-0.1,0.1L35.1,66.2z M30.1,51.8l0.2-0.1l-0.1-0.3L30.1,51.8z M30.2,52.8l0.1,0l0-0.5L30.2,52.8z
		 M30.3,51.5l0.2-0.4l-0.1-0.2l0,0.4L30.3,51.5z M30.4,57.4l0.1-0.2l0-0.3l-0.1,0.2L30.4,57.4z M30.4,55.8L30.4,55.8l0.3-0.5l0-0.3
		l-0.1-0.1l0,0.4l-0.2,0.3L30.4,55.8z M30.5,57.9l0.2,0l0.1-0.1l-0.1-0.1l-0.1,0.1L30.5,57.9z M30.8,60.2l0.1-0.2l0-0.1l-0.2,0
		L30.8,60.2z M30.7,58.2L30.7,58.2l0.1-0.2l-0.1,0.1L30.7,58.2z M30.8,50.4l0.3-0.8l-0.2,0.2L30.8,50l0.1,0.1l-0.1,0.2L30.8,50.4z
		 M31,51.3l0-0.5L31,51.3L31,51.3z M31.1,54.1l0.1-0.2l0.1-0.3l-0.1-0.3l0-0.4l0-0.5L31,53l0,0.3l0.1,0.3L31.1,54.1z M31.1,60.4
		l0-0.2L31,60.4L31.1,60.4z M31.2,59l0.2,0l0.1-0.7l-0.1-0.1l-0.1,0.2l0,0.4l-0.3,0.2L31.2,59z M31.6,58.1l0.1-0.1l0-0.3l0.1-0.5
		L31.5,57l0-0.3l0.3-0.9l-0.1-0.1l-0.2-0.8l0.1-0.2l0-0.4l0,0.4l-0.1,0.1l0.1,0.6l-0.1,0.3l0.1,0.9L31.2,57l0.3,0.5l-0.1,0.3
		l0.1,0.1L31.6,58.1z M31.5,50.3L31.5,50.3l0.1-0.2l-0.1,0.1L31.5,50.3z M31.6,52.8L31.6,52.8l0-0.3l-0.1,0.1L31.6,52.8z M31.7,51.8
		l0.1-0.1l0-0.4l-0.1,0L31.7,51.8z M31.7,48.7l0.2-0.1l-0.1,0L31.7,48.7z M31.9,58.3L31.9,58.3l0.2-0.1L32,58.2l0-0.1l-0.1,0
		L31.9,58.3z M32.3,51.5l-0.1-0.1l0-0.1l0.1-0.3L32.1,51L32,51.3l0,0.3L32,51.8L32.3,51.5z M32.3,52.6L32.3,52.6l-0.1-0.2L32.3,52.6
		z M32.3,56.1l0.2-0.2l0.1-0.2l-0.1,0.1l-0.2-0.1L32.3,56.1z M32.3,55L32.3,55l0.1-0.2l-0.1,0.1L32.3,55z M32.6,50.7l0-0.2
		L32.6,50.7L32.6,50.7z M32.6,56.4l0-0.2l0.2,0.1l0.1-0.1l-0.1,0.2l0,0.4l-0.1,0l0-0.2L32.6,56.4z M32.6,54.5l0.1,0l0-0.2L32.6,54.5
		z M32.8,55.2l-0.1-0.1l0.1,0l0.1,0.1l0.1-0.2l0.3-0.2L33,55l0,0.1l-0.3,0.5l0.2,0.2l-0.2,0.4l-0.1-0.6L32.8,55.2z M32.7,49L32.7,49
		l0-0.1L32.7,49z M33,53.6l0,0.3l-0.2,0.1l0-0.6L33,53.6z M32.8,49.8l0.2-0.1l0.1-0.4l0.2-0.2L33,49L33,49l0,0.2L32.8,49.8z
		 M33,47.8l0-0.1l-0.1,0.1L33,47.8z M33,52.6l0.1-0.3l0.1,0.2l-0.1,0.4l0.1,0.5l-0.2,0l0.1-0.1L33,52.6z M33.2,54.6l-0.1,0.2l-0.1,0
		l0-0.1L33.2,54.6z M33.3,53.4l0,0.2l-0.2-0.1L33.3,53.4z M33.3,50.1l0-0.3l-0.1,0.1L33.3,50.1L33.3,50.1z M33.4,54.3l0,0.2l-0.1,0
		l0-0.2L33.4,54.3z M33.5,54.1l0,0.1l0-0.3L33.5,54.1z M34.2,56.2L34.2,56.2l-0.2,0.2L34.2,56.2z M34.3,54.3L34.3,54.3l0-0.4
		L34.3,54.3z M34.5,46l0-0.1l-0.1,0L34.5,46z M35.1,47.7l0.1-0.2l0.1-0.1l0-0.2L35,47.3l-0.2,0.2l0,0.1L35.1,47.7z M35,47.1l0.2-0.1
		L35,47L35,47.1z M35.4,48.6l0.1-0.4l0.1-0.2l0-0.4l-0.1,0l-0.2-0.1l0,0.1l0,0.1l0.2,0l0,0.1l0.1,0.1l-0.3,0.1l0,0.4L35.4,48.6z
		 M35.5,49.2l0.1-0.2l-0.1-0.2l-0.1,0l0,0.1l0.1,0.1L35.5,49.2z M35.7,53.4l0-0.5L35.7,53.4L35.7,53.4z M35.8,66.3l-0.1,0.3
		L35.8,66.3L35.8,66.3z M35.8,55l0-0.1L35.8,55L35.8,55z M35.9,50.6l0.1-0.2l0.2-0.1l0-0.8l0.1,0l0.1-0.2l0.1-0.2l0-0.3l-0.1,0.3
		l-0.1,0l-0.5,0.6l0.1,0.6L35.9,50.6z M35.9,51l0-0.1l-0.1,0.1L35.9,51z M35.8,52.8l0.1-0.2l0-0.3l0,0.3L35.8,52.8z M35.8,54.2
		l0.3-0.6l-0.2,0l-0.1,0.1L35.8,54.2z M36.1,58.3l0.1-0.3l0.1,0.1l0.2-0.9l-0.1,0l0-0.7l-0.3,1l0,0.2L35.9,58L36.1,58.3z M36,64.2
		L36,64.2l0.1-0.2L36,64.2z M36.2,48.6l0.1-0.4l0-0.1l-0.2,0L36,48.3l0.1,0.1L36,48.6L36.2,48.6z M36.1,46.7L36.1,46.7L36.1,46.7
		L36.1,46.7z M36.1,51.5l0.1-0.1l0-0.2L36,51.3L36.1,51.5z M36.3,63.6l0.2,0l0-0.4l0.1-0.4l-0.1-0.1l0.1-0.4l0.2,0.1l0.2-0.3
		l-0.1-0.7l0-0.1L36.8,61l0-0.3l-0.1,0.7l0,0.4l-0.2,0.7l0-0.5l-0.2,0.2l0.1,0.5l-0.1,0l0,0.2l-0.1,0.1l0.1,0.1l0.2-0.2l0.1,0.1
		l-0.2,0.2l0.1,0.1L36.3,63.6L36.3,63.6z M36.2,56.4l0.3-0.2l0.2-0.4l-0.2,0l0-0.3l-0.2-0.1l0.1-0.5l-0.1,0l-0.1-0.2l-0.1,0
		l-0.1,0.2l0.2-0.1l0,0.3l0.1,0.1l-0.1,0.2l0,0.5l0.2,0.1l-0.3,0.1l0.2,0.1l-0.1,0.1L36.2,56.4z M36.3,53.2l0.1-0.5l0.1-0.1l0-0.8
		l0.1,0.2l0.1-0.1l0-0.3l0.1-0.1l0-0.4l-0.1,0.3l-0.2,0l-0.2,0.5L36.1,52L36.3,53.2z M36.4,64.2l0.1-0.3l-0.3,0.3L36.4,64.2z
		 M36.4,49.9l0-0.3l-0.1,0.1L36.4,49.9L36.4,49.9z M36.5,60l0.1-0.3l-0.1-0.6l0.2-0.2l0-0.3l0.1-0.2l-0.1-0.3l-0.3,0.4l-0.1,0.7
		l0.1,0.2l-0.1,0.3L36.5,60z M36.4,50.7l0.2,0l-0.1-0.5l-0.2,0.6L36.4,50.7z M36.5,64.8l0.2-0.2l0-0.4l-0.2,0L36.5,64.8z M36.4,61.9
		l0-0.3l0,0.1L36.4,61.9z M36.4,60.7l0.2-0.3l0-0.3l-0.1,0.1l0.1,0.1L36.4,60.7L36.4,60.7z M36.6,57.3l0.1-0.8l-0.2,0.4L36.6,57.3z
		 M36.7,63.4L36.7,63.4l0.2-0.2l-0.1,0.1l-0.1-0.1L36.7,63.4z M36.7,64.8l0.2-0.3l-0.1-0.1l-0.1,0.2L36.7,64.8z M36.7,57.3l0.4-0.2
		l-0.1,0l0-0.2l-0.3,0.3L36.7,57.3z M36.7,64.4l0.2-0.1l0.1-0.2l0.2-0.1l0.1-0.7l0.2-0.5l0.2-0.2l0-0.4l-0.1,0.3l-0.4,0.7l0-0.1
		l0,0.1l0.1,0.6L37,63.7l-0.2,0.4l-0.1,0.1L36.7,64.4z M36.7,62.9l0.1,0l0.3-0.3l0.1-0.2l-0.1,0L37,62.5L36.7,62.9z M36.8,53.1
		l0,0.2L36.8,53.1L36.8,53.1z M36.9,57.7l0.1-0.2l-0.1-0.1l-0.1,0.1L36.9,57.7z M36.8,51.7l0.2,0l0-0.2l-0.1,0L36.8,51.7L36.8,51.7z
		 M37,58.1l0.1-0.2l-0.1,0L37,58.1L37,58.1z M37.1,61.9l0.2,0l0-0.4l-0.2,0l0.1,0.2L37.1,61.9z M37.1,64.7l0.1-0.2l-0.1-0.1
		L37.1,64.7L37.1,64.7z M37.1,51.8l0.1-0.2l0-0.3l-0.1,0.1l0,0.3L37.1,51.8z M37.5,61.8L37.5,61.8l0.1-0.2l-0.1-0.1L37.5,61l0.1-0.1
		l-0.1-0.2l0.1-0.1l0-0.3l0.1-0.2l0-0.4l0.1-0.1l0-0.3l-0.2,0.4l0,0.1l-0.1,0.2l0,0.4l-0.1,0l0.1,0.5l0.1-0.1l0-0.3l0.1,0.8
		l-0.1,0.4L37.5,61.8z M37.3,55.6L37.3,55.6l0-0.1L37.3,55.6z M37.5,58.3l-0.2,0.2l0-0.1l0.2-0.2v-0.8l0.2-0.1l0-0.4l0.2-0.2
		l-0.1,0.8l-0.2,0.3l0.2,0.1l0.2-0.1l0,0.1l0.1,0L38,57l0.1-0.2l0.1,0.1l0.1,0.7l-0.4,0.5l-0.2,0.5l-0.1-0.6L37.5,58.3z M37.4,53.4
		l-0.1-0.1l0.1-0.5l0.1,0.4l-0.1,0.4l-0.1-0.1L37.4,53.4z M37.7,54.5l-0.2-0.4l0.1-0.1l0-0.5l0.1,0.1l0.3,1.1L37.6,55l0-0.2
		L37.7,54.5z M37.5,56.2l0,0.1L37.5,56.2L37.5,56.2z M37.7,63.1l0.3-0.3l-0.1-0.1L37.6,63L37.7,63.1z M37.8,58.7l-0.1,0.4L37.8,58.7
		L37.8,58.7z M37.7,55l0.2,0l-0.1,0.4l0.3,0.5l-0.3,0.3l0-0.3L37.7,55z M37.9,63.9l0.4-0.6l0-0.5l-0.4,0.8L37.9,63.9z M38.1,64.2
		l0.1-0.2l0.2,0l0-0.3l0.1-0.3l0-0.1l-0.1,0.1l0,0.2l-0.2,0.2l0,0.1L38,64.1L38.1,64.2z M38.2,56.4l-0.1,0.2L38,56.5L38.2,56.4z
		 M38.1,56.2L38.1,56.2L38,56.1L38.1,56.2z M38.4,64.6l0,0.1l-0.2,0l0-0.1L38.4,64.6z M38.7,63.8l0,0.2l-0.1,0.1L38.6,64L38.7,63.8z
		 M38.7,58.9L38.7,58.9l-0.1,0.2l0-0.4L38.7,58.9z M38.7,64.3L38.7,64.3l0,0.1L38.7,64.3L38.7,64.3z"/>
	<path d="M43.5,63.2l0.1,0.1l-0.2,0.1l0.1,0.1l-0.4,0l0.1-0.1l-0.4-0.1l-0.1,0.3l-0.1,0l0-0.2l-0.2,0l-0.2,0.2l-0.6,0.4l-0.6-0.4
		l-0.4-0.4l0-0.2l-0.4-0.6l0.1-0.1L40.1,62l0.1-2.8l0.1-1.3l0-0.2l0.3-2.8l1.2-6.2l0.2-0.5l0-0.2L41.5,48l-0.5-0.4l-0.2-0.4l0-0.2
		l0.3-0.2l0.4,0l0.8-0.2l0.1-0.1l0.1,0l0.5-0.8l0.4,0.1l0.3,0.1l2.7-1.1l0.3,0l0.3-0.1l0.1,0l0.5,0l0.3,0.1l0.2-0.2l0.6-0.1l0.1-0.1
		l0.2,0l0.7-0.3l-0.2,0l0.6-0.2l0,0.2l0.1-0.1l0.1,0.1l0.4,0l0.1,0.1l0.4,0l-0.1,0.2l0.6-0.4L52,44l0.1-0.1l0-0.1l0.3,0l0.5,0.1
		l0.5,0.6l0.1,0.5l-0.1,0.2l0.1,0l0,0.2l-0.1,0.1l-0.1-0.2L53,45.8l-0.2-0.2l-0.2,0l0,0.2l0.4,0.3l-0.1,0.1l0,0.3l-0.2,0.2l0,0.1
		l0.2-0.1L52.8,47L53,47l-0.1,0l-0.1,0.1l-0.5,0.1l-0.2,0.1l-0.2-0.1l-0.5,0.2l-0.5,0.1l-1.1,0.3l-0.3,0l-0.8,0.4l-0.3,0l-1,0.3
		L47,49l-0.2,0.1l-0.4,0.5l-0.2,0.5l-0.1,0.1L46,50.9l0,0.3l1.8-0.6l1.3-0.2l2,0.1l-0.3,0.3l-0.1,0.1l-1.4,0.6l-0.8,0.6l-0.1,0.4
		L48.2,53L48,53.8l-0.5,0.6l-0.8,0.4L46.2,55l-0.1,0.2L46,55l-0.7,0.2l-0.4,2.5l0.1,0l3.4-2l0.9-0.1l0.5,0.1l1,0.5l0.1,0.7l0.1-0.1
		l0,0.2l0.1,0L51,57.2l-0.1,0.4l0.2-0.3l0.1,0l-0.2,0.1l0.1,0.2l0,0.2l-0.1,0.1L51,57.9l-0.1,0.2l0.2,0l0,0.1l-0.1,0l-0.3,0.4
		l-0.1,0l0.1-0.2l-0.2,0.4l-0.2,0l-0.2,0.2L49.9,59l-0.1,0l-0.2,0.4l-0.1-0.1L49,59.4l0,0.2l-0.2,0.1l0,0.2l-0.3,0.3l-0.1,0
		l-0.1,0.1l-0.2-0.1l0-0.1L48,59.9l-0.2,0.4l0.2,0l-0.2,0.1l-0.3,0l-0.1,0.1l0.1,0.1l-0.2,0.2L47.1,61l-0.3,0.3l-0.3,0.1l-0.2,0.2
		l0-0.1l-0.2,0.2l0.1,0l-0.5,0.4l0-0.1l-0.2,0.3l-0.3,0l0.1,0.1l-0.2,0.3l0-0.1l-0.3,0.1l-0.1,0.2l-0.3,0l-0.5,0.3l0.1-0.1L43.8,63
		l-0.2,0L43.5,63.2z M43.8,63.3l-0.2-0.1l0.1-0.1L43.8,63.3z M45.6,46.5l0.2,0L45.6,46.5L45.6,46.5z M46.6,46.7l0-0.3L46.6,46.7
		L46.6,46.7z M47.4,46.5l0.1-0.2l0.2-0.1l0-0.1l-0.2,0l-0.1,0.2l-0.1,0l-0.1,0.1L47.4,46.5z M48.2,45.8L48.2,45.8l0-0.1L48.2,45.8z
		 M48.6,45l-0.1-0.1l-0.1,0.1L48.6,45z M48.4,46.7l0.1-0.2l-0.1,0L48.4,46.7z M48.7,44.8l0.5-0.1l-0.5-0.1L48.7,44.8z M48.8,46.6
		l0.1-0.2l0.2,0l0-0.1l-0.2-0.1l-0.2,0.2L48.8,46.6z M49.1,46l0-0.2L49.1,46L49.1,46z M49.4,46.6l0.2-0.2l-0.2-0.2l0.1-0.2l-0.2-0.1
		l0,0.1l-0.1,0.2L49.4,46.6z M49.9,46.2l0-0.3l-0.1,0.2L49.7,46l-0.1,0.2L49.9,46.2z M49.8,44.8l0.1,0l0.1-0.2L49.8,44.8z
		 M50.4,46.4L50.4,46.4l0-0.3L50.3,46l0-0.1l-0.1-0.1L50,46.1l0.1,0l0,0.1l0.1-0.1L50.4,46.4z M50.1,45.3l0.1,0l0.1-0.1L50.1,45.3
		L50.1,45.3z M50.5,45.3l0.1-0.1l-0.1,0L50.5,45.3z M50.6,46.1l0.1-0.3l-0.1,0L50.6,46.1z M50.8,44.6l0.2,0l-0.1-0.2l-0.3,0.1
		L50.8,44.6z M50.8,46.5l0.1-0.3l-0.3,0.1L50.8,46.5z M50.7,46.1l0.2,0l0-0.1l-0.2,0L50.7,46.1z M51,56.4l0-0.1l0.1-0.1L51,56.4z
		 M51.2,46.1L51.2,46.1L51.2,46.1L51.2,46.1z M51.3,56.6l-0.1,0.2l0-0.2L51.3,56.6z M51.7,46.3l0-0.2L51.7,46l-0.1,0.2L51.7,46.3z
		 M52.5,46.4l0.1-0.3l-0.2,0L52.5,46.4z M53.3,46.3l0,0.1l-0.1,0.1l-0.1,0L53.3,46.3z M53.4,45.9l0,0.2l-0.2,0l0-0.1L53.4,45.9z
		 M53.6,46.8L53.4,47l0.1-0.1L53.6,46.8z M53.6,45.5l0,0.3L53.6,45.5L53.6,45.5z"/>
	<path d="M67.8,45l0,0.5l0.3,0.3l0,0.1l0.1,0.2l0,0.2l-0.1-0.1L68,46.2l-0.1,0.1l0.2,0.1L68,46.6l0.2,0.3l0,0.4l-0.1,0.2l-0.3-1
		l-0.1,0.1l0,0.4l0,0.3l0,0.3l0.2,0L67.7,49l0,0.2l-0.2,0.5l0,0.1l0.1,0.1l0,0.3l-0.1-0.1l-0.1,0.4l0.2-0.1l0.1,1.2l-0.1,0.5l0,0.4
		l-0.1,0l-0.1,0.1l0.1,0.2l0,0.3l0,0.4l-0.2,0.3l0.1,0.3l-0.1,1.4l0,0.4l-0.2,0l0.3,0.8L67,60.8l-0.3,0.6l-0.1,0.6l0,0.2l-0.1,0
		l-0.2-0.1l-0.5,0l-0.2,0.2l-0.1,0l0,0.1l-0.3,0l-0.1-0.1L65,62.5l0.1-0.2l0-0.2L65,62.4l-0.4,0.2l-0.3,0l0-0.1l-0.4,0.3l0-0.2
		l-0.1,0.2l-0.1-0.1l-0.3,0.2l-0.2-0.1l-0.1,0.1l-0.3,0.3l-0.3-0.5l0-0.1l-0.1-0.1l-0.2-1.2l-3.6-7.8l-0.1,0.1l-0.1,1.1l0,0.2
		l-0.2,0.3l0.1,0.1l-0.1,0.2l0,0.2l-0.1,0.2l0.1,1l-0.2,0.5l0,0.2l-0.1,0.6l-0.4,0.5l0,0.2l-0.2,0.2l-0.2,0.6L57.1,60L57,59.9
		L56.8,60l-0.4,0.8L56.3,61l0,0.3l-0.1-0.1l-0.2,0.1l-0.1,0.5l-0.3,0.4L55,63.5l-0.3,0l-0.8-2l-0.2-2.2l0.4-6.9l0.1-0.2l0.1-1.2
		l0.7-3.8l0-1.1l0.3-0.7l0.3-0.3l0.2,0.2l0.2,0.1l0.1,0.1l0.3,0.1l0.9,0.5l1,0.3l0.2,0l0.1,0.1l0.4,0.1l0.6,0.4l0.3,0.1l0.4,0.3
		l0.7,0.8l0.8,1.4l1.3,3.1l0.1,0.1l0.2-1.2l0.1-0.1l0.5-2.2l0.2-0.7l0.2-0.8l0.1,0.1l0.2,0l0-0.3l-0.3,0.1l0.2-0.6l-0.2,0.2l0-0.3
		l1.1-2.8l0.2,0.3l-0.1,0.2l0,0.1l0.9-0.7l-0.3-0.1l0.1-0.1l0.3-0.2l-0.1-0.2l0.4,0l0.1-0.2l0.6,0.1l-0.1,0.4l0.1,0.5l0.1-0.1
		l0.1-0.6l0,0.2l0,0.6l0.2,0.2l-0.1,0.2l0,0.4l-0.1,0.1l0.1,0.1l0.1,0.3l0.2-0.1L67.8,45L67.8,45z M57.4,58.4L57.4,58.4l0-0.1
		L57.4,58.4z M57.6,57.9l0.1,0.1l0-0.4L57.6,57.9z M64.6,46.3l0.2-0.8L64.6,46L64.6,46.3z M66,52.8l0-0.2l-0.1-0.1l0,0.3L66,52.8z
		 M66.1,52.2l0-0.6l-0.1,0L66.1,52.2z M66.1,51.4l0.1,0.2L66.1,51.4L66.1,51.4z M66.1,51l0.1-0.2l0-0.2L66.1,51z M66.7,52.9l0.1-0.5
		l0.1-0.1l0-0.4l0.1-0.3l-0.2,0l-0.2-0.5l0,0.5l-0.2,0.2l0.1,0.4l0.1,0.6L66.7,52.9z M66.8,51.5l0.1-0.2l0-0.3l0.1-0.3l0-0.3l0.1,0
		l0.2-0.3l-0.1-0.1l-0.1,0.2L67.2,50l-0.2,0l-0.1,0.3l-0.1,0.2l-0.3,0L66.8,51.5z M66.6,49l0.1-0.2l-0.1,0L66.6,49z M66.8,50.3
		L66.8,50.3l0-0.4L66.6,50L66.8,50.3z M66.9,50.7l0,0.1L66.9,50.7L66.9,50.7z M66.9,49.8l0.1-0.1l0.1-0.2l0.1,0l0-0.8l-0.1,0.1
		l-0.2,0l0.1,0.7l-0.1,0.2L66.9,49.8z M67.4,51.5l0-0.3l0.1-0.2l-0.2-0.1l0,0.7L67.4,51.5L67.4,51.5z M67.4,47.4l0,0.4l-0.1,0.7
		l0,0.2l-0.1,0.5l0.1,0.2l0.1-0.8l0.2-0.5l-0.1-0.8L67.4,47.4l0-0.3L67.4,47.4z M67.7,47l-0.1-0.3L67.7,47L67.7,47z M68.5,46.6
		l0,0.1l-0.1,0.2l0-0.1L68.5,46.6z"/>
	<path d="M80.7,51.1l-0.1-0.3L80.4,51l0,0.2l-0.2,0.3l-0.1,0.4l-0.2,0.3l0.1,0.6l-0.3,0.3l0,0.4l-0.1,0.2l0,0.4l-0.3,0.5l0,0.2
		l-0.2,0l0,0.3l-0.2,0.3l0-0.4L79,55.3l0.1,0.2l-0.2,0l-0.1-0.1L79,56l-0.3,0.2l0,0.6l-0.1,0.2l0.1,0.1L78.6,57l0,0.1l-0.3,0.3
		l0,0.2l-0.2,0l0,0.4L78,58.2l0-0.4l-0.1,0.8l-0.1-0.1l-0.3,0.2l-0.1,0l-0.2,0.2l-0.2,0l0,0.3l-0.3,0.2l-0.1-0.1l0.2-0.2l-0.1-0.1
		l-0.1,0l0,0.1l-0.1,0.2l-0.1,0.3L75.9,60l-0.2,0l-0.1,0.2L75.3,60l0.1,0.2l-0.3-0.1L75,60.2l-0.2,0l0.1-0.3l-0.4,0.3l0,0.1L74,60.6
		l-0.3-0.2l-0.3,0l-0.9-0.5l-0.9-1l0-0.2l-0.2,0.1l-0.2-0.4l0-0.1L71,58.1l-0.1-0.4l-0.4-1.1L70,51.6l0.5-6.5l0.4-1.8l0.4-0.9
		l0.4-0.5l0.6,0.1l1,0.6l0.1,0l0.9,0.3l0.2,0.1l0.3,0.1l1.2,1l-0.2,0.6l-0.1,0.1l0,0.3l-0.2,0.6L75.2,47l-0.2,6.7l0.1,1l2-3.7
		l0.8-2.5l0.3-2.9l0.1-0.1l0-0.1l0.1-0.3l-0.1-0.7l-0.3-0.2l0-0.3l0.5-0.6l0.1-0.4l0-0.1l0.6-0.3l0.9,0.1l0.2,0.3l0.1,0l0.8,0.5
		l0.3,0.3L82,44l0.4,0.6l0.3,0.9L82.6,46l0,0.2l-0.2,0.4l-0.1,0.9l-0.3,0.6L82,48.6l-0.3,0.2l0,0.2l-0.3,0.3l-0.2,0.6l0,0.3
		l-0.2,0.1l-0.1,0.5l-0.1,0.1l0,0.1L80.7,51.1z M75,60.2l0.1-0.3L75,60.1L75,60.2z M76.1,59.4l0.2,0l0-0.4l-0.1,0.3L76.1,59.4z
		 M78.3,57.2l0.1-0.1l0.1,0.1l-0.1-0.7l-0.2,0.3l0.1,0.2L78.3,57.2z"/>
</g>
</svg>
