<?xml version="1.0" encoding="utf-8"?>
<!-- Generator: Adobe Illustrator 19.2.1, SVG Export Plug-In . SVG Version: 6.00 Build 0)  -->
<svg version="1.1" id="Layer_1" xmlns="http://www.w3.org/2000/svg" xmlns:xlink="http://www.w3.org/1999/xlink" x="0px" y="0px"
	 viewBox="0 0 94 147.4" style="enable-background:new 0 0 94 147.4;" xml:space="preserve">
<style type="text/css">
	.st0{fill:#F2CE36;}
	.st1{fill:#F2C324;}
	.st2{fill:#F2C91F;}
	.st3{fill:#F1B91C;}
	.st4{fill:#F2D474;}
	.st5{fill:#F0B61D;}
	.st6{fill:#F2CB22;}
	.st7{fill:#F1D34B;}
	.st8{fill:#F2CD2C;}
	.st9{fill:#F2CF2A;}
	.st10{fill:#F1D34E;}
	.st11{fill:#F3CC3D;}
	.st12{fill:#F2D447;}
	.st13{fill:#F1CE2A;}
	.st14{fill:#F2CB4E;}
	.st15{fill:#F2D475;}
	.st16{fill:#F2D46F;}
	.st17{fill:#F2D574;}
	.st18{fill:#F2D11C;}
</style>
<path class="st0" d="M71.1,85.3H13c0.4,3.3,1.6,2.3,2.5,2.3c4.7,0.2,9.5,0,14.2,0.1c11.9,0.2,23.9,0.4,35.8,0c1.5,0,3,0,4.4,0
	C70.3,86.9,70.6,86.1,71.1,85.3z"/>
<path class="st0" d="M87.1,85.3H82c0.5,0.7,0.9,1.5,1.1,2.4c0.4,0,0.7,0,1.1,0c0.9-0.1,1.9,0.3,2.8-0.9C87.2,86.5,87.3,86,87.1,85.3
	z"/>
<path class="st1" d="M29.7,86.3c-4.8,0-9.6,0-14.4,0c-0.8,0-1.6,0.7-2.3-1H3.4c0.1,1.1,0.5,1.6,0.9,1.9c3.1,2.6,6.5,2.4,9.6,2.7
	c2.7,0.2,5.5,0.2,8.2,0.1c0,0,0,0,0,0c0-0.1,0.1-0.2,0.1-0.2c0.1-0.1,0.1-0.2,0.2-0.3c0.1-0.1,0.1-0.1,0.2-0.2
	c0.1-0.1,0.2-0.2,0.4-0.4c0.1,0,0.1-0.1,0.2-0.1c0.1-0.1,0.3-0.2,0.4-0.2c0,0,0.1,0,0.1-0.1c0.2-0.1,0.4-0.1,0.6-0.2
	c0.1,0,0.1,0,0.2,0c0.2,0,0.5-0.1,0.7-0.1c0.3,0,0.5,0,0.7,0.1c0,0,0.1,0,0.1,0c0.2,0,0.4,0.1,0.6,0.2c0.1,0,0.1,0.1,0.2,0.1
	c0.1,0.1,0.2,0.1,0.4,0.2c0.1,0.1,0.2,0.2,0.3,0.2c0,0,0.1,0.1,0.1,0.1c0.2,0.2,0.3,0.3,0.4,0.5c0.5-0.1,1-0.2,1.5-0.9
	C29.9,88.1,30,87.3,29.7,86.3z"/>
<path class="st2" d="M87.1,86.3c0-0.3,0-0.7,0-1c1,0,2,0,3.1,0c-0.4,2.3-1.8,2.7-2.2,5.1C87,90,86.5,88.7,87.1,86.3z"/>
<path class="st3" d="M65.7,86.3c-12,0-24,0-35.9,0c0,0.7,0,1.3,0,2c0.5,1.8,1.3,2.1,2.1,2c1.5,0.2,2.9-1.7,4.4,0.2
	c0.7,1.7,1.2,4.2,2.6,3.7c0.6-0.1,1.1-1.5,1.9-1.6c-0.7,2.1-0.5,4.8-1.3,6.6c-0.5,0.9-1,2.6-1.7,2.2c-0.6-0.3,0-1.9-0.1-2.9
	c0.2-4.1-1.3-5.7-2.4-8c-1-1.2-2.1-0.2-3.2-0.3c-0.2,0-0.5,0.1-0.7,0.2c-0.9,0.7-1.9,0.2-2.8,0.8c0,0.2,0,0.5,0,0.8c0,0,0,0.1,0,0.1
	c0,0.2,0,0.4-0.1,0.6c0,0.1,0,0.1,0,0.2c-0.1,0.2-0.1,0.4-0.2,0.6c0,0,0,0.1-0.1,0.1c-0.1,0.2-0.2,0.4-0.4,0.6
	c0.2,1.7,1.2,1.8,1.9,2.4C30,97,30.1,97.4,30,98c-0.3,0.5-0.7,0.9-0.7,1.7c0,1.1,0.4,1,0.8,1.1c0.6,0.2,1.3-0.6,1.8,0.7
	c2.2,2.1,3.6,5.8,4.4,10.9c0.7,4.4,0.5,8.9,0.4,13.3c0,2-0.2,4.4,1.1,4.3c1.3-0.1,1.2-2.5,1-4.5c-0.4-5.2-0.2-10.3,0.1-15.4
	c0.1-2.9,0.6-5.9,2-6.6c4.5-2.6,8-3,11.5,7.9c0.5,1.5,0.5,3.3,0.8,4.9c0.8,4.7-0.1,9.4,0.2,14c1.9,0.2,2.3-0.6,1.8-5.1
	c-0.4-4.6-0.1-8.8,0.8-12.9c0.6-2.9,1.5-5.3,2.7-7.1c0.7-1.2,1.5-1.5,2.4-1.4c0.6,0.1,1.4,0.4,1.3-1.9c-0.9-2.8-0.9-4.5,0.9-4.4
	c0.4,0,0.8-0.2,1.2-0.9c0.3-2.7,0.1-5.9,1.4-7.5C66,88.1,66,87.2,65.7,86.3z"/>
<path class="st2" d="M85,97.3c-0.4,1.6-0.8,2.5-1.5,1.4c-1.9-2.8-3.5-0.7-5.1,1.6c-0.6,0.9-1.1,2.6-2.1,2.4c-0.1-2.1-0.6-4-1.1-5.8
	c0-0.1-0.1-0.2-0.1-0.3c-3-0.6-4.7-2.9-5.2-5.5c-1.3-0.1-2.7-0.5-4-1.5c-0.1-0.1-0.2-0.1-0.3-0.2c-2.6,0.2-1.5,4.1-1.3,7
	c0.1,0.8,0.4,1.5,0.7,2.1c0.1,0.3,0.3,0.5,0.5,0.7c1.7,0.6,3,3.3,4.6,4.2c1.7-1.1,3,0.4,4.1,3c1.7,3.8,2.2,8.5,1.7,13.7
	c-0.3,2.9,0.2,4.3,1.4,4.3c1.2,0.1,1.1-2,1-3.9c-0.2-4-0.1-7.7,1.4-10.4c0.8-1.4,1.7-2.1,2.7-1.2c1,0.9,1.4,2.8,1.3,5.2
	c0,0.8,0,1.7,0.1,2.5c0.2,1.6,0.6,2.8,1.4,2.6c0.8-0.2,0.7-1.8,0.8-3.1c0.4-8,0.4-16.1,1.8-23.7C86.2,92.4,85.5,94.8,85,97.3z"/>
<path class="st4" d="M63.6,35.1c-0.4,0.8-0.8,1.2-1.5,0.7c-1.9-1.4-3.5-0.4-5.1,0.8c-0.5,0.4-0.9,1-1.6,1.2
	c-0.7,0.7-1.7,1.1-2.9,1.1c-0.2,0-0.4,0-0.6-0.1c0.3,0.2,0.6,0.5,0.9,0.8c1.7,1.9,2.2,4.2,1.7,6.8c-0.3,1.4,0.2,2.1,1.4,2.2
	c1.2,0,1.1-1,1-2c-0.2-2-0.1-3.8,1.4-5.2c0.8-0.7,1.7-1.1,2.7-0.6c1,0.5,1.4,1.4,1.3,2.6c0,0.4,0,0.8,0.1,1.2
	c0.2,0.8,0.6,1.4,1.4,1.3c0.8-0.1,0.7-0.9,0.8-1.5c0.6-5.5,0.9-9.5,1.8-11.8C64.8,32.7,64.2,33.9,63.6,35.1z"/>
<path class="st4" d="M48.2,36.2C48.2,36.2,48.2,36.2,48.2,36.2c-0.9-1.3-1.1-2.9-0.6-4.3c-1-0.1-2-0.3-3-0.7c-0.1,0-0.2-0.1-0.3-0.1
	c-2.6,0.1-1.5,2-1.3,3.5c0.1,0.4,0.4,0.7,0.7,1c0.1,0.1,0.3,0.3,0.5,0.4c1.7,0.3,3,1.6,4.6,2.1c0.3-0.1,0.6-0.1,0.8-0.2
	C48.9,37.5,48.5,36.9,48.2,36.2z"/>
<path class="st5" d="M88.1,90.5c-0.5-1.2-1.1-2.2-0.9-4.2c-0.9,0-1.8,0-2.6,0c0.1,2.8-0.6,3.1-1.3,2.9c0.2,3.6-2.1,7.4-6.7,7.4
	c-0.9,0-1.7-0.1-2.4-0.4c0.1,0.8,0.4,1.8,1.2,2.9c0.4,0.6,0.4,1.7,0.2,2.7c-0.2,1.2-0.3,2.3,0.3,3c0.5,0.6,0.8-0.3,1.1-0.9
	c0.6-1,1.1-2.1,1.8-2.9c1.5-2,3-4.6,4.7-0.6c0.6,1.5,1.6,1.1,1.7-0.8c0.2-3.7,1.5-5.1,2.4-7.2C88,92,88.1,91.3,88.1,90.5z"/>
<path class="st6" d="M16.1,96.5c-2.1,0.5-3.3,2.7-3.7,8c-0.8,11.4-0.9,22.8-0.7,34.2c0,1.7,0.1,3.5-0.8,4.1
	c-0.8,0.5-1.4-0.3-1.3-2.2c0.8-10.8,0-21.5-0.1-32.2c-0.4-2.3-0.4-4.8,0-7.1c0.3-2,0.1-3.4-0.4-4.9c-0.4-1.7-0.9-3.2-1.7-4.2
	c-0.3-3.4,0.7-2.7,1.6-2.6c2,4.6,4.7,3.9,7.1,5.4C16.2,95.5,16.2,96,16.1,96.5z"/>
<path class="st7" d="M21.7,91.4C21.7,91.4,21.7,91.4,21.7,91.4c0-0.2,0.1-0.4,0.1-0.7c0,0,0,0,0,0c0.1-0.2,0.1-0.4,0.2-0.6
	c0,0,0,0,0,0c0.4-0.8,1.1-1.4,2-1.7c0,0,0,0,0,0c-6.6,0-13.2-0.3-19.8-1.2c1,1.6,2,3.3,3.1,4.9c0.1-2.7,1.1-1.6,1.7-1.8
	c1.1,1.4,2.3,2.1,3.5,2.2c2.1,0.1,4.2-0.2,6.3,0c1,0.1,1.9,0.2,2.9,0.2c0,0,0,0,0,0C21.7,92.3,21.7,91.9,21.7,91.4z"/>
<path class="st7" d="M31.9,89.4c-0.7-0.3-1.5-0.7-2.2-1c-1.2,0-2.4,0.1-3.5,0.1c0,0,0,0,0,0c1.3,0.3,2.1,1.4,2.4,2.5c0,0,0,0,0,0
	c0,0.2,0.1,0.4,0.1,0.6c0,0,0,0,0,0c0,0.2,0,0.4,0,0.6c0.9-0.2,1.9-0.5,2.8-0.8c0.1,0,0.3,0,0.4-0.1C32.2,90.7,32.2,90,31.9,89.4z"
	/>
<path class="st8" d="M16.1,96.5c0-0.4,0-0.7,0-1.1c1.8-2.1,2.9,1.4,4.2,2.9c2.6,6.1,5.1,3.6,7.7-0.1c1-0.8,2-1.7,3,0.2
	c-0.2,1.3-0.9,0.7-1.3,1.5c0.7,1.2,1.7-0.5,2.2,1.7c-1.6-0.3-2.9,0.5-4.3,2.5c-2.7,4-4.7,3.6-7.1-1.1
	C19.1,100.3,17.6,98.4,16.1,96.5z"/>
<path class="st9" d="M58.6,105.2c0.4-2,1.2-1.9,2-1.9c0.6,0,1.4,0.3,1.4-1.9c0.1-0.2,0.1-0.3,0.2-0.5c1-0.9,1.8,0.4,2.6,1.3
	c0.9,1,1.8,1.9,2.9,1.1c0.5,0.3,1.7-1.9,1.3,1.7c-1.3,3.7-2.8,4.5-4.5,1.9C62.7,104.1,60.7,103.8,58.6,105.2z"/>
<path class="st10" d="M69.1,105c-0.2-2.4-0.9-0.1-1.3-0.7c-0.8-2.1-2.5-2.3-2.6-6c1.9,0.2,3.6,1.6,4.8,5.1
	C69.7,103.9,69.4,104.5,69.1,105z"/>
<path class="st11" d="M53.4,130.4c1.6,0,1.9-1.8,1.6-5.2c-0.4-4.5-0.4-9.1,1.1-12.9c-0.4,4.8-0.9,9.4-0.4,14.5
	C55.9,130.7,55.1,131.8,53.4,130.4z"/>
<path class="st11" d="M52.4,111.4c1.6,4.7,1.6,10.1,1.2,15.6c-0.1,1.1-0.2,2.2-0.3,3.3c-0.6-0.7-0.5-1.9-0.4-3
	C53.5,121.9,53,116.7,52.4,111.4z"/>
<path class="st12" d="M9.1,96.4c1,1.4,1.7,2.6,0.7,5.7c-0.5,1.5-0.2,4.1-0.3,6.2C8.7,104.5,9.5,100.3,9.1,96.4z"/>
<path class="st2" d="M70.6,86.3c-1.6,0-3.3,0-4.9,0c0,1,0,2,0,3c0,0,0,0.1,0,0.1c0.3,0.7,0.8,0.8,1.2,0.9c1,0.4,2,0.5,3.1,0.5
	C69.7,89.3,69.9,87.7,70.6,86.3z"/>
<path class="st2" d="M84.5,86.3c-0.7,0-1.3,0-2,0c0.6,1.2,0.8,2.6,0.7,4c0.6-0.2,1.1,1.7,1.7-0.1S84.7,87.6,84.5,86.3z"/>
<path class="st7" d="M30.6,96.3c-1.7-0.6-3.4-1.3-5.1-0.6c-1.4,0.6-2.8,0.3-4.2-2c0.3,0,0.6-0.1,0.9-0.1c-0.4-0.7-0.5-1.6-0.4-2.4
	c0,0,0,0,0,0c-4.2-0.1-8.4-0.2-12.7-0.9c1.7,6.3,4.5,4.7,7,5c1.6-0.1,2.7,2.3,4,3.9c2.6,1.8,5.2,1.8,7.8,0c1-0.3,2.1-0.6,3.1-1
	C31,97.5,30.9,96.7,30.6,96.3z"/>
<path class="st7" d="M28.1,93.9C28.1,93.9,28.1,93.9,28.1,93.9c-0.1,0.1-0.2,0.2-0.2,0.3c-0.1,0.1-0.1,0.1-0.2,0.2
	c-0.1,0.1-0.2,0.2-0.3,0.2c-0.1,0.1-0.1,0.1-0.2,0.2c-0.1,0.1-0.3,0.2-0.4,0.2c-0.1,0-0.1,0.1-0.2,0.1c-0.2,0.1-0.4,0.1-0.6,0.2
	c0,0-0.1,0-0.1,0c-0.2,0-0.5,0.1-0.7,0.1c-0.3,0-0.5,0-0.8-0.1c-0.1,0-0.2,0-0.2-0.1c-0.1,0-0.3-0.1-0.4-0.1c-0.1,0-0.2-0.1-0.3-0.1
	c-0.1-0.1-0.2-0.1-0.3-0.2c-0.1-0.1-0.2-0.1-0.3-0.2c-0.1-0.1-0.2-0.1-0.2-0.2c-0.1-0.1-0.2-0.2-0.2-0.3c0-0.1-0.1-0.1-0.1-0.2
	c-0.1-0.1-0.1-0.2-0.2-0.4c0-0.1,0-0.1-0.1-0.2c-0.1-0.1-0.1-0.3-0.2-0.4c0,0,0-0.1,0-0.1c0-0.2-0.1-0.3-0.1-0.5c-0.3,0-0.7,0.1-1,0
	c-0.4-0.1-0.8,0-0.9,1c-0.1,0.9,0.3,1.5,0.6,1.8c1.7,1.3,3.3,3,5.1,2c1.7-1,3.3-0.7,5-0.8C30,94.6,28.6,96,28.1,93.9z"/>
<path class="st13" d="M38.9,93.3c0.9-1.1,1.6-3.9,2.9-1.1c-1.7,1.4-0.8,6.1-2.1,8.1c-0.7-1.1-1.6-0.4-2.2-1.8
	C37.3,95.9,38,94.5,38.9,93.3z"/>
<path class="st14" d="M31.9,91.3c0-0.6,0-1.3,0-1.9c1.6-0.4,3.2-2.3,4.8,0c0.3,3.1-0.4,3-1.3,2.1C34.2,91.4,33.1,91.3,31.9,91.3z"/>
<path class="st1" d="M35.4,91.4c0.6-0.1,1.3,0,1.3-2.1c0.6,1.7,0.8,4.7,2.2,4c-0.4,1.7-0.9,3.3-1.3,5c0.1,0.9,0,1.2-0.4,1
	C37.8,95.3,35.5,94.6,35.4,91.4z"/>
<path class="st15" d="M37.2,99.3c0.1-0.3,0.3-0.7,0.4-1c0.8,0.4,1.9-1.3,2.2,2c-0.4,0.7-0.8,1.4-1.3,1.9c-0.5,0.5-1,2.4-1.5,1.5
	C36.3,102.5,36.9,100.8,37.2,99.3z"/>
<path class="st9" d="M64.3,96.3c0.4,0.1,0.7,0.2,0.9,1.1c-0.5,1.1-1.2,1.2-1.8,1.1c-0.9-0.1-1,1.3-1.2,2.8c0,0,0,0.1,0,0.1
	c-0.8-0.3-1.3-1.3-1.2-3.3c0.1-2.2,0.9-1.7,1.5-1.8C63,96.3,63.7,96.3,64.3,96.3z"/>
<path class="st16" d="M62.1,101.3c-1-2.8-1-4.4,0.9-4c0.7,0.1,1.5,0.1,2.2,0.1c0,0.3,0,0.6,0,0.9c0.6,2.6,2.5,2.3,2.6,6
	c-0.8,1.4-1.5,0.8-2.4-0.2C64.4,102.9,63.4,101.3,62.1,101.3z"/>
<path class="st13" d="M69.8,89.4c-1.4,0-2.8,0-4.2,0c0,1.5,0.5,1.7,1,2c1.2,0.7,2.4,1,3.6,1C70,91.4,69.8,90.4,69.8,89.4z"/>
<path class="st7" d="M78.5,109.1c-0.5-0.1-1-1-0.6-1.7c1-1.6,2-3.9,3.3-4.2c0.5-0.1,1.3,0.2,1.4,1.8c0.1,2.2-0.8,1.1-1.3,1.5
	C80.3,107.3,79.4,108.2,78.5,109.1z"/>
<path class="st17" d="M20.1,99.3c1.2-2.5,2.3,0.1,3.5,0.3c1.5,0.3,2.9-2.5,4.3-0.3C24.6,104.9,23.1,104.9,20.1,99.3z"/>
<g>
	<path class="st3" d="M82.4,63.2c-3.7,0-6.7-2.3-10.4-2.5c-2.3-0.1-2.4-2.3-2.2-4.2c0.2-1.7,1.6-2.8,1.8-4.5
		c-3.3-2.4-6.4-6.4-10.8-4.3c-7.7,3.7-15.4,4.2-23.5,2.6c-3.8,4.1-8.9,6.2-13.3,9.2c-4.7,3.2-8.4,2.9-12.9,2.5c-3,3.5-4.6,7.7-6,12
		c2.4,2.8,5.9,4.3,8.9,2.9c5-2.4,9.9-3.4,15.5-3.3c3.9,0,7.4-2.7,9.9-6.1c2.3-3.1,4.1-6.5,6.7-9.3c1.2-1.3,2.8-2.1,4.4-0.9
		c1.8,1.4,0.9,3.1-0.2,4.3c-2.4,2.7-4.7,5.7-8.1,7.3c-2.8,1.3-4.6,3.2-5.1,6.3c-0.3,1.7-1,3.4-3,3.4c-3.4,0.2-7,1.1-9.9-1.9
		c-2.5-2.5-4.5-1.2-6,1.3c-0.9,1.6-1.7,3.3-1,5.2c1.9,1.4,3.9,1.5,6.1,0.7c5.1-1.8,5.2-1.7,6.7,3.5c0.3,1,0.6,1.9,1.3,2.6
		c2.6,1.1,5.3,0.9,8,0.8c1.5-1.9,3.4-2.8,5.9-3.1c4-0.4,7.7-2,10.9-4.5c5.2-4.1,10.6-7.7,17.9-5.8c1.9,0.5,4.1-0.5,5.5-1.9
		c2.3-2.1,4.9-2.3,7.7-2.5C86.4,69.5,84.8,66.1,82.4,63.2z M29.2,64.9c-4.6,0-4.6-7.2,0-7.2C33.8,57.7,33.8,64.9,29.2,64.9z
		 M55.2,82.1c-6.5,0-6.5-10.1,0-10.1C61.7,71.9,61.7,82.1,55.2,82.1z M62.7,60c-4.3,0-4.3-6.7,0-6.7C67,53.3,67,60,62.7,60z"/>
	<path class="st6" d="M48.4,2.3c-2.6,2.5-4.7,5.5-8.2,6.8c-1.1,0.4-2.1,1.5-2.1,2.6c-0.1,1-0.3,1.8-0.6,2.6c0.9,2.1-0.2,5.1-3.2,5.1
		c-1,0-1.8-0.3-2.3-0.9c-0.6,0.2-1.1,0.3-1.7,0.4c-0.6,4.6,0.5,9.7-3.7,13.2c1.2,3.2,2.9,6.1,5.9,8c4.1-1.8,6.4-5.2,7.6-9.3
		c0.7-2.4,1.7-4.2,4.6-4.4c8.7-0.7,14-8.1,21.6-11.1C62.7,7.5,56.6,3.5,48.4,2.3z M57.4,13.4c-2.9,0-2.9-4.5,0-4.5
		C60.3,8.9,60.3,13.4,57.4,13.4z"/>
	<path class="st6" d="M5.2,74.1c5.3,2.4,10.4,3.6,14.8-1.9c1.1-1.4,2.4-0.4,3.7-0.1c5.6,1.5,10.8-0.2,14.3-4.8
		c2.3-3,4.5-6.1,6.6-9.3c2-3.1,4.9-4,7.5-1.8c2.5,2.1,1.5,4.8-0.9,6.8c-3.2,2.8-5.5,6.7-10,8c-2.1,0.6-2.7,2.7-2.8,4.9
		c-0.1,3.3-1.8,5-5.1,4.4c-3.5-0.6-8.1,2.3-10.4-3.2c-0.7-1.6-2.5-0.5-3.1,0.7c-0.9,1.7-1.6,3.6-2.4,5.5c-1.7,1.9-2.6,4.9-6.1,4.2
		c-0.2,0-0.4,0-0.5,0c-2.3-1.7-6.5,1.2-7.6-2.2C2.1,81.5,3.8,77.6,5.2,74.1z"/>
	<path class="st13" d="M87.3,73.1c-2.6-1.8-4.7-2.1-7.3,0.7c-2.3,2.5-5.4,3.7-9,1.8c-1.5-0.8-3.2-0.7-4.7,0.3
		c-2.2,1.4-4.6,2.5-6.8,3.7c-0.7,1.4-2.1,2.5-4.2,2.6c-0.6,0.5-1.3,1-1.8,1.5c-2.4,2.3-6,3.6-9.1,3.2c-3.9-0.5-4.7,1.1-4.9,4.2
		c4.7,0,9.4-0.1,14-0.1c2.4-0.2,3-2.2,3.9-3.9c1.9-3.7,3.3-3.7,5.2-0.1c1.2,2.2,2.5,3.5,5,2.4c0.7,0,1.5-0.1,2.2-0.1
		c-0.2-3.6,2-7.4,6.7-7.4c1.5,0,2.7,0.4,3.7,1c0.1-0.1,0.1-0.1,0.2-0.2c1.2-2.6,2.1-6.1,5.8-2.1c0.8,0.9,2.1,0.8,3.1-0.2
		C88.6,77.8,88,75.5,87.3,73.1z"/>
	<path class="st3" d="M67.9,22.9c0.1-1,0.2-2-0.4-2.9c-0.4-1.6-0.9-3.2-1.3-4.7c-4.8,0.4-8.5,2.8-12,6c-3,2.7-6.8,4.1-10.9,4
		c-1.6,0-3.4,0.2-3.5,2c-0.4,5.5-4.2,9-7.3,13c0.7,1.1,1.7,1.7,2.9,2.1c0.7,0.3,1.4,0.2,1.8-0.3c2.8-3.3,6.1-3.3,9.9-2.1
		c2.3,0.7,4.4,0.3,6.2-0.9C53,39,52.6,39,52.3,39c-6.8,0-6.8-10.5,0-10.5c3.3,0,5,2.5,5.1,5.1c0.5-1.7,0.5-3.5,0.2-5.5
		c-0.3-1.7,0.2-3.4,1.8-4.3c1.8-1.1,2.6,0.6,3.7,1.6c1.1,1.1,2.4,2,4,1.1C68.5,25.7,67.8,24.1,67.9,22.9z"/>
	<path class="st4" d="M67.5,20c0,0.5,0,1-0.1,1.5c-0.3,1.5,0.9,3.7-1.2,4.4c-2.1,0.6-2.6-1.6-3.4-2.9c-1.5-2.8-3.5-1.6-4.8-0.2
		c-1.9,2-2.4,4.3-1.6,7.3c0.1,0.3,0.1,0.5,0.1,0.8c1.9,3.1,0.5,8.3-4.2,8.3c-0.6,0-1.1-0.1-1.6-0.2c-1,0.2-2,0.1-3.1-0.2
		c-5.3-1.9-9.2-0.9-12.3,3.6c1.7,1.6,3.8,2.4,6,2.7c1.8-1.2,3.4-1.2,5,0.3C60.5,45.3,71.1,32.5,67.5,20z"/>
	<path class="st6" d="M28.3,47.5c-6.9,3.4-13.2,7.5-17.1,14.6c0.6,0.2,1.3,0.2,1.9,0.5c3.4,1.9,7.1,6.1,9.2-1.5
		c0.2-0.8,2.2-1.4,3.5-1.5c0.1,0,0.2,0,0.3,0c0.2-0.5,0.6-0.9,1.1-1.3c0,0,0,0,0,0c0.1-0.1,0.3-0.2,0.4-0.2c0,0,0,0,0,0
		c0.1,0,0.1-0.1,0.2-0.1c0,0,0,0,0,0c0.1,0,0.2-0.1,0.3-0.1c0.4-0.1,0.7-0.2,1.2-0.2c0.2,0,0.5,0,0.7,0.1h0c0.1,0,0.3,0.1,0.4,0.1
		c0,0,0.1,0,0.1,0l0,0c0.2,0.1,0.4,0.2,0.6,0.3l0,0c3-1.6,5-4.3,6.4-7.9C34.3,49.5,31.9,45.8,28.3,47.5z"/>
	<path class="st18" d="M25.5,19.1c1.6,1.4,3.2,1.3,4.8,0.1c1.1,0.1,2.1,0.1,3.1,0.1c-3.8-0.8-3.5-7.1,0.8-7.1c3.5,0,4.3,4.2,2.5,6.1
		c1.2-0.9,1.9-2.4,1.9-5.2c-0.1-1.9,1.6-3.2,3.5-3.8c3.6-1,5.4-3.6,6.2-7C36.9,1.8,28,8.3,25.5,19.1z"/>
	<path class="st7" d="M22,89.3c0.2-0.4,0.4-0.7,0.7-1c0.1-0.1,0.1-0.1,0.2-0.2c0.1-0.1,0.2-0.1,0.2-0.2c0.1-0.1,0.3-0.2,0.5-0.3
		c0,0,0.1,0,0.2-0.1c0.2-0.1,0.3-0.1,0.5-0.2c0.1,0,0.1,0,0.2,0c0.2,0,0.5-0.1,0.7-0.1c0.3,0,0.5,0,0.8,0.1c0.1,0,0.2,0,0.2,0.1
		c0.1,0,0.3,0.1,0.4,0.1c0.1,0,0.2,0.1,0.3,0.1c0.1,0.1,0.2,0.1,0.3,0.2c0.1,0.1,0.2,0.1,0.2,0.2c0.1,0.1,0.1,0.1,0.2,0.2
		c0.1,0.1,0.2,0.2,0.2,0.3c0,0,0,0,0,0.1c0.3,0.4,0.5,0.9,0.7,1.4c1,0.1,1.9,0.1,2.9,0.2c0-2-0.2-3.9-0.7-5.8
		c-1-3.6-3.7-4.3-5.9-2.5c-2.5,2.1-4.9,1.2-7.3,1.3C14.3,83,14,87,11.3,87.3C14.8,88.1,18.4,88.8,22,89.3L22,89.3z"/>
	<path class="st6" d="M82.4,63.2c-0.9,2.1-2.2,1.4-3.7,0.7c-1.5-0.7-2.9-1.6-4.6-1.7c-2.2-0.1-5,0.8-5.6-2.6
		c-0.5-3.1-0.3-6.1,3.2-7.6C76.4,54.7,79.9,58.5,82.4,63.2z"/>
	<path class="st13" d="M89.3,81.1c-3.4-0.9-6.6,0.2-9.9,1c0,0-0.1,0-0.1,0.1c2.3,1,3.5,3.1,3.8,5.4c0.8-0.1,1.7-0.3,2.5-0.4
		C90,86.8,91.3,85,89.3,81.1z"/>
	<path class="st3" d="M25.5,19.1c1.6,0,3.2,0,4.8,0.1c2.1,7.5,1.2,10.4-3.9,13C24.5,27.9,23.9,23.6,25.5,19.1z"/>
	<path class="st6" d="M53.5,90.9c1.9-1.1,2.3-3.1,2.8-4.9c0.7-2.5,2.5-3.5,4.7-3.6c2.1-0.1,2.3,1.9,2.6,3.5c0.4,2.2,1.7,3.4,4.1,3.3
		C63,90.8,58.2,89.9,53.5,90.9z"/>
	<path class="st6" d="M89.3,81.1c-3.3,0.7-6.4,2.6-9.9,1c0.3-0.9,0.7-1.8,1-2.7c1.1-3.1,2.5-5.1,5.1-1c0.9,1.5,2.2,1.8,3.7,1.7
		C89.3,80.5,89.3,80.8,89.3,81.1z"/>
	<path class="st3" d="M41.4,44.9C41,43.9,41,43,42.5,43.2c1.6,0.1,3.7-0.6,4,2.1C44.8,45.1,43.1,45,41.4,44.9z"/>
</g>
</svg>
