<?xml version="1.0" encoding="utf-8"?>
<!-- Generator: Adobe Illustrator 19.2.1, SVG Export Plug-In . SVG Version: 6.00 Build 0)  -->
<svg version="1.1" id="Layer_1" xmlns="http://www.w3.org/2000/svg" xmlns:xlink="http://www.w3.org/1999/xlink" x="0px" y="0px"
	 viewBox="0 0 375 271.5" style="enable-background:new 0 0 375 271.5;" xml:space="preserve">
<style type="text/css">
	.st0{fill:#F9EA9F;}
	.st1{fill:#F9DE87;}
	.st2{fill:#F8D97A;}
	.st3{fill:#F8D36D;}
	.st4{fill:#EFC257;}
	.st5{fill:#F9E69A;}
	.st6{fill:#F0BA46;}
	.st7{fill:#F8D37D;}
	.st8{fill:#EEBC4A;}
	.st9{fill:#F7CC64;}
	.st10{fill:#F8D47C;}
	.st11{fill:#F1BC49;}
	.st12{fill:#F7D379;}
	.st13{fill:#F4CE6B;}
	.st14{fill:#EDBE51;}
	.st15{fill:#F0BA48;}
	.st16{fill:#EEBB4A;}
	.st17{fill:#F8D278;}
	.st18{fill:#F1CB63;}
	.st19{fill:#F1C55B;}
	.st20{fill:#EEBD4F;}
	.st21{fill:#F7CD64;}
	.st22{fill:#F1BC4A;}
	.st23{fill:#EDBE52;}
	.st24{fill:#F8D26C;}
	.st25{fill:#F8E595;}
	.st26{fill:#F1C55C;}
	.st27{fill:#F8D169;}
	.st28{fill:#F9E29D;}
	.st29{fill:#FAEEC1;}
	.st30{fill:#FAE6AD;}
	.st31{fill:#FAE6A9;}
	.st32{fill:#FBEEC9;}
	.st33{fill:#F9DE88;}
	.st34{fill:#F4CE6A;}
	.st35{fill:#F5E892;}
	.st36{fill:#F1E183;}
	.st37{fill:#F8EBA0;}
	.st38{fill:#F5E99B;}
	.st39{fill:#F4E46B;}
	.st40{fill:#F6EA87;}
	.st41{fill:#F0DF75;}
	.st42{fill:#F4E999;}
	.st43{fill:#F5E891;}
	.st44{fill:#F7E979;}
	.st45{fill:#EACC52;}
	.st46{fill:#E6C224;}
	.st47{fill:#F8ED95;}
	.st48{fill:#FBF2AF;}
	.st49{fill:#E7C222;}
	.st50{fill:#EED64D;}
	.st51{fill:#FAEF8F;}
	.st52{fill:#F8ED80;}
	.st53{fill:#EBD864;}
	.st54{fill:#F5EA9A;}
	.st55{fill:#EDDF80;}
	.st56{fill:#ECD766;}
	.st57{fill:#F4EBC0;}
	.st58{fill:#DCAE27;}
	.st59{fill:#EED442;}
	.st60{fill:#ECD74C;}
	.st61{fill:#ECD649;}
	.st62{fill:#EBD84A;}
	.st63{fill:#EED43B;}
	.st64{fill:#F3DF53;}
	.st65{fill:#F3E289;}
	.st66{fill:#F2E592;}
	.st67{fill:#DDB128;}
	.st68{fill:#ECD02E;}
	.st69{fill:#E8C621;}
	.st70{fill:#F5E687;}
	.st71{fill:#F3E384;}
	.st72{fill:#E1BB26;}
	.st73{fill:#F4E690;}
	.st74{fill:#F1E084;}
	.st75{fill:#F0DF77;}
	.st76{fill:#EACF5E;}
	.st77{fill:#EDD56B;}
	.st78{fill:#E9C851;}
	.st79{fill:#EBD161;}
	.st80{fill:#F9D878;}
	.st81{fill:#F2C76C;}
	.st82{fill:#EEBA56;}
	.st83{fill:#ECB75A;}
	.st84{fill:#E9AE45;}
	.st85{fill:#E9AF46;}
	.st86{fill:#F0C267;}
	.st87{fill:#E9A93E;}
	.st88{fill:#EBB54F;}
	.st89{fill:#EEBF62;}
	.st90{fill:#F1C263;}
	.st91{fill:#EEC061;}
	.st92{fill:#E7AB3E;}
	.st93{fill:#ECB952;}
	.st94{fill:#EBB654;}
	.st95{fill:#EAAE45;}
	.st96{fill:#E9B248;}
	.st97{fill:#EEBA57;}
	.st98{fill:#ECB95D;}
	.st99{fill:#F3C96F;}
	.st100{fill:#E9AE46;}
	.st101{fill:#E9AF47;}
	.st102{fill:#E9AA3F;}
	.st103{fill:#ECB551;}
	.st104{fill:#F1C365;}
	.st105{fill:#E7AC3F;}
	.st106{fill:#EDBA54;}
	.st107{fill:#EBB755;}
	.st108{fill:#E9B349;}
</style>
<g>
	<path class="st0" d="M2.9,162.1c-0.1,1.3-0.8,2.1-2,2.6c-4.4,1.9-8.9,3.8-13.3,5.7c-1.8,0.8-3,0.3-3.8-1.6
		c-6.1-14.4-12.2-28.9-18.4-43.3c-4.6-10.7-9.1-21.4-13.8-32.1c-0.5-1.3-1.4-2.4-1.9-3.6c-0.6-1.4-1.2-2.9,0.6-4
		c0.2,2.7,2,3.8,4.3,4.8c2.7,1.2,5.1,2.9,8.1,3.6c1.1,0.3,1.7,1.3,2.3,2.2c2.2,3.2,5.3,4.5,9.1,4.7c2.5,0.1,5,0.7,7.6,0.8
		c1.4,0.1,2.4,0.9,3.1,2.1c0.8,1.3,1.3,2.7,1.9,4.2c0.5,1.4-0.5,2.6-0.5,3.9c-0.1,1.3,0.2,2.3,1.6,2.8c1.2,1.6,2.9,2.7,4.4,4.1
		c1.2,1.3,3,0.8,4.5,0.2c1.4-0.5,2.7-1.1,4-1.6c1.2-0.2,1.9-1.1,2.9-1.7c1.4-0.4,2.7-0.1,4,0.4c1.7,0.7,3.3,1.5,5.2,1.3
		c1-0.2,1.6,0.6,1.9,1.4c1.1,2.8,3.2,3.6,6.1,3.4c3.5-0.3,6.7,1.2,9.7,2.6c6.7,3.1,13.5,5.9,20.2,9c1.7,0.8,3.3,1.5,4.1,3.3
		c0.4,0.9,1.3,1,2.2,0.9c3.4-0.3,6.5-1.4,9.5-2.7c0.8-0.3,1.5-1,2.4-0.4c-0.7,2.2-3,2.1-4.6,2.8c-14.1,6.1-28.4,12.1-42.6,18.1
		c-3,1.3-6.1,2.6-9.1,3.9c-0.8,0.4-1.7,0.3-2.5,0.3c-2.2,0.1-4.3-0.2-6.5,0.4c-0.2-1.8,1.2-1.6,2.2-1.8c1-0.2,2.1,0.1,3.3,0
		c-2.3-2-4.9-2.5-6.2-1.3C1.8,158.7,1.7,160.4,2.9,162.1z"/>
	<path class="st1" d="M-13.4,108.2c-1.1-0.9-1.1-2.3-1.7-3.5c-0.9-1.9-2.2-2.6-4.2-2.7c-3.2-0.2-6.3-0.5-9.5-1.1
		c-3-0.6-5.1-2.4-6.7-4.7c-0.8-1.2-1.7-1.8-3.1-2.1c-3.6-0.6-6.3-3.4-9.7-4.6c-1.7-0.6-1.6-2.3-1.2-3.9c2.4-1.9,5.4-2.6,8.1-3.7
		c3-1.2,6-2.5,8.9-3.7c1.4,0,2.4-1.8,4-0.7c0.7,1.9-0.5,2.9-1.9,4c4.5-1.3,8,0.5,11.5,2.9c3.4,2.3,7.5,2.8,11.2,4.4
		c1.9,0.8,3.8,1.5,5.4,2.7c1.2,1,2.6,1.4,4.2,1.3c0.5,0,0.9,0.1,1.3,0.3c0.9,1,1.9,1.5,3.3,1.4c1-0.1,2,0.2,2.9,0.7
		c7.4,3.6,15,6.5,22.5,9.7c1.4,0.6,2.9,1,4.3,1.5c6.8,2,12.8,5.7,19.3,8.3c0.7,0.3,1.3,0.6,1.6,1.4c0.1,0.4,0.3,0.8,0.3,1.2
		c0.4,3.9,1.5,5.1,5.5,5.9c1.2,0.2,2.1,0.7,2.6,1.9c1.4,3.1,2.6,6.3,3.6,9.6c-3.7,1.6-7.5,3.3-11.6,3.7c-1.4,0.1-2.9,0.6-3.3-1.6
		c-0.2-1.1-1.4-1.6-2.4-2c-6.2-2.5-12.1-5.7-18.4-8c-2.2-0.8-4.2-2.1-6.5-2.9c-2.2-0.8-4.4-1.3-6.7-1.1c-3,0.3-4.6-0.8-5.9-3.6
		c-0.3-0.7-0.5-1.6-1.4-1.3c-2,0.6-3.6-0.4-5.2-1.1c-1.4-0.6-2.8-0.8-4.2-0.7c-0.3-0.2-0.4-0.5-0.5-0.9c-0.2-1.4,0-2.7-0.1-4.1
		c-0.2-3-1.7-5.1-4.3-6.5c-2.8-1.4-5.4-1.2-7.9,0.7c-0.9,0.7-1.6,1.4-2.3,2.2C-12.1,108.1-12.6,108.8-13.4,108.2z"/>
	<path class="st2" d="M-4,71.7c0.1,0.3,0.1,0.5,0.2,0.8c0.1,3.1,0.7,3.7,3.4,3.2c0.9,0.1,1.8,0.4,2.6-0.2c1,0.5,1.7,0.2,2.2-0.7
		c0.4-0.2,0.9-0.4,1.3-0.6c2,3.9,6,6,8.5,9.6c1,1.4,2.7,1.5,4.3,0.6c0.6-0.3,1.3-0.7,2-0.8c1.6,0.3,1.8,1.7,2.5,2.8
		c0.2,0.6,0.6,0.8,1.1,0.8c2.4,0,4.9,0.6,7.3,0.3c1.9-0.3,2.1,0.2,1.4,2.1c-0.2,0.5-0.5,1.1-0.5,1.6c0,1,0.5,1.7,1.5,1.1
		c1.5-0.9,2.7-0.4,4.1,0.1c2.9,1.2,6.1,1.3,9,2.4c1,0.4,1.8-0.3,2.1-1.3c0.6-1.8,0.3-3.6-0.6-5.3c-2-3.9-3.7-8-5.3-12.1
		c-1-2.5-1.3-2.6-3.8-1.9c-4.8,1.4-8.8,0-10.3-3.8c-0.4-0.9-1-2,0.5-2.7c2.9,5,3.6,5.3,9.6,4.3c3.2-0.5,3.6-0.3,4.9,2.6
		c3.7,8.6,7.3,17.2,11,25.8c0.8,2,1.6,4,2.4,6c0.4,1.6,0.4,3.2,0.8,4.9c0.5,2.2-0.9,3.4-3,2.4c-2.5-1.1-5.1-2-7.5-3.4
		c-6.7-3.8-14.4-5.1-21.4-8.4c-4.8-2.3-9.9-4.1-14.7-6.5C9.8,94.7,8,94,6,94c-0.7,0-1.5-0.1-2-0.6c-0.1-0.1-0.2-0.2-0.3-0.3
		c-1.2-2.2-1.3-2.2-2.6-0.2c-0.8,0.3-1.4-0.2-1.9-0.7c-1.5-1.8-3.5-2.7-5.6-3.5c-2.9-1.1-5.8-2.1-8.7-3.2c-1.8-0.6-3.4-1.5-4.9-2.7
		c-1.5-1.3-3.5-1.7-5.4-2.1c-0.7-0.2-1.8,0.1-1.9-1c-0.1-1,0.9-1.5,1.7-1.7c3-0.9,5.2-3.1,7.9-4.4c0.3-0.2,0.6-0.3,0.9-0.5
		c2.7-0.6,5.4-1.4,7.3-3.6c1-0.8,2.4-1.1,3.5-1.6C-5.4,69.1-5.2,70.7-4,71.7z"/>
	<path class="st3" d="M20.5,83.9c-3.8,2.6-5.7,2.3-8.3-1.4c-1.2-1.7-2.5-3.4-4.3-4.4c-1.6-0.9-2.1-2.2-2.2-3.9
		c1.7-2.4,1.6-4.9,0.5-7.5C6,66.4,5.9,66.1,5.5,66c-1-0.2-1.6-0.8-1.5-1.8c0.1-0.9,1-1.1,1.7-1.4c8.5-3.6,17-7.3,25.3-11.4
		c2.1-1,2.8-0.7,3.8,1.5c0.3,0.7,0.6,1.3,0.9,2c0.9,2.4,0.6,3-1.9,4c-3.8,1.5-5.5,5.2-4.2,9c-0.9,2.9,1.7,6.2,5.4,6.5
		c1.8,0.2,3.5-0.1,5.1-0.9c1.5-0.7,2.5-0.4,3.2,1.1c1.3,3.2,2.6,6.5,3.9,9.8c0.9,2.2,2.7,4.1,2.8,6.7c0.1,1.5,0.2,3.1-1,4.2
		c-1.1,1-2.4,0.2-3.7-0.2c-2-0.6-4-1-6.1-1.5c-0.8-0.2-1.6-0.4-2.2-0.9C36,92,35.2,92,34.4,92.8c-0.6,0.6-1.4,1-2.1,0.4
		c-0.6-0.5-0.7-1.3-0.6-2.2c0.2-1.1,1-1.9,1.5-3.5c-3.4,1.6-6.5,0-9.5,0.5c-0.9,0.2-1.5-0.5-1-1.5c1.1-2.3,0.9-3.7-0.7-4.7
		c-1.7-1-3.6-0.7-5.2,1.1C17.8,84,19.6,82.1,20.5,83.9z"/>
	<path class="st2" d="M3.9,93c10.2,1.7,18.8,7.9,28.5,10.9c8.2,2.5,15.8,6.3,23.5,9.7c0.5,0.2,1,0.5,1.4,0c0.5-0.6,0.8-1.5,0.5-2.2
		c-0.9-1.6-0.7-3.2-0.3-4.8c0.5,1.1,1,2.2,1.6,3.2c1.5,2.8-0.4,4.5-1.9,6.4c-5.8-2.7-11.5-5.9-17.5-7.9c-6.5-2.2-12.8-4.8-19.2-7.3
		c-3.1-1.2-6.2-2.6-9.3-4.1c-1.9-0.9-3.7-1.9-5.9-1.6C4,95.3,3.2,94.7,3,93.5C3.2,93.1,3.4,92.8,3.9,93z"/>
	<path class="st2" d="M-17.8,73.5c0,0.6-0.3,1.2-0.7,1.2c-2.4,0.4-3.6,3.1-6.2,3.3c-0.9,0.1-1.9,0.5-2.4,1.8
		c3.3,0.4,6.1,1.5,8.9,3.5c3.3,2.4,7.4,3,11.2,4.5c2.6,1.1,5.3,1.9,7,4.4c0.3,0.5,0.9,0.4,1.4,0.4c0.7,0,0.7,0.4,0.5,0.9
		c-3,0.7-4.6-2-7-2.9c-3.2-1.2-6.3-2.6-9.5-3.6c-2.3-0.7-4.3-1.7-6.1-3.1c-2.8-2-5.7-3-9.1-1.6c-0.6,0.2-1.2,0.4-1.5-0.3
		c-0.4-0.7,0.2-1.1,0.7-1.3c1.5-0.5,1.9-1.6,2-3c2.9-1.4,5.6-3.2,8.7-4.3C-19.3,73.5-18.5,73.5-17.8,73.5z"/>
	<path class="st4" d="M2.9,162.1c-1.2,0-1.9-0.5-1.6-1.8c0.7-3.4,2.2-5,5.6-3.7c2.5,1,2.5,1,3.4,2.4c-2,0.9-4.8-1.3-6.5,1.4
		C3.6,160.9,3.3,161.5,2.9,162.1z"/>
	<path class="st2" d="M4.4,74.8c-0.1,0.6,0.2,1.3-0.6,1.6c-0.8,0.2-1.3-0.2-1.6-0.9C2.8,75.2,3.6,74.8,4.4,74.8z"/>
	<path class="st6" d="M-13.4,108.2c1.7-0.5,2.3-2.2,3.6-3.3c3.1-2.5,6.2-2.3,9.4-0.5c2.5,1.4,4,3.8,4,6.8c0,1.3,0,2.6,0,3.9
		c-1.1,1.2-1.7,0.2-2.3-0.6c-0.5-0.7-0.6-1.6-0.9-2.4c-1.5-3.5-5.2-4.8-8.6-3c-1.2,0.7-2.3,1.5-3.5,2.2c-0.8,0.5-1.6,1.1-2.6,0.4
		C-14,110.6-13.7,109.4-13.4,108.2z"/>
	<path class="st7" d="M12.6,140c0.6,2.8-1.8,2.7-3.3,3.3c-1.7,0.6-1.9-0.7-2.2-2c-0.4-1.6-2.5-2.3-3.6-0.9c-1.2,1.5-2,0.6-2.8-0.1
		c-2.2-2-2.1-5,0.2-7.2c0.9,0.9-0.1,1.9,0.4,3c1.4-1.8,3.2-2.3,5.4-2.2C10.6,134.1,11.5,137.2,12.6,140z"/>
	<path class="st8" d="M12.6,140c-1.1-0.6-1.3-1.9-1.8-2.9c-1.5-3.1-6.4-3.8-8.7-1.3c-0.4,0.4-0.4,1.5-1.3,1.1
		c-0.7-0.4-0.4-1.3-0.3-2c0.1-0.6,0.2-1.3,0.3-1.9c0.6-0.4,1.1-0.8,1.7-1.3c3-2.9,6.1-2.2,8.5-0.4C13.7,133.3,14.2,136.6,12.6,140z"
		/>
	<path class="st9" d="M-14.3,111.7c2,0,3.4-1.3,4.7-2.4c3.5-3,9.8-1.6,11,4.1c0.2,1.1,0.4,2.4,2.1,1.8c0,0.3,0,0.6,0.1,0.9
		c-0.6,1-1.4,1.8-2.7,1.7c-0.2-0.5-0.4-0.9-0.5-1.4c-0.3-4-1.3-5.2-5-6.2c-2.6-0.7-5,0.4-7,3.1c-0.3,0.5-0.6,1-0.9,1.4
		c-0.9,1-1-0.2-1.2-0.6C-14.3,113.4-14.5,112.6-14.3,111.7z"/>
	<path class="st13" d="M35.9,141.5c-1.1,0-2.3-0.1-2.2-1.1c0.2-1.2,0.8-2.7,2.5-2.8c1.7-0.1,2.7,1.1,2.7,2.5
		C38.8,142.4,36.6,140.6,35.9,141.5z"/>
	<path class="st16" d="M30.5,116.9c0.7-3.6,2.3-5.5,4.6-5.9c4.5-0.7,7.2,2.3,6.7,6.3c-0.8,0.7-1.5,0.2-2.2-0.2
		c-0.7-0.5-1.5-0.9-2.2-1.4c-1.5-1-2.9-1-4.3,0.3C32.4,116.7,31.8,118.2,30.5,116.9z"/>
	<path class="st17" d="M30.5,116.9c1.3,0.3,1.9-0.8,2.6-1.5c1.4-1.3,2.7-1.3,4.2-0.4c1.5,0.8,2.6,2.3,4.5,2.3c-1.1,3.8-2.1,4-5,1.4
		c-0.9-0.8-1.9-1.3-3.1-0.5C31.3,119.6,31.3,119.6,30.5,116.9z"/>
	<path class="st18" d="M18.2,117c1.2,0.3,2.3,0.9,2.6,2.2c0.2,0.7-0.6,0.8-1,0.7c-1.2-0.3-2.8-0.2-3.3-1.6
		C16.1,117.5,17.4,117.4,18.2,117z"/>
	<path class="st19" d="M1.8,93.4c0-0.4-0.1-0.7-0.5-0.9c-0.5-0.9-0.3-1.4,0.6-1.8c0.9-0.3,1.4,0.1,1.7,0.8C3.8,92,3.8,92.5,3.9,93
		c-0.3,0.2-0.6,0.3-0.9,0.5C2.6,93.5,2.2,93.5,1.8,93.4z"/>
	<path class="st20" d="M20.5,83.9c-1.1-0.9-2.2,0.2-3.3,0c-0.5-0.1-1.1,0.2-1.3-0.5c-0.2-0.6,0.2-0.9,0.5-1.3c1.3-1.4,3.8-1.9,5.6-1
		c1.6,0.8,2.2,2.1,2,3.9c-0.1,0.9-0.4,1.3-1.3,1.4C21.8,85.7,21.7,84.3,20.5,83.9z"/>
	<path class="st2" d="M18.8,91.7c-2.4,0-3.7-1.3-3.8-3.3c-0.1-1.2,2.6-3,4.6-2.7c2.1,0.3,2,2.3,2.2,3.7C21.9,91.8,20,91.6,18.8,91.7
		z"/>
	<path class="st1" d="M17,88.3c-0.1-1.3,0.7-1.7,1.7-1.8c1,0,1.7,0.6,1.7,1.6c0,1.2-0.8,1.8-2,1.8C17.3,90,16.9,89.3,17,88.3z"/>
</g>
<g>
	<path class="st0" d="M21.9,206.2c-0.1,1.2-0.9,1.8-1.9,2.1c-4.6,1.4-9.2,2.8-13.8,4.1c-2.2,0.6-3.5-0.2-4.1-2.5
		c-4.2-14.8-8.3-29.6-12.5-44.3c-3-10.5-6-21.1-9-31.6c-0.6-2.1-1.5-4.2-2.1-6.3c-0.7-2.5,0.1-4.1,2.6-4.8c0.9-0.2,1.8-0.7,2.8-0.5
		c0,1.2-1,1.1-1.7,1.4c-1,0.3-2.1,0.6-2.1,1.9c-0.1,1.1,0.6,2,1.5,2.5c3,1.7,5.5,4.2,8.9,5.3c0.8,0.3,1.3,1,1.6,1.8
		c2.2,4.7,6.3,6.6,11,7.5c1.1,0.2,2.3,0.4,3.4,0.5c2.9,0.3,4.8,1.8,5.4,4.7c0.3,1.3,0.5,2.5,0.6,3.8c0,0.9-0.5,1.7-0.8,2.5
		c-0.3,1.3,0,2.3,1.1,3.1c1.1,1.8,2.9,3,3.9,4.8c0.4,0.7,1.2,0.6,1.8,0.6c2.3,0.1,4.4-0.4,6.5-1.3c1.3,0.2,2.4-0.5,3.4-1.1
		c1.6-0.5,2.9,0.3,4.2,1c1.4,0.8,2.8,1.7,4.5,1.8c1.1,0.1,1.6,0.8,2,1.8c0.8,2.6,2.7,3.8,5.4,3.9c3.6,0.1,6.7,1.9,9.6,3.8
		c3.5,2.3,7.2,4.1,10.7,6.3c3.4,2.1,6.9,4.1,10.2,6.4c0.7,0.5,1.3,1,1.5,1.9c0.3,1.4,1.2,1.6,2.4,1.7c3.3,0.1,6.5-0.6,9.6-1.5
		c0.7-0.2,1.5-0.8,2.3,0c-0.1,0.8-0.6,1-1.4,1.2c-15.6,4.4-31.1,8.8-46.6,13.3c-3.6,1-7.1,2-10.7,3.1c-1.1,0.3-2.3,0.3-3.4,0
		c-1.8-0.5-3.7-0.6-5.6-0.4c0.4-1.6,1.7-1.5,2.9-1.5c0.9,0,1.7,0.3,2.6,0.3c-1.7-2.1-4.3-2.9-5.8-1.9
		C21.3,202.6,20.9,204.4,21.9,206.2z"/>
	<path class="st1" d="M12.1,151.7c-0.3-1.5-0.5-2.9-0.8-4.4c-0.5-2.6-2.4-3.5-4.7-3.8c-2.6-0.3-5.2-0.7-7.7-1.6
		c-3.1-1.2-5.5-3.2-7-6.2c-0.6-1.3-1.4-2.1-2.7-2.4c-1.5-0.3-2.7-1.3-3.9-2.2c-1.3-0.9-2.6-2-4.1-2.7c-1.4-0.6-2-1.8-1.8-3.3
		c0.2-1.5,1.5-1.6,2.5-2c0.7-0.3,1.5,0,1.9-0.8c2.4-1.2,5-1.1,7.4-2.1c2.6-0.5,5.2-1.4,7.8-2c0.8-0.2,1.5-0.7,2.3-0.1
		c0.6,2.4-1.3,3-2.7,3.8c-0.1,0.3,0,0.4,0.2,0.4c4.2-0.7,7.8,0.7,10.7,3.8c1.3,1.4,2.9,2.2,4.6,2.9c4.2,1.9,8.5,3.6,11.9,6.9
		c0.8,0.9,2,1.1,3.2,1.1c0.6,0.1,1.1,0.5,1.5,0.9c0.7,1.1,1.6,1.6,2.9,1.7c1.3,0.1,2.4,0.8,3.6,1.4c8.8,5.1,17.4,10.5,26.5,14.9
		c5.8,2.8,11.1,6.4,16.4,9.9c0.5,0.3,1,0.7,1.2,1.4c0.2,0.4,0.2,0.7,0.2,1.2c-0.3,3.6,1.5,5.7,4.7,6.8c1.5,0.5,2.3,1.4,2.6,2.8
		c0.7,2.8,1.4,5.6,2.1,8.4c0.1,0.4,0.1,0.7-0.2,0.9c-3.4,0.7-6.7,2.1-10.3,2.1c-1,0-2,0-3-0.1c-0.7-0.1-1.5-0.2-1.3-1.4
		c0.1-1.1-0.7-1.8-1.6-2.3c-5.7-3.7-11.5-7.2-17.4-10.5c-3.1-1.7-5.8-4-9.2-5.2c-1.2-0.4-2.4-0.6-3.6-0.7c-3-0.1-4.7-1.5-5.6-4.3
		c-0.2-0.7-0.4-1.5-1.4-1.5c-1.8,0.1-3.2-0.9-4.7-1.8c-1.3-0.8-2.6-1.6-4.2-1.1c-0.3-0.2-0.5-0.6-0.6-1c0.4-2.5,1-4.9,0.2-7.4
		c-1.4-4.1-6.6-6.4-10.4-4.4c-1.5,0.8-2.9,1.8-4.1,3C13.1,151.3,12.9,152,12.1,151.7z"/>
	<path class="st2" d="M29.3,137.4c-1.3,0.6-2.6,0-3.3-0.8c-3.6-3.8-8.3-5.4-12.9-7.5c-1.6-0.7-3-1.7-4.3-3c-2.7-2.8-5.8-4.1-9.7-3.2
		c-0.6,0.1-1.2,0.2-1.4-0.4c-0.4-0.9,0.6-1,1-1.2c1.4-0.5,2.4-1.4,2.8-2.9c2.4-1.1,4.9-1.8,7.3-3c0.5-0.3,1.2-0.2,1.8,0
		c2.2-0.1,4.2-0.9,6.2-2c2.6-1.3,5.6-1.4,8.3-2.2c0.9-0.3,0.9,0.5,1,1.1c0.3,1.5,0.3,3.1,1,4.5c1.2,2.6,2.6,3.5,5.4,2.9
		c1.2-0.2,2.3-0.6,3.5-1c0.5,2.5,1.8,4.4,3.8,5.9c0.9,0.7,1.2,1.9,1.8,2.9c1.9,3.3,2.8,3.8,6.5,3c0.5-0.1,0.9-0.2,1.4-0.1
		c1.1,0.4,1.9,1.1,1.9,2.4c-0.2,0.8,0,1.4,0.9,1.4c2.5,0,4.7,1.2,7.3,1c1.5-0.1,1.8,0.6,1.3,1.9c-0.1,0.3-0.3,0.6-0.5,0.9
		c-0.3,0.7-0.7,1.4-0.1,2.1c0.6,0.6,1.1,0.1,1.7-0.2c0.8-0.4,1.6-0.3,2.3,0.2c1.5,1.3,3.4,1.8,5.2,2.3c1.4,0.4,2.6,1.1,3.9,1.8
		c1.6,0.8,2.6,0.3,3.2-1.3c0.4-1.1,0.4-2.3,0.1-3.4c-1.3-4.7-2.8-9.4-4-14.2c-0.6-2.5-0.9-2.6-3.6-2.4c-1.2,0.1-2.5,0.1-3.7,0
		c-3.5-0.3-6.3-3.4-6.2-6.9c0-0.7-0.2-1.6,0.9-1.7c0.7,2,0.8,4.1,2.5,5.7c1.3,0.8,2.6,1.3,4.2,1.1c0.1,0,0.2,0,0.3,0
		c1,0,2,0.3,3-0.4c2.3-0.4,3,1.1,3.5,3c2.9,10.6,5.9,21.2,8.9,31.8c0,0.1,0.2,0.2,0.3,0.3c0.2,2.1,0.1,4.2,0.6,6.2
		c0.2,1-0.1,2.1-1,2.7c-0.7,0.5-1.5-0.1-2.1-0.5c-8.1-5.4-16.7-9.7-25.2-14.4c-5.9-3.2-11.8-6.7-17.5-10.2c-1.3-0.8-2.7-1.3-4.2-1.3
		c-0.8,0-1.5-0.1-1.9-0.9c-0.1-0.2-0.1-0.4-0.1-0.6c0-0.6,0.1-1.4-0.7-1.5C29.2,135.8,29.7,137,29.3,137.4z"/>
	<path class="st3" d="M49.4,131.3c-0.6,0.1-1.2,0.2-1.8,0.4c-3.1,0.8-4.6,0.1-6.2-2.7c-1.1-1.9-2-4-4-5.3c-1.6-1.1-1.8-2.8-1.6-4.6
		c1.5-1.9,1.9-4,1.4-6.4c-0.2-0.9-0.5-1.4-1.2-1.9c-1.5-1-1.3-1.9,0.4-2.4c3.5-1.1,7.1-2.1,10.6-3.2c5.5-1.7,11-3.3,16.3-5.3
		c2.5-0.9,3.4-0.3,4,2.3c0,0.1,0,0.3,0,0.4c0.9,4,0.9,4-3,5.4c-3,1.1-5,4.3-4.4,7c-1.4,3.7,1.3,7.6,5,8.1c1.6,0.2,3.4,0.3,5.1-0.2
		c1.1-0.4,2.1-0.1,2.4,1.2c1.7,5.7,3.3,11.5,4.9,17.2c0.3,1-0.1,2.3-0.7,3.3c-0.8,1.3-1.9,2-3.4,1c-2.2-1.5-4.7-2.1-7.2-2.8
		c-0.7-0.2-1.4-0.6-1.9-1.2c-0.8-0.9-1.7-1.1-2.6-0.2c-0.5,0.5-1,0.8-1.6,0.4c-0.7-0.5-0.9-1.1-0.8-2c0.1-0.9,0.8-1.6,1.2-2.3
		c0.5-0.9,0.1-1.4-0.8-1.2c-2.9,0.7-5.4-1.2-8.2-1c-1.2,0.1-1-1.1-0.5-1.9c1.5-1.5,1.5-2.8,0-4.1c-1.6-1.4-4.3-1.5-5.4-0.3
		c-0.5,0.5-0.3,0.9,0.4,0.9c0.6,0.1,1.2-0.2,1.8-0.2C48.8,129.7,49.8,129.9,49.4,131.3z"/>
	<path class="st2" d="M31.4,137.9c0.2,0.2,0.5,0.7,0.7,0.7c3.6-0.6,6,1.8,8.7,3.3c7.3,4.1,14.3,8.6,21.8,12.3
		c6.1,2.9,11.7,6.7,17.4,10.2c0.6,0.4,1.2,1.3,1.9,0.8c0.8-0.6,1-1.6,0.7-2.6c-0.5-2-0.8-4-0.1-6c0.7,2,1.4,4,1.9,6
		c0.4,1.3-0.3,2.5-1.3,3.4c-0.6,0.5-1.2,1.1-1.8,1.6c-6.4-4.2-12.8-8.6-19.7-11.8c-5.4-2.5-10.3-5.8-15.5-8.5
		c-3.1-1.6-6-3.5-8.9-5.3c-1.2-0.8-2.4-1.5-3.9-1.5c-1.3,0-2.4-0.6-2.8-2C30.7,137.9,30.9,137.7,31.4,137.9z"/>
	<path class="st4" d="M21.9,206.2c-1-0.4-1.9-0.7-1.3-2.2c0.7-1.7,1.2-3.4,3.4-3.5c2.6-0.1,4.5,1.2,6,3.4c-2.3,0.4-4.8-1.7-6.9,0.6
		C22.5,204.9,22.4,205.7,21.9,206.2z"/>
	<path class="st5" d="M10.6,115.7c-2.7,0.2-4.6,2.4-7.3,2.7c-0.6,0.1-1.2,0.2-1.8,0.3c-1.9-0.3-3.6,0.4-5.4,0.8
		c-1.6,0.3-3.1,1-4.8,0.8c5.8-1.7,11.5-3.5,17.3-5.1C9.2,114.9,10.1,114.8,10.6,115.7z"/>
	<path class="st2" d="M66.6,121.8c-1.7,0.7-3,0-4.2-1.1C63.9,121,65.3,121.4,66.6,121.8z"/>
	<path class="st2" d="M69.9,121.4c-0.8,1.4-1.9,0.6-3,0.4C67.9,121.3,68.9,121.5,69.9,121.4z"/>
	<path class="st6" d="M12.1,151.7c2.1-2.4,4.5-4.6,7.6-5.1c4.3-0.7,10,3.3,9.3,9.4c-0.2,1.3-0.2,2.7-0.9,3.9c-1.7,0.2-2-1-2.2-2.2
		c-0.2-1.8-0.8-3.4-2.3-4.6c-2.3-1.7-4.7-2-7.2-0.5c-1,0.6-2.2,1.1-3.3,1.6c-0.6,0.3-1.3,0.6-1.9,0
		C11.5,153.4,11.8,152.6,12.1,151.7z"/>
	<path class="st7" d="M35,185c-0.5,2.6-2.6,3.2-4.7,3.6c-1.2,0.2-1.5-0.8-1.6-1.6c-0.5-2.6-1.6-3.2-3.9-1.9
		c-0.7,0.4-1.3,0.6-1.9-0.2c-2.1-2.2-2-5,0.2-7.4c0.8,0.8,0.1,1.7,0.3,2.7c1.4-1.4,3.1-1.7,4.9-1.6c2.8,0.1,4,0.9,5,3.6
		C33.8,183.3,34,184.4,35,185z"/>
	<path class="st8" d="M35,185c-1,0.4-1.4,0-1.7-1c-0.3-1.3-0.5-2.7-1.6-3.7c-1.8-1.8-6.1-1.5-7.7,0.4c-0.2,0.3-0.3,0.9-0.8,0.7
		c-0.5-0.2-0.5-0.8-0.5-1.2c0.1-0.9,0.3-1.7,0.4-2.6c3.2-3,5.9-3.6,8.9-2.1c3,1.5,4,3.5,3.4,6.9C35.4,183.2,35.2,184.1,35,185z"/>
	<path class="st21" d="M11.3,154.2c1.7-0.1,3.1-1,4.4-1.8c2.2-1.3,4.3-1.8,6.7-0.7c2.5,1.2,3.9,3.1,4,5.8c0.1,1.3,0.5,2,1.7,2.4
		c0.3,0.2,0.4,0.5,0.4,0.8c-1,0.8-1.8,1.8-3.3,0.8c-0.1-0.5-0.3-1-0.1-1.6c0.6-2.3-0.4-4.2-2.2-5.4c-2-1.4-4.2-1.7-6.5-0.6
		c-1.7,0.7-2.8,2-3.7,3.5C11,156.9,11.1,155.6,11.3,154.2z"/>
	<path class="st10" d="M12.1,182.9c-0.1,0.3-0.3,0.6-0.4,0.9c-0.6,2-1.8,2.4-3.2,1c-1.2-1.1-2.2-2-4.1-1.9c-2.2,0.2-1.4-1.7-1.3-3
		c0.2-0.1,0.4-0.1,0.6-0.2C8,178.2,9.4,178.7,12.1,182.9z"/>
	<path class="st22" d="M12.1,182.9c-0.9,0-1.3-0.9-1.6-1.4c-1.3-2.3-3.2-2.1-5.3-1.7c-0.7,0.2-1.4,0.7-2.1,0.2
		c1.2-3.2,3.3-4.4,6.1-3.4C12,177.5,13,179.7,12.1,182.9z"/>
	<path class="st13" d="M58.5,189.9c-0.3-0.1-0.8-0.1-1.2-0.2c-0.8-0.2-2.2,0.1-1.9-1.4c0.3-1.2,1-2.4,2.6-2.3c0.7,0.1,1.4,0.4,1.9,1
		c0.7,0.7,0.9,1.6,0.6,2.4C60.2,190.2,59.3,189.8,58.5,189.9z"/>
	<path class="st15" d="M6.5,137.9c-0.3-3.6-2.1-5.7-6-6.6c-2.8-0.6-4.3,1.2-5.5,3.5c-1.5-2.4-0.8-5.1,1.8-6.9
		c3.1-2.2,8-1.7,10.3,1.2C9.6,132.4,9.7,134.8,6.5,137.9z"/>
	<path class="st16" d="M66.4,165.6c-0.1,0.3-0.2,0.9-0.5,1.1c-0.5,0.4-0.8-0.2-1.2-0.5c-0.6-0.5-1.3-1-1.9-1.5
		c-2.9-2.2-3.4-2.2-6.4-0.1c-0.3,0.3-0.6,0.9-1.2,0.4c-0.4-0.4-0.1-0.9,0-1.3c1.1-3.1,3.2-4.7,6.5-4C65,160.3,66.1,161.9,66.4,165.6
		z"/>
	<path class="st18" d="M45,165.5c0.2,0.6-0.1,0.9-0.5,1c-0.6,0.2-3.7-1.2-3.8-1.6c-0.1-0.5,0.3-0.8,0.6-0.9c0.8-0.3,1.5-0.8,2.5-0.2
		C44.5,164.1,44.9,164.8,45,165.5z"/>
	<path class="st19" d="M31.4,137.9c-0.3,0.1-0.5,0.3-0.8,0.4c-0.4-0.3-0.8-0.6-1.2-0.8c-0.3-0.6-0.8-1.4,0-1.9
		c0.4-0.3,0.9-0.5,1.5-0.1C31.8,136.1,31.7,136.9,31.4,137.9z"/>
	<path class="st20" d="M49.4,131.3c-0.2-1.4-1.1-1.3-2.1-1c-0.9,0.2-2.3,0.8-2.7-0.4c-0.5-1.4,1.1-1.6,2-2.1c1.7-0.8,3.2,0,4.6,0.8
		c1.2,0.8,1.8,2,1.5,3.5c-0.2,0.8-0.4,1.8-1.6,1.2C50.9,132.3,50.1,131.8,49.4,131.3z"/>
	<path class="st2" d="M49.8,135.8c0,1.6-1.7,3.1-3.2,3.1c-1.7-0.1-3.3-2-3.3-3.8c0-1.6,1.5-2.5,4.2-2.5
		C49.4,132.5,49.8,133.1,49.8,135.8z"/>
	<path class="st1" d="M48.6,134.9c-0.1,1.1-0.7,1.7-1.8,1.7c-1.1,0.1-1.7-0.7-1.7-1.6c0-1,0.6-2,1.8-2C48,133,48.5,133.8,48.6,134.9
		z"/>
</g>
<g>
	<path class="st1" d="M100.8,178.3c0.4,2.7,0.9,5.3,1.1,8c0.3,3.3,1.4,6.4,1.7,9.6c0.1,1.2,0.4,2.3,0.6,3.5c0.3,1.6-0.4,2.9-1.7,3.7
		c-1.7,0.9-2,2.3-2.1,4c-0.1,2,0.5,4,2.2,4.6c4.1,1.5,4.2,4.9,4.6,8.2c0.2,1.8,0.3,3.6,0.4,5.4c-2.2,1.5-4.8,1.2-7.2,1.5
		c-2.2,0.3-4.4,0-6.5-0.5c-1.2-0.3-1.9-0.8-1.8-2.2c0.1-1.5-1.1-2.3-2.1-3.1c-3.9-3.2-8-6.3-12-9.3c-2.8-2.1-5.4-4.2-8.1-6.4
		c-2.1-1.7-4.3-3-7-3.3c-2.4-0.3-4.1-1.9-4.4-4.4c-0.2-1.3-0.7-2.1-2-2.3c-1.4-0.2-2.3-1.2-3.3-2c-1.2-1-2.5-1.9-4.1-2.1
		c-0.2-0.3-0.3-0.7-0.3-1.1c0.5-2.1,1.5-4.1,1.2-6.4c-0.7-6.2-6.9-9.2-12.2-5.8c-0.8,0.5-1.5,1.5-2.6,0.8c-0.3-0.6,0-1.2,0.1-1.8
		c0.6-2.9-0.5-5.2-3.1-6.5c-2.6-1.3-5.6-1.6-8.1-2.9c-3.3-1.7-6.3-3.8-7.1-7.8c-0.2-1.1-0.8-1.8-1.9-2.2c-1.4-0.4-2.5-1.4-3.5-2.4
		c-1.2-1.3-2.5-2.5-4-3.4c-0.5-0.3-1.1-0.8-0.9-1.5c0.2-0.7,0.9-0.8,1.5-0.9c3.6-0.5,7.2-1,10.8-1.6c2.6-0.4,5.3-0.7,7.6-2.4
		c0.4-0.3,0.8-0.4,1.2-0.3c2.1,0.3,4.1-0.3,6.1-0.9c1.1-0.3,2.2-0.5,3.3-0.4c2.9,0.8,5.4-0.9,8.1-1.2c2.1-0.3,4.3-0.6,6.4-0.7
		c1-0.1,1.4,0.4,1.4,1.6c0,1.2,0,2.5,0.2,3.8c0.6,4.2,3,4.1,6.1,3.9c0.7-0.1,1.5-0.1,2.2-0.1c-1,2-0.2,3.6,1.2,5.1
		c1.2,1.3,2.1,2.6,2.5,4.3c0.1,0.3,0.2,0.6,0.4,0.9c1.5,3.3,2.5,3.9,6.1,3.7c2.6-0.2,2.6-0.2,2.6,2.4c0,1.2,0.5,1.9,1.7,2.1
		c1.8,0.3,3.3,1.1,5,1.6c1.2,0.3,1.7,1,1.2,2.2c-0.2,0.4-0.3,0.8-0.3,1.3c-0.1,1.6,0.8,2.5,2.4,2.2c1.3-0.3,2.3,0,3.3,0.9
		c1,0.9,2.2,1.5,3.4,2c1.5,0.7,2.9,1.4,4.2,2.4c1.9,1.5,3.3,1.2,4.6-1C100,180.1,100.1,179,100.8,178.3z"/>
	<path class="st0" d="M48.8,191c1.8-0.6,2.9,0.8,4.1,1.6c1.3,0.9,2.4,2.2,4.2,2.2c1.1,0,1.4,1,1.5,2.1c0.3,2.8,1.9,4.4,4.7,4.6
		c2.5,0.2,4.5,1.5,6.3,3c5.9,5,12.1,9.4,18.2,14.1c1.3,1,2.4,2.1,3.7,3.2c0.8,0.7,1.2,1.5,0.9,2.5c-0.2,0.9,0,1.2,0.9,1.4
		c2.8,0.7,5.6,0.9,8.5,0.5c1.9-0.2,3.8-0.6,5.6-0.9c-0.5,1.3-1.7,1.3-2.8,1.5c-5.6,0.8-11.3,1.7-16.9,2.5c-4.7,0.7-9.5,1.3-14.2,2
		c-6.5,1-13,2.1-19.5,2.9c-3.8,0.5-7.7,1.9-11.5,0.4c-1.6-0.6-3.2-1.3-5-0.7c0.3-1.6,1.6-1.5,2.8-1.4c1.1,0,2.1,0.6,3.2,0.8
		c-1.1-2.9-5.1-4.1-6.8-2c-1,1.1-1.4,2.3-0.4,3.7c0.3,1.4-0.8,1.7-1.8,1.9c-4.1,0.7-8.2,1.3-12.3,1.9c-1,0.1-2,0.4-3.1,0.5
		c-1.6,0-2.4-0.7-2.6-2.1c-0.6-3.2-1.1-6.5-1.5-9.7c-0.7-4.7-1.4-9.4-2.1-14.2c-0.7-4.7-1.4-9.3-2.1-14c-0.7-4.8-1.5-9.6-2.1-14.3
		c-0.6-5-1.7-9.9-2-14.9c1.2,0.1,2.4,0.5,3.6,0.8c1.5,0.4,2.2,1.6,1.9,3.1c-0.1,0.3-0.2,0.5-0.3,0.8c-1.5,2.1-1.3,2.7,1.2,3.7
		c1.5,0.6,3.1,0.7,4.7,0.3c2.3-0.3,3.9,0.9,5.5,2.3c3.2,2.8,6.1,6.1,9.3,8.9c1.1,0.9,2.1,2,3.8,1.7c2.2-0.1,4.4,0.9,6.7,0.2
		c0.7-0.2,1.5-0.3,2.2-0.5C46.6,192,47.7,190.7,48.8,191z"/>
	<path class="st24" d="M100.8,178.3c0.1,1.5-0.6,2.7-1.4,3.8c-1.2,1.7-2.9,1.9-4.5,0.5c-1.5-1.3-3.2-2.1-5-2.9c-1-0.5-2.1-1-3-1.9
		c-0.7-0.8-1.5-1.1-2.7-0.7c-2,0.7-3.7-0.8-3-2.8c0.8-2.3-0.1-2.8-2-3.2c-1.2-0.3-2.3-0.9-3.6-1.1c-1.9-0.3-2.5-1.2-2.1-3.1
		c0.2-1.2,0-1.8-1.4-1.6c-4.6,0.7-6.4-0.3-7.7-4.7c-0.6-1.7-1.5-3.1-2.6-4.4c-1.9-2.1-2.1-3.6-0.6-5.1c2-1.7,2.9-3.8,2.7-6.4
		c-0.1-0.9-0.5-1.4-1.1-2c-0.4-0.4-0.9-1-0.6-1.7c0.3-0.7,0.9-0.8,1.7-1c5.7-0.9,11.5-1.7,17.2-2.7c3.6-0.7,7.3-1.5,10.9-2.1
		c1.2-0.2,2.3,0,2.8,1.5c0.4,1.4,0.4,2.8,0.6,4.2c0.2,1.4-0.6,2-2,2.3c-1.6,0.3-3.2,0.4-4.6,1.7c-3.1,2.9-3.6,7.1-0.9,10.3
		c1.4,1.7,3.2,2.1,5.2,2.3c0.4,0,0.9,0,1.3,0c3,0.2,3.5,0.6,3.9,3.5C99.2,166.6,100,172.4,100.8,178.3z"/>
	<path class="st25" d="M36.5,191.7c-0.8,0.9-1.5,0.4-2.2-0.1c-1.5-1.1-3.3-2.2-4.4-3.7c-2.1-2.8-5-4.7-7.3-7.2
		c-1.2-1.3-2.7-1.9-4.6-1.8c-0.5-0.4-0.6-0.9-0.7-1.5c-0.4-2.6-0.9-3-3.5-2.9c-0.6,0-1.2,0.1-1.7-0.4c-0.1-2.4-0.4-2.6-2.7-3.1
		c-0.9-0.2-1.9-0.2-2.5-1.1c-0.9-2-0.8-4.2-1.1-6.4c-0.6-4.2-1.3-8.3-2.1-12.4c-0.4-2.1,0.4-3.4,2.5-3.8c5.9-1.1,11.8-1.4,17.7-2.4
		c3.7-0.7,7.4-1.3,11.2-1.8c0.8-0.1,1.3,0,1.9,0.4c-3.4,1.1-6.9,2.2-10.5,1.9c-2.5,1.1-5.2,1.1-7.9,1.5c-3.6,0.6-7.3,1-11,1.6
		c-0.8,0.1-1.7,0.2-1.9,1.2c-0.3,1,0.2,1.7,1,2.2c1.5,1,2.7,2.2,3.9,3.5c1,1.1,2.1,1.9,3.5,2.5c1.2,0.4,2.1,1.3,2.4,2.5
		c1.5,5.2,5.6,7.4,10.3,8.9c0.8,0.3,1.6,0.4,2.4,0.6c5,1.7,5.4,3.5,5.6,7.9c0,0.3,0,0.6,0,0.9c-0.2,1.3-1.1,2.3-1.5,3.6
		c-0.5,1.3-0.2,2.3,1,3.1c0.4,1.1,0.9,2.1,1.7,3C36.4,189.4,37.1,190.4,36.5,191.7z"/>
	<path class="st4" d="M36.4,235c-0.8-0.4-1.7-0.5-1.1-1.8c0.6-1.4,1.1-3,2.9-3.3c2.2-0.3,4,0.5,5.4,2.2c0.5,0.5,1,1.1,1,2.1
		c-1.3-0.4-2.6-0.6-3.8-1.1c-1.3-0.4-2.3-0.1-3.2,0.9C37.2,234.3,36.8,234.6,36.4,235z"/>
	<path class="st1" d="M34.2,179.1c-0.1-1.5-0.1-3.1-0.5-4.6c-0.6-2.6-2.9-3.4-5.2-4c-3-0.8-6-1.7-8.5-3.7c-1.8-1.4-3.2-3-3.8-5.2
		c-0.5-1.6-1.1-2.8-2.9-3.3c-1.2-0.3-2.2-1.2-3.1-2.1c-1.4-1.4-2.7-2.9-4.5-3.9c-1.2-0.6-1.1-1.8-0.9-2.8c0.2-1,1.2-1.1,2.1-1.3
		c5.7-0.8,11.5-1.7,17.2-2.5c0.7-0.1,1.4-0.1,2.1-0.1c-0.2,1.1-1.1,1.1-1.9,1.3c-4.5,1.4-9.1,1.8-13.7,2.5c-1.1,0.2-2.2,0.3-3.3,0.4
		c-0.9,0.1-1.2,0.8-0.4,1.2c3.3,1.6,4.8,5.5,8.6,6.4c1.2,0.3,1.3,1.5,1.5,2.4c0.7,3.8,3.6,5.7,6.6,7.2c1.8,0.9,3.9,1.4,5.8,2
		c4.8,1.3,7.5,4.4,5.4,9.8C35,179.2,34.6,179.2,34.2,179.1z"/>
	<path class="st6" d="M34.2,179.1c0.2-0.1,0.5-0.3,0.7-0.4c1.8-0.4,3.1-2,5-2.5c3-0.8,6.5,0.3,8.5,2.9c2.7,3.6,2,7.2,0.5,10.9
		c-1.1,0.7-1.6,0.2-1.9-0.8c-0.2-0.6-0.1-1.2-0.1-1.9c0-4.8-4.7-7.8-8.6-6c-1.2,0.5-2.4,1-3.7,1.2c-0.6,0.1-1.2,0.4-1.8-0.1
		C32.9,181.2,33.6,180.1,34.2,179.1z"/>
	<path class="st15" d="M18.9,160.6c-1-2.3,0.1-4.8,2.4-6c5.1-2.6,8.4-1,10.7,2.5c2,3.1,1.3,6-1.9,8.1c0.4-4.6-2.7-6.2-6.3-7.4
		C21.4,157,20.5,159.5,18.9,160.6z"/>
	<path class="st21" d="M32.7,182.4c2-0.4,4-1,5.8-1.8c4-1.8,9.2,2,8.8,7.1c-0.1,1.1-0.3,2.4,1.5,2.2c0,0.4,0,0.8,0,1.1
		c-1.1,0.3-2.1,1.6-3.4,0.4c-0.6-0.7-0.3-1.4-0.2-2.2c0.7-5.4-4.6-7.4-8.2-5.9c-1.2,0.5-2.1,1.6-3.3,2c-0.4,0.1-0.9,0.6-1-0.1
		C32.6,184.3,31.8,183.4,32.7,182.4z"/>
	<path class="st16" d="M85.7,198.9c0,0.7,0,1,0,1.3c0,0.6,0.1,1.2-0.5,1.5c-0.8,0.3-1.1-0.5-1.5-0.9c-0.5-0.5-0.8-1.1-1.2-1.6
		c-1.8-2.4-3.6-2.7-6-1c-0.4,0.3-0.9,1-1.4,0.5c-0.5-0.5-0.3-1.2,0.1-1.9c2.4-3.6,6.2-4,9.5-1.1C85.8,196.8,85.7,198,85.7,198.9z"/>
	<path class="st18" d="M62,195.5c1.5,0,2.7,1.1,2.6,2.2c0,0.5-0.1,1-0.8,0.9c-1.1-0.1-3.6-1.8-3.4-2.3
		C60.7,195.6,61.4,195.5,62,195.5z"/>
	<path class="st26" d="M54,168.8c-0.7-0.6-1.7-1.1-1.9-2.1c-0.1-0.6,0.7-0.9,1.4-0.9c1.1,0,1.5,0.8,1.6,1.7
		C55.3,168.1,54.8,168.6,54,168.8z"/>
	<path class="st7" d="M51.5,216.3c-0.4,1.8-3.5,3.2-5.1,2.3c-0.8-0.5-0.7-1.3-0.7-2c0-2.3-1.5-3.4-3.5-2.2c-1.3,0.8-1.8,0.3-2.2-0.8
		c-1.5-3.3-1.3-4.7,1.3-6.8c1.2,0.9-0.3,1.9,0.2,3.1c1.9-2,4.2-1.6,6.4-0.7c1.7,0.7,2.9,1.8,3.1,3.8
		C51.1,214.1,51.4,215.2,51.5,216.3z"/>
	<path class="st8" d="M51.5,216.3c-1.1-0.8-0.9-2.2-1-3.3c-0.2-1.7-1.2-2.5-2.4-3.3c-2-1.1-4.5-0.9-6.3,0.6
		c-0.3,0.2-0.6,0.8-1.1,0.4c-0.3-0.3-0.1-0.7-0.1-1.1c0.1-1,1.1-1.7,0.6-2.8c2.1-1.1,4.2-2.5,6.7-1.9
		C53.8,206.2,55,212.1,51.5,216.3z"/>
	<path class="st10" d="M30,210.6c-0.2,0.3-0.4,0.6-0.6,0.9c-1,2-2.3,2.3-3.6,0.6c-1.1-1.4-2.2-2.1-4.1-2.4c-2-0.3-0.7-1.8-0.3-2.9
		c3.9-1.4,5.9-0.7,8,2.9C29.6,210,29.7,210.3,30,210.6z"/>
	<path class="st11" d="M30,210.6c-0.4,0-0.9,0.1-1-0.3c-1.2-3.4-3.7-4-6.8-3.4c-0.3,0.1-0.6,0.3-0.9,0c0.5-2.4,2.5-3.7,5.5-3.1
		c2.2,0.4,3.8,2.9,3.4,5.2C30.2,209.5,30.1,210,30,210.6z"/>
	<path class="st12" d="M17.6,177.4c0.3,0.5,0.5,1,0.4,1.5c-2.5,1-4.8,0.2-6.8-1.2c-0.8-0.6-1.7-1.5-0.1-2.4c0.3-0.2,0.4-0.6,0.6-0.9
		c1.3,0.9,2.9,1.2,4.3,1.8C16.5,176.6,17.2,176.9,17.6,177.4z"/>
	<path class="st13" d="M75.3,223.7c-1.2-0.3-2.9,0-3.7-1.6c-0.2-0.5,2.1-2.4,2.8-2.5c1,0,2.6,1.7,2.7,2.8
		C77.1,223.6,76.3,223.8,75.3,223.7z"/>
	<path class="st14" d="M17.6,177.4c-1.7-0.4-3.2-1.4-4.9-1.8c-0.4-0.1-1.1-0.4-1-1.1c0.1-0.1,0.2-0.3,0.4-0.4c0.6,0,1.2,0,1.9-0.1
		C16.5,173.8,17.6,174.8,17.6,177.4z"/>
	<path class="st20" d="M72.1,160.6c3.2,0,5.3,2.4,4.4,5.2c-0.2,0.5-0.1,1.2-1,1.2c-0.7,0-0.6-0.7-0.8-1c-0.9-1.3-1.6-2.8-3.7-2.7
		c-0.8,0-2.1,0.5-2.1-0.8c0-0.9,1-1.7,2.1-1.8C71.5,160.5,71.8,160.6,72.1,160.6z"/>
</g>
<g>
	<path class="st1" d="M131.5,228.7c0,0.9,0,1.8,0,2.6c-0.1,2-0.9,3-2.8,3.5c-1,0.2-1.6,0.8-1.9,1.8c-1.4,4.2-0.9,5.9,2.7,8.4
		c0.6,0.4,0.8,0.8,0.9,1.5c0.4,3.7-0.6,7.3-0.6,10.9c-0.3,0.3-0.7,0.4-1.1,0.4c-4.5-0.1-8.9-0.5-13.1-2.5c-0.9-0.4-1.2-1-0.8-2
		c0.4-0.9,0.1-1.7-0.4-2.5c-1.1-1.6-2.3-3.1-3.5-4.6c-3.9-4.7-8-9.3-12-13.9c-0.8-0.9-1.5-1.8-2.2-2.7c-1.9-2.1-3.9-3.9-6.7-4.9
		c-2.2-0.8-2.8-3-2.9-5.2c0-1.1-0.3-1.7-1.3-2.2c-1.5-0.6-2.2-2.1-3.2-3.2c-1-1-2-2-3.3-2.5c-0.2-0.3-0.2-0.7-0.2-1
		c0.3-1,1-1.7,1.5-2.6c2.7-4.5,0.9-8.6-2.5-11.4c-2.3-1.8-4.8-0.8-7.2-0.3c-0.7,0.1-1.4,0.8-2.1,0.2c-0.4-0.7-0.2-1.4-0.1-2
		c0.6-3.6-0.4-5.5-3.8-7.5c-2.1-1.2-4.4-2.1-6.4-3.6c-2.7-2-4-4.8-4.4-8c-0.2-1.3-0.6-2.4-1.6-3.2c-1.5-1.1-2.7-2.6-3.7-4.1
		c-0.8-1.1-1.6-2.3-2.7-3.2c-0.6-0.6-0.9-1.4-0.5-2.2c0.4-0.9,1.2-0.7,2-0.7c5.6,0.1,11.2,0.9,16.8,0.8c0.9,0,1.7-0.1,2.5-0.5
		c2.8,0.3,5.6,0.9,8.4,0.2c0.8-0.2,1.4,0.3,2.1,0.7c2.2,1.2,4.5,0.4,6.7,0.2c1.4-0.1,2.7-0.4,4.1,0.2c1.5,0.4,3.1-0.1,4.6,0.3
		c0.3,2.1-0.3,4.1-0.4,6.1c-0.1,2.2,1.1,4,3.2,4.4c1.5,0.2,3,0.3,4.5,0.5c-1.5,1.9-0.6,3.6,0.3,5.3c0.7,1.3,1.3,2.6,1.3,4.1
		c0,0.2,0.1,0.5,0.1,0.7c1,4.4,1.8,5.1,6.4,5.5c0.2,0,0.5,0,0.7,0.1c0.5,0.2,0.8,0.4,0.9,0.9c0.2,0.7-0.1,1.3-0.4,1.8
		c-0.5,1.1-0.2,1.7,0.9,2.2c2.1,1,3.9,2.5,6.1,3.4c0.9,0.4,0.9,1,0.2,1.6c-0.5,0.4-1,0.9-1.3,1.4c-0.7,1.3,0,2.5,1.4,2.3
		c1.4-0.1,2.3,0.4,3.1,1.3c2.1,2.5,5,4.2,7.1,6.7c1.1,1.3,2,1.1,3.3,0c1.3-1.3,2.2-2.7,2.1-4.6c0-0.7-0.3-1.6,0.6-2
		c0,1.9,0.4,3.8-0.3,5.6c-0.4,1.9,0.1,3.8-0.3,5.7c0,0.1,0,0.2-0.1,0.3c-0.4,1.8,0.1,3.6-0.3,5.3c0,0.1,0,0.2-0.1,0.3
		C131.4,224.9,131.9,226.9,131.5,228.7z"/>
	<path class="st0" d="M79.2,211.8c2.6-0.2,3.1,2.5,4.8,3.6c0.2,0.1,0.2,0.4,0.4,0.6c0.8,1,2.7,1.1,3,2.1c0.3,1-0.1,2.4,0.3,3.6
		c0.6,1.6,1.6,2.8,3.4,3.3c3.2,0.8,4.9,3.5,6.8,5.8c3.1,3.6,6.3,7,9.3,10.7c2.6,3.2,5.4,6.2,7.7,9.7c0.5,0.8,0.8,1.6,0.4,2.3
		c-0.8,1.2-0.1,1.5,0.8,1.8c2.9,0.9,5.7,2.2,8.9,2.1c1.6-0.1,3.2,0.3,4.8,0.3c-0.4,0.8-1,1.2-1.9,1c-2.6-0.6-5.3-0.3-8-0.6
		c-5.4-0.5-10.8-0.6-16.1-1.1c-2-0.2-4.1-0.2-6.1-0.3c-5.1-0.4-10.2-0.5-15.3-0.8c-5-0.3-9.9-0.6-14.9-1.1c-1.9-0.2-3.6-1.4-5.2-2.3
		c-0.9-0.5-1.8-0.8-2.7-0.8c0.2-1.1,1-0.9,1.7-0.8c1.6,0.1,2.8,1.4,4.5,1.8c-0.7-1.7-1.5-3.1-3.1-3.8c-1.9-0.8-4.3,0.3-5,2.2
		c-0.2,0.7,0.2,1.1,0.4,1.6c-0.2,1.5-1.6,1.4-2.5,1.4c-3.1-0.1-6.2-0.3-9.2-0.6c-2-0.2-4.1,0.2-6.1-0.4c-1.3-0.4-2.1-0.9-2.1-2.5
		c-0.1-3.7,0.3-7.3,0.6-11c0.2-2.2,0.1-4.4,0.3-6.6c0.4-5,0.5-10,0.8-15c0.4-6.5,1-13,1.3-19.5c0.1-2.6,0.3-5.2,0.4-7.8
		c0.1-2.9,0.1-5.8,0.6-8.6c0.5,0.9,1.3,1.4,2.3,1.7c2.4,0.8,2.9,1.8,2,4.2c-0.1,0.2,0.1,0-0.1,0.2c-1.9,2.8-1.9,2.7,1.2,4.5
		c1.2,0.7,2.4,1.1,3.8,0.9c1.8,0,3.2,1,4.3,2.4c2,2.5,3.5,5.2,5.2,7.9c1.1,1.8,2.2,3.5,3.7,5.1c0.7,0.7,1.5,1.1,2.5,1
		c0.6,0,1.3,0.2,1.8,0.5c2.2,1.4,4.5,1.2,6.9,0.7C76.7,212.3,78,211.5,79.2,211.8z"/>
	<path class="st27" d="M132.8,205.9c-0.7,1.5,0.2,3.3-0.8,4.9c-0.7,1.1-1.5,2.1-2.5,2.8c-1.1,0.9-2.3,0.2-3.1-0.8
		c-2.2-2.7-5.3-4.5-7.6-7.2c-0.6-0.7-1.2-1.1-2.1-0.7c-0.8,0.3-1.4,0.1-1.8-0.5c-0.5-0.7-0.8-1.4-0.3-2.3c0.5-0.9,1.4-1.5,2.4-2.5
		c-3-0.7-4.9-2.9-7.6-3.8c-0.9-0.3-1.2-1.1-0.8-2c0.3-0.7,0.6-1.4,0.9-2.1c0.9-0.1,0.5,0.9,1.1,1.1c1.4-1.7,1.4-2.9-0.2-4.3
		c-1-1-2.3-1.6-3.8-1.4c-0.5,0.1-1.1,0.2-1.1,0.9c0,0.6,0.6,0.6,1,0.8c0.4,0.1,0.9,0.1,1.4,0.3c0.8,0.4,1.6,0.9,1,2
		c-0.8,0-1.6,0-2.5,0c-3.2-0.2-4.5-2.3-4.9-5c-0.4-2.8-1.4-5.2-2.6-7.7c-0.7-1.4-0.4-2.6,1.1-3.3c1.3-1.1,2.7-2.3,3.2-4
		c0.4-1.2,0.7-2.4-0.2-3.7c-0.4-0.5-0.7-1.3-0.3-1.9c0.5-0.7,1.3-0.8,2.1-0.6c2.4,0.6,4.9,0.3,7.3,0.5c3,0.2,6,0.3,9,0.3
		c3.8,0.1,7.7,0.2,11.5,0.1c1.7,0,2.8,1.1,2.8,2.9c0,1.3-0.1,2.6-0.4,3.8c-0.3,1.3-1.5,1.6-2.7,1.4c-2.4-0.2-4.5,0.4-6.4,1.8
		c-0.6,0.4-1.2,0.9-1.3,1.6c-0.8,2.8-1,5.7,0.6,8.2c1,1.6,3,2,4.7,2.4c3.5,0.9,4.5,2.6,3.8,6.2c-0.6,3.2-0.7,6.5-0.7,9.7
		C133,204.5,133.1,205.2,132.8,205.9z"/>
	<path class="st25" d="M46.2,187.9c0.8-2.6,0.3-3.6-2.4-4c-1.3-0.2-1.6-0.8-1.5-1.9c0-4.1,0.2-8.2,0.7-12.3c0.2-2-0.3-4,0-6.1
		c0.3-2.3,1.4-3.2,3.7-3c2.1,0.2,4.2,0.3,6.3,0.3c3.3,0,6.4,0.7,9.7,0.8c2.3,0.1,4.8-0.5,7.1,0.3c1.9,0.4,3.8-0.1,5.7,0.3
		c0.8,0,1.4,0.4,1.8,1c-1.2-0.3-2.3-0.3-3.6,0c-2.4,0.6-4.8,0-7.1-0.6c-2.4,0.5-4.9,0.1-7.3,0c-3-0.2-6-0.5-9.1-0.6
		c-1.1,0-2.2,0-3.3-0.2c-0.6-0.1-1.3-0.2-1.7,0.5c-0.4,0.7-0.6,1.6,0,2.1c2.6,2.3,3.7,5.8,6.7,7.8c1.2,0.8,1.7,2,1.8,3.3
		c0.3,5.1,3.4,8.1,7.6,10.3c1.8,1,3.8,1.5,5.3,3c1.2,1.2,2,2.4,1.6,4.2c-0.3,1.2,0.1,2.6-0.2,3.8c-0.6,1.3-1.5,2.3-2.4,3.3
		c-0.9,1.1-0.8,2.2,0.2,3.2c0.3,1.6,0.7,3.1,1.5,4.5c0.4,0.7,0.4,1.5-0.2,2.1c-0.9,0.6-1.5,0.1-2.2-0.5c-1.6-1.4-2.7-3.2-3.8-4.9
		c-1.7-2.7-3.4-5.5-5.3-8.1c-1.1-1.5-2.4-2.5-4.3-2.6c-0.4-0.5-0.5-1-0.5-1.6c0-3.1-0.3-3.5-3.5-3.9c-0.4,0-0.8-0.1-1.2-0.3
		C46.3,188.1,46.2,188,46.2,187.9z"/>
	<path class="st4" d="M58,252.5c-0.8-0.4-1.5-0.5-0.8-1.8c2.1-4.2,6.2-3.3,8.1-0.2c0.5,0.8,0.9,1.6,1.2,2.7
		c-1.4-0.2-2.4-1.1-3.5-1.5c-1.1-0.4-2.2-1.4-3.5-0.2C58.9,251.6,58.5,252.1,58,252.5z"/>
	<path class="st28" d="M131.5,228.7c0.1-1.9-0.4-3.8,0.3-5.7C131.7,225,132.2,226.9,131.5,228.7z"/>
	<path class="st29" d="M75.3,162.3c-1.9-0.1-3.8,0.4-5.7-0.3C71.6,162.1,73.5,161.6,75.3,162.3z"/>
	<path class="st30" d="M132.2,217.1c0.1-1.9-0.4-3.8,0.3-5.7C132.4,213.4,132.9,215.3,132.2,217.1z"/>
	<path class="st31" d="M131.9,222.8c0.1-1.8-0.4-3.6,0.3-5.3C132,219.2,132.5,221,131.9,222.8z"/>
	<path class="st32" d="M92.5,164c-1.5-0.1-3.1,0.4-4.6-0.3C89.5,163.9,91,163.4,92.5,164z"/>
	<path class="st6" d="M65.2,199.9c0.8-0.9,1.6-1.9,2.4-2.8c0.3-0.3,0.7-0.4,1.1-0.3c1.6-0.7,3.3-1,5-1.3c2.2-0.3,3.9,0.3,5.4,2
		c1.6,1.8,2.8,3.6,3,6.1c0.2,3-1.3,5.1-2.9,7.2c-1.6,0.4-1.4-0.8-1.4-1.7c0.1-1.2,0.2-2.3,0.2-3.5c-0.1-3.4-2.8-5.8-6.1-5.5
		c-1.6,0.1-3.3,0.1-4.9,0.5C66.3,200.7,65.4,201,65.2,199.9z"/>
	<path class="st15" d="M65.9,183.1c1.6-4.2-0.7-6.7-3.6-8.5c-2.4-1.6-4.6-0.1-6.6,1.7c0.3-4.5,2.4-5.9,6.8-6.2
		c3.7-0.2,6.1,1.7,7.4,6.4C70.6,178.9,68.4,182,65.9,183.1z"/>
	<path class="st33" d="M68.6,196.8c-0.3,0.4-0.7,0.3-1.1,0.3c0.1-1.7-0.2-3.5,0.3-5.2c0.2-0.7-0.3-1.2-0.7-1.7
		c-1.1-1.2-2.2-2.1-3.8-2.8c-2-0.8-4-1.8-5.8-3.3c-2.7-2.2-4.3-5-4.4-8.5c-0.1-1.4-0.7-2.5-2-3.2c-1.1-0.5-1.7-1.4-2.4-2.5
		c-1-1.7-2.2-3.3-3.7-4.6c-1.1-1-0.8-2.1-0.3-3.2c0.5-1.2,1.5-0.9,2.4-0.7c0.4,0.1,0.8,0.2,1.2,0.2c5.1-0.1,10.2,0.8,15.3,0.7
		c1,0,2,0.2,2.9,0.3c-0.2,0.5-0.6,0.7-1.1,0.7c-4.2,0.2-8.4-0.2-12.5-0.6c-2.1-0.2-4.3,0.3-6.4-0.4c-0.5-0.1-0.7,0.4-0.8,0.7
		c-0.3,0.6,0,1.2,0.4,1.6c1.8,1.5,2.9,3.5,4.2,5.3c0.8,1,1.9,1.7,2.8,2.6c0.6,0.6,1.2,1.2,1.1,2.1c-0.1,2.3,0.9,4.3,2,6.2
		c1,1.8,2.8,2.8,4.5,3.7c1.3,0.8,2.7,1.3,4.1,2.1c3.5,2,5,4.3,4,8.5C68.6,195.7,68.7,196.2,68.6,196.8z"/>
	<path class="st21" d="M65.2,199.9c0.7,0.6,1.4,0.3,2.1,0.1c2.1-0.4,4.3-0.7,6.3-0.4c3.8,0.6,5.7,4.4,4.7,8.9
		c-0.2,0.9-0.6,1.9,0.8,2.2c0,0.4,0,0.7,0,1.1c-0.6,0.2-1.2,0.6-1.8,0.6c-0.9,0.1-1.4-0.5-1.4-1.4c-0.4-0.7,0-1.4,0.2-2
		c0.6-2,0.2-3.8-1.3-5.3c-1.7-1.6-3.6-2.6-6-1.7c-1.1,0.4-2.2,1-3.4,1.3C64.1,202.9,64,201.2,65.2,199.9z"/>
	<path class="st16" d="M103,224.5c2.5-4.4,7.7-4.7,10.2-0.6c1,1.6,1.4,3.6-0.6,5.9c-0.8,0.1-1.1-0.6-1.4-1.1
		c-0.5-0.6-0.8-1.3-1.2-1.9c-1.7-2.5-2.1-2.6-5-1.7C104.2,225.2,103.3,225.8,103,224.5z"/>
	<path class="st17" d="M103,224.5c0.5,1,1.2,0.4,1.8,0.1c3-1.1,3.5-1,5.3,1.6c0.8,1.2,1.2,2.6,2.4,3.5c-2.4,3-3.6,2.9-5.1-0.8
		c-0.7-1.7-1.7-2.4-3.5-1.8c-0.9,0.3-1.3-0.1-1.3-1C102.7,225.6,102.5,224.9,103,224.5z"/>
	<path class="st20" d="M108.7,191.1c0-1.2-0.7-1.7-1.9-1.8c-0.9-0.1-2.1,0.1-2.3-1.3c-0.1-0.8,1.8-1.8,2.9-1.4
		c1.6,0.5,3.1,1.1,4.1,2.7c0.6,1.1,0.3,3.5-0.6,4.3c-0.5,0.4-1,0.5-1.1-0.3c-0.1-0.5,0.1-1.1-0.4-1.5
		C109.1,191.6,108.9,191.3,108.7,191.1z"/>
	<path class="st18" d="M90.9,218.8c1.3,0,2.7,2.1,2.2,3.2c-0.2,0.4-0.4,0.6-0.9,0.5c-1.4-0.4-2.4-1.5-2.8-2.7
		C89,219,90.4,219,90.9,218.8z"/>
	<path class="st26" d="M90.1,189.7c0.1,0.9-0.5,1.4-1.2,1.3c-0.9,0-1.1-0.9-1.2-1.6c-0.1-0.8,0.5-1.1,1.2-1.1
		C89.8,188.3,90.1,188.9,90.1,189.7z"/>
	<path class="st7" d="M76.7,237.4c-1.1,1.4-3.5,1.9-5.1,1.2c-1-0.5-0.9-1.2-0.7-2.1c0.5-2.2-0.7-3.4-2.9-3c-1.1,0.2-1.9-0.1-2.2-1.4
		c-0.9-3.3-0.1-5,2.8-6.3c0.7,1.1-0.7,1.7-0.7,3c1.8-0.9,3.5-1,5.4-0.2c2.5,1.2,3.7,2.9,3.2,5.7C76.4,235.4,76.9,236.4,76.7,237.4z"
		/>
	<path class="st8" d="M76.7,237.4c-0.7-1.1-0.9-2.3-0.5-3.7c0.4-1.1,0-2.2-0.8-3c-2-2.2-4.4-2.7-7-1.5c-0.3,0.1-0.6,0.8-1,0.3
		c-0.3-0.4-0.3-1,0.1-1.5c0.5-0.6,1.1-1.2,1.2-2.1c3.8-1.4,7.2-1.5,9.5,1.2c1.8,2.2,1.9,4.4,1,6.8C78.6,235.2,77.9,236.5,76.7,237.4
		z"/>
	<path class="st10" d="M56.7,227.2c-3,2.9-3,2.9-5.1-0.8c-0.3-0.6-0.7-1-1.4-1.2c-2.5-0.7-2.8-1.4-1.2-3.5c1.2-0.2,2.4-0.1,3.6,0.3
		c1.7,0.6,2.9,1.6,3.3,3.4C56,226,56.2,226.7,56.7,227.2z"/>
	<path class="st11" d="M56.7,227.2c-1,0-1-0.8-1.2-1.4c-0.8-2.5-2.3-3.7-4.9-3.8c-0.6,0-1.2,0.2-1.6-0.4c0.9-1.8,2.5-2.6,4.5-2.4
		c2,0.2,3.3,1.7,4,3.3C58,224,57.4,225.7,56.7,227.2z"/>
	<path class="st12" d="M51.4,192.1c0,0.6,0,1.2,0,1.8c-2.6,0.5-4.4-1.3-6.4-2.5c-0.8-0.5-1.1-1.6,0-2.4c0.4-0.3,0.7-0.7,1.1-1.1
		c0,0,0,0.1,0,0.1c0.7,1,1.6,1.6,2.7,2.1C49.8,190.6,50.7,191.2,51.4,192.1z"/>
	<path class="st34" d="M100.2,248.1c0,1.6-0.7,2-2,1.3c-0.5-0.2-0.9-0.6-1.3-0.8c-0.7-0.4-2-0.9-1.7-1.7c0.3-0.9,1.3-1.6,2.4-1.7
		c1.1-0.2,1.7,0.3,2.1,1.3C100,247.1,100.3,247.6,100.2,248.1z"/>
	<path class="st14" d="M51.4,192.1c-1.5-0.9-3-1.8-4.5-2.7c-0.5-0.3-0.8-0.8-0.7-1.5c0.4,0,0.7,0,1.1-0.1
		C50.6,187.9,51.5,188.8,51.4,192.1z"/>
</g>
<g>
	<path class="st35" d="M352.6,126.4c3.9,2.2,7.3,5,10.2,8.4c0.8,1.3,2,2.1,3.2,2.9c0.2,0.4,0.5,0.7,0.7,1.1c0.3,3.3,2.3,5.5,4.6,7.4
		c4.1,3.3,7.8,7,11.9,10.3c0.7,0.5,1.3,1.1,1.6,1.9c0.5,1.3,1.2,1.8,2.7,1.8c2.2-0.1,4.7,3,4.8,5.4c-1,0.5-1.9,0.1-2.5-0.7
		c-1.4-1.8-3.3-2.2-5.4-2.4c-2-0.2-3.9-1.1-3.7-3.7c0.1-0.9-0.3-1.7-1.1-2.1c-4.7-2.5-7.9-6.8-12.3-9.7c-1-0.6-1.6-1.6-1.9-2.7
		c-0.4-1.2-1-2.2-1.6-3.3c-2.1-3.3-5.4-3.7-8.2-0.9c-0.3,0.3-0.6,0.6-0.7,0.9c-0.3,2.8,0.4,5.6,0,8.4c-0.1,0.8,1.1,1.1,2,1.1
		c0.9,0.1,1.9,0,2.8,0.1c2.2,0.1,3.6,1,3.6,3.4c0,1.8,0.7,3,2.4,3.7c1.1,0.4,2.1,1.2,2,2.5c-0.1,1.2-1.4,1.4-2.4,1.7
		c-2.1,0.6-4,2-7.1,1.6c2.2,2.5,2.9,5.2,5.8,6.2c1.3,0.5,2.2,1.6,1.6,3.1c-0.5,1.3-1.5,2.1-3.1,1.9c-0.6-0.1-1.1-0.3-1.7-0.3
		c-2.5-0.4-3.5,0.4-3.8,2.9c-0.5,4.1-1,4.7-5.1,5.3c-1.6,0.3-2.8,1-4.1,2.1c-2,1.6-4.1,3.1-6.7,3.8c-2.6,0.8-3.1,1.9-2.1,4.4
		c0.4,1.1,1.1,2.1,0.1,3.1c-1,1-2.3,1.3-3.6,0.9c-1.4-0.4-2.9-0.9-4.3-1.4c-1-0.4-1.9-0.7-3-0.4c-3.2-1.6-5.9-3.9-8.7-6
		c-8.5-6.5-16.9-13.4-25.4-20c-4.1-3.2-8-6.8-12-10.1c-0.6-0.5-1.1-1-1.1-1.9c1.5-1.5,2.5-0.1,3.6,0.6c6.6,4.3,12.2,9.8,18.3,14.7
		c0.8,0.7,1.6,1.3,2.6,1.6c2.2,0.5,4.2,1.2,4.8,3.7c0.2,0.8,1.1,1,1.9,1c2.3,0.1,3.8,1.2,4.9,3.3c0.4,0.8,0.9,1.9,2.1,1.3
		c1.1-0.6,0.8-1.6,0.2-2.5c-1.1-1.6-0.5-2.8,0.6-4c1.2-1.4,2.5-0.8,3.8-0.2c1.1,0.5,2.3,0.7,3.5,0.9c3,0.3,5.1-0.7,6.4-3.1
		c0.3-0.5,0-0.9-0.2-1.3c-0.6-1.1-1.3-2.1-2.3-2.8c-1.4-1-1.7-2.3-1.1-4c1.1-3.1,0.9-3.3-2.4-4.1c-2.9-0.8-3.8-2.2-3.3-5.1
		c0.3-1.7-1.8-4.9-3.9-5.6c-1.6-0.5-3.2-1.2-4.8-1.8c-0.7-0.3-1.5-0.7-1.4-1.5c0.1-1,0.9-1.4,1.8-1.5c1.8-0.4,3.5,0.3,5.2,0.9
		c-2.1-1.6-4.6-0.8-6.8-1.5c-1.1-0.4-2-0.7-2.5-1.9c-1.5-2.9-3.6-4.9-7.2-3.9c-0.4,0.1,0,0.2-0.3,0c-3.4-1.7-7.5-1-10.9-3.1
		c-3.2-2-6.5-3.9-10.5-3.1c-0.6,0.1-1.3,0.1-1.8-0.5c4.3-2.3,9.1-3.1,13.6-4.8c9.7-3.6,18.2-9.3,26.5-15.2c4.2-3,6-3,10.2,0.2
		c-0.2,0.6-1.8,0.7-0.8,1.6c1.6,1.4,2.6,3.5,4.7,4.3c3.3,1.3,6.3,3.1,9.3,5.1C347.3,126,349.8,126.7,352.6,126.4z"/>
	<path class="st36" d="M281.6,133.1c5.2-1.3,9.6,0.7,13.7,3.7c0.2,0.1,0.3,0.3,0.5,0.3c3.8-0.6,6.9,2.7,10.9,1.8
		c3.1-0.7,5,1.7,5.9,3.8c1.1,2.8,3.6,2.9,5.2,2.7c2.7-0.3,4.1,1.4,6.2,2.3c-1,1-1.7,0.6-2.6,0.2c-1.5-0.8-3.1-1.4-4.8-1
		c-0.5,0.1-1.2,0.3-1.3,0.9c-0.1,0.7,0.6,0.9,1.1,1c1.1,0.2,2.1,1.1,3.1,1.2c3.2,0.2,4.5,2.7,6,4.9c0.4,0.6,0.9,1.2,0.4,2.1
		c-0.4,0.7-1.9,1.4-0.8,2.2c1.1,0.8,1.9,2.2,3.7,2.1c2.8-0.1,3.9,2,2.6,4.4c-0.9,1.6-1.1,2.9,0.9,4c1.5,0.8,2,2.4,2.8,3.8
		c0.6,1.1,0.5,2-1.1,1.8c-1.2-0.2-1.6,0.4-1.2,1.5c0.5,1.7-0.5,1.8-1.6,1.6c-2.8-0.5-5.8,0-8.3-1.9c-1.2-0.9-1.6,0.3-2.2,1
		c-0.6,0.7-1.6,1.3-0.6,2.3c0.5,0.5,1,1.1,1.1,1.9c0.1,1.2-0.3,1.9-1.4,2.5c-1.2,0.6-1.9-0.1-2.3-0.9c-1.2-2.7-2.9-4.5-6.2-4.1
		c-0.6,0.1-1.4-0.3-1.4-1.1c0.1-2.6-1.8-3-3.6-3.4c-3.5-0.9-5.5-3.9-8.3-5.9c-2-1.4-4.1-3.1-5.7-4.8c-2.1-2.2-4.9-3.2-7-5.2
		c-1-1-2.1-2.1-3.8-1.7c-3.3-0.4-4.8-3.3-7.1-5c-2.4-1.8-4.6-3.7-6.6-5.9c-0.9-1.1-2.3-0.9-3.4-1.6c-0.1-0.6-0.5-1.2,0.3-1.7
		C270.4,139.4,275.7,135.9,281.6,133.1z"/>
	<path class="st37" d="M328.4,194.6c0.7-1.5,1.8-0.6,2.6-0.4c1.6,0.5,3.2,1.1,4.7,1.8c1.3,0.6,2.4,0.1,3.4-0.7
		c1.1-1-0.2-1.6-0.6-2.4c-1.4-2.9-0.3-4.7,3.1-5.7c2.4-0.6,4.5-2.1,6.2-3.9c1.1-1.2,2.5-1.5,4-1.7c4.1-0.5,4.5-0.9,4.7-5
		c0.1-3,1.9-4.2,5-3.2c1.8,0.6,3.4,0.5,3.8-1.4c0.4-1.8-1.2-2.2-2.7-2.4c-0.7-0.1-5-5.6-4.9-6.4c0.1-0.8,0.5-1.6,1.4-1.2
		c3.1,1.5,5.1-1.4,7.8-1.8c1.4-0.2-0.4-1.9-0.9-2c-3.1-0.5-3.5-2.5-3.3-5.1c0.1-1.5-1-1.9-2.2-2c-1.2-0.1-2.4,0-3.7,0
		c-2.7-0.1-3.8-1.9-2.6-4.4c0.5-1,1.2-1.9-0.1-2.9c-0.6-0.5-0.5-1.4-0.4-2.1c0.3-2,2.9-4.2,5.9-4.5c2-0.2,3.6,0.6,4.5,2.6
		c0.7,1.5,2,2.7,2.1,4.5c0,0.5,0.6,1.2,1.1,1.5c4.7,2.9,7.9,7.8,13.1,10.2c0.9,0.4,1.7,1,1.3,2.1c-1.1,2.7,1.1,3.4,2.6,3.5
		c2.8,0,4.9,0.8,6.5,3.1c0.4,0.6,1.2,0.5,1.8,0.5c1.1-0.4,2.3-0.2,3.4-0.6c1.2,1.3,2.5,2.4,3.3,4c-0.7,1.7-1.7,1.7-3.1,0.7
		c-3.6-2.6-5-2.4-8.4,0.7c-0.3,0.3-0.5,0.5-0.9,0.6c-4.7,1.1-4.7,1.1-4.4,6c0.9,0.2,1.3-0.6,1.8-1c0.8-0.6,1.6-1.5,2.7-0.8
		c1.2,0.7,0.7,1.8,0.3,2.7c-0.2,0.4-0.3,0.9-0.4,1.4c-0.4,1.6-1.7,2.5-2.9,3.2c-3.7,2.2-7,5-11,6.6c-2.4,0.8-4.4,2.5-6.7,3.6
		c-7.8,3.7-15.7,7-23.8,10c-1.2,0.4-2.3,0.8-3.6,0.6c-4-1.8-7.1-4.9-10.5-7.6C328.3,195.2,328.3,194.9,328.4,194.6z"/>
	<path class="st38" d="M391.6,177.7c-1.8,1-1.7,2.2-0.7,3.8c1.8,3,1.5,3.6-1.5,5.4c-4,2.5-8,5.1-12,7.7c-1.2,0.7-1.6,1.8-1.1,3.1
		c1.6,4.6,1.4,5-2.8,7c-0.9,0.4-1.9,0.8-2.8,1.1c-2.7-0.4-4.8,1.2-7.1,2.2c-3.4,1.4-6.8,2.6-10.6,2.6c-1,0-1.8,0.4-2.6,0.9
		c-4.3,1.5-8.5,3.3-13.2,3c-3.4-0.8-3.8-1.4-3.2-4c2.4-1.7,5.4-1.9,8.2-2.7c8.7-2.6,17.2-5.6,25.6-9.2c1.8-0.8,3.4-2,4.6-2.5
		c-5.3,2.9-11.7,4.9-18,7.4c-8.8,3.5-18,4.9-27,7.6c-1.8,0.5-3.7,0.9-5.6,0.7c-3.5-2.1-5.6-5.5-8.5-8.3c-0.4-0.4-0.7-1.1-0.1-1.8
		c1.5-0.7,2.7,0.4,4,0.7c2.9,0.7,3.8,0.2,4.4-2.8c0.5-2.6,2-3.2,4.4-1.9c3.9,2.1,7.4,5,11.8,6.1c5-0.6,9.2-3.4,13.9-4.9
		c8-2.5,15.1-6.8,22.5-10.6c4.4-2.1,8.2-5.1,12.2-7.8c0.9-0.6,1.5-1.4,1.6-2.5C389.1,177,390,175.3,391.6,177.7z"/>
	<path class="st39" d="M239.8,196.9c0.8-4.6,3.5-8.3,5.4-12.4c4.3-9.4,9-18.7,13.5-28c0.3-0.6,0.9-1,1.3-1.4c0.9,3.1,0.2,6-0.8,8.9
		c-0.1,0.3-0.4,0.5-0.4,0.7c-0.5,4.3-1.8,8.5-2.7,12.7c-1.2,5.3-0.1,10.9-2.5,16c-0.2,0.4-0.3,0.9-0.3,1.4c0.2,10-3.3,19.5-3.7,29.5
		c0,0.7-0.3,1.3-1,1.5c-1.2-0.3-1.2-1.4-1.4-2.2c-0.7-2.8-0.7-5.6,0-8.4c0.7-2.8,0.1-5.2-1.4-7.5c-1.6-2.5-2.5-2.9-5.3-1.9
		c-1.1,0.4-2.2,0.8-3.1-0.2c-1-1.1-0.6-2.3,0-3.4C238.7,200.6,239.5,198.9,239.8,196.9z"/>
	<path class="st40" d="M229.1,219.6c0.9-0.8,0.2-2.4,1.6-3c1.2,0.1,2.4,0.2,3.6-0.3c2.3-1.2,4.4-0.9,6.7,0.3
		c1.3,0.7,2.2,1.3,2.3,2.8c0.1,0.7,0.3,1.3,0.7,1.8c2.5,2.3,3.8,5.3,5.2,8.2c0.4,0.4,0.8,0.7,1.2,1c2.5,1.6,5.4,1.4,8.1,1.8
		c11.5,1.7,22.9,3.3,34.6,3c0.9,0,1.9-0.1,2.6,0.6c0,2.1-1.1,3.9-1.9,5.8c-3.5,1.3-7,0.2-10.4,0c-8.9-0.5-17.7-2.4-26.5-3.7
		c-2.8-0.4-5.5-1-8.1-2.1c-0.5-1.1-1.2-2.1-2.4-2.5c-1.3-0.4-2.1-1.5-3.1-2.4c-3.6-3.3-7.5-6.2-11.9-8.2
		C230.1,222.2,229.1,221.3,229.1,219.6z"/>
	<path class="st41" d="M261.3,151.2c1-1,0.8-2.7,2.1-3.5c1.1,1,0.7,2.2,0.6,3.4c-0.8,10.1-0.6,20.2,0.3,30.3
		c1.2,12.3,2.7,24.6,4.2,36.9c0.3,2.7,0.2,5.5,2,7.8c0.4,0.8,1.9,1.1,1.2,2.5c-2.4,0.9-3.4-0.8-4.3-2.5c-1.8-3.6-2.4-7.5-3.1-11.4
		c-0.7-3.8-2-7.4-1.8-11.3c0-0.6-0.1-1.4-0.9-1.6c-0.8-0.3-1.2,0.3-1.6,0.8c-2.3,2.3-3.9,2.3-6.8,0.2c-0.6-0.8-0.2-1.6,0.1-2.4
		c1-1,1.2-2,0.1-3c0.2-4.8,1.6-9.4,2.4-14.1c1.5-9.3,3.4-18.5,5.1-27.8C261.2,154.1,262.4,152.7,261.3,151.2z"/>
	<path class="st42" d="M357.7,211.6c-3.9,1.7-3.9,1.7-3.4,6.5c0.1,1.5-0.5,3-1.8,3.5c-4,1.6-8,3.2-12.4,3.3c-4-0.3-8-0.1-12,0.1
		c-2.9,0.1-5.8-0.1-8.6,0.9c-1.7,0.6-3.7,0.2-5.5-0.6c-0.9-0.6-1.9-1-2.9-1.4c-1.5-0.7-2.3-1.8-1-3.5c0.6-0.4,1.2-0.6,1.9-0.8
		c1.3,0,2.5-0.5,3.7-0.9c6.2-0.2,12.2-2.1,18.2-2.9c7.7-1,14.8-3.9,22.3-5.2C356.8,210.9,357.7,210.4,357.7,211.6z"/>
	<path class="st43" d="M336.9,225.7c-0.2,0.2-0.4,0.3-0.6,0.5c-2,0.5-2.8,1.9-3.2,3.8c-0.2,1.2,0.1,2.5-0.8,3.5
		c-4.4,1.6-8.9,2.2-13.5,2.3c-0.2-0.8-0.8-0.6-1.3-0.5c-5.1,1-10.2-0.3-15.4-0.2c-2.4,0-4.9,0.4-7.2-0.7c-1.1-0.8-2.2-1.5-3.2-2.3
		c-1.8-1.3-1.7-2,0.1-3.7c5.3-1.1,10.7-1.2,16-1.1c8.6,0.2,17-1.8,25.5-2.2C334.5,225.1,335.8,224.6,336.9,225.7z"/>
	<path class="st44" d="M248.8,230.2c-1.4-3.4-3.1-6.7-5.9-9.2c-1-0.9,0.5-2.5-1.8-3.7c-3-1.5-5.2-1.1-7.8,0.1
		c-1.1,0.5-2,0.4-2.5-0.8c1.1-4,3.7-7.2,5.1-11c1.1-3,1.7-6.2,4-8.7c0.8,1.7,0.3,3.2-0.8,4.5c-0.5,0.6-1,1.1-1.2,1.8
		c-0.3,0.7-0.3,1.5,0.3,2.1c0.6,0.7,1.3,0.4,2,0c3.9-1.8,4.9-1.4,7,2.5c1.4,2.6,1.8,5.1,1.1,8c-0.9,3.3-0.6,6.6,0.7,9.8
		C250.2,227.2,250.2,228.7,248.8,230.2z"/>
	<path class="st45" d="M270.2,226.8c-2.8-2.3-2.1-5.8-2.5-8.8c-1.1-7.7-1.9-15.4-2.7-23.1c-0.6-6-1.1-12-1.7-18
		c-0.8-7.7-0.2-15.4-0.4-23.1c0-2,0.9-4,0.5-6.1c0.2-1.2-0.4-2.6,1-3.4c1.5-0.7,2.7-0.1,3.5,1.2c0.2,0.8,0.9,1.5,0.7,2.4
		c-0.7,1.3,0.9,2.6-0.1,3.9c-0.2,0.1-0.5,0.1-0.8,0.1c-1.3-0.8-1.4-2.2-2.2-3.3c3.8,7.6,6.4,15.7,10.1,23.3c0.1,0.2,0.2,0.5,0.3,0.7
		c0,0.9,0.5,1.8-0.5,2.5c-1.2-0.1-1.8-1-2.5-1.8c-2.1-6.6-5-12.9-7.6-19.2c0.1,5.9,0.2,11.7,0.5,17.6c0.8,8.2,1,16.5,1.9,24.7
		c0.1,0.9,0.2,1.9,0.4,2.8c0.9,8.3,1.1,16.7,3.1,24.8c0.2,0.7,0.3,1.5,0.1,2.2C271.3,226.6,270.8,226.8,270.2,226.8z"/>
	<path class="st46" d="M270.2,226.8c0.3-0.5,0.7-0.6,1.2-0.6c2.5-0.8,5.2-0.6,7.7-0.4c7.3,0.6,14.5-0.2,21.8,0
		c2.8-0.8,5.6-1.1,8.5-1c1.6,0.3,3.3,0.1,4.9,0.6c2.8,0.2,5.5,0.1,8.4-0.8c2.4-0.7,5.4,0,8.2-0.2c2.4-0.1,4.9-0.2,7.4-0.3
		c0.8,0,1.5,0.2,1.9,1c-1,0.5-2,0.9-3.2,0.8c-5.9,0.4-11.8,0.5-17.6,1.9c-1.2,0.3-2.4,0.3-3.6,0.3c-7.5-0.3-15,0.8-22.5,0.8
		c-0.5,0-0.9,0.2-1.4,0.3c-6.1,0.9-12.2,0.1-18.3,0.2c-0.6,0-1.1-0.2-1.5-0.7C271.4,227.9,270.8,227.3,270.2,226.8z"/>
	<path class="st47" d="M229.1,219.6c0.8,1.6,2.3,2.4,3.9,3.2c3.5,1.8,6.8,4.2,9.8,6.8c1.7,1.5,3.1,3.4,5.5,4.1
		c0.6,0.2,1.5,0.7,0.5,1.6c-1.2,1.1-2.6,0.1-3.9,0.5c-1.7,0-3.1-1-4.6-1.6c-1-1.3-2.6-1-3.9-1.5c-2.7-1.1-5.5-2-8.1-3.2
		c-0.8-0.4-1.4-0.5-2.1,0.1c-1.2-0.5-1.3-1.3-0.7-2.4C226.8,224.6,227.9,222.1,229.1,219.6z"/>
	<path class="st49" d="M295.1,234c7.7,0.1,15.4,1.5,23.1,0.5c0.5-0.1,1.2-0.1,1.3,0.5c0,0.2-0.5,0.5-0.7,0.8
		c-3.4,0.3-6.7,0.7-10.1,1c-3.8,0.2-7.5,0.2-11.3-0.1c-0.7-0.1-1.3-0.1-1.7-0.7c-10.3,0.4-20.6-0.5-30.7-2c-4.3-0.6-8.7-1-13-2.1
		c-0.8-0.2-1.6-0.3-2.1-1.1c-0.1-1.1,0.5-1.4,1.4-1.5c10.4,1.6,20.7,3.2,31.2,3.9c3.2,0.2,6.4,0.1,9.6,0.2
		C293.1,233.5,294.1,233.5,295.1,234z"/>
	<path class="st50" d="M251,229.6c-0.4,0.4-0.8,0.8-1.2,1.1c-0.3-0.2-0.7-0.4-1-0.6c0.5-1.5,0.4-3,0-4.5c0.1-6.5,1.9-12.7,2.7-19.1
		c0.4-3.9,0.5-8.1,1.5-11.8c1.3-5,2.2-10,2.2-15c0-4.9,4-8.9,2.3-13.9c1.8-2.6,2.1-5.6,2.4-8.7c0.1-0.7,0.1-1.5,0.2-2.2
		c-0.2-1.5,1.3-2.4,1.3-3.9c1.7,0.5,1,1.7,0.8,2.7c-2.3,10.7-3.9,21.6-6.1,32.3c-0.8,3.9-1.3,7.8-2.1,11.7c0.7,0.7,0.4,1.5,0,2.2
		c-0.4,0.7-0.7,1.5-0.6,2.3c1,4.1-0.5,7.9-1,11.9C251.7,219.5,250.6,224.5,251,229.6z"/>
	<path class="st51" d="M396.1,164.7c-0.9,1.7-2.1,1.2-3.4,0.6c-1.1-1.3-2.1-2.6-3.2-3.9c-0.3-0.3-0.9-0.8-1.1-0.7
		c-3,1.3-3.2-1.4-4.6-2.7c-4-3.9-8.4-7.5-12.7-11c-2.1-1.7-3.5-3.9-4.7-6.2c-0.4-0.7-0.4-1.5,0.4-2c6.2,5.6,12.3,11.4,18.8,16.8
		c3,2.4,5.6,5.4,9.1,7.2C395.3,163.1,395.6,164,396.1,164.7z"/>
	<path class="st52" d="M352.6,126.4c-1.8,1.8-3.9,0.7-5.4-0.1c-4.5-2.3-8.6-5.2-13.2-7.3c-1.8-0.8-2.6-3.1-4.3-4.3
		c-1-0.6-0.4-1.2,2.2-1.4C339.2,116.9,346.1,121.4,352.6,126.4z"/>
	<path class="st53" d="M244.9,235.7c1.1-1.5,2.6-0.2,3.9-0.5c4.2,1.9,8.8,1.9,13.2,2.9c7.3,1.5,14.6,2.3,22,3.1
		c3.3,0.4,6.6,0.5,9.9,0.2c2.2-0.5,4.4,0,6.6,0c0.7,0,1.5,0.2,1.4,1.3c-3.9,1.5-7.8,0.5-11.7,0.3c-11.6-0.4-23-2.1-34.4-4.4
		C252.2,237.8,248.4,237.1,244.9,235.7z"/>
	<path class="st54" d="M302,242.7c-1.7-1.5-3.8,0-5.6-0.6c-0.8-0.3-1.7,0.2-2.4-0.6c-0.5-2.2,1-3.7,1.7-5.5c4.3,0.4,8.7-0.3,13,0.8
		c-2,1.3-3.9,2.7-4.9,5.1C303.5,242.6,302.9,243.1,302,242.7z"/>
	<path class="st55" d="M357.7,211.6c-0.4-0.6-0.8,0-1.2-0.1c-0.9-0.8-1.9-0.1-2.9-0.1c-1.1,0-2.3,0.6-3.3-0.5c1.2-1.8,3.1-0.9,4.7-1
		c4.6-0.4,8.4-3,12.8-4.1c1-0.2,1.9-1.5,2.9,0.1C366.3,207.7,362,209.6,357.7,211.6z"/>
	<path class="st56" d="M226.3,229.5c0.3-1.5,1.2-1.1,2.1-0.8c4,1.6,7.8,3.5,12.1,4.2c0.5,0.1,1.2,0.1,1.1,0.8c0,0.2-0.8,0.2-1.2,0.3
		C235.4,233.4,230.9,231.1,226.3,229.5z"/>
	<path class="st57" d="M332.3,233.5c0.1-1.4,0.1-2.7,0.2-4.1c0.2-2.2,1.4-3.5,3.8-3.2c-1.6,1.3-2.3,3.1-2.7,5
		C333.4,232.1,333.4,233.2,332.3,233.5z"/>
	<path class="st37" d="M366,137.7c-2,0.1-3.3-0.6-3.2-2.9C364.5,135,365.5,136.1,366,137.7z"/>
	<path class="st58" d="M268.6,147.8c-0.1-0.8-1.8-1.2-0.6-2.3c4.5,3.8,9,7.6,13.5,11.4c3.4,2.9,6.8,6,10.3,8.8
		c5.7,4.7,11.5,9.4,17.4,13.9c4.4,3.4,8.6,7.2,13.4,10.2c2.1,1.3,3.8,3.2,5.7,4.8c3.6,2.7,7.1,5.3,10.7,8c1.3,1.6-0.2,1.3-1,1.6
		c-3.3-0.9-5.7-3.2-8.3-5.2c-8.4-6.7-17.1-13.1-25.5-19.8c-9.6-7.7-19.3-15.5-28.6-23.6c-0.3-0.2-0.6-0.4-0.9-0.6
		c-0.6-0.5-1.2-1.1-1.6-1.7c-1.1-2-3.1-3.3-4.5-5.1C268.6,148,268.6,147.9,268.6,147.8z"/>
	<path class="st36" d="M328.9,147.2c-1,1.6-0.3,3.5-0.7,5.2c-0.1,0.6-0.1,1.2-0.7,1.3c-0.8,0.2-1.1-0.4-1.3-1.1
		c-0.3-1-0.8-1.9-0.9-2.9c-0.2-1.2-1-3,0-3.7c0.9-0.7,2.6-0.2,3.8,0.6c0.1,0.1,0.2,0.3,0.1,0.4C329,147.2,328.9,147.2,328.9,147.2z"
		/>
	<path class="st37" d="M354.2,165.6c-0.4-1.2-1-2.4-1.3-3.7c-0.1-0.4,0.4-1,0.9-0.7c1.2,0.7,1.8,1.9,1.7,3.3
		C355.4,165.1,355.1,165.6,354.2,165.6z"/>
	<path class="st59" d="M333.4,166.4c1-0.1,1.3,0.7,1.5,1.4c0.2,0.6-0.2,1.2-0.9,1.1c-0.6-0.1-1.6,0-1.7-1.1
		C332.3,167,332.5,166.5,333.4,166.4z"/>
	<path class="st60" d="M334.5,182.6c0.6-1.3,0.7-2.5,2.2-2.6c0.2,0,0.6,0.3,0.5,0.5C336.9,181.8,336,182.1,334.5,182.6z"/>
	<path class="st61" d="M334,182.2c-1.3-0.4-2.2-0.7-1.8-2c0.1-0.3,0.4-0.9,0.7-0.6C333.8,180.2,333.7,181.1,334,182.2z"/>
	<path class="st62" d="M328.9,147.2c0-0.2,0.1-0.4,0.1-0.5c1.1-0.2,2,0.1,2.5,1.4C330.3,148.5,329.6,147.9,328.9,147.2z"/>
	<path class="st63" d="M337.9,203.7c0.5-0.2,1.9,0.4,1.2-1.1c5-1.8,10.2-3,14.9-5.6c3.8-2.1,8.2-3,12-5.2c2.2-1.3,4.2-3.1,6.9-3.5
		c0.7-0.2,1.6-0.8,1.7,0.6c-11.5,6.8-23.9,11.7-36.6,15.7C337.6,204.4,337.6,204.1,337.9,203.7z"/>
	<path class="st64" d="M374.7,189c-0.4-0.7-1.1-0.5-1.7-0.6c4.3-2.7,8.9-5.1,12.9-8.4c0.4-0.3,0.7-0.6,0.8-1.1
		c0.6-0.1,1.1-0.1,1.7-0.2c0.9,0.8,0.7,1.4-0.3,1.9C383.3,183.2,379.6,187,374.7,189z"/>
	<path class="st65" d="M337.9,203.7c0,0.3,0.1,0.7,0.1,1c-2.4-0.2-4.5-1.4-6.3-2.7c-2.1-1.4-4.6-2.3-6.5-4.1
		c-0.5-0.5-1.1-0.7-1.8-0.2c-0.7,0.5-1.2,1.1-1.2,2.1c-0.3,3.6-1.3,4.1-5,3.4c-1.5-0.3-2.6-1.6-4.2-1.3c-1.9-0.1-2.9-1.6-4-2.8
		c-1.6-1.8-3.4-3.5-5-5.4c-6.2-7.4-12.5-14.7-18.4-22.3c-3.6-4.7-7.2-9.3-11-13.9c-1.1-1.4-2.8-2.7-2.1-4.9c0.4-0.2,0.8-0.2,1.1,0.2
		c0.4,0.5,0.8,1.1,1.2,1.6c2.9,3,5.7,6.3,8.7,9.1c4,3.7,8.6,7,12.2,11.1c2.8,3.2,6.7,4.3,10,6.5c7.7,5.2,15,10.8,22.4,16.3
		c0.6,0.5,1.3,0.7,2,1C332.7,200.2,334.9,202.6,337.9,203.7z"/>
	<path class="st66" d="M334.6,210.5c-1.5,3.3,1.2,2.9,2.9,3.4c-0.3,1.3-1.5,1.2-2.5,1.4c-6.5,1.2-13,2.5-19.5,3.5
		c-4.4,0.3-8.8,0.4-13.1,1.3c-2.7,0.5-4.2-0.6-5.7-2.5c-1.7-2.3-2.9-5-4.1-7.6c-2.3-4.5-4.9-8.8-6.8-13.5c-0.4-0.9-0.9-1.9-0.7-3
		c0.3-0.7,0.9-0.7,1.4-0.3c1.6,1.7,3.7,3,4.1,5.5c0.3,2.1,1.5,3,3.6,3.2c3.2,0.2,3.4,0.7,2.1,3.6c-0.3,0.7-0.8,1.4-0.2,2.1
		c0.7,0.8,1.5,0.6,2.3,0.2c2.5-1,3.1-2.4,1.9-4.8c-0.6-1.1-0.9-2.2,0.5-2.8c1.4-0.6,2.2,0.4,2.5,1.5c0.5,1.8,1.8,2.4,3.3,3.1
		c3,1.3,5.6,3.4,8.8,4.4c1.5,2.4,4,2.9,6.5,3.4c2.5-0.1,4.9-1.1,7.3-1.7C331,210.4,332.8,209.5,334.6,210.5z"/>
	<path class="st67" d="M272.5,152.9c3.3,5.9,7.8,10.8,11.9,16.1c3.7,4.8,7.3,9.6,11.3,14.2c5.6,6.4,10.7,13.3,17.3,18.9
		c2.8,3.5,5.9,6.6,9.2,9.5c0.4,0.6,0.3,1-0.3,1.4c-1.7,0.1-2.9-0.9-3.9-1.9c-4-4.2-8.1-8.3-11.9-12.7c-5.3-6-10.6-12.1-15.8-18.3
		c-3.6-4.3-6.4-9.2-10.3-13.3c-3-3.1-5-7-7.8-10.3c-0.8-1-1.7-2-2.7-2.8c-0.5-0.5-0.9-1-0.9-1.8c0.8-1.3-2.5-2.6,0-3.9c0,0,0,0,0,0
		C269.7,149.6,271.6,150.9,272.5,152.9z"/>
	<path class="st68" d="M321.6,212.7c0.5-0.3,0.6-0.7,0.6-1.2c8.2-2,16.6-3.5,24.6-6.2c8.9-3,18.2-5.2,26.3-10.4
		c0.5-0.3,1.1-0.8,2,0.1c-3,2.6-6.5,4.2-10,5.6c-7.5,3-15,5.8-22.8,7.9c-2.6,0.7-5.1,1.4-7.7,2.1c-4.5,0.1-8.4,2.7-13,2.7
		c-0.2-0.1-0.3-0.2-0.2-0.3C321.5,212.8,321.5,212.7,321.6,212.7z"/>
	<path class="st69" d="M315.4,218.3c5-0.9,9.9-1.9,14.9-2.8c2.4-0.5,4.8-1,7.3-1.6c4.5,0.1,8.6-1.8,12.8-3c1.5,0,3.1,0.2,4.6-0.1
		c0.4-0.1,1.6-0.7,1.5,0.7c-3.2,0.3-6.2,1.2-9.1,2.4c-5.3,2-11,1.9-16.4,3.4c-5.1,1.4-10.3,2.3-15.6,2.2
		C315.1,219,315.1,218.6,315.4,218.3z"/>
	<path class="st70" d="M251,229.6c-2-2.3-0.8-4.8-0.5-7.2c0.9-6.7,1.9-13.3,2.8-19.9c1.4,0.2,2.4,1.5,3.9,1.1c0.9-0.2,2-0.2,2.1-1.3
		c0.2-1.8,1.6-1.8,2.7-1.7c1.3,0.2,1.3,1.5,1.4,2.7c0.4,7.2,2.1,14.1,4,21c0.6,2.1,1.3,4.5,4.5,4.1c6.6,0.2,13.2-0.3,19.8,0.5
		c-2,1.1-1,2.2,0.3,2.7c1.3,0.5,2.2,1.3,2.9,2.3c-10.9,0.5-21.7-0.4-32.4-2.3C258.8,231,254.7,231.2,251,229.6z"/>
	<path class="st70" d="M253.9,200.2c0-0.7,0-1.5,0-2.2c0.5-0.1,1.1-0.8,1.4-0.1C255.9,199.2,254.8,199.7,253.9,200.2z"/>
	<path class="st71" d="M309.2,225c-2.8,0.4-5.6,0.9-8.4,1.3c-0.5-1.4-1.4-2.2-3-2.6c-3.3-0.9-6.4-2-8-5.5c-0.8-1.7-2.7-1.5-4.3-0.8
		c-2.3,1-4,0.6-5.1-1.7c-0.6-1.2-1.5-1.4-2.8-1c-4.9,1.2-7,0-7.6-4.9c-0.4-2.9-1.6-5.8-0.9-8.8c1.9-0.9,3.3-2.7,5.4-3.5
		c1.3-0.5,1.2-1.4-0.2-2.2c-2.2-1.2-2.3-1.5-0.1-2.8c1-0.6,0.8-1.3,0.8-2.1c0-0.8,0.3-1.5,1.1-1.7c0.8-0.2,1.5,0,2.1,0.6
		c0.2,0.2,0.5,0.4,0.5,0.6c1.1,3.7,3.8,6.8,4.3,10.8c0.3,2.9,1.4,5.9,2.9,8.1c1.1,1.7,3.2,3.5,5.7,4.1c1.2,0,1.8,0.8,2.2,1.8
		c0.6,1.7,1.7,3,2.8,4.4c2,2.5,2.8,2.7,6,1.4c2.7-0.7,5.5-0.9,8.2-1.3c0.7-0.1,1.5-0.3,1.5,0.9c-0.4,0.6-1.1,0.5-1.7,0.5
		c-1.3,0.6-1.9,1.4-1.1,2.9C309.5,224,309.7,224.5,309.2,225z"/>
	<path class="st72" d="M312,220.1c-2.5-1-4.8,0.9-7.2,0.6c-0.8-0.1-1.6,0.3-2.4,0.4c-2.6,1-4.4,0.1-5.9-2.3
		c-6.3-9.8-11-20.5-15.6-31.1c-1.4-3.4-3-6.7-4.5-10c-0.4-0.9-1.2-1.8-0.5-2.9c0-0.8-0.5-1.5,0-2.3c1.1-0.1,1.3,0.9,1.7,1.6
		c2.6,5.4,4.5,11.1,7.4,16.4c0.5,1,0.3,2,0.5,3c2.3,6.1,5.7,11.6,8.6,17.4c1.2,2.5,2.4,5,4.2,7.1c0.9,1.1,1.6,1.5,3.2,1.3
		c4.6-0.6,9.3-1.3,13.9-1.1c0,0.4,0,0.8,0,1.1C314.3,220,313.4,221,312,220.1z"/>
	<path class="st73" d="M309.2,225c-0.2-0.4-0.3-0.9-0.5-1.3c-1.3-2.1-0.7-3.1,1.6-3.1c-0.8,1.5-0.4,2.5,1.3,2.8
		c1.1,0.2,2.2,0.6,2.7,1.8C312.6,226,310.9,225.8,309.2,225z"/>
	<path class="st74" d="M285.5,193.5c-3.2-7-6.4-14-9.6-20.9c0,0,0,0,0,0c-3-5.9-4.8-12.3-7.8-18.2c-0.4-0.7-1-1.7-0.1-2.6
		c0.2,0,0.3,0,0.5-0.1c0.4,0.4,0.7,0.8,1.1,1.2c2.2,1.8,2.6,4.6,4.1,6.9c3.5,4.9,7.8,9,11.4,13.8c2,2.7,4.4,5.1,6.4,7.8
		c5.1,7,11.1,13.4,17.1,19.6c2.1,2.2,3.7,4.9,6.4,6.6c0.6,0.3,0.8,1,0.3,1.7c-1.8,0.2-3.2-0.7-4.7-1.6c-1.7-1-3.3-2.2-5.2-2.7
		c-1.5-0.4-2.5-1.1-2.6-2.8c-0.1-0.8-0.3-1.7-1.4-1.8c-0.3,0-0.7,0.2-0.9,0.5c-0.6,0.9,0.2,1.3,0.7,1.9c1.2,1.4,1.2,2.9-0.1,4
		c-1.4,1.2-2.9,2.9-5.1,1.8c-2-0.9-1.4-2.3-0.3-3.6c0.5-0.6,1.2-1,0.8-1.9c-0.4-0.9-1.3-0.6-2-0.5c-3,0.2-4.3-1-4.7-4.1
		C289.6,196.2,287.5,194.6,285.5,193.5z"/>
	<path class="st75" d="M291.1,213.2c-0.5,0.2-2.4-0.5-3-1.1c-0.3-0.3-0.3-1.1-0.6-1.2c-5.1-2.3-3.9-7.5-5.6-11.4
		c-1.3-3.2-2.5-6.4-4.1-9.4c-0.4-0.8-1.1-1.4-2-0.9c-0.8,0.5-0.6,1.3-0.2,2c1,1.7,0.2,2-1.3,1.8c-0.7-0.1-1.5,0-1.5,0.8
		c0,0.6,0.7,0.7,1.3,0.8c0.9,0,1.8,0,2.1,1c0.3,1.1-0.5,1.9-1.3,2.3c-1.7,0.8-3.4,1.4-4.4,3.1c-0.3,0.5-1-0.1-1.5-0.2
		c-0.2-0.2-0.4-0.5-0.5-0.8c-0.3-2.4-0.5-4.9,0.2-7.3c0.2-0.6,0.3-1.3,0-1.9c-2.2-4.7-1.9-9.7-2.3-14.6c-0.1-1.6,0.2-3.4-1.3-4.7
		c0-6.2,0-12.5,0-19.1c3.5,6.7,6.4,13.5,8.4,20.7c2.7,5.3,5.6,10.6,7.7,16.2c1.5,4,4,7.6,5.7,11.6c1.2,2.8,2.2,5.6,3.7,8.2
		C291.5,210.4,291.4,211.8,291.1,213.2z"/>
	<path class="st73" d="M269.1,200.3c0,0.2,0,0.4,0,0.6c0.6,3.8,1.1,7.6,1.8,11.3c0.3,1.4,1.1,2.3,2.9,1.9c1.5-0.3,3,0.7,4.5-0.6
		c0.7-0.6,2.3,0.4,2.7,1.8c0.6,2.1,1.7,2.5,3.8,1.5c3.2-1.5,4.8-0.6,6.1,2.4c0.6,1.4,2.2,2,3.5,2.6c1.3,0.6,2.8,1.3,4.3,1.4
		c2.3,0.1,2.7,1.1,2,3c-7.1,0-14.2,0.8-21.4,0.1c-2.6-0.2-5.3,0.3-7.9-0.2c-1.9-5.8-2.4-11.9-2.8-18c-0.2-3-1.2-6-0.7-9.1
		C269,198.8,268.7,200,269.1,200.3z"/>
	<path class="st76" d="M291.1,213.2c-2.3-7.3-6-14-9.1-21c-2.8-6.3-6.7-12.2-8.4-19.1c0.7,0.6,1.5,1.1,2.2,1.7
		c3.8,7.6,6.5,15.7,10.4,23.2c2.7,5.2,5.1,10.6,7.8,15.7c1.2,2.2,2.7,4.2,4.2,6.2c1.1,1.5,2.7,1,4.1,1.1c-4.3,2.1-5.9-0.1-9-5.1
		C292.8,215,293,213.3,291.1,213.2z"/>
	<path class="st71" d="M269.1,200.3c-0.4-0.4-0.8-0.8-1.2-1.1c-1.4-3.2-0.9-6.7-1.3-10.1c-0.6-5.8-0.9-11.7-1.4-17.6
		c2.2,1.1,2.1,3.1,2.1,5c0,3.7-0.4,7.5,1.2,10.8C270.8,191.7,268.4,196,269.1,200.3z"/>
	<path class="st72" d="M268.1,151.8c1.9,5.9,4.5,11.6,6.9,17.4c0.5,1.1,1,2.2,1,3.4c-1.5-0.7-2.1-2.3-2.5-3.6
		c-1.9-6.8-5.4-13-8.1-19.5c-0.4-0.9-0.6-1.7-0.4-2.8C267.2,147.8,266.8,150.3,268.1,151.8z"/>
	<path class="st77" d="M330.1,198.5c-0.8,0.1-1.5,0-2.1-0.6c-3.3-3.4-7.3-5.8-11.1-8.3c-3.9-2.5-7-6.4-11.8-7.7
		c-1.2-0.3-1.8-2-3.1-2.7c-1.3-0.7-2.3-1.2-3.3,0.8c-0.3-1.6-0.7-2.5-1.5-3.3c-3.8-3.8-7.6-7.6-11.8-10.8c-3.8-2.9-5.8-7.3-9.8-9.7
		c-0.6-0.3-0.9-1-0.8-1.7c3.9,2.5,7.2,5.8,10.8,8.7c4.6,3.7,9.2,7.5,13.8,11.2c5.3,4.2,10.7,8.4,16,12.5
		C320.3,190.8,325.2,194.7,330.1,198.5z"/>
	<path class="st78" d="M272.5,152.9c-2-1.1-3-3.1-3.9-5.1c2,1.4,3.9,2.9,5,5.2C273.2,152.9,272.8,152.9,272.5,152.9z"/>
	<path class="st79" d="M315.4,209.3c-0.1-0.4-0.1-0.9-0.3-1c-3.8-1.8-5.5-5.7-8.5-8.3c-3.7-3.3-6.7-7.5-10.2-11.1
		c-4.2-4.4-7.3-9.6-11.2-14.2c-3.7-4.5-8.1-8.4-11.2-13.5c-1.7-2.7-3.1-5.3-4.4-8.1c2.3,1.3,3.5,3.6,5,5.6c7.5,10,15,20,23.3,29.4
		c4.7,5.3,9.1,10.8,14.1,15.9c3,3.1,5.6,6.7,9.5,8.9c0,0.2,0,0.3,0.1,0.5C319.5,211.9,315.9,213.1,315.4,209.3z"/>
</g>
<g>
	<path class="st80" d="M219.6,53.9c-1.3-8.8-4.2-17.1-10.5-23.6c-12.2-12.6-30-14.8-46.2-5.4c-0.7,0.4-1.3,0.9-1.7,1.7
		c-2.8,3.8-6.1,7.2-7.8,11.7c-0.4,1.1-0.9,0.2-1.4-0.1c-2.1-0.4-2.9-2.4-4.3-3.7c-6.2-6.1-13.6-9.3-22.2-8.8
		c-12.1,0.7-21.9,6.1-29.3,15.8c0.2,0.4,0.7,0.6,1,0.8c3.6,2,4.2,5.4,1.7,8.8c-1.6,2.7-4.2,1.4-6.5,1.7c-1.3,0.9-1.5,2.4-1.7,3.7
		c-1.3,6.6-0.7,13.2,0.4,19.7c1.2,7.3,5.6,13.2,9.1,19.5c4.6,5.1,9.1,10.3,14.5,14.6c6.7,5.2,14,9.5,21.7,13.1
		c2.9,1.8,6.1,3.1,9.4,4.4c5.7,2.2,11.6,3.8,17.3,6.1c16.1-9,30.5-20.1,42-34.4C215.8,86.2,222.1,71.3,219.6,53.9z M109.5,89.1
		c-5.3,0-5.3-8.3,0-8.3C114.8,80.9,114.8,89.1,109.5,89.1z M120.5,53.3c-10.1,0-10-15.6,0-15.6C130.6,37.7,130.5,53.3,120.5,53.3z
		 M134,98.8c-10.1,0-10-15.6,0-15.6C144.1,83.2,144,98.8,134,98.8z M144,60.1c-4.7,0-4.7-7.2,0-7.2C148.7,52.9,148.7,60.1,144,60.1z
		 M163.5,69.1c-5.3,0-5.3-8.3,0-8.3C168.8,60.9,168.8,69.1,163.5,69.1z M171.5,90c-6.4,0-6.4-9.9,0-9.9C177.9,80,177.9,90,171.5,90z
		 M178.5,40.1c3.8,0,3.8,5.9,0,5.9C174.7,45.9,174.7,40.1,178.5,40.1z M187.5,66.3c-10.1,0-10-15.6,0-15.6
		C197.6,50.7,197.5,66.3,187.5,66.3z"/>
	<path class="st81" d="M101.1,95.6c2.3,2.3,4.6,4.6,6.7,7.1c4.3,4.9,9.3,8.8,14.8,12.2c4.6,2.8,9.2,5.6,14,7.8
		c0.3,0.8,0.1,1.5-0.5,2.1c-13.8-6.1-26-14.4-35.5-26.3c-0.5-0.7-0.8-1.5-1.2-2.3C99.9,95.6,100.5,95.6,101.1,95.6z"/>
	<path class="st82" d="M101.1,95.6c-0.4,0.6-1.1,0.5-1.7,0.6c-5.4-6.8-8.5-14.7-10-23.2c-1.2-6.3-0.6-12.6,0.9-18.9
		c0.3-1.3,0.6-2.3,2.2-1.4c-2,5.8-1.3,11.7-1.3,17.7C91.4,80.2,97,87.6,101.1,95.6z"/>
	<path class="st83" d="M136.2,124.8c-0.1-0.8,0.2-1.4,0.5-2.1c7.7,4.2,16.1,6.6,24.3,9.4c1,0.3,1.8,0.7,2.3,1.6
		c-0.9,0.8-1.9,0.7-3,0.4C152.1,131.4,143.9,128.7,136.2,124.8z"/>
	<path class="st84" d="M161.2,26.6c0.8,0.6,0.2,1.1-0.2,1.5c-2.9,3.2-5.5,6.6-7.1,10.7c-0.2,0.5-0.3,1.4-1.1,1.2
		c-1-0.2-1.1-1-0.8-1.9C154.2,33.6,157.2,29.7,161.2,26.6z"/>
	<path class="st85" d="M96.3,41.4c4.5,0.8,6.6,5.7,4,9.2c-0.4,0.5-0.7,0.7-1.3,0.4c0.1-2.9,0.1-5.8-2.8-7.8
		C95.6,42.7,95.7,42,96.3,41.4z"/>
	<path class="st86" d="M135.4,80.8c-0.3,0-0.5,0-0.8,0c-0.6,0-1.1,0.1-1.4,0.6c-0.4,0.6,0.1,1,0.4,1.4c0.1,0.1,0.3,0.3,0.4,0.4
		c3.4,0,5.7,1.9,6.7,4.3c1.3,1.4,1.5,3.4,1,6.9c1.6,0.7,2.1-0.2,2.3-1.5C144.9,88.7,139.7,81.5,135.4,80.8z"/>
	<path class="st87" d="M126.2,38.6c-2.3-2.2-4.9-2.6-7.2-1c0.1,0.1,0.1,0.1,0.2,0.2c0.4-0.1,0.9-0.1,1.3-0.1c5.4,0,7.9,4.5,7.5,8.6
		c0.1,1.3,0,2.8-0.3,4.7c0.9,1.7,1.3,0.5,1.6-0.3C130.9,47,129.6,41.8,126.2,38.6z"/>
	<path class="st88" d="M191,50.6c-1.2-0.4-2.4-0.3-3.2,0.1c6.4,0.2,8.6,6.9,6.5,11.5c0.1,0.2,0.2,0.5,0.5,0.7
		C197.3,58.9,195.2,52.1,191,50.6z"/>
	<path class="st89" d="M210.5,79.7c0-5.5-1.5-7.6-6.9-9.7c-0.3-0.6-0.2-1,0.6-1c2.5-0.1,4.9,0.1,6.2,2.5
		C211.9,74.2,212.5,77,210.5,79.7z"/>
	<path class="st90" d="M172.3,77.6c-1-0.2-2.1-0.2-2.7,0.6c-0.5,0.8,1,0.8,1.1,1.5c0.2,0.1,0.4,0.2,0.6,0.3c0.1,0,0.2,0,0.2,0
		c3.4,0,5,2.8,4.8,5.5c0.1,0.1,0.2,0.2,0.3,0.3C177.6,82.3,175.5,78.4,172.3,77.6z"/>
	<path class="st91" d="M111,79.9c-0.8-0.3-1.6-0.4-2.1,0.4c-0.2,0.3-0.2,0.5-0.1,0.6c0.2,0,0.5-0.1,0.7-0.1c3.2,0,4.5,3,3.8,5.4
		c0,0.1,0.1,0.2,0.1,0.3c0.8,0.5,0.1,1.6,0.8,2.2C116.3,84.9,113.5,80.7,111,79.9z"/>
	<path class="st92" d="M113.5,42.4c0.1-0.2,0.2-0.5,0.3-0.7c0.1-1.3-0.2-2.6-0.8-3.7c-0.5-0.9-1.4-1.4-2.5-1.1
		c-1.3,0.4-0.6,1.4-0.5,2.2c0.4,1.9,1.4,3.1,3.3,3.6C113.5,42.5,113.5,42.4,113.5,42.4z"/>
	<path class="st93" d="M168,63.7c-0.1-0.8-0.3-1.6-0.7-2.3c-0.8-1.6-2.5-1.8-3.8-0.6c3.1,0,4.3,2.8,3.8,5.2
		C168.3,65.7,168.1,64.6,168,63.7z"/>
	<path class="st94" d="M148.9,55.9c-0.1-1.7-1.3-2.5-2.7-2.6c-0.1,0-0.2,0-0.3,0c1.4,0.8,1.9,2.6,1.5,4.1c0.1,0.1,0.3,0.2,0.4,0.3
		C148.9,57.5,149,56.7,148.9,55.9z"/>
	<path class="st95" d="M178.5,40.1c0.6,0,1.1,0.2,1.5,0.4c-0.2-0.4-0.5-0.7-0.9-0.9c-0.9-0.5-1.8-0.5-2.1,0.9
		C177.4,40.2,177.9,40.1,178.5,40.1z"/>
	<path class="st96" d="M142.8,51.5c-1.1-0.1-1.4-1-1.6-1.8c-0.2-0.7,0.3-1.2,0.9-1.3c1-0.1,1.4,0.5,1.5,1.4
		C143.6,50.5,143.8,51.3,142.8,51.5z"/>
</g>
<g>
	<path class="st80" d="M267.4,113.3c-0.2-7.4-2.4-14.1-7.7-19.3c-5.2-5.1-11.4-8.2-18.9-8.2c-3.8,0-7.6,0.1-11.1,1.9
		c-2.7,2.3-5.8,4.1-8.1,6.9c-0.4,0.4-0.9,0.2-1.3-0.1c-0.3-0.7-0.7-1.3-1-2c-3.3-6.8-8.5-11.2-16-12.7c-8.7-1.7-16.5,0.5-23.6,5.8
		c0,0.5,0.4,0.9,0.7,1.3c1.5,1.6,1,3.3,0.5,5c-0.1,0.2-0.2,0.3-0.3,0.2c-0.1-0.2-0.2-0.4-0.4-0.6c-0.7,1.3-1.2,2.9-3.3,2.2
		c-0.8-0.3-1.7-0.5-2.6-0.7c-1,0.6-1.4,1.6-1.9,2.5c-4.8,10.2-4.6,20.5-0.7,30.9c2.8,5.8,5.8,11.5,10,16.5c1.1,1.4,2.7,2.4,3.5,4
		c4.1,3.8,8.1,7.9,12.6,11.2c3.9,2.8,8,5.4,11.8,8.3c7-1.8,13.7-4.3,20.3-7.1c9.2-4,17.6-8.9,24.6-16
		C263.1,135.2,267.8,125.2,267.4,113.3z M198,135.2c-7.9,0-7.9-12.3,0-12.3C205.9,122.8,205.9,135.2,198,135.2z M209,114
		c-6.4,0-6.4-10,0-10C215.4,104,215.4,114,209,114z M223.5,137.1c-6,0-6-9.3,0-9.3C229.5,127.9,229.5,137.1,223.5,137.1z
		 M242.5,111.8c7.4,0,7.4,11.4,0,11.4C235.1,123.2,235.1,111.8,242.5,111.8z M249,138.7c-7.4,0-7.4-11.4,0-11.4
		C256.4,127.3,256.4,138.7,249,138.7z"/>
	<path class="st97" d="M174.4,93.1c-1.6,3.2-3,6.4-3.8,10c-1.1,5.2-1.9,10.3-0.2,15.6c0.9,2.6,1.3,5.4,2,8c-0.2,0.5-0.6,0.8-1.2,0.5
		c-4.5-11.3-4.7-22.4,1.5-33.3C173.2,93.1,173.4,92.3,174.4,93.1z"/>
	<path class="st98" d="M185.8,146.9c3.2,1.7,5.4,4.7,8.1,7c4.3,3.7,8.9,6.8,13.5,9.9c1.1,0.7,2.3,1.3,2.6,2.7
		c-2.9,0.4-4.5-2-6.5-3.3c-5.5-3.6-10.6-7.7-15.4-12.2c-1.2-1.1-2.3-2.3-3.3-3.6C184.9,147,185.2,146.7,185.8,146.9z"/>
	<path class="st99" d="M185.8,146.9c-0.3,0.2-0.7,0.3-1,0.5c-5.9-5.2-10-11.6-13.2-18.7c-0.2-0.4-0.8-0.9-0.3-1.5
		c0.4-0.2,0.8-0.3,1.2-0.5c2.1,3.3,3.6,6.9,5.8,10.2c1.9,2.9,3.9,5.8,6.6,8.1C185.4,145.5,185.7,146.1,185.8,146.9z"/>
	<path class="st100" d="M229.7,87.7c0.9,1-0.2,1.1-0.6,1.3c-2.6,1.7-5,3.6-6.9,6c-1.3,1.6-1.4,0.2-1.8-0.5
		C223.4,92.2,225.9,89,229.7,87.7z"/>
	<path class="st101" d="M179.8,85.7c2.3,1.9,3,4.2,1.8,6.3c-0.2,0.4-0.5,0.9-1.1,0.8c-0.2-0.1-0.2-0.7-0.3-1.1c0.3-1.6,0-3-0.9-4.4
		C179,86.6,178.6,85.9,179.8,85.7z"/>
	<path class="st86" d="M201,122.8c-0.6-0.5-1.5-1.4-2.3-0.6c-0.2,0.2-0.3,0.5-0.2,0.7c5.6,0.3,6.9,6.9,4.1,10.3
		c0,0.1-0.1,0.2-0.1,0.3c1.3,1.2,1.5-0.2,1.8-0.8C205.5,130.2,203.7,124.7,201,122.8z"/>
	<path class="st102" d="M200.6,99c2.1-3.7,1.7-6.9-1.5-9.8c-0.2-1.2-1.5-0.8-2.1-1.5c1.9-0.7,3.5-0.3,4.7,1.3
		c1.8,2.3,2.1,7.1,0.5,9.5C201.8,99.3,201.3,99.5,200.6,99z"/>
	<path class="st103" d="M247,111.6c-1-0.9-2.2-1.9-3.5-0.2c0.8,0.4,1.4,0.8,2,1.3c2.7,1.7,3.2,5.6,1.6,8.1c0,0,0.1,0.1,0.1,0.1
		C249.8,117.9,249.8,114.1,247,111.6z"/>
	<path class="st104" d="M228.7,134c0.3-2.6-0.9-4.4-2.9-5.9c-0.4-0.7-0.1-1.1,0.6-1.2c2.1-0.1,3,1.5,3.7,3c0.7,1.5,0.5,3.1-0.8,4.4
		C229.2,134.4,228.9,134.2,228.7,134z"/>
	<path class="st89" d="M255.7,135.6c0.5-3.5-0.6-6.2-3.9-7.8c2.1-0.7,3.6,0.2,4.7,1.9C257.8,131.7,257.4,133.9,255.7,135.6z"/>
	<path class="st91" d="M182.7,123.1c0.3-2,0.6-4-1.4-5.4c-0.5-1-0.1-1.5,0.9-1.1c2.2,0.8,3,5.7,1.1,7.2
		C182.8,124.2,182.9,123.4,182.7,123.1z"/>
	<path class="st105" d="M192.7,89.2c-0.2,0.2-0.3,0.3-0.5,0.5c-2.2-0.3-1.8-2.2-2.1-3.6c0-0.2,0.3-0.6,0.6-0.7
		c0.6-0.2,1.1,0.1,1.5,0.5C193,86.9,192.6,88.1,192.7,89.2z"/>
	<path class="st106" d="M225.7,115.7c-0.3-0.6-0.6-1.3-0.9-1.9c0.1-0.7,0.4-1.2,1.1-0.8c0.7,0.3,1.4,0.8,1.6,1.7
		c0.2,1.2,0,2.4-0.9,3.4C225.6,117.5,226.4,116.3,225.7,115.7z"/>
	<path class="st107" d="M215.1,106.1c-0.1-0.9-0.8-1.6-1.5-1.7c-0.5-0.1-1,0.3-1.2,0.9c0.7,0.6,1.1,1.5,1.3,2.3
		c0.2,0.1,0.4,0.2,0.6,0.3C215,107.5,215.1,106.8,215.1,106.1z"/>
	<path class="st95" d="M239.1,103c-0.2-0.6-0.4-1.3-0.6-1.9c0.6-0.7,1.3-0.7,1.8-0.2c0.4,0.3,0.8,0.9,0.4,1.5
		C240.4,103,240,103.6,239.1,103z"/>
	<path class="st108" d="M212.4,101.3c0,0.5-0.2,1.1-0.9,1c-0.8-0.1-0.6-1-0.8-1.6c-0.2-0.4,0.2-0.9,0.6-0.9
		C211.9,99.9,212.4,100.3,212.4,101.3z"/>
</g>
</svg>
