<?xml version="1.0" encoding="utf-8"?>
<!-- Generator: Adobe Illustrator 19.2.1, SVG Export Plug-In . SVG Version: 6.00 Build 0)  -->
<svg version="1.1" id="Layer_1" xmlns="http://www.w3.org/2000/svg" xmlns:xlink="http://www.w3.org/1999/xlink" x="0px" y="0px"
	 viewBox="0 0 168.5 45" style="enable-background:new 0 0 168.5 45;" xml:space="preserve">
<style type="text/css">
	.st0{fill:#FFFFFF;}
</style>
<g>
	<path class="st0" d="M109.8,30.9c-0.4,0-0.7,0.1-1.1,0.1c-0.5,0.1-1.2,0.3-1.6,0.2c-1-0.4-1.7,0.1-2.6,0.2c-0.3,0-0.6,0.3-0.7,0.2
		c-1.1-0.5-2.1-0.1-3.2,0.1c-1.4,0.1-2.7,0.4-4.1,0.5c-0.9,0.1-1.8-0.1-2.6,0c-0.7,0.1-1.4,0.4-2.1,0.5c-2.6,0.3-5.2,0.5-7.7,0.7
		c-1,0.1-1.9,0.1-2.9,0.2c-2.5,0.2-5,0.5-7.4,0.7c-0.9,0.1-2.1-0.3-2.7,0.2c-0.8,0.6-1.4,0.1-2,0.3c-1.1,0.3-2.3-0.1-3.4,0.1
		c-0.3,0.1-0.6,0-0.9,0c-1.5,0-3-0.1-4.4-0.1c-1.3,0-2.6,0.2-3.9,0.3c-0.9,0-1.8-0.1-2.7-0.1c-1.9,0.1-3.8,0.3-5.7,0.3
		c-1.4,0-2.9-0.1-4.3-0.2c-5.9-0.2-11.8-0.4-17.7-1c-3.9-0.4-7.9-0.5-11.7-1.4c-2.7-0.6-5.1-1.5-7.2-3.3c-0.5-0.4-0.5-0.7-0.3-1.2
		c0.9-1.8,2.5-3,4.2-3.9c2.7-1.5,5.5-2.6,8.3-3.9c1-0.5,2-0.9,3-1.2c2.1-0.7,4.2-1.4,6.3-2.1c3-1,6-2,9.1-2.8
		c3.2-0.9,6.5-1.5,9.8-2.2c1.5-0.3,3-0.7,4.5-0.9c3.4-0.5,6.8-1,10.2-1.5c2.9-0.4,5.9-0.8,8.8-1.1c2.9-0.3,5.8-0.4,8.7-0.6
		c3.6-0.2,7.2-0.5,10.8-0.6c6.1-0.2,12.2-0.3,18.3-0.4c0.4,0,0.8,0,1.1-0.2c0.3-0.1,0.6-0.5,0.6-0.7c0-0.7-0.1-1.4-0.2-2.1
		c-0.2-0.9-0.8-1.4-1.8-1.4c-2.3,0-4.7-0.1-7-0.1c-5,0.2-10,0.5-15,0.8C82.5,3.4,78.5,3.6,74.6,4c-4,0.4-7.9,1-11.8,1.5
		c-2.5,0.3-5,0.6-7.4,1c-5.2,0.9-10.4,1.8-15.6,3c-7,1.7-13.8,3.8-20.5,6.3c-3.9,1.5-7.8,3-11.5,5c-1.8,1-3.4,2.2-4.7,3.9
		c-1,1.4-1.6,2.9-1.2,4.7c0.6,2.7,2.3,4.3,4.6,5.5c4.5,2.3,9.5,3.1,14.4,3.8c3,0.5,6.1,0.5,9.1,0.7c3,0.2,5.9,0.4,8.9,0.5
		c1.4,0.1,2.9-0.1,4.3-0.1c3.9-0.1,7.8-0.1,11.8-0.2c3.6-0.1,7.3-0.3,10.9-0.5c3.5-0.2,7.1-0.4,10.6-0.7c3.5-0.3,7.1-0.6,10.6-0.9
		c3.1-0.3,6.2-0.5,9.2-0.8c0.9-0.1,1.8-0.4,2.7-0.5c2.7-0.3,5.5-0.4,8.2-0.8c4.6-0.5,9.2-1.2,13.8-1.3c0.7,0,1.5-0.1,2.2-0.3
		c2.7-0.5,5.4-1.2,8.1-1.4c5.9-0.5,11.7-1.7,17.5-2.6c2.1-0.3,4.1-0.8,6.2-1.2c0.2,0,0.4-0.1,0.6-0.2c1-0.3,2-0.7,3-1
		c1.8-0.5,3.6-1.1,5.4-1.5c1.1-0.3,2.3-0.5,3.1-1.3c0.5-0.5,1.2-1.1,1.3-1.7c0.4-1.9,0.3-3.9-1.5-5.2c-0.2-0.1-0.3-0.3-0.5-0.5
		c-1-0.8-2.1-1.5-3.5-1.4c-0.8,0.1-1.6,0-2.4-0.2c-1.1-0.2-2.1-0.6-3.1-1c-0.5-0.2-0.8-0.6-1.4-0.6c-0.5,0.1-1.1,0-1.6,0
		c-1.5-0.2-3.2,0-4.6-0.8c-0.5-0.3-1.2-0.2-1.8-0.3c-0.7-0.1-1.4-0.1-2.1-0.2c-2.3-0.2-4.5-0.4-6.8-0.5c-3.1-0.1-6.2-0.2-9.3-0.2
		c-5.1,0-10.1-0.1-15.2,0c-5.5,0.1-10.9,0.4-16.3,1.4c-0.9,0.2-1.9,0.2-2.8,0.4c-0.6,0.1-1.2,0.3-1.1,1.1c0.1,0.7,1.5,1.9,2.2,1.8
		c2.4-0.2,4.8-0.3,7.2-0.5c1.3-0.1,2.7-0.1,4,0c2.1,0.1,4.2,0.3,6.3,0.4c0-0.1,0-0.2,0-0.3c-1.2,0-2.3,0-3.5,0c0-0.1,0-0.2,0-0.2
		c1.7,0,3.4,0,5.1,0c6.4,0,12.8-0.1,19.2-0.1c1.8,0,3.6,0.1,5.4,0.8c0.2,0.1,0.5,0.1,0.7,0.1c2.9,0.3,5.8,0.7,8.8,0.9
		c2.1,0.2,4.1,1.2,6.3,0.3c0.5-0.2,1.2,0.2,1.7,0.4c1.4,0.4,2.7,0.9,4.1,1.3c0.3,0.1,0.6,0.1,0.8,0.3c0.3,0.2,0.7,0.5,0.7,0.8
		c0,0.2-0.4,0.6-0.6,0.8c-0.6,0.3-1.2,0.6-1.9,0.9c-1.4,0.6-2.9,1.2-4.3,1.7c-0.7,0.3-1.5,0.3-2.3,0.5c-3.6,0.8-7.2,1.6-10.8,2.2
		c-2,0.4-4,0.5-6.1,0.7c-3,0.3-5.9,1-8.9,1.2c-0.1,0-0.1,0-0.2,0c-2.1,0.2-4.3,0.3-6.4,0.5c-1,0.1-1.9,0.2-2.9,0.3
		c-0.8,0.1-1.6,0.4-2.4,0.5c-1.2,0.1-2.4,0-3.6,0.1C111.9,30.4,110.7,30.1,109.8,30.9z"/>
	<path d="M109.8,30.9c0.9-0.8,2.2-0.5,3.2-0.6c1.2-0.1,2.4,0,3.6-0.1c0.8-0.1,1.6-0.4,2.4-0.5c1-0.1,1.9-0.2,2.9-0.3
		c2.1-0.2,4.3-0.3,6.4-0.5c0.1,0,0.1,0,0.2,0c3-0.2,5.9-0.9,8.9-1.2c2-0.2,4.1-0.3,6.1-0.7c3.6-0.7,7.2-1.5,10.8-2.2
		c0.8-0.2,1.5-0.2,2.3-0.5c1.5-0.5,2.9-1.1,4.3-1.7c0.6-0.3,1.3-0.5,1.9-0.9c0.3-0.2,0.7-0.5,0.6-0.8c0-0.3-0.4-0.6-0.7-0.8
		c-0.2-0.2-0.5-0.2-0.8-0.3c-1.4-0.4-2.7-0.9-4.1-1.3c-0.6-0.2-1.3-0.6-1.7-0.4c-2.2,0.9-4.2-0.2-6.3-0.3c-2.9-0.2-5.8-0.6-8.8-0.9
		c-0.2,0-0.5,0-0.7-0.1c-1.7-0.7-3.6-0.8-5.4-0.8c-6.4,0-12.8,0.1-19.2,0.1c-1.7,0-3.4,0-5.1,0c0,0.1,0,0.2,0,0.2c1.2,0,2.3,0,3.5,0
		c0,0.1,0,0.2,0,0.3c-2.1-0.1-4.2-0.3-6.3-0.4c-1.3-0.1-2.7,0-4,0c-2.4,0.1-4.8,0.3-7.2,0.5c-0.7,0-2.2-1.1-2.2-1.8
		c-0.1-0.8,0.6-1,1.1-1.1c0.9-0.2,1.9-0.2,2.8-0.4c5.4-0.9,10.8-1.3,16.3-1.4c5.1-0.1,10.1,0,15.2,0c3.1,0,6.2,0.1,9.3,0.2
		c2.3,0.1,4.5,0.3,6.8,0.5c0.7,0.1,1.4,0.1,2.1,0.2c0.6,0.1,1.3,0,1.8,0.3c1.5,0.8,3.1,0.6,4.6,0.8c0.5,0.1,1.1,0.1,1.6,0
		c0.6-0.1,0.9,0.3,1.4,0.6c1,0.4,2.1,0.8,3.1,1c0.8,0.2,1.6,0.2,2.4,0.2c1.4-0.1,2.5,0.6,3.5,1.4c0.2,0.1,0.3,0.3,0.5,0.5
		c1.8,1.4,1.9,3.3,1.5,5.2c-0.1,0.6-0.8,1.2-1.3,1.7c-0.9,0.8-2,1-3.1,1.3c-1.8,0.5-3.6,1-5.4,1.5c-1,0.3-2,0.7-3,1
		c-0.2,0.1-0.4,0.1-0.6,0.2c-2.1,0.4-4.1,0.9-6.2,1.2c-5.8,0.9-11.6,2.1-17.5,2.6c-2.7,0.2-5.4,0.9-8.1,1.4
		c-0.7,0.1-1.5,0.3-2.2,0.3c-4.6,0.1-9.2,0.8-13.8,1.3c-2.7,0.3-5.5,0.5-8.2,0.8c-0.9,0.1-1.8,0.4-2.7,0.5c-3.1,0.3-6.1,0.6-9.2,0.8
		c-3.5,0.3-7.1,0.7-10.6,0.9c-3.5,0.3-7.1,0.5-10.6,0.7c-3.6,0.2-7.3,0.4-10.9,0.5c-3.9,0.1-7.8,0.1-11.8,0.2
		c-1.4,0-2.9,0.2-4.3,0.1c-3-0.1-5.9-0.3-8.9-0.5c-3.1-0.2-6.1-0.3-9.1-0.7c-4.9-0.7-9.9-1.5-14.4-3.8c-2.3-1.2-4-2.8-4.6-5.5
		C1.4,27.7,2,26.2,3,24.8c1.2-1.7,2.9-2.9,4.7-3.9c3.7-2.1,7.6-3.5,11.5-5c6.7-2.6,13.6-4.6,20.5-6.3c5.1-1.3,10.4-2.1,15.6-3
		c2.5-0.4,5-0.7,7.4-1C66.7,5,70.7,4.4,74.6,4c3.9-0.4,7.9-0.6,11.8-0.8c5-0.3,10-0.6,15-0.8c2.3-0.1,4.7,0,7,0.1
		c1,0,1.6,0.5,1.8,1.4c0.2,0.7,0.2,1.4,0.2,2.1c0,0.3-0.3,0.6-0.6,0.7c-0.3,0.2-0.7,0.1-1.1,0.2c-6.1,0.1-12.2,0.2-18.3,0.4
		C87,7.4,83.4,7.7,79.8,8c-2.9,0.2-5.8,0.3-8.7,0.6c-3,0.3-5.9,0.7-8.8,1.1c-3.4,0.5-6.8,0.9-10.2,1.5c-1.5,0.2-3,0.6-4.5,0.9
		c-3.3,0.7-6.5,1.4-9.8,2.2c-3.1,0.8-6.1,1.8-9.1,2.8c-2.1,0.7-4.2,1.3-6.3,2.1c-1,0.4-2,0.8-3,1.2c-2.8,1.3-5.6,2.5-8.3,3.9
		c-1.7,0.9-3.3,2.1-4.2,3.9c-0.3,0.6-0.2,0.9,0.3,1.2c2.1,1.8,4.6,2.6,7.2,3.3c3.9,0.9,7.8,1.1,11.7,1.4c5.9,0.5,11.8,0.7,17.7,1
		c1.4,0.1,2.9,0.2,4.3,0.2c1.9,0,3.8-0.3,5.7-0.3c0.9,0,1.8,0.1,2.7,0.1c1.3,0,2.6-0.2,3.9-0.3c1.5,0,3,0,4.4,0.1
		c0.3,0,0.6,0.1,0.9,0c1.1-0.3,2.2,0.2,3.4-0.1c0.6-0.2,1.2,0.3,2-0.3c0.6-0.5,1.8-0.1,2.7-0.2c2.5-0.2,5-0.5,7.4-0.7
		c1-0.1,1.9-0.1,2.9-0.2c2.6-0.2,5.2-0.4,7.7-0.7c0.7-0.1,1.4-0.4,2.1-0.5c0.9-0.1,1.8,0.1,2.6,0c1.4-0.1,2.7-0.4,4.1-0.5
		c1-0.1,2.1-0.6,3.2-0.1c0.2,0.1,0.5-0.2,0.7-0.2c0.8-0.2,1.6-0.6,2.6-0.2c0.4,0.2,1.1-0.1,1.6-0.2C109.1,31,109.4,30.9,109.8,30.9z
		"/>
</g>
</svg>
