<?xml version="1.0" encoding="utf-8"?>
<!-- Generator: Adobe Illustrator 19.2.1, SVG Export Plug-In . SVG Version: 6.00 Build 0)  -->
<svg version="1.1" id="Layer_1" xmlns="http://www.w3.org/2000/svg" xmlns:xlink="http://www.w3.org/1999/xlink" x="0px" y="0px"
	 viewBox="0 0 149.4 589.1" style="enable-background:new 0 0 149.4 589.1;" xml:space="preserve">
<style type="text/css">
	.st0{fill:#F1E1BD;}
	.st1{fill:#F5E6C6;}
	.st2{fill:#F8EACD;}
	.st3{fill:#EEDCB8;}
	.st4{fill:#FAEFD6;}
	.st5{fill:#EAD7B3;}
	.st6{fill:#FAF1D9;}
	.st7{fill:#F3EBD2;}
	.st8{fill:#EFE7D4;}
	.st9{fill:#E4D7B8;}
	.st10{fill:#D2C09D;}
	.st11{fill:#E9E3D1;}
	.st12{fill:#E2D5B7;}
	.st13{fill:#DAC9A8;}
	.st14{fill:#FAF5E3;}
	.st15{fill:#ECE5D1;}
	.st16{fill:#DBCBA8;}
	.st17{fill:#FAF5E4;}
	.st18{fill:#CABB9B;}
	.st19{fill:#F8F1E0;}
	.st20{fill:#CCBB98;}
	.st21{fill:#CDBE9B;}
	.st22{fill:#C7B592;}
	.st23{fill:#C7B894;}
	.st24{fill:#DECEAC;}
	.st25{fill:#D4C4A0;}
	.st26{fill:#C1AF8B;}
	.st27{fill:#FAF7ED;}
	.st28{fill:#FAF8F0;}
	.st29{fill:#FCF9F4;}
	.st30{fill:#D1C0A0;}
	.st31{fill:#D3C5A4;}
	.st32{fill:#D0C0A0;}
	.st33{fill:#E1D2B2;}
	.st34{fill:#DBCDAE;}
	.st35{fill:#E0D0B1;}
	.st36{fill:#E2D2B4;}
	.st37{fill:#FCF8F3;}
	.st38{fill:#FCFAF3;}
	.st39{fill:#E1D3B5;}
	.st40{fill:#E0D3B5;}
	.st41{fill:#D6C7A8;}
	.st42{fill:#E4D6B7;}
	.st43{fill:#DBCEB3;}
	.st44{fill:#FAF6EE;}
	.st45{fill:#D3C19E;}
	.st46{fill:#C3B08C;}
	.st47{fill:#F9F4EC;}
	.st48{fill:#F8F6ED;}
</style>
<g>
	<path class="st0" d="M133,287.4c-0.3,1.4-0.7,1.6-1.2,1.5c-0.5-2.2-1.3-3.8-1.7-6.3c-0.4-3.1-0.9-6.2-1.4-9.2
		c-0.1-0.7-0.3-1.2-0.5-1.7c-0.9-0.9-1.9-0.4-2.8-1.3c-1.4-1.5-2.4-4.2-1.9-8.7c0.5-4.8,0.4-9.9,1.2-14.5c0.5-1.3,1-1.5,1.6-1.1
		c1.1,1.4,0.8,4.6,1.1,7.5c1.2-1.5,1.6-4.9,2.4-7c0.2-0.5,0.4-1.1,0.6-1.5c0.9-7.8,1.3-15.7,0.5-23.8c-6.6-0.2-13.1,0.8-19.7,1.1
		c-22.2,1-44.4,0.4-66.6,0.3c-0.5,0-1-0.1-1.4-0.3c-1.7-0.7-1.7-5.4-2.7-9.6c-0.2,5.8-0.9,9.4-2.9,9.1c-0.3,0-0.6-0.2-0.9-0.4
		c-6.5,2.3-12.9,0.8-19.4,1.1c-0.9,0-1.7-0.4-2.4-2.3c0-7.3,0-14.6,0-21.9c2-2.6,4.1-1.8,6.2-1.7c9.5,0.2,19.1,0.1,28.6,0
		c0.4,0,0.8-0.3,1.1-0.6c18-0.3,36.1,0,54.1-0.1c9.4-0.7,18.9-1.9,28.3-1.6c-9.4-0.5-18.8,1.1-28.3,1.6c-15.9,0-31.7,0-47.6,0
		c-3,0-6-0.3-8.9,0.8c-8.7,0-17.4,0.1-26.2-0.1c-1.1-0.2-1.5-1.5-1.2-4.8c0.2-2.2,0.2-4.8-0.8-5c-1-0.2-1.1,2.3-1.2,4.6
		c-0.1,1.9,0,3.9-0.8,4.9c-1.2,0.3-2.4,1.2-3.5-1.2c-0.7-7.3,0.2-14.6,0-21.9c0.8-3.5,2.5,0.3,3.3-3.4c0.2-0.5,0.5-0.8,0.7-0.9
		c1.1,0.1,2.1,1,3.1,1.8c7.6,0.7,15.3,0.1,22.9,0.3c0.9,0,1.7-0.6,2.5-1.3c6-0.9,11.9-0.3,17.9-0.4c14.7-0.1,29.4,0.3,44.1-0.2
		c7.1-0.2,14.2-2.1,21.3-1.5c1.2,0.1,2.5-0.3,3.7,0.6c1.3,1.3,1.3,4.5,1.3,7.6c-0.2,16.1-0.4,32.2-1.5,48.1
		c-0.1,0.8-0.2,1.6-0.2,2.4c0.5,12.1-0.3,23.6-1.9,34.8c-0.5,3.6,0.1,7.7,0.4,11.5C133,277.6,133.8,282.4,133,287.4z"/>
	<path class="st1" d="M14.8,148.5c-1.4-5.1,0.2-10,0.1-15.1c-0.2-11.8,0-23.6,0-35.4c1.3-1.8,2.6-3.8,2.7,3.2c0,0.8,0.6,0.9,1,1.1
		c2.3,2.5,3.2-4.5,4.9-6.3c5.6-0.8,11.2-0.3,16.8-0.3c3.6,0,7.1-0.1,10.7-1.7c19.8,0,39.5,0,59.3,0c7.8,1.3,15.5-2.3,23.3-1.6
		c1.2,0.1,2.5-0.4,3.7,1.1c0.5,0.7,0.7,2,0.6,3.3c-0.9,7.3-0.4,15.7-2.2,22.1c-8.9-0.4-17.8,0.9-26.8,0.9c-1.3,0-2.5,0.7-3.7,0.9
		c-19.2,0-38.3,0-57.5,0c-7.1,1.9-14.2,0.2-19.1,0.8c4.8-0.4,11.9,1.1,19-0.7c19.2,0,38.3,0,57.4,0c10.3-1.6,20.6-1.8,31-1.7
		c1.9,6.5,1.3,19.3-1.2,25.8c-3.2,1.7-6.3,0.5-9.5,0.8c-27.3,2.3-54.5,1.6-81.8,1.7c-6.4-0.2-12.8,0.2-19.2-0.2
		c-0.3-0.1-0.6-0.2-0.9-0.5c-1.8-3.9-3.6-6.2-5.5-0.4C17,148.9,15.6,145.4,14.8,148.5z"/>
	<path class="st2" d="M135.8,118.1c-0.1-8.2,0.4-16.1,1.7-23.4c-1.4-1.8-3-0.2-4.4-0.9c-1.2-3.8,0.1-6.5,0.5-9.6
		c0.5-3.5,1-6.8-1.2-5.8c-0.9,0.4-1.8,1.1-2.1-2.3c-0.3-3.2,0.3-5.3,1.4-6.3c1.2-0.4,2.4-0.1,3.6-0.4c-5.3,1-10.7,0.9-16,0.8
		c-1.4,0-2.9,0.2-4.3,1.4c-18.3,0.7-36.7,0.1-55,0.3c-13.1,0-26.2-0.1-39.3,0c-2,0-4.1,1.5-5.9-2.4c0-4.5,0-8.9,0-13.4
		c1-2.4,2.1-2.8,3.3-2.1c0.9,1.9,1.4,7,3.2,3.7c-0.7-3.9-2.2-0.7-3-3.3c0-6.8-2.7-4.2-3.5-8.3c-0.9-8.4-0.4-16.8,0-25.1
		c0.3-0.5,0.7-0.7,1-0.7c16.6,0.1,33.1-0.3,49.7,0.9c-0.6,0.6-1.1,0.8-1.6-0.4c0.3-3.1,1.2-3.7,2-3.7c4.2,0.2,8.5-2,12.6,2.2
		c0.8,0,1.5,0.1,2.3,0.1c-1,5.6,0.8,5.5,1.6,5.9c5,2,10,6.3,15,1.4c1.3-1.3,2.7-1.5,4-0.8c2.1,1,4,0.7,5.8-2.4
		c1.5-2.4,2.4-1.1,2.4,4.2c0,3.4,0.1,7.7,1.7,6.7c1.4-0.8,1.7-4.9,1.6-8.7c-0.1-3.2-1.2-7.6,1.2-7.4c2.3,1.4,4.6-0.7,6.9,1.6
		c1.2,2.1,0.2,5.7,0.5,8.2c0.8,0.5,1.1-1.1,1.6-2c3.3-6.4,4.1-6.1,6.2,3.4c0.9,3.9,1.9,6,3.5,6.1c1,0.1,2-0.2,2.8,1.6
		c1.1,2.4,1.6,5.2-0.2,7.2c-17.1,2.1-34.1,0.7-51.2,0.9c-20,0.2-40.1,2.6-60.1,1.8c-0.3,0-0.5-0.3-0.7,0.5c0.9-1,1.8-0.4,2.8-0.4
		c34.7-0.7,69.4-2.5,104.1-1.7c3.1,0.1,6.1-2.6,9.2-0.4c1.6,5.6,0.9,12.1,0.6,18.1c-0.6,12.8-0.2,25.8-1.5,38.4l0,0
		c-1,5.2-1.1,11.5-2.1,16.8C136.3,118.8,136.1,118.7,135.8,118.1z"/>
	<path class="st0" d="M14.8,148.5c0.2-2.6-0.4-10.3,1.7-2.6c0.1,0.4,0.8-0.6,1.2-1c1.7,2.2,3.4,1.4,5.1,0l0.1,0.2
		c0.7,1.8,1.6,1.6,2.5,1.6c6.7-0.1,13.4,0.2,20.1-0.1c1.2-1,2.5-0.7,3.7-0.7c17.9,0,35.8,0.5,53.7-0.2c10.5-0.4,20.9-1.9,31.4-1.4
		c1.6,8.3,1.3,16.6,0.1,24.9c-28.1,2.1-56.3,1.9-84.4,1.8c-1.3,0-2.5-0.2-3.7,0.7c-7.6,0.2-15.1,0.1-22.7,0.1
		c-0.7-0.1-1.2-0.8-1.6-2.4c-1.9-6.4-1.9-6.3-3.7,0.8l0,0.2c-2,3.3-2.1-4-3.4-5.1C14.8,159.6,14.8,154.1,14.8,148.5z"/>
	<path class="st1" d="M131.2,71.3c-0.2,1.7-0.8,3.5-0.4,5.4c0.5,1.8,1,0.2,1.5-0.4c0.8-1,1.6-2.5,2.4-0.3c0.9,2.6,0.2,5-0.1,7.5
		c-0.4,3.4-1.6,5.6-1.7,9.4c-4.4,1.8-8.9,0.9-13.4,1.7c-3.9,0.7-7.8-0.8-11.7,0.8c-19,0.2-38,0-57,0.1c-10,1.4-20.1,1-30.1,0.4
		c-2-0.1-4,1.7-5.9-1.2c0-7.8,0-15.7,0-23.5c1.5,0.3,3.6-4.8,4.3,3.7c0.1,2.6-0.1,6,1.1,6.3c1.2,0.3,1.1-2.9,1.2-5.3
		c0.1-1.7,0.3-3.1,0.7-4.3c11.6-1,23.1-0.2,34.7-0.4c1.3,0,2.7,0.4,4-0.8c18.2-0.2,36.4,0.1,54.6-0.1
		C120.7,69.6,126,68.1,131.2,71.3z"/>
	<path class="st3" d="M124.8,247.2c-0.1,4.1,0.2,8.2-0.4,12.3c-0.9,6.8-0.3,9,2.3,9.5c0.9,0.2,2-1.1,2.6,1.9c-1.2,3-2.7,2.1-4.1,2.1
		c-11.1,0.1-22.2,0-33.4,0.1c-10.7-0.1-21.5,0-32.2,0c-1.2,0-2.5-0.2-3.7,1.1c-11.3,1.1-22.5,0.6-33.8,0.3c-0.2-0.1-0.4-0.2-0.5-0.2
		c-1.1-2.6-2.1-1.6-3,1.1c-0.8,2.5-2,2.6-3,1.7c-1.3-1.1-0.8-4.6-0.8-7.2c-0.1-7,0-13.9,0-20.9c1.5-2.7,2.9-3.1,4.4-0.1
		c1.2,2.2-0.9,8.3,0.9,8.7c2,0.4,0.3-5.9,1.2-8.2c0.2-0.5,0.4-1.1,0.7-1.6c1.4-1.7,2.8-1.2,4.3-1.2c13.9,0,27.8,0,41.8,0
		c1.4,0,2.9,0.2,4.3-1.2c9.1-1,18.3-0.3,27.4-0.4c7.1-0.1,14.2-0.1,21.3,0C122.3,244.9,123.7,244,124.8,247.2z"/>
	<path class="st3" d="M129.4,272.1c0.4,3.4,0.8,6.9,1.2,10.3c-0.5,1.7-1.2,1.2-1.8,0.7c-1.8-1.4-2.5,1.4-2.8,5.8
		c-2.6,0-4.9,4.7-7.5,3.5c-2.1,3.1-4.4,1.3-6.5,1.5c-7.7,0.6-15.4,0.2-23.1,0.6c-4,0.2-8.1-1.1-12.1,0.5c-1.6,0.7-3.2,1.8-4.7,4.1
		c-0.8,0-1.5,0.1-2.3,0.1c-1.6,1.4-3.3,1.6-4.9,3.5c-1.4,1.8-2.8,1.1-3.9-2.3c-1.3,1.3,1.7-4.1-0.3-1.8c-1.2,1.4-2.5,1.3-3.8-0.4
		c-1.3-3.3-1-6.8-0.1-10.3c1.2-4.2,2.6-6.8,4.5-5.1c1.7,1.6,3.5,2.9,5.1,5.4c1.5,2.4,2.9,1.9,4.2-1.6c0.8-2.2,1.6-3.7,0.7-7.4
		c-0.6-2.5-0.5-5.4,0.8-6.7c6.2-0.5,12.5-0.1,18.7-0.2c1.1,0,2.3,0.3,3.4-0.7c11-0.2,22,0,33.1-0.1
		C128.1,271.5,128.8,271.2,129.4,272.1z"/>
	<path class="st4" d="M113.9,19.4c-0.8,0.1-1,1.1-0.5,3c0.9,3,0.7,5.9,0.1,9.1c-0.7,3.9-1.4,8.1-3.2,5.8c-1.5-1.8-2-5.7-1.3-10.4
		c0.1-0.7,0.1-1.6,0.1-3c-5.4,7.4-11.2,5-16.8,6.4c-3.5,0.9-7.7,1.8-11.1-4.6c-0.6-1-1.1,0-1.7,0.1c-0.7,0.2-1.7,2.6-1.9-1
		c-0.1-3.4,1.1-1.9,1.8-2.1c0.8-0.3,1.3-0.9,1.4-3.4c5.2,2.4,10.5,7.8,15.8,4.6c5-3.1,10.3-5.4,14.7-13.8c1-2,2.1-2.6,3.2-2.6
		c4.4,0.1,8.9-0.6,13.3,0.2c3,0.6,5.4-4.6,8.4-3.8c2.4,0.7,4.4,3.9,6.4,7c1.4,2.1,0.5,6.6,0.7,10c-0.3,0.6-0.7,0.9-1,0.8
		c-6-0.2-11.9,0.6-17.9-0.5C120.9,20.8,117.4,21,113.9,19.4z"/>
	<path class="st5" d="M71.6,274c0,1.1,0.2,2.3,0.1,3.3c-0.3,4.1,3.3,2.7,1.5,7c-1.8,4.3-3.8,12.7-6.8,6.1c-1.6-3.5-3.6-3-5.3-6
		c-1.2-2.1-2.3,0.7-3.3,3.4c-1,2.9-1.6,5.6-0.6,9.4c-1.5,3.6-3.2,2.6-4.9,1.4c-6.3-6.7-12.8-10-19.3-13.5c-2.8-1.5-5.7-1-8.4-4
		c-1.1-1.2-2.2-2.3-2.7-5.6c0-0.5-0.1-1-0.1-1.4c0,0,0.2-0.4,0.2-0.4c2.4-1.5,4.8-0.5,7.1-0.6c10.1-0.4,20.3,0.7,30.4-0.8
		c1.6,2.4,3.1,5.4,4.7,0.1C66.6,272.9,69.2,270.6,71.6,274z"/>
	<path class="st6" d="M78.5,19.3c-3.9,0-7.9,0-11.8,0.1c-0.9,0-1.9-0.9-2.7,1.6c-1,1.6-2.1,0.8-3.1,0.8c-11.3,0.1-22.6,0-33.8,0.1
		c-3,0-6-0.7-8.9-1.3c-1.2-2.3-0.8-4.3,0.1-6.2c1.5,3.3,3,5,4.7,1c0.6-1.5,1.5-1,2.2-1c1.8,0,3.7-0.3,5.5,0.1
		c7.9,1.8,15.6-3.2,23.5-3.2c6.9,0,13.8,4.7,20.8,3.3C76.3,14.2,77.5,16.6,78.5,19.3z"/>
	<path class="st7" d="M134.7,168.3c-0.8-7.7-0.2-15.5,0-23.2c0.1-0.7,0.3-1.2,0.5-1.5c1.1-7.6,1.3-15.5,1.2-23.6
		c-0.2-0.4-0.3-0.8-0.2-1.1c0.1-0.4,0.1-0.6,0.2-0.6c0.1-6.3,0.4-12.4,2.3-16.7c-0.6,20.8-1.1,41.7-2.1,62.4
		c-0.6,12.8-0.2,26.2-0.2,39.3c0,3.1,0.3,6.5-0.1,9.1c-1.3,9.9-1.1,19.5,0.1,29.1c0.6,4.6,0.2,8.9-0.5,12.7
		c-1.7,8.2-2.2,17-1.9,26.3c0.1,3.1,0,5.6-1.1,7c-0.3-11.5-3.2-22.6-0.7-34.4c1.2-5.9,1.1-11.8,1.1-18.4c0-10.4,1.3-20.9,1.3-31.4
		c0.1-11,0.8-21.9,0.6-33C135.3,169.1,134.8,169.2,134.7,168.3z"/>
	<path class="st0" d="M14.8,232.1c0-2.8,0-5.6,0-8.4c2.2-3.3,4.6-0.9,6.9-1.7c3.8,0.1,7.7-0.2,11.5,0.2c1.9,2.2,2.5,7,2.3,12.1
		c-0.2,5.5-2.1,6.5-3.6,6.7c-2.4,0.4-4.5,6.5-7.2,2.2c-1-1.6-1.7,4.1-2.8,4.8c-2.3,1.6-4.5,0.7-6.6-2.6c-0.9-2.5-0.4-5.6-0.5-8.4
		c1.3-0.9,2-5.1,3.5-5.4c0.8,1,1,5.3,2.2,3.8c0.9-1.1,0.5-3.7,0.4-5.7c-0.7-3.9-1.4-1.9-2,0.4c-0.3,1-0.6,1.2-1,1.2
		C16.9,232,15.9,234.7,14.8,232.1z"/>
	<path class="st4" d="M136.4,42.8c-0.3-6.3-2-5.1-3.3-4.9c-2,0.2-3.4-1.6-4.3-7.3c-1.5-8.9-3-9.4-5.3-2.4c-0.8,2.3-1.2,6.5-2.6,3.3
		c-1.2-2.8-0.1-5.4,0.4-7.9c0.1-0.7,0.1-1.6,0.2-2.4c2.9-1.9,5.9-0.4,8.9-0.9c2.1,2.8,3.9,6.9,5.7,9.5c-0.4-1.1-1.3-2-1.9-3.9
		c-0.6-1.9-1.3-4.7,0.4-5.6c2.6,0.2,5.2-0.5,7.8,0.4c1.6,8.2-0.7,14.9-1.1,22.2c0,1.1,0,2.2,0,3.3c-0.6,1-1-0.9-1.5-1.2
		C138.5,43.7,137.3,45.7,136.4,42.8z"/>
	<path class="st8" d="M72.1,299c0.9-4.8,2.3-6.7,4.2-6.7c9.2,0.1,18.4,0.8,27.6-0.3c4.9-0.6,9.7,0.9,14.6,0.4
		c-0.6,3.4-1.6,3.1-2.7,3.2c-4.5,0.7-9-2.1-13.4,3.1c-1.9,2.3-3.1-3.3-4.9-3.1c-2.9,0.4-5.8,0.9-8.6-0.1
		C83.2,293.6,77.7,299.5,72.1,299z"/>
	<path class="st9" d="M60.6,71.3c-0.8,2.5-1.8,1.6-2.7,1.6c-11.5,0-22.9,0-34.4-0.4c-0.9,0-1.2,1.3-1.7,2.2
		c-1.1,2.5-2.2,3.7-3.5,1.5c0.3-10.1-2.4-2.7-3.5-5c0-0.6,0-1.1,0-1.7c15.1,0,30.1,0,45.2,0C60.2,70.1,60.4,70.6,60.6,71.3z"/>
	<path class="st10" d="M15.3,245.5c2.3,2.2,4.7,1.7,7,1.6c2.2-5.2,4.9-1.9,7.3-2.2c12.2-1.3,24.4-3.1,36.5-2c0.7,0.1,1.3,0.2,2,0.6
		c1.3,1.5,2.9,0.7,4,3.8c-1,2.7-2.2,1.6-3.3,1.6c-14.7,0.1-29.4,0.1-44,0.1c-1.2,0-2.5-0.5-3.6,1.8c-0.6,1.4-1.2,1.5-1.8,0.1
		c-1.4-2.9-3.1-1.5-4.6-1.8C15,247.8,15.1,246.6,15.3,245.5z"/>
	<path class="st11" d="M21.8,275.6c3.1,3.6,6.1,6.6,9.5,7c3.2,0.4,6.4,4.1,9.6,5.2c3.9,1.4,7.5,4.7,10.9,9.5
		c-0.3,1.3-0.9,0.2-1.2,1.7c-0.1,0.3-0.3,1.1-0.4,1c-8.2-11-17.2-10.6-25.8-15.8C22.8,283.2,21.7,281.2,21.8,275.6z"/>
	<path class="st12" d="M14.9,94.8c12,0,23.9,0,35.9,0c0.2,0.3,0.2,0.7,0.2,1c-0.1,0.3-0.1,0.5-0.2,0.5c-9.4,3.6-18.9,0.9-28.4,1.8
		c-1.7,0.4-3.4,0.9-4,6.6c-0.4-0.5-0.9-1.1-1.3-1.5c-0.5-0.5-1.2-0.5-1.1-2.7C16,99,17,100.8,17.2,98c-0.8,0-1.5,0-2.3,0
		C14.9,96.9,14.9,95.9,14.9,94.8z"/>
	<path class="st13" d="M50.7,196.9c-0.8,2.5-1.8,1.6-2.7,1.6c-11,0-22.1,0-33.1,0c0-1.1,0-2.1,0-3.2c1.3-0.1,2.7-0.1,4-0.2
		c0.8-1.9,1.5-1.9,2.3,0c9.1,0,18.2,0.1,27.2,0.1C49.1,197.1,50.1,195.1,50.7,196.9z"/>
	<path class="st14" d="M139.9,44.5c0.4,0.6,0.8,1.1,1.1,1.7c-0.3,16.4,0.8,33.1-1.1,49.3c-0.3,2.4-0.3,4.8-1.2,6.1
		c-0.7-18.7,1.3-36.8,1.1-55.4c-0.1-0.4-0.2-0.7-0.1-1.1C139.8,44.7,139.8,44.5,139.9,44.5z"/>
	<path class="st15" d="M61.1,299.2c1.5,2.6,3.1,3.4,4.8,0.8c1.2-1.8,2.6-0.7,3.9-0.8c-5.1,7.3-10.4,9.7-15.9,4.9
		c-0.9-0.8-1.9-1.4-2.1-4.8C54.9,297.6,58,297.8,61.1,299.2z"/>
	<path class="st3" d="M21.8,223.6c-2.3,0-4.7,0.1-7,0.1c0-1.1,0-2.2,0-3.3c5.9,0,11.8-0.4,17.6,0.2c1.7,0.2,3.3-4.4,4.9-0.2
		c-0.5,5.1-1.8,3.5-3,3.1C30.2,222.5,26,222.3,21.8,223.6z"/>
	<path class="st16" d="M126,289c-1.1-6.4-0.6-8.5,1.8-8.2c0.9,0.1,1.9,1.1,2.8,1.6c0,2.7,2,2.6,1.2,6.5
		C129.8,288.9,127.9,288.9,126,289z"/>
	<path class="st17" d="M18.3,54.5c-1.1,2-2.3,1.6-3.5,1.7c0-3.4,0-6.7,0-10.1c1.4,0.8,2.8,1.5,4.2,2.3
		C18.8,50.5,18.5,52.5,18.3,54.5L18.3,54.5z"/>
	<path class="st18" d="M61.1,299.2c-3.1,0-6.2,0.1-9.3,0.1c-0.4-0.1-0.7-0.1-1.1-0.2c-0.1-3.2,0.8-0.9,1.2-1.7
		c1.7,0,3.5-0.1,5.2-0.1c1.5,0,3,0.7,4.4-1c0.4-0.5,1,0.2,0.9,1.9C62.3,298.8,61.6,298.9,61.1,299.2z"/>
	<path class="st14" d="M141,42.8c-0.3-7.6,1.9-14,1.2-21.7c0.2-0.7,0.3-0.8,0.5-0.1c0.2,0,0.4,0,0.6,0
		C143.3,28.9,142.9,36.5,141,42.8z"/>
	<path class="st13" d="M14.9,165.2c0.6,0.3,1.6-2.4,1.7,1.8c0.1,3.2,0.9,3,1.7,3.3c0.3,1.7,0.4,3.2-0.6,3.1c-0.9,0-1.9,0-2.8,0
		C14.9,170.7,14.9,167.9,14.9,165.2z"/>
	<path class="st3" d="M18.3,232.1c-1.1,1.7-1.3,8.7-3.4,5c0-1.7,0-3.4,0-5c1.2-0.5,2.3-2.3,3.5-1.6c0.1,0.4,0.2,0.8,0.1,1.1
		C18.3,231.9,18.3,232.1,18.3,232.1z"/>
	<path class="st19" d="M18.3,14.4c-0.2,1.7-0.4,3.3-0.6,5c-0.6,2.9-1.4,3.1-2.3,1.7c-0.2,0-0.4,0-0.5,0
		C15.6,17.2,16.4,13.2,18.3,14.4z"/>
	<path class="st3" d="M68.7,245.6c-8.3,0-16.6-1.2-24.8,0.3c-7.2,1.3-14.4,0.8-21.6,1.2c0.8-5.1,1.4-11.3,3.9-4.8
		c0.3,0.8,1.1,1.5,1.3,1.1c1.5-4.7,3.6-3.8,5.4-5c4.1-2.5,1.1-9.5,1-14.6c6.3-3.7,12.6-1.3,19-1.8c19.8-1.7,39.5,0.1,59.3-1
		c5.6-0.3,11.2,0.4,16.7-1.3c1.3-0.4,2.7-0.8,4,0.6c-1.5,6.1-1.1,13.3-1.3,20.1c-0.1,3,0.1,5.5-1.1,6.7c-2.8-1.8-5.7-1-8.6-0.9
		c-17.3,0.3-34.6,0.2-51.9,0.1C69.6,246.3,69.1,246.3,68.7,245.6z"/>
	<path class="st20" d="M132.9,220.3c-23.5,3.8-47,0.5-70.5,2c-9.5,0.6-19,1.6-28.5,1.6c-4-0.1-8.1-0.1-12.1-0.2
		c2.6-3.5,5.3-0.7,7.9-1.6c2.5-0.9,5.2,1.8,7.6-1.6c0.2,0,0.4,0,0.6,0c1.4,2.6,2.7-3.6,4.1,0c23.1,0,46.3,0.5,69.4-0.5
		c6.1-0.3,12.3-0.8,18.5-1.2C130.9,218.7,132,217.6,132.9,220.3z"/>
	<path class="st21" d="M134.7,168.3c0.2,0.5,1.1-0.5,0.6,2c-29.3,2.1-58.7,1.5-88,1.6c-0.7,1.1-1.2,1.3-1.1-1.6
		c17.3,0,34.6-0.1,52-0.1C110.3,170.1,122.5,167.5,134.7,168.3z"/>
	<path class="st22" d="M68.7,245.6c16.2,0,32.5-0.3,48.7,0c3.7,0.1,7.2-2.3,10.9-1.7c0.9,0.1,2.1-1.2,2.2,3.1c-0.2,0-0.3,0-0.5,0.1
		c-1.2,2.2-2.3,2.8-3.5,0c-0.6,0-1.2,0-1.7,0c-17.6,0-35.1,0-52.7,0C71,246.6,69.7,248.5,68.7,245.6z"/>
	<path class="st23" d="M50.7,196.9c-0.8-0.3-1.7,0.8-2.3-1.6c18.9,0,37.8,0,56.7,0c0.2,0.3,0.3,0.7,0.2,1c-0.1,0.3-0.1,0.5-0.2,0.5
		C87,196.9,68.9,196.9,50.7,196.9z"/>
	<path class="st24" d="M46.1,170.2c0.2,1.3,0.7,1.5,1.1,1.6c-0.5,1.7-1.2,1.6-1.8,1.6c-7.5,0-14.9,0-22.4,0c-0.7,0-1.4,0.2-1.8-1.6
		c-0.1-2.9,0.5-2.7,1.1-1.8C30.3,170.1,38.2,170.2,46.1,170.2z"/>
	<path class="st25" d="M105.1,196.8c0-0.5,0-1,0-1.5c9.5-3,18.9-1.4,28.4-1C124.1,195,114.6,198.2,105.1,196.8z"/>
	<path class="st26" d="M129.4,272.1c-11.8,0.1-23.5,0.2-35.3,0.2c-0.9,0.6-1.8,2.8-2.3-1.6c12.5,0,25,0.1,37.6,0.1
		C129.4,271.3,129.4,271.7,129.4,272.1z"/>
	<path class="st27" d="M21.2,195.2c-0.8,0-1.5,0-2.3,0c-0.9-4.1-0.9-7.9,0.7-10.7c1.1-1.9,1.8,0,2.4,2.3
		C22.9,190.5,22,192.9,21.2,195.2z"/>
	<path class="st28" d="M20.4,205.5c0.9,0.8,1.8,2.2,1.7,4.8c-0.2,3.3-1,6.1-2.3,6c-0.9-0.1-1.6-1.9-1.5-5.1
		C18.5,208,19.2,206,20.4,205.5z"/>
	<path class="st29" d="M22.3,170.1c-0.4,0.6-0.8,1.2-1.1,1.8c-1-0.6-1.9-1.1-2.9-1.7c0-4-0.1-8.7,1.8-8.1
		C21.5,162.4,23,164.2,22.3,170.1z"/>
	<path class="st3" d="M42,220.4c-1.4,0.4-2.7,3.7-4.1,0c2.6-0.7,1.3-6.9,1.7-11.1C41.6,211.5,42.2,215.2,42,220.4z"/>
	<path class="st3" d="M126.6,247.2c1.2,0,2.3,0,3.5,0c-0.8,4.4-1.5,8.9-3.5,10C126.6,253.6,126.6,250.4,126.6,247.2z"/>
	<path class="st30" d="M135.2,143.5c-0.2,0.5-0.4,1-0.5,1.5c-28.8,1.9-57.6,1.8-86.4,1.6c-1,0-1.9,0.2-2.8,1.5
		c-0.6-2.1-2.1,1.5-2.3-3.1c19.7,0,39.5,0.9,59.2-0.5C113.3,143.8,124.3,143.5,135.2,143.5z"/>
	<path class="st31" d="M50.7,96.4c0-0.5,0-1,0-1.5c19.1,0,38.2-0.1,57.3-0.1c0.9-0.6,1.9-2.7,2.3,1.7C90.5,96.4,70.6,96.4,50.7,96.4
		z"/>
	<path class="st32" d="M47.3,120c19.3,0,38.6-0.1,57.9-0.1c0.2,0.4,0.3,0.7,0.2,1.1c-0.1,0.3-0.1,0.5-0.2,0.5
		c-19.3,0-38.6,0-57.9,0.1c-0.2-0.4-0.3-0.7-0.2-1.1C47.1,120.1,47.2,120,47.3,120z"/>
	<path class="st33" d="M47.3,120c0,0.5,0,1,0,1.6c-5.1,3.5-10.4,1-15.5,1.6c-2.8,0.3-5.6,0.1-8.4,0.1c0-1.1,0-2.2,0-3.3
		C31.3,120,39.3,120,47.3,120z"/>
	<path class="st34" d="M105.1,121.5c0-0.5,0-1.1,0-1.6c1.5-1.3,3-1.7,4.5-1.7c8.7,0.1,17.4,0,26.2-0.1c0.2,0,0.4,0.1,0.6,0.1
		c0,0.6,0,1.1,0,1.7C126,118.7,115.6,122.2,105.1,121.5z"/>
	<path class="st35" d="M43.2,145c0.5,2.6,1.8,0.6,2.3,3.1c-6.8,0-13.6,0.1-20.4,0.1c-0.9,0-2,0.9-2.2-3.2
		C29.7,145.1,36.5,145.1,43.2,145z"/>
	<path class="st36" d="M110.3,96.4c-0.6-2.4-1.5-1.3-2.3-1.7c0.9-2.6,2-1.6,3-1.6c7.3-0.1,14.6-0.1,21.9-0.2
		c1.5,0.9,3.2-1.6,4.6,1.7C128.5,95.3,119.4,95.8,110.3,96.4z"/>
	<path class="st37" d="M22.9,144.9c-1.7,5.4-3.4,6.2-5.1,0C20.1,138.3,20.9,138.3,22.9,144.9z"/>
	<path class="st38" d="M22.3,122.9c-0.3,2.6-0.5,5.5-1.8,5.2c-1-0.3-2-1.9-1.9-5.1c0.1-3,1-4.7,2-4.7
		C21.6,118.3,22.2,119.7,22.3,122.9z"/>
	<path class="st27" d="M18.3,104.8c0.2-8.9,0.8-9.9,4-6.6C22.5,107.7,19.9,103.9,18.3,104.8z"/>
	<path class="st39" d="M139.9,44.5c0,0.5,0,1.1,0,1.6c-39.2-1.1-78.3,2.2-117.5,1.5c38-6,76-0.6,114-4.8
		C137.6,43.4,138.9,41.5,139.9,44.5z"/>
	<path class="st40" d="M15.4,21c0.8,0.1,1.6-0.5,2.3-1.7c15.4,3.2,30.9,1,46.3,1.6c1.3,0,2.6,0,4.3,0c-1,2.4-1.8,1.6-2.4,1.6
		c-15.9,0.1-31.7,0.1-47.6,0C17.4,22.6,16.2,23.8,15.4,21z"/>
	<path class="st41" d="M60.6,71.3c-0.2-0.5-0.4-1.1-0.6-1.6c18.5,0,37,0,55.6-0.1c0.1,0.4,0.2,0.7,0.1,1.1c-0.1,0.3-0.1,0.5-0.2,0.5
		C97.2,71.2,78.9,71.3,60.6,71.3z"/>
	<path class="st42" d="M115.5,71.2c0-0.5,0-1.1,0-1.6c0.4-0.5,0.8-1.6,1.3-1.6c6.9-0.1,13.8-0.1,21.1-0.1c-2.4,4.1-4.6,3.2-6.7,3.3
		C126,71.3,120.8,71.2,115.5,71.2z"/>
	<path class="st43" d="M142.7,21c-0.2,0-0.4,0.1-0.5,0.1c-2.9,0-5.8,0-8.7,0c-0.8,2-1.6,1.6-2.3,0c-3.3,0-6.6,0-9.8,0
		c-2.5-1.1-5.1,1.8-7.5-1.7c8.6,0,17.3-0.1,25.9,0C140.8,19.4,141.9,18.2,142.7,21z"/>
	<path class="st17" d="M18.3,54.5c0.2-0.1,0.4,0,0.6-0.2c1.5-2,2.9-1.6,3.6,3.2c0.4,3.2-0.6,3.5-1.3,3.7
		C19.4,61.7,17.9,61.3,18.3,54.5C18.3,54.5,18.3,54.5,18.3,54.5z"/>
	<path class="st44" d="M18.3,76.3c1.2-0.4,2.2-2.3,3.5-1.5c1,4.6,0.5,8.5-1.1,9.4C18.8,85.1,18.3,80.8,18.3,76.3z"/>
	<path class="st45" d="M91.9,270.7c0.6,2.3,1.5,1.2,2.3,1.6c-0.9,2.6-2,1.6-3,1.6c-6.5,0.1-13.1,0.1-19.6,0.1c-2.7,0-5.4,0-8.1,0
		c-0.7,1.6-1.5,1.9-2.4,0.6c-1.6-3.8-3.6,0.2-5.2-2.5c0.7-2.2,1.6-1.6,2.4-1.6C69.5,270.7,80.7,270.7,91.9,270.7z"/>
	<path class="st46" d="M55.9,272.2c1.7,1,3.6-1.6,5.2,1.7c-0.2,0.6-0.3,0.7-0.6,0.2c-12.9-0.1-25.8-0.1-38.7-0.2
		c0.9-2.7,2-1.5,3-1.5C35.2,272.2,45.5,272.2,55.9,272.2z"/>
	<path class="st47" d="M19.4,250.7c0.6,0,1.2,0,1.8-0.1c0.7,2.9,1.7,6.1,0.2,9.1c-0.8,1.7-1.9,1.5-2.6-0.7
		C17.7,255.6,18.6,253,19.4,250.7z"/>
	<path class="st3" d="M60.6,274c0.2-0.1,0.4-0.1,0.6-0.2c0.8,0.1,1.6,0.1,2.3,0.2c0,2.7-0.5,5.2-1.3,5.4
		C61.1,279.7,60.7,276.9,60.6,274z"/>
	<path class="st48" d="M18.3,232.1c0-0.5,0-1.1,0-1.6c0.2-0.5,0.4-1.1,0.6-1.6c0.8-1.9,1.5-2.1,2.3,0c0.3,2.3,1.6,3.7,0.7,7
		c-0.5,1.8-1.1,3.1-1.9,2.8C18.6,238.1,18.5,235,18.3,232.1z"/>
	<path class="st3" d="M21.2,228.9c-0.8,0-1.5,0-2.3,0c0.2-6.1,1.7-3.6,2.6-2.7C22.4,227.2,21.8,228.5,21.2,228.9z"/>
	<path class="st2" d="M131.2,21.1c0.8,0,1.6,0,2.3,0c0.5,4.9,2.1,6.2,3.4,8.3c0.7,1.1,1.5,2.9,1,5.1c-0.7,2.9-1.3-0.5-1.8-1.7
		c-1.1-2.5-1.8-6.2-3.6-5.7C131.2,27.6,131.2,23.9,131.2,21.1z"/>
</g>
<g>
	<path class="st0" d="M133,554.2c-0.3,1.4-0.7,1.6-1.2,1.5c-0.5-2.2-1.3-3.8-1.7-6.3c-0.4-3.1-0.9-6.2-1.4-9.2
		c-0.1-0.7-0.3-1.2-0.5-1.7c-0.9-0.9-1.9-0.4-2.8-1.3c-1.4-1.5-2.4-4.2-1.9-8.7c0.5-4.8,0.4-9.9,1.2-14.5c0.5-1.3,1-1.5,1.6-1.1
		c1.1,1.4,0.8,4.6,1.1,7.5c1.2-1.5,1.6-4.9,2.4-7c0.2-0.5,0.4-1.1,0.6-1.5c0.9-7.8,1.3-15.7,0.5-23.8c-6.6-0.2-13.1,0.8-19.7,1.1
		c-22.2,1-44.4,0.4-66.6,0.3c-0.5,0-1-0.1-1.4-0.3c-1.7-0.7-1.7-5.4-2.7-9.6c-0.2,5.8-0.9,9.4-2.9,9.1c-0.3,0-0.6-0.2-0.9-0.4
		c-6.5,2.3-12.9,0.8-19.4,1.1c-0.9,0-1.7-0.4-2.4-2.3c0-7.3,0-14.6,0-21.9c2-2.6,4.1-1.8,6.2-1.7c9.5,0.2,19.1,0.1,28.6,0
		c0.4,0,0.8-0.3,1.1-0.6c18-0.3,36.1,0,54.1-0.1c9.4-0.7,18.9-1.9,28.3-1.6c-9.4-0.5-18.8,1.1-28.3,1.6c-15.9,0-31.7,0-47.6,0
		c-3,0-6-0.3-8.9,0.8c-8.7,0-17.4,0.1-26.2-0.1c-1.1-0.2-1.5-1.5-1.2-4.8c0.2-2.2,0.2-4.8-0.8-5c-1-0.2-1.1,2.3-1.2,4.6
		c-0.1,1.9,0,3.9-0.8,4.9c-1.2,0.3-2.4,1.2-3.5-1.2c-0.7-7.3,0.2-14.6,0-21.9c0.8-3.5,2.5,0.3,3.3-3.4c0.2-0.5,0.5-0.8,0.7-0.9
		c1.1,0.1,2.1,1,3.1,1.8c7.6,0.7,15.3,0.1,22.9,0.3c0.9,0,1.7-0.6,2.5-1.3c6-0.9,11.9-0.3,17.9-0.4c14.7-0.1,29.4,0.3,44.1-0.2
		c7.1-0.2,14.2-2.1,21.3-1.5c1.2,0.1,2.5-0.3,3.7,0.6c1.3,1.3,1.3,4.5,1.3,7.6c-0.2,16.1-0.4,32.2-1.5,48.1
		c-0.1,0.8-0.2,1.6-0.2,2.4c0.5,12.1-0.3,23.6-1.9,34.8c-0.5,3.6,0.1,7.7,0.4,11.5C133,544.3,133.8,549.1,133,554.2z"/>
	<path class="st1" d="M14.8,415.3c-1.4-5.1,0.2-10,0.1-15.1c-0.2-11.8,0-23.6,0-35.4c1.3-1.8,2.6-3.8,2.7,3.2c0,0.8,0.6,0.9,1,1.1
		c2.3,2.5,3.2-4.5,4.9-6.3c5.6-0.8,11.2-0.3,16.8-0.3c3.6,0,7.1-0.1,10.7-1.7c19.8,0,39.5,0,59.3,0c7.8,1.3,15.5-2.3,23.3-1.6
		c1.2,0.1,2.5-0.4,3.7,1.1c0.5,0.7,0.7,2,0.6,3.3c-0.9,7.3-0.4,15.7-2.2,22.1c-8.9-0.4-17.8,0.9-26.8,0.9c-1.3,0-2.5,0.7-3.7,0.9
		c-19.2,0-38.3,0-57.5,0c-7.1,1.9-14.2,0.2-19.1,0.8c4.8-0.4,11.9,1.1,19-0.7c19.2,0,38.3,0,57.4,0c10.3-1.6,20.6-1.8,31-1.7
		c1.9,6.5,1.3,19.3-1.2,25.8c-3.2,1.7-6.3,0.5-9.5,0.8c-27.3,2.3-54.5,1.6-81.8,1.7c-6.4-0.2-12.8,0.2-19.2-0.2
		c-0.3-0.1-0.6-0.2-0.9-0.5c-1.8-3.9-3.6-6.2-5.5-0.4C17,415.7,15.6,412.1,14.8,415.3z"/>
	<path class="st2" d="M135.8,384.8c-0.1-8.2,0.4-16.1,1.7-23.4c-1.4-1.8-3-0.2-4.4-0.9c-1.2-3.8,0.1-6.5,0.5-9.6
		c0.5-3.5,1-6.8-1.2-5.8c-0.9,0.4-1.8,1.1-2.1-2.3c-0.3-3.2,0.3-5.3,1.4-6.3c1.2-0.4,2.4-0.1,3.6-0.4c-5.3,1-10.7,0.9-16,0.8
		c-1.4,0-2.9,0.2-4.3,1.4c-18.3,0.7-36.7,0.1-55,0.3c-13.1,0-26.2-0.1-39.3,0c-2,0-4.1,1.5-5.9-2.4c0-4.5,0-8.9,0-13.4
		c1-2.4,2.1-2.8,3.3-2.1c0.9,1.9,1.4,7,3.2,3.7c-0.7-3.9-2.2-0.7-3-3.3c0-6.8-2.7-4.2-3.5-8.3c-0.9-8.4-0.4-16.8,0-25.1
		c0.3-0.5,0.7-0.7,1-0.7c16.6,0.1,33.1-0.3,49.7,0.9c-0.6,0.6-1.1,0.8-1.6-0.4c0.3-3.1,1.2-3.7,2-3.7c4.2,0.2,8.5-2,12.6,2.2
		c0.8,0,1.5,0.1,2.3,0.1c-1,5.6,0.8,5.5,1.6,5.9c5,2,10,6.3,15,1.4c1.3-1.3,2.7-1.5,4-0.8c2.1,1,4,0.7,5.8-2.4
		c1.5-2.4,2.4-1.1,2.4,4.2c0,3.4,0.1,7.7,1.7,6.7c1.4-0.8,1.7-4.9,1.6-8.7c-0.1-3.2-1.2-7.6,1.2-7.4c2.3,1.4,4.6-0.7,6.9,1.6
		c1.2,2.1,0.2,5.7,0.5,8.2c0.8,0.5,1.1-1.1,1.6-2c3.3-6.4,4.1-6.1,6.2,3.4c0.9,3.9,1.9,6,3.5,6.1c1,0.1,2-0.2,2.8,1.6
		c1.1,2.4,1.6,5.2-0.2,7.2c-17.1,2.1-34.1,0.7-51.2,0.9c-20,0.2-40.1,2.6-60.1,1.8c-0.3,0-0.5-0.3-0.7,0.5c0.9-1,1.8-0.4,2.8-0.4
		c34.7-0.7,69.4-2.5,104.1-1.7c3.1,0.1,6.1-2.6,9.2-0.4c1.6,5.6,0.9,12.1,0.6,18.1c-0.6,12.8-0.2,25.8-1.5,38.4l0,0
		c-1,5.2-1.1,11.5-2.1,16.8C136.3,385.5,136.1,385.4,135.8,384.8z"/>
	<path class="st0" d="M14.8,415.3c0.2-2.6-0.4-10.3,1.7-2.6c0.1,0.4,0.8-0.6,1.2-1c1.7,2.2,3.4,1.4,5.1,0l0.1,0.2
		c0.7,1.8,1.6,1.6,2.5,1.6c6.7-0.1,13.4,0.2,20.1-0.1c1.2-1,2.5-0.7,3.7-0.7c17.9,0,35.8,0.5,53.7-0.2c10.5-0.4,20.9-1.9,31.4-1.4
		c1.6,8.3,1.3,16.6,0.1,24.9c-28.1,2.1-56.3,1.9-84.4,1.8c-1.3,0-2.5-0.2-3.7,0.7c-7.6,0.2-15.1,0.1-22.7,0.1
		c-0.7-0.1-1.2-0.8-1.6-2.4c-1.9-6.4-1.9-6.3-3.7,0.8l0,0.2c-2,3.3-2.1-4-3.4-5.1C14.8,426.4,14.8,420.8,14.8,415.3z"/>
	<path class="st1" d="M131.2,338c-0.2,1.7-0.8,3.5-0.4,5.4c0.5,1.8,1,0.2,1.5-0.4c0.8-1,1.6-2.5,2.4-0.3c0.9,2.6,0.2,5-0.1,7.5
		c-0.4,3.4-1.6,5.6-1.7,9.4c-4.4,1.8-8.9,0.9-13.4,1.7c-3.9,0.7-7.8-0.8-11.7,0.8c-19,0.2-38,0-57,0.1c-10,1.4-20.1,1-30.1,0.4
		c-2-0.1-4,1.7-5.9-1.2c0-7.8,0-15.7,0-23.5c1.5,0.3,3.6-4.8,4.3,3.7c0.1,2.6-0.1,6,1.1,6.3c1.2,0.3,1.1-2.9,1.2-5.3
		c0.1-1.7,0.3-3.1,0.7-4.3c11.6-1,23.1-0.2,34.7-0.4c1.3,0,2.7,0.4,4-0.8c18.2-0.2,36.4,0.1,54.6-0.1
		C120.7,336.4,126,334.8,131.2,338z"/>
	<path class="st3" d="M124.8,513.9c-0.1,4.1,0.2,8.2-0.4,12.3c-0.9,6.8-0.3,9,2.3,9.5c0.9,0.2,2-1.1,2.6,1.9c-1.2,3-2.7,2.1-4.1,2.1
		c-11.1,0.1-22.2,0-33.4,0.1c-10.7-0.1-21.5,0-32.2,0c-1.2,0-2.5-0.2-3.7,1.1c-11.3,1.1-22.5,0.6-33.8,0.3c-0.2-0.1-0.4-0.2-0.5-0.2
		c-1.1-2.6-2.1-1.6-3,1.1c-0.8,2.5-2,2.6-3,1.7c-1.3-1.1-0.8-4.6-0.8-7.2c-0.1-7,0-13.9,0-20.9c1.5-2.7,2.9-3.1,4.4-0.1
		c1.2,2.2-0.9,8.3,0.9,8.7c2,0.4,0.3-5.9,1.2-8.2c0.2-0.5,0.4-1.1,0.7-1.6c1.4-1.7,2.8-1.2,4.3-1.2c13.9,0,27.8,0,41.8,0
		c1.4,0,2.9,0.2,4.3-1.2c9.1-1,18.3-0.3,27.4-0.4c7.1-0.1,14.2-0.1,21.3,0C122.3,511.6,123.7,510.8,124.8,513.9z"/>
	<path class="st3" d="M129.4,538.8c0.4,3.4,0.8,6.9,1.2,10.3c-0.5,1.7-1.2,1.2-1.8,0.7c-1.8-1.4-2.5,1.4-2.8,5.8
		c-2.6,0-4.9,4.7-7.5,3.5c-2.1,3.1-4.4,1.3-6.5,1.5c-7.7,0.6-15.4,0.2-23.1,0.6c-4,0.2-8.1-1.1-12.1,0.5c-1.6,0.7-3.2,1.8-4.7,4.1
		c-0.8,0-1.5,0.1-2.3,0.1c-1.6,1.4-3.3,1.6-4.9,3.5c-1.4,1.8-2.8,1.1-3.9-2.3c-1.3,1.3,1.7-4.1-0.3-1.8c-1.2,1.4-2.5,1.3-3.8-0.4
		c-1.3-3.3-1-6.8-0.1-10.3c1.2-4.2,2.6-6.8,4.5-5.1c1.7,1.6,3.5,2.9,5.1,5.4c1.5,2.4,2.9,1.9,4.2-1.6c0.8-2.2,1.6-3.7,0.7-7.4
		c-0.6-2.5-0.5-5.4,0.8-6.7c6.2-0.5,12.5-0.1,18.7-0.2c1.1,0,2.3,0.3,3.4-0.7c11-0.2,22,0,33.1-0.1
		C128.1,538.2,128.8,537.9,129.4,538.8z"/>
	<path class="st4" d="M113.9,286.1c-0.8,0.1-1,1.1-0.5,3c0.9,3,0.7,5.9,0.1,9.1c-0.7,3.9-1.4,8.1-3.2,5.8c-1.5-1.8-2-5.7-1.3-10.4
		c0.1-0.7,0.1-1.6,0.1-3c-5.4,7.4-11.2,5-16.8,6.4c-3.5,0.9-7.7,1.8-11.1-4.6c-0.6-1-1.1,0-1.7,0.1c-0.7,0.2-1.7,2.6-1.9-1
		c-0.1-3.4,1.1-1.9,1.8-2.1c0.8-0.3,1.3-0.9,1.4-3.4c5.2,2.4,10.5,7.8,15.8,4.6c5-3.1,10.3-5.4,14.7-13.8c1-2,2.1-2.6,3.2-2.6
		c4.4,0.1,8.9-0.6,13.3,0.2c3,0.6,5.4-4.6,8.4-3.8c2.4,0.6,4.4,3.9,6.4,7c1.4,2.1,0.5,6.6,0.7,10c-0.3,0.6-0.7,0.9-1,0.8
		c-6-0.2-11.9,0.6-17.9-0.5C120.9,287.5,117.4,287.7,113.9,286.1z"/>
	<path class="st5" d="M71.6,540.8c0,1.1,0.2,2.3,0.1,3.3c-0.3,4.1,3.3,2.7,1.5,7c-1.8,4.3-3.8,12.7-6.8,6.1c-1.6-3.5-3.6-3-5.3-6
		c-1.2-2.1-2.3,0.7-3.3,3.4c-1,2.9-1.6,5.6-0.6,9.4c-1.5,3.6-3.2,2.6-4.9,1.4c-6.3-6.7-12.8-10-19.3-13.5c-2.8-1.5-5.7-1-8.4-4
		c-1.1-1.2-2.2-2.3-2.7-5.6c0-0.5-0.1-1-0.1-1.4c0,0,0.2-0.4,0.2-0.4c2.4-1.5,4.8-0.5,7.1-0.6c10.1-0.4,20.3,0.7,30.4-0.8
		c1.6,2.4,3.1,5.4,4.7,0.1C66.6,539.7,69.2,537.4,71.6,540.8z"/>
	<path class="st6" d="M78.5,286c-3.9,0-7.9,0-11.8,0.1c-0.9,0-1.9-0.9-2.7,1.6c-1,1.6-2.1,0.8-3.1,0.8c-11.3,0.1-22.6,0-33.8,0.1
		c-3,0-6-0.7-8.9-1.3c-1.2-2.3-0.8-4.3,0.1-6.2c1.5,3.3,3,5,4.7,1c0.6-1.5,1.5-1,2.2-1c1.8,0,3.7-0.3,5.5,0.1
		c7.9,1.8,15.6-3.2,23.5-3.2c6.9,0,13.8,4.7,20.8,3.3C76.3,280.9,77.5,283.4,78.5,286z"/>
	<path class="st7" d="M134.7,435c-0.8-7.7-0.2-15.5,0-23.2c0.1-0.7,0.3-1.2,0.5-1.5c1.1-7.6,1.3-15.5,1.2-23.6
		c-0.2-0.4-0.3-0.8-0.2-1.1c0.1-0.4,0.1-0.6,0.2-0.6c0.1-6.3,0.4-12.4,2.3-16.7c-0.6,20.8-1.1,41.7-2.1,62.4
		c-0.6,12.8-0.2,26.2-0.2,39.3c0,3.1,0.3,6.5-0.1,9.1c-1.3,9.9-1.1,19.5,0.1,29.1c0.6,4.6,0.2,8.9-0.5,12.7
		c-1.7,8.2-2.2,17-1.9,26.3c0.1,3.1,0,5.6-1.1,7c-0.3-11.5-3.2-22.6-0.7-34.4c1.2-5.9,1.1-11.8,1.1-18.4c0-10.4,1.3-20.9,1.3-31.4
		c0.1-11,0.8-21.9,0.6-33C135.3,435.8,134.8,435.9,134.7,435z"/>
	<path class="st0" d="M14.8,498.8c0-2.8,0-5.6,0-8.4c2.2-3.3,4.6-0.9,6.9-1.7c3.8,0.1,7.7-0.2,11.5,0.2c1.9,2.2,2.5,7,2.3,12.1
		c-0.2,5.5-2.1,6.5-3.6,6.7c-2.4,0.4-4.5,6.5-7.2,2.2c-1-1.6-1.7,4.1-2.8,4.8c-2.3,1.6-4.5,0.7-6.6-2.6c-0.9-2.5-0.4-5.6-0.5-8.4
		c1.3-0.9,2-5.1,3.5-5.4c0.8,1,1,5.3,2.2,3.8c0.9-1.1,0.5-3.7,0.4-5.7c-0.7-3.9-1.4-1.9-2,0.4c-0.3,1-0.6,1.2-1,1.2
		C16.9,498.7,15.9,501.4,14.8,498.8z"/>
	<path class="st4" d="M136.4,309.5c-0.3-6.3-2-5.1-3.3-4.9c-2,0.2-3.4-1.6-4.3-7.3c-1.5-8.9-3-9.4-5.3-2.4c-0.8,2.3-1.2,6.5-2.6,3.3
		c-1.2-2.8-0.1-5.4,0.4-7.9c0.1-0.7,0.1-1.6,0.2-2.4c2.9-1.9,5.9-0.4,8.9-0.9c2.1,2.8,3.9,6.9,5.7,9.5c-0.4-1.1-1.3-2-1.9-3.9
		c-0.6-1.9-1.3-4.7,0.4-5.6c2.6,0.2,5.2-0.5,7.8,0.4c1.6,8.2-0.7,14.9-1.1,22.2c0,1.1,0,2.2,0,3.3c-0.6,1-1-0.9-1.5-1.2
		C138.5,310.5,137.3,312.4,136.4,309.5z"/>
	<path class="st8" d="M72.1,565.8c0.9-4.8,2.3-6.7,4.2-6.7c9.2,0.1,18.4,0.8,27.6-0.3c4.9-0.6,9.7,0.9,14.6,0.4
		c-0.6,3.4-1.6,3.1-2.7,3.2c-4.5,0.7-9-2.1-13.4,3.1c-1.9,2.3-3.1-3.3-4.9-3.1c-2.9,0.4-5.8,0.9-8.6-0.1
		C83.2,560.4,77.7,566.2,72.1,565.8z"/>
	<path class="st9" d="M60.6,338c-0.8,2.5-1.8,1.6-2.7,1.6c-11.5,0-22.9,0-34.4-0.4c-0.9,0-1.2,1.3-1.7,2.2c-1.1,2.5-2.2,3.7-3.5,1.5
		c0.3-10.1-2.4-2.7-3.5-5c0-0.6,0-1.1,0-1.7c15.1,0,30.1,0,45.2,0C60.2,336.8,60.4,337.4,60.6,338z"/>
	<path class="st10" d="M15.3,512.3c2.3,2.2,4.7,1.7,7,1.6c2.2-5.2,4.9-1.9,7.3-2.2c12.2-1.3,24.4-3.1,36.5-2c0.7,0.1,1.3,0.2,2,0.6
		c1.3,1.5,2.9,0.7,4,3.8c-1,2.7-2.2,1.6-3.3,1.6c-14.7,0.1-29.4,0.1-44,0.1c-1.2,0-2.5-0.5-3.6,1.8c-0.6,1.4-1.2,1.5-1.8,0.1
		c-1.4-2.9-3.1-1.5-4.6-1.8C15,514.5,15.1,513.4,15.3,512.3z"/>
	<path class="st11" d="M21.8,542.4c3.1,3.6,6.1,6.6,9.5,7c3.2,0.4,6.4,4.1,9.6,5.2c3.9,1.4,7.5,4.7,10.9,9.5
		c-0.3,1.3-0.9,0.2-1.2,1.7c-0.1,0.3-0.3,1.1-0.4,1c-8.2-11-17.2-10.6-25.8-15.8C22.8,550,21.7,547.9,21.8,542.4z"/>
	<path class="st12" d="M14.9,361.5c12,0,23.9,0,35.9,0c0.2,0.3,0.2,0.7,0.2,1c-0.1,0.3-0.1,0.5-0.2,0.5c-9.4,3.6-18.9,0.9-28.4,1.8
		c-1.7,0.4-3.4,0.9-4,6.6c-0.4-0.5-0.9-1.1-1.3-1.5c-0.5-0.5-1.2-0.5-1.1-2.7c0.1-1.6,1.1,0.2,1.3-2.6c-0.8,0-1.5,0-2.3,0
		C14.9,363.7,14.9,362.6,14.9,361.5z"/>
	<path class="st13" d="M50.7,463.7c-0.8,2.5-1.8,1.6-2.7,1.6c-11,0-22.1,0-33.1,0c0-1.1,0-2.1,0-3.2c1.3-0.1,2.7-0.1,4-0.2
		c0.8-1.9,1.5-1.9,2.3,0c9.1,0,18.2,0.1,27.2,0.1C49.1,463.9,50.1,461.8,50.7,463.7z"/>
	<path class="st14" d="M139.9,311.2c0.4,0.6,0.8,1.1,1.1,1.7c-0.3,16.4,0.8,33.1-1.1,49.3c-0.3,2.4-0.3,4.8-1.2,6.1
		c-0.7-18.7,1.3-36.8,1.1-55.4c-0.1-0.4-0.2-0.7-0.1-1.1C139.8,311.4,139.8,311.2,139.9,311.2z"/>
	<path class="st15" d="M61.1,565.9c1.5,2.6,3.1,3.4,4.8,0.8c1.2-1.8,2.6-0.7,3.9-0.8c-5.1,7.3-10.4,9.7-15.9,4.9
		c-0.9-0.8-1.9-1.4-2.1-4.8C54.9,564.3,58,564.6,61.1,565.9z"/>
	<path class="st3" d="M21.8,490.4c-2.3,0-4.7,0.1-7,0.1c0-1.1,0-2.2,0-3.3c5.9,0,11.8-0.4,17.6,0.2c1.7,0.2,3.3-4.4,4.9-0.2
		c-0.5,5.1-1.8,3.5-3,3.1C30.2,489.2,26,489,21.8,490.4z"/>
	<path class="st16" d="M126,555.7c-1.1-6.4-0.6-8.5,1.8-8.2c0.9,0.1,1.9,1.1,2.8,1.6c0,2.7,2,2.6,1.2,6.5
		C129.8,555.7,127.9,555.7,126,555.7z"/>
	<path class="st17" d="M18.3,321.3c-1.1,2-2.3,1.6-3.5,1.7c0-3.4,0-6.7,0-10.1c1.4,0.8,2.8,1.5,4.2,2.3
		C18.8,317.2,18.5,319.3,18.3,321.3L18.3,321.3z"/>
	<path class="st18" d="M61.1,565.9c-3.1,0-6.2,0.1-9.3,0.1c-0.4-0.1-0.7-0.1-1.1-0.2c-0.1-3.2,0.8-0.9,1.2-1.7
		c1.7,0,3.5-0.1,5.2-0.1c1.5,0,3,0.7,4.4-1c0.4-0.5,1,0.2,0.9,1.9C62.3,565.5,61.6,565.6,61.1,565.9z"/>
	<path class="st14" d="M141,309.6c-0.3-7.6,1.9-14,1.2-21.7c0.2-0.7,0.3-0.8,0.5-0.1c0.2,0,0.4,0,0.6,0
		C143.3,295.6,142.9,303.3,141,309.6z"/>
	<path class="st13" d="M14.9,431.9c0.6,0.3,1.6-2.4,1.7,1.8c0.1,3.2,0.9,3,1.7,3.3c0.3,1.7,0.4,3.2-0.6,3.1c-0.9,0-1.9,0-2.8,0
		C14.9,437.4,14.9,434.7,14.9,431.9z"/>
	<path class="st3" d="M18.3,498.8c-1.1,1.7-1.3,8.7-3.4,5c0-1.7,0-3.4,0-5c1.2-0.5,2.3-2.3,3.5-1.6c0.1,0.4,0.2,0.8,0.1,1.1
		C18.3,498.7,18.3,498.8,18.3,498.8z"/>
	<path class="st19" d="M18.3,281.1c-0.2,1.7-0.4,3.3-0.6,5c-0.6,2.9-1.4,3.1-2.3,1.7c-0.2,0-0.4,0-0.5,0
		C15.6,283.9,16.4,280,18.3,281.1z"/>
	<path class="st3" d="M68.7,512.3c-8.3,0-16.6-1.2-24.8,0.3c-7.2,1.3-14.4,0.8-21.6,1.2c0.8-5.1,1.4-11.3,3.9-4.8
		c0.3,0.8,1.1,1.5,1.3,1.1c1.5-4.7,3.6-3.8,5.4-5c4.1-2.5,1.1-9.5,1-14.6c6.3-3.7,12.6-1.3,19-1.8c19.8-1.7,39.5,0.1,59.3-1
		c5.6-0.3,11.2,0.4,16.7-1.3c1.3-0.4,2.7-0.8,4,0.6c-1.5,6.1-1.1,13.3-1.3,20.1c-0.1,3,0.1,5.5-1.1,6.7c-2.8-1.8-5.7-1-8.6-0.9
		c-17.3,0.3-34.6,0.2-51.9,0.1C69.6,513.1,69.1,513.1,68.7,512.3z"/>
	<path class="st20" d="M132.9,487c-23.5,3.8-47,0.5-70.5,2c-9.5,0.6-19,1.6-28.5,1.6c-4-0.1-8.1-0.1-12.1-0.2
		c2.6-3.5,5.3-0.7,7.9-1.6c2.5-0.9,5.2,1.8,7.6-1.6c0.2,0,0.4,0,0.6,0c1.4,2.6,2.7-3.6,4.1,0c23.1,0,46.3,0.5,69.4-0.5
		c6.1-0.3,12.3-0.8,18.5-1.2C130.9,485.4,132,484.3,132.9,487z"/>
	<path class="st21" d="M134.7,435c0.2,0.5,1.1-0.5,0.6,2c-29.3,2.1-58.7,1.5-88,1.6c-0.7,1.1-1.2,1.3-1.1-1.6
		c17.3,0,34.6-0.1,52-0.1C110.3,436.8,122.5,434.2,134.7,435z"/>
	<path class="st22" d="M68.7,512.3c16.2,0,32.5-0.3,48.7,0c3.7,0.1,7.2-2.3,10.9-1.7c0.9,0.1,2.1-1.2,2.2,3.1c-0.2,0-0.3,0-0.5,0.1
		c-1.2,2.2-2.3,2.8-3.5,0c-0.6,0-1.2,0-1.7,0c-17.6,0-35.1,0-52.7,0C71,513.3,69.7,515.3,68.7,512.3z"/>
	<path class="st23" d="M50.7,463.7c-0.8-0.3-1.7,0.8-2.3-1.6c18.9,0,37.8,0,56.7,0c0.2,0.3,0.3,0.7,0.2,1c-0.1,0.3-0.1,0.5-0.2,0.5
		C87,463.6,68.9,463.6,50.7,463.7z"/>
	<path class="st24" d="M46.1,436.9c0.2,1.3,0.7,1.5,1.1,1.6c-0.5,1.7-1.2,1.6-1.8,1.6c-7.5,0-14.9,0-22.4,0c-0.7,0-1.4,0.2-1.8-1.6
		c-0.1-2.9,0.5-2.7,1.1-1.8C30.3,436.8,38.2,436.9,46.1,436.9z"/>
	<path class="st25" d="M105.1,463.6c0-0.5,0-1,0-1.5c9.5-3,18.9-1.4,28.4-1C124.1,461.7,114.6,464.9,105.1,463.6z"/>
	<path class="st26" d="M129.4,538.8c-11.8,0.1-23.5,0.2-35.3,0.2c-0.9,0.6-1.8,2.8-2.3-1.6c12.5,0,25,0.1,37.6,0.1
		C129.4,538,129.4,538.4,129.4,538.8z"/>
	<path class="st27" d="M21.2,462c-0.8,0-1.5,0-2.3,0c-0.9-4.1-0.9-7.9,0.7-10.7c1.1-1.9,1.8,0,2.4,2.3C22.9,457.2,22,459.6,21.2,462
		z"/>
	<path class="st28" d="M20.4,472.3c0.9,0.8,1.8,2.2,1.7,4.8c-0.2,3.3-1,6.1-2.3,6c-0.9-0.1-1.6-1.9-1.5-5.1
		C18.5,474.7,19.2,472.7,20.4,472.3z"/>
	<path class="st29" d="M22.3,436.8c-0.4,0.6-0.8,1.2-1.1,1.8c-1-0.6-1.9-1.1-2.9-1.7c0-4-0.1-8.7,1.8-8.1
		C21.5,429.2,23,431,22.3,436.8z"/>
	<path class="st3" d="M42,487.1c-1.4,0.4-2.7,3.7-4.1,0c2.6-0.7,1.3-6.9,1.7-11.1C41.6,478.2,42.2,482,42,487.1z"/>
	<path class="st3" d="M126.6,513.9c1.2,0,2.3,0,3.5,0c-0.8,4.4-1.5,8.9-3.5,10C126.6,520.3,126.6,517.1,126.6,513.9z"/>
	<path class="st30" d="M135.2,410.2c-0.2,0.5-0.4,1-0.5,1.5c-28.8,1.9-57.6,1.8-86.4,1.6c-1,0-1.9,0.2-2.8,1.5
		c-0.6-2.1-2.1,1.5-2.3-3.1c19.7,0,39.5,0.9,59.2-0.5C113.3,410.6,124.3,410.3,135.2,410.2z"/>
	<path class="st31" d="M50.7,363.1c0-0.5,0-1,0-1.5c19.1,0,38.2-0.1,57.3-0.1c0.9-0.6,1.9-2.7,2.3,1.7
		C90.5,363.1,70.6,363.1,50.7,363.1z"/>
	<path class="st32" d="M47.3,386.7c19.3,0,38.6-0.1,57.9-0.1c0.2,0.4,0.3,0.7,0.2,1.1c-0.1,0.3-0.1,0.5-0.2,0.5
		c-19.3,0-38.6,0-57.9,0.1c-0.2-0.4-0.3-0.7-0.2-1.1C47.1,386.9,47.2,386.7,47.3,386.7z"/>
	<path class="st33" d="M47.3,386.7c0,0.5,0,1,0,1.6c-5.1,3.5-10.4,1-15.5,1.6c-2.8,0.3-5.6,0.1-8.4,0.1c0-1.1,0-2.2,0-3.3
		C31.3,386.7,39.3,386.7,47.3,386.7z"/>
	<path class="st34" d="M105.1,388.2c0-0.5,0-1.1,0-1.6c1.5-1.3,3-1.7,4.5-1.7c8.7,0.1,17.4,0,26.2-0.1c0.2,0,0.4,0.1,0.6,0.1
		c0,0.6,0,1.1,0,1.7C126,385.5,115.6,388.9,105.1,388.2z"/>
	<path class="st35" d="M43.2,411.8c0.5,2.6,1.8,0.6,2.3,3.1c-6.8,0-13.6,0.1-20.4,0.1c-0.9,0-2,0.9-2.2-3.2
		C29.7,411.8,36.5,411.8,43.2,411.8z"/>
	<path class="st36" d="M110.3,363.1c-0.6-2.4-1.5-1.3-2.3-1.7c0.9-2.6,2-1.6,3-1.6c7.3-0.1,14.6-0.1,21.9-0.2
		c1.5,0.9,3.2-1.6,4.6,1.7C128.5,362,119.4,362.5,110.3,363.1z"/>
	<path class="st37" d="M22.9,411.6c-1.7,5.4-3.4,6.2-5.1,0C20.1,405,20.9,405,22.9,411.6z"/>
	<path class="st38" d="M22.3,389.6c-0.3,2.6-0.5,5.5-1.8,5.2c-1-0.3-2-1.9-1.9-5.1c0.1-3,1-4.7,2-4.7
		C21.6,385,22.2,386.4,22.3,389.6z"/>
	<path class="st27" d="M18.3,371.5c0.2-8.9,0.8-9.9,4-6.6C22.5,374.5,19.9,370.7,18.3,371.5z"/>
	<path class="st39" d="M139.9,311.2c0,0.5,0,1.1,0,1.6c-39.2-1.1-78.3,2.2-117.5,1.5c38-6,76-0.6,114-4.8
		C137.6,310.1,138.9,308.2,139.9,311.2z"/>
	<path class="st40" d="M15.4,287.8c0.8,0.1,1.6-0.5,2.3-1.7c15.4,3.2,30.9,1,46.3,1.6c1.3,0,2.6,0,4.3,0c-1,2.4-1.8,1.6-2.4,1.6
		c-15.9,0.1-31.7,0.1-47.6,0C17.4,289.4,16.2,290.5,15.4,287.8z"/>
	<path class="st41" d="M60.6,338c-0.2-0.5-0.4-1.1-0.6-1.6c18.5,0,37,0,55.6-0.1c0.1,0.4,0.2,0.7,0.1,1.1c-0.1,0.3-0.1,0.5-0.2,0.5
		C97.2,338,78.9,338,60.6,338z"/>
	<path class="st42" d="M115.5,338c0-0.5,0-1.1,0-1.6c0.4-0.5,0.8-1.6,1.3-1.6c6.9-0.1,13.8-0.1,21.1-0.1c-2.4,4.1-4.6,3.2-6.7,3.3
		C126,338,120.8,338,115.5,338z"/>
	<path class="st43" d="M142.7,287.7c-0.2,0-0.4,0.1-0.5,0.1c-2.9,0-5.8,0-8.7,0c-0.8,2-1.6,1.6-2.3,0c-3.3,0-6.6,0-9.8,0
		c-2.5-1.1-5.1,1.8-7.5-1.7c8.6,0,17.3-0.1,25.9,0C140.8,286.1,141.9,285,142.7,287.7z"/>
	<path class="st17" d="M18.3,321.3c0.2-0.1,0.4,0,0.6-0.2c1.5-2,2.9-1.6,3.6,3.2c0.4,3.2-0.6,3.5-1.3,3.7
		C19.4,328.5,17.9,328.1,18.3,321.3C18.3,321.3,18.3,321.3,18.3,321.3z"/>
	<path class="st44" d="M18.3,343c1.2-0.4,2.2-2.3,3.5-1.5c1,4.6,0.5,8.5-1.1,9.4C18.8,351.8,18.3,347.6,18.3,343z"/>
	<path class="st45" d="M91.9,537.5c0.6,2.3,1.5,1.2,2.3,1.6c-0.9,2.6-2,1.6-3,1.6c-6.5,0.1-13.1,0.1-19.6,0.1c-2.7,0-5.4,0-8.1,0
		c-0.7,1.6-1.5,1.9-2.4,0.6c-1.6-3.8-3.6,0.2-5.2-2.5c0.7-2.2,1.6-1.6,2.4-1.6C69.5,537.4,80.7,537.4,91.9,537.5z"/>
	<path class="st46" d="M55.9,539c1.7,1,3.6-1.6,5.2,1.7c-0.2,0.6-0.3,0.7-0.6,0.2c-12.9-0.1-25.8-0.1-38.7-0.2c0.9-2.7,2-1.5,3-1.5
		C35.2,538.9,45.5,539,55.9,539z"/>
	<path class="st47" d="M19.4,517.4c0.6,0,1.2,0,1.8-0.1c0.7,2.9,1.7,6.1,0.2,9.1c-0.8,1.7-1.9,1.5-2.6-0.7
		C17.7,522.3,18.6,519.8,19.4,517.4z"/>
	<path class="st3" d="M60.6,540.8c0.2-0.1,0.4-0.1,0.6-0.2c0.8,0.1,1.6,0.1,2.3,0.2c0,2.7-0.5,5.2-1.3,5.4
		C61.1,546.4,60.7,543.6,60.6,540.8z"/>
	<path class="st48" d="M18.3,498.8c0-0.5,0-1.1,0-1.6c0.2-0.5,0.4-1.1,0.6-1.6c0.8-1.9,1.5-2.1,2.3,0c0.3,2.3,1.6,3.7,0.7,7
		c-0.5,1.8-1.1,3.1-1.9,2.8C18.6,504.9,18.5,501.8,18.3,498.8z"/>
	<path class="st3" d="M21.2,495.6c-0.8,0-1.5,0-2.3,0c0.2-6.1,1.7-3.6,2.6-2.7C22.4,493.9,21.8,495.2,21.2,495.6z"/>
	<path class="st2" d="M131.2,287.9c0.8,0,1.6,0,2.3,0c0.5,4.9,2.1,6.2,3.4,8.3c0.7,1.1,1.5,2.9,1,5.1c-0.7,2.9-1.3-0.5-1.8-1.7
		c-1.1-2.5-1.8-6.2-3.6-5.7C131.2,294.3,131.2,290.6,131.2,287.9z"/>
</g>
</svg>
