<?xml version="1.0" encoding="utf-8"?>
<!-- Generator: Adobe Illustrator 19.2.1, SVG Export Plug-In . SVG Version: 6.00 Build 0)  -->
<svg version="1.1" id="Layer_1" xmlns="http://www.w3.org/2000/svg" xmlns:xlink="http://www.w3.org/1999/xlink" x="0px" y="0px"
	 viewBox="0 0 46.3 27" style="enable-background:new 0 0 46.3 27;" xml:space="preserve">
<style type="text/css">
	.st0{fill:#FFFFFF;}
</style>
<path d="M41.5,7.8c0.1,0.5-0.1,1.4,0.3,1.7c0.7,0.6,0.1,1,0.2,1.4c0,1.1,0.2,2.3,0.2,3.4c0,0.6-0.3,1.1-0.5,1.7
	c-0.2,0.5-0.3,1-0.5,1.4c-0.3,0.6-0.7,1.2-1.1,1.8c0,0,0.3,0.3,0.5,0.5c-0.4,1-0.7,1.8-1.1,2.8c-0.9-0.3-1.8,0-2.7,0.3
	c-1.5,0.4-3.3,0-4.9,0c-2.6,0-5.2,0.1-7.8,0.2c-2.4,0.2-4.8,0.6-7.3,0.7c-2,0-4-0.3-5.9-0.6c-0.5-0.1-1-0.6-1.6-0.8
	c-0.6-0.2-1.3-0.3-2.1-0.4c1-0.4,1-1,0.2-1.6c0.3-0.3,0.6-0.5,0.9-0.8c-0.8-0.7-0.4-1.2,0.3-1.6C6.8,14.7,6.8,14.7,8,14
	c0-1.5,0-2.8,0-4.2c0-0.5-0.3-1-0.2-1.4c0.5-1.7,2-2,3.5-2.2c1.4-0.2,2.8-0.1,4.2-0.3c2.5-0.4,5-1,7.5-1.4C25,4.3,27,4.1,29,4
	c1.5-0.1,3-0.1,4.5,0c1.1,0.1,2.1,0.5,3.2,0.8c0.2,0.1,0.4,0.2,0.6,0.2c1.5-0.3,2.1,0.9,3,1.8C40.6,7.2,41,7.4,41.5,7.8z"/>
</svg>
