<?xml version="1.0" encoding="utf-8"?>
<!-- Generator: Adobe Illustrator 19.2.1, SVG Export Plug-In . SVG Version: 6.00 Build 0)  -->
<svg version="1.1" id="Layer_1" xmlns="http://www.w3.org/2000/svg" xmlns:xlink="http://www.w3.org/1999/xlink" x="0px" y="0px"
	 viewBox="0 0 32 32.5" style="enable-background:new 0 0 32 32.5;" xml:space="preserve">
<g>
	<path d="M4.7,26.1c0-6.9,0-13.7,0-20.7c0.5-0.1,1.1-0.1,1.8-0.2c0-0.1,0-0.1,0-0.2c-0.7,0-1.4,0-2.1,0c0,7.5,0,15,0,22.7
		c7.3-0.2,14.5-0.5,21.8-0.7c0-0.1,0-0.2,0-0.3c-0.7,0-1.5,0-2.2,0c0,0,0-0.1,0-0.1c0.4-0.1,0.8-0.2,1.2-0.3c0-3.7,0-7.4,0-11.1
		c0.1,0,0.1,0,0.2,0c0.1,0.5,0.2,0.9,0.3,1.4c0.1,0,0.2,0,0.3,0c0.1-0.8,0.1-1.7,0.2-2.9c0.6,0.5,1,0.7,1.3,1.1
		c0.2,0.3,0.2,0.7,0.2,1c0,4.1,0,8.2,0,12.4c-7.9,0-15.7,0-23.7,0c-0.1-8-0.2-15.9-0.4-23.8c4.3,0,8.4,0,12.5,0
		c0.1,0,0.2,0.3,0.4,0.4C16.2,5,16.1,5,16.1,5.1c0.3,0.3,0.6,0.6,1.2,1c-0.8,0.1-1.3,0.2-1.9,0.2c-2.8,0-5.6,0-8.4,0
		C6.3,6.4,5.7,6.5,5,6.6c0,6.6,0,13.1,0,19.6C4.9,26.1,4.8,26.1,4.7,26.1z"/>
</g>
</svg>
