<?xml version="1.0" encoding="utf-8"?>
<!-- Generator: Adobe Illustrator 19.2.1, SVG Export Plug-In . SVG Version: 6.00 Build 0)  -->
<svg version="1.1" id="Layer_1" xmlns="http://www.w3.org/2000/svg" xmlns:xlink="http://www.w3.org/1999/xlink" x="0px" y="0px"
	 viewBox="0 0 100 100" style="enable-background:new 0 0 100 100;" xml:space="preserve">
<style type="text/css">
	.st0{enable-background:new    ;}
</style>
<g>
	<path d="M59.8,78.8c0.5-0.2,3.8-1.2,4.4-1.4c1.2-0.4,4.6-2.1,5.8-2.5c0.1,0,2.6-0.7,2.7-0.7c1.7-0.3,1.4-0.4,3.1-1
		c1.1-0.4,3.7-1.3,4.9-2.1c2.1-1.5,3.9-1.8,6-3.2c0.5-0.4,1.9-1.5,2.4-2.2c0.9-1.1,1.3-1.4,2.2-2.8c0.4-0.7,1.1-1.6,1.5-2.5
		c0.2-0.5,1.7-3.7,1.7-4.4c0.1-0.7-0.3-3.3-0.4-3.8s-1.4-1.1-1.5-1.4c-0.7-1,1.1-1.5,0.5-2.5c-0.3-0.5-2-3.5-3.6-4.4
		c-0.1,0-2.5-4-2.6-4.3c-0.8-1.8-3.9-4.7-4.9-4.8c-3.5-0.3-16.2-2.2-16.9-2.2c-0.8,0.1-2.7-1.2-4.6,0.8c-1.4,1.5-4.1,4.3-4,2.2
		c0,0,0,0,0-0.1c0.1-1.9,0.6-2.3,0.9-2.6c0.5-0.4,1.1-0.4,1.6-0.8c3.2-1.9,6.2-2.5,9.3-2.5c2.8,0,5.6,0.5,8.4,0.8
		c1.7,0.2,3.4,0.6,5.1,1c1.2,0.4,2.4,0.9,3.6,1.5c0.4,0.3,0.7,0.3,1.1,0.6c0.3,0.3,0.7,0.1,0.9,0.8c0.6,2,1.6,1.6,2.4,2.1
		c0.3,0.3,0.6,0.3,0.9,0.1c0.4-0.2,0.4,0.8,0.6,1.5c0.5,1,1,2,1.5,2.5c0.4,0.5,0.8,0.6,1.3,0.6c0.8-0.2,1.2,1.6,1.6,3.5
		c0.1,0.2,0.1,0.7,0.2,1.2c0.7,3.4,0.3,7.9-0.3,12.4c-0.2,1.4-0.7,2.8-1.1,4c-0.7,1.9-1.3,2.3-2,2.9c-1.1,1.1-2.2,2.2-3.3,3.3
		c-0.6,0.7-1.3,1.6-1.9,2.2c-0.1,0.2-0.2,0.2-0.4,0.4c-1.2,0.8-2.5,1.9-3.7,2.5c-3.4,1.8-6.9,4.4-10.2,5.3c-1.5,0.3-3.2,1.9-4.8,2.9
		c-0.4,0.2-0.9,0.6-1.3,0.6c-2.6,0-5.2,1.4-7.9,2.4c-1.6,0.6-3.1,0.9-4.7,1.5c-0.5,0.2-1.1,0.9-1.6,1c-1.8,0.6-3.5,1.1-5.2,1.4
		c-2,0.5-4.1,1.3-6,1.6c-2,0.5-4,0.8-6,1.1c-2,0.3-4.1,0.6-6.1,0.6c-2.2,0-4.3-0.2-6.5-0.1c-0.8-0.1-1.6,0.3-2.4,0
		c-1.6-0.4-3.2-1-4.8-1.6c-1.7-0.6-3.3-1-4.8-2.1c-2.5-1.9-5.1-4.1-7.1-9.8c-1-3-1.6-6.9-1.3-13.3c0.1-4.1,0.8-7.6,1.6-10.9
		c1-4,2.2-6.7,3.5-9c2.5-4.8,5-7.9,7.4-11.3c4.3-5.8,8.5-10.2,12.7-13.9c3.1-2.8,6.2-4.4,9.3-6.3c1.5-0.8,2.9-1.4,4.3-2
		c2.3-1.2,4.7-2.4,6.9-3.2s4.5-1,6.7-1.3c2.8-0.5,5.6-0.9,8.4-1.1c1.3-0.1,2.6,0.2,3.8,0.6c0.6,0.1-1,1.7-1.2,1.9
		c-3.4-0.1-6.7,2.5-10.1,2.6c-1.9,0.1-8.4,1.8-10.4,2.4c-1.6,0.3-6.3,3.5-7.9,4.1c-1.7,0.6-5.1,3.3-6.7,4.1c-2,1-3.7,4.9-5.7,6.1
		c-0.9,0.4-4.1,4.4-5,5.1c-2,1.5-2.6,3.9-4.5,5.6c-1.9,1.7-0.4-1-2.2,1.2c-1.3,1.6-0.9,1.6-2.2,3.4C10.6,44,8.7,48.1,8,49
		c-1.8,2.9-0.9,5.5-2.7,8.7c-1.1,2,0.2,3.1-0.7,7.3c-0.3,1.4,0.3,2.7,0.6,3.4c0.8,4.4,2,9.9,3.3,11.7c1.9,2.3,6.2,4,8.3,4.9
		c3.1,1.5,7,0.1,10.2,1.1c0.7,0.3,5.6-0.1,6.4,0c1,0.1,6.3-0.9,7.4-0.8c0.5,0,6-2.2,6.5-2.2C47.6,83.5,59.1,78.9,59.8,78.8z"/>
</g>
<g class="st0">
	<path d="M11.9,67.9L12,68L12,68.1l0.2,0.6l1.7-2.2l0.3-0.7l0-0.6l0.3-0.2l0.1,0.1l0.1,0l0.2,0.1l0.2-0.1l0.1,0.1l0.1,0l0.4,0.1
		l0.1,0.1l0.1,0l0.2,0.2l0.1,0l0.2,0.2l0.2,0.1l0.1,0.5l0,0.2l0.1,0.1l-0.2,0.3l-0.1,0.1l0,0.2l0,0l-0.1,0.4l-0.1-0.2l-0.1,0l0,0.1
		l0.1,0l-0.1,0.2l-0.1-0.1l-0.1,0.1L16,67.5l0,0.2L16,67.9l-0.1,0l-0.1-0.1l0,0.1l0,0.2l-0.1,0.1l0.1,0.1l-0.3,0.2l0-0.2l-0.1,0.2
		l0,0.2L15.3,69l-0.1-0.1l0,0l-0.1-0.2L15.1,69l0.1,0.1l0,0.1l0,0.1l-0.2,0.1l0,0.3l-0.1,0.1l0,0.1L14.6,70l-0.3,0.2l-0.1,0.1
		l-0.1,0l0.1,0.1l-0.1,0.1l-0.1,0l-0.1,0l0,0.1l-0.1,0.1l-0.3,0.1l-0.1,0.2l-0.1,0l0,0.1l0,0l-0.1,0l-0.1-0.1L13,71.1l0,0l-0.1,0
		l-0.1,0.2l-0.1-0.1l-0.1,0.3l0-0.1l-0.1,0l0,0.2l-0.1-0.1l-0.3,0l-0.1,0.1l-0.4,0.1l-0.1-0.1l0,0.1L11,71.6l-0.1-0.1l-0.7-0.4
		l-0.3-0.2l-0.2-0.3l-0.2-0.5l-0.3-0.8l-0.1-0.7l0-0.9l0.1-2.6l1.2-4.3l0.9-2.2l0.6-1.1l1.2-1.5l0.3-0.2l0.2-0.2l0.3,0l1.1,0.4l0,0
		l0.2,0l1.1,0.5l0.1,0l0.6,0.4l0.1,0l0.1,0.1l0.1,0l0.4,0.1l0,0.2l0.2,0.2l0.1,0l0.2,0.3l0.1,0.1l0,0.1l0.1,0.1l0.1,0.9l-0.3,2.7
		l0,0.6l-0.3,0.2l-0.3,0.1l-0.9,0.1l-1.1-0.1l-0.6-0.2l-0.2-0.7l0.3-2.3l-0.3-0.3l-0.4,0.6L13.7,61l-0.8,2l-0.4,1.3l-0.2,0.9
		l-0.1,0.1l0,0.6L12,66.3l0,0.1l0,0l0,0.3l0,0.4L11.9,67.9z M13.9,69.8l-0.1-0.2l-0.1,0.1L13.9,69.8z"/>
	<path d="M26.8,63.7L26.8,63.7l0,0.1l0,0.2l0.1-0.2l0.3-0.2l0.1,0.1L27.2,64l0,0.1l0,0.1l0,0.3l-0.1,0l-0.2,0.1l0.1-0.2L27,64.4
		l0-0.1l0.1-0.1l0-0.1L27,64l0-0.1l-0.2,0l0.1,0.4l-0.1-0.1l-0.1,0.3l-0.1,0.1l0.1,0l0.1-0.1l0,0.1l0,0.1l0.1,0.1l-0.1,0.2l-0.1,0
		L26.6,65l0.1,0.1l0.2,0l0.1,0.1l0.1-0.3L27,64.9l0.1-0.1l0.1,0.2l0.1-0.1l0.1,0.1l0,0.1l0.1,0l0,0.2l-0.2,0.1l0,0.1L27,65.8l0,0.3
		l0-0.1l0-0.2l0.1,0.1l-0.1,0.2l0.1,0l-0.1,0.2l0,0.1l0.1-0.1l0,0.1l0,0.1l0,0.1l0.1,0l0,0.1l0,0.2l0.1,0.1l0,0.2l0.2,0l0-0.2l0-0.1
		l0-0.3l0.1-0.3l0.1,0.7l0.1,0.1l-0.1,0.1l0,0.1l0,0.1l0,0.3L27.7,68l-0.2,0l-0.1,0.1l0,0.1L27,68.9l0,0.1l0,0.1l-0.1-0.1l-0.3,0.4
		l-0.1,0.4l-0.1,0l-0.6-1.2l0-0.2l-0.1,0l0.2-0.1l0-0.1l-0.1,0l-0.1-0.4L25.4,68l-0.7-2.9l-0.1-0.7L24,64.4l-0.5,0.2l-0.6,0.6l0,0.8
		l-0.1,0.1l0.1,0.6L22.9,67l0,0.1l-0.1,0l-0.1,0.2l0,0.1l-0.1,0.3l0.2,0.1l0,0.3l0.1,0l0,0.2l0,0.1l0,0.2l-0.2,0.8l0,0.2l-0.1,0.2
		l-0.1-0.2l0,0.2l0,0.2l-0.2-0.3l0,0.2l-0.1,0l0,0.2l-0.3,0l0,0.2l-0.1,0l-0.1,0l-0.2,0.1l-0.1,0.2l-0.1,0l-0.2,0.2l-0.1-0.1
		L21,70.9l-0.7-0.1l-0.2-0.1l0-0.2l-0.4-1.8l-0.2-2.3l-0.7-0.4l0.1-0.2l0-0.1l0.4-0.7l0.1-0.4l0-0.3v-0.4l0.1,0l0.1-0.5l-0.1,0.1
		l0-0.4l0.1,0l0-0.3l0,0.1l0-0.2l0.4-5l0.2-0.8l0.5-1.3l0.1-0.5l0.4-0.1l0.5,0.2l0.4,0l0.4,0.3l0.3,0.2l0.8,0.9l0.7,1.2l0,0.3
		l-0.3,0.7L23.4,59l0,0.3l0,0.1l0,0.4l-0.1,0.3l0,0.2l-0.2,2.2l0.4-0.2l1.1-0.5l0-0.3l0.1,0.2l0.2-0.3l0.1,0l0,0.2l0-0.2l0.1,0
		l0-0.2l-0.1,0L25,61.2l0.1-0.5L25,60.1l-0.1,0.2l0,0.2l-0.1,0.1l0,0.2l0-0.2l0.1-0.8l0-0.2l0.2,0l-0.1-0.5l-0.1,0.3l0-0.3l0.1-0.4
		l0.1,0.1l0-0.2l0.1,0l0,0.1L25,59l0.1,0.1l0.1,0.6l0,0.1l0.2,0l0,0.3l0.2-0.1l0,0.1l0.1,0l-0.1-0.4l0.1,0l0.1-0.1l0-0.3l0-0.3
		l-0.1-0.3l0-0.3l-0.1,0l0.1-0.3l-0.2,0l0.2-0.3l-0.1-0.4l0.2,0.1L26,57l0.1-0.5l0-0.2l0.1-0.1l0.1-0.2l0-0.1l0-0.3L26,55.8
		l-0.1-0.3l-0.1,0l-0.1,0l0.1-0.2l-0.1-0.4l0.2-0.6l-0.2-0.3l0.2-0.6l0,0.1l0.1,0l0-0.1l0.1,0l0,0.1l0.3,0l0.2,0.1l0.2,0l0.6,0.3
		l0.5,0.2l0.4,0.3l0.2,0.1l0.4,0.3l0.3,0.5l-0.1,0.3l-0.3,0.8l-0.3,1.3l-0.1,0l-0.1,0.6l-0.2,0.7l0,0.4L28,59.8l0,0.2L28,59.9l0,0.2
		l-0.2,0.8L27.6,61l0,0.3l-0.2,0.1l-0.1-0.1l-0.1,0.2l0.1,0.2l0.1-0.2l0.1,0l0,0.1l0.1,0l-0.2,0.2l0.1,0.2l0.1-0.1l0.1-0.1L27.6,62
		l-0.2,0.3l-0.1,0.2l0.1,0.2l-0.1,0.2l-0.1,0.3l0-0.6l0-0.2l-0.1,0.2l0,0.2L26.9,63l-0.2,0L26.8,63.7z M21.8,70.6l-0.1,0L21.8,70.6
		L21.8,70.6z M22.4,66.9l0-0.2l0,0.1L22.4,66.9z M22.6,66l0-0.2L22.6,66L22.6,66z M22.8,67L22.8,67l0-0.5l0.1-0.2l-0.1-0.1l0,0.2
		l0,0.1L22.8,67z M22.8,66.1L22.8,66.1l0-0.2L22.8,66.1z M24.9,61L24.9,61L24.9,61L24.9,61z M25.3,61.4l0.1-0.1l-0.2,0L25.3,61.4z
		 M25.4,57.1l0,0.1l-0.1,0.2l0-0.1L25.4,57.1z M25.4,58.7l0-0.1l0.1,0.2L25.4,59L25.3,59l0-0.1L25.4,58.7z M25.5,60.5l-0.1-0.2
		L25.5,60.5L25.5,60.5z M25.8,60.6l0-0.1l-0.1,0L25.8,60.6z M25.8,58.5l0-0.2L25.8,58.5L25.8,58.5z M25.9,61.5l0.1-0.2l0.1,0l0,0.1
		l0.1-0.1l0.1-0.2l-0.1-0.2l0.1-0.2l0.1,0.1l0-0.3l0.2-0.3l-0.3,0.2l0,0.2l-0.1,0.1l-0.2,0l-0.1,0.1l0,0.2l0,0.1L26,61L25.9,61.5
		L25.9,61.5z M26,58.8l0.1-0.3l-0.2,0.1L26,58.8z M26,60.5l0.1-0.2l0-0.2l0.1,0l0.2-0.5l0-0.2l0.3-0.4l0,0.1l0.1,0l0-0.2l-0.2,0
		l0-0.1l-0.1-0.6l-0.1,0.1l0.1,0.1l-0.1,0.1l-0.2,0.6l-0.2,0l0,0.1l-0.2,0l0,0.3l0.1,0l0-0.2l0.1,0l0.1,0l-0.1,0.1l0,0.1l-0.1,0.2
		l-0.1,0l0,0.5l-0.1,0L26,60.5L26,60.5z M26.3,63.7l-0.1,0.2l0.1,0.1l-0.1,0.1l0.1,0.3l0,0.2l-0.2,0.1l0,0.1L26,65l0.1,0.2l0.2,0
		l0-0.2l0.1-0.1l0-0.2l0.1-0.1l-0.1,0l0.1-0.2l0-0.2l-0.1,0l0.2-0.4l-0.1-0.1L26.3,63.7z M26,58l0.1,0l0-0.2l-0.1,0L26,58z
		 M26.2,65.5L26.2,65.5l-0.1-0.2L26.2,65.5z M26.3,58.4L26.3,58l-0.1,0.1L26.3,58.4z M26.3,62.3l0-0.4l-0.1-0.1l0,0.1l0,0.3
		L26.3,62.3z M26.3,57.4l0.1-0.2l-0.1,0l0,0.1L26.3,57.4z M26.2,66.1L26.2,66.1l0-0.1L26.2,66.1z M26.4,57.5l0-0.1l-0.1,0.2
		L26.4,57.5z M26.4,63.6l0.1,0.1l-0.1-0.3L26.4,63.6z M26.4,63.2l0.1-0.1l0-0.1l0.1-0.2l-0.2-0.1l0,0.1l0.1,0L26.4,63L26.4,63.2z
		 M26.5,65.3l0.1-0.2l-0.1,0l0,0.1L26.5,65.3z M26.6,58.9l0,0.1l-0.1,0l0-0.1L26.6,58.9z M26.5,61.5l0.1-0.1l-0.1,0l0.1-0.1
		l-0.1-0.1L26.5,61.5z M26.6,57.3l0.1-0.2l-0.2,0L26.6,57.3L26.6,57.3z M26.6,58.1l0.1-0.2l0-0.3l-0.1,0l-0.1,0.1L26.6,58.1z
		 M26.7,62L26.7,62l0-0.2l-0.2,0l0,0.2l0.1-0.1L26.7,62z M26.8,66.8l0.1-0.2l0-0.6l0.3-0.5L27,65.3l-0.1,0l0,0.2l-0.1,0.1l0,0.3
		L26.7,66l0,0.3l-0.1,0L26.8,66.8L26.8,66.8z M26.6,61.1l0.1-0.1l-0.1,0L26.6,61.1z M26.7,60.1l0.2-0.2l-0.1-0.4l0,0.1l0,0.2
		L26.7,60.1z M26.7,63.7L26.7,63.7l0-0.1L26.7,63.7z M26.8,62.9l0.1-0.2l-0.1-0.4l-0.2,0l0,0.1l-0.1,0.1l0,0.1l0.2,0l-0.1,0.2
		L26.8,62.9z M26.8,56.6L26.8,56.6l0-0.2L26.8,56.6z M27.1,62.2l0.1-0.1l-0.1-0.5l0-0.2l-0.1,0l0-0.3l0.1-0.1l0-0.2l-0.2,0l-0.1,0.4
		l0,0.1l0.1,0l0,0.2l-0.1,0.1l0.1,0.1L26.8,62l0,0.1l0.2-0.2l0-0.1l0,0.1L27.1,62.2L27.1,62.2z M26.9,63.1l0,0.3L26.9,63.1
		L26.9,63.1z M26.9,63.7l0-0.2l0.2-0.3l0.1,0.1L27,63.3l0.1,0.1l-0.2,0.1L26.9,63.7z M27,60.3l0.2-0.5l0-0.2l-0.2,0.5L27,60.3z
		 M27.1,60.6l0-0.1L27.1,60.6L27.1,60.6z M27.3,60.1l0.1-0.5l-0.1,0l-0.1,0.1L27.3,60.1z M27.3,63.6l0.1-0.2l-0.1,0l0.1-0.2l0.1,0.2
		l0.1-0.2l0.1,0l0.1-0.1l0.1,0l-0.2,0.1l0.1,0.1l0,0.1l0,0.1l0,0.2l-0.1,0.3l0.1,0l-0.2,0l-0.1,0.1l-0.1,0l0-0.2l0.3,0l-0.2-0.3
		L27.3,63.6z M27.4,65.3l0,0.2l0,0.1L27.4,65.3L27.4,65.3z M27.5,64.4l0,0.1l-0.1,0L27.5,64.4z M27.4,58.4l0.1,0l0-0.2l-0.1,0.1
		L27.4,58.4z M27.5,61.4l0-0.2l0,0.1L27.5,61.4z M27.5,65.8l0.1,0.1L27.5,65.8L27.5,65.8z M27.7,58.5l-0.1-0.1l-0.1,0.1L27.7,58.5z
		 M27.6,62.5l0.1,0.1l0.1-0.1l-0.2,0.4l0,0.1l-0.1-0.4L27.6,62.5z M27.5,60.6l0-0.2l-0.1,0L27.5,60.6z M27.6,58.1l0-0.2L27.6,58.1
		L27.6,58.1z M27.6,64.6l-0.1-0.5l0.1,0l0,0.1l0.2,0.1l-0.1,0.2l0.1,0l-0.1,0.1l0,0.3l0,0.1L27.6,64.6L27.6,64.6z M27.6,60.3
		L27.6,60.3l0-0.2L27.6,60.3z M27.7,60.7l0-0.1l-0.1,0.1L27.7,60.7l-0.1,0.1L27.7,60.7z M27.7,65l0.1,0.1l0,0.1l-0.1,0L27.7,65z
		 M27.8,65.9l-0.1-0.2l0.1-0.1l0.1-0.1l0,0.2l0,0.1l-0.1,0.5l-0.1-0.2L27.8,65.9z M27.9,61l-0.1,0.2l0-0.1L27.9,61z M27.8,65.3
		l0.1,0.1l-0.1,0.1L27.8,65.3z M27.9,61.8l0,0.2L27.9,61.8L27.9,61.8z M28.1,66.5L28,67L28,66.6L28.1,66.5z M28.2,67L28.2,67l0-0.1
		L28.2,67z"/>
	<path d="M32.9,67.3L32.9,67.3l-0.1,0.2l0.1,0l-0.3,0l0,0l-0.3-0.1l-0.1,0.2l-0.1,0l0-0.2l-0.2,0l-0.1,0.2l-0.5,0.3L31,67.9
		l-0.3-0.3l0-0.1L30.4,67l0-0.1l-0.1-0.3l0-2.1l0-1l0-0.2l0.1-2.1l0.6-4.7l0.1-0.4l0-0.2L30.9,56l-0.4-0.3l-0.2-0.3l0-0.1l0.2-0.1
		l0.3,0l0.6-0.2l0.1-0.1l0.1,0l0.3-0.7l0.3,0l0.2,0.1l2-0.9l0.2,0l0.2-0.1l0.1,0l0.4-0.1l0.3,0.1l0.1-0.2l0.4-0.1l0.1-0.1l0.2,0
		l0.5-0.2l-0.1,0l0.5-0.1l0,0.2l0.1-0.1l0,0.1l0.3,0l0.1,0l0.3,0L38,52.8l0.4-0.3l0.2,0.1l0.1-0.1l0-0.1l0.2,0l0.4,0.1l0.4,0.4
		l0.1,0.4l-0.1,0.1l0.1,0l0,0.2l0,0.1l-0.1-0.1l-0.1,0.4l-0.1-0.1l-0.1,0l0,0.2l0.3,0.2l-0.1,0.1l0,0.2l-0.2,0.1l0,0.1l0.2-0.1
		l-0.1,0.2l0.1,0l-0.1,0l-0.1,0.1L38.9,55l-0.1,0.1l-0.1,0l-0.4,0.2l-0.4,0.1L37,55.6l-0.2,0L36.2,56L36,56l-0.8,0.3L35,56.6
		l-0.2,0.1L34.6,57l-0.1,0.4l0,0.1L34.3,58l0,0.3l1.4-0.5l1-0.2l1.5,0L38,57.7l0,0.1l-1,0.5l-0.6,0.5l-0.1,0.3l-0.2,0.4L36,60.1
		l-0.3,0.5l-0.6,0.3l-0.4,0.2l-0.1,0.1l-0.1-0.1L34,61.3l-0.2,1.9l0.1,0l2.5-1.6l0.7-0.1l0.4,0.1l0.8,0.3l0.1,0.5l0.1-0.1l0,0.2
		l0.1,0l-0.1,0.1l-0.1,0.3l0.2-0.3l0.1,0l-0.1,0.1l0.1,0.1l0,0.1l-0.1,0.1l-0.1,0l0,0.2l0.1,0l0,0.1l-0.1,0l-0.2,0.3l-0.1,0l0-0.2
		L38,63.7l-0.1,0l-0.1,0.1l-0.1,0.1l-0.1,0l-0.1,0.3l-0.1,0l-0.4,0.2l0,0.1l-0.1,0.1l0,0.1l-0.2,0.2l-0.1,0l-0.1,0.1l-0.1,0l0-0.1
		l0-0.1L36.1,65l0.1,0l-0.1,0.1l-0.2,0l-0.1,0.1l0.1,0l-0.1,0.2l-0.2,0.1l-0.2,0.2l-0.2,0.1L35,66.1l0-0.1l-0.1,0.2l0.1,0l-0.4,0.3
		l0-0.1l-0.2,0.3l-0.2,0l0.1,0.1L34.2,67l0-0.1L33.9,67l-0.1,0.1l-0.2,0l-0.4,0.3l0-0.1l-0.2-0.1l-0.2,0L32.9,67.3z M33.2,67.5
		L33,67.4l0-0.1L33.2,67.5z M33.8,54.7l0.1,0L33.8,54.7L33.8,54.7z M34.6,54.8l0-0.2L34.6,54.8L34.6,54.8z M35.3,54.6l0-0.1l0.1-0.1
		l0-0.1l-0.2,0l0,0.1l-0.1,0l0,0.1L35.3,54.6z M35.8,54.1L35.8,54.1L35.8,54.1L35.8,54.1z M36.1,53.4l-0.1-0.1l-0.1,0L36.1,53.4z
		 M36,54.7l0.1-0.1l-0.1,0L36,54.7z M36.1,53.3l0.4-0.1l-0.3,0L36.1,53.3z M36.3,54.7l0-0.2l0.1,0l0-0.1l-0.1,0l-0.1,0.1L36.3,54.7z
		 M36.5,54.2l0-0.1L36.5,54.2L36.5,54.2z M36.8,54.6l0.1-0.2l-0.1-0.1l0.1-0.1l-0.1-0.1l0,0.1l0,0.1L36.8,54.6z M37.1,54.3l0-0.2
		L37,54.2L37,54.1l0,0.2L37.1,54.3z M37,53.2L37,53.2l0.1-0.2L37,53.2z M37.5,54.4L37.5,54.4l0-0.2l-0.1-0.1l0-0.1L37.3,54l0,0.3
		l0.1,0l0,0.1l0.1-0.1L37.5,54.4z M37.2,53.6l0.1,0l0.1,0L37.2,53.6L37.2,53.6z M37.5,53.6L37.5,53.6L37.5,53.6L37.5,53.6z
		 M37.6,54.2l0.1-0.2l-0.1,0L37.6,54.2z M37.7,53l0.1,0l-0.1-0.1L37.6,53L37.7,53z M37.8,54.5l0.1-0.2l-0.2,0.1L37.8,54.5z
		 M37.7,54.2l0.2,0l0-0.1L37.7,54.2L37.7,54.2z M38.1,54.2L38.1,54.2L38.1,54.2L38.1,54.2z M38.3,61.9L38.3,61.9l0-0.2L38.3,61.9z
		 M38.5,54.3l0-0.1l-0.1-0.1l-0.1,0.2L38.5,54.3z M38.6,62.1l-0.1,0.2L38.6,62.1L38.6,62.1z M39.1,54.4l0.1-0.2l-0.2,0L39.1,54.4z
		 M39.7,54l0,0.1l-0.2,0l0-0.1L39.7,54z M39.7,54.3L39.7,54.3l0,0.2l-0.1,0L39.7,54.3z M39.9,54.6l-0.1,0.2l0-0.1L39.9,54.6z
		 M39.9,53.7l0,0.2L39.9,53.7L39.9,53.7z"/>
	<path d="M41.9,63.4l0.1,0.1l-0.1,0.1l0.2,0.6l1.7-2.2l0.3-0.7l0-0.6l0.3-0.2l0.1,0.1l0.1,0l0.2,0.1l0.2-0.1l0.1,0.1l0.1,0l0.4,0.1
		l0.1,0.1l0.1,0l0.2,0.2l0.1,0l0.2,0.2l0.2,0.1l0.1,0.5l0,0.2l0.1,0.1l-0.2,0.3l-0.1,0.1l0,0.2l0,0L46.4,63l-0.1-0.2l-0.1,0l0,0.1
		l0.1,0l-0.1,0.2L46.1,63L46,63.1L46,63l0,0.2l-0.1,0.2l-0.1,0l-0.1-0.1l0,0.1l0,0.2l-0.1,0.1l0.1,0.1l-0.3,0.2l0-0.2l-0.1,0.2
		l0,0.2l-0.1,0.2l-0.1-0.1l0,0l-0.1-0.2l-0.1,0.3l0.1,0.1l0,0.1l0,0.1l-0.2,0.1l0,0.3l-0.1,0.1l0,0.1l-0.2,0.2l-0.3,0.2l-0.1,0.1
		l-0.1,0l0.1,0.1L44.1,66L44,66l-0.1,0l0,0.1l-0.1,0.1l-0.3,0.1l-0.1,0.2l-0.1,0l0,0.1l0,0l-0.1,0l-0.1-0.1L43,66.7l0-0.1l-0.1,0
		l-0.1,0.2l-0.1-0.1l-0.1,0.3l0-0.1l-0.1,0l0,0.2L42.4,67l-0.3,0L42,67.1l-0.4,0.1l-0.1-0.1l0,0.1l-0.6-0.1L40.8,67l-0.7-0.4
		l-0.3-0.2l-0.2-0.3l-0.2-0.5l-0.3-0.8L39,64.2l0-0.9l0.1-2.6l1.2-4.3l0.9-2.2l0.6-1.1l1.2-1.5l0.3-0.2l0.2-0.2l0.3,0l1.1,0.4l0,0.1
		l0.2,0l1.1,0.5l0.1,0l0.6,0.4l0.1,0l0.1,0.1l0.1,0l0.4,0.1l0,0.2l0.2,0.2l0.1,0l0.2,0.3l0.1,0.1l0,0.1l0.1,0.1l0.1,0.9l-0.3,2.7
		l0,0.6l-0.3,0.2l-0.3,0.1l-0.9,0.1l-1.1-0.1l-0.6-0.2l-0.2-0.7l0.3-2.3l-0.3-0.3l-0.4,0.6l-0.6,1.1l-0.8,2l-0.4,1.3l-0.2,0.9
		l-0.1,0.1l0,0.6L42,61.8l0,0.1l0,0l0,0.3l0,0.4L41.9,63.4z M43.8,65.4l-0.1-0.2l-0.1,0.1L43.8,65.4z"/>
	<path d="M51.7,65.7l-0.2-0.2L51,64.6l0-0.1l-0.1,0l-0.1-0.4l0-0.5l-0.3-0.9l-0.4-2.2l0-3.4l0.4-4l0.6-2.3l0.1-0.2l0-0.3l0.5-0.1
		l0.6,0.2l0.7,0.3l0.7,0.6l0.1,0.1l0.4,0.5l0.2,0.7l0,0.4l-0.1,0.2l-0.5,2.5l0,0.2l4.2-6.2l0.3,0.1l0.2,0.2l0.5,0.1l0.3,0.2l0.7,1.3
		l0.1,0.8L59.6,53l-0.3,0.5L59,53.7L58.9,54l-0.1,0.2l-1.4,2l-0.5,0.7l-0.1,0.1l-0.7,1l0,0.1l-0.2,0.2l0,0.3l0.6,1.5l0.1,0.3l0.1,0
		l0,0.3l0,0.1l0-0.1l0.1,0.2l0.1,0.1l0.1,0.3l0.1-0.1l0.1,0.1l0.1,0.1l0.2,0.3l0.2,0.1l0.1,0.1l0.1,0l0.3,0.4l0.1-0.1l0.3,0.3l0,0.2
		l0.1,0l0.3,0.3l0.1,0.4l-0.1,0.3l-0.1,0.1l0,0.2L59,63.8l0,0.3l0.1,0.1l0,0.5L59.1,65L59,65l-0.8-0.4l0-0.1L57,64l0-0.1l0.1,0
		l0-0.1l-0.4-0.3l0-0.2l-0.1,0.1l0.1-0.2l0,0l0-0.1l-1.6-1.7l0,0.1l0.1,0.2l0,0.2l-0.2-0.2l-0.1,0.2l-1.3-1.6l-0.2,0l-0.1-0.1l0,0.4
		l-0.1,0.1l0.1,0.2l0,0.3l0.2,0l-0.2,0.2l0,0.3l-0.1,0.1l0,0.2l0.1-0.1l0.1,0l0-0.1l0-0.1l0,0.3l-0.1,0l-0.1,0.2l-0.1,0.3l0.1,0.1
		l0.2-0.1l0.1,1.4l-0.1,0.2l-0.1,0.5l-0.2,0.2l0,0.2L53,64.9l-0.1,0l-0.1,0.2l0,0.1l-0.3,0.2l-0.4,0.7l0,0.2L51.8,66L51.7,65.7z
		 M50.6,56.3L50.6,56.3L50.6,56.3L50.6,56.3z M51,60.1l0-0.3l-0.1,0L51,60.1L51,60.1z M51.2,64.4l0-0.5L51.2,64.4L51.2,64.4z
		 M52,56.3L52,56.3l0-0.5l0,0.2L52,56.3z M52.5,60.3L52.5,60.3l0.1-0.4l-0.1,0l-0.1,0.2L52.5,60.3z M52.8,60.9l0.1-0.2l0-0.2
		l-0.1,0.2L52.8,60.9z M52.8,62.2L52.8,62.2l0-0.3L52.8,62.2z M52.9,61.6l0-0.1l0-0.3l0.1,0l0-0.2l-0.1,0L52.9,61.6z M52.9,60.1
		L52.9,60.1L52.9,60.1L52.9,60.1z M53.1,60.9L53.1,60.9l0-0.2L53.1,60.9z M53.3,63.2l0.1-0.1l-0.1-0.3l0,0.2L53.3,63.2z M57.2,63.5
		L57.2,63.5L57,63.4l0,0.1L57.2,63.5z M57.6,61.7l0-0.1L57.6,61.7L57.6,61.7z"/>
	<path d="M62.1,62.7l-0.7-0.8L61,61l-0.4-1.5L60.5,58l0.1-4.2l0.4-2.2l0.4-1.3l0.6-1.2l0.2-0.1l1,0l0.5-0.1l1,0.2l0.1,0.2l0-0.2
		l0.2,0l0.1,0l0.2,0l0.1,0l0.2,0l0.1,0.1l0.1,0.1l0.1-0.2l0.2,0.4l0.1-0.2l-0.1,0l0-0.1l0.1,0l0.2,0.2l0.1,0l0,0.1l0.1,0l0.1,0
		l0.1,0l-0.1,0.2l0.1,0l0.2,0.2l0.2-0.2l0.2,0.2l0,0.3l0.2,0.1l0-0.1l0-0.1l0-0.1l0.1,0.1l0,0.2l0.2,0l0.1,0.3l0-0.5l0.1,0.4l0.1,0
		l-0.1,0.6l0,0.1l0,0.2l0.1,0.2l0.1-0.1l0.1,0.2l0.1,0.6l-0.1,0.1l0,0.2l-0.1,0.2l0.1,1.4l0.1,0l-0.1-0.5l0.1,0.1l0.1,0.1l0,0.1
		l0,0.2l-0.1,0.1l0.1,0.3l0,0.1l0,0.2l0,0.1l0,0.2l-0.2,0.1l0.1,0.4l-0.2,0.1l0,0.3l0.1,0l0,0.2l-0.1,0.1l-0.1-0.1l-0.1-0.4
		l-0.1,0.3l0,0.2l0.1,0l-0.1,0.1l0.1,0.5l-0.1,0l0,0.2l-0.1,0.4l0,0.1l-0.1,0.1L68,59l-0.1,0.2l0.1,0l0.1-0.1L68,59.3l-0.1,0l-0.1,0
		l0,0l0.1,0.2l0.1,0l-0.1,0.1l0,0.2L67.7,60l-0.1,0.3l0,0.1l-0.2,0.2l-0.1,0.2l-0.1,0.1l0,0.3l-0.2,0l-0.1,0.3l-0.3,0.4l0-0.1
		l-0.2,0.3l-0.1-0.2l-0.2,0.3l-0.1,0.1l0,0.1l-0.1,0.1l0-0.1L66,62.2l-0.2,0.3l-0.2,0.4l-0.1,0L65.4,63l-0.1,0l-0.1,0.2l-0.2,0
		l-0.3-0.1l-0.1,0.1l-0.8,0.3l-0.6-0.1L62.1,62.7z M64.4,60l0.7-2.1l0.2-0.3l0-0.5l0.2-0.9l0.3-2.1l0-1.3l-0.2-0.5l-0.1-0.1L65.5,52
		l-0.3-0.2l-0.2,0l0,0.3l-0.1,0.3l-0.6,4.3l0,1.5l0,0.2l0,0.1l0.2,1.3L64.4,60z M65.1,49.6l0.4-0.2l-0.2-0.1l-0.2,0.1L65.1,49.6z
		 M65.4,49.9L65.4,49.9l0-0.2l-0.2-0.1l0,0.1L65.4,49.9z M66.3,50.2L66,49.7l-0.2-0.1l-0.1,0l0.3,0.3l-0.1,0l-0.2-0.1l0.1,0.4l0.1,0
		L66.3,50.2z M67.9,57.2l0.1-0.3l-0.1-0.1l0,0.2L67.9,57.2z M68.4,55.5l0-0.3l-0.1,0l0,0.4L68.4,55.5z M68.4,55.8l0.2,0l0-0.3
		l-0.1,0.2L68.4,55.8z M68.6,55.1l0.1-0.3l0.1-0.5l-0.1-0.1L68.5,54l0,0.7l-0.1,0.2L68.6,55.1L68.6,55.1L68.6,55.1z M68.6,50.3
		l0,0.4l-0.1-0.1L68.6,50.3z M68.7,51.6L68.7,51.6l-0.1-0.4l0,0.1l-0.1-0.4l0.2,0L68.7,51l0.2,0.7l0,0.2l-0.1-0.2L68.7,51.6z
		 M68.9,53.3l0-0.3l0-0.1l-0.2-0.2l0.1-0.3l0.1,0.8l0,0.5L68.9,53.3L68.9,53.3z"/>
	<path d="M78.2,54.2L78.2,54L78,54.2l0,0.2l-0.2,0.2l-0.1,0.3l-0.1,0.2l0.1,0.4l-0.2,0.3l0,0.3l-0.1,0.1l0,0.3l-0.2,0.3l0,0.1
		l-0.2,0l0,0.2l-0.1,0.2l0-0.3l-0.1,0.1l0.1,0.2l-0.1,0l0-0.1l0.1,0.4l-0.2,0.1l0,0.4l-0.1,0.1l0.1,0.1l-0.1,0l0,0.1l-0.2,0.3l0,0.1
		l-0.2,0l0,0.3l-0.1,0.1l0-0.3L76.3,60l-0.1-0.1L76,60l-0.1,0l-0.1,0.2l-0.2,0l0,0.2l-0.2,0.2l-0.1,0l0.1-0.2l-0.1,0l-0.1,0l0,0.1
		l-0.1,0.1l-0.1,0.2l-0.2,0.1l-0.2,0l0,0.2l-0.2-0.1l0.1,0.2l-0.2-0.1l-0.1,0.1l-0.2,0l0-0.2l-0.3,0.2l0,0.1l-0.3,0.2l-0.2-0.1
		l-0.2,0l-0.7-0.3l-0.7-0.7l0-0.2l-0.1,0.1l-0.1-0.3l0-0.1l-0.1-0.1l-0.1-0.3l-0.3-0.8L70.2,55l0.1-4.9l0.2-1.3l0.3-0.7l0.2-0.4
		l0.5,0l0.8,0.4l0.1,0l0.7,0.2l0.1,0.1l0.2,0.1l0.9,0.7l-0.1,0.5l-0.1,0.1l0,0.3L74,50.4l-0.1,0.9l0.1,5l0.1,0.7l1.4-2.9l0.5-1.9
		l0.1-2.2l0-0.1l0-0.1l0-0.2l-0.1-0.5L76,49.1l0-0.2l0.3-0.4l0.1-0.3l0-0.1l0.4-0.2l0.6,0l0.1,0.2l0.1,0l0.7,0.4l0.2,0.2l0.3,0.2
		l0.3,0.4l0.2,0.6l0,0.4l0,0.1l-0.1,0.3l0,0.6l-0.2,0.5l-0.1,0.4l-0.2,0.1l0,0.1l-0.2,0.2l-0.2,0.4l0,0.2l-0.2,0.1l-0.1,0.4L78.2,54
		l0,0.1L78.2,54.2z M74.2,61.3l0.1-0.2l-0.1,0.1L74.2,61.3z M75,60.6l0.2,0l0-0.3L75,60.6L75,60.6z M76.6,58.9l0-0.1l0.1,0.1
		l-0.1-0.5l-0.1,0.3l0.1,0.2L76.6,58.9z"/>
	<path d="M84.1,59.8l-0.7-2l-0.2-2.5l0.2-5.1l-0.1,0.1l-0.1,0.2l-0.6,0l-0.4-0.2l-0.2-0.1l-0.9-0.6l-0.4-0.5l-0.2-0.1L80,48.3
		l0.1-0.4l0.8-0.7l0.1,0l0.2-0.2l0.8-0.5l0,0.1l0.1,0.1l1.1-0.4l0.1,0l0.2-0.1l0-0.2l-0.2,0.1L83.2,46l0-0.2l0.2,0l0.7-0.2l-0.2,0.2
		l0.2-0.1l0.2,0l0.2-0.2l0.2,0l0.1-0.1l0,0.1l0.3-0.1l0.5,0l0.8-0.2l0.2,0l0.1-0.1l0.6-0.1l0.9-0.2l0.9,0l0.1-0.1l0.2-0.1l-0.1,0
		l0.3,0l1.7,0.2l-1.2,1.4l0,0.8l0,0.4L90,47.9l-0.3,0.2l-1,0.3l-0.4,0.1L88,48.6l-0.5,1.2l-0.1,0.8l-0.4,1l-0.2,4.2l0,0.3l0,1l0,0.5
		l0,0.1l0.1,0.1l0,0.4l0.1,0.1L87,58.5l0.1,0.1l0.1-0.1l0,0.3L87,58.8l0.1,0.1l-0.2,0.2l-0.1,0.1l-0.1,0l-0.1,0.1l0,0.1l-0.2,0.1
		l0.1-0.2l-0.1-0.1l-0.1,0.1l0,0.3l-0.1,0L86,59.8L85.8,60l-0.1-0.1l-0.1,0.1l0,0.1L85.4,60l-0.1,0.3l-0.7-0.2L84.1,59.8z
		 M83.7,58.1L83.7,58.1l0-0.2L83.7,58.1z M88.6,45.1l0.2,0L88.6,45.1L88.6,45.1z"/>
</g>
</svg>
