<?xml version="1.0" encoding="utf-8"?>
<!-- Generator: Adobe Illustrator 19.2.1, SVG Export Plug-In . SVG Version: 6.00 Build 0)  -->
<svg version="1.1" id="Layer_1" xmlns="http://www.w3.org/2000/svg" xmlns:xlink="http://www.w3.org/1999/xlink" x="0px" y="0px"
	 width="168.5px" height="45px" viewBox="0 0 168.5 45" style="enable-background:new 0 0 168.5 45;" xml:space="preserve">
<style type="text/css">
	.st0{fill:#FFFFFF;}
	.st1{enable-background:new    ;}
</style>
<g>
	<path class="st0" d="M109.8,30.9c-0.4,0-0.7,0.1-1.1,0.1c-0.5,0.1-1.2,0.3-1.6,0.2c-1-0.4-1.7,0.1-2.6,0.2c-0.3,0-0.6,0.3-0.7,0.2
		c-1.1-0.5-2.1-0.1-3.2,0.1c-1.4,0.1-2.7,0.4-4.1,0.5c-0.9,0.1-1.8-0.1-2.6,0c-0.7,0.1-1.4,0.4-2.1,0.5c-2.6,0.3-5.2,0.5-7.7,0.7
		c-1,0.1-1.9,0.1-2.9,0.2c-2.5,0.2-5,0.5-7.4,0.7c-0.9,0.1-2.1-0.3-2.7,0.2c-0.8,0.6-1.4,0.1-2,0.3c-1.1,0.3-2.3-0.1-3.4,0.1
		c-0.3,0.1-0.6,0-0.9,0c-1.5,0-3-0.1-4.4-0.1c-1.3,0-2.6,0.2-3.9,0.3c-0.9,0-1.8-0.1-2.7-0.1c-1.9,0.1-3.8,0.3-5.7,0.3
		c-1.4,0-2.9-0.1-4.3-0.2c-5.9-0.2-11.8-0.4-17.7-1c-3.9-0.4-7.9-0.5-11.7-1.4c-2.7-0.6-5.1-1.5-7.2-3.3c-0.5-0.4-0.5-0.7-0.3-1.2
		c0.9-1.8,2.5-3,4.2-3.9c2.7-1.5,5.5-2.6,8.3-3.9c1-0.5,2-0.9,3-1.2c2.1-0.7,4.2-1.4,6.3-2.1c3-1,6-2,9.1-2.8
		c3.2-0.9,6.5-1.5,9.8-2.2c1.5-0.3,3-0.7,4.5-0.9c3.4-0.5,6.8-1,10.2-1.5c2.9-0.4,5.9-0.8,8.8-1.1s5.8-0.4,8.7-0.6
		c3.6-0.2,7.2-0.5,10.8-0.6c6.1-0.2,12.2-0.3,18.3-0.4c0.4,0,0.8,0,1.1-0.2c0.3-0.1,0.6-0.5,0.6-0.7c0-0.7-0.1-1.4-0.2-2.1
		c-0.2-0.9-0.8-1.4-1.8-1.4c-2.3,0-4.7-0.1-7-0.1c-5,0.2-10,0.5-15,0.8c-4.1,0.1-8.1,0.3-12,0.7c-4,0.4-7.9,1-11.8,1.5
		c-2.5,0.3-5,0.6-7.4,1c-5.2,0.9-10.4,1.8-15.6,3c-7,1.7-13.8,3.8-20.5,6.3c-3.9,1.5-7.8,3-11.5,5c-1.8,1-3.4,2.2-4.7,3.9
		c-1,1.4-1.6,2.9-1.2,4.7c0.6,2.7,2.3,4.3,4.6,5.5C11,37.2,16,38,20.9,38.7c3,0.5,6.1,0.5,9.1,0.7s5.9,0.4,8.9,0.5
		c1.4,0.1,2.9-0.1,4.3-0.1c3.9-0.1,7.8-0.1,11.8-0.2c3.6-0.1,7.3-0.3,10.9-0.5c3.5-0.2,7.1-0.4,10.6-0.7s7.1-0.6,10.6-0.9
		c3.1-0.3,6.2-0.5,9.2-0.8c0.9-0.1,1.8-0.4,2.7-0.5c2.7-0.3,5.5-0.4,8.2-0.8c4.6-0.5,9.2-1.2,13.8-1.3c0.7,0,1.5-0.1,2.2-0.3
		c2.7-0.5,5.4-1.2,8.1-1.4c5.9-0.5,11.7-1.7,17.5-2.6c2.1-0.3,4.1-0.8,6.2-1.2c0.2,0,0.4-0.1,0.6-0.2c1-0.3,2-0.7,3-1
		c1.8-0.5,3.6-1.1,5.4-1.5c1.1-0.3,2.3-0.5,3.1-1.3c0.5-0.5,1.2-1.1,1.3-1.7c0.4-1.9,0.3-3.9-1.5-5.2c-0.2-0.1-0.3-0.3-0.5-0.5
		c-1-0.8-2.1-1.5-3.5-1.4c-0.8,0.1-1.6,0-2.4-0.2c-1.1-0.2-2.1-0.6-3.1-1c-0.5-0.2-0.8-0.6-1.4-0.6c-0.5,0.1-1.1,0-1.6,0
		c-1.5-0.2-3.2,0-4.6-0.8c-0.5-0.3-1.2-0.2-1.8-0.3c-0.7-0.1-1.4-0.1-2.1-0.2c-2.3-0.2-4.5-0.4-6.8-0.5c-3.1-0.1-6.2-0.2-9.3-0.2
		c-5.1,0-10.1-0.1-15.2,0c-5.5,0.1-10.9,0.4-16.3,1.4c-0.9,0.2-1.9,0.2-2.8,0.4c-0.6,0.1-1.2,0.3-1.1,1.1c0.1,0.7,1.5,1.9,2.2,1.8
		c2.4-0.2,4.8-0.3,7.2-0.5c1.3-0.1,2.7-0.1,4,0c2.1,0.1,4.2,0.3,6.3,0.4c0-0.1,0-0.2,0-0.3c-1.2,0-2.3,0-3.5,0c0-0.1,0-0.2,0-0.2
		c1.7,0,3.4,0,5.1,0c6.4,0,12.8-0.1,19.2-0.1c1.8,0,3.6,0.1,5.4,0.8c0.2,0.1,0.5,0.1,0.7,0.1c2.9,0.3,5.8,0.7,8.8,0.9
		c2.1,0.2,4.1,1.2,6.3,0.3c0.5-0.2,1.2,0.2,1.7,0.4c1.4,0.4,2.7,0.9,4.1,1.3c0.3,0.1,0.6,0.1,0.8,0.3c0.3,0.2,0.7,0.5,0.7,0.8
		c0,0.2-0.4,0.6-0.6,0.8c-0.6,0.3-1.2,0.6-1.9,0.9c-1.4,0.6-2.9,1.2-4.3,1.7c-0.7,0.3-1.5,0.3-2.3,0.5c-3.6,0.8-7.2,1.6-10.8,2.2
		c-2,0.4-4,0.5-6.1,0.7c-3,0.3-5.9,1-8.9,1.2c-0.1,0-0.1,0-0.2,0c-2.1,0.2-4.3,0.3-6.4,0.5c-1,0.1-1.9,0.2-2.9,0.3
		c-0.8,0.1-1.6,0.4-2.4,0.5c-1.2,0.1-2.4,0-3.6,0.1C111.9,30.4,110.7,30.1,109.8,30.9z"/>
	<path d="M109.8,30.9c0.9-0.8,2.2-0.5,3.2-0.6c1.2-0.1,2.4,0,3.6-0.1c0.8-0.1,1.6-0.4,2.4-0.5c1-0.1,1.9-0.2,2.9-0.3
		c2.1-0.2,4.3-0.3,6.4-0.5c0.1,0,0.1,0,0.2,0c3-0.2,5.9-0.9,8.9-1.2c2-0.2,4.1-0.3,6.1-0.7c3.6-0.7,7.2-1.5,10.8-2.2
		c0.8-0.2,1.5-0.2,2.3-0.5c1.5-0.5,2.9-1.1,4.3-1.7c0.6-0.3,1.3-0.5,1.9-0.9c0.3-0.2,0.7-0.5,0.6-0.8c0-0.3-0.4-0.6-0.7-0.8
		c-0.2-0.2-0.5-0.2-0.8-0.3c-1.4-0.4-2.7-0.9-4.1-1.3c-0.6-0.2-1.3-0.6-1.7-0.4c-2.2,0.9-4.2-0.2-6.3-0.3c-2.9-0.2-5.8-0.6-8.8-0.9
		c-0.2,0-0.5,0-0.7-0.1c-1.7-0.7-3.6-0.8-5.4-0.8c-6.4,0-12.8,0.1-19.2,0.1c-1.7,0-3.4,0-5.1,0c0,0.1,0,0.2,0,0.2c1.2,0,2.3,0,3.5,0
		c0,0.1,0,0.2,0,0.3c-2.1-0.1-4.2-0.3-6.3-0.4c-1.3-0.1-2.7,0-4,0c-2.4,0.1-4.8,0.3-7.2,0.5c-0.7,0-2.2-1.1-2.2-1.8
		c-0.1-0.8,0.6-1,1.1-1.1c0.9-0.2,1.9-0.2,2.8-0.4c5.4-0.9,10.8-1.3,16.3-1.4c5.1-0.1,10.1,0,15.2,0c3.1,0,6.2,0.1,9.3,0.2
		c2.3,0.1,4.5,0.3,6.8,0.5c0.7,0.1,1.4,0.1,2.1,0.2c0.6,0.1,1.3,0,1.8,0.3c1.5,0.8,3.1,0.6,4.6,0.8c0.5,0.1,1.1,0.1,1.6,0
		c0.6-0.1,0.9,0.3,1.4,0.6c1,0.4,2.1,0.8,3.1,1c0.8,0.2,1.6,0.2,2.4,0.2c1.4-0.1,2.5,0.6,3.5,1.4c0.2,0.1,0.3,0.3,0.5,0.5
		c1.8,1.4,1.9,3.3,1.5,5.2c-0.1,0.6-0.8,1.2-1.3,1.7c-0.9,0.8-2,1-3.1,1.3c-1.8,0.5-3.6,1-5.4,1.5c-1,0.3-2,0.7-3,1
		c-0.2,0.1-0.4,0.1-0.6,0.2c-2.1,0.4-4.1,0.9-6.2,1.2c-5.8,0.9-11.6,2.1-17.5,2.6c-2.7,0.2-5.4,0.9-8.1,1.4
		c-0.7,0.1-1.5,0.3-2.2,0.3c-4.6,0.1-9.2,0.8-13.8,1.3c-2.7,0.3-5.5,0.5-8.2,0.8c-0.9,0.1-1.8,0.4-2.7,0.5c-3.1,0.3-6.1,0.6-9.2,0.8
		c-3.5,0.3-7.1,0.7-10.6,0.9c-3.5,0.3-7.1,0.5-10.6,0.7c-3.6,0.2-7.3,0.4-10.9,0.5c-3.9,0.1-7.8,0.1-11.8,0.2
		c-1.4,0-2.9,0.2-4.3,0.1c-3-0.1-5.9-0.3-8.9-0.5c-3.1-0.2-6.1-0.3-9.1-0.7C16,38,11,37.2,6.5,34.9c-2.3-1.2-4-2.8-4.6-5.5
		C1.4,27.7,2,26.2,3,24.8c1.2-1.7,2.9-2.9,4.7-3.9c3.7-2.1,7.6-3.5,11.5-5c6.7-2.6,13.6-4.6,20.5-6.3c5.1-1.3,10.4-2.1,15.6-3
		c2.5-0.4,5-0.7,7.4-1c4-0.6,8-1.2,11.9-1.6s7.9-0.6,11.8-0.8c5-0.3,10-0.6,15-0.8c2.3-0.1,4.7,0,7,0.1c1,0,1.6,0.5,1.8,1.4
		c0.2,0.7,0.2,1.4,0.2,2.1c0,0.3-0.3,0.6-0.6,0.7c-0.3,0.2-0.7,0.1-1.1,0.2C102.6,7,96.5,7.1,90.4,7.3C87,7.4,83.4,7.7,79.8,8
		c-2.9,0.2-5.8,0.3-8.7,0.6c-3,0.3-5.9,0.7-8.8,1.1c-3.4,0.5-6.8,0.9-10.2,1.5c-1.5,0.2-3,0.6-4.5,0.9c-3.3,0.7-6.5,1.4-9.8,2.2
		c-3.1,0.8-6.1,1.8-9.1,2.8c-2.1,0.7-4.2,1.3-6.3,2.1c-1,0.4-2,0.8-3,1.2c-2.8,1.3-5.6,2.5-8.3,3.9c-1.7,0.9-3.3,2.1-4.2,3.9
		c-0.3,0.6-0.2,0.9,0.3,1.2c2.1,1.8,4.6,2.6,7.2,3.3c3.9,0.9,7.8,1.1,11.7,1.4c5.9,0.5,11.8,0.7,17.7,1c1.4,0.1,2.9,0.2,4.3,0.2
		c1.9,0,3.8-0.3,5.7-0.3c0.9,0,1.8,0.1,2.7,0.1c1.3,0,2.6-0.2,3.9-0.3c1.5,0,3,0,4.4,0.1c0.3,0,0.6,0.1,0.9,0
		c1.1-0.3,2.2,0.2,3.4-0.1c0.6-0.2,1.2,0.3,2-0.3c0.6-0.5,1.8-0.1,2.7-0.2c2.5-0.2,5-0.5,7.4-0.7c1-0.1,1.9-0.1,2.9-0.2
		c2.6-0.2,5.2-0.4,7.7-0.7c0.7-0.1,1.4-0.4,2.1-0.5c0.9-0.1,1.8,0.1,2.6,0c1.4-0.1,2.7-0.4,4.1-0.5c1-0.1,2.1-0.6,3.2-0.1
		c0.2,0.1,0.5-0.2,0.7-0.2c0.8-0.2,1.6-0.6,2.6-0.2c0.4,0.2,1.1-0.1,1.6-0.2C109.1,31,109.4,30.9,109.8,30.9z"/>
</g>
<g class="st1">
	<path d="M32.4,22.5c0,0.1,0,0.1-0.1,0.2l-0.1,0.2c0,0,0,0.1,0,0.1c0,0,0,0,0,0h-0.2c-0.1,0-0.1,0-0.1,0.1l-0.1,0.2l-0.1,0
		c0,0-0.1,0-0.1,0l-0.2,0.2c-0.1,0.1-0.1,0.1-0.2,0.2l-0.2,0l-0.2,0l-0.1,0c-0.2,0-0.4,0-0.6,0l-0.7-0.2l-0.4-0.1
		c-0.1,0-0.3-0.1-0.4-0.1l-0.2-0.1l-0.2,0l-0.2-0.1l-0.2-0.1l-0.2-0.1l-0.1,0l-0.1-0.1c0,0,0,0-0.1,0c0,0,0,0,0,0
		c0,0-0.1,0.1-0.1,0.1c0,0.1,0,0.2,0,0.3c0,0.1,0.1,0.1,0.1,0.2c0,0.1,0.1,0.2,0.1,0.2l0.1,0.4c0,0.2,0.1,0.3,0.2,0.4
		c0.1,0.1,0.2,0.1,0.4,0.1l0.3,0l0.3,0l0.3,0.1l0.5,0l0.5,0.1l0.4,0l0.3,0.1l0.1,0l0.1,0c0.1,0,0.1,0,0.2,0l0.3,0l0.5,0l0.4,0
		l0.1,0.2l0.1,0.2l0,0.1l0,0.1c0,0.1-0.1,0.1-0.1,0.2l-0.1,0l0,0.1l0,0.1l-0.1,0.1c0,0,0,0.1,0,0.1l0,0c0,0,0,0.1-0.1,0.1
		c0,0,0,0,0,0L31.6,26c0,0.1-0.1,0.1-0.1,0.2l-0.1,0l-0.2,0l-0.2,0l-0.1,0l-0.4,0L30,26l-0.2-0.1l-1.1-0.1l-0.4-0.1l-0.4-0.1h-0.2
		l0,0.2l0,0.2c0,0.1,0,0.2-0.1,0.3l-0.1,0.2l0,0.2c-0.1,0-0.2,0.1-0.2,0.1l-0.1,0.1c0,0-0.1,0-0.1,0c0,0,0-0.1-0.1-0.1l0,0.1l-0.1,0
		c0,0-0.1,0.1-0.1,0.1c0,0,0,0.1-0.1,0.1l-0.1,0l0,0.1l0,0.1c0,0,0,0,0,0.1c0,0-0.1,0.1-0.1,0.1l0,0.1l0,0l-0.1-0.2l-0.1-0.1l0-0.1
		c0,0,0-0.1,0-0.1c-0.1-0.2-0.2-0.4-0.3-0.7L26,25.7l-0.1-0.2l-0.1-0.1l-0.2,0c-0.1,0-0.2,0-0.2,0c0,0,0-0.1,0-0.1
		c0-0.1,0-0.1,0-0.2l-0.1-0.1l0.1-0.1l0-0.2l0.1-0.1l0-0.1l0-0.1c0,0,0-0.1,0.1-0.2c0.1-0.1,0.1-0.1,0.1-0.2c0-0.2-0.1-0.3-0.1-0.4
		l-0.1-0.3l0-0.2l-0.1-0.1l-0.1-0.1l0-0.2l-0.1-0.4l0-0.1l0-0.1l0-0.2l0,0c0,0,0.1,0,0.1,0v-0.1l0,0c0,0,0.1,0.1,0.1,0.1
		c0,0,0,0,0,0c0,0,0.1,0,0.1-0.1c0,0,0-0.1,0.1-0.2l0-0.1c0,0,0.1,0,0.1,0c0,0,0.1,0,0.1-0.1l-0.1-0.2l0-0.1l0-0.2l-0.1-0.3
		c0-0.1,0-0.1,0.1-0.1l0.1-0.1l0-0.1l0,0l0.2,0.1l0.3,0.3l0.1,0.1l0.1,0.3l0.2,0.1l0.2,0.1l0.2,0.2l0.1,0l0.1,0l0.4,0.2l0.1,0
		l0.1,0.1c0,0.1,0,0.1,0,0.1c0,0,0.1,0,0.1,0l0-0.1c0,0,0.1,0.1,0.1,0.1l0.1,0l0.1,0l0.1,0l0.3,0.1l0.3,0l0.1,0.2h0.1l0.1,0
		c0.1,0,0.1,0,0.1,0.1l0.3,0.1h0.2l0.1,0l0.3,0.1l0.2,0l0.3,0c0.1,0,0.2,0,0.3-0.1l0-0.1l0-0.1h0.1l0.1-0.1c0.1,0,0.1,0,0.1,0.1
		l0.1,0.1l0.1-0.1c0,0,0.1,0,0.1,0.1c0,0,0.1,0,0.1,0.1l0.2,0.2c0,0,0,0.1,0,0.1l0,0.1l0.1,0.1L32.4,22.5z"/>
	<path d="M41.8,27.9L41.8,27.9l-0.1,0l-0.2,0.2l-0.3,0.2c0,0.1,0,0.1,0,0.1l-0.1,0L41,28.6l0,0.1c0,0-0.1,0-0.2,0l-0.1-0.2l-0.1,0
		l-0.1-0.2l-0.1,0l-0.1,0l-0.1-0.1V28c-0.1,0-0.1,0-0.2-0.1c0-0.1,0-0.1-0.1-0.1l-0.2-0.1l-0.1-0.2l-0.2-0.1l0-0.1l-0.1-0.1
		c0,0-0.1-0.1-0.1-0.1c0,0,0.1-0.1,0-0.1l-0.1,0l0-0.1c-0.1,0-0.1,0-0.1-0.1v-0.1l0,0l-0.1-0.1l0-0.1l-0.2,0l-0.1,0
		c0,0-0.1,0.1-0.1,0.1l-0.1,0l-0.1,0l-0.1,0.1l-0.2,0h-0.2l-0.3-0.1l-0.1,0l0,0l-0.3,0L37,26.4l0,0l0,0.1c-0.1,0-0.1,0-0.2-0.1
		l-0.1-0.1l-0.1,0l0,0c-0.1,0-0.1,0-0.2,0l0,0l-0.1-0.1l-0.2,0l-0.2,0l-0.2,0l-0.1,0.2c0,0,0,0,0,0c0,0,0,0,0,0l0,0.2L35.5,27l0,0.1
		l-0.1,0.3l0,0.4l-0.1,0.5c0,0,0,0.1,0,0.1c0,0.1,0,0.2-0.1,0.4l-0.1,0.3l0,0.2l0,0.2l0,0l0,0.2l0,0L35,30l-0.1,0l-0.1,0l0-0.1
		l-0.1,0.1c0,0-0.1,0.1-0.1,0.1l-0.1-0.1l-0.1,0l-0.1-0.1l0,0l0,0l-0.1,0l0,0.1l0,0l-0.1-0.1c0-0.1,0-0.1,0-0.1l0,0l0-0.1
		c0,0,0,0-0.1,0l-0.1,0c0,0,0,0,0,0.1l0.1,0l0,0l-0.1,0.1l-0.2,0l-0.1,0l0,0.1c0,0,0,0.1,0,0.1c0,0-0.1,0-0.1-0.1s0,0-0.1-0.1
		c0,0.1-0.1,0.1-0.1,0.1c0,0,0,0-0.1,0v-0.1l0,0l0-0.2l0.1-0.1l0-0.1c0-0.1,0-0.2,0.1-0.3l0-0.1l0-0.1v0v-0.3l0.1-0.2l0-0.1l0.1-0.5
		c0-0.2,0.1-0.3,0.1-0.4c0,0,0-0.1,0-0.1l0.1-0.2l0-0.4l0-0.1l0.1-0.5l0-0.4l0-0.3l0-0.1l0-0.1c0-0.1,0-0.1,0-0.2l0.1-0.1l0-0.1
		l0-0.2l0-0.2l0-0.1c0,0,0-0.1,0.1-0.1l0.1-0.1l-0.1-0.3l0.1,0l0.1,0l0-0.1v-0.1l-0.1-0.1l0,0l0-0.1l0-0.1l0-0.1l0.1-0.2l0.1-0.3
		l0,0c0,0,0,0,0,0l0-0.2l0-0.1L34,22.3c0-0.1-0.1-0.1,0-0.2c0,0,0.1,0,0.1,0l0.1,0l0,0.1h0c0,0,0-0.1,0-0.1L34.1,22l0-0.2l0.1,0
		v-0.1l-0.1-0.1c0-0.1-0.1-0.3-0.1-0.3l0-0.1c0,0,0-0.1,0-0.1l0.1,0l0,0l0-0.1l0.1-0.1l0.1-0.1l0-0.2c0.1,0,0.2,0,0.2,0l-0.1-0.1
		c-0.1-0.1-0.1-0.1-0.1-0.2c0-0.1,0.1-0.1,0.3-0.2l0-0.1l0.2,0l0.1,0v-0.1l0.1,0.1c0,0,0,0,0.1,0s0,0,0.1,0l0.1,0.1l-0.1,0
		c0,0,0,0.1,0,0.1l0,0l0,0.1l0.1,0l0.1,0l0-0.1l0.1,0.1l0-0.1c0,0,0,0,0.1,0l0,0.1c0,0,0.1,0.1,0.1,0.1l0.1,0h0.1l-0.1,0.1l0.1,0
		c0.1,0,0.1,0,0.2,0.1l0.1,0.2l0.2,0.2c0.1,0.1,0.1,0.2,0.1,0.2v0.2l0,0.1l0,0.1c0,0,0,0-0.1,0s0,0,0,0l0.1,0l-0.1,0.1
		c0,0,0.1,0,0.1,0c0,0,0.1,0,0.1,0l0,0.1l0,0.1l0.1,0l0.1,0.1l0,0.1l0.1,0.1l0,0.2l0.1,0c0,0,0.1,0,0.1,0v0.1l0,0c0,0,0.1,0,0.1,0
		l0.1,0.1l0.1,0c0,0,0,0,0,0.1l0.2,0.1l0,0.1l0.2,0.1l0.1,0.2l0.2,0.1c0,0,0,0.1,0,0.1l0,0.1l0.2,0.1c0,0,0,0,0,0c0,0,0,0,0,0
		l0.2,0.1l0.2,0.2l0,0.1c0,0.1,0,0.1,0.1,0.2l0.4,0.1c0,0,0.1,0,0.1-0.1c0,0,0.1,0,0.3,0.1l0.1,0.1l0,0.1l-0.1,0
		c0,0,0.1,0.1,0.1,0.1c0.1,0,0.1,0,0.1,0l-0.1,0.1l-0.1,0.1l0.1,0l0.1,0.1c0.1,0.1,0.1,0.2,0.1,0.2l0.1,0c0.1,0,0.1,0,0.1,0l0.1,0.1
		l0.1,0.1l0.1,0.2l0.1,0c0.1,0,0.1,0,0.1,0c0,0,0,0,0,0.1c0,0,0,0,0,0l0.1,0.1c0,0,0.1,0.1,0.1,0.1l0.1,0.1l0.2,0.1
		c0.1,0,0.1,0.1,0.2,0.1l0.1,0l0,0.1l0.1,0.1l0.1,0l0,0.1l0.1,0.1c0,0,0,0,0.1,0.1l0,0.1l0.1,0.1l0,0.1
		C41.7,27.8,41.7,27.8,41.8,27.9L41.8,27.9z M34.6,20L34.6,20l-0.1,0c0,0,0,0.1,0,0.1l0,0.1h-0.1l0,0l-0.1,0l0,0c0,0-0.1,0-0.1-0.1
		l0-0.1l0.1-0.1c0,0,0,0.1,0,0.1c0,0.1,0,0.1,0,0.1l0-0.1l0.1-0.1C34.5,20,34.5,20,34.6,20L34.6,20z M35.2,21.8c0,0-0.1,0-0.1,0
		s-0.1,0-0.1,0c0,0,0,0.1,0,0.1c0.1,0,0.2,0,0.2,0C35.3,21.8,35.3,21.8,35.2,21.8z M37.2,24.8c0-0.1,0-0.1,0-0.2
		c-0.1-0.1-0.2-0.1-0.2-0.2c0,0,0-0.1-0.1-0.2l-0.2-0.1l-0.1-0.2c-0.1-0.1-0.2-0.2-0.3-0.4L36,23.1l-0.2,0l0,0l0.1,0.1l-0.1,0
		c0,0-0.1,0-0.1,0.1l0,0.1c0,0,0.1,0.1,0.1,0.1l-0.1,0c0,0-0.1,0-0.1,0l0.1,0l0,0.1l0,0.1l-0.1,0.1V24l-0.1,0l0,0l0.1,0l-0.1,0.1
		l0,0.2l-0.1,0.1c-0.1,0-0.1,0.1-0.1,0.1c0,0,0,0,0.1,0c0,0,0.1,0,0.1,0c0.1,0,0.2,0,0.2,0c0,0,0,0.1,0,0.1l0,0.1l0.1,0.1l0.2,0.1
		c0,0,0.1,0,0.1-0.1l0.1-0.1l0.1,0l0.2-0.2c0,0,0,0.1,0,0.1c0,0,0,0,0,0l0.3,0L37.2,24.8L37.2,24.8L37.2,24.8z"/>
	<path d="M49.1,19.6c0,0,0,0.1,0,0.3c0,0.1,0,0.2,0,0.2L49,20.3l-0.1,0l0,0.2l0,0.2c0,0-0.1,0.1-0.2,0.1c-0.1,0-0.2,0.1-0.2,0.1
		c-0.1,0.1-0.1,0.1-0.1,0.2l0,0.1l-0.1,0.1L48,21.9l-0.2,0.6l-0.4,1L47,24.9c-0.1,0.5-0.3,1-0.3,1.5l-0.1,0.5l-0.1,0l0,0.1L46.5,27
		l-0.1,0.4l-0.1,0.1l0,0.1l-0.1,0.2l0,0.2c0,0.1,0,0.2-0.1,0.2l-0.1-0.1l-0.3,0c0,0,0,0.1,0.1,0.1l0,0.1c0,0-0.1,0-0.1,0
		c0,0-0.1,0-0.1,0c-0.1,0.1-0.2,0.2-0.3,0.2l0,0c0,0-0.1-0.1,0-0.1l0-0.1l-0.1,0l-0.2,0l0,0.1l-0.1,0l0,0.1l0.1,0c0.1,0,0.1,0,0.1,0
		l-0.1,0l0,0l0.2,0l0,0.1c-0.1,0.1-0.1,0.1-0.2,0.1l-0.1,0l0-0.2c0,0,0-0.1-0.1-0.1v0.1l0,0.1l0,0c0,0,0,0.1-0.1,0.1l-0.1,0l0,0
		l-0.1,0l-0.3-0.1c-0.1-0.1-0.1-0.2-0.2-0.3C44,28.3,44,28.1,43.9,28l-0.2-0.5l-0.1-0.1l-0.3-0.9l-0.4-1.2l-0.1-0.1
		c0-0.2-0.1-0.3-0.1-0.5l-0.1-0.1l-0.1-0.1l-0.1-0.2l0-0.1l0-0.1l-0.2-0.3c0,0,0,0,0.1-0.1l0,0l-0.1-0.1l-0.1-0.1l0.1-0.1
		c0,0,0,0,0.1,0c0,0,0,0,0.1,0l0-0.1l-0.1-0.1c0,0,0,0,0-0.1l0.2,0l0.1-0.2l-0.1,0l-0.1,0l-0.1-0.1v-0.1l0.1,0.1l0-0.1v-0.1l0.1-0.1
		l0-0.1l0,0h0.2c0.1,0,0.1,0,0.2,0c0,0,0,0,0-0.1l-0.1-0.1l0.1-0.2l0.1-0.1l0.1,0l0.1,0l0.1-0.1v0.1c0.1,0.1,0.2,0.1,0.2,0.2v0.3
		l0.1,0.1l0,0.1c0,0,0.1,0.1,0.1,0.1l0.1,0.1c0,0.1,0,0.1,0.1,0.2c0.1,0.1,0.1,0.1,0.1,0.3l0,0l0,0l0.1,0.1l0,0.2l0,0.1L44,23.7
		c0,0.1,0.1,0.1,0.1,0.2l0.1,0c0.1,0,0.1,0,0.1,0c0,0,0,0-0.1,0h-0.1c0,0.1,0,0.1,0.1,0.2l0.1,0.2l0.1,0.1l0,0v-0.2l-0.1,0V24h0
		l0.1,0.2c0,0.1,0.1,0.2,0,0.3l0,0.1c0.1,0,0.1,0.1,0.2,0.1l0.1,0.2c0,0,0.1,0.1,0.1,0.1l0.1,0c0,0,0-0.1,0-0.1v-0.1l0.1-0.1
		l0.1-0.2c0-0.1,0-0.1,0-0.2l0.1,0l0.1,0l-0.1-0.1c0,0,0-0.1,0-0.1l0.2,0c0,0,0.1,0,0.1,0s0,0,0,0l0-0.1l0-0.1l-0.1,0l0.1-0.2
		l0.1-0.1l0-0.1l0-0.1c0,0,0.1-0.1,0.1-0.1c0,0,0,0,0,0c0,0,0,0,0,0l0,0c0,0,0,0,0,0c0,0,0,0,0,0c0,0,0-0.1,0-0.1l0.1,0
		c0-0.1,0-0.1,0-0.2l0.1,0l0.1,0v0l0,0l0.1-0.1l0.1-0.1c0-0.1,0-0.1,0-0.1c0,0,0.1,0,0.1,0l0,0.1c0,0,0,0,0,0c0,0,0.1-0.1,0.1-0.1
		l0.1-0.2l0.1,0l0-0.1l0-0.1l-0.1,0h-0.1l0-0.1c0,0,0,0,0-0.1c0,0,0,0,0-0.1l-0.1-0.1c0,0,0.1-0.1,0.1-0.1c0.1,0,0.2,0,0.2,0
		c0-0.1-0.1-0.1-0.1-0.1c0,0,0-0.1,0-0.1l0.1,0l0.1,0l0.2-0.1l0.2,0c0,0,0.1,0,0.1-0.1c0,0,0,0,0,0c0,0,0,0,0,0l-0.2,0
		c0,0,0-0.1,0-0.1V21c0,0,0-0.1,0-0.1l-0.2,0l0.1,0l0.1,0l0,0l0.1,0.1l0.1,0l0.1,0l0.1,0c0.1,0,0.1,0,0.1,0l0-0.1l0-0.1
		c0,0,0,0,0.1,0c0,0,0.1,0,0.1,0.1l-0.1,0v0l0.1,0l0,0l0-0.2v-0.2l0.2-0.1l0,0c0.1-0.1,0.1-0.2,0.1-0.2c0,0,0.1,0,0.1,0v-0.1l0.1,0
		v-0.1l0-0.1l0.1-0.1l0-0.1c0,0,0.1-0.1,0.2-0.1h0.2l0.1-0.1l0.2,0.1C49,19.5,49.1,19.6,49.1,19.6z M46.1,22.9
		C46.2,22.9,46.2,22.8,46.1,22.9c0.1-0.1,0-0.2,0-0.2c-0.1,0-0.1,0-0.1,0.1C46,22.8,46,22.9,46.1,22.9L46.1,22.9L46.1,22.9z
		 M47.6,21L47.6,21l0-0.1l-0.1,0L47.4,21l0,0.1L47.6,21L47.6,21z"/>
	<path d="M56.8,25.1l0,0.2l-0.1,0.1l0,0.1l0,0.1l-0.1,0.2l-0.2,0.3h-0.1l-0.1,0.1c0,0-0.1,0.1-0.1,0.1c0,0,0,0-0.1,0l-0.2,0l0-0.1
		c0,0,0,0-0.1,0c0,0,0,0.1,0,0.2c0,0.1,0,0.2,0,0.2c0,0.1-0.1,0.1-0.1,0.1l-0.1,0l-0.1,0v0.1L55.3,27l-0.2,0L55,27.1l-0.2,0
		c-0.1,0-0.1,0-0.1,0l0,0c0,0,0-0.1,0-0.1c0,0,0-0.1,0-0.1c0,0-0.1,0-0.2,0l-0.1,0c0,0,0,0,0-0.1c0,0,0,0,0,0l-0.1,0l0,0l0,0l0,0
		l0,0.1c0,0-0.1,0.1-0.1,0.1h-0.1l-0.1,0l-0.1,0l-0.3-0.2l0-0.1c-0.1,0-0.1-0.1-0.2-0.1l0-0.1l0,0l-0.1,0l-0.2,0l-0.1-0.1l-0.1-0.1
		c-0.1,0-0.1,0-0.1,0l-0.1,0c0,0-0.1,0-0.1-0.1l0-0.2l-0.1-0.1l0,0l0-0.1l0-0.1l-0.1,0L52.1,26l0-0.2L52,25.5c0-0.1-0.1-0.2-0.1-0.2
		l-0.1-0.1l-0.1,0L51.3,25L51,24.7l-0.1-0.1l-0.1-0.1l-0.1,0l-0.2-0.1l0-0.1c0,0,0-0.1-0.1-0.1L50.4,24l-0.2-0.1l-0.1,0l-0.1,0
		l-0.2-0.2l-0.1-0.2c0-0.1,0-0.2,0-0.2l-0.2-0.2l0-0.2l0-0.1c0-0.1,0-0.1,0-0.2l0.1-0.3l0-0.2l0.1-0.1v-0.2l0.1-0.1l0-0.1
		c0-0.1,0-0.1,0-0.1l0.4-0.2l0-0.1c0,0,0-0.1,0.1-0.1l0.1,0l0-0.1c0,0,0.1,0,0.1,0l0.2-0.2l0.1-0.2l0.1,0l0.1-0.1l0.1-0.1h0.1h0.2
		c0.1,0,0.1,0,0.2,0l0.1,0l0.1,0l0-0.1h0.1l0,0.1c0,0,0,0.1,0,0.1l0.1,0l0.1-0.1l0.2,0l0.2,0l0.2,0.2c0.1,0,0.1,0.1,0.2,0.2l0.1,0.2
		l0.2-0.1l0.2,0.1l0.3,0L54,21v0.1l0.2,0l0.1,0.1l0.1,0.1l0.1,0l0.1,0l0,0.1l0,0.1l0,0.3c0,0-0.1,0-0.1,0.1c0,0.1,0,0.1,0,0.1l0.1,0
		l0.2,0c0.1,0,0.1,0,0.2,0c0,0,0.1,0,0.1,0.1l0,0.1l0,0.1l0.2,0.1c0.1,0.1,0.1,0.2,0.1,0.2l0.3,0.1c0,0.1,0.1,0.1,0.1,0.2l0.1,0
		l0.2,0.2l0,0.1H56c0,0,0,0.1,0,0.1c0,0,0,0.1,0,0.1l0.1,0.1c0,0,0.1,0.1,0.1,0.1l0.1,0.1l0.1,0.2l0.1,0.3l0.1,0.3l0.1,0.2l-0.1,0.1
		l0.1,0.1L56.8,25.1z M55.5,24.8c0-0.1,0-0.2,0-0.3l-0.1-0.1v-0.1l-0.1-0.1l-0.1-0.2L55,23.9l-0.1,0l-0.1,0l0-0.1
		c0-0.1,0-0.1-0.1-0.2l-0.1-0.1l-0.1-0.1c0-0.1,0-0.1-0.1-0.1l-0.1-0.1l0-0.1l-0.1,0l-0.1,0l-0.1-0.1c0,0,0,0,0.1-0.1l-0.3-0.3
		c0,0-0.1,0-0.1,0l-0.1,0l-0.2-0.2l-0.2-0.2L53.2,22L53,21.9l-0.1-0.2l-0.1,0l-0.2-0.1l-0.1-0.1l-0.2-0.1c0-0.1,0-0.1,0-0.1l0.1-0.1
		l0-0.1c-0.1,0-0.2,0-0.4,0.1l-0.2,0.1c-0.3,0.1-0.6,0.3-0.9,0.6c-0.3,0.3-0.5,0.6-0.5,0.9c0,0,0,0.1,0,0.2c0,0.1,0,0.1,0,0.2
		l0.2,0.4c0.2,0.3,0.4,0.6,0.7,0.9c0.2,0.2,0.5,0.4,1,0.6c0.3,0.2,0.7,0.3,1,0.4c0.3,0.1,0.6,0.2,1,0.2c0.2,0,0.4,0,0.6-0.1
		c0.2-0.1,0.3-0.1,0.5-0.2C55.4,25.1,55.5,25,55.5,24.8z M53.2,27C53.2,27,53.2,27,53.2,27L53,27l-0.1-0.1l0,0l0.2,0.1
		C53.2,27,53.2,27,53.2,27z M53.6,27L53.6,27C53.6,27,53.6,27,53.6,27C53.6,27,53.5,27,53.6,27C53.6,26.9,53.6,26.9,53.6,27z
		 M54.2,21.5L54.2,21.5l-0.1,0.1l-0.1,0l0.1,0.1l0-0.1L54.2,21.5z M54.3,21.7c0,0-0.1,0-0.1,0.1C54.2,21.7,54.3,21.7,54.3,21.7
		C54.3,21.7,54.3,21.7,54.3,21.7z M54.6,21.4L54.6,21.4L54.6,21.4C54.6,21.4,54.6,21.4,54.6,21.4z M55.6,26.6
		C55.6,26.6,55.6,26.6,55.6,26.6L55.6,26.6L55.6,26.6L55.6,26.6L55.6,26.6z"/>
	<path d="M56.6,20.4l0,0.1C56.5,20.5,56.5,20.5,56.6,20.4L56.6,20.4z M56.5,21C56.5,21,56.5,21,56.5,21C56.6,21,56.6,21,56.5,21z
		 M56.7,20.4l0,0.2l0,0C56.6,20.6,56.6,20.5,56.7,20.4C56.7,20.4,56.7,20.4,56.7,20.4C56.7,20.3,56.7,20.3,56.7,20.4L56.7,20.4z
		 M69.4,25.8L69.4,25.8l-0.1,0.1l-0.1,0.2l-0.1,0l0,0l-0.1,0l-0.1-0.1c0,0.1-0.1,0.1-0.1,0.2l0,0c0,0,0,0,0,0l-0.1,0.1l0,0.1h0l0,0
		l0,0l0,0.2l0,0.1c0,0.1,0,0.1,0.1,0.2c0,0,0,0.1,0,0.1s0,0-0.1,0l0,0l0-0.1c0,0,0,0-0.1,0c0,0,0,0-0.1,0.1l-0.1,0.1l-0.2-0.1
		l-0.2,0l-0.4-0.2l-0.1-0.1l-0.1-0.1L67,26.3c0,0-0.1-0.1-0.2-0.1c-0.1,0-0.2,0-0.2,0l-0.1-0.1c0-0.1-0.1-0.1-0.2-0.1l0,0.1l0,0.2
		l-0.1,0c-0.1,0-0.1-0.1-0.1-0.1l0-0.1l-0.2,0L65.7,26l-0.4-0.1l-0.4-0.1l-0.4-0.1l-0.1,0c0,0-0.1,0-0.1,0l-0.1-0.1l0,0
		c0,0.1,0,0.1,0,0.1c0,0-0.1,0-0.1,0l-0.1,0c0,0-0.1,0.1-0.1,0.1l-0.3,0l-0.2-0.1l-0.1-0.1l-0.1,0l0,0.1l-0.1,0l-0.1,0.1L63,25.6
		l-0.1,0l-0.1,0l0,0l-0.2,0l-0.1-0.1h-0.1l-0.1,0L62,25.4l-0.2,0l-0.3-0.1l-0.2,0l-0.4,0l-0.2-0.1l-0.3-0.1c-0.1,0-0.1,0-0.2,0.1
		v0.2l-0.1,0.1l0.1,0.1l0,0.2c0,0.1,0.1,0.2,0.1,0.3c0,0,0,0.1-0.1,0.1c-0.1,0-0.1,0-0.1,0.1l0.1,0.1l0,0.1l0.1,0.2l0,0.2l0.1,0.1
		l0,0.1l0,0l0,0.1l0,0.2l0,0.1l0.1,0l0,0.1l0,0.1l0,0.3l-0.1,0.1l0,0.1l0,0.1l0-0.1c0,0,0,0-0.1-0.1c0,0-0.1,0-0.1,0l-0.1,0.1h-0.1
		c0,0-0.1,0.1-0.1,0.1l-0.1,0l-0.1,0l0,0c-0.1,0-0.1,0.1-0.1,0.2l0,0.1l-0.1,0.1l0,0.2l-0.1,0L59.5,29c0,0-0.1,0.1-0.1,0.1l-0.1-0.1
		l0,0.1l0,0.1l0,0l-0.1-0.1h-0.1L59.1,29l0-0.2l-0.1-0.3c0-0.1-0.1-0.2,0-0.3l0.1-0.1l0-0.2v-0.2l0-0.2c0-0.1,0.1-0.2,0.1-0.3
		c0,0,0-0.1,0-0.1l0,0l0-0.1c0-0.1,0-0.2,0-0.3l0.1-0.2l-0.1-0.6l0-0.1l0-0.2l0-0.2v-0.2l0-0.2l-0.1-0.1l-0.1-0.1l-0.1,0l-0.1-0.1
		l0-0.1l-0.1,0c-0.1,0-0.1-0.1-0.1-0.1l0.1-0.3l0.3-0.5c0,0,0-0.1-0.1-0.2c-0.1-0.1-0.1-0.1-0.1-0.2l0.2-0.2l0.1,0l0-0.1
		c0,0,0-0.1,0.1-0.1l0,0.1l0,0.2l0,0.1c0,0,0.1,0,0.1,0l0.1,0c0.1-0.1,0.2-0.2,0.2-0.4c0-0.1,0-0.1,0-0.1l0-0.1c0,0-0.1,0-0.1,0
		l0,0.1c0,0,0-0.1,0-0.1l0.1-0.1l0,0l0.1-0.1l0.1-0.2c0.1,0,0.1,0,0.1,0c0,0,0,0.1,0,0.2c0,0,0.1,0,0.1,0.1l0,0.1c0,0,0.1,0,0.1,0
		l0-0.1l0,0.1c0,0,0,0,0.1,0l0-0.2c0,0.1,0.1,0.2,0.1,0.2l0,0v0.1c0,0,0,0,0.1,0c0,0,0,0,0.1,0l0.1,0.2c0.1,0,0.1,0,0.2,0l0.2-0.1h0
		l0,0l0.2,0l0.1,0.1c0,0,0,0,0.1,0c0,0,0,0,0.1-0.1c0-0.1,0.1-0.1,0.1-0.1l0.2,0l0.2,0l0.2-0.1c0.1,0,0.2-0.1,0.3,0l0.1,0.1
		c0-0.1,0-0.1,0.1-0.2c0,0,0.1-0.1,0.2-0.1l0.2-0.1l0.4-0.1l0.2-0.1h0.2c0,0,0.1,0,0.1,0l0.1-0.1c0,0,0.1-0.1,0.1-0.1
		c0-0.1,0-0.1-0.1-0.1l-0.2,0l-0.1-0.1l-0.3,0.1l-0.1,0l-0.1-0.1l-0.2,0l-0.1,0c0-0.1,0-0.1,0-0.1c-0.1,0.1-0.1,0.1-0.2,0.1l0-0.1
		L62,21c0,0-0.1,0-0.1,0l-0.2,0l0,0l-0.2,0l-0.1,0l0,0l-0.2,0l-0.2,0l-0.2-0.1l-0.2,0l-0.1,0l-0.1,0l-0.2,0l-0.2,0l-0.1,0l-0.1,0
		l-0.1,0c0,0,0,0-0.1,0l-0.1,0.1l-0.2,0l-0.2,0l-0.2,0.1l-0.5,0l-0.2,0.1L57.9,21l-0.2,0l-0.2,0l-0.1,0.1l-0.1,0l-0.1,0
		c0-0.1,0-0.1,0-0.1c0,0,0,0,0,0c0,0,0,0.1-0.1,0.1c0,0,0,0-0.1,0l-0.1,0l0-0.1h-0.1l0-0.1l0,0l-0.1,0l0,0l0.2-0.1l0-0.1l-0.1-0.1
		c0,0,0,0,0-0.1l0-0.1l0.1-0.1l0-0.2c0,0,0-0.1,0.1-0.1l0.1,0l0.1-0.2c0,0,0.1-0.1,0.1-0.1c0.1,0,0.1,0,0.2-0.1l0-0.1
		c0,0,0-0.1,0-0.1l0.1,0l0,0c0,0,0.1,0,0.1-0.1l0.1-0.1c0,0,0.1-0.1,0.2-0.1l0.1,0c0.1,0,0.1,0,0.1-0.1l0.1-0.1l0.2-0.1l0.3-0.1
		l0.1,0l0.1,0l0.1-0.1c0,0,0,0,0,0c0,0,0,0,0,0l0.2,0l0,0.1c0.1,0,0.1,0,0.1,0l0.1-0.1h0.7c0.1,0,0.1,0,0.2,0l0.2,0l0.2,0.1l0.4,0
		l0.5,0.1l0.1,0l0,0.1l0.1,0.1l0.2,0.1h0l0.1,0l0.2,0c0,0,0,0,0.1-0.1c0,0,0.1,0,0.1,0.1l0.1,0.1l0.1,0c0,0,0.1-0.1,0.1-0.1l0.1,0.1
		l0.1,0c0.1,0,0.1,0.1,0.2,0.1l0.1-0.1c0,0,0,0,0.1-0.1l0,0.1l0,0.1l0.1,0c0,0,0,0,0.1,0s0.1,0,0.1,0.1l0.2,0.2l0.1,0l0.1,0.1
		c0.1,0,0.1,0,0.1,0.1l0,0.1c0,0,0.1,0,0.2,0l0.2-0.1l0,0.1l0.1,0.1h0.1l0,0.1l0.1,0.1l0,0.1c0,0.1,0,0.1,0.1,0.1l0.1,0.1l-0.1,0.2
		l-0.2,0.3l-0.1,0.2l-0.2,0.1c0,0,0,0.1,0,0.2l0,0.1l-0.1,0l0,0.2c0,0.1,0,0.1-0.1,0.2l-0.2,0.1l0,0.2c0,0,0,0.1,0,0.1l-0.1,0l0,0
		c0,0.1,0,0.1-0.1,0.2l-0.1,0.1c0,0-0.1,0-0.3,0l-0.2,0.1l-0.1,0.1l0,0l0,0l-0.1,0l-0.1,0l0,0.2c0,0.1,0,0.1-0.1,0.2l-0.1,0l-0.3,0
		c0,0,0,0,0,0c0,0,0,0-0.1,0.1c0,0,0,0.1,0,0.1c0,0,0.1,0.1,0.2,0.1l0.2,0l0.6,0.1l0.4,0.1h0.2l0.4,0.2l0.2,0l0.3,0
		c0.1,0,0.1,0,0.2,0.1s0.1,0.1,0.2,0.1l0.3,0.1l0.3,0c0.2,0,0.4,0.1,0.5,0.1c0.2,0,0.4,0.1,0.6,0.2l0.7,0.3l0.7,0.3
		c0.1,0,0.2,0.1,0.3,0.1c0.1,0,0.2,0.1,0.3,0.2l0.2,0.1l0.1,0.1l0,0.1C69.3,25.8,69.3,25.8,69.4,25.8C69.3,25.7,69.4,25.7,69.4,25.8
		z M58.8,23.1C58.8,23.1,58.8,23.1,58.8,23.1c0,0.1,0,0.1,0,0.1C58.7,23.2,58.7,23.1,58.8,23.1C58.7,23,58.8,23,58.8,23.1z M60,25.3
		L60,25.3l-0.1,0.1c0,0,0,0.1,0,0.1l0.1,0.1l0,0l0-0.1C60,25.3,60,25.3,60,25.3z M60,26.6c0,0,0,0.1,0,0.1l0,0L60,26.6L60,26.6z
		 M60.1,25.4L60.1,25.4L60.1,25.4L60.1,25.4L60.1,25.4z M60.2,28.2L60.2,28.2L60.2,28.2L60.2,28.2z M62,23.3
		C62,23.3,62,23.4,62,23.3c0,0.1-0.1,0.1-0.1,0.1C61.9,23.4,61.9,23.3,62,23.3C61.9,23.3,62,23.3,62,23.3C62,23.3,62,23.3,62,23.3z
		 M62.2,23.4l-0.1-0.1l0,0l0,0.1L62.2,23.4L62.2,23.4L62.2,23.4z M63.2,22.9C63.2,22.9,63.2,23,63.2,22.9c0,0.1,0,0.1-0.1,0.1
		C63.1,23,63.1,23,63.2,22.9C63.1,22.9,63.2,22.9,63.2,22.9z M66.2,25.8C66.1,25.8,66.1,25.8,66.2,25.8L66,25.9c0,0,0,0.1,0,0.1
		l0.1,0C66.2,25.9,66.2,25.9,66.2,25.8L66.2,25.8z M68.6,26.3C68.5,26.4,68.5,26.4,68.6,26.3L68.6,26.3
		C68.5,26.3,68.5,26.3,68.6,26.3z"/>
	<path d="M73.2,26.2c0,0.1-0.1,0.1-0.1,0.1l-0.1,0l-0.2-0.1l-0.1,0.1l-0.1,0c0,0-0.1,0.1-0.1,0.1l0,0.1l0,0.2l-0.1,0.1l-0.1,0.1
		l0,0.2c0,0.1,0,0.1,0,0.1l-0.2-0.1c0,0,0,0.1,0,0.1l0,0.1v0.1l0.1,0c0.1,0,0.1,0.1,0,0.1h-0.1l-0.1,0.1L72,27.5l-0.1,0
		c-0.1-0.1-0.1-0.2-0.2-0.3c0-0.2,0-0.2-0.1-0.3l-0.1-0.5c0-0.2-0.1-0.3-0.1-0.4L71,24.4l-0.3-0.7c-0.1-0.2-0.1-0.3-0.1-0.4
		c0-0.1-0.1-0.2-0.1-0.4l-0.1-0.1l-0.1-0.4c0-0.2-0.1-0.3-0.2-0.4L70,21.8c0-0.1-0.1-0.2-0.1-0.2l0-0.1v-0.2l0-0.1l0-0.2l0.1,0
		c0,0,0.1,0,0.1,0l0.1,0l0.1,0c0,0,0-0.1,0-0.1c0,0,0,0,0,0l0,0.1l0.1,0l0-0.1v-0.1c0,0,0,0,0-0.1c0,0,0,0,0,0c0,0,0.1,0.1,0.1,0.1
		c0,0.1,0,0.1,0.1,0.1c0,0,0.1,0,0.1,0l0-0.1l0.1-0.1l0-0.1l0,0.1c0-0.1,0.1-0.1,0.1-0.1l0.1,0.1c0,0,0.1,0,0.1,0l0,0
		c0,0,0-0.1,0-0.1l0,0l0,0.1c0,0,0.1,0,0.1,0c0,0.1,0,0.1,0,0.1l0.1,0.1c0.1,0.1,0.1,0.1,0.1,0.2c0,0.1,0,0.2,0,0.4l0,0.1l0,0l0.1,0
		c0,0,0.1,0,0.1,0.1c0,0-0.1,0-0.1,0l0.1,0.1c0,0,0,0,0.1,0s0,0,0,0c0,0,0,0.1,0,0.1c0,0.1,0,0.1,0,0.1c0,0,0,0.1,0.1,0.1l0,0v0.1
		l0.3,0.3l0.1,0.3l0.1,0.2l-0.1,0.1l0-0.1l0,0c0,0-0.1,0-0.1,0.1c0,0.1,0,0.1,0,0.2c0,0,0.1,0,0.1,0l0-0.1l0,0.1c0,0,0,0,0.1,0.1
		l0.1,0l0.1-0.1c0,0,0.1,0.1,0.1,0.1c0,0,0,0.1,0,0.1l-0.1,0.1l0,0.1c0,0,0,0.1,0,0.1l0.1,0c0,0,0,0.1,0,0.1l0,0l0.1,0.1l0.1,0.1
		l0,0.1l0,0.1l0.1,0l0.1,0.1l0,0.2l0,0.2l0,0c0,0,0.1,0.1,0.1,0.1l0.1,0.3l0.1,0l0.1,0.1l0,0.1c0,0,0,0,0,0.1l0.1,0l0,0.1
		c0,0.1,0,0.1,0,0.1l0.1,0.1c0,0,0,0.1,0,0.1L73.2,26.2L73.2,26.2z M70,21.1C70.1,21.2,70.1,21.2,70,21.1C70,21.2,70,21.2,70,21.1
		C69.9,21.2,69.9,21.2,70,21.1C70,21.1,70,21.1,70,21.1z M70.8,21.3v-0.1l0-0.2h-0.1l0-0.1l0,0l0,0.1l-0.1,0.1c0,0,0,0.1,0.1,0.1
		l0.1,0l0,0.1l0.1,0l0,0.1L70.8,21.3L70.8,21.3z M71.2,21.5L71.2,21.5c-0.1,0.1-0.1,0.1-0.1,0.1c0,0,0,0.1,0.1,0.1c0,0,0.1,0,0.1,0
		c0,0,0-0.1,0-0.1S71.2,21.5,71.2,21.5z M72.4,24C72.4,24,72.4,24,72.4,24c0-0.1,0-0.1,0-0.1c0,0,0,0,0,0L72.4,24
		C72.4,23.9,72.4,24,72.4,24C72.4,24,72.4,24,72.4,24z M72.4,24.1l0,0.1l0,0L72.4,24.1L72.4,24.1z M72.9,25.1L72.9,25.1L72.9,25.1
		L72.9,25.1z"/>
	<path d="M84.6,21.3L84.6,21.3L84.6,21.3l-0.1,0.1c-0.1,0-0.1-0.1-0.2-0.1l-0.2,0.2l-0.1,0c0,0-0.1,0-0.2,0l-0.1,0.1l0.1,0.2
		c0,0,0.1,0,0.1,0.1c0,0,0,0,0,0.1l-0.1,0l0,0.1l0,0.1c0,0-0.1,0-0.1,0c0,0-0.1,0-0.1,0l0,0.1c0,0-0.1,0-0.1,0c0,0,0,0.1,0,0.1
		c0,0-0.1,0-0.1-0.1c0,0,0-0.1,0-0.1c0,0,0,0,0,0l-0.1,0.1L83,22.5c0,0-0.1-0.1-0.1-0.1l-0.2,0l-0.1,0l-0.1-0.1l0,0.1l-0.1,0
		l-0.1-0.1l-0.1,0.2c0,0-0.1,0-0.1-0.1c0,0,0-0.1-0.1-0.1l-0.2,0l-0.2,0l-0.2,0l-0.1,0l-0.2-0.1L81,22.2l-0.2,0.1l-0.1,0l-0.1,0
		l-0.2,0l-0.2-0.1l-0.1,0l0,0l-0.1,0l-0.3,0l-0.1,0l-0.2,0L79.1,22c0,0-0.1,0-0.2,0l-0.1,0l-0.1,0l0.1,0.1c-0.1,0-0.1,0.1-0.1,0.1
		l0.1,0.1c0,0-0.1,0-0.1,0l-0.1,0l0,0.1l0,0l0,0.1l0,0.1c0,0.1,0,0.2-0.1,0.3l-0.1,0.1c0,0,0,0.1,0,0.1l0.1,0l0,0.1l0.1,0.2
		l-0.1,0.1c0,0.1,0,0.1,0,0.2l0,0.2v0.2c0,0,0,0.1,0,0.1c0,0.1,0,0.1,0,0.2l0,0h0.1l0,0.3l0.1,0.1l0,0.1l0,0.1l0,0.1l0.1,0.1l0,0.3
		l0,0.1c0.1,0,0.1,0,0.1,0.1v0.3l0,0c0,0,0,0.1,0,0.2l0,0.2c0,0.1,0,0.1,0,0.2l0.2,0.3c0.1,0.1,0.1,0.2,0.1,0.3l0,0.1l-0.1,0.1
		l0,0.2l-0.1,0.2l-0.1,0L79,27.9l-0.1,0l-0.1-0.1l-0.3,0.1l-0.1,0c0,0-0.1,0-0.1,0c0,0,0,0.1,0,0.1s0,0.1,0,0.1c0,0,0,0,0,0
		c0,0-0.1,0-0.1,0c0,0,0,0.1,0,0.1l0.2,0.1l0,0l0,0l0,0.2l0,0.1c0,0.1,0,0.1-0.1,0.1l-0.2,0l-0.1,0.1c0,0-0.1-0.1-0.1-0.1l-0.1,0
		c-0.1,0-0.1,0-0.1,0l0-0.1l-0.1-0.1l-0.1,0l0-0.2l-0.1-0.2l0-0.2l0-0.2l0-0.2l0-0.2l0-0.1l0-0.2l-0.1-0.4l0-0.3l0-0.1l0-0.2
		L77.4,26c0-0.2-0.1-0.4-0.1-0.6l0-0.2l0-0.2l0-0.2c0-0.1,0-0.1-0.1-0.2s-0.1-0.2-0.1-0.3l0-0.5l-0.1-0.3l0-0.1l0-0.1l0-0.1
		c0,0,0,0,0-0.1c0,0,0,0-0.1,0l0,0l0-0.2L77,22.8l0-0.1l-0.1-0.1l0-0.1l-0.1-0.4l0-0.1l0,0l0.1,0L77,22c0.1,0,0.1-0.1,0.1-0.2
		c0,0,0,0,0,0c0,0,0,0,0,0l-0.2,0l-0.2,0l-0.1,0h-0.1c0,0-0.1,0-0.3,0h-0.5l-1.4-0.2l-0.2,0c-0.1,0-0.1,0-0.2,0l-0.2-0.1
		c0,0-0.1-0.1-0.1-0.1l0-0.3l-0.1,0l0-0.1l0-0.1c0,0,0,0,0,0l0.1,0l0.1-0.2c0,0,0-0.1,0-0.1v0l0.1,0c0-0.1,0-0.1,0-0.2v0l-0.1-0.3
		c0-0.1,0-0.1,0-0.1c0,0,0.1,0,0.1,0l0.3,0.1c0.1,0,0.2,0,0.3,0l0.1,0l0.1,0l0.1,0l0.2,0l0.1,0l0.1-0.1l0.1,0.1l0.1,0h0.1
		c0.1,0,0.2,0,0.2,0l0.1,0l0.3,0l0.1,0l0.7,0.1l0.1,0l0.2,0.1l0.1,0l0.3,0.1l0.1,0l0.2,0.1h0.4c0,0,0,0.1,0.1,0.1h0.1l0.3,0
		c0.1,0,0.2,0,0.2,0l0.3,0l0.1,0.1l0.3,0l0.2,0l0.2,0.1l0.4,0l0,0c0,0,0.1,0,0.1,0l0.1,0.1h0.1l0,0.1l0,0l0.1,0l0.1,0h0.1l0.2,0
		l0.2,0l0.2,0l0.2,0.1c0.1,0,0.2,0,0.2,0l0.1,0l0.1,0.1l0.1,0l0.2,0l0.2,0l0.2,0.1c0.1,0,0.1,0,0.2,0l0.3,0c0.2,0,0.3,0,0.3,0
		l0.1,0.1l0,0.1L84.6,21.3C84.6,21.3,84.6,21.3,84.6,21.3z M77.1,22.4L77,22.3l-0.1,0l0,0L77.1,22.4C77.1,22.5,77.1,22.5,77.1,22.4
		L77.1,22.4z M77.3,23.1c0,0-0.1,0-0.1,0c0,0,0,0.1,0,0.1c0,0,0,0.1,0,0.1c0,0,0,0,0.1,0L77.3,23.1L77.3,23.1z M79.5,27.3L79.5,27.3
		l0,0.2L79.5,27.3z M81.5,22.2C81.5,22.2,81.5,22.2,81.5,22.2C81.5,22.2,81.5,22.2,81.5,22.2C81.5,22.3,81.5,22.2,81.5,22.2z
		 M82.6,21.3C82.6,21.4,82.6,21.4,82.6,21.3C82.6,21.4,82.6,21.4,82.6,21.3L82.6,21.3L82.6,21.3L82.6,21.3z M83.2,21.5
		c0,0,0,0.1,0,0.1c0,0,0,0.1-0.1,0C83.1,21.7,83.1,21.6,83.2,21.5C83.2,21.5,83.2,21.5,83.2,21.5z M83.2,21.4
		C83.2,21.4,83.2,21.4,83.2,21.4C83.2,21.4,83.2,21.4,83.2,21.4C83.1,21.4,83.1,21.4,83.2,21.4L83.2,21.4z M83.8,21.4
		C83.8,21.4,83.8,21.5,83.8,21.4c0,0.1,0,0.1,0,0.1C83.7,21.5,83.7,21.5,83.8,21.4C83.8,21.4,83.8,21.4,83.8,21.4z M83.9,21.8
		L83.9,21.8l-0.1-0.2C83.9,21.6,83.9,21.7,83.9,21.8z"/>
	<path d="M94.8,26.8C94.8,26.8,94.8,26.9,94.8,26.8L94.6,27l0,0.1l-0.1,0l0,0.1c-0.1,0-0.2,0-0.2,0.1l-0.1,0.1l-0.1,0l-0.1,0
		L94,27.4l-0.1,0.1c-0.1,0-0.2,0-0.2,0v0.1h0l0,0l-0.1,0l-0.3,0.3l-0.1,0L93,28c0,0-0.1,0-0.1-0.1c0-0.1-0.1-0.1-0.1-0.1
		c0,0,0,0.1,0,0.1c0,0,0,0.1,0,0.1l0,0c0-0.1-0.1-0.1-0.1-0.1c0,0.1,0,0.1,0,0.1c0,0.1,0.1,0.1,0,0.1h0h-0.1c0,0,0,0,0-0.1
		c0,0,0,0,0,0c0,0-0.1,0-0.1,0.1l-0.1,0.1l-0.1,0l-0.2,0l-0.2,0l-0.1,0l0-0.1l-0.2,0l-0.1-0.1c0,0,0,0-0.1,0l0,0.1
		c0,0-0.1,0.1-0.1,0.1l-0.1,0l-0.2,0l-0.1,0l-0.1,0l-0.2,0l-0.2,0l0,0.1l-0.1,0h-0.2l0-0.1l0,0.1c0,0-0.1,0-0.1,0
		c0,0-0.1-0.1-0.1-0.1V28l0,0.1l-0.1,0l-0.1,0.1l-0.2,0c-0.1,0-0.1,0-0.1-0.1l0-0.1l-0.1-0.1l0-0.1l0,0c0,0,0,0,0,0.1
		c-0.1,0.1-0.1,0.2-0.1,0.2c0,0.1-0.1,0.1-0.2,0.1l-0.1-0.1l0-0.1c-0.1,0-0.2,0-0.2-0.1c0,0,0-0.1-0.1-0.1l-0.1,0.1c0,0,0,0-0.1,0
		c0,0,0-0.1,0-0.1l0-0.1c0,0,0-0.1-0.1-0.1l-0.1,0c0,0-0.1-0.1-0.1-0.1l-0.1,0l-0.1,0v0.1H88l-0.1,0l-0.2,0l0-0.2
		c0,0-0.1-0.1-0.1-0.1c-0.1,0-0.1,0.1-0.2,0.1s-0.1,0-0.1,0c0,0,0-0.1,0-0.1c-0.1,0-0.1,0-0.2-0.1l-0.1-0.1L87,27.3
		c0-0.1,0-0.1-0.1-0.1l-0.2,0l0.1,0l0,0L86.7,27l0-0.1l-0.1,0l0-0.1l0-0.1l0,0.1c0,0,0,0-0.1,0l0-0.1l-0.1,0l-0.1-0.1l0-0.1
		c-0.1,0-0.1,0-0.1,0c0,0,0-0.1,0-0.1c0,0,0,0,0,0c0,0,0,0,0,0l-0.2-0.1l-0.1-0.2l-0.1,0l0-0.2c0-0.1,0-0.1,0-0.1l-0.1,0v-0.2
		c0-0.1,0-0.1,0-0.1l-0.1,0l0,0c0,0-0.1-0.1-0.1-0.1l-0.1-0.1l-0.1-0.1v-0.1l0.1,0l0-0.2h0.1v-0.1l0-0.2l0.1-0.1l0-0.2
		c0,0,0-0.1-0.1-0.2l-0.1-0.2l0-0.1l0.1,0l0.2-0.1l0-0.1l0-0.1l0.1-0.2l0-0.1l0.1,0l-0.1-0.1l0.1-0.1l0.1-0.1c0-0.1,0.1-0.1,0.1-0.1
		l0-0.1c0,0,0-0.1,0-0.1l0.1,0.1c0.1,0,0.1,0,0.1,0l0-0.1l0-0.1h-0.1l0,0c0,0,0.1-0.1,0.1-0.1c0,0,0.1,0,0.1,0c0,0,0,0,0,0v-0.1l0,0
		l0-0.1l0-0.1l0-0.1l0,0l0,0.1l-0.1,0.1c0,0,0.1,0,0.1,0l0.1,0l0,0.1c0,0,0.1,0,0.1,0c0-0.1,0-0.1,0-0.2l0.1,0L87,22l-0.1-0.2
		l0.3-0.2l0-0.1c0-0.1,0-0.1,0-0.1c0.1,0,0.1,0,0.1,0v0l0,0c0-0.1,0.1-0.2,0.1-0.2c0,0,0.1,0,0.1,0c0,0,0.1,0,0.1,0l0.1-0.2
		c0.1,0,0.2,0,0.2-0.1l0-0.1c0.1,0,0.2-0.1,0.2-0.1c0,0,0,0,0.1,0l0.1-0.1l0.1,0c0.1,0,0.1,0,0.1,0c0,0,0-0.1,0-0.1l0.1,0l0.1-0.1
		l0.2,0c0,0,0.1,0,0.1,0l0,0h0.1l0.1-0.1l0.1,0.1l0.1,0l0.1,0.1l0,0.1l0,0.1l0,0l0,0.1l0,0.1c0,0,0,0,0,0s0,0,0,0l0.1,0l0.1,0
		l-0.1-0.1l0.1-0.1l0-0.2l0-0.2c0-0.1,0-0.1,0.1-0.1l0,0l0,0.1l0.1,0c-0.1,0-0.1,0-0.1,0c0,0,0,0,0,0.1l0.1,0l0.1,0l0,0.1l0,0.1
		c0,0,0.1,0,0.1-0.1l0-0.1l-0.1-0.1c0,0,0,0,0,0c0,0,0,0,0,0c0,0,0.1,0,0.2,0s0.1,0.1,0.2,0.1l0,0.1c0,0,0,0,0,0h0.1
		c0,0,0.1,0,0.1,0l0,0l0,0l0,0c0,0,0.1,0.1,0.1,0.1c0,0,0,0,0,0s0,0,0,0h0.3l0,0.1h0.1l-0.1,0.1c0,0,0,0.1,0,0.1c0,0,0,0,0,0l0,0
		c0.1,0,0.1,0,0.1,0.1l0.1,0.1c0,0,0.1,0,0.1,0l0.1-0.1l0.1,0l0,0h0.1l0,0.1l0.1,0l0,0l0,0l0,0l0-0.1l-0.1,0l0-0.1c0,0,0.1,0,0.1,0
		c0-0.1,0-0.1,0-0.1l0.1,0l0-0.1l0-0.1c0,0,0.1,0,0.1,0.1c0,0,0,0,0,0c0,0,0,0,0,0l0.1-0.1l0.1-0.1l0.1,0c0,0.1,0,0.1,0,0.1
		c0,0,0.1,0,0.1,0l0.1,0l0.1,0.1l0.2,0.1l0.3,0.1c0,0,0,0,0,0c0,0,0,0,0,0l0.2,0.1c0,0,0,0.1,0,0.1c0,0.1,0,0.1,0,0.1l0.1,0l0,0
		l0.1,0.1v0.1l0.1,0.1l0.1,0.1v0.2l0.1,0.1c0,0,0,0.1,0,0.1c0,0-0.1,0-0.1,0l-0.1-0.1l-0.1,0l-0.1,0l-0.1,0l-0.1-0.1
		c0,0-0.1,0.1-0.1,0.1c0,0-0.1,0.1-0.1,0.1c-0.1,0-0.2,0-0.2,0.1c0,0-0.1,0.1-0.1,0.1l0,0.1l-0.1,0.2l0,0l0,0c0,0-0.1,0.1-0.2,0.1
		l-0.2,0l0,0l0,0c0,0,0,0,0,0L92,22.5v-0.1l-0.1-0.1l-0.1-0.1c0-0.1-0.1-0.2-0.1-0.2c0,0,0-0.1,0-0.2c0-0.1,0-0.1,0-0.1
		c0,0-0.1,0-0.1,0l0,0.1c0,0-0.1-0.1-0.1-0.1v-0.1c0,0,0,0-0.1,0s0,0,0,0h0c0-0.1,0-0.1,0-0.1l0,0l-0.1-0.1l-0.1,0c0,0,0,0,0,0
		l0-0.1l-0.1,0l-0.1-0.1l-0.1,0l0,0l-0.2,0c0,0-0.1,0-0.1-0.1l-0.1-0.1l-0.1,0c0,0,0,0-0.1,0l0-0.1l0-0.1c0,0,0-0.1-0.1-0.1
		c0,0,0,0,0,0c-0.1,0-0.1,0.1-0.1,0.1c-0.1,0.1-0.1,0.1-0.2,0.2l-0.1-0.1l-0.2,0l-0.2,0.1L89,21.4l-0.1,0h-0.1l-0.2,0.2l-0.1,0
		l-0.3,0.2L88.1,22l-0.2,0.1l-0.1,0l0,0.1l0,0.1l-0.2,0.1l0,0.1l-0.1,0.1l0,0l0.2,0l0.2,0c0,0,0.1,0,0.2,0l0.2,0l0.1,0l0.2,0l0.2,0
		l0.3,0h0.2l0.2,0l0.2,0h0l0,0l0.1,0.1l0.1,0l0.3,0c0.1,0,0.2,0,0.3,0c0.1,0,0.2,0,0.2,0l0.6,0.1l0.1,0l0.1,0l0.1,0l0.1-0.1l0.1,0
		l0,0l0.1,0l0.2,0l0,0l0.1,0l0.2,0.1c0.1,0,0.2,0.1,0.3,0l0.1-0.1l0,0l0.1,0l0.1,0l0.1,0l0.1,0l0.1,0c0.2,0,0.3,0,0.4,0.1l0.1,0
		l0,0.1v0.1l0,0c0,0,0,0.1,0,0.1l-0.1,0.1l0,0l0.1,0.1l0,0.2l0,0c0,0-0.1,0.1-0.1,0.1c0,0,0,0-0.1,0c0,0-0.1,0-0.1-0.1c0,0,0,0,0,0
		l-0.5,0l0,0l-0.1,0c0,0,0,0.1,0,0.1c0,0,0.1,0.1,0,0.1c0,0,0,0-0.1,0s0,0,0,0l-0.1,0.2h-0.1L93,24.4l0,0l0,0.1c0,0.1,0,0.1-0.1,0.1
		l-0.2,0l-0.1,0l-0.2,0l-0.2,0l-0.3,0l-0.1-0.1l-0.1,0l0,0l-0.1,0l-0.2,0l-0.1,0.1c0,0-0.1,0-0.1,0c-0.1,0-0.1,0-0.1,0l-0.2-0.1
		l-0.2,0l-0.2-0.1l-0.3,0L90,24.4l-0.1-0.1l-0.1,0l-0.3,0l-0.1,0.1l-0.1-0.1l-0.1,0l-0.2,0l-0.1,0l-0.2,0l-0.3,0l0,0l-0.1,0
		l-0.1-0.1c0,0-0.1,0.1-0.1,0.1c0,0,0,0,0,0s0,0,0,0L88,24.3l-0.3,0l-0.2,0l-0.1,0.1h-0.1c0,0-0.1,0-0.1,0c0,0-0.1,0.1-0.1,0.2
		l0.1,0.3c0.1,0.2,0.2,0.4,0.3,0.7l0.2,0.3c0.1,0.1,0.2,0.1,0.4,0.3l0.4,0.2l0.1,0c0.2,0.1,0.5,0.3,0.8,0.4c0.1,0,0.3,0.1,0.4,0.1
		c0.1,0,0.3,0.1,0.4,0.1l0.7,0.1l0.5,0l0.7,0l0.7,0l0.3,0l0.3,0l0.2,0c0,0,0.1,0,0.2,0l0.2-0.1l0.1,0l0.3-0.1l0.2-0.1l0.1,0l0.1,0
		C94.8,26.8,94.8,26.8,94.8,26.8C94.8,26.8,94.8,26.8,94.8,26.8z M85.3,24.6C85.3,24.7,85.3,24.7,85.3,24.6L85.3,24.6
		C85.3,24.7,85.3,24.7,85.3,24.6C85.3,24.7,85.3,24.7,85.3,24.6z M85.7,23.5C85.7,23.5,85.7,23.6,85.7,23.5L85.7,23.5L85.7,23.5
		L85.7,23.5z M86,25.3L86,25.3L86,25.3C85.9,25.3,85.9,25.3,86,25.3L86,25.3z M86.2,22.4L86.2,22.4L86.2,22.4L86.2,22.4z M86.8,26.6
		L86.8,26.6c-0.1,0.1-0.1,0.1,0,0.2l0,0C86.9,26.7,86.9,26.6,86.8,26.6z M86.8,21.9L86.8,21.9L86.8,21.9L86.8,21.9L86.8,21.9z
		 M87,26.6C87,26.6,86.9,26.6,87,26.6c-0.1,0.1-0.1,0.1-0.1,0.1l0.1,0C87,26.6,87,26.6,87,26.6C87,26.6,87,26.6,87,26.6z M87,26.9
		L87,26.9L87,26.9L87,26.9z M88.2,27.7c0,0,0,0.1,0,0.1l-0.1,0C88.1,27.8,88.1,27.8,88.2,27.7C88.2,27.7,88.2,27.7,88.2,27.7z
		 M88.6,20.8L88.6,20.8L88.6,20.8l-0.1,0c0,0-0.1,0.1-0.1,0.1V21c0,0.1,0.1,0.1,0.1,0C88.6,20.9,88.6,20.9,88.6,20.8z M88.6,27.7
		C88.6,27.7,88.6,27.8,88.6,27.7C88.6,27.8,88.5,27.8,88.6,27.7C88.5,27.8,88.5,27.8,88.6,27.7C88.5,27.7,88.6,27.7,88.6,27.7z
		 M88.7,20.9L88.7,20.9L88.7,20.9L88.7,20.9z M88.9,20.7C88.9,20.8,88.9,20.8,88.9,20.7L88.9,20.7L88.9,20.7
		C88.9,20.7,88.9,20.7,88.9,20.7z M88.9,28L88.9,28l0,0.1L88.9,28L88.9,28z M89,21C89,20.9,88.9,20.9,89,21C89,20.9,89,20.9,89,21z
		 M89.2,28.1L89.2,28.1L89.2,28.1L89.2,28.1L89.2,28.1z M89.3,20.7L89.3,20.7L89.3,20.7l-0.1,0.1C89.2,20.8,89.3,20.8,89.3,20.7
		C89.3,20.8,89.3,20.7,89.3,20.7z M89.4,20.2L89.4,20.2L89.4,20.2L89.4,20.2z M89.8,27.7L89.8,27.7L89.8,27.7L89.8,27.7z M90.2,28.2
		L90.2,28.2L90.2,28.2L90.2,28.2L90.2,28.2z M90.3,21l0,0.1l0,0.1v-0.1L90.3,21z M90.6,20.9L90.6,20.9L90.6,20.9L90.6,20.9l-0.2,0.2
		v0.1c0,0,0.1,0,0.1,0l0-0.1l0.1-0.1C90.6,21,90.6,21,90.6,20.9C90.6,21,90.6,20.9,90.6,20.9z M90.6,20.7L90.6,20.7
		c0.1,0.1,0,0.1,0,0.1C90.6,20.8,90.5,20.8,90.6,20.7C90.6,20.7,90.6,20.7,90.6,20.7z M90.9,20.3L90.9,20.3L90.9,20.3l-0.2,0.1
		l0-0.1C90.7,20.4,90.8,20.4,90.9,20.3C90.8,20.3,90.8,20.3,90.9,20.3z M91.1,20.4L91.1,20.4c-0.1,0.1-0.1,0.1-0.2,0.1l0.1-0.1
		C91,20.4,91.1,20.4,91.1,20.4z M91.2,20.3L91.2,20.3l-0.1,0.2L91.2,20.3L91.2,20.3z M91.4,28l-0.1,0c-0.1,0-0.1,0-0.1,0.1
		c0,0,0.1,0.1,0.1,0.1L91.4,28L91.4,28z M91.3,20.3C91.3,20.3,91.3,20.3,91.3,20.3C91.3,20.4,91.3,20.3,91.3,20.3
		C91.3,20.3,91.3,20.3,91.3,20.3C91.3,20.3,91.3,20.3,91.3,20.3z M91.5,20.6L91.5,20.6L91.5,20.6L91.5,20.6z M91.8,20.1L91.8,20.1
		L91.8,20.1L91.8,20.1z M91.9,20.8l0,0.1L91.9,20.8L91.9,20.8z M92.1,20.6L92.1,20.6L92.1,20.6L92.1,20.6z M92.5,24.3L92.5,24.3
		l-0.1,0c0,0,0,0-0.1,0l0,0L92.5,24.3C92.5,24.3,92.5,24.3,92.5,24.3z M92.4,20.8l-0.1,0.1l0.1,0.1l0-0.1L92.4,20.8z M92.9,21.1
		C93,21.1,93,21.1,92.9,21.1l-0.1,0.1L92.9,21.1L92.9,21.1z M93.5,20.1L93.5,20.1L93.5,20.1l-0.1,0.3c0,0.1-0.1,0.1-0.1,0.1
		l-0.2-0.1l0-0.1l0,0L93,20.2L93,20c0.1,0,0.1,0,0.1,0l0.1-0.1c0,0,0.1,0.1,0.1,0.1c0,0,0,0.1,0.1,0.1L93.5,20.1z M93.2,27.8
		C93.2,27.8,93.2,27.8,93.2,27.8C93.2,27.8,93.2,27.8,93.2,27.8C93.2,27.8,93.2,27.8,93.2,27.8z M94.9,26.8L94.9,26.8L94.9,26.8
		L94.9,26.8L94.9,26.8z"/>
	<path d="M102.7,25.5l-0.1,0.1v0.1c0,0,0,0.1,0,0.1l0,0c0,0,0,0.1,0,0.1c0,0,0,0.1,0,0.1l0,0c0,0,0,0-0.1,0l0,0.1v0.1l-0.2,0.2
		c0,0,0,0,0,0c0,0,0,0,0,0c0,0-0.1-0.1-0.1-0.1c0,0-0.1,0-0.1,0l0,0.1l-0.1,0l-0.1,0l-0.1,0.2l-0.1,0.1l0,0.1c0,0,0,0-0.1,0
		l-0.1,0.1h-0.1v0.1l-0.1,0l-0.1,0.1l-0.2,0.3c-0.1,0-0.1,0-0.1,0.1c0,0,0,0.1-0.1,0.2c0,0-0.1,0-0.1,0l0,0h-0.2
		c0,0-0.1,0.1-0.1,0.1l-0.1,0.1c0,0,0,0-0.1,0c0,0,0,0,0,0l-0.1,0.1l-0.2,0l-0.1,0.1c-0.1,0-0.1,0-0.2-0.1l-0.1-0.1
		c0,0-0.1,0-0.1,0.1c0,0,0,0.1,0,0.1s0,0,0,0l-0.2,0l-0.1,0.1l-0.1,0l-0.1-0.2l-0.1,0l-0.2,0.1l0,0.1l-0.1,0l-0.1-0.1l-0.2,0l-0.2,0
		c-0.1,0-0.2,0-0.2-0.1l0-0.1l0-0.1l0-0.1l0.1,0.1c0,0,0,0,0.1,0v-0.2l0-0.1l0-0.1l0.1-0.1l0-0.2l0.1,0l0,0c0.1,0,0.1,0,0.1,0
		c0-0.1,0-0.1-0.1-0.1l-0.1-0.1l-0.1,0l0,0l0.1,0l0,0l0-0.1l0.1,0l0.1-0.1c0,0,0,0,0-0.1l0-0.1h0.1c0,0,0-0.1,0-0.2l0-0.2l0-0.1
		l0.1-0.2c0,0,0.1,0,0.1,0l0.2-0.1c0.1,0,0.2-0.1,0.3-0.1c0.1,0,0.2,0,0.3,0.1c0,0.1,0,0.1,0,0.1l-0.1,0.1l0.1,0.1l-0.1,0.1
		c-0.1,0-0.1,0.1-0.1,0.1c0,0,0,0.1,0.1,0.1c0.1,0,0.1,0,0.2,0l0.1,0l0.2,0.1c0,0,0.1,0,0.1,0l0.3,0l0.3,0l0.3,0l0.2-0.1l0.1-0.1
		c0,0,0,0,0,0c0,0,0,0,0,0l0-0.1l-0.2-0.3l-0.1-0.2l-0.1-0.1l-0.1-0.1l-0.1-0.2l0-0.1l-0.1-0.1c0,0-0.1,0-0.1-0.1c0-0.1,0-0.1,0-0.1
		c0,0-0.1,0-0.1,0l-0.2,0l0-0.1l0,0c-0.1,0-0.1,0-0.1,0c0,0-0.1,0-0.1,0l-0.3-0.4l-0.2-0.1L99.4,24l-0.1,0l-0.2-0.1L99,23.8L99,23.6
		c0,0,0-0.1,0-0.1c0,0,0,0,0,0h-0.1l-0.2-0.1l-0.2-0.2l-0.2-0.1L98,22.8l-0.3-0.2l-0.2-0.2l-0.3-0.2l-0.1-0.1
		c-0.1,0-0.2-0.1-0.3-0.1c-0.1-0.1-0.2-0.1-0.2-0.2c0-0.1-0.1-0.1-0.1-0.2l-0.3-0.3L96,21.2L95.9,21l0-0.1l-0.1,0c0,0,0,0,0-0.1
		c0,0,0,0,0,0l0-0.1l0-0.1l-0.1,0c0,0,0,0,0-0.1l0.1,0l0.1,0l0.1,0l0,0l0.1-0.1l0.1,0l0,0.1l0.2,0l0.2,0l0.2,0l0.2,0l0.2,0l0.1-0.1
		c0,0,0.1,0,0.2,0l0.2,0c0,0,0,0,0,0.1c0,0,0,0,0,0l0.1,0l0.1,0v-0.2c0,0,0-0.1,0.1-0.1l0,0.1l-0.1,0.2h0c0,0,0.1,0,0.2,0l0.2,0
		c0,0,0.1,0,0-0.1l-0.1-0.1l0.1-0.1l0-0.1l0.1,0l0.1,0l0,0l-0.1,0c0,0,0,0.1,0,0.1c0,0,0,0,0.1-0.1l0,0.1l0.1-0.1h0.1l0,0l0-0.1
		v-0.2c0.1,0,0.1,0,0.1,0v0l0,0c0,0,0,0.1,0,0.1c0,0-0.1,0.1-0.1,0.1l0.2,0v0l0,0L99,20c0,0,0,0,0.1,0c0,0,0-0.1,0-0.1l0-0.1
		c0,0,0.1-0.1,0.1-0.1c0,0,0.1,0,0.1,0.1l0,0l0,0h-0.1c0,0.1,0,0.1,0,0.1l-0.1,0.1c0,0,0,0,0,0.1c0,0,0.1,0,0.1,0h0.1l0-0.1
		c0.1,0,0.1,0,0.1,0l0.1,0l0,0c0,0,0.1,0.1,0.1,0.1l0,0.1l0,0h-0.1l0,0.1c0,0,0,0,0.1,0l0.1,0l0,0.1h0.1l0,0.1c0,0,0.1,0,0.1-0.1
		c0,0,0,0,0.1,0l0.1,0.1l0.1,0l0,0.1l0.1,0l0.1,0l0,0l0-0.1l0.1,0c0,0,0,0,0.1,0l0.1-0.1c0,0,0-0.1,0-0.1l0,0c0,0,0,0,0,0v0l-0.1,0
		l0,0c0-0.1,0-0.1,0-0.2c0-0.1,0.1-0.1,0.1-0.1l0.1,0l0.1,0l0,0.2c0,0.1,0,0.1,0.1,0.1c0,0,0,0,0-0.1l0-0.1l0.1,0v-0.1l0.1,0.1
		c0.1,0,0.2,0,0.3,0l0.1,0.1h0.1l0.1,0.1l0.1,0l0,0c0,0,0,0,0.1,0c0.1,0,0.1,0,0.2,0.1l0.2,0.2l0.2,0.1c0.1,0.1,0.1,0.1,0.1,0.2v0.4
		c0,0-0.1,0.1-0.1,0.1l-0.1,0l0,0.1l-0.1-0.1l-0.1,0.1l0-0.1l-0.1-0.1l-0.1,0l-0.1-0.1c-0.1,0-0.1,0-0.2,0.1l-0.1,0.1l0,0.1l0,0.2
		l0,0l0,0.1l0,0l-0.1,0.1l0.1,0l0.1,0l0,0l0,0.1l-0.1,0.1l-0.1,0c0,0,0-0.1,0-0.1c0,0,0,0,0,0l-0.1,0c0,0,0,0,0,0s0,0,0,0l0,0.1v0.1
		l0,0.1l-0.2,0c0,0-0.1-0.1-0.1-0.1l0.1-0.1l0.1-0.2c0-0.1-0.1-0.1-0.1-0.1l-0.1-0.1v-0.1l-0.2-0.1c-0.1,0-0.1,0-0.1,0l-0.2-0.1
		l-0.2-0.1h-0.1l-0.2-0.1l0,0l-0.1,0.1l-0.1-0.1l-0.1-0.1l-0.2,0L99,21h-0.1l-0.1,0l-0.2-0.1c0,0-0.1,0-0.1,0c0,0-0.1,0-0.1,0
		c0,0,0,0.1,0,0.2c0.1,0.1,0.1,0.1,0.2,0.1l0.4,0.2l0.3,0.2l0.1,0.1l0.3,0.1l0.1,0.1l0.2,0.2l0.4,0.2c0.1,0.1,0.1,0.2,0.2,0.2
		l0.5,0.4l0.2,0.2l0.3,0.3l0.2,0.2l0.1,0.1l0.1,0.1c0,0,0.1,0.1,0.1,0.1s0.1,0.1,0.1,0.1c0.1,0.1,0.1,0.2,0.2,0.2
		c0,0-0.1,0.1-0.1,0.1c0,0,0,0.1,0,0.1l0.2-0.1c0,0,0,0.1,0,0.1l0,0.1h0.1l0,0.2v0.3c0,0,0,0.1,0,0.1l0.1,0.1v0.3L102.7,25.5z
		 M97.3,21.6L97.3,21.6L97.3,21.6L97.3,21.6z M98.2,22.3c0-0.1,0-0.1-0.1-0.1l0-0.1l0,0l0.1,0L98.1,22v-0.2l0-0.1l-0.1-0.1l0-0.1
		l0-0.1c0,0-0.1,0-0.1,0.1l0,0l-0.1,0l0-0.1c0,0-0.1,0-0.1-0.1l-0.1,0.1l0-0.1l0-0.1l0,0c0,0.1,0,0.2,0,0.2l0.2,0c0,0,0,0,0.1,0
		c0,0,0,0,0,0l0,0.2l0.2,0l0,0.1c0,0,0,0,0,0.1l0.1,0c0,0,0,0,0,0c0,0,0,0,0,0c0,0,0,0.1,0,0.1c0,0.1,0,0.1,0,0.1c0,0,0,0,0,0.1
		C98.1,22.3,98.1,22.4,98.2,22.3L98.2,22.3z M97.9,21.3C97.9,21.4,97.9,21.4,97.9,21.3C97.9,21.4,97.9,21.3,97.9,21.3z M98.6,22.4
		l-0.1-0.2l0.1,0l0,0V22c0,0,0-0.1-0.1-0.1l-0.1,0.1l-0.1,0l-0.1-0.1l0,0.1l0.1,0l0,0.1L98.6,22.4z M99.1,20.2L99.1,20.2l-0.1,0l0,0
		l0,0c0,0,0-0.1,0-0.1l-0.1,0l0-0.1c0,0-0.1,0.1-0.1,0.1c0,0,0,0,0,0.1c0,0,0,0,0,0l-0.1-0.1c0,0,0,0-0.1,0l0,0v0.1l-0.1,0.2
		c0,0,0,0.1,0.1,0.1l0.2-0.1l0.1,0l0.1-0.1l0.1,0.1h0.1L99.1,20.2z M98.8,26.2l-0.1,0l0,0L98.8,26.2l0,0.1L98.8,26.2
		C98.9,26.2,98.9,26.2,98.8,26.2z M98.9,22.5L98.9,22.5c-0.1,0-0.1,0-0.2,0v0L98.9,22.5l-0.1,0.1C98.8,22.6,98.8,22.6,98.9,22.5
		C98.9,22.6,98.9,22.5,98.9,22.5C98.9,22.5,98.9,22.5,98.9,22.5z M98.9,20.5L98.9,20.5l0,0.1L98.9,20.5
		C98.9,20.5,98.9,20.5,98.9,20.5z M99.8,23.2c0,0-0.1,0-0.1,0c0,0-0.1,0-0.1,0.1c0,0.1,0,0.1,0.1,0.1l0.1,0.1
		C99.8,23.4,99.9,23.3,99.8,23.2L99.8,23.2z M99.9,20.1L99.9,20.1V20C99.9,20,99.9,20,99.9,20.1L99.9,20.1z M100.2,23.5
		C100.2,23.5,100.2,23.4,100.2,23.5l-0.2-0.2l0,0l-0.1,0l0,0.2l-0.1,0l0,0.1l0.2-0.1L100.2,23.5z M100.1,20.1v0.1l0,0.1l-0.2-0.2
		c0,0,0-0.1,0-0.1l0,0C100,20.1,100,20.1,100.1,20.1L100.1,20.1z M100.1,23.3L100.1,23.3L100.1,23.3L100.1,23.3z M100.2,24.4
		L100.2,24.4L100.2,24.4L100.2,24.4z M100.3,27.6L100.3,27.6c0-0.1,0-0.1,0-0.1L100.3,27.6C100.2,27.5,100.2,27.5,100.3,27.6
		L100.3,27.6L100.3,27.6z M100.4,24.5l-0.1-0.1l0,0C100.3,24.5,100.3,24.5,100.4,24.5L100.4,24.5C100.4,24.6,100.4,24.6,100.4,24.5
		C100.4,24.5,100.4,24.5,100.4,24.5z M100.6,27.5L100.6,27.5L100.6,27.5C100.6,27.5,100.6,27.5,100.6,27.5L100.6,27.5z M100.8,20.6
		L100.8,20.6l-0.1,0.1C100.7,20.7,100.7,20.7,100.8,20.6C100.8,20.7,100.8,20.6,100.8,20.6z M101.4,26.8L101.4,26.8L101.4,26.8
		L101.4,26.8C101.4,26.8,101.4,26.8,101.4,26.8z M101.5,21.4l-0.1-0.2v-0.1L101.5,21.4L101.5,21.4z M101.6,21.9L101.6,21.9
		L101.6,21.9L101.6,21.9z M101.8,21.2L101.8,21.2l-0.1,0.1c0,0,0,0-0.1,0c0,0,0-0.1,0-0.1S101.8,21.2,101.8,21.2z M102.8,25.3
		C102.8,25.3,102.8,25.3,102.8,25.3L102.8,25.3L102.8,25.3C102.8,25.3,102.8,25.3,102.8,25.3z"/>
</g>
</svg>
