<?xml version="1.0" encoding="utf-8"?>
<!-- Generator: Adobe Illustrator 19.2.1, SVG Export Plug-In . SVG Version: 6.00 Build 0)  -->
<svg version="1.1" id="Layer_1" xmlns="http://www.w3.org/2000/svg" xmlns:xlink="http://www.w3.org/1999/xlink" x="0px" y="0px"
	 viewBox="0 0 100 100" style="enable-background:new 0 0 100 100;" xml:space="preserve">
<g>
	<path d="M72.9,48.8C72.9,48.8,72.8,48.9,72.9,48.8c-0.5,0.3-0.6,0.6-0.6,1.1c0,0.1-0.1,0.2-0.1,0.3c-0.2,0.2-0.4,0.4-0.5,0.5
		c-0.1,0.1-0.1,0.1-0.1,0.2c0,0.2-0.1,0.3-0.4,0.3c0.1,0.2,0.1,0.3,0.2,0.5c0.2-0.2,0.4-0.4,0.6-0.6c0.1,0.3-0.2,0.8-0.7,1.1
		c0-0.1,0-0.3,0.1-0.4c-0.2-0.1-0.4,0-0.4,0.2c0,0.1-0.1,0.2-0.1,0.3c0,0.2-0.1,0.4-0.4,0.4c0.1,0.2-0.1,0.4-0.2,0.5
		c-0.3,0.2-0.5,0.4-0.6,0.7c0,0-0.1,0-0.2-0.1c0,0.2,0,0.4,0,0.6c-0.5-0.1-0.7,0.2-0.6,0.6c-0.1,0-0.2-0.1-0.3-0.1
		c0.2,0.3,0.6,0.1,0.9,0.2c-0.1,0.7-0.9,1-1,1.7c-0.4-0.1-0.7,0-0.9,0.3c-0.1,0.1-0.2,0.2-0.4,0.3c0.1,0,0.2-0.1,0.3-0.1
		c-0.1,0.2-0.2,0.4-0.4,0.5c-0.2,0.1-0.3,0.2-0.5,0.3c-0.1,0.1-0.2,0.2-0.2,0.3c-0.1,0.2-0.3,0.4-0.5,0.5c-0.1,0.1-0.3,0.5-0.2,0.7
		c-0.3,0.2-0.8,0.2-0.8,0.8c-0.1,0-0.3,0-0.4,0c0,0.9-0.7,1.3-1.1,2c0.1-0.1,0.2-0.1,0.4-0.2c0,0,0,0,0.1,0
		c-0.1,0.2-0.2,0.3-0.3,0.5c-0.2-0.3-0.5-0.1-0.7-0.1c0.1,0.1,0.1,0.2,0.2,0.3c-0.2,0-0.4,0.1-0.6,0.1c0.2,0.4,0,0.6-0.3,0.8
		c-0.2,0.1-0.3,0.2-0.6,0.4c-0.2,0-0.2,0-0.4,0.4c-0.1,0.5-0.2,0.5-0.6,0.5c0,0-0.1,0-0.1,0c-0.1,0.1-0.2,0.3-0.4,0.4
		c0.1,0.1,0.1,0.1,0.5-0.2c0.1,0.3-0.1,0.5-0.7,0.6c0.1,0.2,0,0.4-0.2,0.6c-0.3,0.2-0.5,0.5-0.8,0.7c0,0-0.1,0-0.1,0
		c-0.1,0.1-0.2,0.2-0.2,0.3c-0.1,0.2-0.1,0.5-0.2,0.6c-0.1,0.1-0.3,0.1-0.5,0.2c0,0.1,0.1,0.2,0.1,0.3c-0.3,0.2-0.6,0.7-1.1,0.7
		c0,0-0.1-0.1-0.1-0.1c0.1,0,0.2,0,0.2-0.1c-0.5,0-0.5,0.6-0.7,0.8c-0.2-0.1-0.4-0.1-0.6-0.2c0,0,0-0.1,0-0.2
		c-0.3,0.2,0.1,0.3,0,0.5c-0.1,0-0.2,0-0.3,0c0.1,0.4-0.3,0.6-0.4,0.8c-0.1,0.1-0.3,0.1-0.5,0.1c0,0-0.1,0-0.1,0.1
		c-0.1,0.3-0.4,0.4-0.7,0.6c-0.2,0.1-0.3,0.3-0.5,0.4c-0.7,0.4-1.4,0.7-2,1c-0.8,0.4-1.6,0.8-2.4,1.2c-0.3,0.1-0.6,0.2-1,0.3
		c0,0,0-0.1,0-0.1c0.3-0.2,0.7-0.3,1-0.5c-0.1,0-0.2-0.1-0.2-0.1c0-0.1,0.4-0.3,0.7-0.3c-0.1,0.1-0.2,0.1-0.3,0.2c0,0,0,0,0,0.1
		c0.2-0.1,0.3-0.1,0.5-0.2c0.1,0,0.3-0.1,0.5-0.1c0.2,0,0.3-0.1,0.3-0.3c0-0.2,0-0.3,0-0.5c-0.1,0-0.2,0-0.3,0.2
		c0,0.1-0.1,0.2-0.1,0.3c0,0.1-0.1,0.1-0.2,0.1c-0.1,0-0.1-0.1-0.1-0.2c0-0.2,0-0.4,0.2-0.4c0.3-0.1,0.4-0.2,0.6-0.4
		c0.3-0.3,0.6-0.5,1-0.8c0,0,0-0.1,0-0.1c-0.1,0-0.2,0-0.3,0.1c-0.1,0.1-0.3,0.2-0.4,0.3c-0.1,0.2-0.4,0.2-0.5,0.3
		c-0.1,0-0.1,0.2-0.2,0.3c-0.1,0-0.2,0-0.3,0c0-0.1-0.1-0.1-0.1-0.2c0,0.1-0.1,0.2-0.1,0.2c0-0.1-0.1-0.1-0.1-0.2
		c-0.5,0.2-0.9,0.5-1.1,1c-0.5-0.3-0.7,0.1-1.2,0.2c0.1-0.1,0.1-0.3,0.2-0.4c0,0,0,0,0,0c-0.2,0.2-0.4,0.3-0.6,0.5c0,0,0,0-0.1-0.1
		c0.1-0.1,0.2-0.2,0.2-0.4c0-0.1,0-0.2,0.1-0.3c-0.1,0-0.2,0-0.2,0c-0.2,0-0.3,0.1-0.5,0.1c0.2-0.4,0.2-1,0.9-1
		c-0.1-0.6,0-1,0.6-1.2c0-0.1-0.1-0.2-0.1-0.2c0-0.1,0.1-0.2,0.1-0.3c0.1-0.2,0.3-0.3,0.4-0.5c0.1-0.3,0.3-0.6,0.7-0.6
		c0-0.1,0-0.2-0.1-0.4c-0.2,0-0.3,0.2-0.3,0.3c-0.1,0.2-0.2,0.3-0.4,0.3c0.1-0.2,0.2-0.3,0.3-0.5c0,0,0,0-0.1,0
		c0.1-0.1,0.4-0.1,0.3-0.3c0,0,0.1-0.1,0.1-0.1c0.1-0.1,0.2-0.3,0.2-0.4c0,0,0.1-0.1,0.1-0.1c0.2-0.1,0.3-0.3,0.3-0.5
		c0.2,0,0.3,0,0.5,0c-0.1-0.2-0.2-0.3-0.3-0.5c0,0-0.1,0-0.2,0c0,0-0.1-0.1-0.1-0.1c0,0,0.1-0.1,0.1-0.1c0.2,0,0.3,0.1,0.5,0.1
		c0,0,0.1-0.1,0.1-0.2c-0.4-0.1-0.6-0.2-0.7-0.6c0,0-0.1-0.1-0.1-0.1c-0.1,0-0.1,0-0.2,0c-0.3-0.1-0.3-0.2-0.1-0.4
		c0.1,0,0.2,0,0.3,0c0-0.1-0.1-0.1-0.1-0.2c0.1,0,0.2,0,0.3,0c0.3,0.1,0.7,0.2,1,0.4c0.4,0.2,0.6,0.1,0.6-0.4c-0.1,0-0.2,0-0.3,0
		c0.1-0.2,0.3-0.3,0.7-0.2c0,0.1,0,0.2-0.1,0.3c0.2,0,0.3,0,0.5-0.1c0.1,0,0.2-0.1,0.3-0.2c-0.1-0.1-0.2-0.2-0.3-0.3
		c-0.1-0.1-0.2,0-0.4-0.1c0,0,0,0,0-0.1c0.1,0,0.3-0.1,0.4-0.1c0.3,0,0.3,0,0.3-0.4c0-0.2,0.1-0.3,0.3-0.3c0.1,0,0.2,0,0.3,0
		c0.3,0,0.3-0.1,0.2-0.3c0-0.1-0.1-0.1-0.1-0.2c0.5-0.1,0.8-0.4,0.7-0.6c-0.1,0.1-0.2,0.1-0.3,0.2c0,0,0,0,0-0.1
		c0.2-0.2,0.4-0.5,0.7-0.8c0,0.3,0,0.5,0,0.7c0.4-0.1,0.6-0.6,0.4-1c0-0.1,0.1-0.1,0.1-0.2c0.1-0.3,0.3-0.2,0.4-0.1
		c0.1,0,0.1,0.1,0.2,0.1c0,0,0,0,0-0.1c-0.1-0.1-0.2-0.2-0.4-0.3c0.2,0,0.4,0,0.7,0c0-0.1-0.1-0.2-0.1-0.3c-0.2-0.1-0.1-0.2-0.1-0.3
		c0.2-0.3,0.4-0.6,0.8-0.6c0,0,0.1,0,0.1,0c-0.1-0.1-0.1-0.1-0.2-0.1c0.3-0.5,0.7-0.9,1.2-1.2c0,0.1-0.1,0.2-0.1,0.2c0,0,0,0,0.1,0
		c0.1-0.2,0.2-0.4,0.5-0.3c0.1-0.4,0-0.8,0.4-1c0,0.1,0.1,0.2,0.1,0.2c0.1-0.3,0.2-0.5,0.3-0.7c0.2-0.3,0.4-0.6,0.8-0.7
		c0.3-0.1,0.3-0.1,0.3-0.4c-0.1,0.1-0.2,0.2-0.2,0.2c0.1-0.3,0.2-0.6,0.3-0.9c0.1-0.2,0.1-0.4,0.2-0.6l0,0c0.2-0.2,0.4-0.2,0.6,0
		c0.1-0.2,0.3-0.3,0.4-0.5c-0.1-0.5-0.1-0.5,0.1-0.6c0,0.1,0,0.2,0,0.3c0.2-0.1,0.4-0.2,0.5-0.3c-0.1-0.1-0.3-0.2-0.4,0
		c-0.2-0.3-0.1-0.6,0.3-0.8c0,0.1-0.1,0.3-0.1,0.4c0.3,0,0.4-0.5,0.8-0.3c0-0.4,0.3-0.9,0.6-1c0,0.1-0.1,0.1-0.1,0.2c0,0,0,0,0.1,0
		c0.1-0.2,0.3-0.3,0.4-0.5c0.2-0.4,0.4-0.8,0.6-1.2c0.1-0.1,0.1-0.2,0.3-0.2c0.2,0,0.2-0.1,0.2-0.2c0-0.1,0-0.2,0.1-0.4
		c-0.1,0-0.2,0-0.3,0c0,0,0,0,0-0.1c0.1-0.1,0.2-0.1,0.3-0.2c-0.1-0.2,0.2-0.5-0.2-0.7c0.1-0.1,0.2-0.3,0.2-0.4c0,0,0,0,0.1,0
		c0,0.2,0,0.4,0,0.6c0,0.2,0,0.4,0.1,0.5c0,0,0.1,0,0.2,0.1c0-0.1,0-0.2,0-0.2c-0.2-0.2-0.1-0.3,0-0.4c0.1-0.1,0.2-0.1,0.3-0.2
		c0.1-0.1,0.2-0.1,0.3-0.2c0.1-0.1,0-0.2,0.1-0.3c-0.1,0-0.2,0-0.2,0c0,0-0.1,0-0.1,0c0-0.2,0-0.3-0.3-0.4c0.1-0.2,0.2-0.3,0.3-0.4
		c0,0,0,0,0,0c0,0.1-0.1,0.2-0.1,0.3c0.3,0,0.4,0,0.5-0.3c0-0.1,0.1-0.2,0.1-0.3c0-0.1,0.1-0.1,0.2-0.1c0,0,0.1,0.1,0.1,0.2
		c0,0.1,0.1,0.1,0.1,0.2c0,0,0.1,0,0.1,0c0-0.3,0-0.6,0-0.9c0.3,0.1,0.5,0.1,0.7,0c0,0,0-0.1,0-0.1c-0.2,0-0.3,0-0.5,0
		c0.1-0.3,0.4-0.3,0.6-0.4c0-0.2,0-0.3,0-0.5c0.1-0.3,0.1-0.3-0.3-0.4c-0.1,0-0.2,0-0.2-0.1c-0.1-0.1-0.1-0.1-0.1-0.2
		c0.2,0,0.3,0,0.4,0c0.3-0.2,0.6-0.4,0.9-0.6c0,0,0,0,0.1,0c0.1,0,0.1,0.1,0.3,0.2c0.1-0.1,0.1-0.3,0.2-0.5
		c-0.2,0.1-0.3,0.2-0.5,0.3c0-0.2,0-0.5,0-0.7c0,0,0-0.1,0.1-0.1c0.1-0.3,0.3-0.6,0.4-0.8c0.2-0.5,0.3-0.9,0.5-1.4
		c0.1-0.2,0-0.3,0.1-0.5c0-0.1,0-0.2,0.1-0.3c0.1-0.3,0.2-0.6,0.3-0.8c0,0,0-0.1,0-0.1c-0.1-0.1-0.1-0.2,0-0.4
		c0.1-0.2,0.2-0.4,0.3-0.6c0,0,0,0-0.1-0.1c-0.1,0-0.3,0.1-0.4,0.1c0,0.3,0.1,0.6-0.1,0.8c-0.2-0.1-0.3-0.3-0.5-0.4
		c0.2-0.2,0.2,0.2,0.4,0.1c0.1-0.3,0-0.6-0.3-0.9c0.1,0,0.2-0.1,0.3-0.1c-0.1-0.2-0.5-0.4-0.2-0.7c-0.1,0-0.2-0.1-0.2-0.1
		c0.1-0.4,0.3-0.5,0.6-0.6c0.1,0.3-0.2,0.3-0.3,0.5c0.3,0,0.5,0,0.6-0.3c0.1-0.2,0.3-0.3,0.4-0.4c0,0,0.1-0.1,0.1-0.2
		c-0.3-0.1-0.5,0.4-0.8,0.2c0-0.2,0-0.4,0-0.6c0-0.1,0-0.2,0-0.2c0.2-0.2,0-0.3-0.2-0.4c0.1-0.4,0-0.6-0.2-0.8
		c0.1,0,0.1-0.1,0.2-0.2c-0.2-0.2-0.4-0.5-0.6-0.7c-0.1,0.2-0.2,0.3-0.3,0.4c-0.2-0.2,0-0.3,0.1-0.4c0.3-0.3,0.3-0.3,0.1-0.6
		c0-0.1-0.1-0.1-0.1-0.2c-0.1-0.2-0.2-0.2-0.3,0c0,0.1-0.1,0.1-0.2,0.1c-0.1-0.3-0.2-0.6-0.3-1c0.4,0.1,0.4,0.4,0.4,0.6
		c0.2,0,0.3-0.1,0.2-0.3c-0.2-0.3-0.4-0.5-0.6-0.8c0,0-0.1,0-0.1,0c0,0.1-0.1,0.2-0.1,0.2c0,0-0.2,0-0.2,0c-0.2-0.4-0.6-0.4-1-0.4
		c-0.5,0.1-0.9,0.2-1.4,0.4c0,0-0.1,0-0.1,0.1c-0.3,0.2-0.7,0.4-1,0.6c-0.4,0.2-0.7,0.3-0.9,0.7c-0.1,0.1-0.2,0.2-0.3,0.2
		c-0.3,0-0.4,0.3-0.5,0.5c0,0.1-0.1,0.2-0.1,0.3c-0.5,0-0.6,0.2-0.7,0.7c0,0.1-0.1,0.1-0.2,0.2c-0.1,0.1-0.2,0.2-0.3,0.3
		c0,0,0,0,0,0.1c-0.7,0.2-0.7,0.2-0.6,0.4c0.1,0,0.1-0.1,0.3-0.1c-0.1,0.2-0.2,0.3-0.3,0.4c-0.5,0-0.3,0.5-0.6,0.7
		c0.3,0.2,0.1,0.4,0,0.6c0,0-0.1,0-0.1,0c0-0.1,0.1-0.2,0.1-0.3c0,0,0,0,0-0.1c-0.1,0.1-0.3,0.2-0.4,0.3c-0.1,0.2-0.3,0.4-0.4,0.6
		c-0.2,0.3-0.2,0.2,0.2,0.4c-0.1,0-0.2,0.1-0.2,0.1c-0.3-0.1-0.3,0.1-0.4,0.2c-0.4,0.7-0.9,1.4-1.3,2.1c0,0,0-0.1-0.1-0.1
		c0,0,0,0-0.1,0c0,0.2,0,0.4,0.1,0.6c-0.1,0.1-0.2,0.2-0.4,0.3c-0.1,0.1-0.2,0.1-0.2,0.2c-0.1,0.1-0.1,0.2-0.1,0.3
		c-0.3,0.9-0.8,1.6-1.3,2.4c-0.4,0.5-0.7,0.9-1.1,1.4c0,0,0-0.1,0-0.1c-0.1,0-0.3,0-0.4,0.1c-0.1,0-0.1,0.2-0.1,0.3
		c-0.3,0.2-0.6,0.6-1.1,0.7c-0.4,0.1-0.7,0.6-1.3,0.5c0.1-0.1,0.1-0.1,0.2-0.1c0,0,0.1-0.1,0.1-0.1c0-0.4,0-0.8,0-1.2
		c-0.3,0.3-0.9,0.2-1,0.7c-0.8-0.2-1.4-0.7-2-1.3c0,0-0.1-0.1-0.1-0.1c-0.2,0.1-0.3-0.1-0.4-0.2c-0.2-0.3-0.4-0.6-0.5-0.8
		c0-0.1-0.1-0.2-0.1-0.2c-0.1-0.3-0.1-0.5-0.2-0.8c0-0.1-0.1-0.2-0.1-0.3c0-0.1,0.2-0.1,0.2-0.1c0-0.1,0-0.3,0-0.4
		c0,0-0.1-0.1-0.1-0.1c0,0-0.1,0.1-0.1,0.1c0,0,0,0.1,0,0.1c-0.2-0.1-0.3-0.3-0.2-0.6c0.1,0.1,0.1,0.1,0.2,0.2
		c0-0.1,0.1-0.1,0.1-0.2c-0.1,0-0.1-0.1-0.2-0.1c-0.1,0-0.1,0-0.2,0c-0.1,0-0.1-0.1-0.1-0.1c0,0,0-0.1,0-0.1c0,0,0.1,0,0.2,0
		c0.1,0,0.2,0,0.3,0c0-0.1,0-0.2-0.1-0.3c0-0.1-0.2-0.1-0.2-0.1c-0.1,0-0.2,0.1-0.3,0.1c0-0.1-0.1-0.3-0.1-0.4c0,0,0,0,0.1-0.1
		c0.1,0.1,0.2,0.1,0.4,0.2c-0.1-0.4-0.1-0.9-0.6-1.1c0.1,0.3,0.2,0.5,0.3,0.8c-0.3-0.1-0.4-0.2-0.5-0.4c-0.1-0.2-0.2-0.5-0.3-0.7
		c-0.2-0.4-0.4-0.8-0.5-1.2c-0.1-0.1-0.1-0.2-0.2-0.4c-0.1-0.2-0.3-0.4-0.4-0.6c-0.2-0.3-0.4-0.6-0.6-1c-0.1-0.2-0.3-0.4-0.4-0.6
		c-0.1-0.1-0.2-0.3-0.3-0.4c0-0.1-0.1-0.1-0.1-0.2c-0.2-0.2-0.3-0.5-0.5-0.6c-0.4-0.1-0.5-0.3-0.7-0.6c-0.2-0.3-0.5-0.6-0.9-0.7
		c-0.2-0.1-0.4-0.1-0.5-0.4c0,0-0.1-0.1-0.1-0.1c-0.5-0.2-1-0.4-1.4-0.6c-0.5-0.2-1-0.3-1.5-0.3c-0.9,0-1.7,0.5-2.5,0.9
		c-0.4,0.5-0.9,0.9-1.1,1.6c0,0.1,0,0.2-0.1,0.2c0,0,0,0,0,0c0-0.1,0-0.1-0.1-0.2c-0.3,0.3-0.4,0.7-0.5,1.1
		c-0.1,0.4-0.2,0.7-0.3,1.1c0,0.1,0,0.2,0,0.3c0,0.1,0.1,0.2,0,0.2c-0.2,0.1-0.1,0.3-0.1,0.5c0,0.1,0.1,0.3,0,0.4
		c-0.1,0.2-0.1,0.3,0.1,0.5c-0.2,0.3-0.2,0.4,0.2,0.6c-0.1,0.1-0.2,0.1-0.3,0.2c0,1.3,0.2,2.7,0.4,4c0.2,1.1,0.5,2.2,0.8,3.3
		c0,0.1,0.1,0.2,0.2,0.3c0,0.1,0,0.2,0,0.3c0.1,0.2,0.2,0.5,0.4,0.7c0.2,0.4,0.4,0.7,0.5,1.1c0,0.2,0.1,0.5,0.4,0.5
		c0,0,0.1,0.1,0.1,0.1c0.2,0.5,0.4,1,0.6,1.4c0,0.1,0.1,0.2,0.2,0.2c0.3,0.2,0.6,0.4,0.5,0.9c0.2,0,0.2,0,0.3,0.2
		c0.1,0.3,0.3,0.5,0.5,0.7c0.1,0.2,0.3,0.4,0.5,0.6c0.5,0.6,0.8,1.4,1.6,1.8c0,0,0,0,0,0c0.2,0.3,0.3,0.5,0.5,0.8
		c0,0,0.1,0.1,0.1,0.1c0.3,0.1,0.4,0.3,0.6,0.5c0,0.1,0.1,0.1,0.2,0.2c0.2,0.2,0.5,0.4,0.7,0.6c0.3,0.3,0.3,0.5,0,0.8c0,0,0,0,0,0.1
		c0.2,0.1,0.2-0.1,0.3-0.2c0.5,0.3,0.6,0.4,0.8,0.8c0.2-0.1,0.2-0.1,0.3,0.1c0.2,0.2,0.3,0.4,0.5,0.6c0.1,0.1,0.3,0.2,0.5,0.3
		c0.4,0.2,0.6,0.8,1,1c0.3,0.1,0.5,0.4,0.7,0.6c0.3,0.2,0.7,0.5,0.9,0.9c-0.1,0-0.1,0-0.2,0.1c0,0,0,0.1,0,0.1c0.1,0,0.2,0,0.3,0
		c0.1,0,0.2,0,0.3,0.1c0.4,0.2,0.8,0.4,1.1,0.8c0,0.1,0.1,0.1,0.2,0.1c0.5,0.2,0.9,0.5,1.1,0.8c0,0.2-0.1,0.2-0.1,0.3
		c-0.2,0-0.3-0.1-0.3-0.3c0-0.1-0.1-0.2-0.1-0.3c-0.1,0.2-0.2,0.3-0.4,0.4c-0.3-0.3-0.6-0.5-0.9-0.8c-0.2,0.1-0.3-0.1-0.5-0.2
		c0.1-0.2,0.5-0.1,0.3-0.5C46,64,45.8,64,45.5,63.7c-0.1,0.2-0.3,0.1-0.4,0c0,0,0-0.1,0-0.1c-0.1-0.4-0.1-0.4-0.5-0.2
		c-0.3,0.1-0.4,0.1-0.5-0.2c0-0.1,0-0.2-0.1-0.3c-0.2,0-0.3,0-0.5,0c0.2-0.4-0.1-0.4-0.3-0.5c-0.2-0.1-0.3-0.2-0.2-0.4
		c0.1-0.1,0-0.2-0.2-0.2c0,0.1,0,0.1,0.1,0.2c-0.3,0.1-0.3,0.1-0.2-0.4c-0.2,0.1-0.3,0.2-0.5,0.3c-0.3-0.2-0.5-0.4-0.8-0.6
		c0,0,0-0.1,0-0.1c0.2-0.1,0.4-0.1,0.7-0.2c0,0,0-0.1,0-0.2c0,0-0.2,0-0.2,0c-0.1,0-0.2,0.1-0.3,0.1c-0.2-0.2-0.4-0.4-0.5-0.6
		c-0.2,0.1,0.1,0.5-0.3,0.4c0,0,0-0.2-0.1-0.4c-0.2,0-0.6,0.2-0.6-0.3c0.1,0,0.3,0.1,0.5,0.1c-0.2-0.4-0.5-0.3-0.7-0.3
		c0-0.3,0-0.5-0.1-0.8c-0.1,0.2-0.2,0.3-0.3,0.4c0,0.1,0.2,0.2,0.2,0.3c-0.5-0.2-0.9-0.5-1.2-0.9c0.1,0,0.3,0,0.4,0.1c0,0,0,0,0-0.1
		c-0.1-0.1-0.2-0.2-0.3-0.3c-0.1,0-0.2,0.2-0.3,0.1c-0.1-0.1-0.1-0.2-0.2-0.3c0,0,0.1,0,0.1,0c0,0.1,0.1,0.1,0.1,0.2
		c0,0,0.1-0.1,0.1-0.1c0-0.1,0-0.1-0.1-0.1c-0.2-0.1-0.4-0.3-0.6-0.4c0,0-0.1,0.1-0.2,0.1c-0.1-0.1-0.2-0.2-0.3-0.4c0,0,0,0,0.1-0.1
		c0.1,0.1,0.3,0.2,0.4,0.3c0.1-0.1,0.1-0.2,0.1-0.3c-0.2-0.1-0.5-0.2-0.7-0.2c0,0,0,0.1-0.1,0.3c-0.2-0.2-0.4-0.3-0.6-0.5
		c-0.3-0.3-0.6-0.5-0.8-0.8c-0.1-0.1-0.1-0.2,0-0.3c0.1,0,0.1-0.1,0.2-0.2c0,0-0.1,0-0.1,0c-0.4,0.1-0.6,0-0.8-0.3
		c-0.3-0.3-0.6-0.6-0.9-1c-0.1-0.1-0.2-0.3-0.3-0.4c0.1,0,0.2,0,0.3,0c0.1-0.3,0-0.4-0.3-0.4c0.1,0.1,0.2,0.1,0.3,0.2
		c-0.1,0.2-0.3,0.2-0.4,0.1c-0.3-0.1-0.3-0.3-0.2-0.6c-0.2,0.1-0.3,0.3-0.5,0c-0.1-0.2-0.2-0.3-0.3-0.4c-0.2,0-0.3,0.1-0.4,0.1
		c-0.1,0-0.1-0.2-0.2-0.3c0.5,0,0.7-0.1,0.6-0.6c-0.1,0.1-0.1,0.2-0.1,0.3c-0.4-0.2-0.6-0.6-0.9-0.9c-0.2-0.4-0.4-0.7-0.6-1.1
		c-0.1-0.1-0.1-0.3-0.3-0.3c0,0-0.1-0.1-0.1-0.1c0-0.4-0.2-0.6-0.5-0.8c-0.2-0.1-0.3-0.3-0.4-0.5c-0.1-0.3-0.2-0.6-0.5-0.8
		c0.1-0.3,0.1-0.6-0.2-0.8c-0.1,0-0.1-0.1-0.1-0.2c0-0.1-0.1-0.2-0.1-0.3c0-0.4-0.5-0.3-0.6-0.6c0,0-0.2,0.1-0.3,0.1
		c-0.1-0.2-0.1-0.2,0.2-0.2c0-0.3,0-0.6,0-0.9c0-0.1,0-0.2,0-0.2c-0.2-0.2-0.2-0.5-0.2-0.7c-0.1-0.4-0.3-0.7-0.4-1.1
		c0-0.1,0-0.2,0-0.2c0-0.3-0.2-1.2-0.4-1.5c0,0.1,0,0.2-0.1,0.3c-0.1-0.1-0.2-0.2-0.3-0.3c0,0.2,0,0.4,0,0.6c0,0.2,0,0.4,0,0.5
		c0,0.1-0.1,0.1-0.2,0.3c0-0.2,0-0.2,0-0.3c0-0.2,0.1-0.5-0.1-0.7c-0.1-0.1,0-0.2,0-0.4c0.1-0.2,0.1-0.3,0.2-0.5
		c0.1-0.2,0.2-0.4,0-0.6c-0.1-0.1-0.2-0.4-0.2-0.6c0-0.2-0.1-0.5-0.1-0.8c-0.1,0.1-0.1,0.1-0.2,0.1c-0.2,0.3-0.2,0.6,0,0.9
		c0.1,0.1,0.1,0.2,0.1,0.3c0,0.1-0.2,0.2-0.2,0.2c-0.1-0.5-0.3-0.9-0.4-1.3c-0.2-0.5-0.2-1,0-1.5c-0.1-0.1-0.2-0.2-0.3-0.3
		c0.2-0.1,0.3-0.1,0.5-0.2c0,0.2,0,0.3-0.1,0.4c0.1-0.1,0.2-0.1,0.3-0.1c0-0.2-0.3-0.3-0.1-0.5c0.1-0.1,0.2-0.2,0.3-0.3
		c0,0,0.1,0,0.1,0c0-0.1,0-0.3,0-0.4c0,0-0.1,0-0.1,0c0,0.1,0,0.1,0,0.2c0,0.1-0.1,0.1-0.1,0.2c0-0.1-0.1-0.1-0.1-0.2
		c0-0.1,0-0.3,0-0.5c-0.1,0.1-0.2,0.2-0.3,0.2c-0.1,0.1-0.2,0.2-0.3,0.3c0,0,0,0-0.1,0c0-0.3-0.1-0.6-0.1-0.9c0-0.1,0.1-0.3,0.1-0.4
		c0-0.1,0.1-0.2,0.1-0.3c-0.1,0-0.2,0-0.3,0c-0.1-0.2,0.5-0.2,0.1-0.5c0.2,0,0.3,0,0.5,0c0,0.2-0.1,0.3-0.1,0.4c0,0,0,0,0.1,0.1
		c0.2-0.1,0.3-0.3,0.5-0.4c0,0,0.1-0.1,0-0.1c0-0.2-0.1-0.4-0.1-0.6c0-0.1,0-0.3,0-0.4c-0.2,0-0.3,0.3-0.4,0.4
		c-0.1-0.3,0.1-0.4,0.6-0.8c-0.2-0.2-0.3-0.2-0.4,0.1c-0.1,0.1-0.1,0.2-0.2,0.3c0,0-0.1,0-0.1,0c0.1-0.3,0.2-0.6,0.3-0.9
		c0.3,0,0.5,0.2,0.7-0.2c-0.2,0-0.4,0-0.5,0.1c0.2-0.5,0.4-1,0.7-1.5c0.1-0.1,0.2-0.2,0.3-0.3c0.4-0.4,0.8-0.9,1.3-1.3
		c0.1-0.1,0.3-0.3,0.5-0.4c0.3-0.1,0.5-0.4,0.8-0.6c1-0.7,2.1-1.2,3.3-1.5c1.8-0.5,3.7-0.7,5.6-0.6c1.1,0.1,2.3,0.3,3.3,0.7
		c0.5,0.2,0.9,0.4,1.4,0.5c0,0,0.1,0,0.1,0.1c0.3,0.4,0.7,0.5,1.1,0.7c0.2,0.1,0.3,0.2,0.4,0.3c0.1,0,0.1,0.1,0.2,0.1
		c0.7,0.2,1.1,0.6,1.6,1c0.2,0.2,0,0.3-0.1,0.4c0.2,0,0.3,0,0.4,0c0,0.1-0.1,0.2-0.1,0.3c0.2,0.1,0.5-0.1,0.6,0.3
		c0.4,0.1,0.7,0.4,0.9,0.8c0,0,0.1,0.1,0.1,0.1c0.3,0,0.4,0.2,0.5,0.4c0.1,0.2,0.2,0.3,0.3,0.5c-0.1,0.1-0.3,0.1-0.4,0.2
		c0,0,0,0,0,0.1c0.1,0,0.3-0.1,0.4-0.1c0,0,0,0,0,0.1c-0.1,0-0.1,0.1-0.2,0.1c-0.1,0-0.1,0.1-0.2,0.1c0.1,0,0.1,0.1,0.2,0.1
		c0,0,0,0,0,0c0.2,0.3,0.3,0.5,0.5,0.8c0.1-0.2,0-0.4-0.2-0.5c-0.1-0.1-0.1-0.1-0.1-0.2c0.1,0,0.1,0,0.2,0c0.3,0.1,0.4,0.4,0.5,0.6
		c0.1,0.4,0.3,0.7,0.6,0.9c0.2,0.1,0.1,0.2,0,0.3c-0.1,0.1-0.1,0.2-0.2,0.3c0,0,0.1,0,0.1,0.1c0.1-0.1,0.1-0.2,0.2-0.3
		c0.1,0,0.2,0,0.3-0.1c0.2-0.1,0.4-0.2,0.4-0.5c0,0,0-0.1,0.1-0.1c0.5-0.6,0.9-1.1,1.4-1.7c0.1-0.1,0.3-0.3,0.5-0.4
		c0.1-0.1,0.3-0.1,0.2-0.3c0,0,0.1-0.1,0.1-0.1c0,0,0.1-0.1,0.1-0.1c0-0.4,0.3-0.5,0.6-0.6c0.2-0.1,0.3-0.2,0.3-0.4
		c0-0.1,0.2-0.2,0.3-0.3c0.4-0.3,0.9-0.5,1.1-1c0.1-0.1,0.2-0.1,0.3-0.2c0.3-0.2,0.5-0.4,0.8-0.6c0.5-0.4,1.1-0.7,1.7-0.9
		c0.1,0,0.2-0.1,0.2-0.1c0.2-0.1,0.4-0.3,0.6-0.4c0.6-0.2,1.2-0.5,1.8-0.7c1.6-0.6,3.2-0.9,4.9-0.8c0.4,0,0.8,0,1.1,0
		c0.2,0,0.4,0.1,0.5,0.2c0,0,0.1,0,0.1,0c0.5,0.1,0.9,0.2,1.4,0.3c0.2,0,0.2,0.1,0,0.3c0.1,0.1,0.2,0.2,0.3,0.2c0.1,0,0.2,0,0.3,0
		c0.1,0,0.2,0,0.3,0.1c0.4,0.4,0.8,0.7,1.2,1.1c0.2,0.1,0.3,0.2,0.4,0c0,0,0,0,0.1,0c0,0.2-0.1,0.3-0.1,0.4c0.2,0.3,0.4,0.6,0.6,0.8
		c0.1,0.1,0.2,0.2,0.3,0.1c0.1,0,0.2,0,0.3,0c-0.2,0.2-0.5,0.3-0.1,0.6c0.3-0.2,0.4-0.2,0.5,0.1c-0.1,0-0.1,0-0.2,0
		c-0.1,0-0.1,0-0.2,0c0.1,0.2,0.2,0.2,0.4,0.2c0.2,0,0.5,0.3,0.4,0.5c0,0.1-0.1,0.1-0.1,0.1c-0.3-0.1-0.3,0.1-0.3,0.3
		c0,0,0,0.1,0,0.2c0.3,0.1,0.4-0.5,0.8-0.3c-0.1,0.1-0.1,0.2-0.2,0.2c-0.2,0.1-0.3,0.2-0.2,0.4c0.1,0.2,0.1,0.3,0.1,0.5
		c0,0.2,0.2,0.3,0.4,0.4c0.1,0.1,0.2,0.1,0.3,0.2c0,0,0,0.1,0,0.1c-0.2,0-0.4,0.1-0.6,0.1c0.2,0.2,0.3,0.3,0.4,0.5
		c0.1-0.2,0.1-0.2,0.1-0.3c0.1,0,0.1,0,0.2,0.8c-0.1,0-0.2,0-0.3,0.1c0,0.1,0.1,0.2,0.1,0.3c0.1-0.1,0.2-0.1,0.2-0.1
		c0.1,0.3,0.2,0.7,0.2,1c0.3,1.2,0.3,2.5,0.2,3.7c-0.1,1.1-0.2,2.2-0.3,3.2c-0.1,0.1-0.2,0.1-0.4,0.2c0.1,0.1,0.2,0.2,0.3,0.2
		c-0.1,0.1-0.2,0.3-0.3,0.4c-0.1,0.1-0.2,0.1-0.3,0.2c0.1,0,0.2,0.1,0.2,0.1c0,0.1-0.1,0.3-0.1,0.4c-0.1,0.5-0.1,1.1-0.4,1.5
		c-0.1,0.1-0.1,0.3,0,0.4c0,0.3-0.1,0.4-0.2,0.5c0,0-0.1,0-0.1,0c0.1-0.1,0.1-0.2,0.2-0.4c-0.2,0-0.3,0-0.3,0.2
		c0,0.4-0.1,0.8-0.1,1.2c0,0.1-0.1,0.2-0.2,0.3c0,0.1,0,0.3,0,0.4l0,0c-0.2,0.2-0.3,0.4-0.5,0.6c0,0.1-0.1,0.1-0.1,0.2
		c-0.1,0.3-0.2,0.2-0.4,0.1c0,0,0,0,0,0.1c0.1,0.1,0.1,0.2,0.2,0.2C72.9,48.6,72.9,48.7,72.9,48.8L72.9,48.8z M46.7,72.5
		C46.7,72.5,46.7,72.5,46.7,72.5c0.7-0.6,1.3-1.3,1.9-2.1c0-0.3,0.2-0.4,0.6-0.6c0.1,0,0.1-0.1,0.2-0.1c0.2-0.4,0.5-0.7,0.7-1.1
		c0.1-0.2,0.3-0.3,0.5-0.4c0.1-0.1,0.1-0.2,0.1-0.3c0,0-0.1,0-0.1,0c-0.1,0.1-0.2,0.2-0.3,0.4c-0.4,0.4-0.7,0.7-1.1,1.1
		c-0.3,0.3-0.2,0.3-0.6,0.2c0,0.2,0.2,0.4,0,0.6c-0.2,0.1-0.4,0.2-0.6,0.3c0.1,0.2,0,0.4-0.2,0.6c-0.1,0.1-0.2,0.2-0.3,0.2
		c-0.1,0.1-0.1,0.1-0.2,0.2c-0.1,0.2-0.2,0.4-0.3,0.6C46.9,72.2,46.8,72.4,46.7,72.5z M47.4,72.6c0.4,0,0.5-0.2,0.6-0.4
		c0.2-0.3,0.4-0.4,0.7-0.4c0.1-0.2,0.2-0.5,0.5-0.6c-0.1,0.1-0.2,0.3-0.3,0.4c0,0,0,0.1,0.1,0.1c0.1-0.1,0.4-0.1,0.4-0.2
		c0-0.2-0.1-0.4-0.1-0.7c-0.2,0.2-0.3,0.3-0.5,0.4c-0.4,0.4-0.7,0.9-1.2,1.1C47.5,72.3,47.5,72.5,47.4,72.6z M66.5,29.1
		c-0.1-0.2,0-0.5-0.2-0.6c-0.1,0.1-0.2,0.4-0.3,0.1c0,0,0,0-0.1,0.1c0,0.1,0,0.2,0,0.4c0,0-0.1,0.1-0.2,0.1c0-0.2-0.1-0.4-0.1-0.5
		c0,0-0.1,0-0.1,0c0,0.5-0.3,0.2-0.5,0.3c-0.2,0.1-0.2-0.2-0.3-0.2c-0.1,0.1-0.2,0.3-0.3,0.4c0.2,0,0.4,0,0.5,0
		c0.1,0.1,0.1,0.2,0.1,0.2c0.3,0.1,0.2-0.2,0.4-0.3c0,0.1,0.1,0.2,0.1,0.3C65.8,29.2,66.1,29.2,66.5,29.1z M52.2,71.4
		c-0.1-0.2-0.2-0.3-0.3-0.1c-0.2,0.3-0.5,0.4-0.8,0.6c-0.4,0.2-0.8,0.4-0.8,1c0.4,0,0.5-0.1,0.6-0.5c0.4,0.1,0.4,0,0.4-0.4
		C51.6,71.9,51.9,71.6,52.2,71.4z M45.9,34.8C45.9,34.8,45.9,34.8,45.9,34.8c-0.1,0.2-0.2,0.4,0.1,0.4c0.1,0,0.1,0.1,0.1,0.1
		c0.1,0.2,0.2,0.3,0.3,0.5c0.1,0.3,0.3,0.5,0.5,0.8c0.1,0.1,0.2,0.2,0.3,0.3c0.1-0.4,0.2-0.8,0.3-1.1c-0.4,0-0.3,0.3-0.5,0.5
		C46.6,35.8,46.3,35.3,45.9,34.8z M50,71c0,0.3-0.1,0.6-0.1,1c0.4-0.2,0.7-0.4,0.8-0.7C50.5,71.2,50.3,71.1,50,71z M41.6,30.3
		c0,0.4,0.3,0.4,0.5,0.6c0.1,0.1,0.3,0.2,0.4,0.3c0.1,0.2,0.2,0.2,0.3,0.1c0.2-0.1,0.3-0.2,0.3-0.5c-0.4,0.2-0.6,0.2-0.9-0.1
		C42,30.5,41.8,30.4,41.6,30.3z M70.5,31.8c-0.1-0.7-0.4-1.4-0.9-1.3c0,0.3,0.3,0.5,0.5,0.6c0.2,0.1,0.3,0.2,0.3,0.5
		C70.3,31.6,70.3,31.8,70.5,31.8z M54.2,68.3c0.3-0.2,0.5-0.4,0.7-0.7c0.1-0.1,0.1-0.2,0.2-0.3c0,0-0.1-0.1-0.1-0.1
		c-0.1,0-0.2,0.1-0.2,0.2c-0.1,0.1-0.2,0.2-0.4,0.3C54.3,67.8,54.2,68,54.2,68.3z M40.2,31.9C40.2,31.9,40.2,31.9,40.2,31.9
		c0.1-0.1,0.2-0.1,0.3-0.2c0.1,0.1,0.2,0.2,0.4,0.4c0.3,0,0.3,0,0.4,0.4c0.2-0.2,0.2-0.4,0-0.5c-0.3-0.2-0.7-0.3-1-0.4
		C40.2,31.7,40.2,31.8,40.2,31.9z M69,35.1c0.1,0,0.2,0,0.4-0.1c-0.1-0.1-0.1-0.2-0.2-0.2c0.1-0.1,0.2-0.3,0.3-0.3
		c-0.2-0.1-0.3-0.2-0.4-0.4C69,34.5,69,34.8,69,35.1z M62.1,59.3c-0.2,0.2-0.3,0.3-0.4,0.4c-0.2,0.2-0.2,0.3-0.1,0.5
		c0.3-0.2,0.6-0.5,0.7-0.9C62.2,59.3,62.1,59.3,62.1,59.3z M55.8,67.9C55.8,68,55.8,68,55.8,67.9c0.1,0,0.2,0,0.2-0.1
		c0.2-0.2,0.4-0.4,0.7-0.4c0,0,0.1-0.1,0.1-0.1c0-0.1,0-0.1-0.1-0.2c-0.2-0.1-0.3,0-0.5,0.1C56.1,67.5,55.9,67.7,55.8,67.9z
		 M48.9,45.1c-0.1,0.4,0,0.6,0.4,0.8c0-0.2,0.1-0.3,0-0.5C49.3,45.2,49.1,45.1,48.9,45.1z M63.7,57.5c0.2-0.1,0.3-0.1,0.4-0.4
		c0.1-0.2,0.1-0.4,0.4-0.5c0,0,0-0.1,0-0.1c-0.2,0.1-0.3,0.1-0.5,0.2C64.2,57.1,63.6,57.1,63.7,57.5z M71,35.6
		C71,35.6,71.1,35.6,71,35.6c0.2-0.1,0.3-0.2,0.4-0.4c0,0-0.1,0-0.1-0.1c-0.1,0.1-0.1,0.2-0.2,0.3c0,0-0.1,0-0.1,0
		c0-0.2,0-0.3-0.1-0.5c0-0.2,0-0.3-0.1-0.5c0,0-0.1,0-0.1,0C70.7,34.9,70.9,35.2,71,35.6z M26.9,30.8C26.9,30.7,26.8,30.7,26.9,30.8
		c-0.3,0.3-0.4,0.6-0.6,0.9C26.9,31.6,26.7,31.1,26.9,30.8z M71.2,36.2c-0.1,0.3-0.1,1,0.1,1.2C71.2,37,71.5,36.6,71.2,36.2z
		 M67.1,30.2c0.1,0.1,0.2,0.3,0.3,0.4c0.1,0,0.2-0.1,0.4-0.1c-0.2-0.2-0.4-0.3-0.6-0.5C67.2,30,67.2,30.1,67.1,30.2z M54.1,69.8
		c-0.4,0-0.8,0.4-0.8,0.7C53.5,70.2,53.9,70.1,54.1,69.8z M59.7,62c0.1-0.1,0.4,0,0.4-0.3c0,0,0.1-0.1,0.1-0.1
		c0.2,0.1,0.2-0.1,0.3-0.2C60.1,61.4,59.7,61.6,59.7,62z M45,33.4C45,33.4,45,33.4,45,33.4c-0.1-0.1-0.3-0.1-0.4-0.1
		c-0.1,0-0.2,0-0.3-0.1c-0.1-0.1-0.2-0.2-0.4-0.4C44.1,33.4,44.6,33.6,45,33.4z M62.1,59c0.5,0,0.7-0.1,0.6-0.4
		C62.5,58.6,62.3,58.7,62.1,59z M70.5,45.8C70.5,45.8,70.5,45.8,70.5,45.8c-0.1-0.1-0.2-0.1-0.3-0.2c-0.1,0-0.2-0.1-0.3-0.1
		c0,0.2,0,0.3,0,0.5C70.1,45.9,70.3,45.9,70.5,45.8z M46.4,44.5c-0.1-0.4-0.2-0.7-0.3-1.1C45.9,43.9,46.1,44.4,46.4,44.5z M66.7,46
		c0.2-0.2,0.4-0.3,0.6-0.5c-0.2,0-0.4,0-0.6-0.1C66.7,45.7,66.7,45.8,66.7,46z M70.8,34.2c0.4,0.1,0.3,0.6,0.5,0.8c0,0,0,0,0.1,0
		c-0.1-0.3-0.2-0.6-0.3-1C71,34,70.9,34.1,70.8,34.2z M68.5,31C68.5,31,68.5,31.1,68.5,31c0.2,0.3,0.3,0.6,0.5,0.8c0,0,0,0,0,0
		c0-0.2-0.1-0.3-0.1-0.4C68.8,31.2,68.7,31.1,68.5,31z M69.6,36.4c0,0-0.1,0-0.1,0c-0.1,0.2-0.1,0.3-0.2,0.5c0,0.1,0.1,0.1,0.2,0.2
		C69.6,36.9,69.6,36.7,69.6,36.4z M45.5,32.9c0,0.1,0,0.2,0,0.3c0,0.1-0.1,0.2-0.1,0.3c0.1,0,0.2,0,0.4-0.1
		C45.9,33.2,45.9,33.1,45.5,32.9z M61.1,29.4c-0.2,0.2-0.4,0.3-0.6,0.5C60.8,30,61.1,29.9,61.1,29.4z M68.5,45.2c0-0.1,0-0.2,0-0.2
		c0-0.1-0.1-0.2-0.1-0.2c-0.1,0.1-0.1,0.1-0.2,0.2c0,0.1-0.1,0.2-0.1,0.3C68.2,45.2,68.3,45.2,68.5,45.2z M34.5,31.2
		c0.1-0.1,0.3-0.2,0.4-0.2c-0.1-0.1-0.2-0.2-0.3-0.2c-0.1,0-0.2,0.1-0.3,0.2C34.3,31,34.4,31.1,34.5,31.2z M55.4,40.7
		C55.4,40.7,55.4,40.7,55.4,40.7c-0.3,0-0.4,0.1-0.4,0.3c0,0.1,0,0.2,0.1,0.3c0,0,0.1,0,0.1,0C55.3,41.1,55.4,40.9,55.4,40.7z
		 M44.3,39.2c0.1,0.5,0.1,0.6,0.3,0.7C44.7,39.7,44.7,39.5,44.3,39.2z M62.7,58.4C62.7,58.4,62.7,58.4,62.7,58.4
		c0.2,0,0.4,0,0.5-0.1c0.1-0.1,0.2-0.3,0.2-0.4C63.1,58.1,62.9,58.2,62.7,58.4z M69.1,52c0-0.1,0-0.2,0-0.2c-0.2,0.2-0.1,0.3,0,0.4
		c0.1,0.1,0.2,0,0.3,0C69.5,51.8,69.3,52,69.1,52z M68,28.6C68,28.6,68,28.6,68,28.6c0.1,0.2,0.2,0.3,0.4,0.4c0.1,0,0.2,0,0.2,0
		c0-0.1,0-0.2,0-0.2C68.4,28.7,68.2,28.7,68,28.6z M54.7,69C54.7,69,54.7,69,54.7,69c-0.2,0.1-0.4,0.3-0.6,0.5
		C54.6,69.5,54.7,69.4,54.7,69z M70.1,39.6c0,0.1,0,0.2,0,0.4c0.2-0.1,0.5-0.1,0.5-0.4C70.4,39.6,70.3,39.6,70.1,39.6z M68.9,29.9
		c0,0.2,0.2,0.5,0.4,0.5c0.1,0,0.1-0.1,0.2-0.2C69.2,30,69.1,29.9,68.9,29.9z M49.8,33.7c0.1,0.3,0.2,0.5,0.3,0.7
		C50.2,34.1,50.1,33.8,49.8,33.7z M70.5,28.4c-0.2-0.1-0.3-0.1-0.5-0.2c0,0.1,0,0.2,0,0.3C70.4,28.6,70.4,28.6,70.5,28.4z
		 M47.4,38.4c0,0.4,0.3,0.9,0.5,0.8C47.7,39,47.5,38.7,47.4,38.4z M67.7,46.2C67.7,46.2,67.7,46.2,67.7,46.2
		c-0.2,0.2-0.2,0.3-0.3,0.6C67.8,46.6,67.8,46.6,67.7,46.2z M59.5,56c0.1-0.2,0.2-0.4,0.3-0.6C59.5,55.4,59.4,55.6,59.5,56z
		 M68.4,34.8C68.4,34.8,68.4,34.8,68.4,34.8c0-0.2,0-0.3,0-0.5c0-0.1-0.2,0-0.3-0.1C68.1,34.5,68.2,34.6,68.4,34.8z M50.9,71
		c0.2-0.1,0.4-0.2,0.6-0.4c-0.2-0.1-0.3-0.1-0.3-0.2C51.1,70.7,51,70.9,50.9,71z M50.5,46.3C50.6,46.3,50.6,46.2,50.5,46.3
		c0.1-0.2,0.1-0.3,0.1-0.4c0,0-0.1-0.1-0.2-0.1c0,0.1-0.1,0.2-0.1,0.3C50.4,46.2,50.5,46.2,50.5,46.3z M70.8,30.6
		C70.8,30.6,70.8,30.6,70.8,30.6c0,0.3,0.1,0.6,0.4,0.7c0,0,0,0,0.1,0C71.1,31,71,30.8,70.8,30.6z M64.9,52.8
		c-0.2-0.2,0.2-0.4,0-0.6C64.6,52.5,64.6,52.7,64.9,52.8z M69.6,31.2c0.1,0.5,0.2,0.6,0.5,0.6C69.9,31.6,69.7,31.4,69.6,31.2z
		 M50.5,44.6c0.3-0.4,0.2-0.6-0.1-0.6C50.4,44.2,50.5,44.4,50.5,44.6z M31.5,51c0.2-0.3,0.2-0.4,0-0.6c0,0.1,0,0.2,0,0.2
		c-0.1,0-0.1,0-0.2-0.1C31.4,50.7,31.5,50.9,31.5,51z M58.2,66.1c-0.4,0.1-0.4,0.2-0.5,0.5C57.9,66.4,58.1,66.3,58.2,66.1z
		 M66.7,48.1c0.3-0.1,0.5-0.2,0.7-0.2c0,0,0,0,0-0.1C67,47.8,66.9,47.8,66.7,48.1z M39.7,31.4c-0.2-0.3-0.5-0.3-0.6-0.1
		C39.3,31.3,39.4,31.3,39.7,31.4z M44.2,38.4C44.2,38.4,44.2,38.4,44.2,38.4c-0.2,0-0.3,0-0.4,0c0.1,0.1,0.2,0.2,0.3,0.3
		c0,0,0,0,0,0c0-0.1,0-0.1,0-0.2C44.1,38.5,44.2,38.5,44.2,38.4z M28.8,33.1C28.8,33.1,28.7,33.1,28.8,33.1
		c-0.2,0.2-0.4,0.3-0.2,0.6C28.7,33.5,28.7,33.3,28.8,33.1z M71.7,32.4c0,0,0.1,0,0.1,0c-0.1-0.2-0.1-0.5-0.2-0.7c0,0-0.1,0-0.1,0
		C71.6,31.9,71.7,32.2,71.7,32.4z M55.4,68.1c-0.1,0.2-0.2,0.3-0.3,0.5c0,0,0.1,0,0.1,0.1c0.1-0.1,0.2-0.2,0.3-0.3
		C55.6,68.3,55.5,68.2,55.4,68.1z M48.3,72.1c-0.1,0.1-0.1,0.2-0.1,0.3c0,0,0.1,0.1,0.1,0.1c0.1-0.1,0.2-0.1,0.3-0.2
		C48.5,72.3,48.4,72.2,48.3,72.1z M60.6,61.2C60.6,61.2,60.7,61.2,60.6,61.2c0.2-0.1,0.3-0.2,0.4-0.4c0,0,0,0,0-0.1
		c-0.1,0-0.2,0.1-0.3,0.1C60.6,61,60.6,61.1,60.6,61.2z M25.9,35.7c-0.1-0.2-0.2-0.2-0.3-0.2c0,0-0.1,0.1-0.1,0.1
		c0.1,0,0.1,0.1,0.2,0.1C25.7,35.8,25.8,35.7,25.9,35.7z M34.8,30.2c-0.2,0-0.5,0-0.6,0.2C34.5,30.4,34.7,30.4,34.8,30.2z
		 M66.5,27.5c0.2-0.1,0.4-0.2,0.6-0.3C66.7,27.1,66.6,27.2,66.5,27.5z M49.8,45.5c-0.2,0.2-0.1,0.3,0.1,0.5
		C49.9,45.8,50.1,45.6,49.8,45.5z M46.7,34.6c-0.2-0.1-0.3-0.1-0.5-0.2c0.1,0.2,0.1,0.3,0.2,0.4c0,0,0.1,0.1,0.1,0.1
		C46.6,34.7,46.6,34.7,46.7,34.6z M25.5,35.4c0.2,0,0.3-0.1,0.3-0.3c0,0-0.1-0.1-0.1-0.1C25.6,35.1,25.5,35.2,25.5,35.4z M27.9,42.4
		C28,42.4,28,42.4,27.9,42.4C28,42.2,28,42.1,28,42c0,0-0.2,0-0.3,0C27.8,42.1,27.9,42.2,27.9,42.4z M68.6,29.1
		c0.3,0.3,0.4-0.1,0.6-0.1c0,0,0,0,0-0.1C69,29,68.8,29.1,68.6,29.1z M34.1,30.4C34.1,30.3,34.1,30.3,34.1,30.4c-0.2,0-0.3,0-0.4,0
		c0.1,0.1,0.1,0.2,0.1,0.3C34,30.6,34.1,30.5,34.1,30.4z M61,31.7c0.1,0.1,0.2,0.2,0.4,0.3c0-0.2,0.1-0.2,0.1-0.3
		C61.4,31.7,61.3,31.7,61,31.7z M74.5,33.9c-0.2,0-0.3,0-0.3,0c0,0.1,0,0.2,0,0.4c0,0,0.1,0,0.1,0C74.3,34.2,74.4,34.1,74.5,33.9z
		 M52.3,69.8C52.4,69.8,52.4,69.8,52.3,69.8c0.2-0.1,0.3-0.2,0.4-0.3c-0.1-0.1-0.1-0.1-0.2-0.2C52.5,69.5,52.4,69.7,52.3,69.8z
		 M35,54.7C35,54.7,34.9,54.7,35,54.7c-0.1-0.1-0.2-0.1-0.3-0.1c0,0.1,0,0.2,0,0.4C34.8,54.8,34.9,54.8,35,54.7z M67.9,38.2
		c0.2-0.1,0.3-0.1,0.3-0.4c-0.1,0-0.2,0-0.3,0.1C67.9,38,67.9,38.1,67.9,38.2z M41.2,59.8c0,0.1-0.1,0.1-0.1,0.2
		c0,0-0.1,0.1-0.1,0.1c0,0.1,0.1,0.1,0.1,0.1c0.1-0.1,0.2-0.2,0.3-0.3C41.3,59.9,41.3,59.8,41.2,59.8z M47.2,71.3
		C47.1,71.3,47.1,71.3,47.2,71.3c-0.2,0-0.2,0-0.3,0.1c0,0,0,0.1-0.1,0.1c0.1,0,0.2,0.1,0.2,0C47,71.5,47.1,71.4,47.2,71.3z
		 M59,31.3C59,31.3,59,31.3,59,31.3c0.4-0.2,0.4-0.2,0.3-0.4C59.2,31,59.1,31.1,59,31.3z M57.4,65.9c-0.1,0.1-0.2,0.1-0.4,0.2
		c0.2,0.1,0.3,0.1,0.4,0.2C57.4,66.2,57.4,66.1,57.4,65.9z M43.4,62.2C43.4,62.2,43.4,62.3,43.4,62.2c0.2,0,0.2-0.1,0.3-0.1
		c-0.1-0.1-0.1-0.1-0.2-0.2C43.4,62,43.4,62.1,43.4,62.2z M56.9,31.2C56.9,31.2,56.9,31.2,56.9,31.2c0.2,0,0.3-0.1,0.5-0.3
		C57,30.8,57,31.1,56.9,31.2z M37.1,29.8C37.1,29.8,37.1,29.8,37.1,29.8c0.2,0.1,0.3,0.1,0.5,0.1C37.5,29.7,37.3,29.7,37.1,29.8z
		 M56.2,65.7C56.2,65.7,56.2,65.7,56.2,65.7c0.1,0,0.2-0.1,0.3-0.1c0.2,0,0.1-0.1,0.1-0.2C56.5,65.4,56.3,65.6,56.2,65.7z
		 M26.6,32.4c-0.3,0.2-0.4,0.4-0.3,0.6C26.4,32.9,26.5,32.7,26.6,32.4z M64.1,50.2C64.1,50.2,64.1,50.2,64.1,50.2
		c0.3-0.1,0.2-0.3,0.3-0.5c0,0,0,0-0.1,0C64.2,49.8,64.1,50,64.1,50.2z M57.7,31.8c0,0,0-0.1,0-0.1c-0.1,0-0.2-0.1-0.3,0
		c0,0-0.1,0.1-0.1,0.2c0,0,0,0,0,0.1C57.4,31.8,57.6,31.8,57.7,31.8z M63.8,29.6C63.8,29.6,63.8,29.6,63.8,29.6
		c-0.2,0-0.3,0.1-0.4,0.2C63.6,29.9,63.8,29.9,63.8,29.6z M67.5,29.2c-0.1-0.1-0.2-0.1-0.3-0.1c-0.1,0-0.1,0.2-0.2,0.2
		c0,0,0,0,0.1,0C67.2,29.4,67.3,29.3,67.5,29.2z M48.4,68.3c0.3,0,0.4-0.1,0.3-0.3C48.6,68.1,48.5,68.2,48.4,68.3z M63.9,50.2
		c-0.3-0.1-0.2,0.1-0.2,0.2c0,0,0.1,0.1,0.1,0.1C63.8,50.4,63.8,50.3,63.9,50.2z M61.8,54.7c-0.2,0-0.2,0.1-0.3,0.1
		c0.1,0.1,0.1,0.2,0.2,0.3C61.7,55,61.7,54.9,61.8,54.7z M65.5,30.4c0.1-0.1,0.2-0.2,0.2-0.3c-0.2,0-0.2,0-0.4,0
		C65.4,30.2,65.5,30.3,65.5,30.4z M67.1,47.3c0,0.1,0,0.2,0,0.4c0,0,0,0,0,0c0.1-0.1,0.1-0.2,0.2-0.4C67.2,47.3,67.1,47.3,67.1,47.3
		z M43.6,32.5C43.5,32.5,43.5,32.5,43.6,32.5c-0.1,0.3,0,0.3,0.3,0.3C43.7,32.7,43.6,32.6,43.6,32.5z M26.4,39.4c0,0,0.1,0,0.1,0
		c0-0.1,0.1-0.2,0.1-0.2c0-0.1-0.1-0.1-0.2-0.2C26.4,39.2,26.4,39.3,26.4,39.4z M44.4,32.3C44.4,32.3,44.4,32.4,44.4,32.3
		c0.4,0.1,0.4,0.1,0.4-0.1C44.7,32.3,44.5,32.3,44.4,32.3z M57.6,64.3c-0.2,0-0.3,0.1-0.4,0.2c0,0,0,0.1,0.1,0.2
		C57.4,64.5,57.5,64.4,57.6,64.3z M28.5,34.9c-0.2,0.2-0.2,0.4,0,0.5C28.5,35.2,28.5,35.1,28.5,34.9z M68.6,43.9
		C68.6,43.9,68.6,43.9,68.6,43.9c0.2,0,0.3-0.1,0.3-0.3C68.7,43.7,68.7,43.8,68.6,43.9z M39.7,33.1c-0.2-0.2-0.3-0.1-0.4,0.1
		C39.5,33.1,39.6,33.1,39.7,33.1z M69.5,29.7C69.6,29.7,69.6,29.7,69.5,29.7c0.2,0,0.2,0,0.3-0.1c0,0-0.1-0.1-0.1-0.1
		C69.7,29.6,69.6,29.6,69.5,29.7z M71.1,36.2c0,0,0.1,0,0.1,0c0-0.1,0-0.2,0.1-0.4c-0.1,0.1-0.2,0.1-0.2,0.1
		C71,36,71.1,36.1,71.1,36.2z M26.1,38.2c-0.3-0.2-0.4-0.2-0.4,0.1C25.8,38.3,25.9,38.3,26.1,38.2z M67.2,28.7
		c-0.2-0.1-0.3-0.1-0.4,0c0,0,0,0.1,0,0.1C67,28.8,67.1,28.8,67.2,28.7z"/>
	<path d="M28.3,47.1c-0.4-0.3-0.2-0.6-0.3-1C28.3,46.5,28.4,46.8,28.3,47.1z"/>
	<path d="M25.1,36.4c0.2,0.2,0.3,0.3,0.4,0.4c0,0,0,0.1,0,0.1c0,0-0.1,0.1-0.2,0.1C25.1,37,25,36.8,25.1,36.4z"/>
	<path d="M25.9,40.6c0.1,0,0.2,0,0.3-0.1c0.1,0.3,0,0.4-0.2,0.5C25.9,40.9,25.9,40.8,25.9,40.6z"/>
	<path d="M47.8,67.7c0.2-0.2,0.3-0.2,0.4,0c0,0.1,0,0.2-0.1,0.3C48,67.8,47.9,67.8,47.8,67.7z"/>
	<path d="M64.3,61.4c-0.1,0.3-0.2,0.5-0.5,0.5C63.8,61.6,64.1,61.6,64.3,61.4z"/>
	<path d="M73.6,47.4c0.1,0,0.2-0.1,0.3-0.1c0,0,0.1,0,0.1,0.1c-0.1,0.1-0.2,0.3-0.2,0.4c0,0-0.1,0-0.1,0
		C73.6,47.6,73.6,47.5,73.6,47.4C73.6,47.4,73.6,47.4,73.6,47.4z"/>
	<path d="M72.9,48.8c0.1-0.1,0.2-0.2,0.3-0.3c0,0,0,0,0.1,0c-0.1,0.2-0.1,0.3-0.2,0.5c0,0-0.1,0-0.1,0C73,48.9,72.9,48.9,72.9,48.8
		C72.9,48.8,72.9,48.8,72.9,48.8z"/>
	<path d="M28.7,48.1c0.2-0.1,0.3-0.1,0.4-0.2c0,0.1,0,0.2,0,0.4C29,48.2,28.9,48.2,28.7,48.1z"/>
	<path d="M71.8,27.2c-0.2,0-0.3-0.1-0.5-0.1C71.6,26.8,71.7,27.1,71.8,27.2C71.8,27.1,71.8,27.1,71.8,27.2z"/>
	<path d="M59.2,54.8c-0.1,0-0.2,0.1-0.3,0.1c0,0,0,0-0.1-0.1c0.1-0.1,0.2-0.3,0.3-0.4c0,0,0,0,0.1,0C59.2,54.6,59.2,54.7,59.2,54.8
		C59.2,54.8,59.2,54.8,59.2,54.8z"/>
	<path d="M67.3,41.9c0-0.1,0.1-0.2,0.1-0.4c0-0.1,0-0.1,0-0.2c-0.1,0-0.1,0-0.2,0c0,0-0.1,0-0.2,0c0.1-0.2,0.1-0.3,0.1-0.4
		c0,0,0.1,0,0.1,0c0,0.1,0,0.1,0,0.2c0.2,0,0.3-0.1,0.4-0.3c0-0.1,0-0.3,0.1-0.4C67.9,41.1,67.7,41.8,67.3,41.9z"/>
	<path d="M56.9,57.2c0.2-0.2,0.4-0.4,0.5-0.7c0,0,0.1,0,0.1-0.1c0,0.1,0.1,0.2,0.2,0.4C57.3,56.7,57.2,57.1,56.9,57.2z"/>
	<path d="M52.8,61.9c0.1,0.3,0,0.5-0.4,0.5C52.6,62.2,52.7,62.1,52.8,61.9z"/>
	<path d="M67.8,36.4c0,0-0.1,0-0.1-0.1c0,0,0,0,0-0.1c0.1,0,0.2,0,0.3,0c0,0.1-0.1,0.2-0.1,0.2c0,0.1-0.1,0.1-0.2,0.1
		C67.8,36.6,67.8,36.6,67.8,36.4C67.8,36.5,67.8,36.5,67.8,36.4z"/>
	<path d="M52.5,62.2c0-0.2,0-0.2,0.4-0.6c0,0,0,0,0,0C52.8,61.8,52.6,62,52.5,62.2z"/>
	<path d="M66.5,43.3c-0.1-0.3,0-0.5,0.3-0.5C66.7,42.9,66.6,43.1,66.5,43.3z"/>
	<path d="M66.1,44c0.1-0.1,0.1-0.3,0.2-0.5c0,0.1,0.1,0.2,0.1,0.3C66.3,43.9,66.2,44,66.1,44C66.1,44.1,66.1,44,66.1,44z"/>
	<path d="M66.6,43.6c0.1-0.1,0.2-0.2,0.3-0.3c0,0,0.1,0,0.1,0.1c-0.1,0.1-0.2,0.2-0.3,0.4C66.7,43.6,66.7,43.6,66.6,43.6z"/>
	<path d="M67.9,35.1c0,0.2,0,0.3,0,0.4C67.6,35.4,67.6,35.4,67.9,35.1z"/>
</g>
</svg>
