<?xml version="1.0" encoding="utf-8"?>
<!-- Generator: Adobe Illustrator 19.2.1, SVG Export Plug-In . SVG Version: 6.00 Build 0)  -->
<svg version="1.1" id="Layer_1" xmlns="http://www.w3.org/2000/svg" xmlns:xlink="http://www.w3.org/1999/xlink" x="0px" y="0px"
	 width="168.5px" height="45px" viewBox="0 0 168.5 45" style="enable-background:new 0 0 168.5 45;" xml:space="preserve">
<style type="text/css">
	.st0{fill:#FFFFFF;}
	.st1{enable-background:new    ;}
</style>
<g>
	<path class="st0" d="M109.8,30.9c-0.4,0-0.7,0.1-1.1,0.1c-0.5,0.1-1.2,0.3-1.6,0.2c-1-0.4-1.7,0.1-2.6,0.2c-0.3,0-0.6,0.3-0.7,0.2
		c-1.1-0.5-2.1-0.1-3.2,0.1c-1.4,0.1-2.7,0.4-4.1,0.5c-0.9,0.1-1.8-0.1-2.6,0c-0.7,0.1-1.4,0.4-2.1,0.5c-2.6,0.3-5.2,0.5-7.7,0.7
		c-1,0.1-1.9,0.1-2.9,0.2c-2.5,0.2-5,0.5-7.4,0.7c-0.9,0.1-2.1-0.3-2.7,0.2c-0.8,0.6-1.4,0.1-2,0.3c-1.1,0.3-2.3-0.1-3.4,0.1
		c-0.3,0.1-0.6,0-0.9,0c-1.5,0-3-0.1-4.4-0.1c-1.3,0-2.6,0.2-3.9,0.3c-0.9,0-1.8-0.1-2.7-0.1c-1.9,0.1-3.8,0.3-5.7,0.3
		c-1.4,0-2.9-0.1-4.3-0.2c-5.9-0.2-11.8-0.4-17.7-1c-3.9-0.4-7.9-0.5-11.7-1.4c-2.7-0.6-5.1-1.5-7.2-3.3c-0.5-0.4-0.5-0.7-0.3-1.2
		c0.9-1.8,2.5-3,4.2-3.9c2.7-1.5,5.5-2.6,8.3-3.9c1-0.5,2-0.9,3-1.2c2.1-0.7,4.2-1.4,6.3-2.1c3-1,6-2,9.1-2.8
		c3.2-0.9,6.5-1.5,9.8-2.2c1.5-0.3,3-0.7,4.5-0.9c3.4-0.5,6.8-1,10.2-1.5c2.9-0.4,5.9-0.8,8.8-1.1s5.8-0.4,8.7-0.6
		c3.6-0.2,7.2-0.5,10.8-0.6c6.1-0.2,12.2-0.3,18.3-0.4c0.4,0,0.8,0,1.1-0.2c0.3-0.1,0.6-0.5,0.6-0.7c0-0.7-0.1-1.4-0.2-2.1
		c-0.2-0.9-0.8-1.4-1.8-1.4c-2.3,0-4.7-0.1-7-0.1c-5,0.2-10,0.5-15,0.8c-4.1,0.1-8.1,0.3-12,0.7c-4,0.4-7.9,1-11.8,1.5
		c-2.5,0.3-5,0.6-7.4,1c-5.2,0.9-10.4,1.8-15.6,3c-7,1.7-13.8,3.8-20.5,6.3c-3.9,1.5-7.8,3-11.5,5c-1.8,1-3.4,2.2-4.7,3.9
		c-1,1.4-1.6,2.9-1.2,4.7c0.6,2.7,2.3,4.3,4.6,5.5C11,37.2,16,38,20.9,38.7c3,0.5,6.1,0.5,9.1,0.7s5.9,0.4,8.9,0.5
		c1.4,0.1,2.9-0.1,4.3-0.1c3.9-0.1,7.8-0.1,11.8-0.2c3.6-0.1,7.3-0.3,10.9-0.5c3.5-0.2,7.1-0.4,10.6-0.7s7.1-0.6,10.6-0.9
		c3.1-0.3,6.2-0.5,9.2-0.8c0.9-0.1,1.8-0.4,2.7-0.5c2.7-0.3,5.5-0.4,8.2-0.8c4.6-0.5,9.2-1.2,13.8-1.3c0.7,0,1.5-0.1,2.2-0.3
		c2.7-0.5,5.4-1.2,8.1-1.4c5.9-0.5,11.7-1.7,17.5-2.6c2.1-0.3,4.1-0.8,6.2-1.2c0.2,0,0.4-0.1,0.6-0.2c1-0.3,2-0.7,3-1
		c1.8-0.5,3.6-1.1,5.4-1.5c1.1-0.3,2.3-0.5,3.1-1.3c0.5-0.5,1.2-1.1,1.3-1.7c0.4-1.9,0.3-3.9-1.5-5.2c-0.2-0.1-0.3-0.3-0.5-0.5
		c-1-0.8-2.1-1.5-3.5-1.4c-0.8,0.1-1.6,0-2.4-0.2c-1.1-0.2-2.1-0.6-3.1-1c-0.5-0.2-0.8-0.6-1.4-0.6c-0.5,0.1-1.1,0-1.6,0
		c-1.5-0.2-3.2,0-4.6-0.8c-0.5-0.3-1.2-0.2-1.8-0.3c-0.7-0.1-1.4-0.1-2.1-0.2c-2.3-0.2-4.5-0.4-6.8-0.5c-3.1-0.1-6.2-0.2-9.3-0.2
		c-5.1,0-10.1-0.1-15.2,0c-5.5,0.1-10.9,0.4-16.3,1.4c-0.9,0.2-1.9,0.2-2.8,0.4c-0.6,0.1-1.2,0.3-1.1,1.1c0.1,0.7,1.5,1.9,2.2,1.8
		c2.4-0.2,4.8-0.3,7.2-0.5c1.3-0.1,2.7-0.1,4,0c2.1,0.1,4.2,0.3,6.3,0.4c0-0.1,0-0.2,0-0.3c-1.2,0-2.3,0-3.5,0c0-0.1,0-0.2,0-0.2
		c1.7,0,3.4,0,5.1,0c6.4,0,12.8-0.1,19.2-0.1c1.8,0,3.6,0.1,5.4,0.8c0.2,0.1,0.5,0.1,0.7,0.1c2.9,0.3,5.8,0.7,8.8,0.9
		c2.1,0.2,4.1,1.2,6.3,0.3c0.5-0.2,1.2,0.2,1.7,0.4c1.4,0.4,2.7,0.9,4.1,1.3c0.3,0.1,0.6,0.1,0.8,0.3c0.3,0.2,0.7,0.5,0.7,0.8
		c0,0.2-0.4,0.6-0.6,0.8c-0.6,0.3-1.2,0.6-1.9,0.9c-1.4,0.6-2.9,1.2-4.3,1.7c-0.7,0.3-1.5,0.3-2.3,0.5c-3.6,0.8-7.2,1.6-10.8,2.2
		c-2,0.4-4,0.5-6.1,0.7c-3,0.3-5.9,1-8.9,1.2c-0.1,0-0.1,0-0.2,0c-2.1,0.2-4.3,0.3-6.4,0.5c-1,0.1-1.9,0.2-2.9,0.3
		c-0.8,0.1-1.6,0.4-2.4,0.5c-1.2,0.1-2.4,0-3.6,0.1C111.9,30.4,110.7,30.1,109.8,30.9z"/>
	<path d="M109.8,30.9c0.9-0.8,2.2-0.5,3.2-0.6c1.2-0.1,2.4,0,3.6-0.1c0.8-0.1,1.6-0.4,2.4-0.5c1-0.1,1.9-0.2,2.9-0.3
		c2.1-0.2,4.3-0.3,6.4-0.5c0.1,0,0.1,0,0.2,0c3-0.2,5.9-0.9,8.9-1.2c2-0.2,4.1-0.3,6.1-0.7c3.6-0.7,7.2-1.5,10.8-2.2
		c0.8-0.2,1.5-0.2,2.3-0.5c1.5-0.5,2.9-1.1,4.3-1.7c0.6-0.3,1.3-0.5,1.9-0.9c0.3-0.2,0.7-0.5,0.6-0.8c0-0.3-0.4-0.6-0.7-0.8
		c-0.2-0.2-0.5-0.2-0.8-0.3c-1.4-0.4-2.7-0.9-4.1-1.3c-0.6-0.2-1.3-0.6-1.7-0.4c-2.2,0.9-4.2-0.2-6.3-0.3c-2.9-0.2-5.8-0.6-8.8-0.9
		c-0.2,0-0.5,0-0.7-0.1c-1.7-0.7-3.6-0.8-5.4-0.8c-6.4,0-12.8,0.1-19.2,0.1c-1.7,0-3.4,0-5.1,0c0,0.1,0,0.2,0,0.2c1.2,0,2.3,0,3.5,0
		c0,0.1,0,0.2,0,0.3c-2.1-0.1-4.2-0.3-6.3-0.4c-1.3-0.1-2.7,0-4,0c-2.4,0.1-4.8,0.3-7.2,0.5c-0.7,0-2.2-1.1-2.2-1.8
		c-0.1-0.8,0.6-1,1.1-1.1c0.9-0.2,1.9-0.2,2.8-0.4c5.4-0.9,10.8-1.3,16.3-1.4c5.1-0.1,10.1,0,15.2,0c3.1,0,6.2,0.1,9.3,0.2
		c2.3,0.1,4.5,0.3,6.8,0.5c0.7,0.1,1.4,0.1,2.1,0.2c0.6,0.1,1.3,0,1.8,0.3c1.5,0.8,3.1,0.6,4.6,0.8c0.5,0.1,1.1,0.1,1.6,0
		c0.6-0.1,0.9,0.3,1.4,0.6c1,0.4,2.1,0.8,3.1,1c0.8,0.2,1.6,0.2,2.4,0.2c1.4-0.1,2.5,0.6,3.5,1.4c0.2,0.1,0.3,0.3,0.5,0.5
		c1.8,1.4,1.9,3.3,1.5,5.2c-0.1,0.6-0.8,1.2-1.3,1.7c-0.9,0.8-2,1-3.1,1.3c-1.8,0.5-3.6,1-5.4,1.5c-1,0.3-2,0.7-3,1
		c-0.2,0.1-0.4,0.1-0.6,0.2c-2.1,0.4-4.1,0.9-6.2,1.2c-5.8,0.9-11.6,2.1-17.5,2.6c-2.7,0.2-5.4,0.9-8.1,1.4
		c-0.7,0.1-1.5,0.3-2.2,0.3c-4.6,0.1-9.2,0.8-13.8,1.3c-2.7,0.3-5.5,0.5-8.2,0.8c-0.9,0.1-1.8,0.4-2.7,0.5c-3.1,0.3-6.1,0.6-9.2,0.8
		c-3.5,0.3-7.1,0.7-10.6,0.9c-3.5,0.3-7.1,0.5-10.6,0.7c-3.6,0.2-7.3,0.4-10.9,0.5c-3.9,0.1-7.8,0.1-11.8,0.2
		c-1.4,0-2.9,0.2-4.3,0.1c-3-0.1-5.9-0.3-8.9-0.5c-3.1-0.2-6.1-0.3-9.1-0.7C16,38,11,37.2,6.5,34.9c-2.3-1.2-4-2.8-4.6-5.5
		C1.4,27.7,2,26.2,3,24.8c1.2-1.7,2.9-2.9,4.7-3.9c3.7-2.1,7.6-3.5,11.5-5c6.7-2.6,13.6-4.6,20.5-6.3c5.1-1.3,10.4-2.1,15.6-3
		c2.5-0.4,5-0.7,7.4-1c4-0.6,8-1.2,11.9-1.6s7.9-0.6,11.8-0.8c5-0.3,10-0.6,15-0.8c2.3-0.1,4.7,0,7,0.1c1,0,1.6,0.5,1.8,1.4
		c0.2,0.7,0.2,1.4,0.2,2.1c0,0.3-0.3,0.6-0.6,0.7c-0.3,0.2-0.7,0.1-1.1,0.2C102.6,7,96.5,7.1,90.4,7.3C87,7.4,83.4,7.7,79.8,8
		c-2.9,0.2-5.8,0.3-8.7,0.6c-3,0.3-5.9,0.7-8.8,1.1c-3.4,0.5-6.8,0.9-10.2,1.5c-1.5,0.2-3,0.6-4.5,0.9c-3.3,0.7-6.5,1.4-9.8,2.2
		c-3.1,0.8-6.1,1.8-9.1,2.8c-2.1,0.7-4.2,1.3-6.3,2.1c-1,0.4-2,0.8-3,1.2c-2.8,1.3-5.6,2.5-8.3,3.9c-1.7,0.9-3.3,2.1-4.2,3.9
		c-0.3,0.6-0.2,0.9,0.3,1.2c2.1,1.8,4.6,2.6,7.2,3.3c3.9,0.9,7.8,1.1,11.7,1.4c5.9,0.5,11.8,0.7,17.7,1c1.4,0.1,2.9,0.2,4.3,0.2
		c1.9,0,3.8-0.3,5.7-0.3c0.9,0,1.8,0.1,2.7,0.1c1.3,0,2.6-0.2,3.9-0.3c1.5,0,3,0,4.4,0.1c0.3,0,0.6,0.1,0.9,0
		c1.1-0.3,2.2,0.2,3.4-0.1c0.6-0.2,1.2,0.3,2-0.3c0.6-0.5,1.8-0.1,2.7-0.2c2.5-0.2,5-0.5,7.4-0.7c1-0.1,1.9-0.1,2.9-0.2
		c2.6-0.2,5.2-0.4,7.7-0.7c0.7-0.1,1.4-0.4,2.1-0.5c0.9-0.1,1.8,0.1,2.6,0c1.4-0.1,2.7-0.4,4.1-0.5c1-0.1,2.1-0.6,3.2-0.1
		c0.2,0.1,0.5-0.2,0.7-0.2c0.8-0.2,1.6-0.6,2.6-0.2c0.4,0.2,1.1-0.1,1.6-0.2C109.1,31,109.4,30.9,109.8,30.9z"/>
</g>
<g class="st1">
	<path d="M30.8,24.7l-0.1,0.1v0.1l0,0.1l0,0l0,0.1c-0.1,0-0.2,0.1-0.2,0.2l-0.1,0.2l0,0l-0.1,0c0,0.1,0,0.1,0,0.1l-0.1,0l0,0.2
		c0,0-0.1,0-0.1,0.1l0,0.1l-0.1,0l-0.1,0c0,0-0.1,0-0.1,0.1l0,0.2l0,0.1c-0.1,0-0.1-0.1-0.1-0.1l-0.1-0.1c0,0-0.1,0-0.1,0.1l0,0.1
		l-0.2,0.2l-0.1,0l0,0l0,0L29,26.2c0,0-0.1-0.1-0.1,0c0,0-0.1,0-0.1,0.1c0,0.1,0,0.1,0,0.1c-0.1,0-0.1,0-0.2,0l-0.1,0.1
		c0,0-0.1,0-0.1,0l0-0.1h-0.1c0,0,0,0.1,0,0.1c0,0.1,0,0.1,0,0.1h-0.1l0-0.1H28l-0.1,0l-0.1,0l0,0.1l-0.1,0.1h-0.1L27.6,27l-0.2,0.1
		l-0.2,0l-0.1,0.1l-0.2-0.1l0,0.1l-0.1,0l-0.1,0.1l0,0c-0.1,0-0.1,0-0.2,0.1c-0.1,0-0.1,0.1-0.1,0l0-0.2l0.1-0.1c0,0-0.1,0-0.1,0
		l-0.1,0.2c0,0-0.1-0.1-0.1-0.2L25.8,27c0,0-0.1-0.2-0.1-0.4l0-0.6l0-0.2l-0.1,0l0-0.1l0-0.2l0-0.2l-0.1-0.3l0-0.3
		c0-0.1,0-0.2,0-0.2l0-0.2l-0.3-1.7v-0.3l0-0.2l-0.1-0.4L25,21.8l0-0.4L25,21.4c0,0,0-0.1,0.1,0l0.1,0l0.1-0.1l0.1-0.1l0.1,0l0-0.2
		l0.1,0l0,0l0.1-0.1l0-0.1c0-0.1,0.1-0.1,0.2-0.2l0.1-0.2l0,0.1l0,0.1l0.1,0l0-0.1l0.2,0l0,0.1h0.1l0,0.3l0,0l0,0.3
		c0,0-0.1,0-0.1-0.1l-0.1,0c0,0-0.1,0.1-0.1,0.1v0.1l0,0l0.1-0.1c0,0,0,0.1,0.1,0.1l0,0l0,0v0.1l0,0.1l0,0l0,0l0,0l0.1,0.1l0,0.2
		l0.1,0.1l0,0.1l0,0.2l0,0.1l0,0.2v0.2l0.1,0.2l0,0.2l0,0.2l0,0.2c0,0-0.1,0-0.1,0l0,0l0.1,0.1l0,0.2c0,0,0,0.1,0,0.1
		c0,0,0,0.1,0,0.1l-0.1,0.2l0,0.2l0,0.1l0,0.1v0.2l0,0.2l0,0l0.1,0l0,0.1L26.5,25l0,0c0,0.1,0,0.1,0,0.1l0.1,0.1l0,0.1
		c0,0.1,0,0.1,0.1,0.2l0,0h0.1l0.2,0l0.5-0.2l0.1,0c0,0,0.1,0,0.1,0l0.1-0.1c0.2,0,0.3-0.1,0.3-0.1l0.3-0.2l0.5-0.2l0.2-0.1l0.1,0
		l0.2,0l0.1,0c0.1,0,0.1,0,0.2-0.1c0.1,0,0.1-0.1,0.1-0.1l0-0.1l0.1,0.1l0.1-0.1l0,0l0.2-0.1l0.2-0.1l0.1,0l0.1,0c0,0,0,0,0,0.1
		s0,0.1,0,0.1V24.7z M26,20.3C26,20.4,26,20.4,26,20.3C26,20.4,26,20.4,26,20.3C26,20.3,26,20.3,26,20.3z M26.2,26.9
		C26.2,26.9,26.2,26.9,26.2,26.9C26.2,26.9,26.2,27,26.2,26.9C26.2,26.9,26.2,26.9,26.2,26.9C26.2,26.9,26.2,26.9,26.2,26.9z
		 M26.6,24.5C26.7,24.5,26.7,24.6,26.6,24.5C26.6,24.6,26.6,24.6,26.6,24.5C26.6,24.5,26.6,24.5,26.6,24.5
		C26.6,24.5,26.6,24.5,26.6,24.5z M28.6,26.3L28.6,26.3l-0.1,0.1l0.1,0.1L28.6,26.3L28.6,26.3z"/>
	<path d="M38.5,25.1l0,0.2l-0.1,0.1l0,0.1l0,0.1l-0.1,0.2l-0.2,0.3H38l-0.1,0.1c0,0-0.1,0.1-0.1,0.1c0,0,0,0-0.1,0l-0.2,0l0-0.1
		c0,0,0,0-0.1,0c0,0,0,0.1,0,0.2c0,0.1,0,0.2,0,0.2c0,0.1-0.1,0.1-0.1,0.1l-0.1,0l-0.1,0v0.1L37,27l-0.2,0l-0.1,0.1l-0.2,0
		c-0.1,0-0.1,0-0.1,0l0,0c0,0,0-0.1,0-0.1c0,0,0-0.1,0-0.1c0,0-0.1,0-0.2,0l-0.1,0c0,0,0,0,0-0.1c0,0,0,0,0,0l-0.1,0l0,0l0,0l0,0
		l0,0.1c0,0-0.1,0.1-0.1,0.1h-0.1l-0.1,0l-0.1,0l-0.3-0.2l0-0.1c-0.1,0-0.1-0.1-0.2-0.1l0-0.1l0,0l-0.1,0l-0.2,0l-0.1-0.1l-0.1-0.1
		c-0.1,0-0.1,0-0.1,0l-0.1,0c0,0-0.1,0-0.1-0.1l0-0.2L34,26.2l0,0l0-0.1l0-0.1l-0.1,0L33.8,26l0-0.2l-0.1-0.2c0-0.1-0.1-0.2-0.1-0.2
		l-0.1-0.1l-0.1,0L33.1,25l-0.3-0.3l-0.1-0.1l-0.1-0.1l-0.1,0l-0.2-0.1l0-0.1c0,0,0-0.1-0.1-0.1L32.1,24l-0.2-0.1l-0.1,0l-0.1,0
		l-0.2-0.2l-0.1-0.2c0-0.1,0-0.2,0-0.2l-0.2-0.2l0-0.2l0-0.1c0-0.1,0-0.1,0-0.2l0.1-0.3l0-0.2l0.1-0.1v-0.2l0.1-0.1l0-0.1
		c0-0.1,0-0.1,0-0.1l0.4-0.2l0-0.1c0,0,0-0.1,0.1-0.1l0.1,0l0-0.1c0,0,0.1,0,0.1,0l0.2-0.2l0.1-0.2l0.1,0l0.1-0.1l0.1-0.1h0.1h0.2
		c0.1,0,0.1,0,0.2,0l0.1,0l0.1,0l0-0.1h0.1l0,0.1c0,0,0,0.1,0,0.1l0.1,0l0.1-0.1l0.2,0l0.2,0l0.2,0.2c0.1,0,0.1,0.1,0.2,0.2l0.1,0.2
		l0.2-0.1l0.2,0.1l0.3,0l0.1,0.1v0.1l0.2,0l0.1,0.1l0.1,0.1l0.1,0l0.1,0l0,0.1l0,0.1l0,0.3c0,0-0.1,0-0.1,0.1c0,0.1,0,0.1,0,0.1
		l0.1,0l0.2,0c0.1,0,0.1,0,0.2,0c0,0,0.1,0,0.1,0.1l0,0.1l0,0.1l0.2,0.1c0.1,0.1,0.1,0.2,0.1,0.2l0.3,0.1c0,0.1,0.1,0.1,0.1,0.2
		l0.1,0l0.2,0.2l0,0.1h0.1c0,0,0,0.1,0,0.1c0,0,0,0.1,0,0.1l0.1,0.1c0,0,0.1,0.1,0.1,0.1l0.1,0.1l0.1,0.2l0.1,0.3l0.1,0.3l0.1,0.2
		l-0.1,0.1l0.1,0.1L38.5,25.1z M37.2,24.8c0-0.1,0-0.2,0-0.3l-0.1-0.1v-0.1L37,24.3l-0.1-0.2l-0.1-0.2l-0.1,0l-0.1,0l0-0.1
		c0-0.1,0-0.1-0.1-0.2l-0.1-0.1l-0.1-0.1c0-0.1,0-0.1-0.1-0.1l-0.1-0.1l0-0.1l-0.1,0l-0.1,0L36,22.8c0,0,0,0,0.1-0.1l-0.3-0.3
		c0,0-0.1,0-0.1,0l-0.1,0l-0.2-0.2l-0.2-0.2L35,22l-0.2-0.1l-0.1-0.2l-0.1,0l-0.2-0.1l-0.1-0.1L34,21.3c0-0.1,0-0.1,0-0.1l0.1-0.1
		l0-0.1c-0.1,0-0.2,0-0.4,0.1l-0.2,0.1c-0.3,0.1-0.6,0.3-0.9,0.6c-0.3,0.3-0.5,0.6-0.5,0.9c0,0,0,0.1,0,0.2c0,0.1,0,0.1,0,0.2
		l0.2,0.4c0.2,0.3,0.4,0.6,0.7,0.9c0.2,0.2,0.5,0.4,1,0.6c0.3,0.2,0.7,0.3,1,0.4c0.3,0.1,0.6,0.2,1,0.2c0.2,0,0.4,0,0.6-0.1
		c0.2-0.1,0.3-0.1,0.5-0.2C37.1,25.1,37.2,25,37.2,24.8z M34.9,27C34.9,27,34.9,27,34.9,27l-0.2,0l-0.1-0.1l0,0l0.2,0.1
		C34.9,27,34.9,27,34.9,27z M35.3,27L35.3,27C35.3,27,35.3,27,35.3,27C35.3,27,35.3,27,35.3,27C35.3,26.9,35.3,26.9,35.3,27z
		 M35.9,21.5L35.9,21.5l-0.1,0.1l-0.1,0l0.1,0.1l0-0.1L35.9,21.5z M36,21.7c0,0-0.1,0-0.1,0.1C36,21.7,36,21.7,36,21.7
		C36,21.7,36,21.7,36,21.7z M36.3,21.4L36.3,21.4L36.3,21.4C36.3,21.4,36.3,21.4,36.3,21.4z M37.3,26.6
		C37.3,26.6,37.4,26.6,37.3,26.6L37.3,26.6L37.3,26.6L37.3,26.6L37.3,26.6z"/>
	<path d="M43.9,19.5l0.2,0.1l0.1,0.1l0.1,0l0.3,0.3l0.3,0.3l0.2,0.3c0,0.1,0,0.1,0,0.2c0,0.1,0,0.1,0,0.1L45,20.7
		c-0.1-0.1-0.2-0.1-0.2-0.1l-0.3,0l-0.1-0.1l0.1,0l-0.2-0.1l-0.3,0.1l0-0.1c0,0,0-0.1-0.1-0.1c0,0,0,0,0,0s0,0,0,0.1l0.1,0.1
		c0,0-0.1,0-0.1,0h-0.1l-0.1,0c0,0.1-0.1,0.1-0.1,0.1l-0.1,0c0,0,0,0.1,0,0.1l0,0c0,0-0.1,0-0.1,0h-0.1l0,0.1l0,0.1c0,0-0.1,0-0.1,0
		L42.9,21l-0.1,0l-0.2,0l-0.2,0L42.3,21l-0.1,0l-0.1,0l0,0.1c0,0,0,0.1,0,0.1c0,0-0.1,0-0.1,0c0,0-0.1,0-0.1,0c-0.1,0-0.2,0-0.2,0.1
		l-0.2,0.1l-0.2,0.1l-0.3,0.3l0,0.1l0,0.1l-0.2,0.3c-0.1,0.2-0.2,0.3-0.2,0.5l-0.3,0.9l-0.1,0.2l0,0.1l-0.1,0.1c0,0.1,0,0.2,0,0.3
		L40,24.8v0.2c0,0.1,0,0.2,0,0.3l-0.1,0.2l0.1,0.2l0,0.2l0,0c0,0,0.1,0.1,0.1,0.2c0,0.1,0,0.2,0,0.2c0,0.1,0,0.1,0.1,0.2l0,0.1
		c0,0,0,0.1,0,0.1c0.1,0.2,0.2,0.3,0.3,0.5l0.2,0.1l0.3,0.1l0.2,0l0.2,0h0.2c0.2,0,0.3,0,0.5,0c0.2,0,0.3-0.1,0.6-0.2l1-0.5
		c0.1,0,0.2-0.1,0.4-0.3l0.3-0.3l0.1-0.2c0-0.1,0.1-0.1,0.2-0.1l0,0.1l0,0.2l0,0l0.1,0l-0.1,0c0,0,0,0.1,0,0.2l0.1,0.1c0,0,0,0,0,0
		c0,0,0,0,0,0l0.1,0.1l-0.1,0.1l0.1,0l0.1,0l-0.1,0.1l-0.1,0l0,0.1c0,0,0,0,0,0s0,0,0,0c0,0,0.1,0,0.1,0l0,0.1l-0.1,0.1l0,0.1
		c0,0.1,0,0.1,0,0.1c0,0,0,0.1-0.1,0.2l-0.1,0.1l-0.1,0l0,0.1l0,0l-0.1,0.1l-0.1,0.2L44,28.3l-0.1,0.1l-0.1,0.1c-0.1,0-0.1,0-0.2,0
		l0,0.1l-0.1,0h-0.1c0,0,0,0,0,0c0,0,0,0,0,0l-0.1,0c0,0.1,0,0.1-0.1,0.2L43,29.1l-0.1,0h-0.1l-0.1,0L42.4,29l-0.2,0.1l-0.1,0L42,29
		l-0.1,0l-0.1,0l0,0L41.6,29l-0.3,0l-0.3,0c0,0-0.1-0.1-0.1-0.1c0,0,0-0.1,0-0.1l-0.3-0.1c-0.1,0-0.2-0.1-0.3-0.1l-0.1-0.1l-0.1,0
		l0-0.1c-0.1,0-0.1,0-0.1,0l-0.1-0.2l-0.1-0.1c-0.1-0.1-0.1-0.2-0.2-0.4l0-0.1l0,0l-0.1-0.2l-0.1-0.1l0-0.1L39.3,27l0-0.1
		c0,0,0-0.1,0-0.1l-0.1-0.1l0-0.1l0-0.1l-0.1,0L39,26.3l0,0l0-0.1L39.1,26l0-0.1l0-0.1l0-0.1L39,25.5c0-0.1,0-0.1,0.1-0.1
		c0,0,0-0.1,0-0.1L39,25.2v-0.1l0.1-0.1l0-0.2l0-0.2l0.1-0.2l0-0.2l0.1,0l0-0.2l0-0.1l0-0.1l0-0.1l0,0l0.1-0.1l0.2-0.2l0-0.1l0-0.1
		l0.1-0.1l0-0.1l0-0.2l0.1-0.2l0.2-0.3l0-0.2l0.1-0.1c0,0,0.1-0.1,0.1-0.1l0.1-0.2h0.1l0.1,0l0,0c0,0,0-0.1,0-0.1l0.1-0.2l0-0.1
		c0.1,0,0.1,0,0.2-0.1l0.1-0.1l0.2-0.1l0.1-0.3l0.2,0l0,0l0,0c0,0,0.1,0,0.1-0.1l0.1-0.1l0.1,0v0l0.1,0l0,0l0,0
		c0.1,0,0.1-0.1,0.2-0.1c0.1,0,0.2,0,0.2-0.1h-0.2c-0.1,0-0.1,0-0.1,0c0,0,0,0,0.1,0h0.1l0.1-0.1l0.1-0.1l0.1,0l0.1,0l0,0l0,0l0,0
		c0,0-0.1,0-0.1,0l0,0c0,0,0-0.1,0.1-0.1h0.1l0,0l0.1,0l0-0.1l0.1,0l0.1,0c0,0,0,0,0-0.1c0,0,0,0,0,0l0.1,0h0.1l0.1,0l0.1-0.1
		l0.1,0.1l0.2-0.2c0.1,0,0.2-0.1,0.2,0l0.3,0.1C43.8,19.5,43.9,19.5,43.9,19.5z M39.7,27.7L39.7,27.7L39.7,27.7L39.7,27.7z
		 M39.8,27.9L39.8,27.9L39.8,27.9L39.8,27.9z M40.2,28.5L40.2,28.5L40.2,28.5L40.2,28.5z M40.2,22.7L40.2,22.7L40.2,22.7L40.2,22.7
		L40.2,22.7z M42.2,20.4L42.2,20.4c0.1-0.1,0.1-0.1,0.2-0.1c0,0,0,0,0,0.1C42.3,20.4,42.3,20.4,42.2,20.4z M42.4,20.9
		C42.4,20.9,42.4,20.9,42.4,20.9C42.4,20.8,42.4,20.8,42.4,20.9C42.5,20.9,42.5,20.9,42.4,20.9C42.4,20.9,42.4,20.9,42.4,20.9z
		 M42.4,20.5C42.4,20.4,42.4,20.4,42.4,20.5c0-0.1,0-0.2,0.1-0.1C42.5,20.4,42.5,20.4,42.4,20.5C42.5,20.5,42.5,20.5,42.4,20.5z
		 M42.5,20.8L42.5,20.8c0.1,0,0.1,0,0.1,0L42.5,20.8L42.5,20.8z M42.6,20.2C42.5,20.2,42.5,20.1,42.6,20.2c-0.1-0.1-0.1-0.1,0-0.1
		C42.6,20.1,42.7,20.1,42.6,20.2C42.6,20.1,42.6,20.2,42.6,20.2z M43,20.2L43,20.2L43,20.2L43,20.2L43,20.2z M43.1,19.9L43.1,19.9
		L43.1,19.9L43.1,19.9L43.1,19.9z M43.2,20.2v-0.1c0,0,0,0,0,0C43.3,20.1,43.3,20.1,43.2,20.2L43.2,20.2z M43.3,20.7L43.3,20.7
		C43.3,20.7,43.3,20.7,43.3,20.7l0.1,0C43.3,20.8,43.3,20.8,43.3,20.7z M43.7,28.4L43.7,28.4L43.7,28.4L43.7,28.4
		C43.7,28.3,43.7,28.3,43.7,28.4z"/>
	<path d="M54.5,27.9L54.5,27.9l-0.1,0l-0.2,0.2l-0.3,0.2c0,0.1,0,0.1,0,0.1l-0.1,0l-0.1,0.1l0,0.1c0,0-0.1,0-0.2,0l-0.1-0.2l-0.1,0
		l-0.1-0.2l-0.1,0l-0.1,0l-0.1-0.1V28c-0.1,0-0.1,0-0.2-0.1c0-0.1,0-0.1-0.1-0.1l-0.2-0.1l-0.1-0.2l-0.2-0.1l0-0.1l-0.1-0.1
		c0,0-0.1-0.1-0.1-0.1c0,0,0.1-0.1,0-0.1l-0.1,0l0-0.1c-0.1,0-0.1,0-0.1-0.1v-0.1l0,0l-0.1-0.1l0-0.1l-0.2,0l-0.1,0
		c0,0-0.1,0.1-0.1,0.1l-0.1,0l-0.1,0l-0.1,0.1l-0.2,0h-0.2l-0.3-0.1l-0.1,0l0,0l-0.3,0l-0.1-0.1l0,0l0,0.1c-0.1,0-0.1,0-0.2-0.1
		l-0.1-0.1l-0.1,0l0,0c-0.1,0-0.1,0-0.2,0l0,0l-0.1-0.1l-0.2,0l-0.2,0l-0.2,0l-0.1,0.2c0,0,0,0,0,0c0,0,0,0,0,0l0,0.2L48.2,27l0,0.1
		l-0.1,0.3l0,0.4L48,28.4c0,0,0,0.1,0,0.1c0,0.1,0,0.2-0.1,0.4l-0.1,0.3l0,0.2l0,0.2l0,0l0,0.2l0,0L47.7,30l-0.1,0l-0.1,0l0-0.1
		l-0.1,0.1c0,0-0.1,0.1-0.1,0.1l-0.1-0.1l-0.1,0L47,29.8l0,0l0,0l-0.1,0l0,0.1l0,0l-0.1-0.1c0-0.1,0-0.1,0-0.1l0,0l0-0.1
		c0,0,0,0-0.1,0l-0.1,0c0,0,0,0,0,0.1l0.1,0l0,0l-0.1,0.1l-0.2,0l-0.1,0l0,0.1c0,0,0,0.1,0,0.1c0,0-0.1,0-0.1-0.1s0,0-0.1-0.1
		c0,0.1-0.1,0.1-0.1,0.1c0,0,0,0-0.1,0v-0.1l0,0l0-0.2l0.1-0.1l0-0.1c0-0.1,0-0.2,0.1-0.3l0-0.1l0-0.1v0v-0.3l0.1-0.2l0-0.1l0.1-0.5
		c0-0.2,0.1-0.3,0.1-0.4c0,0,0-0.1,0-0.1l0.1-0.2l0-0.4l0-0.1l0.1-0.5l0-0.4l0-0.3l0-0.1l0-0.1c0-0.1,0-0.1,0-0.2l0.1-0.1l0-0.1
		l0-0.2l0-0.2l0-0.1c0,0,0-0.1,0.1-0.1l0.1-0.1l-0.1-0.3l0.1,0l0.1,0l0-0.1v-0.1l-0.1-0.1l0,0l0-0.1l0-0.1l0-0.1l0.1-0.2l0.1-0.3
		l0,0c0,0,0,0,0,0l0-0.2l0-0.1l-0.1-0.1c0-0.1-0.1-0.1,0-0.2c0,0,0.1,0,0.1,0l0.1,0l0,0.1h0c0,0,0-0.1,0-0.1L46.8,22l0-0.2l0.1,0
		v-0.1l-0.1-0.1c0-0.1-0.1-0.3-0.1-0.3l0-0.1c0,0,0-0.1,0-0.1l0.1,0l0,0l0-0.1l0.1-0.1l0.1-0.1l0-0.2c0.1,0,0.2,0,0.2,0l-0.1-0.1
		C47,20.5,47,20.5,47,20.4c0-0.1,0.1-0.1,0.3-0.2l0-0.1l0.2,0l0.1,0v-0.1l0.1,0.1c0,0,0,0,0.1,0s0,0,0.1,0l0.1,0.1l-0.1,0
		c0,0,0,0.1,0,0.1l0,0l0,0.1l0.1,0l0.1,0l0-0.1l0.1,0.1l0-0.1c0,0,0,0,0.1,0l0,0.1c0,0,0.1,0.1,0.1,0.1l0.1,0h0.1l-0.1,0.1l0.1,0
		c0.1,0,0.1,0,0.2,0.1l0.1,0.2l0.2,0.2c0.1,0.1,0.1,0.2,0.1,0.2v0.2l0,0.1l0,0.1c0,0,0,0-0.1,0s0,0,0,0l0.1,0l-0.1,0.1
		c0,0,0.1,0,0.1,0c0,0,0.1,0,0.1,0l0,0.1l0,0.1l0.1,0l0.1,0.1l0,0.1l0.1,0.1l0,0.2l0.1,0c0,0,0.1,0,0.1,0v0.1l0,0c0,0,0.1,0,0.1,0
		l0.1,0.1l0.1,0c0,0,0,0,0,0.1l0.2,0.1l0,0.1l0.2,0.1l0.1,0.2l0.2,0.1c0,0,0,0.1,0,0.1l0,0.1L51,24c0,0,0,0,0,0c0,0,0,0,0,0l0.2,0.1
		l0.2,0.2l0,0.1c0,0.1,0,0.1,0.1,0.2l0.4,0.1c0,0,0.1,0,0.1-0.1c0,0,0.1,0,0.3,0.1l0.1,0.1l0,0.1l-0.1,0c0,0,0.1,0.1,0.1,0.1
		c0.1,0,0.1,0,0.1,0l-0.1,0.1l-0.1,0.1l0.1,0l0.1,0.1c0.1,0.1,0.1,0.2,0.1,0.2l0.1,0c0.1,0,0.1,0,0.1,0l0.1,0.1l0.1,0.1l0.1,0.2
		l0.1,0c0.1,0,0.1,0,0.1,0c0,0,0,0,0,0.1c0,0,0,0,0,0l0.1,0.1c0,0,0.1,0.1,0.1,0.1l0.1,0.1l0.2,0.1c0.1,0,0.1,0.1,0.2,0.1l0.1,0
		l0,0.1l0.1,0.1l0.1,0l0,0.1l0.1,0.1c0,0,0,0,0.1,0.1l0,0.1l0.1,0.1l0,0.1C54.4,27.8,54.4,27.8,54.5,27.9L54.5,27.9z M47.3,20
		L47.3,20l-0.1,0c0,0,0,0.1,0,0.1l0,0.1h-0.1l0,0l-0.1,0l0,0c0,0-0.1,0-0.1-0.1l0-0.1l0.1-0.1c0,0,0,0.1,0,0.1c0,0.1,0,0.1,0,0.1
		l0-0.1l0.1-0.1C47.2,20,47.2,20,47.3,20L47.3,20z M47.9,21.8c0,0-0.1,0-0.1,0s-0.1,0-0.1,0c0,0,0,0.1,0,0.1c0.1,0,0.2,0,0.2,0
		C48,21.8,47.9,21.8,47.9,21.8z M49.8,24.8c0-0.1,0-0.1,0-0.2c-0.1-0.1-0.2-0.1-0.2-0.2c0,0,0-0.1-0.1-0.2l-0.2-0.1l-0.1-0.2
		c-0.1-0.1-0.2-0.2-0.3-0.4l-0.3-0.4l-0.2,0l0,0l0.1,0.1l-0.1,0c0,0-0.1,0-0.1,0.1l0,0.1c0,0,0.1,0.1,0.1,0.1l-0.1,0
		c0,0-0.1,0-0.1,0l0.1,0l0,0.1l0,0.1l-0.1,0.1V24l-0.1,0l0,0l0.1,0l-0.1,0.1l0,0.2l-0.1,0.1c-0.1,0-0.1,0.1-0.1,0.1c0,0,0,0,0.1,0
		c0,0,0.1,0,0.1,0c0.1,0,0.2,0,0.2,0c0,0,0,0.1,0,0.1l0,0.1l0.1,0.1l0.2,0.1c0,0,0.1,0,0.1-0.1l0.1-0.1l0.1,0l0.2-0.2
		c0,0,0,0.1,0,0.1c0,0,0,0,0,0l0.3,0L49.8,24.8L49.8,24.8L49.8,24.8z"/>
	<path d="M65.9,21.3L65.9,21.3L65.9,21.3l-0.1,0.1c-0.1,0-0.1-0.1-0.2-0.1l-0.2,0.2l-0.1,0c0,0-0.1,0-0.2,0L65,21.6l0.1,0.2
		c0,0,0.1,0,0.1,0.1c0,0,0,0,0,0.1L65,22l0,0.1l0,0.1c0,0-0.1,0-0.1,0c0,0-0.1,0-0.1,0l0,0.1c0,0-0.1,0-0.1,0c0,0,0,0.1,0,0.1
		c0,0-0.1,0-0.1-0.1c0,0,0-0.1,0-0.1c0,0,0,0,0,0l-0.1,0.1l-0.1,0.1c0,0-0.1-0.1-0.1-0.1l-0.2,0l-0.1,0l-0.1-0.1l0,0.1l-0.1,0
		l-0.1-0.1l-0.1,0.2c0,0-0.1,0-0.1-0.1c0,0,0-0.1-0.1-0.1l-0.2,0l-0.2,0l-0.2,0l-0.1,0l-0.2-0.1l-0.2-0.1l-0.2,0.1l-0.1,0l-0.1,0
		l-0.2,0l-0.2-0.1l-0.1,0l0,0l-0.1,0l-0.3,0l-0.1,0l-0.2,0L60.4,22c0,0-0.1,0-0.2,0l-0.1,0l-0.1,0l0.1,0.1c-0.1,0-0.1,0.1-0.1,0.1
		l0.1,0.1c0,0-0.1,0-0.1,0l-0.1,0l0,0.1l0,0l0,0.1l0,0.1c0,0.1,0,0.2-0.1,0.3l-0.1,0.1c0,0,0,0.1,0,0.1l0.1,0l0,0.1l0.1,0.2
		l-0.1,0.1c0,0.1,0,0.1,0,0.2l0,0.2v0.2c0,0,0,0.1,0,0.1c0,0.1,0,0.1,0,0.2l0,0h0.1l0,0.3l0.1,0.1l0,0.1l0,0.1l0,0.1l0.1,0.1l0,0.3
		l0,0.1c0.1,0,0.1,0,0.1,0.1v0.3l0,0c0,0,0,0.1,0,0.2l0,0.2c0,0.1,0,0.1,0,0.2l0.2,0.3c0.1,0.1,0.1,0.2,0.1,0.3l0,0.1l-0.1,0.1
		l0,0.2l-0.1,0.2l-0.1,0l-0.1,0.1l-0.1,0L60,27.8l-0.3,0.1l-0.1,0c0,0-0.1,0-0.1,0c0,0,0,0.1,0,0.1s0,0.1,0,0.1c0,0,0,0,0,0
		c0,0-0.1,0-0.1,0c0,0,0,0.1,0,0.1l0.2,0.1l0,0l0,0l0,0.2l0,0.1c0,0.1,0,0.1-0.1,0.1l-0.2,0l-0.1,0.1c0,0-0.1-0.1-0.1-0.1l-0.1,0
		c-0.1,0-0.1,0-0.1,0l0-0.1L59,28.6l-0.1,0l0-0.2l-0.1-0.2l0-0.2l0-0.2l0-0.2l0-0.2l0-0.1l0-0.2l-0.1-0.4l0-0.3l0-0.1l0-0.2L58.7,26
		c0-0.2-0.1-0.4-0.1-0.6l0-0.2l0-0.2l0-0.2c0-0.1,0-0.1-0.1-0.2s-0.1-0.2-0.1-0.3l0-0.5l-0.1-0.3l0-0.1l0-0.1l0-0.1c0,0,0,0,0-0.1
		c0,0,0,0-0.1,0l0,0l0-0.2l-0.1-0.1l0-0.1l-0.1-0.1l0-0.1l-0.1-0.4l0-0.1l0,0l0.1,0l0.1,0.1c0.1,0,0.1-0.1,0.1-0.2c0,0,0,0,0,0
		c0,0,0,0,0,0l-0.2,0l-0.2,0l-0.1,0h-0.1c0,0-0.1,0-0.3,0h-0.5l-1.4-0.2l-0.2,0c-0.1,0-0.1,0-0.2,0l-0.2-0.1c0,0-0.1-0.1-0.1-0.1
		l0-0.3l-0.1,0l0-0.1l0-0.1c0,0,0,0,0,0l0.1,0l0.1-0.2c0,0,0-0.1,0-0.1v0l0.1,0c0-0.1,0-0.1,0-0.2v0l-0.1-0.3c0-0.1,0-0.1,0-0.1
		c0,0,0.1,0,0.1,0l0.3,0.1c0.1,0,0.2,0,0.3,0l0.1,0l0.1,0l0.1,0l0.2,0l0.1,0l0.1-0.1l0.1,0.1l0.1,0h0.1c0.1,0,0.2,0,0.2,0l0.1,0
		l0.3,0l0.1,0l0.7,0.1l0.1,0l0.2,0.1l0.1,0l0.3,0.1l0.1,0l0.2,0.1h0.4c0,0,0,0.1,0.1,0.1h0.1l0.3,0c0.1,0,0.2,0,0.2,0l0.3,0l0.1,0.1
		l0.3,0l0.2,0l0.2,0.1l0.4,0l0,0c0,0,0.1,0,0.1,0l0.1,0.1h0.1l0,0.1l0,0l0.1,0l0.1,0h0.1l0.2,0l0.2,0l0.2,0l0.2,0.1
		c0.1,0,0.2,0,0.2,0l0.1,0l0.1,0.1l0.1,0l0.2,0l0.2,0l0.2,0.1c0.1,0,0.1,0,0.2,0l0.3,0c0.2,0,0.3,0,0.3,0l0.1,0.1l0,0.1L65.9,21.3
		C65.9,21.3,65.9,21.3,65.9,21.3z M58.4,22.4l-0.1-0.1l-0.1,0l0,0L58.4,22.4C58.4,22.5,58.4,22.5,58.4,22.4L58.4,22.4z M58.6,23.1
		c0,0-0.1,0-0.1,0c0,0,0,0.1,0,0.1c0,0,0,0.1,0,0.1c0,0,0,0,0.1,0L58.6,23.1L58.6,23.1z M60.8,27.3L60.8,27.3l0,0.2L60.8,27.3z
		 M62.7,22.2C62.7,22.2,62.7,22.2,62.7,22.2C62.8,22.2,62.8,22.2,62.7,22.2C62.8,22.3,62.8,22.2,62.7,22.2z M63.9,21.3
		C63.9,21.4,63.9,21.4,63.9,21.3C63.9,21.4,63.9,21.4,63.9,21.3L63.9,21.3L63.9,21.3L63.9,21.3z M64.5,21.5c0,0,0,0.1,0,0.1
		c0,0,0,0.1-0.1,0C64.4,21.7,64.4,21.6,64.5,21.5C64.4,21.5,64.5,21.5,64.5,21.5z M64.5,21.4C64.5,21.4,64.5,21.4,64.5,21.4
		C64.5,21.4,64.4,21.4,64.5,21.4C64.4,21.4,64.4,21.4,64.5,21.4L64.5,21.4z M65.1,21.4C65.1,21.4,65.1,21.5,65.1,21.4
		c0,0.1,0,0.1,0,0.1C65,21.5,65,21.5,65.1,21.4C65,21.4,65.1,21.4,65.1,21.4z M65.2,21.8L65.2,21.8l-0.1-0.2
		C65.2,21.6,65.2,21.7,65.2,21.8z"/>
	<path d="M70,26.2c0,0.1-0.1,0.1-0.1,0.1l-0.1,0l-0.2-0.1l-0.1,0.1l-0.1,0c0,0-0.1,0.1-0.1,0.1l0,0.1l0,0.2l-0.1,0.1l-0.1,0.1l0,0.2
		c0,0.1,0,0.1,0,0.1l-0.2-0.1c0,0,0,0.1,0,0.1l0,0.1v0.1l0.1,0c0.1,0,0.1,0.1,0,0.1H69l-0.1,0.1l-0.1-0.1l-0.1,0
		c-0.1-0.1-0.1-0.2-0.2-0.3c0-0.2,0-0.2-0.1-0.3l-0.1-0.5c0-0.2-0.1-0.3-0.1-0.4l-0.5-1.6l-0.3-0.7c-0.1-0.2-0.1-0.3-0.1-0.4
		c0-0.1-0.1-0.2-0.1-0.4l-0.1-0.1l-0.1-0.4c0-0.2-0.1-0.3-0.2-0.4l-0.1-0.3c0-0.1-0.1-0.2-0.1-0.2l0-0.1v-0.2l0-0.1l0-0.2l0.1,0
		c0,0,0.1,0,0.1,0l0.1,0l0.1,0c0,0,0-0.1,0-0.1c0,0,0,0,0,0l0,0.1l0.1,0l0-0.1v-0.1c0,0,0,0,0-0.1c0,0,0,0,0,0c0,0,0.1,0.1,0.1,0.1
		c0,0.1,0,0.1,0.1,0.1c0,0,0.1,0,0.1,0l0-0.1l0.1-0.1l0-0.1l0,0.1c0-0.1,0.1-0.1,0.1-0.1l0.1,0.1c0,0,0.1,0,0.1,0l0,0
		c0,0,0-0.1,0-0.1l0,0l0,0.1c0,0,0.1,0,0.1,0c0,0.1,0,0.1,0,0.1L68,21c0.1,0.1,0.1,0.1,0.1,0.2c0,0.1,0,0.2,0,0.4l0,0.1l0,0l0.1,0
		c0,0,0.1,0,0.1,0.1c0,0-0.1,0-0.1,0l0.1,0.1c0,0,0,0,0.1,0s0,0,0,0c0,0,0,0.1,0,0.1c0,0.1,0,0.1,0,0.1c0,0,0,0.1,0.1,0.1l0,0v0.1
		l0.3,0.3l0.1,0.3l0.1,0.2l-0.1,0.1l0-0.1l0,0c0,0-0.1,0-0.1,0.1c0,0.1,0,0.1,0,0.2c0,0,0.1,0,0.1,0l0-0.1l0,0.1c0,0,0,0,0.1,0.1
		l0.1,0l0.1-0.1c0,0,0.1,0.1,0.1,0.1c0,0,0,0.1,0,0.1l-0.1,0.1l0,0.1c0,0,0,0.1,0,0.1l0.1,0c0,0,0,0.1,0,0.1l0,0l0.1,0.1l0.1,0.1
		l0,0.1l0,0.1l0.1,0l0.1,0.1l0,0.2l0,0.2l0,0c0,0,0.1,0.1,0.1,0.1l0.1,0.3l0.1,0l0.1,0.1l0,0.1c0,0,0,0,0,0.1l0.1,0l0,0.1
		c0,0.1,0,0.1,0,0.1l0.1,0.1c0,0,0,0.1,0,0.1L70,26.2L70,26.2z M66.8,21.1C66.8,21.2,66.8,21.2,66.8,21.1
		C66.8,21.2,66.7,21.2,66.8,21.1C66.7,21.2,66.7,21.2,66.8,21.1C66.7,21.1,66.7,21.1,66.8,21.1z M67.6,21.3v-0.1l0-0.2h-0.1l0-0.1
		l0,0l0,0.1l-0.1,0.1c0,0,0,0.1,0.1,0.1l0.1,0l0,0.1l0.1,0l0,0.1L67.6,21.3L67.6,21.3z M67.9,21.5L67.9,21.5
		c-0.1,0.1-0.1,0.1-0.1,0.1c0,0,0,0.1,0.1,0.1c0,0,0.1,0,0.1,0c0,0,0-0.1,0-0.1S67.9,21.5,67.9,21.5z M69.1,24
		C69.1,24,69.1,24,69.1,24c0-0.1,0-0.1,0-0.1c0,0,0,0,0,0L69.1,24C69.2,23.9,69.2,24,69.1,24C69.2,24,69.1,24,69.1,24z M69.2,24.1
		l0,0.1l0,0L69.2,24.1L69.2,24.1z M69.6,25.1L69.6,25.1L69.6,25.1L69.6,25.1z"/>
	<path d="M77.6,25.1l0,0.2l-0.1,0.1l0,0.1l0,0.1l-0.1,0.2l-0.2,0.3h-0.1L77,26.3c0,0-0.1,0.1-0.1,0.1c0,0,0,0-0.1,0l-0.2,0l0-0.1
		c0,0,0,0-0.1,0c0,0,0,0.1,0,0.2c0,0.1,0,0.2,0,0.2c0,0.1-0.1,0.1-0.1,0.1l-0.1,0l-0.1,0v0.1L76.1,27l-0.2,0l-0.1,0.1l-0.2,0
		c-0.1,0-0.1,0-0.1,0l0,0c0,0,0-0.1,0-0.1c0,0,0-0.1,0-0.1c0,0-0.1,0-0.2,0l-0.1,0c0,0,0,0,0-0.1c0,0,0,0,0,0L75,27l0,0l0,0l0,0
		l0,0.1c0,0-0.1,0.1-0.1,0.1h-0.1l-0.1,0l-0.1,0l-0.3-0.2l0-0.1c-0.1,0-0.1-0.1-0.2-0.1l0-0.1l0,0l-0.1,0l-0.2,0l-0.1-0.1l-0.1-0.1
		c-0.1,0-0.1,0-0.1,0l-0.1,0c0,0-0.1,0-0.1-0.1l0-0.2l-0.1-0.1l0,0l0-0.1l0-0.1l-0.1,0L72.9,26l0-0.2l-0.1-0.2
		c0-0.1-0.1-0.2-0.1-0.2l-0.1-0.1l-0.1,0L72.2,25l-0.3-0.3l-0.1-0.1l-0.1-0.1l-0.1,0l-0.2-0.1l0-0.1c0,0,0-0.1-0.1-0.1L71.2,24
		L71,23.9l-0.1,0l-0.1,0l-0.2-0.2l-0.1-0.2c0-0.1,0-0.2,0-0.2l-0.2-0.2l0-0.2l0-0.1c0-0.1,0-0.1,0-0.2l0.1-0.3l0-0.2l0.1-0.1v-0.2
		l0.1-0.1l0-0.1c0-0.1,0-0.1,0-0.1l0.4-0.2l0-0.1c0,0,0-0.1,0.1-0.1l0.1,0l0-0.1c0,0,0.1,0,0.1,0l0.2-0.2l0.1-0.2l0.1,0l0.1-0.1
		l0.1-0.1h0.1h0.2c0.1,0,0.1,0,0.2,0l0.1,0l0.1,0l0-0.1h0.1l0,0.1c0,0,0,0.1,0,0.1l0.1,0l0.1-0.1l0.2,0l0.2,0l0.2,0.2
		c0.1,0,0.1,0.1,0.2,0.2l0.1,0.2l0.2-0.1l0.2,0.1l0.3,0l0.1,0.1v0.1l0.2,0l0.1,0.1l0.1,0.1l0.1,0l0.1,0l0,0.1l0,0.1l0,0.3
		c0,0-0.1,0-0.1,0.1c0,0.1,0,0.1,0,0.1l0.1,0l0.2,0c0.1,0,0.1,0,0.2,0c0,0,0.1,0,0.1,0.1l0,0.1l0,0.1l0.2,0.1
		c0.1,0.1,0.1,0.2,0.1,0.2l0.3,0.1c0,0.1,0.1,0.1,0.1,0.2l0.1,0l0.2,0.2l0,0.1h0.1c0,0,0,0.1,0,0.1c0,0,0,0.1,0,0.1l0.1,0.1
		c0,0,0.1,0.1,0.1,0.1l0.1,0.1l0.1,0.2l0.1,0.3l0.1,0.3l0.1,0.2l-0.1,0.1l0.1,0.1L77.6,25.1z M76.3,24.8c0-0.1,0-0.2,0-0.3l-0.1-0.1
		v-0.1l-0.1-0.1L76,24.1l-0.1-0.2l-0.1,0l-0.1,0l0-0.1c0-0.1,0-0.1-0.1-0.2l-0.1-0.1l-0.1-0.1c0-0.1,0-0.1-0.1-0.1l-0.1-0.1l0-0.1
		l-0.1,0l-0.1,0l-0.1-0.1c0,0,0,0,0.1-0.1l-0.3-0.3c0,0-0.1,0-0.1,0l-0.1,0l-0.2-0.2l-0.2-0.2L74.1,22l-0.2-0.1l-0.1-0.2l-0.1,0
		l-0.2-0.1l-0.1-0.1l-0.2-0.1c0-0.1,0-0.1,0-0.1l0.1-0.1l0-0.1c-0.1,0-0.2,0-0.4,0.1l-0.2,0.1c-0.3,0.1-0.6,0.3-0.9,0.6
		c-0.3,0.3-0.5,0.6-0.5,0.9c0,0,0,0.1,0,0.2c0,0.1,0,0.1,0,0.2l0.2,0.4c0.2,0.3,0.4,0.6,0.7,0.9c0.2,0.2,0.5,0.4,1,0.6
		c0.3,0.2,0.7,0.3,1,0.4c0.3,0.1,0.6,0.2,1,0.2c0.2,0,0.4,0,0.6-0.1c0.2-0.1,0.3-0.1,0.5-0.2C76.3,25.1,76.3,25,76.3,24.8z M74.1,27
		C74,27,74,27,74.1,27l-0.2,0l-0.1-0.1l0,0l0.2,0.1C74,27,74,27,74.1,27z M74.4,27L74.4,27C74.4,27,74.4,27,74.4,27
		C74.4,27,74.4,27,74.4,27C74.4,26.9,74.4,26.9,74.4,27z M75,21.5L75,21.5l-0.1,0.1l-0.1,0l0.1,0.1l0-0.1L75,21.5z M75.2,21.7
		c0,0-0.1,0-0.1,0.1C75.1,21.7,75.1,21.7,75.2,21.7C75.1,21.7,75.2,21.7,75.2,21.7z M75.4,21.4L75.4,21.4L75.4,21.4
		C75.4,21.4,75.4,21.4,75.4,21.4z M76.5,26.6C76.5,26.6,76.5,26.6,76.5,26.6L76.5,26.6L76.5,26.6L76.5,26.6L76.5,26.6z"/>
	<path d="M85,26.3L85,26.3l-0.1,0.3c0,0.1,0,0.1-0.1,0.2L84.6,27l-0.1,0.3c0,0.1-0.1,0.1-0.1,0.1c0,0-0.1,0-0.1,0h-0.2l-0.1,0.1
		l-0.1,0c0,0.1,0,0.1,0,0.1l-0.1-0.1c0,0-0.1,0-0.1,0c0,0,0,0.1,0,0.1l0.2,0.1l-0.1,0l-0.1,0.1c-0.1,0-0.1,0-0.2,0.1l-0.1,0.2
		c0,0.1-0.1,0.1-0.1,0.2c-0.1,0-0.1,0-0.2,0l0-0.1l-0.1,0l0,0c-0.1,0-0.1,0-0.1-0.1L83,28.2l-0.1,0l-0.2,0l-0.1-0.1l-0.1-0.1
		l-0.3-0.1c-0.1-0.1-0.3-0.2-0.4-0.4l-0.4-0.4l-0.2-0.2l0-0.1l-0.4-0.4l-0.1-0.2c0-0.1-0.1-0.2-0.1-0.2l-0.1-0.1l-0.1-0.1
		c0-0.1-0.1-0.1-0.1-0.2l-0.1-0.2l-0.2-0.4l-0.1-0.2c0-0.1-0.1-0.1-0.1-0.1c0,0-0.1,0.1-0.1,0.1l0,0.1l0,0.1l0,0.1l0,0.2l0.1,0.1
		c0,0.1,0.1,0.3,0,0.4l0,0.1l0,0.1l0,0.1l0,0.1c0,0,0,0,0,0.1c0,0,0,0,0,0.1l0.1,0.1l0,0.3c0,0.1,0,0.3,0,0.3c0,0.1-0.1,0.1-0.1,0.1
		L79.7,27l-0.1,0v0.1l-0.1,0.1l-0.1,0.1l0,0h0l-0.1,0.2l0,0.1c-0.1,0-0.2,0-0.2,0L79,27.9l0.1,0c0,0,0,0.1,0,0.1c0,0-0.1,0-0.1,0
		l-0.1,0c0,0-0.1,0-0.1,0.1s-0.1,0-0.1,0.1c-0.1,0-0.1,0-0.2-0.1l0-0.3c0-0.1,0-0.2,0-0.4L78.3,27l-0.1-0.4l0-0.3v-0.1l0-0.3
		l-0.1-0.4l0-0.3c0-0.1,0-0.2,0-0.2l0.1-0.2l-0.1-0.4l0.1-0.6l-0.1-0.2l0-0.2l0-0.2l0-0.2l0-0.2c0-0.1,0.1-0.3,0.1-0.4l0,0l0,0
		l0-0.1v-0.1l0-0.1l-0.1-0.1l0-0.2c0-0.1,0-0.2,0.1-0.2c0,0,0.1,0,0.1,0l0.1,0.1l0.2-0.1l0.1,0l0.3-0.2v-0.1l0,0l0-0.1L79.1,21
		c0,0,0-0.1,0-0.1c0,0,0.1,0,0.1,0l0.1,0l-0.1-0.1l0.1,0c0.1,0,0.1,0,0.1-0.1l-0.1-0.2c-0.1-0.1-0.1-0.1-0.1-0.2c0,0,0.1,0,0.1-0.1
		c0,0,0,0,0,0c0,0,0,0,0,0c0,0,0.1,0.1,0.1,0.1l0.1,0.2l0.1,0l0.1,0l-0.1,0.1c0,0,0,0.1,0,0.1c0,0,0.1,0,0.1,0l0.1-0.1l0.1,0
		c0.1,0,0.1,0,0.1,0.1c0.1,0,0.1,0.1,0.1,0.2c0,0.1,0.1,0.2,0.1,0.3l0,0.2l0,0.1c0,0,0,0.1,0,0.1l-0.1,0l-0.1,0l0,0.1
		c0,0,0,0.1,0.1,0.1c0-0.1,0-0.1,0-0.2c0.1,0,0.1,0,0.1,0.1l0,0.1l0,0.1l0,0.1l0,0l0,0l0,0.1c0,0,0,0,0,0c0,0,0,0,0,0l0,0.1l0,0.1
		l0,0.1l0,0.1l0,0.2c0,0,0,0.1,0.1,0.2l0-0.1c0,0,0.1-0.1,0.2,0c0,0,0,0,0,0.1s0,0.1,0,0.2s0.1,0.1,0.1,0.1c0,0,0,0,0,0l0-0.1h0
		c0,0,0.1,0.1,0.2,0.3l0.2,0.4l0,0.1l0,0l0.1,0c0,0,0.1,0.1,0.1,0.1l0,0.1c0.1,0,0.2,0.1,0.2,0.1l0.1,0.2c0,0,0.1,0,0.1,0l0.3,0.4
		l0.1,0.2l0.1,0.1l0.1,0.2l0.1,0.1c0,0,0.1,0.1,0.1,0.2l0.1,0.1l0.2,0.2c0.1,0.1,0.1,0.1,0.2,0l0-0.1l0-0.2l0-0.2l-0.1-0.1
		c0-0.1-0.1-0.2-0.1-0.4l0.1-0.2l0-0.1l0-0.1l-0.1-0.1l-0.1,0l0-0.3l0-0.3l-0.1-0.3l0-0.2v-0.4l0-0.2l0.1-0.2c0-0.1,0-0.1,0-0.2
		l0.1-0.2c0,0,0-0.1-0.1-0.1l0,0v-0.1l0-0.1L82.8,22l0.1-0.3l0.1-0.1L83,21.4l0.1,0c0,0,0,0.1,0.1,0.1c0,0,0,0,0,0
		c0.1,0,0.1,0,0.1-0.1v-0.2l0.1,0c0,0,0.1,0,0.1-0.1c0,0,0-0.1,0-0.1l-0.1-0.2l0.1,0l0,0l-0.1-0.1l0-0.1l-0.1-0.1l0.1-0.3
		c0-0.1,0.1-0.2,0.1-0.2c0.1,0,0.2,0,0.2,0v-0.1c0,0,0-0.1,0-0.1c0,0,0,0,0.1,0c0,0,0.1,0.1,0.1,0.1c0,0,0,0,0,0l0,0.1l0,0l0.1,0
		l0.1,0.2l0.2,0.2c0.1,0.1,0.1,0.2,0.1,0.3l0,0.2l0,0.2c0,0.1,0,0.1,0,0.2l0,0.2v0.1l0,0.3l0,0.1l0,0.1l0,0.2l0.1,0.2v0.2l0,0.2
		l0,0.3l0.1,0.3l0,0.3l0.1,0.1l0,0.1l0.1,0.2l0,0.2l0.1,0.5l0,0.5l0.1,0.3l0,0.2L85,26.3z M79.1,20.5C79.1,20.5,79.1,20.6,79.1,20.5
		c0,0.1,0,0.1,0,0.1C79,20.6,79,20.6,79.1,20.5C79,20.6,79,20.5,79.1,20.5C79,20.5,79.1,20.5,79.1,20.5z M79.1,20.4L79.1,20.4
		L79.1,20.4L79.1,20.4z M79.2,21L79.2,21L79.2,21C79.2,21,79.2,21,79.2,21L79.2,21z M80,22.1C80,22.1,80,22.1,80,22.1
		c0,0.1-0.1,0.1-0.1,0.1c0,0,0-0.1,0-0.1C79.9,22,79.9,22,80,22.1z M80,22.1c0-0.1,0-0.2-0.1-0.2L80,22.1L80,22.1z M80.4,23.1
		L80.4,23.1l-0.1-0.1l0,0.1l0,0.2c0,0,0,0.1,0.1,0.1c0,0,0.1,0,0.1-0.1l0-0.1L80.4,23.1L80.4,23.1z M80.7,23.6
		C80.6,23.7,80.6,23.7,80.7,23.6c-0.1,0.1-0.1,0.1-0.1,0.1C80.6,23.7,80.6,23.7,80.7,23.6C80.6,23.7,80.7,23.6,80.7,23.6z
		 M81.5,25.4L81.5,25.4l-0.1-0.2l0-0.1c0,0,0-0.1,0-0.1l-0.1,0v-0.1h-0.1l0-0.1l0.1,0c0-0.1,0-0.1,0-0.2l0,0l-0.1,0l0-0.2l-0.1,0
		c0,0,0,0-0.1,0.1l-0.1-0.1l-0.1,0l0-0.1l0,0l0,0l-0.1,0c0,0,0-0.1,0-0.1l0,0l0,0l0,0.1l0,0l0,0v0.1l0.1,0.1h0.1h0.1l0,0.1l0.1,0
		l0,0.1l0.1,0l0.2,0.2l0.1,0.2c-0.1,0-0.1,0-0.1,0H81l0,0.1c0,0,0.1,0.1,0.1,0.1l0.1,0h0.1c0,0,0,0.1,0,0.1l0,0.1L81.5,25.4
		L81.5,25.4C81.5,25.4,81.5,25.4,81.5,25.4z M80.9,23.6C80.9,23.7,80.9,23.7,80.9,23.6C80.9,23.7,80.9,23.6,80.9,23.6z M81.6,25.5
		L81.6,25.5l-0.1,0c0,0-0.1,0-0.1,0l0,0.1l0,0.1l0,0.1l0.2,0l0,0l0,0L81.6,25.5L81.6,25.5L81.6,25.5z M81.8,26.1L81.8,26.1l0-0.1
		l0-0.1c0,0,0,0,0,0C81.7,25.9,81.7,26,81.8,26.1C81.8,26,81.8,26.1,81.8,26.1z M82,26L82,26l0-0.2l-0.2-0.1l-0.1,0v0.1h0.1L82,26z
		 M81.9,26.2L81.9,26.2l0,0.1C81.9,26.3,81.9,26.3,81.9,26.2L81.9,26.2z M82.3,26.1c0-0.1-0.1-0.1-0.2-0.2l0,0.1L82.3,26.1l0,0.1
		L82.3,26.1z M82.3,26.4l-0.2-0.1l0,0l0.1,0.2L82.3,26.4z M82.4,26.7L82.4,26.7v-0.2l0,0.1L82.4,26.7L82.4,26.7L82.4,26.7z
		 M82.5,26.4L82.5,26.4l-0.1-0.1C82.4,26.3,82.4,26.3,82.5,26.4L82.5,26.4z M82.6,26.5C82.7,26.5,82.7,26.5,82.6,26.5
		C82.7,26.5,82.6,26.5,82.6,26.5C82.6,26.5,82.6,26.5,82.6,26.5C82.5,26.5,82.5,26.5,82.6,26.5L82.6,26.5z M82.7,26.9
		C82.7,26.9,82.7,26.9,82.7,26.9L82.7,26.9L82.7,26.9L82.7,26.9z M82.8,26.9L82.8,26.9C82.7,27,82.7,27,82.8,26.9
		C82.7,26.9,82.7,26.9,82.8,26.9z M83,26.6L83,26.6c-0.1,0-0.1-0.1-0.1-0.1s0,0-0.1,0l0,0.1l0,0l0,0l0.1,0.1l0.1,0
		C83,26.7,83,26.7,83,26.6C83,26.7,83,26.6,83,26.6z M83,21.9L83,21.9C82.9,22,82.9,22,83,21.9L83,21.9C82.9,21.9,82.9,21.9,83,21.9
		z M83.1,22.1L83.1,22.1C83.1,22.1,83,22.1,83.1,22.1L83.1,22.1C83,22.1,83.1,22.1,83.1,22.1z M83.1,27C83.1,27.1,83.1,27.1,83.1,27
		L83.1,27C83,27.1,83,27.1,83.1,27C83,27,83.1,27,83.1,27z M83.3,26.9c0,0-0.1,0-0.1,0c0,0-0.1,0-0.1,0l0,0.1L83.3,26.9
		C83.3,27,83.3,26.9,83.3,26.9C83.3,26.9,83.3,26.9,83.3,26.9z M83.3,27.1L83.3,27.1C83.3,27.2,83.3,27.2,83.3,27.1L83.3,27.1
		C83.2,27.1,83.3,27.1,83.3,27.1z M83.4,28L83.4,28L83.4,28L83.4,28L83.4,28z M83.7,27.7L83.7,27.7L83.7,27.7L83.7,27.7z"/>
	<path d="M96.6,19.4l0.1,0.3l0,0.2l0,0.2l0.1,0.2l0,0.2c0,0.1,0,0.1,0,0.2l0,0.2c0,0,0,0,0.1,0c0,0,0.1,0,0.1,0.1l0.2,0.1l0.2-0.1
		l0.1,0l0.1,0.1c0,0,0.1,0,0.1,0l0.1-0.1c0,0,0.1,0.1,0.1,0.1l0.1,0l0,0l0.1,0l0.2,0.1l0.3,0.1l0.1,0l0.1,0l0.1,0.1l0.3,0.1l0.1,0
		l0,0.1c0,0.1,0,0.1,0,0.1l0.1,0h0.1l0,0.1l0.1,0.1c0,0,0.1,0.1,0.1,0.2c0,0,0,0.1-0.1,0.2c-0.1,0.1-0.1,0.2-0.2,0.3l-0.1,0l-0.1,0
		l-0.1,0.1l-0.3,0.1l-0.2,0l-0.1,0c-0.1,0-0.1-0.1,0-0.1l0.1,0c0,0,0,0,0,0c0,0-0.1-0.1-0.2-0.1l-0.3-0.1L98,22.4L98,22.3l-0.2,0
		l-0.4-0.1c-0.1,0-0.2,0-0.4,0.1l-0.4,0.1c-0.1,0-0.2,0-0.2-0.1l-0.1-0.1h-0.1l0,0l-0.1-0.1l-0.1,0l-0.1-0.1l-0.2,0l-0.2,0l-0.2-0.1
		l-0.1,0.1h-0.1l-0.1,0l-0.2,0.1l-0.2,0h-0.3l-0.1,0c-0.1,0-0.1,0-0.1,0.1l-0.1,0.1c0-0.1-0.1-0.1-0.1-0.1c0,0-0.1,0.1-0.1,0.1
		l-0.1,0.1l-0.2,0l-0.2,0l-0.3,0.2L93,22.7l-0.2,0l-0.1,0L92.6,23l-0.2,0.1h-0.1l0,0l0.2,0.1l0.2,0.1l0.5,0.2l0.6,0.1l0.2,0l0.2,0
		l0.3,0l0.2,0l0.3,0l0.3,0l0.2,0l0.5-0.1l0.2,0c0.1,0,0.2,0,0.3-0.1l0.3-0.1l0.4-0.1l0.6-0.1l0.2,0l0.2,0c0.1,0,0.2,0,0.3,0
		c0,0,0.1,0,0.1,0.1l0.1,0.1c0.1,0,0.2,0,0.2,0c0,0,0,0.1,0,0.1l0.1,0c0,0,0.1,0,0.1,0c0,0,0,0,0,0l0,0.1l-0.1,0c0,0-0.1,0-0.1,0.1
		l0.2,0.1c0.1,0,0.1,0,0.1,0.1c-0.1,0.1-0.1,0.1-0.2,0.1l-0.1-0.1l-0.1,0l-0.1,0.1l-0.1,0h0c-0.1,0-0.1,0.1-0.1,0.2c0,0,0,0,0,0.1
		c0,0,0,0,0,0l-0.1,0l-0.1,0l0,0H98l-0.1,0.1c0,0-0.1,0.1-0.1,0.1h-0.2l-0.2,0c-0.1,0-0.1,0-0.1,0l-0.1,0L97,24.3c0,0-0.1,0-0.2,0
		l-0.1,0c-0.1,0.1-0.2,0.1-0.2,0.1l-0.1,0l-0.1-0.1l-0.2,0l-0.1-0.1l0,0c0,0-0.1,0.1-0.1,0.1l0,0.1h-0.4l0,0l-0.3,0.1l-0.1,0.1H95
		l-0.2,0.2l-0.1,0l0,0l0,0l0,0c0,0,0,0,0,0c0,0,0,0,0,0l-0.1,0l0,0l0,0h-0.1c0,0.1,0,0.1-0.1,0.1l-0.1,0l-0.1,0.2
		c0,0-0.1,0.1-0.2,0.1c-0.1,0-0.2,0-0.2,0l-0.1,0l0,0.1l0,0.1l-0.1,0v0.1c-0.1,0-0.1,0-0.1-0.1c0,0,0,0,0,0s0,0,0,0
		c0,0-0.1,0.1-0.1,0.1c0,0.1,0,0.1,0,0.1l-0.1,0l0,0c0,0,0,0.1,0,0.1c0,0,0,0,0,0.1l0,0.2l0,0.1c0,0.1,0.1,0.2,0.2,0.3
		c0.1,0,0.1,0,0.2,0s0.1,0,0.2,0l0.3,0l0.2,0c0.4-0.1,0.8-0.2,1.2-0.3c0.3-0.1,0.6-0.2,1.1-0.4l0.5-0.2l0.5-0.2l1.2-0.5l0.2-0.1
		c0.1,0,0.1,0,0.2,0l0.2,0.1l0.1,0.1l0.1,0c0,0,0.1,0,0.1,0l0.1,0.2l0,0.1l-0.1,0l0.1,0.1l0,0.1l0,0.1c0,0.1,0,0.1-0.1,0.2l-0.1,0
		c-0.1,0-0.1,0-0.1,0l-0.2,0.2c-0.1,0.1-0.2,0.1-0.4,0.1c-0.1,0-0.1,0-0.1,0l0,0l-0.1-0.1l-0.1,0l-0.1-0.1c0,0,0,0-0.1,0s0,0-0.1,0
		l-0.1,0.1l-0.2,0.1l-0.2,0.1l0,0.1l0,0.1l-0.3,0.1c-0.1,0-0.2,0.1-0.3,0.1c0,0,0,0.1,0,0.1c0,0,0,0,0.1,0.1c0,0,0,0,0,0l0,0.2
		l0.1,0.1l0,0.2l0,0.2v0.2l0,0.1l0,0.1l0,0.1c0,0-0.1,0.1-0.1,0.1l0,0.1c0,0,0,0.1-0.1,0.1l-0.1,0l-0.1,0l-0.1,0.1l-0.1,0l0,0.1l0,0
		l0,0.2l0.1,0c0,0-0.1,0-0.1,0l-0.1,0v0.1l-0.2,0.1l-0.1,0.1h-0.1l-0.1,0.1c0,0,0,0-0.1,0c0,0-0.1,0-0.1,0l-0.2,0l-0.1-0.1l-0.1-0.2
		c0-0.1,0-0.1,0-0.1l0-0.2v-0.2l-0.1-0.3v-0.5l0-0.4l0-0.3c0-0.1,0-0.2-0.1-0.2l-0.2,0L95.2,27h-0.1c0,0,0,0.1,0,0.1c0,0,0,0,0,0
		l-0.1,0l-0.1,0l-0.3,0l-0.1-0.1c0,0,0,0,0,0l0,0.1l0-0.1l0,0l0,0l-0.1-0.1l-0.1,0L94,27l-0.2,0l-0.2,0l-0.2,0l-0.1,0
		c0,0,0-0.1-0.1-0.1l-0.2,0c0,0-0.1,0-0.2,0h-0.1l0,0l-0.1-0.1c0,0,0-0.1-0.1-0.1l-0.1,0l-0.1-0.1l-0.1,0l0-0.1h-0.2L92,26.4
		c0,0-0.1,0.1-0.1,0.1l0,0.1c0,0,0,0,0,0l0,0l0-0.2c0-0.1,0-0.2,0.1-0.3l0.2-0.3l0.1-0.1l0.2-0.2l0-0.1l0.1-0.1l0.2-0.1l0.4-0.4
		l0.2-0.1l0.2-0.1l0.2-0.1c0,0,0.1,0,0.1,0l0.1-0.1l0.1-0.1l0-0.1l-0.1,0c-0.1,0-0.1,0-0.1,0l-0.1,0c-0.1,0-0.1,0-0.2,0L93.3,24
		l-0.1,0l-0.1,0.1c0,0,0,0-0.1,0S93.1,24,93,24l-0.2-0.1l-0.2,0c-0.1,0-0.1,0-0.1-0.1l-0.1-0.1l-0.2,0l0-0.1l-0.2-0.1l0-0.1l0-0.1
		c0,0-0.1-0.1-0.1-0.1c0,0,0,0,0,0l0-0.1l-0.1,0L91.5,23l0-0.1l-0.1-0.1c0-0.1,0-0.2,0.1-0.3c0.1,0,0.1,0,0.1-0.1l0-0.1l0.1-0.1
		l0.1-0.1l0.1-0.1l0.1,0c0.1,0,0.1,0,0.1-0.1l0,0c0,0,0,0,0,0s0,0,0,0c0.1,0,0.1-0.1,0.2-0.1l0-0.1l0,0l0,0l0,0l0,0l0,0l0.1-0.1h0.1
		c0,0,0.1,0,0.1,0l0,0l0,0c0.1,0,0.1,0,0.1,0v0l0.2,0l0.1,0l0,0c0-0.1,0-0.1,0.1-0.2c0,0,0.1,0.1,0.1,0.1l0,0l0.1-0.1l0.1,0
		c0,0,0.1,0,0.1-0.1l0-0.1l0.1,0l0.1,0l0.1,0l0.1,0l0.1,0l0,0.1l0.1,0h0.1l0,0.1l0,0.1l0.1,0l0-0.1v-0.1l0,0l0-0.1l-0.1,0l-0.1,0
		l0-0.1l0.1,0l0.2,0l0.1,0l0.1,0.1c0,0,0.1,0,0.1,0l0-0.1c0.1-0.1,0.1-0.3,0.1-0.5l0-0.2l0-0.1l0-0.2l0-0.1c0,0,0.1-0.1,0.1-0.1
		l0.1,0l0-0.1l0-0.1l0.1-0.2v-0.1l0,0c0,0,0.1,0,0.1,0l0.2,0l0.2-0.1c0.1,0,0.2,0,0.3,0l0.1,0.1c0.1,0,0.1,0,0.1,0L96.6,19.4
		L96.6,19.4L96.6,19.4z M93.3,21.5L93.3,21.5L93.3,21.5L93.3,21.5z M93.8,21.8C93.8,21.8,93.8,21.8,93.8,21.8
		C93.8,21.7,93.8,21.7,93.8,21.8C93.9,21.8,93.9,21.8,93.8,21.8C93.9,21.8,93.8,21.8,93.8,21.8z M93.9,22.2L93.9,22.2L93.9,22.2
		L93.9,22.2L93.9,22.2z M95.4,20.1C95.4,20.1,95.4,20,95.4,20.1c0-0.1,0-0.2,0.1-0.1C95.5,20,95.5,20,95.4,20.1
		C95.5,20.1,95.5,20.1,95.4,20.1z M96.2,26.7c0-0.1,0-0.1,0.1-0.1c0.1,0,0.1,0,0.2,0.1c0,0,0.1,0.1,0.1,0.2c0,0.1,0,0.1-0.1,0.1
		l-0.1,0l-0.1-0.1C96.3,26.8,96.2,26.8,96.2,26.7z M98.2,26.4L98.2,26.4L98.2,26.4L98.2,26.4L98.2,26.4z M98.8,26.1l0-0.1
		c0,0,0,0,0.1,0c0,0,0,0.1,0,0.1L98.8,26.1L98.8,26.1L98.8,26.1z"/>
	<path d="M109.9,26.2c0,0.1-0.1,0.1-0.1,0.1l-0.1,0l-0.2-0.1l-0.1,0.1l-0.1,0c0,0-0.1,0.1-0.1,0.1l0,0.1l0,0.2l-0.1,0.1l-0.1,0.1
		l0,0.2c0,0.1,0,0.1,0,0.1l-0.2-0.1c0,0,0,0.1,0,0.1l0,0.1v0.1l0.1,0c0.1,0,0.1,0.1,0,0.1h-0.1l-0.1,0.1l-0.1-0.1l-0.1,0
		c-0.1-0.1-0.1-0.2-0.2-0.3c0-0.2,0-0.2-0.1-0.3l-0.1-0.5c0-0.2-0.1-0.3-0.1-0.4l-0.5-1.6l-0.3-0.7c-0.1-0.2-0.1-0.3-0.1-0.4
		c0-0.1-0.1-0.2-0.1-0.4l-0.1-0.1l-0.1-0.4c0-0.2-0.1-0.3-0.2-0.4l-0.1-0.3c0-0.1-0.1-0.2-0.1-0.2l0-0.1v-0.2l0-0.1l0-0.2l0.1,0
		c0,0,0.1,0,0.1,0l0.1,0l0.1,0c0,0,0-0.1,0-0.1c0,0,0,0,0,0l0,0.1l0.1,0l0-0.1v-0.1c0,0,0,0,0-0.1c0,0,0,0,0,0c0,0,0.1,0.1,0.1,0.1
		c0,0.1,0,0.1,0.1,0.1c0,0,0.1,0,0.1,0l0-0.1l0.1-0.1l0-0.1l0,0.1c0-0.1,0.1-0.1,0.1-0.1l0.1,0.1c0,0,0.1,0,0.1,0l0,0
		c0,0,0-0.1,0-0.1l0,0l0,0.1c0,0,0.1,0,0.1,0c0,0.1,0,0.1,0,0.1l0.1,0.1c0.1,0.1,0.1,0.1,0.1,0.2c0,0.1,0,0.2,0,0.4l0,0.1l0,0l0.1,0
		c0,0,0.1,0,0.1,0.1c0,0-0.1,0-0.1,0l0.1,0.1c0,0,0,0,0.1,0c0,0,0,0,0,0c0,0,0,0.1,0,0.1c0,0.1,0,0.1,0,0.1c0,0,0,0.1,0.1,0.1l0,0
		v0.1l0.3,0.3l0.1,0.3l0.1,0.2l-0.1,0.1l0-0.1l0,0c0,0-0.1,0-0.1,0.1c0,0.1,0,0.1,0,0.2c0,0,0.1,0,0.1,0l0-0.1l0,0.1
		c0,0,0,0,0.1,0.1l0.1,0l0.1-0.1c0,0,0.1,0.1,0.1,0.1c0,0,0,0.1,0,0.1l-0.1,0.1l0,0.1c0,0,0,0.1,0,0.1l0.1,0c0,0,0,0.1,0,0.1l0,0
		l0.1,0.1l0.1,0.1l0,0.1l0,0.1l0.1,0l0.1,0.1l0,0.2l0,0.2l0,0c0,0,0.1,0.1,0.1,0.1l0.1,0.3l0.1,0l0.1,0.1l0,0.1c0,0,0,0,0,0.1l0.1,0
		l0,0.1c0,0.1,0,0.1,0,0.1l0.1,0.1c0,0,0,0.1,0,0.1L109.9,26.2L109.9,26.2z M106.6,21.1C106.7,21.2,106.7,21.2,106.6,21.1
		C106.7,21.2,106.6,21.2,106.6,21.1C106.6,21.2,106.5,21.2,106.6,21.1C106.6,21.1,106.6,21.1,106.6,21.1z M107.5,21.3v-0.1l0-0.2
		h-0.1l0-0.1l0,0l0,0.1l-0.1,0.1c0,0,0,0.1,0.1,0.1l0.1,0l0,0.1l0.1,0l0,0.1L107.5,21.3L107.5,21.3z M107.8,21.5L107.8,21.5
		c-0.1,0.1-0.1,0.1-0.1,0.1c0,0,0,0.1,0.1,0.1c0,0,0.1,0,0.1,0c0,0,0-0.1,0-0.1S107.8,21.5,107.8,21.5z M109,24
		C109,24,109,24,109,24c0-0.1,0-0.1,0-0.1c0,0,0,0,0,0L109,24C109,23.9,109,24,109,24C109,24,109,24,109,24z M109.1,24.1l0,0.1l0,0
		L109.1,24.1L109.1,24.1z M109.5,25.1L109.5,25.1L109.5,25.1L109.5,25.1z"/>
	<path d="M117.2,26.3L117.2,26.3l-0.1,0.3c0,0.1,0,0.1-0.1,0.2l-0.1,0.2l-0.1,0.3c0,0.1-0.1,0.1-0.1,0.1c0,0-0.1,0-0.1,0h-0.2
		l-0.1,0.1l-0.1,0c0,0.1,0,0.1,0,0.1l-0.1-0.1c0,0-0.1,0-0.1,0c0,0,0,0.1,0,0.1l0.2,0.1l-0.1,0l-0.1,0.1c-0.1,0-0.1,0-0.2,0.1
		l-0.1,0.2c0,0.1-0.1,0.1-0.1,0.2c-0.1,0-0.1,0-0.2,0l0-0.1l-0.1,0l0,0c-0.1,0-0.1,0-0.1-0.1l-0.1-0.1l-0.1,0l-0.2,0l-0.1-0.1
		l-0.1-0.1l-0.3-0.1c-0.1-0.1-0.3-0.2-0.4-0.4l-0.4-0.4l-0.2-0.2l0-0.1l-0.4-0.4l-0.1-0.2c0-0.1-0.1-0.2-0.1-0.2l-0.1-0.1l-0.1-0.1
		c0-0.1-0.1-0.1-0.1-0.2l-0.1-0.2l-0.2-0.4l-0.1-0.2c0-0.1-0.1-0.1-0.1-0.1c0,0-0.1,0.1-0.1,0.1l0,0.1l0,0.1l0,0.1l0,0.2l0.1,0.1
		c0,0.1,0.1,0.3,0,0.4l0,0.1l0,0.1l0,0.1l0,0.1c0,0,0,0,0,0.1c0,0,0,0,0,0.1l0.1,0.1l0,0.3c0,0.1,0,0.3,0,0.3c0,0.1-0.1,0.1-0.1,0.1
		L112,27l-0.1,0v0.1l-0.1,0.1l-0.1,0.1l0,0h0l-0.1,0.2l0,0.1c-0.1,0-0.2,0-0.2,0l-0.1,0.2l0.1,0c0,0,0,0.1,0,0.1c0,0-0.1,0-0.1,0
		l-0.1,0c0,0-0.1,0-0.1,0.1c0,0-0.1,0-0.1,0.1c-0.1,0-0.1,0-0.2-0.1l0-0.3c0-0.1,0-0.2,0-0.4l-0.1-0.4l-0.1-0.4l0-0.3v-0.1l0-0.3
		l-0.1-0.4l0-0.3c0-0.1,0-0.2,0-0.2l0.1-0.2l-0.1-0.4l0.1-0.6l-0.1-0.2l0-0.2l0-0.2l0-0.2l0-0.2c0-0.1,0.1-0.3,0.1-0.4l0,0l0,0
		l0-0.1v-0.1l0-0.1l-0.1-0.1l0-0.2c0-0.1,0-0.2,0.1-0.2c0,0,0.1,0,0.1,0l0.1,0.1l0.2-0.1l0.1,0l0.3-0.2v-0.1l0,0l0-0.1l-0.1-0.1
		c0,0,0-0.1,0-0.1c0,0,0.1,0,0.1,0l0.1,0l-0.1-0.1l0.1,0c0.1,0,0.1,0,0.1-0.1l-0.1-0.2c-0.1-0.1-0.1-0.1-0.1-0.2c0,0,0.1,0,0.1-0.1
		c0,0,0,0,0,0c0,0,0,0,0,0c0,0,0.1,0.1,0.1,0.1l0.1,0.2l0.1,0l0.1,0l-0.1,0.1c0,0,0,0.1,0,0.1c0,0,0.1,0,0.1,0l0.1-0.1l0.1,0
		c0.1,0,0.1,0,0.1,0.1c0.1,0,0.1,0.1,0.1,0.2c0,0.1,0.1,0.2,0.1,0.3l0,0.2l0,0.1c0,0,0,0.1,0,0.1l-0.1,0l-0.1,0l0,0.1
		c0,0,0,0.1,0.1,0.1c0-0.1,0-0.1,0-0.2c0.1,0,0.1,0,0.1,0.1l0,0.1l0,0.1l0,0.1l0,0l0,0l0,0.1c0,0,0,0,0,0c0,0,0,0,0,0l0,0.1l0,0.1
		l0,0.1l0,0.1l0,0.2c0,0,0,0.1,0.1,0.2l0-0.1c0,0,0.1-0.1,0.2,0c0,0,0,0,0,0.1c0,0.1,0,0.1,0,0.2s0.1,0.1,0.1,0.1c0,0,0,0,0,0l0-0.1
		h0c0,0,0.1,0.1,0.2,0.3l0.2,0.4l0,0.1l0,0l0.1,0c0,0,0.1,0.1,0.1,0.1l0,0.1c0.1,0,0.2,0.1,0.2,0.1l0.1,0.2c0,0,0.1,0,0.1,0l0.3,0.4
		l0.1,0.2l0.1,0.1l0.1,0.2l0.1,0.1c0,0,0.1,0.1,0.1,0.2l0.1,0.1l0.2,0.2c0.1,0.1,0.1,0.1,0.2,0l0-0.1l0-0.2l0-0.2l-0.1-0.1
		c0-0.1-0.1-0.2-0.1-0.4l0.1-0.2l0-0.1l0-0.1l-0.1-0.1l-0.1,0l0-0.3l0-0.3l-0.1-0.3l0-0.2v-0.4l0-0.2l0.1-0.2c0-0.1,0-0.1,0-0.2
		l0.1-0.2c0,0,0-0.1-0.1-0.1l0,0v-0.1l0-0.1L115,22l0.1-0.3l0.1-0.1l-0.1-0.2l0.1,0c0,0,0,0.1,0.1,0.1c0,0,0,0,0,0
		c0.1,0,0.1,0,0.1-0.1v-0.2l0.1,0c0,0,0.1,0,0.1-0.1c0,0,0-0.1,0-0.1l-0.1-0.2l0.1,0l0,0l-0.1-0.1l0-0.1l-0.1-0.1l0.1-0.3
		c0-0.1,0.1-0.2,0.1-0.2c0.1,0,0.2,0,0.2,0v-0.1c0,0,0-0.1,0-0.1c0,0,0,0,0.1,0c0,0,0.1,0.1,0.1,0.1c0,0,0,0,0,0l0,0.1l0,0l0.1,0
		l0.1,0.2l0.2,0.2c0.1,0.1,0.1,0.2,0.1,0.3l0,0.2l0,0.2c0,0.1,0,0.1,0,0.2l0,0.2v0.1l0,0.3l0,0.1l0,0.1l0,0.2l0.1,0.2v0.2l0,0.2
		l0,0.3l0.1,0.3l0,0.3l0.1,0.1l0,0.1l0.1,0.2l0,0.2l0.1,0.5l0,0.5l0.1,0.3l0,0.2L117.2,26.3z M111.3,20.5
		C111.3,20.5,111.3,20.6,111.3,20.5c0,0.1,0,0.1,0,0.1C111.2,20.6,111.2,20.6,111.3,20.5C111.2,20.6,111.2,20.5,111.3,20.5
		C111.2,20.5,111.3,20.5,111.3,20.5z M111.3,20.4L111.3,20.4L111.3,20.4L111.3,20.4z M111.4,21L111.4,21L111.4,21
		C111.4,21,111.4,21,111.4,21L111.4,21z M112.2,22.1C112.2,22.1,112.2,22.1,112.2,22.1c0,0.1-0.1,0.1-0.1,0.1c0,0,0-0.1,0-0.1
		C112.1,22,112.1,22,112.2,22.1z M112.2,22.1c0-0.1,0-0.2-0.1-0.2L112.2,22.1L112.2,22.1z M112.6,23.1L112.6,23.1l-0.1-0.1l0,0.1
		l0,0.2c0,0,0,0.1,0.1,0.1c0,0,0.1,0,0.1-0.1l0-0.1L112.6,23.1L112.6,23.1z M112.9,23.6C112.8,23.7,112.8,23.7,112.9,23.6
		c-0.1,0.1-0.1,0.1-0.1,0.1C112.8,23.7,112.8,23.7,112.9,23.6C112.9,23.7,112.9,23.6,112.9,23.6z M113.7,25.4L113.7,25.4l-0.1-0.2
		l0-0.1c0,0,0-0.1,0-0.1l-0.1,0v-0.1h-0.1l0-0.1l0.1,0c0-0.1,0-0.1,0-0.2l0,0l-0.1,0l0-0.2l-0.1,0c0,0,0,0-0.1,0.1l-0.1-0.1l-0.1,0
		l0-0.1l0,0l0,0l-0.1,0c0,0,0-0.1,0-0.1l0,0l0,0l0,0.1l0,0l0,0v0.1l0.1,0.1h0.1h0.1l0,0.1l0.1,0l0,0.1l0.1,0l0.2,0.2l0.1,0.2
		c-0.1,0-0.1,0-0.1,0h-0.1l0,0.1c0,0,0.1,0.1,0.1,0.1l0.1,0h0.1c0,0,0,0.1,0,0.1l0,0.1L113.7,25.4L113.7,25.4
		C113.7,25.4,113.7,25.4,113.7,25.4z M113.1,23.6C113.1,23.7,113.1,23.7,113.1,23.6C113.1,23.7,113.1,23.6,113.1,23.6z M113.8,25.5
		L113.8,25.5l-0.1,0c0,0-0.1,0-0.1,0l0,0.1l0,0.1l0,0.1l0.2,0l0,0l0,0L113.8,25.5L113.8,25.5L113.8,25.5z M114,26.1L114,26.1l0-0.1
		l0-0.1c0,0,0,0,0,0C113.9,25.9,113.9,26,114,26.1C114,26,114,26.1,114,26.1z M114.2,26L114.2,26l0-0.2l-0.2-0.1l-0.1,0v0.1h0.1
		L114.2,26z M114.1,26.2L114.1,26.2l0,0.1C114.1,26.3,114.1,26.3,114.1,26.2L114.1,26.2z M114.5,26.1c0-0.1-0.1-0.1-0.2-0.2l0,0.1
		L114.5,26.1l0,0.1L114.5,26.1z M114.5,26.4l-0.2-0.1l0,0l0.1,0.2L114.5,26.4z M114.6,26.7L114.6,26.7v-0.2l0,0.1L114.6,26.7
		L114.6,26.7L114.6,26.7z M114.7,26.4L114.7,26.4l-0.1-0.1C114.6,26.3,114.6,26.3,114.7,26.4L114.7,26.4z M114.8,26.5
		C114.9,26.5,114.9,26.5,114.8,26.5C114.9,26.5,114.8,26.5,114.8,26.5C114.8,26.5,114.8,26.5,114.8,26.5
		C114.8,26.5,114.7,26.5,114.8,26.5L114.8,26.5z M114.9,26.9C114.9,26.9,114.9,26.9,114.9,26.9L114.9,26.9L114.9,26.9L114.9,26.9z
		 M115,26.9L115,26.9C114.9,27,114.9,27,115,26.9C114.9,26.9,114.9,26.9,115,26.9z M115.2,26.6L115.2,26.6c-0.1,0-0.1-0.1-0.1-0.1
		c0,0,0,0-0.1,0l0,0.1l0,0l0,0l0.1,0.1l0.1,0C115.2,26.7,115.2,26.7,115.2,26.6C115.2,26.7,115.2,26.6,115.2,26.6z M115.2,21.9
		L115.2,21.9C115.1,22,115.1,22,115.2,21.9L115.2,21.9C115.1,21.9,115.2,21.9,115.2,21.9z M115.3,22.1L115.3,22.1
		C115.3,22.1,115.2,22.1,115.3,22.1L115.3,22.1C115.2,22.1,115.3,22.1,115.3,22.1z M115.3,27C115.3,27.1,115.3,27.1,115.3,27
		L115.3,27C115.2,27.1,115.2,27.1,115.3,27C115.3,27,115.3,27,115.3,27z M115.5,26.9c0,0-0.1,0-0.1,0c0,0-0.1,0-0.1,0l0,0.1
		L115.5,26.9C115.5,27,115.5,26.9,115.5,26.9C115.5,26.9,115.5,26.9,115.5,26.9z M115.5,27.1L115.5,27.1
		C115.5,27.2,115.5,27.2,115.5,27.1L115.5,27.1C115.4,27.1,115.5,27.1,115.5,27.1z M115.6,28L115.6,28L115.6,28L115.6,28L115.6,28z
		 M115.9,27.7L115.9,27.7L115.9,27.7L115.9,27.7z"/>
	<path d="M125.1,22.5c0,0.1,0,0.1-0.1,0.2l-0.1,0.2c0,0,0,0.1,0,0.1c0,0,0,0,0,0h-0.2c-0.1,0-0.1,0-0.1,0.1l-0.1,0.2l-0.1,0
		c0,0-0.1,0-0.1,0l-0.2,0.2c-0.1,0.1-0.1,0.1-0.2,0.2l-0.2,0l-0.2,0l-0.1,0c-0.2,0-0.4,0-0.6,0l-0.7-0.2l-0.4-0.1
		c-0.1,0-0.3-0.1-0.4-0.1l-0.2-0.1l-0.2,0l-0.2-0.1l-0.2-0.1l-0.2-0.1l-0.1,0l-0.1-0.1c0,0,0,0-0.1,0c0,0,0,0,0,0
		c0,0-0.1,0.1-0.1,0.1c0,0.1,0,0.2,0,0.3c0,0.1,0.1,0.1,0.1,0.2c0,0.1,0.1,0.2,0.1,0.2l0.1,0.4c0,0.2,0.1,0.3,0.2,0.4
		c0.1,0.1,0.2,0.1,0.4,0.1l0.3,0l0.3,0l0.3,0.1l0.5,0l0.5,0.1l0.4,0l0.3,0.1l0.1,0l0.1,0c0.1,0,0.1,0,0.2,0l0.3,0l0.5,0l0.4,0
		l0.1,0.2l0.1,0.2l0,0.1l0,0.1c0,0.1-0.1,0.1-0.1,0.2l-0.1,0l0,0.1l0,0.1l-0.1,0.1c0,0,0,0.1,0,0.1l0,0c0,0,0,0.1-0.1,0.1
		c0,0,0,0,0,0l-0.1,0.2c0,0.1-0.1,0.1-0.1,0.2l-0.1,0l-0.2,0l-0.2,0l-0.1,0l-0.4,0l-0.4-0.1l-0.2-0.1l-1.1-0.1l-0.4-0.1l-0.4-0.1
		h-0.2l0,0.2l0,0.2c0,0.1,0,0.2-0.1,0.3l-0.1,0.2l0,0.2c-0.1,0-0.2,0.1-0.2,0.1l-0.1,0.1c0,0-0.1,0-0.1,0c0,0,0-0.1-0.1-0.1l0,0.1
		l-0.1,0c0,0-0.1,0.1-0.1,0.1c0,0,0,0.1-0.1,0.1l-0.1,0l0,0.1l0,0.1c0,0,0,0,0,0.1c0,0-0.1,0.1-0.1,0.1l0,0.1l0,0l-0.1-0.2l-0.1-0.1
		l0-0.1c0,0,0-0.1,0-0.1c-0.1-0.2-0.2-0.4-0.3-0.7l-0.2-0.7l-0.1-0.2l-0.1-0.1l-0.2,0c-0.1,0-0.2,0-0.2,0c0,0,0-0.1,0-0.1
		c0-0.1,0-0.1,0-0.2l-0.1-0.1l0.1-0.1l0-0.2l0.1-0.1l0-0.1l0-0.1c0,0,0-0.1,0.1-0.2c0.1-0.1,0.1-0.1,0.1-0.2c0-0.2-0.1-0.3-0.1-0.4
		l-0.1-0.3l0-0.2l-0.1-0.1l-0.1-0.1l0-0.2l-0.1-0.4l0-0.1l0-0.1l0-0.2l0,0c0,0,0.1,0,0.1,0v-0.1l0,0c0,0,0.1,0.1,0.1,0.1s0,0,0,0
		c0,0,0.1,0,0.1-0.1c0,0,0-0.1,0.1-0.2l0-0.1c0,0,0.1,0,0.1,0c0,0,0.1,0,0.1-0.1l-0.1-0.2l0-0.1l0-0.2l-0.1-0.3c0-0.1,0-0.1,0.1-0.1
		l0.1-0.1l0-0.1l0,0l0.2,0.1l0.3,0.3l0.1,0.1l0.1,0.3l0.2,0.1l0.2,0.1l0.2,0.2l0.1,0l0.1,0l0.4,0.2l0.1,0l0.1,0.1c0,0.1,0,0.1,0,0.1
		c0,0,0.1,0,0.1,0l0-0.1c0,0,0.1,0.1,0.1,0.1l0.1,0l0.1,0l0.1,0l0.3,0.1l0.3,0l0.1,0.2h0.1l0.1,0c0.1,0,0.1,0,0.1,0.1l0.3,0.1h0.2
		l0.1,0L123,22l0.2,0l0.3,0c0.1,0,0.2,0,0.3-0.1l0-0.1l0-0.1h0.1l0.1-0.1c0.1,0,0.1,0,0.1,0.1l0.1,0.1l0.1-0.1c0,0,0.1,0,0.1,0.1
		c0,0,0.1,0,0.1,0.1l0.2,0.2c0,0,0,0.1,0,0.1l0,0.1l0.1,0.1L125.1,22.5z"/>
	<path d="M132.7,25.1l0,0.2l-0.1,0.1l0,0.1l0,0.1l-0.1,0.2l-0.2,0.3h-0.1l-0.1,0.1c0,0-0.1,0.1-0.1,0.1c0,0,0,0-0.1,0l-0.2,0l0-0.1
		c0,0,0,0-0.1,0c0,0,0,0.1,0,0.2c0,0.1,0,0.2,0,0.2c0,0.1-0.1,0.1-0.1,0.1l-0.1,0l-0.1,0v0.1l-0.2,0.1l-0.2,0l-0.1,0.1l-0.2,0
		c-0.1,0-0.1,0-0.1,0l0,0c0,0,0-0.1,0-0.1c0,0,0-0.1,0-0.1c0,0-0.1,0-0.2,0l-0.1,0c0,0,0,0,0-0.1c0,0,0,0,0,0l-0.1,0l0,0l0,0l0,0
		l0,0.1c0,0-0.1,0.1-0.1,0.1h-0.1l-0.1,0l-0.1,0l-0.3-0.2l0-0.1c-0.1,0-0.1-0.1-0.2-0.1l0-0.1l0,0l-0.1,0l-0.2,0l-0.1-0.1l-0.1-0.1
		c-0.1,0-0.1,0-0.1,0l-0.1,0c0,0-0.1,0-0.1-0.1l0-0.2l-0.1-0.1l0,0l0-0.1l0-0.1l-0.1,0L128,26l0-0.2l-0.1-0.2c0-0.1-0.1-0.2-0.1-0.2
		l-0.1-0.1l-0.1,0l-0.3-0.3l-0.3-0.3l-0.1-0.1l-0.1-0.1l-0.1,0l-0.2-0.1l0-0.1c0,0,0-0.1-0.1-0.1l-0.2-0.1l-0.2-0.1l-0.1,0l-0.1,0
		l-0.2-0.2l-0.1-0.2c0-0.1,0-0.2,0-0.2l-0.2-0.2l0-0.2l0-0.1c0-0.1,0-0.1,0-0.2l0.1-0.3l0-0.2l0.1-0.1v-0.2l0.1-0.1l0-0.1
		c0-0.1,0-0.1,0-0.1l0.4-0.2l0-0.1c0,0,0-0.1,0.1-0.1l0.1,0l0-0.1c0,0,0.1,0,0.1,0l0.2-0.2l0.1-0.2l0.1,0l0.1-0.1l0.1-0.1h0.1h0.2
		c0.1,0,0.1,0,0.2,0l0.1,0l0.1,0l0-0.1h0.1l0,0.1c0,0,0,0.1,0,0.1l0.1,0l0.1-0.1l0.2,0l0.2,0l0.2,0.2c0.1,0,0.1,0.1,0.2,0.2l0.1,0.2
		l0.2-0.1l0.2,0.1l0.3,0L130,21v0.1l0.2,0l0.1,0.1l0.1,0.1l0.1,0l0.1,0l0,0.1l0,0.1l0,0.3c0,0-0.1,0-0.1,0.1c0,0.1,0,0.1,0,0.1
		l0.1,0l0.2,0c0.1,0,0.1,0,0.2,0c0,0,0.1,0,0.1,0.1l0,0.1l0,0.1l0.2,0.1c0.1,0.1,0.1,0.2,0.1,0.2l0.3,0.1c0,0.1,0.1,0.1,0.1,0.2
		l0.1,0l0.2,0.2l0,0.1h0.1c0,0,0,0.1,0,0.1c0,0,0,0.1,0,0.1l0.1,0.1c0,0,0.1,0.1,0.1,0.1l0.1,0.1l0.1,0.2l0.1,0.3l0.1,0.3l0.1,0.2
		l-0.1,0.1l0.1,0.1L132.7,25.1z M131.5,24.8c0-0.1,0-0.2,0-0.3l-0.1-0.1v-0.1l-0.1-0.1l-0.1-0.2l-0.1-0.2l-0.1,0l-0.1,0l0-0.1
		c0-0.1,0-0.1-0.1-0.2l-0.1-0.1l-0.1-0.1c0-0.1,0-0.1-0.1-0.1l-0.1-0.1l0-0.1l-0.1,0l-0.1,0l-0.1-0.1c0,0,0,0,0.1-0.1l-0.3-0.3
		c0,0-0.1,0-0.1,0l-0.1,0l-0.2-0.2l-0.2-0.2l-0.3-0.1l-0.2-0.1l-0.1-0.2l-0.1,0l-0.2-0.1l-0.1-0.1l-0.2-0.1c0-0.1,0-0.1,0-0.1
		l0.1-0.1l0-0.1c-0.1,0-0.2,0-0.4,0.1l-0.2,0.1c-0.3,0.1-0.6,0.3-0.9,0.6c-0.3,0.3-0.5,0.6-0.5,0.9c0,0,0,0.1,0,0.2
		c0,0.1,0,0.1,0,0.2l0.2,0.4c0.2,0.3,0.4,0.6,0.7,0.9c0.2,0.2,0.5,0.4,1,0.6c0.3,0.2,0.7,0.3,1,0.4c0.3,0.1,0.6,0.2,1,0.2
		c0.2,0,0.4,0,0.6-0.1c0.2-0.1,0.3-0.1,0.5-0.2C131.4,25.1,131.5,25,131.5,24.8z M129.2,27C129.2,27,129.1,27,129.2,27l-0.2,0
		l-0.1-0.1l0,0l0.2,0.1C129.1,27,129.2,27,129.2,27z M129.6,27L129.6,27C129.6,27,129.6,27,129.6,27C129.5,27,129.5,27,129.6,27
		C129.5,26.9,129.6,26.9,129.6,27z M130.1,21.5L130.1,21.5l-0.1,0.1l-0.1,0l0.1,0.1l0-0.1L130.1,21.5z M130.3,21.7
		c0,0-0.1,0-0.1,0.1C130.2,21.7,130.3,21.7,130.3,21.7C130.3,21.7,130.3,21.7,130.3,21.7z M130.6,21.4L130.6,21.4L130.6,21.4
		C130.6,21.4,130.6,21.4,130.6,21.4z M131.6,26.6C131.6,26.6,131.6,26.6,131.6,26.6L131.6,26.6L131.6,26.6L131.6,26.6L131.6,26.6z"
		/>
</g>
</svg>
