<?xml version="1.0" encoding="utf-8"?>
<!-- Generator: Adobe Illustrator 19.2.1, SVG Export Plug-In . SVG Version: 6.00 Build 0)  -->
<svg version="1.1" id="Layer_1" xmlns="http://www.w3.org/2000/svg" xmlns:xlink="http://www.w3.org/1999/xlink" x="0px" y="0px"
	 viewBox="0 0 100 100" style="enable-background:new 0 0 100 100;" xml:space="preserve">
<style type="text/css">
	.st0{fill:#DBB332;stroke:#4DAA54;stroke-width:2;stroke-miterlimit:10;}
	.st1{fill:url(#SVGID_1_);}
	.st2{fill:#A77A49;}
	.st3{fill:#EBD0B6;}
	.st4{fill:#EFD9C7;}
	.st5{fill:#966231;}
	.st6{fill:#CF9F75;}
	.st7{fill:#EACCB0;}
	.st8{fill:#9C6A39;}
	.st9{fill:#825422;}
	.st10{fill:#C49568;}
	.st11{fill:#996734;}
	.st12{fill:#D9B28E;}
	.st13{fill:#A27343;}
	.st14{fill:#DAB08D;}
	.st15{fill:#DCB691;}
	.st16{fill:#EACBB0;}
	.st17{fill:#DDB795;}
	.st18{fill:#F2DECC;}
	.st19{fill:#EBD0B8;}
	.st20{fill:#593A16;}
	.st21{fill:#E2C1A1;}
	.st22{fill:#956B3D;}
	.st23{fill:#BC8857;}
	.st24{fill:#A46E3D;}
	.st25{fill:#B1804F;}
	.st26{fill:#8E5E28;}
	.st27{fill:#9F7040;}
	.st28{fill:#F1DBC8;}
	.st29{fill:#D3A67E;}
	.st30{fill:#CA9B6E;}
	.st31{fill:#DBB693;}
	.st32{fill:#E2C2A3;}
	.st33{fill:#C69567;}
	.st34{fill:#E2C1A3;}
	.st35{fill:#DFBB99;}
	.st36{fill:#CFA076;}
	.st37{fill:#875728;}
	.st38{fill:#855626;}
	.st39{fill:#73471C;}
	.st40{fill:#D4A67C;}
	.st41{fill:#E3C3A4;}
	.st42{fill:#643F17;}
	.st43{fill:#956635;}
	.st44{fill:#71481C;}
	.st45{fill:#533111;}
	.st46{fill:#B07F50;}
	.st47{fill:#774C1E;}
	.st48{fill:#BD8F61;}
	.st49{fill:#AB7343;}
	.st50{fill:#C3976A;}
	.st51{fill:#C9986B;}
	.st52{fill:#AA7646;}
	.st53{fill:#7F5627;}
	.st54{fill:#DDB593;}
	.st55{fill:#E9CBB0;}
	.st56{fill:#DCB491;}
	.st57{fill:#DEB896;}
	.st58{fill:#D7B08C;}
	.st59{fill:#D8B08B;}
	.st60{fill:none;stroke:#EAE9E8;stroke-miterlimit:10;}
	.st61{opacity:0.54;}
	.st62{fill:#FFFFFF;}
</style>
<circle class="st0" cx="50" cy="50.4" r="48"/>
<radialGradient id="SVGID_1_" cx="50" cy="50.3713" r="43.6002" gradientUnits="userSpaceOnUse">
	<stop  offset="0.3879" style="stop-color:#E2C25A"/>
	<stop  offset="0.4631" style="stop-color:#E3C462;stop-opacity:0.8772"/>
	<stop  offset="0.5803" style="stop-color:#E6CA74;stop-opacity:0.6858"/>
	<stop  offset="0.7249" style="stop-color:#EBD590;stop-opacity:0.4495"/>
	<stop  offset="0.8897" style="stop-color:#F2E4B8;stop-opacity:0.1802"/>
	<stop  offset="1" style="stop-color:#F8F0D7;stop-opacity:0"/>
</radialGradient>
<circle class="st1" cx="50" cy="50.4" r="43.6"/>
<g>
	<path class="st2" d="M77.7,46.9c0.1,0.1,0.1,0.2,0.2,0.3c0.2,0.4,0.1,0.9,0.1,1.3c0,4.5,0,9,0,13.4c0,1.8-0.1,3.7,0.3,5.5
		c-0.1,0.5,0,1-0.1,1.5c-0.1,0.3-0.2,0.5-0.3,0.7c-0.5,0.6-0.8,1.3-1.1,2c-0.2,0.5-0.5,0.8-1.1,0.8c-0.5,0-0.7-0.5-0.8-0.9
		c-0.3-0.9-1-1.5-1.7-2c0.1,0.9,0.6,1.6,0.9,2.5c0.5,1.4,0.3,1.8-1.1,2.1c-0.6,0.1-1.2,0.3-1.8,0.6c-0.3,0.1-0.5,0.3-0.8,0.2
		c-1.7-0.6-2.8,0.5-3.9,1.4c-2.1,1.8-4,3.6-5.2,6.2c-0.7-0.4-0.8-1.3-0.3-2.2c0.2-0.4,0.7-0.6,0.6-1.2c-1,0.2-1.8,1.2-2.9,0.4
		c-0.1-0.1-0.2-0.3-0.3-0.4c-0.1-0.5,0.2-0.8,0.6-1c0.7-0.3,1.3-0.8,1.9-1.4c0.8-0.8,1.3,0.1,2.1,0.5c0.3-1.3,1.2-2.2,1.2-3.5
		c0-0.2,0-0.5,0.2-0.5c1.4-0.5,1.5-2.1,2.5-3c0.2-0.2,0.5-0.5,0.3-0.8c-0.2-0.4-0.6-0.3-1-0.2c-0.5,0.1-0.9,0.3-1.3-0.3
		c-0.3-0.6-0.2-1.1,0.1-1.6c0.1-0.2,0.3-0.5,0.5-0.7c0.8-1,1.4-0.9,2,0.4c0.1-0.4-0.1-0.7-0.4-0.9c-0.5-0.3-0.9-0.7-1.1-1.4
		c-0.2-0.6-0.7-0.5-1.2-0.4c-0.9,0.2-1.9,0.3-2.9,0.3c-0.5,0-1.1,0.1-1.2-0.5c-0.1-0.6,0-1.1,0.5-1.5c0.5-0.4,1-0.7,1.7-0.9
		c0.6-0.2,1.1-0.6,1.4-1.3c-0.3-0.3-0.9,0.1-1.1-0.4c-0.2-0.4,0-0.8,0.2-1.2c0.3-0.9-0.1-1.3-1.1-1.4c-0.7-0.1-1.4-0.1-1.9-0.5
		c-0.1-0.2-0.1-0.3,0-0.5c1.1-0.1,2-0.6,2.1-1.8c0-0.3,0.2-0.6,0.5-0.8c0.6-0.3,0.9-0.9,1.1-1.5c0.3-1.1,1-1.8,2.2-2
		c0.7-0.1,1-0.4,1.1-1.1c0-0.6,0.4-0.8,1-0.8c2.4,0.2,4.7-0.3,7-0.5c0.7-0.1,1.5,0.1,2-0.4C77.4,47.3,77.5,47,77.7,46.9z"/>
	<path class="st3" d="M21.1,49.4c0.7-2.3,1.4-4.6,2.6-6.8c0.4,0,0.8-0.1,1.2-0.1c1.2,0,1.9-0.6,1.8-1.7c-0.1-0.9,0.1-1.5,0.5-2.3
		c0.6-1.2,0.6-2.3-0.3-3.3c0.7-1.5,1-3.2,1.9-4.6c1.7,1.2,3.7,0.9,5.6,1.1c2.9,0.3,5.8,0.3,8.7,0.7c2.6,0.4,5.2,0.7,7.8,1.2
		c3.5,0.7,7,1.5,10.5,1.8c1.5,0.1,2,0.8,1.5,2.2c-0.2,0.7-0.2,1.4-0.1,2.1c0,1.5-0.5,2.9-0.4,4.5c-0.1,1-0.4,2-0.6,3
		c-0.2,0.7-0.3,1.4-0.4,2.2c-0.1,0.4-0.2,0.8-0.6,1.1c-1.3,0.4-2.7,0.1-4.1,0.4c-2.2-0.3-4.4,0-6.6-0.4c-2.9,0-5.8-0.4-8.7-0.3
		c-0.4,0-0.8,0-1.1-0.1c-0.4-0.1-0.8-0.2-1.2-0.2c-4,0.2-8.1-0.2-12.1-0.2C25,49.5,23.1,49.6,21.1,49.4z"/>
	<path class="st4" d="M42.1,15.7c1-0.5,2-0.1,3-0.2c2.8-0.2,5.7-0.2,8.6,0c1.4,0.1,2.8,0.2,4.1,0.1c2.7-0.2,5.4-0.1,8-0.1
		c1,0,2-0.5,3,0.1c-1.4,2.1-1.8,4.6-2.5,7c-0.4,1.3-0.9,2.7-1.2,4c-0.1,0.4-0.3,0.8-0.6,1.1c-0.5,0.4-1.2,0.5-1.8,0.4
		c-0.7-0.1-1.4-0.3-1.7-1c-0.4-0.7,0.3-1.2,0.7-1.7c0.2-0.3,0.4-0.6,0.7-0.9c0.5-0.6,0.9-1-0.1-1.5c-0.6-0.3-0.5-1,0-1.2
		c2.1-0.6,2.6-2.5,3.7-4.1c-0.5,0.3-1.1,0.4-1.6,0.5c-1.4,0.3-2.6,0.9-2.8,2.6c-0.1,1-1.2,1.7-1.1,2.8c0,0.6-0.2,1-0.5,1.5
		c-0.4,0.6-0.9,0.9-1.6,0.8c-0.7-0.1-1.7,0.7-2,0c-0.4-0.9,0.3-1.8,0.7-2.7c0.1-0.2,0.3-0.4,0.5-0.5c0.3-0.3,0.5-0.6,0.5-1.2
		c-0.8,0.1-1.2,0.7-1.6,1.2c-0.7,1-2.9,1.6-4.1,1.2c-0.5-0.2-0.4-0.6-0.4-1c0.1-1.5-0.1-1.6-1.6-1.6c-0.2,0-0.3,0-0.5,0
		c-1.4-0.3-1.5-0.2-2,1.1c-0.1,0.2-0.1,0.4-0.2,0.6c-0.2,0.3-0.4,0.6-0.7,0.5c-0.4-0.1-0.3-0.5-0.4-0.8c-0.2-1,0.3-1.9,0.1-2.9
		c0-0.3,0-0.6,0.1-0.9c0.3-0.7,0.4-1.4,0.5-2.1c0.1-0.6-0.2-0.8-0.7-0.5c-0.7,0.6-1.4,0.7-2.3,0.6c-0.8,0-1.5,0.4-2.1,1
		c-0.7,0.6-1.5,1-2.1,1.7c-0.3,0.3-0.7,0.6-1.2,0.4c-0.5-0.2-0.6-0.7-0.5-1.2c0.2-0.6,0.6-1,0.9-1.4c0.8-0.8-0.1-0.9-0.5-1.3
		c-0.1-0.6,0.6-0.4,0.8-0.7c0.5,0,1,0,1.4,0C41.3,16,41.7,16,42.1,15.7z"/>
	<path class="st5" d="M21.6,74.4c0-0.5,0-1,0-1.4c0.9-2.1,2.2-2.1,4-1.2c0.5,0.2,1,0.5,1.5,0.8c0.8,0.6,1.4,0.6,2.4,0.2
		c1.1-0.4,2-0.7,2.9-1.5c0.4-0.3,0.8-0.1,1.1,0.2c0.9,0.8,2,1.2,2.8,2c0.4,0.4,0.8,0.4,1.3,0.2c1.2-0.4,2.5-0.6,3.6-1.3
		c0.5-0.4,1.2,0.1,1.6,0.5c1.4,1.2,2.6,2.5,3.5,4.1c0.4,0.6,0.8,1.1,1.5,1.4c0.5,0.2,0.8,0.5,1.1,0.9c0.4,0.6,0.9,1,1.6,1.3
		c1.1,0.5,1.3,1.3,0.5,2.3c-0.8,0.3-1.6,0.2-2.4-0.2c-0.5-0.6,0-1.4-0.7-2c-0.9-0.8-2.1-1.1-2.9-2c0-0.1-0.2-0.1-0.2-0.1
		c-1.4,0.6-1.9-0.5-2.6-1.3c-0.8-1-2-1.1-2.8-0.2c-0.7,0.8-1.4,0.8-2.2,0.3c-0.4-0.2-0.8-0.5-1.1,0.1c-0.5,0.9-1,0.6-1.5,0
		c-0.3-0.3-0.4-0.6-0.7-0.8c-0.7-0.8-2-1-2.7-0.3c-0.8,0.9-1.6,1-2.6,0.4c-0.3-0.2-0.5-0.2-0.8,0.1c-0.9,0.8-1.1,0.8-1.8-0.2
		c-0.5-0.6-0.9-1.2-1.8-1.2c-1.2,0-1.5,0.2-1.6,1.5c0,0.2-0.1,0.4-0.3,0.5c-0.1,0-0.3,0-0.3-0.2C21.2,76.3,22.1,75.3,21.6,74.4z"/>
	<path class="st6" d="M20.4,53.5c0-0.6,0-1.3,0-1.9c0.1-0.2,0.3-0.4,0.5-0.3c1.4,0.5,2.7,0,4.1,0c1.1,0,2.3-0.1,3.3,0.4
		c0.8,0.4,1,1.1,0.7,1.9c-0.4,1-0.3,2.1-1.2,2.9c-0.3,0.3-0.1,0.6,0.1,0.8c0.4,0.7,0.3,1.3-0.1,1.9c-0.6,0.6-0.7,1.4-0.8,2.2
		c-0.1,0.7,0.2,1.3,1,1.3c1.1,0,1.5,0.5,1.1,1.6c0.7,0.1,1.4,0,2.1,0.1c0.6,0.1,0.9-0.2,1-0.8c0.1-0.7,0.5-1.1,1.3-1.1
		c1.6,0.1,1.6,0.1,1.4-1.5c0.2-1.1,0.1-2.2,1.1-3c1.3-0.5,1.9-0.3,2.5,0.7c0,0.6-0.5,1-0.7,1.5c-0.4,0.8-0.7,1.5-0.4,2.4
		c0.2,0.7-0.4,1.2-0.7,1.8c0.3,0.3,0.5,0.1,0.6-0.1c0.3-1.3,1.2-0.8,1.9-0.7c0.7,0.2,0.2,0.7,0.1,1c-0.2,0.5,0.6,0.5,0.6,1
		c-0.7,1.3-1,1.4-1.9,0.3c-0.1-0.1-0.2-0.2-0.3-0.1c-0.8,0.4-1.5-0.4-2.1-0.2c-1.7,0.3-3.2-0.5-4.9-0.3c-0.5,0.1-1,0-1.4,0.3
		c-0.6,0.4-1.2,0.9-1.7-0.2c0-0.1-0.1-0.1-0.2-0.1c-1.1,0.5-2-0.4-3-0.3c-1.1,0.2-2.2-0.1-3.3-0.5c-0.1-1.1-0.2-2.2,0.1-3.2
		c0.2-1,0.8-1.6,1.9-1.5c0.7,0.1,1-0.2,1.4-0.8c0.7-1.1,0.8-2.3,1-3.6c0.1-0.5-0.2-0.8-0.7-0.8c-0.6-0.1-1.1,0-1.6,0.2
		C21.4,55.5,20.7,55.1,20.4,53.5z"/>
	<path class="st7" d="M39.4,17.8c-0.3,0.4-0.6,0.8-1,1.2c-1.4,1.7-1.9,3.9-3,5.9c0.7,0.2,1.1-0.3,1.5-0.4c0.4-0.1,0.8-0.6,1.1,0
		c-0.6,1.2-1.6,2.1-3,2c-2-0.1-4-0.4-6.1-0.4c-0.3,0-0.7-0.1-0.9-0.4c0.1-2.4,0.5-4.8,1-7.2c0.3-0.6,0.8-0.6,1.3-0.5
		c0.7,0.1,1.4,0.3,1.9,0.7c0.9,0.7,1.8,0.5,2.7,0c1-0.5,2-1.2,2.9-1.9c0.4-0.3,0.8-0.3,1.2-0.1C39.6,17.1,39.7,17.4,39.4,17.8z"/>
	<path class="st8" d="M51,82.6c0.4-1.1,0-1.7-1.1-2c-0.3-0.1-0.6-0.2-0.8-0.5c-0.4-0.9-1.1-1.5-2-1.7c-0.3-0.1-0.6-0.4-0.8-0.7
		c-0.9-1.8-2.3-3.2-3.7-4.5c-0.5-0.5-1.2-0.9-2-0.1c-0.5,0.5-1.3,1.1-2.2,0.7c0,0-0.1,0-0.1,0c-2.5,1.6-3.3-1.3-4.9-1.9
		c-0.6-0.2-0.7-0.4-1.3,0.1c-0.6,0.5-1.1,1.8-2.3,0.9c0,0-0.2,0.1-0.3,0.1c-0.8,1.2-1.5,0.5-2.4-0.1c-0.8-0.5-1.6-1-2.5-1.2
		c-0.9-0.3-1.9-0.5-2.4,0.8c-0.1,0.2-0.4,0.3-0.6,0.5c0-0.3,0-0.6,0-0.9c-0.3-0.8,0.1-1.7-0.2-2.5c0-0.1,0-0.3,0-0.4
		c-0.1-0.1-0.1-0.2,0-0.3c1.5,0,2.6,1,3.8,1.8c1,0.8,2.1,1.1,3.4,1c0.7,0,1.3-0.2,1.2-1.1c0-0.5,0.3-0.7,0.7-0.8
		c1.1-0.2,2.2-0.3,3.1,0.7c0.7,0.8,1.6,1.6,2.8,1.7c1.3,0.2,2.6,0.5,3.4-1c0.4-0.6,1.1-0.8,1.6-0.3c1.6,1.4,3.4,2.3,5.3,3.1
		c0.2,0.1,0.4,0.3,0.5,0.5c0.6,1.5,2,2.5,2.3,4.1c0.1,0.5,0.5,0.8,0.9,1c1,0.5,1.8,1.2,2.6,1.9c0.5,0.4,0.6,0.9-0.1,1.4
		C52.3,83.2,51.5,83.3,51,82.6z"/>
	<path class="st9" d="M69.1,16.8c0.4,0.8,0.7,1.6,0.9,2.4c0.1,1.3,0.2,2.6,0.8,3.8c0.2,0.4,0.3,0.8,0.7,1.1c0.6,1.1,0.5,2.4,1,3.6
		c0.1,0.9,0.2,1.9,0.5,2.8c0.3,0.9,0.1,1.8-0.8,2.4c-0.7,0.2-1-0.5-1.5-0.8c-0.5-0.4-0.9-0.5-1.3,0.1c-0.5,0.6-1.1,1.1-2,0.7
		c-0.2-0.3-0.1-0.7,0-1c0.2-0.8,0.8-1.5,0.8-2.4c0.1-0.9,0.5-1.7,0.6-2.6c0.2-0.9,0.5-1.8-0.3-2.7c-0.3-0.3,0-0.8,0.2-1.1
		c0.4-1,0.3-2,0.1-3c-1,2.4-1.4,5-2.6,7.4c-0.4,0.4-0.9,1.2-1.3,0c1.4-2.1,1.9-4.5,2.4-7c0.2-1,0.4-2,0.8-2.9
		C68.3,17.1,68.4,16.5,69.1,16.8z"/>
	<path class="st10" d="M29.1,28.9c0-0.1,0-0.1,0-0.2c-0.4-0.2-0.9-0.2-0.8-0.9c0.1-0.6,0.5-0.8,1-0.9c0.9-0.2,1.8-0.1,2.6,0
		c2.5,0.2,5.1,0.7,7.6,0.8c0.2,0,0.5,0,0.6,0.3c0.5,0.9,1.3,0.8,2,0.6c1.4-0.3,2.7-0.3,4.1-0.2c1.4,0.2,2.7,0.3,4.1,0.1
		c0.4-0.1,1.1-0.2,1,0.7c-0.3,0.3-0.8,0.4-1.2,0.4c-3.6,0-7.2,0.1-10.9-0.1c-1.4-0.4-2.9,0-4.3-0.3c-1.4-0.4-2.8-0.1-4.2-0.2
		c0,0.6,0.3,0.7,0.6,0.8c1.1,0.3,2.2,0.4,3.3,0.5c3.6,0.3,7.2,0.5,10.8,1c3,0.4,6,0.6,8.9,0.9c1.5,0.1,2.9,0.2,4.4,0.5
		c1.9,0.4,3.9,0.1,5.9,0.3c1.4,0.1,1.7,0.4,1.9,1.8c-0.2,0.6,0,1.5-1,1.6c-0.1-0.1-0.2-0.1-0.2-0.3c-0.1-1.8-1.4-2-2.7-2
		c-4.7,0-9.3-1.2-14-1.5c-3.9-0.2-7.7-0.9-11.6-1c-1.7-0.1-3.3-0.4-5-0.5C30.4,31,29.3,30.5,29.1,28.9z"/>
	<path class="st11" d="M77.7,46.9c0,0.3,0,0.5,0,0.8c-0.9,0.4-1.8-0.1-2.5-0.5c-3.2-1.7-6.5-3.3-9.4-5.5c-0.7-0.5-1.4-0.8-2.1-1
		c-0.2-1,0.2-1.6,1-2.2c1.4,1,3.1,1.2,4.5,2.1c2,1.2,4.2,1.9,6,3.4c0.4,0.3,0.8,0.6,1.3,0.3c0.5-0.1,0.6,0.3,0.8,0.5
		C77.6,45.5,77.7,46.2,77.7,46.9z"/>
	<path class="st12" d="M64.7,38.5c-0.5,0.7-0.9,1.4-1,2.2c0,0.2-0.1,0.3-0.2,0.5c-0.5,0.6-0.8,1.3-0.8,2.1c-0.1,0.4-0.1,1-0.7,1.1
		c-0.2-1.6,0.2-3.1,0.4-4.6c0.5-1,0.9-2,0.9-3.1c0-1-0.3-1.4-1.3-1.5c-1.5-0.2-3.1-0.1-4.7-0.4c-2.7-0.5-5.4-1.1-8.1-1.4
		c-2-0.3-4-0.6-6-0.8c-2.7-0.2-5.5-0.6-8.2-0.7c-1.3-0.1-2.7,0-4-0.4c-0.9-0.3-2.1-0.3-2-1.7c0-0.2,0-0.5,0-0.7
		c1.2,2.5,3.6,1.9,5.6,2.1c3.3,0.3,6.7,0.5,10,0.9c4,0.5,8,0.6,12,1.4c2.3,0.5,4.5,0.2,6.8,0.6c1.7,0.3,1.8,0.3,1.9,2.1
		c0,0.1,0.1,0.2,0.2,0.3C65.6,37.3,65.3,37.9,64.7,38.5z"/>
	<path class="st13" d="M77.3,44.8c-0.3-0.2-0.5-0.3-0.8-0.5c-0.4-0.1-0.5-0.5-0.6-0.8c-0.9-1.8-2.1-3.4-3-5.1
		c-0.7-1.3-1.8-2-2.8-2.9c-0.6-0.5-0.6-1,0.1-1.4c0.6-0.4,1-1,1.8-1.2c1-0.9,1.2-1.9,0.6-3.1c-0.3-0.6-0.2-1.3-0.1-2
		c1.4,5.6,3.3,11,4.8,16.5C77.3,44.4,77.2,44.6,77.3,44.8z"/>
	<path class="st14" d="M20.4,53.5c0.6,1.5,1.2,1.7,2.7,0.8c0.8-0.5,1.7-0.2,2.4,0.1c0.5,0.2,0.2,1.1,0.1,1.7
		c-0.2,1.2-0.5,2.4-1.2,3.4c-0.3,0.3-0.4,0.6-0.9,0.6c-1.5-0.1-2.2,0.5-2.3,2c0,0.8,0,1.5,0,2.3c0.3,0.3,0.3,0.7,0.3,1.1
		c0,0.2,0,0.4,0,0.6c0,0.2-0.1,0.4-0.3,0.5c-0.1-0.1-0.2-0.3-0.2-0.4C21,61.9,20.4,57.7,20.4,53.5z"/>
	<path class="st15" d="M51.2,28.9c-0.1-0.2-0.3-0.3-0.5-0.2c-2.5,0.6-5.1-0.4-7.6,0c-0.6,0.1-1.1,0.3-1.6,0.2
		c-0.6-0.1-1.6,0.5-1.6-0.8c0-0.2-0.1-0.1-0.2-0.1c-3.3-0.1-6.5-0.7-9.7-0.9c-0.5,0-1.2,0-1.5,0.5c-0.3,0.6,0.4,0.7,0.6,1.1
		c-0.6,0-1-0.2-1-0.9c0.1-0.7,0-1.3,0.1-2c0.3,0,0.6,0,0.9,0c0.2,0.1,0.4,0.4,0.7,0.3c2.1-0.1,4.2,0.6,6.3,0.3
		c0.5-0.1,0.9,0.2,1.3,0.2c0.8,0,1.7,0,2.4-0.5c0.4-0.3,1-0.8,1.5-0.4c0.5,0.3,0.3,1,0.3,1.6c0,0.2-0.1,0.5-0.1,0.9
		c1.4-1.2,3-0.6,4.5-1c0.4-0.1,0.8-0.1,1,0.1c1,1,2,0.3,3.1,0.2c2.4-0.4,4.8-0.8,7.2,0c0.3,0.1,0.9,0,0.7,0.7c-1,0.3-2,0.6-3.1,0.3
		c-1.1-0.2-2.4-0.1-3.5,0.4C51.4,29,51.3,29,51.2,28.9z"/>
	<path class="st16" d="M29,29.6c0.7,1.4,2.1,1.6,3.4,1.7c4.4,0.3,8.8,0.9,13.2,1.4c3,0.3,6.1,0.5,9.1,1.2c2.7,0.7,5.4,0.6,8.1,1
		c0.8,0.1,1,0.4,0.9,1.2c-0.2,1.3,0.2,2.8-1.2,3.7c-0.5-0.8-0.2-1.5,0.1-2.3c0.4-1.1,0-1.9-1.1-1.7c-1.2,0.2-2.3-0.2-3.4-0.4
		c-2.2-0.4-4.5-0.6-6.6-1.2c-2.7-0.8-5.5-0.5-8.2-1.5c-0.8-0.3-1.9-0.1-2.8-0.1c-3.2,0-6.4-0.7-9.6-0.8c-0.7,0-1.9,0-2.1-1.2
		C28.8,30.2,28.7,29.9,29,29.6z"/>
	<path class="st17" d="M28.3,51.8c-2.6-0.7-5.3,0.4-7.9-0.2c0.2-0.7,0.5-1.4,0.7-2.2c1.2-0.5,2.5-0.3,3.8-0.2c0.7,0,1.3,0.1,2,0.2
		c-0.1,0.6,0.2,0.8,0.8,0.8c1.2,0,2.3,0.3,3.4,0.7c0.3,0.1,0.8,0.2,0.7,0.7c-0.1,0.4-0.5,0.5-0.9,0.5C30,52.1,29.1,52.3,28.3,51.8z"
		/>
	<path class="st18" d="M39.4,15.7c0,0.5-0.6,0.4-0.7,0.7c-0.3,0.4-0.7,0.7-1.2,0.7c-2.6,0.2-5.1,1.1-7.8,0.9c-0.2,0-0.3-0.1-0.4-0.2
		c0-1.1,1.2-2.1,2.6-2.2C34.4,15.7,36.9,15.7,39.4,15.7z"/>
	<path class="st19" d="M29.3,17.8c2.7-0.1,5.4-0.8,8.1-1c0.5,0,0.9-0.3,1.3-0.5c1.3,0.1,1.5,0.3,0.7,1.4c-0.3-1-0.7-1.2-1.4-0.6
		c-1.3,1-2.6,2.1-4.3,2.3c-0.5,0.1-0.8-0.1-1.1-0.3c-1-0.6-2.1-1.4-3.4-0.7C29.1,18.3,29,18,29.3,17.8z"/>
	<path class="st20" d="M69.1,16.8c-0.6,0.1-0.7,0.6-0.8,1c-0.8,2.2-0.9,4.6-1.8,6.8c-0.4,1-0.6,2.1-1.6,2.8c0.1,0.4-0.1,0.5-0.4,0.6
		c-0.2,0-0.3-0.1-0.3-0.3c1.2-3.6,2.3-7.2,3.5-10.8c0.2-0.5,0.2-1.2,1-1.3C68.9,16.1,69,16.5,69.1,16.8z"/>
	<path class="st16" d="M26.9,35.2c0.9,0.3,1.3,1.3,1,2.5c-0.1,0.5-0.3,0.9-0.6,1.3c-0.3,0.4-0.6,0.8-0.4,1.3
		c0.4,1.1-0.3,1.7-0.8,2.5c-0.1,0.2-0.3,0.4-0.5,0.3c-0.6-0.5-1.1-0.3-1.7,0c-0.2,0.1-0.3-0.2-0.3-0.4c0.2-0.6,0.3-1.2,0.7-1.7
		c0.4,0,0.8,0.4,1-0.2c0.4-1.4,1.3-2.8,0.9-4.4C26.4,35.9,26.7,35.6,26.9,35.2z"/>
	<path class="st21" d="M26.4,36.4c0.8,0.3,0.5,0.9,0.3,1.4c-0.3,1-0.6,2-0.9,3c-0.1,0.3-0.2,0.8-0.6,0.8c-0.4,0-0.6-0.3-0.8-0.7
		C25.1,39.4,25.8,37.9,26.4,36.4z"/>
	<path class="st22" d="M71.5,24.1c-1.4-0.1-1-1.4-1.4-2.2c-0.5-0.8-0.3-1.8,0-2.7C70.6,20.8,71.1,22.4,71.5,24.1z"/>
	<path class="st23" d="M21.1,66.5c0-0.2,0.1-0.3,0.1-0.5c0.6,0.2,0.5,0.8,0.5,1.3c0,0.6,0.1,1.1-0.3,1.6c0,0.1-0.1,0.2-0.1,0.3
		C21,68.3,21.2,67.4,21.1,66.5z"/>
	<path class="st24" d="M21.4,69.6c0.5,0.8,0.1,1.7,0.2,2.5C21.3,71.3,21.3,70.5,21.4,69.6z"/>
	<path class="st18" d="M42.1,15.7c-0.4,0.7-0.8,1-1.2,0C41.3,15.7,41.7,15.7,42.1,15.7z"/>
	<path class="st23" d="M21.2,65.5c0-0.4,0-0.8,0-1.2c1.3-0.2,2.6,0.4,4,0.2c0.6-0.1,1.6,0.5,2.5,0.1c0.3-0.1,0.5,0.1,0.4,0.5
		c-0.2,0.8,0.3,0.7,0.6,0.4c1.4-1.2,3-0.7,4.5-0.5c0.7,0.1,1.3,0.3,2,0c0.2-0.1,0.5-0.3,0.7-0.1c0.8,1,1.6,0.4,2.5,0.1
		c0.3,0.5-0.7,1,0,1.2c0.8,0.3,1.1-0.5,1.4-1c1.4-0.7,2.8-0.3,4.3-0.3c1,0.3,1.5,1.2,2.2,1.8c0.8,0.7,1.6,0.9,2.5,0.8
		c1-0.2,2.1-0.2,3.1-0.2c0.8,0.1,1.3-0.2,1.2-1.2c0-0.9,0.8-1.7,1.9-1.9c0,0.1,0.1,0.1,0.1,0.2c0.4,1.9,0.6,2,2.5,1.4
		c0.4-0.1,0.5-0.3,0.5-0.7c0-0.7,0-1.3-0.2-2c-0.2-0.9,0.5-2.1,1.2-2.3c0.9-0.3,1.5,0.1,1.6,1c0.1,0.5,0,1,0,1.6
		c0,0.3-0.1,0.6,0.1,0.8c1,0.6,0.6,1.3,0.3,2.1c-0.2,0.5-0.3,1-0.2,1.5c0.2,1.5-0.6,2.5-1.9,3c-0.9,0.4-1.2,1-1.4,1.9
		c-0.2,1.3-0.2,2.6,0.3,3.8c0.3,0.7,0.3,1.5,0.4,2.3c0.1,0.1,0.2,0.2,0.2,0.2c0.8,0.9,0.8,2.1,0.6,3.2c-0.1,0.6-0.4,0.6-0.9,0.5
		c-1.9-0.7-3.5-2-4.8-3.5c-0.3-0.3-0.3-0.7-0.3-1.1c0.2-1.5-0.6-2.5-1.8-3.1c-1.3-0.6-1.7-1.9-2.4-2.9c-0.3-0.5,0.1-0.9,0.4-1.3
		c0.3-0.4,0.4-0.9,0.1-1.3c-0.3-0.5-0.7-0.4-1.2-0.3c-0.8,0.2-1.5,0.2-2.1-0.5c-0.4-0.4-0.9-0.4-1.5-0.4c-1,0-1.7-0.3-2.2-1.2
		c-0.4-0.8-1-1.1-1.8-0.3c-0.6,0.6-1.5,0.6-2.3,0.6c-0.7,0-1.3,0.1-1.9,0.3c-0.7,0.1-1.5,0.2-2.2,0c-1.4-1.1-3-1.5-4.7-0.9
		c-1.1,0.3-2.2,0.4-3.3,0.5c-1.3,0.1-2.5,0-3.4-1.1C22.7,65.7,21.8,66,21.2,65.5z"/>
	<path class="st25" d="M58.4,79c-0.9-2.2-1.5-4.5-1-6.9c0.1-0.6,0.5-1,1-1.2c1.9-0.8,2.1-1.1,2.1-3.1c0-0.5,0-1.1,0.3-1.5
		c0.4-0.7,0.5-1.2-0.2-1.8c-0.6-0.5-0.2-1.4-0.3-2.2c-0.1-0.4,0.2-1-0.5-1c-0.5,0-1-0.1-1.3,0.5c-0.4,0.7-0.7,1.2-0.2,2.1
		c0.3,0.6,0.1,1.5,0.1,2.2c0,0.2-0.1,0.5-0.3,0.4c-0.9-0.4-1.7,0.4-2.5,0.3c-0.6,0-0.8-0.3-0.8-0.8c0-0.5,0-1,0-1.6
		c-0.5-0.9,0.4-1.4,0.7-2c0.6-0.4,1.1-0.7,1.3-1.4c0.2-0.2,0.3-0.3,0.6-0.4c1.4-0.3,2.2-1.2,2.5-2.6c0.1-0.4,0-0.8,0.4-1.1
		c0.7-0.1,1.4,0.2,2.1,0.2c1.2,0,1.6,0.9,1,2c-0.1,0.3-0.4,0.6-0.1,0.9c0.3,0.4,0.4-0.1,0.6-0.2c0.2-0.2,0.4-0.1,0.5,0.1
		c0.2,0.3,0.3,0.7,0.1,0.9c-0.5,0.4-0.7,1.2-1.5,1.2c-0.7,0.1-1.1,0.6-1.7,0.8C60.9,63,61,63.6,61,64c0,0.5,0.6,0.3,0.9,0.3
		c1,0,2.1,0,3.1-0.4c0.7-0.2,1.4-0.1,1.4,0.9c0,0.4,0.1,0.7,0.4,0.8c1.1,0.3,1,1,0.6,1.9c-0.2-0.7-0.5-1.6-1.2-1.3
		c-0.7,0.3-1.4,1.1-1.3,2.1c0,0.4,0.2,1.1,0.9,0.5c0.5-0.4,0.9,0,1.4,0c0.4,0,0.7,0.4,0.3,0.9c-0.8,0.9-1.6,1.9-2.1,3
		c-0.1,0.3-0.4,0.5-0.8,0.5c-0.2,0-0.5,0.1-0.4,0.3c0.3,1.5-1.2,2.4-1.2,3.8c0,0.4-0.5,0.5-0.8,0.1c-0.7-1.2-1.3-1.1-1.9,0.1
		c-0.2,0.4-0.7,0.4-1,0.5C59,78.2,58.5,78.4,58.4,79z"/>
	<path class="st22" d="M61.1,82.4c-0.1-0.7,0.3-1.3,0.7-1.8c1.1-1.5,2.4-3,3.9-4.2c1.2-0.9,2.3-2.6,4.4-1.8c0.7,0.3,1.4-0.5,2.1-0.7
		c2.2-0.5,2.2-0.5,1.2-2.7c-0.2-0.5-0.5-1-0.7-1.5c-0.1-0.2-0.2-0.5,0-0.7c0.3-0.2,0.6,0,0.7,0.1c0.5,0.8,1.5,1.2,1.7,2.3
		c0.1,0.3,0.1,0.8,0.6,0.8c0.4,0,0.6-0.3,0.8-0.7c0.3-0.7,0.4-1.6,1.2-1.9c0.4,1.2,0.4,2.5,0.3,3.8c-0.2,0.8-0.3,1.7-0.7,2.4
		c-0.4,0.6-0.1,1.2,0.2,1.7c-0.3,1.1-1.4,0.9-2.1,1.4c-0.5,0.2-0.9,0.5-1.4,0.8c-0.1,0.1-0.2,0.1-0.3,0.1c-3.7,1.2-7.4,2.6-11.1,3.8
		c-0.4,0.2-0.8,0.3-1.3,0.3c-0.2,0-0.4-0.1-0.5-0.2C60.6,83.1,60.7,82.7,61.1,82.4z"/>
	<path class="st26" d="M63.5,41c0.1-0.1,0.1-0.2,0.2-0.2c0.7-0.4,1.2,0,1.7,0.4c1.4,1,2.9,1.9,4.3,2.8c1.5,0.9,3.1,1.7,4.6,2.6
		c1,0.6,2.1,1,3.3,1.3c-0.7,1-1.9,0.4-2.8,0.6c-1.8,0.4-3.6,0.4-5.5,0.6c-0.5,0-1,0-1.4-0.2c-1.8-0.6-3.8-0.4-5.6-0.6
		c-0.5-0.1-1.1,0-0.9-0.9c0-1,0.4-1.9,0.5-2.8c0.2-0.4,0.3-0.8,0.5-1.2C62.8,42.4,63,41.6,63.5,41z"/>
	<path class="st25" d="M61.1,82.4c-0.1,0.4-0.2,0.8-0.2,1.2c-1.1,0.6-2.3,0.3-3.4,0c-1.6-1.3-3.4-2.2-5-3.5c-0.6-0.5-1-1-1.1-1.7
		c-0.1-0.7-0.5-1.3-1-1.9c-0.6-1.5-1.4-2.6-3-3.2c-1-0.4-1.8-1.3-2.3-2.4c-1-2.1-2.8-3.1-5.3-2.7c-1,0.2-1.8-0.1-2.6-0.4
		c0.8-0.9,1.8-0.2,2.7-0.5c0.4-0.1,0.9-0.2,1.2-0.5c1-0.9,1.5-0.9,2,0.2c0.5,1.2,1.3,1.2,2.3,1.2c0.6,0,1.1,0,1.6,0.6
		c0.5,0.6,1.2,0.4,1.9,0.1c0.5-0.2,0.9-0.3,1.2,0.3c0.2,0.5,0.8,1,0.3,1.6c-0.3,0.4-1,0.9-0.7,1.3c0.7,0.8,0.8,2.1,1.9,2.6
		c1.7,0.8,2.7,1.8,2.3,3.8c-0.1,0.4,0.2,0.7,0.5,1c1.4,1.4,2.9,2.6,4.8,3.2c0.2-1.2,0.2-2.3-0.3-3.5c0.7,0.3,1.3,0.3,1.9-0.3
		c0.3-0.3,0.8-0.7,1.2-0.2c0.5,0.5-0.1,0.9-0.4,1.2C60.7,80.7,60.6,81.5,61.1,82.4z"/>
	<path class="st27" d="M61.5,47.2c0.6,0.9,1.7,0.6,2.5,0.7c1.4,0.1,2.8-0.1,4,0.8c-0.4,0-0.6,0.2-0.5,0.7c0.2,0.8-0.3,1.2-1.1,1.2
		c-1.2,0-1.8,0.7-2.2,1.7c-0.2,0.7-0.2,1.6-1.3,1.8c-0.2,0-0.3,0.8-0.4,1.2c-0.3,1.1-1.1,1.4-2.2,1.1c-0.2-0.1-0.3-0.3-0.3-0.5
		c-0.2-1.2,0.3-2.3,0.2-3.4c0-0.3,0-0.5,0.1-0.8c0.2-0.4,0.1-0.9,0.5-1.3C61.3,49.3,61,48.2,61.5,47.2z"/>
	<path class="st23" d="M60.3,55.9c0,0.2,0,0.3,0,0.5c0,0.2,0,0.3,0,0.5c0.2,1.7-0.8,2.9-2,3.9c-0.3,0.3-0.6-0.1-0.9-0.1
		c-0.4-0.6,0.1-1.1,0.4-1.5c0.5-0.7,1-1.5,1-2.4C59.2,56.2,59.6,55.8,60.3,55.9z"/>
	<path class="st22" d="M77.7,73.7c0-1.4,0-2.7,0-4.1c0.1-0.2,0.1-0.3,0.2-0.5c0,0.4,0.1,0.8,0.1,1.2c0.3,0.4,0.3,0.9,0.3,1.4
		c0,0.5,0,1,0,1.5c0,1.1,0.1,2.2,0,3.3c0,0.2-0.1,0.4-0.3,0.6c-0.6-0.3-0.6-0.8-0.5-1.3C77.6,75.1,77.5,74.4,77.7,73.7z"/>
	<path class="st28" d="M55.3,40c-2.4-0.3-4.6,0.1-6.9,0.7c-0.5,0.1-0.8,0.5-1.3,0.7c0-0.4,0-0.7,0-1c-0.1-0.4-0.2-0.8-0.6-1
		c-0.4-0.1-0.5,0.3-0.8,0.5c-0.6,0.6-1.6,0.3-2.3,0.8c-0.1,0.1-0.5-0.2-0.5-0.4c-0.2-1.4-1-0.8-1.6-0.5c-0.9,0.4-1.7,0.4-2.7,0.3
		c-1.4-0.1-2.9,0.1-4.2,0.8c-0.7,0.4-1.2,0.8-1.8-0.1c-0.2-0.3-0.5-0.2-0.7,0.1c-0.2,0.2-0.2,0.4,0.1,0.5c1.2,0.6,0,0.9-0.2,1.4
		c-0.1-0.6,0-1.2-0.7-1.4c-0.2-0.1-0.4-0.4-0.1-0.6c0.4-0.2,0.4-0.3,0-0.5c-0.7-0.5-0.6-1-0.2-1.6c0.4-0.6,0.3-0.9-0.2-1.5
		c-0.8-1-1.5-2.3-1.5-3.7c0-1.1,1-1.2,1.7-1.1c2.3,0.4,4.6,0.3,7,0.5c0.9,0.1,1.7,0.2,2.6,0.2c0.9,0,1.8,0.1,2.7,0.5
		c0.2,0.1,0.4,0.2,0.6,0.2c4.8,0,9.4,1.2,14,2.7c1,0.3,2.2,0,3.1,0.6c0.3,0.2,1-0.1,1,0.6c0,0.7-0.4,1.4-0.9,1.4
		c-1,0.1-1.4,0.8-2,1.3C57.6,40.9,56.5,40.5,55.3,40z"/>
	<path class="st29" d="M28.3,51.8c1.1,0,2.1,0,3.2,0c-1.1-0.7-2.2-1.1-3.4-1.2c-0.4,0-0.7,0-1.1-0.1c-0.3-0.1-0.9,0-1-0.5
		c-0.1-0.5,0.6-0.3,0.8-0.6c4.3-0.1,8.6,0.4,12.9,0.3c0.2,0,0.5,0,0.7,0.2c-0.7,0.6-1.5,0.3-2.3,0.3c-1.4,0.1-2.7,0.2-3.6,1.5
		c-0.3,0.2-0.7,0.3-0.9,0.6c-0.3,0.5-0.8,1-0.5,1.5c0.2,0.5,0.8,0,1.2,0c2,0,2.9,0.8,2.4,2.8c-0.1,0.5-0.3,1.1-0.6,1.5
		c-0.9,0.8-0.6,1.9-1,2.9c-0.1,0.6-0.3,1-1.1,0.7c-0.5-0.2-0.9,0.1-1.2,0.5c-0.8,1-2.4,1.4-3.6,0.8c-1.9-0.9-2.3-1.8-1.8-4
		c0.6-0.6,0.7-1.2,0-1.8c-0.6-0.5-0.5-0.9,0.2-1.1c0.4-0.1,0.5-0.4,0.5-0.7c0-0.6,0.2-1.1,0.5-1.6C29,53,28.9,52.4,28.3,51.8z"/>
	<path class="st30" d="M50.2,50.1c2.2,0.4,4.4,0,6.5,0.4c0.1,0.2,0,0.5-0.1,0.7c-0.2,0.3-0.4,0.6-0.7,0.8c-0.6,0.1-1.2,0.2-1.8,0.2
		c-0.3,0-0.6-0.1-0.9-0.1c-0.7,0-1.4,0-2.3,0c0.9,0.3,0.8,0.7,0.6,1.3c-0.7,1.8-2,3.4-2.5,5.3c-0.1,0.4-0.5,0.7-0.8,1.1
		c-0.4,0.4-1.1,0.8,0,1.4c0.3,0.2,0.1,0.6-0.1,0.8c-0.6,0.6-1,1.3-1.3,2c-0.2,0.4-0.5,0.8-1,0.7c-0.6-0.1-1.1-0.5-1.4-1.1
		c-0.2-0.4,0.1-0.6,0.4-0.7c0.7,0,0.8-0.4,0.7-1c-0.2-1.3,0.3-2.5,0.3-3.8c0.2-2.5,1.7-4.4,2.4-6.7C48.6,50.6,49.3,50.2,50.2,50.1z"
		/>
	<path class="st31" d="M55.8,46.3c-0.4,2.3-0.4,2.2-2.5,2.5c-1.2,0.1-2.4,0.1-3.5,0.2c-1.9-0.3-2.1-1-1-2.7c0.5-0.9,1.3-1.3,2.2-1.7
		c1.7-0.8,3-2.1,3.9-3.7c0.2-0.2,0.3-0.3,0.5-0.5c0.6-0.3,0.8,0.2,0.7,0.6C56,42.6,56.8,44.5,55.8,46.3z"/>
	<path class="st32" d="M54.8,40.7c-0.2,1.3-0.9,2.2-1.9,2.9C52,44.1,51.2,45,50,45.1c-0.4,0-1.7,2.2-1.7,2.7c0,1,1,0.7,1.4,1.1
		c-1.3,0-2.6,0.1-3.9-0.2c-0.5-0.1-1.1-0.2-1.6,0.3c-0.2,0.2-0.5,0.5-0.8,0.2c-0.3-0.3-0.5-0.6-0.3-1.1c0.7-2.1,2.1-3.6,4.1-4.6
		c0.2-0.1,0.5-0.1,0.6,0c1,1,2.1,0.1,3.1,0.1c0.7,0,1.4-0.5,1.8-1.2C53.2,41.6,53.9,41,54.8,40.7z"/>
	<path class="st33" d="M34.4,51.6c0.5-1.5,1.9-1.5,3.1-1.7c1-0.1,2,0,3-0.1c0.3,0,0.6,0,0.9,0c1.4,0.2,2.8,0.1,4.2,0.1
		c1.5,0,1.6,0.2,1,1.6c-0.4,0.4-1,0.3-1.5,0.3c-1.1,0.1-2.2-0.3-3.3-0.2c-0.4,0-0.8,0-1.1,0c-1.2,0-1.2,0-1,1.2c0,0.4-0.1,0.7-0.4,1
		c-0.4,0.3-0.6,0.7-0.8,1.2c-0.4,0.8-1,0.8-1.4,0c-0.5-1-1.1-1.6-2.3-1.6c-0.4,0-0.9-0.2-1-0.7C33.6,52.2,34,51.9,34.4,51.6z"/>
	<path class="st34" d="M55.8,46.3c0.6-1.8-0.3-3.6,0-5.3c0-0.3-0.1-0.6-0.5-0.7c0-0.1,0-0.2,0-0.2c1.2,0.2,2.4,0.3,3.6,0.5
		c0.4,0.6,0.1,1.2-0.3,1.6C57.3,43.2,56.8,44.9,55.8,46.3z"/>
	<path class="st35" d="M56.5,51.1c0.1-0.2,0.2-0.3,0.2-0.5c1.3-0.4,2.7-0.2,4.1-0.2c0,0.4,0.1,0.9-0.2,1.2
		C59.5,52.5,57.4,52.2,56.5,51.1z"/>
	<path class="st36" d="M46.4,51.5c0.2-1.4,0.2-1.4-1.3-1.5c-1.3-0.1-2.5,0.3-3.8-0.2c3-0.2,5.9,0.2,8.9,0.3
		c-0.7,0.3-1.4,0.6-1.7,1.4c-0.6,0.3-1.2,0.3-1.9,0.2C46.6,51.7,46.5,51.6,46.4,51.5z"/>
	<path class="st31" d="M57.4,49.1c-0.7,0-1.4,0.1-1.4-0.6c0-0.4,0.4-0.9,0.9-0.7c0.6,0.2,1.6-0.1,1.7,0.7
		C58.7,49.4,57.8,49,57.4,49.1z"/>
	<path class="st19" d="M64.3,27.7c0.1,0.1,0.1,0.2,0.2,0.3c-0.1,0.2-0.2,0.4-0.4,0.5c-0.5,0.2-1.1,0.1-1.7,0.1c-1.1,0-2.1-0.3-3.2,0
		c-0.3,0.1-0.7,0-1-0.3c-1.9-1-3.9-0.8-5.9-0.6c-1.4,0.1-2.8,0.2-4,0.9c-0.4,0.2-0.4-0.1-0.6-0.3c-0.5-0.6-1.2-0.9-2-0.5
		c-1,0.5-2-0.4-3,0.3c-0.2,0.1-0.4,0.1-0.5,0.2c-0.3,0.3-0.7,0.7-1.1,0.4c-0.5-0.4,0.4-0.7,0.2-1.1c0.2-1.4,0.1-2.9,1-4.2
		c-0.4-0.4-1.1,0.1-1.3-0.4c-0.2-0.5,0-0.9,0.2-1.4c0.1-0.2,0.1-0.4,0.2-0.6c0-0.3,0-0.5-0.3-0.6c-0.3-0.1-0.4,0.1-0.6,0.3
		c-0.1,0.2-0.1,0.4-0.2,0.6c-0.2,1.5-1.3,2.3-2.4,3.1c-0.7,0.2-1.3,0.6-1.9,1c-0.3,0.2-0.5,0.2-0.8,0c-0.2-0.2-0.3-0.4-0.2-0.6
		c1.2-1.5,1.2-3.6,2.5-5c0.2-0.3,0.5-0.5,0.8-0.7c0,0.4-0.1,0.9,0.3,1.1c0.5,0.2,0.7-0.3,1-0.6c1.2-1.1,2.4-2.1,4-2.6
		c0.2,0,0.4-0.2,0.4-0.1c0.9,0.6,1.5-0.1,2.1-0.6c0.2-0.2,0.6-0.3,0.9-0.1c0.3,0.2,0.3,0.5,0.2,0.9c-0.2,0.7,0,1.5-0.6,2.1
		c-0.2-0.1-0.3-0.7-0.8-0.1c-0.6,0.9-1.3,1.8-2.2,2.5c-0.9,0.7-0.2,1.8-0.5,2.8c0.9-0.3,1.2-0.8,1.5-1.4c0.6-1,1-2.1,1.9-2.9
		c0.1,1.1-0.4,2.3-0.1,3.5c0.8-0.6,0.6-1.7,1.2-2.4c0.4-0.6,0.7-0.7,1.2-0.3c0.4,0.3,0.7,0.5,1.2,0.3c1.1-0.3,1.8,0.3,1.8,1.4
		c-0.1,1.3,0.1,1.4,1.5,1.3c1.2-0.1,2.2-0.3,2.6-1.6c0,0,0-0.1,0.1-0.1c0.6-0.4,1.2-1.3,1.8-0.8c0.5,0.5-0.2,1.4-0.7,1.8
		c-1,0.8-0.7,2-1.3,3c0.6-0.2,1.2-0.3,1.8-0.3c1.3,0,1.9-0.7,1.9-2c0-0.2,0-0.4,0.1-0.6c0.4-1.2,1.1-2.2,1.4-3.4
		c0.2-1,1.4-1.5,2.5-1.7c1-0.1,1.8-0.4,2.8-1.1c-0.2,1-0.8,1.6-1.2,2.1c-0.8,1.1-1,2.9-3,2.9c-0.2,0-0.5,0.3-0.5,0.6
		c0,0.4,0.3,0.5,0.7,0.5c0.8,0.2,0.8,0.6,0.3,1.2c-0.5,0.6-1,1.2-1.5,1.7c-0.6,0.7-0.8,1.1,0.3,1.6C62.6,28,63.4,27.9,64.3,27.7z"/>
	<path class="st32" d="M46.9,20c-0.8,1.5-1.4,3.1-2.7,4.3c-0.2,0.2-0.3,0.6-0.6,0.4c-0.4-0.2-0.5-0.5-0.4-0.9c0.2-0.6,0.1-1.1,0-1.6
		c-0.1-0.4,0.1-0.8,0.5-1c1.3-0.7,2-2,2.8-3.2c0.5,0.3,0.5,0.7,0.5,1.1C46.9,19.4,46.9,19.7,46.9,20z"/>
	<path class="st37" d="M22.1,76.8c0.1-0.5-0.4-1.3,0.5-1.5c1-0.2,2-0.5,2.8,0.3c0.2,0.2,0.3,0.5,0.5,0.7c0.8,1.1,0.9,1.1,1.5,0
		c0.3-0.5,0.5-0.5,0.9-0.1c0.8,0.6,1.5,1.2,2.3-0.1c0.6-0.9,2.5-0.7,3.2,0.2c0.2,0.3,0.4,0.6,0.6,0.9c0.5,0.7,1,0.8,1.3-0.2
		c0.2-0.6,0.5-0.7,1-0.2c0.8,0.8,1.6,1,2.4-0.2c0.6-0.9,2.2-0.7,3,0.2c0.4,0.4,0.7,0.9,1,1.3c0.1,0.2,0.5,0.4,0.6,0.4
		c1.1-1,1.5,0.2,2.2,0.6c0.8,0.4,1.6,0.8,2.2,1.5c0.6,0.6,0.7,1.1,0.2,1.8c-1.2,0.6-2.3,0.2-3.4-0.3c0-0.3,0.1-0.3,0.3-0.4
		c0.5-0.2,1.4,0.1,1.5-0.7c0.1-0.7-0.8-0.6-1.2-0.9c-0.5-0.4-1.1-0.7-1.8-0.6c-0.5,0-0.8-0.3-1.1-0.7c-1.4-1.5-1.5-1.6-3.3-0.6
		c-0.7,0.3-1.4,0.3-2.1,0.4c-1.5,0.1-2.9,0-4-1.3c-0.4-0.5-1.1-0.3-1.7,0.1c-1,0.6-2.1,0.6-3.2,0.7C26.9,78.3,26,78,25,76.9
		c-0.4-0.5-1.1-0.4-1.7-0.1C22.9,77,22.5,77.2,22.1,76.8z"/>
	<path class="st38" d="M22.1,76.8c0.7,0.1,1.2-0.6,1.9-0.6c0.9,0,1.6,0.5,2.1,1.2c0.2,0.4,0.5,0.8,0.9,0.6c1.6-0.8,3.5,0.2,5.1-1.2
		c0.6-0.6,1.8,0.2,2.3,1c0.5,0.7,1,1.1,1.7,0.4c0.3-0.3,0.5-0.2,0.8,0c0.9,0.4,1.7,0.2,2.5-0.3c1.7-0.9,2.3-0.8,3.5,0.7
		c0.4,0.6,0.8,0.9,1.5,0.6c0.3-0.1,0.5,0.1,0.7,0.2c0.4,0.4,0.9,0.8,1.4,0.8c0.5,0.1,0.8,0.4,0.8,0.9c0,0.5-0.4,0.6-0.8,0.7
		c-0.3,0.1-0.7,0.1-1.1,0.2c0-1-0.6-1.5-1.6-1.5c-0.3,0-0.5-0.2-0.7-0.4c-1.2-1.2-2.6-1.2-4.1-0.8c-1.1,0.3-2.2,0.7-3.4,0.4
		c-0.4-0.1-0.7-0.1-1-0.3c-1.3-0.9-2.7-1-4.1-0.5c-1,0.3-2.1,0.7-3.2,0.4c-0.4-0.1-0.9-0.1-1.2-0.5c-0.7-0.7-1.7-0.6-2.6-0.7
		c-0.6,0-0.8,0.4-0.9,0.9c-0.1,0.5,0.2,1.1-0.5,1.3c-0.7-0.9-0.2-1.9,0-2.9C22.1,77.2,22.1,77,22.1,76.8z"/>
	<path class="st39" d="M44.9,81.9c1.1,0.3,2.2,0.5,3.4,0.5c0.9,0.2,1.8,0.3,2.6,0.3c0.7,0.2,1.4,0.3,2.2,0.2c0.9-0.3,1.7,0,2.6,0
		c0.5,0.1,1.1,0.1,1.5,0.5c1.2,0.2,2.4,0.3,3.6,0.3c0.2,0,0.3,0,0.5,0c-0.1,0.5-0.5,0.5-0.8,0.5c-3.5,0.4-7,0.3-10.5-0.3
		c-3.1-0.5-6.2-0.9-9.3-1.2c-3.9-0.4-7.7-0.6-11.6-1.1c-1.5-0.2-3-0.1-4.5-0.3c-0.4-0.1-1,0.1-1.1-0.6c0.5-0.4,1.1-0.3,1.7-0.3
		c2.8,0.1,5.6,0.4,8.4,0.6c3.2,0.2,6.5,0.3,9.7,0.6C43.9,81.6,44.5,81.4,44.9,81.9z"/>
	<path class="st40" d="M46.4,51.5c0.1,0,0.2,0,0.3,0c0.1,1.6-0.1,1.9-1.4,2.5c-1.1,0.5-2.2,1.3-3.4,1.7c-1,0.4-1.4,1.5-1.6,2.5
		c2,0.6,4,0.5,5.9,0c-0.1,1.2-0.2,2.3-0.2,3.5c0,1.4,0.1,1.5-1.4,1.5c0.3,0.6,0.9,1.1,1.4,1.2c0.6,0.1,0.9-0.6,0.9-1.1
		c0.2-0.9,1.2-1.1,1.4-1.9c-0.3-0.5-0.9,0.3-1.1-0.3c-0.2-0.5,0.2-0.8,0.5-1.1c1.6-1.5,1.8-3.7,3-5.3c0.2-0.3,0.2-0.6,0.4-0.9
		c0.3-0.6,1.1-1.4-0.5-1.3c-0.2,0-0.3-0.2-0.2-0.3c0.1-0.2,0.3-0.3,0.5-0.3c0.8,0,1.7,0,2.5,0c0,0.4-0.2,0.8-0.1,1.2
		c-0.4,0.7-1.5,0.9-1.6,1.9c-0.1,0.4-0.4,0.7-0.6,1c-0.6,0.8-1.1,1.7-1.4,2.7c0,0.1-0.1,0.2-0.1,0.3c-0.3,0.6-0.5,1.2-0.4,1.9
		c0,0.5-0.1,0.9-0.3,1.2c-0.3,0.4-0.6,0.9-0.5,1.4c0.1,0.4-0.2,0.6-0.6,0.8c-0.6,0.1-1,0.5-1.4,0.8c-0.7,0.6-1.4,0.7-2.2,0.1
		c-1.5,0-3,0-4.6,0c-0.4-0.1-0.8-0.1-0.7-0.7c0.5-0.5,1-1-0.2-1.3c-0.8-0.2-1.3-0.9-1.1-1.8c0.1-0.5-0.2-1-0.1-1.5
		c0-0.6,0.6-0.8,0.7-1.2c0.3-0.5-0.1-0.7-0.5-0.9c-0.5-0.3-0.7-0.8-0.3-1.1c0.7-0.7,1-1.5,1.1-2.4c0.1-0.3,0.3-0.6,0.6-0.7
		c0.1-0.3,0.2-0.6,0.2-1c0.4-0.4,0.5-1.1,1-1.4c0.4,0,0.8,0,1.2,0c0.3,0.3,0.1,0.5-0.1,0.7c-0.5,0.4-0.7,1-0.7,1.7
		c0.5-0.2,0.8-0.5,1.1-0.8c0.4-0.2,0.8-0.5,1.2-0.3c0.9,0.3,0.9,0.3,1.5-0.7c0.1-0.1,0.2-0.3,0.3-0.4C45.4,51.5,45.9,51.5,46.4,51.5
		z"/>
	<path class="st36" d="M39.2,53.7c-0.3,0.5-0.6,1.1-0.5,1.7c0.1,0.6-0.1,1-0.7,1.2c-0.6,0.3-0.7,0.7-0.1,1.2c0.4,0.3,0.8,0.5,0.3,1
		c-0.5-1-1.2-1.1-2.2-0.7c-0.1-0.7,0.2-1.3,0.4-1.9c0.2-0.7,0.2-1.4-0.4-1.7c-0.6-0.4-1.4-0.7-2.1-0.3c-0.4,0.2-0.8,0.5-1.2,0.2
		c-0.5-0.4,0-0.9,0.1-1.3c0.3-0.7,0.5-1.5,1.5-1.4c-0.6,1.5-0.4,1.7,1.2,1.6c0.9,0,1.2,0.6,1.5,1.3c0.2,0.3,0.2,0.9,0.7,0.9
		c0.6,0.1,0.5-0.5,0.6-0.9C38.5,54.1,38.7,53.7,39.2,53.7z"/>
	<path class="st36" d="M27.4,59c0,0.9,0.1,1.8,0.3,2.6c0.2,0.8,1.2,1.1,2,1.3c0.5,0.1,1.1,0,1.7,0c0.5,0,0.9-0.2,1-0.7
		c0.3-1.1,1-1.4,1.9-0.8c0.7,0.4,0.5-0.4,0.8-0.4c0,0,0,0.1,0,0.1c0.5,1.8,0.2,2.1-1.6,1.6c-0.9-0.3-1.3,0.4-1.1,0.9
		c0.2,1.2-0.4,1.1-1.1,1c-0.8-0.8-1.8-0.2-2.6-0.2c-0.3-0.4,0.2-0.4,0.3-0.6c0.2-0.4,0.2-0.6-0.3-0.7c-0.7-0.1-1.5,0-1.8-0.7
		C26.3,61.1,26.7,60,27.4,59z"/>
	<path class="st36" d="M37.5,60c0.3,0.4,0.6,0.8,0.5,1.3c-0.4,1,0.2,1.5,1,1.8c0.3,0.2,0.9,0.2,0.9,0.7c0,0.5-0.5,0.5-0.9,0.7
		c0.1-0.3,0.2-0.6,0.3-0.9c-0.4-0.2-0.8,0.3-1.2-0.1c-0.3-0.3-0.5,0.2-0.5,0.4c0.2,0.9-0.3,0.8-0.9,0.8c-0.6,0-0.8-0.4-0.4-0.7
		c0.8-0.7,0.8-1.5,0.6-2.5C36.7,61.1,37.1,60.5,37.5,60z"/>
	<path class="st29" d="M28.6,64.3c1.2-0.8,2.1-0.7,2.6,0.2C30.3,64.4,29.4,64.8,28.6,64.3z"/>
	<path class="st41" d="M38,24.3c0.4-0.5,0.7-1,1.2-1.4c0.7-0.5,0.8-1.3,0.9-2.1c0.1-0.6,0.4-1.1,1-0.9c0.6,0.1,0.8,0.7,0.5,1.3
		c-0.2,0.3-0.3,0.7-0.4,1c-0.1,0.2-0.2,0.5,0,0.7c0.2,0.3,0.4,0.1,0.6,0c0.3-0.2,0.5-0.2,0.8,0c0.3,0.3,0.1,0.5-0.1,0.7
		c-0.8,1.2-0.8,2.6-1.2,4c0-0.1,0-0.2,0-0.2c-0.1-0.4,0.3-1.1-0.2-1.3c-0.3-0.1-0.9,0.2-1.2,0.5c-0.8,0.8-1.9,0.7-2.6,0.5
		c-1-0.2-2.1-0.3-3.1-0.2c-1.5,0.1-2.9-0.5-4.4-0.5c-0.4,0-0.6-0.2-0.8-0.5c1.3,0.1,2.7,0.2,4,0.2c0.4,0,0.7-0.1,1.1,0.1
		C36,26.8,37,25.6,38,24.3z"/>
	<path class="st24" d="M21.4,68.9c0-0.6,0-1.1,0-1.7c0.5-0.4,0.9,0,1.3,0.3c0.4,0.3,0.7,0.6,1.1,0.9c1,0.9,2,1.1,3.2,0.2
		c1.1-0.8,2.4-1.3,3.8-1c1,0.2,1.5,1,2.3,1.5c1.2,0.8,2.4,1.9,3.2,3.2c0,0.1,0,0.1,0,0.2c-1.4,0-2.4-1-3.2-1.9c-1-1.1-2-0.4-3-0.5
		c-0.3,0-0.2,0.3-0.2,0.5c0.4,1-0.4,1.3-1.1,1.4c-1.5,0.2-2.8,0-4-1.1C23.9,70,22.6,69.5,21.4,68.9z"/>
	<path class="st24" d="M55.8,83.1c-0.9,0-1.8,0.1-2.6-0.3c0.2-0.3,0.3-0.6-0.2-0.9c-0.5-0.3-1-0.7-1.4-1.1c-1.1-0.8-2.3-1.4-2.7-3
		c-0.2-1-1.3-2.1-1.9-3.2c-0.4-0.6-1.3-0.7-1.8-0.9c-1.5-0.5-2.6-1.5-3.8-2.4c-0.7-0.6-1.1-0.3-1.5,0.3c-0.9,1.3-1.9,1.5-3.5,0.9
		c0,0,0,0,0,0c0.8-0.6,1.7-1.2,2.4-2c0.8-0.9,2.2-0.9,3.2,0c0.8,0.6,1.6,1.2,2.4,1.8c0.1,0.1,0.3,0.2,0.4,0.3
		c1.6,0.3,2.7,1.5,3.9,2.4c0.1,0.1,0.2,0.1,0.2,0.2c0.5,0.9,1.2,1.8,1.4,2.9c0.1,0.6,0.7,0.9,1.2,1.3c1,1.1,2.3,1.9,3.6,2.6
		C55.3,82.2,55.9,82.4,55.8,83.1z"/>
	<path class="st26" d="M71.9,32.8c-0.4,0.7-1,1.1-1.7,1.5c-0.4,0.3-0.6,0.5-0.1,0.9c0.6,0.4,0.9,1.1,1.7,1.2c0.2,0,0.5,0.2,0.5,0.4
		c1.1,2.7,3.3,4.7,4.1,7.5c-0.1,0.6-0.3,0.9-0.9,0.4c-1.5-1.2-3-2.4-5-2.9c-0.6-0.2-1-0.7-1.6-1c-1.2-0.7-2.6-0.8-3.8-1.6
		c-0.3-0.2-0.6-0.3-0.6-0.7c0.3-0.7,0.5-1.4,0.8-2.1c0.5-0.4,0.3-1.1,0.7-1.5c0.3-0.4,0-0.9,0.3-1.2c0.3-0.3,0.3-0.9,0.9-0.9
		c0.9,0.1,1.6-0.3,2-1.2c0.3-0.6,0.6-0.6,1.1-0.2C70.9,31.9,71.4,32.3,71.9,32.8z"/>
	<path class="st42" d="M64.2,28.2c0.1-0.1,0.1-0.2,0.2-0.3c0.2-0.1,0.4-0.3,0.5-0.5c0.5,0.6,0.7,0.2,1-0.2c1-0.4,2.1-0.1,3.1-0.2
		c-0.2,0.9-0.5,1.8-0.7,2.7c0,0.6-0.4,1-0.8,1.4c-1.2,0.6-2.4,0.8-3.7,0.8c-0.3-0.2-0.7-0.3-1.1-0.2c-3.3,0.3-6.7-0.3-10-0.2
		c-0.4,0-0.8,0-1-0.4c0.4-0.6,0.9-0.5,1.5-0.5c2,0,4,0,6,0.1c1,0,1.9-0.1,2.8-0.4c0.3-0.1,0.7-0.2,0.8-0.7c-0.7-0.3-1.4-0.2-2.1-0.2
		c-1,0-1.9,0-2.9,0c-0.4,0-0.9,0.1-1.1-0.5c0.3-0.4,0.8-0.3,1.2-0.3c1.7-0.1,3.4,0,5,0C63.4,28.4,63.9,28.5,64.2,28.2z"/>
	<path class="st43" d="M67.4,32.8c-0.2,0.3-0.5,0.6-0.7,1c-0.8-0.8-1.8-0.9-2.9-0.8c-3.5,0.2-7-0.4-10.5-0.7
		c-2.7-0.2-5.4-0.4-8.1-0.7c-4.4-0.4-8.7-0.8-13.1-1.2c-0.7-0.1-1.5-0.1-2.1-0.8c-0.3-0.4-0.5-0.8,0.2-0.8c1.5,0,2.9-0.3,4.4,0.2
		c-0.3,0.4-0.8,0.3-1.2,0.4c-0.6,0-1.2,0-1.7,0c-0.2,0.4,0.2,0.2,0.3,0.3c3.5,0.6,7,0.7,10.5,1c3.6,0.3,7.2,0.5,10.7,0.8
		c0.4,0,0.9,0,1.3,0c2.2,0.3,4.4,0.5,6.7,0.4c1.3,0,2.6,0.2,3.9,0c0.6-0.1,1.1,0.2,1.7,0c0.1-0.1,0.3-0.1,0.5-0.2
		c0.1,0,0.2,0,0.3,0.1C67.5,32.1,67.4,32.4,67.4,32.8z"/>
	<path class="st44" d="M69,27c-1,0.9-2.1,0.2-3.1,0.2c0.9-1.8,1.3-3.8,1.9-5.7c0.1-0.5,0.2-0.9,0.3-1.4c0.1-0.4,0.3-0.8,0.8-0.8
		c0.5,0.1,0.3,0.6,0.3,0.9c0,1.1,0.1,2.2-0.5,3.3c-0.2,0.3-0.4,0.8,0.3,0.9c0.4,0.1,0.3,0.4,0.2,0.6C69.2,25.7,69.4,26.4,69,27z"/>
	<path class="st26" d="M67.6,31.8c-0.1,0-0.2,0-0.2,0c-0.3-0.4,0-0.7,0.2-1c0.2-0.4,0.5-0.8,0.7-1.2C68.6,30.5,67.8,31.1,67.6,31.8z
		"/>
	<path class="st45" d="M31.5,28.9c0.6,0,1.3,0,1.9,0c1.4,0.2,2.9,0,4.3,0.1c0.4,0,0.9-0.1,1.3,0.1c3.6,0,7.1,0,10.7,0
		c0.5,0,1-0.1,1.5-0.2c0.1,0,0.2,0,0.2,0c1.8-0.5,3.5-0.4,5.3,0c1.9,0,3.8,0,5.7,0c0.4,0,1-0.1,1.1,0.5c0.1,0.6-0.4,0.7-0.8,0.9
		c-1.7,0.6-3.6,0.6-5.4,0.5c-1.8-0.1-3.7-0.1-5.5,0c-0.3,0.3-0.6,0.3-1,0.3c-5.4-0.4-10.8-0.5-16.1-1.2c-0.8-0.1-1.7-0.2-2.5-0.3
		C31.7,29.6,31.2,29.6,31.5,28.9z"/>
	<path class="st46" d="M45.2,31.6c4.1,0.1,8.1,0.5,12.1,0.9c2,0.2,4.1,0.3,6.1,0.2c0.6-0.1,1.2,0,1.9-0.1c0.7,0,1.1,0.5,1.3,1.2
		c-0.1,0.4-0.1,0.9-0.5,1.2c-0.1-1.2-0.8-1.7-2-1.7c-4.4,0.2-8.6-0.7-13-1C49.2,32.1,47.2,32.1,45.2,31.6z"/>
	<path class="st47" d="M39,29.1c-1.9,0-3.7,0.3-5.6-0.2c0.4,0,0.8,0,1.2-0.1C36.1,29,37.5,28.7,39,29.1z"/>
	<path class="st48" d="M63.5,41c-0.2,0.8-0.4,1.5-0.9,2.2C62.5,42.2,62.8,41.5,63.5,41z"/>
	<path class="st49" d="M44.2,72.5c-0.9-0.4-1.7-1-2.4-1.7c-1.1-1-2.3-0.9-3.3,0.2c-0.6,0.7-1.2,1.4-2.2,1.4
		c-1.4-1.1-2.5-2.5-4.1-3.6c-0.9-0.6-1.6-1-2.5-1.1c-0.8-0.1-1.6,0.4-2.3,0.9c-2.1,1.2-2.7,1.1-4.5-0.6c-0.4-0.4-0.9-0.8-1.5-0.9
		c-0.1-0.4,0.1-0.8-0.2-1.2c0-0.2,0-0.3,0-0.5c1.1-0.1,2.1,0,2.8,1.1c0.3,0.5,1,0.5,1.6,0.5c1.7-0.1,3.4-0.3,5.1-0.7
		c1.4-0.4,3,0.1,3.9,1.2c0.8,0.4,1.7,0.6,2.5,1.2c0.5,0.4,1.1,0.1,1.7-0.1c1.7-0.8,1.9-0.8,3.3,0.4c0.6,0.6,1.3,1.1,1.8,1.8
		C44.1,71.3,44.6,71.8,44.2,72.5z"/>
	<path class="st50" d="M56.7,28.9c-1.8,0-3.5,0-5.3,0c0.9-1,2.3-0.8,3.3-0.6c1.2,0.1,2.3-0.1,3.4-0.1c2-0.2,4,0,6,0
		c-0.1,0.6-0.6,0.4-0.9,0.4c-1.8,0-3.6,0.1-5.5,0.1C57.5,28.7,57.1,28.6,56.7,28.9z"/>
	<path class="st51" d="M44.2,65.3c1,0.4,1.7,0,2.4-0.6c0.3-0.3,0.7-0.7,1.2-0.6c0.2,0.5-0.4,0.8-0.5,1.1c-0.1,0.5-1,1-0.4,1.3
		c0.6,0.4,1.6,0.7,2.3-0.1c0.4-0.4,0.8-0.7,1-1.1c0.7-1.6,2-2.6,3.2-3.6c1.1-0.9,2-1.8,2.8-3c0.7-1,1.7-1.6,2.9-1.9
		c0.2,1-0.4,1.8-1,2.5c-0.3,0.4-0.6,0.8-0.7,1.3c-0.2,0.1-0.3,0.2-0.5,0.2c-0.3,0.6-0.8,0.9-1.2,1.4c-0.2,0.7-1,1.1-1,1.9
		c-0.4,0.4-0.7,0.9-1.2,1.1c-0.3,0.2-0.5,0.4-0.3,0.9c0.4,1.1-0.5,1.6-1.1,1.5c-1.4-0.2-2.7,0-4,0.2c-1.5,0.2-2.2-1-3.2-1.8
		C44.7,65.9,44.5,65.6,44.2,65.3z"/>
	<path class="st52" d="M44.2,72.5c-0.2-1.4-1.4-2.1-2.3-3.1c-1.1-1.3-2.1-1.2-3.4-0.3c-0.6,0.4-1.4,0.5-2-0.2
		c-0.5-0.6-1.6-0.4-2-1.2c0.8,0,1.6,0,2.4,0c1.7,0.4,3.5-0.3,5.2,0.3c1.5,0.5,2.8,1.5,3.2,3.1c0.3,1.2,1.4,1.7,2.3,2.1
		c1.7,0.6,2.4,1.7,2.7,3.2c-0.1,0-0.1,0-0.2,0.1c-0.7-0.3-1.3-0.7-1.8-1.3v0c-1.2-1-2.3-2.4-4.1-2.4C44.4,72.7,44.3,72.6,44.2,72.5z
		"/>
	<path class="st23" d="M55.8,62.4c0.1-0.7,0.7-1.1,1.2-1.4C57.1,61.8,56.4,62.1,55.8,62.4z"/>
	<path class="st22" d="M73.9,79.5c-0.3,0.4-0.6,0.7-1,1c-2.8,1-5.9,1.2-8.5,2.9c-0.6,0.4-1.2,0-1.8,0C66.3,82,70,80.6,73.9,79.5z"/>
	<path class="st53" d="M77.9,77.1c0,0.1,0,0.1,0,0.2c-0.1,0.2-0.2,0.4-0.5,0.3c-0.9-0.3-0.9-1.2-0.6-1.7c0.5-0.7,0.5-1.4,0.8-2.1
		C77.9,74.9,77.5,76,77.9,77.1z"/>
	<path class="st22" d="M77.5,77.6c0.2-0.1,0.3-0.2,0.5-0.3c0.4,0.7,0,1-0.5,1.1c-0.7,0.2-1.4,0.2-2.1,0.4
		C75.9,78.2,76.9,78.2,77.5,77.6z"/>
	<path class="st52" d="M55.8,83.1c-0.5-0.9-1.4-1.1-2.2-1.5c-1-0.5-1.7-1.2-2.4-2.1c-1.6-1.3-1.7-1.8-0.7-3.1c0,0,0,0,0,0
		c0.3,0.3,0.8,0.5,0.8,0.8c0.2,2.6,2.6,3.3,4.1,4.7c0.6,0.5,1.6,0.5,1.8,1.5C56.8,83.3,56.2,83.5,55.8,83.1z"/>
	<path class="st23" d="M48.1,70.3c0.1-0.2,0.1-0.7,0.6-0.6c0.2,0,0.3,0.2,0.3,0.4c-0.1,0.3-0.3,0.5-0.6,0.5
		C48.2,70.8,48.1,70.5,48.1,70.3z"/>
	<path class="st54" d="M47.1,65c0.2-0.3,0.5-0.6,0.7-1c0.9-0.3-0.3-1.1,0.4-1.6c0.4-0.3,0.8-0.9,0.7-1.6c-0.1-0.7,0-1.5,0.6-2.1
		c0.7,0.7,1.3,0.5,1.8-0.1c1.1-1.4,2.3-1.8,4-1.3c0.8,0.3,1.5-0.2,2.2-1c1.1-1.3,1.8-2.9,3-4.1c0.2,1.2-0.3,2.4-0.2,3.6
		c-0.4,0.3-0.9,0.5-1.2,1c-1.7,0.8-2.8,2.3-4,3.8c-1.1,1.3-2.6,2.2-3.8,3.5c-0.4,0.4-0.5,1-0.8,1.4c-0.9,0.8-2.2,0.5-3.1,1.3
		c-0.3,0.3-0.8,0-0.6-0.6C47,65.8,47.2,65.5,47.1,65z"/>
	<path class="st55" d="M60.6,52.3c-0.8,1.3-1.2,2.8-2.5,3.8c-0.6,0.4-0.6,1.6-1.7,1.6c-0.5,0-0.9,0.1-1.4-0.1
		c-1.4-0.5-2.2-0.2-3.1,1c-0.3,0.4-0.7,0.7-1.1,0.9c-0.8,0.3-1.2,0.1-1.2-0.7c0,0,0,0,0,0c0.6-0.9,1-1.9,1.4-2.9
		c0-0.4,0.3-0.6,0.5-1c0.5-0.7,1.3-1.1,2-1.4c0.4-0.2,0.9-0.3,1.1-0.7c0.3-0.7,0.9-0.8,1.5-1c0.2-0.2,0.3-0.5,0.5-0.7
		c0.9,1,2.1,0.5,3.2,0.7c0.4,0.1,0.6-0.2,0.7-0.5c0,0,0.1,0,0.1,0c0,0.1,0.1,0.1,0.1,0.2C60.6,51.8,60.6,52,60.6,52.3z"/>
	<path class="st2" d="M65.1,49.3c-0.3,0.4-0.5,0.3-0.8,0.3c-0.3,0-0.6,0.4-0.9,0.1c-0.1-0.1-0.1-0.3,0-0.4c0.3-0.2,0.6-0.3,1-0.2
		C64.7,49.2,64.9,49.2,65.1,49.3z"/>
	<path class="st56" d="M36,55.8c-0.2,1-0.7,1.9-0.8,2.8c0,0.2-0.4,0.4-0.6,0.4c-1.1,0.1-2.2,1-3.3,0c-0.2-0.2-0.4-0.2-0.7-0.3
		c-1.5-0.3-1.6-0.3-0.8-1.8c0.5-1,1.1-1.5,2.4-1.7c1-0.1,2,0,2.9-0.2C35.8,54.9,36.1,55.1,36,55.8z"/>
	<path class="st57" d="M46.2,58.3c-1.4,0.9-2.8,1-4.4,0.6c-0.4-0.1-0.7-0.5-1.1-0.1c-0.2,0.2-0.3,0.4-0.6,0.3
		c-0.3-0.2-0.3-0.6-0.2-0.9c0.2-1.5,1.5-2.8,2.9-3c0.4-0.1,0.7-0.2,0.9-0.5c0.3-0.3,0.6-0.7,0.9-0.7c1.6-0.1,1.7-1.3,2-2.4
		c0.6,0.1,1.3-0.2,1.9,0c-0.2,1.5-1.1,2.8-1.7,4.1C46.5,56.6,46.6,57.5,46.2,58.3z"/>
	<path class="st58" d="M56,51.8c-0.9,0-0.8,1.1-1.5,1.5c-1,0.6-2.1,1.1-3.1,1.7c0-1.1,1-1.4,1.7-1.9c0.2-0.5,0.5-0.8,1-1
		C54.7,51.8,55.4,51.7,56,51.8z"/>
	<path class="st59" d="M54.1,52c-0.2,0.4-0.6,0.7-1,1c-0.4-0.5-0.2-0.9,0.2-1.2C53.6,51.9,53.9,52,54.1,52z"/>
	<path class="st36" d="M45,51.6c0.1,0.6-0.1,1.1-0.7,1.4c-0.5,0.2-0.5,0.8-0.7,1.1c-0.4-0.1-0.3-0.3-0.3-0.5c0.2-1-0.3-0.9-0.9-0.6
		c-0.7,0.3-1.1,1.1-2,1.4c-0.1-1.3,0.4-2.2,1.2-3C42.7,51.2,43.8,51.6,45,51.6z"/>
	<path class="st36" d="M40.4,51.3c-0.2,0.5-0.1,1.3-1,1.4C38.7,51.3,38.7,51.3,40.4,51.3z"/>
	<path class="st15" d="M47.6,27.2c-0.8-1-0.1-1.8-0.1-2.7c0,0,0.2-0.1,0.3-0.1c0.1,0,0.2,0.2,0.2,0.2C47.7,25.4,48.1,26.3,47.6,27.2
		z"/>
	<path class="st39" d="M23.5,80.7c-0.4,0-0.8,0-1.2-0.3c0-0.1,0-0.1,0-0.2c0-0.4,0-0.8,0-1.2c0-1.3,0.3-1.5,1.6-1.3
		c1,0.1,1.8,0.3,2.7,0.9c0.8,0.6,2.1,0.4,3.2,0c1.1-0.5,2.3-0.6,3.5-0.3c0.3,0.1,0.7,0.1,0.9,0.3c1.3,1.2,2.7,0.9,4.2,0.5
		c1-0.3,2.1-0.6,3.1-0.3c0.4,0.1,0.9,0.1,1.1,0.3c0.6,0.8,1.4,1,2.3,1.1c1,0.2,0.9,0.9,0.5,1.6c-0.2,0-0.3,0-0.5,0
		c-6.1-0.3-12.1-0.6-18.2-1.2C25.7,80.6,24.6,80.7,23.5,80.7z"/>
	<path class="st59" d="M51,55.9c-0.1,1.2-0.5,2.2-1.4,2.9C49.7,57.7,50.1,56.6,51,55.9z"/>
	<path class="st49" d="M50.5,76.4c-0.8,1.3-0.2,2.2,0.7,3.1c-0.9-0.3-1.4-0.8-1.5-1.8c-0.1-1-1-1.6-1.2-2.5
		C49.3,75.4,49.9,75.9,50.5,76.4z"/>
	<path class="st49" d="M44.5,72.7c2-0.2,3.1,1,4.1,2.4c-0.4,0-0.7-0.2-0.9-0.5C46.8,73.6,45.6,73.2,44.5,72.7z"/>
	<path class="st47" d="M31.5,28.9c0.6,0.8,1.5,0.6,2.3,0.7c4.6,0.8,9.3,0.7,13.9,1.1c1.3,0.1,2.7,0.2,4,0.1c0.2,0.2,0.4,0.2,0.6,0.2
		c3.6-0.2,7.1,0.7,10.7,0.1c0.5-0.1,0.7,0.3,0.9,0.6c-2.3,0.1-4.6,0.2-6.8-0.1c-0.8-0.1-1.7-0.4-2.6-0.2c-2.4,0.2-4.9-0.2-7.3-0.3
		c-1.6-0.1-3.3-0.2-4.9-0.3c-3.6-0.4-7.1-0.5-10.7-1c-0.5-0.1-0.9-0.4-1.1-0.8C30.9,28.8,31.2,28.9,31.5,28.9z"/>
	<path class="st9" d="M54.6,31.6c0.6-0.6,1.2,0,1.8,0c2,0.1,3.9,0.4,5.9,0c0.5-0.1,1.2,0.1,1.7,0.2c1.1-0.6,2.4-0.5,3.6-1
		c-0.1,0.3-0.2,0.6-0.2,1c-0.1,0.1-0.2,0.2-0.2,0.2c-0.6,0.2-1.1-0.3-1.7,0c-0.3,0.1-0.6,0.3-0.8,0.2c-1.5-0.5-3.1-0.1-4.6-0.2
		C58.2,32,56.4,31.8,54.6,31.6z"/>
	<path class="st26" d="M65.4,32c0.6-0.4,1.1-0.2,1.7,0C66.5,32.6,66,31.9,65.4,32z"/>
	<path class="st40" d="M47.1,65c0.4,0.4,0.2,0.8-0.1,1.2c-0.1,0.1-0.2,0.3,0,0.4c0.1,0.1,0.3,0.1,0.3,0c0.7-1.3,2.1-0.7,3.1-1.1
		c-0.5,0.5-0.9,1-1.4,1.5c-0.3,0.3-2.4,0.1-2.7-0.3c-0.2-0.2-0.2-0.4,0-0.6C46.7,65.8,46.9,65.4,47.1,65z"/>
</g>
<g class="st61">
	<g>
		<g>
			<g>
				<path class="st39" d="M56.7,80c-0.3-0.3,0.3,0.2,1.3,1.3l0.7,0.7C58.6,81.8,58.5,81.7,56.7,80z"/>
				<path class="st62" d="M51.7,75c0.5,0.4,0.7,0.7,1.1,1.1L52.7,76C52.1,75.4,51.8,75.2,51.7,75z"/>
				<path class="st39" d="M38.6,62l-0.4-0.3c0.4,0.3,0.5,0.5,0.5,0.5c0.7,0.7,1.5,1.5,1.1,1.1C39.3,62.8,39.3,62.7,38.6,62z"/>
				<path class="st39" d="M53,77.2c-0.8-0.7-1.8-1.5-2.7-2.4c-1.5-1.4-3-2.8-4.1-4l-4.2-3.6c0.9,1,1.1,1.3,0.9,1.4
					c-0.1,0.1-0.3,0-0.5,0c-0.2,0-0.3,0-0.4,0c-1-0.6-1.2-1.4-2.4-1.9c0.6,0.6,1.8,1.4,2.1,1.8c-1.4-0.7-4.8-3.6-4.4-2.2l2.1,1.8
					c-0.4,0.4-1.8,0.3-2.8,0.3c-1,0-1.6,0.3-0.7,1.2c-2.4-1.2-1.8-0.5-3.3-1.2l1.4,0.7c-2.3-1.2,0.5,0.4,0.1,0.2l1.2,0.7
					c2.2,1.2,1.2,0.6,4.4,2.3c1.7,1-3.2-1.7-1-0.6c0.5,0.2-1-0.6-1.7-1.1c-1.3-0.7-1.2-0.6-2.7-1.4c-0.4-0.4,1.2,0.2,2.6,0.9
					c1.5,0.7,3,1.4,2.8,1c-1-0.6-3.3-2.6-5-3l1.2,1l-1.4-0.7c0-0.2,0.3-0.4-1.1-1.2c2.3,1.2,1.4,0.3,0.7-0.4c-0.6-0.7-1-1.1,2.2,1.3
					c-1.2-0.4-1.1-0.2,0.7,1.1c0.7-0.4,2.8,0.2,3.1-0.1l-1.8-1.5c1.9,1.3,3.2,2,3.9,2.2c-0.3-0.4-0.1-0.4-1-1
					c-1.1-0.9-1.3,0.2-4.2-2.5c1.2,0,3.3,0.8,6.1,2.7c0.2,0.5-0.4,0.3,1.8,2.3c0.9,1.2,0.8,1.6,0.8,2c0,0.4,0.2,1,1.7,2.3
					c-1.3-0.8-1.9-0.9-3.3-1.8C43,73,44,73.8,42,72.7c2,1.7,1.2,1.6,1.3,1.5c1.9,1,2.6,1.4,3.1,1.6c0.4,0.2,0.7,0.3,1.4,0.6
					C47.2,76.1,46.9,76,47,76c0.1,0,0.4,0.1,0.5,0.1c0.2,0.1,0.3,0.2,0.4,0.2c0.1,0.1,0.2,0.1,0.3,0.2c0.2,0.1,0.5,0.3,0.9,0.5
					c-0.5-0.2,0.1,0.2,0.4,0.3c2.3,1.2,0.1,0,0.2-0.1l-1.3-0.7c0,0-0.1-0.2-0.4-0.4c-0.4-0.3-0.9-0.6-1.3-1
					c-0.8-0.6-1.2-1.1,0.3-0.3l2.3,1.6c0.6,0.2,0.3-0.1,0.2-0.4c-0.1-0.2,0-0.4,1.2,0.4c0.5,0.6-1.2-0.2,1.4,1.4
					c1.4,0.9,1.4,0.8,0.9,0.3c-1.1-1-0.2-0.6,0.4-0.2C54.1,78.4,54.6,78.7,53,77.2z"/>
				<path class="st39" d="M56.8,80.7c-0.2,0-3.5-2.5-3.4-2.2c1.4,0.9,2.4,1.7,2.5,1.8c-0.8-0.5-0.3-0.1-0.4-0.1
					c0.3,0.2,2,1.2,2.1,1.3c-1.4-0.9-0.9-0.7-0.4-0.4C57.5,81.3,58,81.6,56.8,80.7z"/>
				<path class="st62" d="M50,75.1c-0.4,0,2.6,2.2,1.8,1.8c1.6,1.2,0.1,0,0.3-0.1l-0.9-0.6L50,75.1z"/>
				<path class="st39" d="M53.1,78.8c-0.3-0.1,0.4,0.5,2.4,1.6c0.2,0.1,1.1,0.7,0.8,0.5C55.6,80.5,55.5,80.3,53.1,78.8z"/>
				<path class="st62" d="M44.7,72.8c-0.6-0.3-0.7-0.2-0.8-0.1C44.4,72.9,45.7,73.6,44.7,72.8z"/>
				<path class="st39" d="M49.4,76.7c-1.4-0.9-0.5-0.2-0.5-0.2l0.5,0.4C49.9,77.1,50.2,77.2,49.4,76.7z"/>
				<path class="st39" d="M53.1,79.3c0.5,0.3,2.1,1.1,2.2,1.2l0.3,0.1l-2.4-1.3L53.1,79.3z"/>
				<path class="st39" d="M55.1,80.4c-0.6-0.3-0.8-0.4-0.3-0.2l0.9,0.5C56.1,81,55.1,80.4,55.1,80.4z"/>
				<path class="st39" d="M49.7,77.5c-0.6-0.3,0.6,0.3,1.1,0.6C51.5,78.5,50,77.6,49.7,77.5z"/>
				<path class="st39" d="M31.3,67.8c2.4,1.3,1,0.6,1.7,1C32.2,68.4,30.9,67.7,31.3,67.8z"/>
				<path class="st39" d="M57.9,81.3c-0.6-0.5-0.1-0.1,0.4,0.4l0.6,0.6L57.9,81.3z"/>
				<path class="st39" d="M58.9,82.1c-1.9-1.8-1-1-2.4-2.3c-0.4-0.4,1.1,1.1,0.9,1l1.1,1C59.2,82.5,59.8,83,58.9,82.1z"/>
				<path class="st62" d="M49.8,73.1c-0.6-0.5-0.5-0.4-0.3-0.1c0.2,0.2,0.4,0.5,0.4,0.5c0.4,0.3,0.7,0.4,0.9,0.6
					C50.4,73.7,50.1,73.4,49.8,73.1z"/>
				<path class="st39" d="M59,82.4c-0.1-0.1,1.7,1.3-1.2-1c-0.5-0.4-1.2-0.9-1.7-1.2c-3-2.4,0.5,0.3,0.5,0.2c-0.7-0.5-1.9-1.6-2-1.8
					c0.8,0.6,0.7,0.3,0.7,0.2c-0.9-0.9,0.8,0.6-1.7-1.8c-0.1-0.2,1.8,1.7,2.4,2.2c-1.3-1.3,0,0,1.2,1.2c1.2,1.2,2.2,2.2,0.7,0.7
					c1.3,1.3,1.1,1.1,1.2,1.2c0.1,0.1,0.2,0.2-2.3-1.9c-1.6-1.5,1.1,0.8-0.5-0.7c-2.6-2.6-1-0.8-3.3-2.7c0.4,0.3-1.5-1.4-0.8-0.9
					c-0.6-0.3-1.1-0.9-1.8-1.6c-1-1-2-2.1-3.2-2.9c-1.8-2.3-1.9-2.3-5.9-6.6c0.8,0.5,3.5,3.3,5.1,4.8c1.5,1.4-2.2-2.3-1.5-1.5
					c-4.7-4.7-3.8-3.6-4-3.4c-0.5-0.1,4,4,3.3,3.7c-2.4-2-2.6-2.9-5.3-5.1l0.8,1c1.7,1.7,3.9,3.9,5.1,5.1c0,0-0.1,0.1-0.8-0.5
					c-0.6-0.7-2.4-2.3-3.6-3.1c0.7,0.7,0.8,0.9,1.5,1.5c2.7,2.1,2.7,2.2,2.3,2.1c-0.3-0.1-1-0.3,0.3,0.9c3.6,3.7-6.4-4.6-4.8-2.2
					c4.7,3.1,2,2.1,3.6,3.6c-0.1,0-0.5-0.1-1.1-0.4c-0.3-0.1-0.6-0.3-1-0.5c-0.2-0.1-0.4-0.2-0.6-0.3c-0.2-0.1-0.4-0.1-0.6-0.2
					c0.4,0.5,0.5,1,1.4,1.6c1.7,0.8,3.4,1.6,5,2.5c1.6,0.9,3.1,1.9,4.6,2.8c3,1.8,5.8,3.6,8.3,5.4C59.2,82.5,59.1,82.5,59,82.4z"/>
			</g>
		</g>
	</g>
</g>
<g class="st61">
	<g>
		<g>
			<g>
				<path class="st39" d="M49.7,77.9c-0.3-0.3,0.2,0.2,1.5,1.2l0.8,0.6C51.8,79.6,51.7,79.6,49.7,77.9z"/>
				<path class="st62" d="M44.2,73.2c0.4,0.4,0.8,0.7,1.2,1l-0.1-0.1C44.7,73.6,44.4,73.3,44.2,73.2z"/>
				<path class="st39" d="M30,61.2l-0.4-0.3c0.4,0.3,0.5,0.5,0.5,0.5c0.8,0.7,1.6,1.3,1.3,0.9C30.8,61.8,30.7,61.9,30,61.2z"/>
				<path class="st39" d="M45.1,74.9c-0.9-0.7-2.1-1.5-3.2-2.4c-1.3-1-2.7-2-3.7-2.9L34.4,67c0.4,0.4,0.7,0.6,0.8,0.7
					c0.1,0.1,0,0,0,0c-0.1,0-0.1,0-0.2-0.1c-0.2-0.1-0.3-0.1-0.4-0.2c-0.4-0.3-0.4-0.2-0.6-0.2c-0.1,0-0.2,0-0.3,0
					c-0.9-0.6-1.3-1.2-2.4-1.6c0.6,0.5,1.7,1.2,2.1,1.5c-1.3-0.7-4.6-3.1-4-2.1l2,1.5c-0.2,0.2-1.3-0.1-2.1-0.3
					c-0.8-0.2-1.2-0.3-0.3,0.4c-2.2-1.3-1.5-0.8-2.9-1.7l1.3,0.7c-2.1-1.3,0.5,0.2,0.2,0l1.2,0.6c2,1.2,1,0.7,4,2.5
					c1.7,0.9-2.9-1.9-0.7-0.7c0.5,0.2-0.9-0.6-1.5-1.1c-1.2-0.8-1.2-0.7-2.6-1.6c-0.6-0.8,5.6,3.1,5.2,2.4c-1-0.6-3.2-2.5-4.8-3.2
					l1.1,0.9l-1.4-0.8c0-0.1,0.2-0.3-1.1-1.1c2.2,1.4,1.3,0.5,0.6-0.1c-0.6-0.6-1.1-1,2.1,1.4c-1.2-0.5-1-0.3,0.7,0.9
					c0.6-0.1,2.6,0.8,2.8,0.6l-1.8-1.5c1.9,1.4,3.2,2.2,3.8,2.5c-0.4-0.3-0.1-0.3-1.1-0.9c-1.1-0.9-1.1-0.2-4.1-2.8
					c1,0.3,2.9,1.4,5.7,3.6c0.3,0.3-0.2,0,2.1,1.9c1,1,0.9,1.2,1,1.5c0,0.3,0.2,0.7,1.7,1.9c-1.3-0.9-1.9-1.1-3.2-2
					c-1-0.6,0.1,0.2-1.9-1c1.9,1.6,0.9,1.3,0.8,1.3c1.8,1.1,2.4,1.4,2.8,1.7c0.4,0.2,0.5,0.3,1.2,0.7c-0.6-0.4-0.8-0.5-0.9-0.5
					c0.1,0.1,0.3,0.1,0.4,0.2c0.6,0.3,0.8,0.5,1.7,1c-0.5-0.3,0.2,0.1,0.5,0.3c2.4,1.4,0,0,0,0l-1.3-0.8c0,0-0.2-0.1-0.5-0.3
					c-0.4-0.2-0.9-0.6-1.3-0.8c-0.8-0.5-1.2-0.9,0.2-0.1l2.3,1.5c1.1,0.6-1.5-1.3,1.2,0.3c0.7,0.5-1.2-0.4,1.7,1.3
					c1.5,0.9,1.5,0.9,0.9,0.5c-1.3-0.9-0.4-0.5,0.3-0.1C46.5,76.1,47,76.4,45.1,74.9z"/>
				<path class="st39" d="M49.7,78.3c-0.2-0.1-4-2.6-3.8-2.3c1.5,1,2.7,1.8,2.8,1.9c-0.9-0.5-0.3-0.2-0.4-0.2
					c0.3,0.2,2.1,1.3,2.3,1.4c-1.5-1-1-0.7-0.5-0.4C50.5,79,51,79.3,49.7,78.3z"/>
				<path class="st62" d="M41.7,72.7c-0.3-0.1,3.1,2.2,2.1,1.7c1.8,1.2,0.1,0,0.2,0l-1-0.6L41.7,72.7z"/>
				<path class="st39" d="M45.7,76.1c-0.3-0.1,0.5,0.4,2.7,1.7c0.2,0.1,1.2,0.7,0.8,0.5C48.6,77.9,48.3,77.8,45.7,76.1z"/>
				<path class="st62" d="M37,70.4c-0.5-0.3-0.6-0.3-0.7-0.2C36.8,70.5,38,71.1,37,70.4z"/>
				<path class="st39" d="M41.8,73.8c-1.5-0.9-0.5-0.2-0.5-0.2l0.6,0.4C42.3,74.2,42.6,74.3,41.8,73.8z"/>
				<path class="st39" d="M46,76.5c0.7,0.4,2,1.2,2.4,1.4l0.3,0.1L46,76.5L46,76.5z"/>
				<path class="st39" d="M48.2,77.8c-0.6-0.3-0.8-0.5-0.3-0.2l1,0.6C49.3,78.4,48.2,77.7,48.2,77.8z"/>
				<path class="st39" d="M42.5,74.4c-0.6-0.4,0.7,0.4,1.2,0.7C44.5,75.6,42.8,74.6,42.5,74.4z"/>
				<path class="st39" d="M25.5,64c2.2,1.4,0.9,0.7,1.5,1.2C26.3,64.7,25.1,63.9,25.5,64z"/>
				<path class="st39" d="M51.2,79c-0.6-0.5-0.1-0.1,0.4,0.3l0.6,0.6L51.2,79z"/>
				<path class="st39" d="M52.1,79.9c-2-1.7-1.1-0.9-2.6-2.2c-0.4-0.4,1.2,1,1.1,0.9l1.1,1C52.5,80.2,53.1,80.7,52.1,79.9z"/>
				<path class="st62" d="M42.1,71.4c-0.5-0.5-0.4-0.4-0.1-0.2c0.1,0.1,0.3,0.2,0.4,0.3c0.1,0.1,0.2,0.2,0.2,0.2
					c0.3,0.3,0.4,0.5,0.5,0.7C42.7,71.9,42.4,71.6,42.1,71.4z"/>
				<path class="st39" d="M52.3,80c-0.1-0.1,1.7,1.4-1.1-1c-0.5-0.4-1.1-1-1.6-1.3c-2.9-2.5,0.5,0.3,0.4,0.3c-0.6-0.5-1.9-1.6-2-1.8
					c0.8,0.7,0.6,0.4,0.5,0.4c-1-0.8,0.7,0.6-2-1.7c-0.2-0.1,1.8,1.6,2.4,2.1c-1.5-1.3-0.1,0,1.2,1.1c1.3,1.1,2.5,2.1,0.7,0.7
					c1.5,1.2,1.3,1,1.4,1.1c0.1,0.1,0.2,0.2-2.7-1.9c-2-1.5,1.3,0.8-0.7-0.7c-3.1-2.5-1.2-0.8-3.9-2.8c0.5,0.3-1.8-1.4-0.9-0.9
					c-0.7-0.4-1.3-0.9-2.1-1.5c-0.9-0.8-2.3-1.8-3.2-2.4c-0.1-0.1-0.2-0.2-0.3-0.2c-0.1-0.1-0.1-0.1-0.2-0.2
					c-0.1-0.1-0.2-0.2-0.3-0.3c-0.2-0.2-0.4-0.4-0.5-0.5c-0.3-0.3-0.7-0.6-1.1-1c-0.8-0.7-1.9-1.6-4.1-3.4c0.9,0.4,3.8,2.8,5.5,4.1
					c1.8,1.2-2.1-2.1-1.2-1.5c-5.2-4.2-3.8-3.6-3.7-3.6c-0.2-0.3,4.4,3.7,3.9,3.2c-2.3-2.1-3.1-2.6-5.6-4.9l1,0.8
					c1.9,1.6,4.2,3.7,5.6,4.9c0,0,0,0-0.7-0.6c-0.7-0.7-2.6-2.3-3.6-3.2c0.7,0.7,0.9,0.8,1.6,1.5c5.3,4.5,0.2,0.2,3,2.8
					c3.8,3.6-6.2-5-4.3-2.8c4.5,3.5,2,2,3.6,3.5c-0.2,0-1.5-0.9-3-1.9c0.4,0.5,0.3,1.3,1.2,1.9c1.7,0.8,3.3,1.7,4.9,2.7
					c0.8,0.5,1.4,1.1,2.2,1.6c0.7,0.5,1.4,1,2.1,1.6c2.8,2.1,5.5,4.1,7.9,6C52.5,80.2,52.4,80.1,52.3,80z"/>
			</g>
		</g>
	</g>
</g>
<g class="st61">
	<g>
		<g>
			<g>
				<path class="st39" d="M50,60.7c0.2,0,0.1,0.4-0.3,0.5l-0.2,0.2C49.5,61.3,49.3,61,50,60.7z"/>
				<path class="st62" d="M51.8,59.6c-0.1,0.2-0.2,0.2-0.4,0.2l-0.1-0.2C51.4,59.5,51.7,59.6,51.8,59.6z"/>
				<path class="st39" d="M55.5,57.4l0-0.1c0,0.1,0,0.3,0.1,0.4c-0.2,0.1-0.5,0.1-0.5-0.1C55.3,57.5,55.4,57.6,55.5,57.4z"/>
				<path class="st39" d="M52.4,62.8c0.7,0,1.7-0.4,2.3-0.8l1.2,0c-0.5,0.4-0.1,0.8-0.1,1.3c0.2,0.2,0.4-0.4,0.6,0
					c-0.2,0.1-0.5,0-0.6,0.1c0.3,0.4,1.2,0.2,1,1l-0.6,0.3c-0.1,1.4,0.5,3.1-0.5,4.2c0.2,0.2,0.2,0.5,0.2,0.7c0,0.3-0.1,0.5-0.1,1
					l-0.3-0.1c0.3,0.6-0.8,1.2-1.6,1.8c0,0-0.9,0.1-0.9,0.1c-0.2-0.2,0.2-0.5,0.5-0.8c0.2-0.1,0-0.1,0.2-0.2
					c0.1-0.1,0.1-0.2,0.1-0.3c0-0.1-0.1-0.2-0.3-0.3c-0.1,0-0.2,0.1-0.2,0.1c-0.1,0-0.1,0-0.1,0c-0.2,0.1-0.3,0.2-0.4,0.3
					c-0.2,0.2-0.4,0.3-0.6,0.5c-0.4,0.3-1,0.5-1.4,0.1c-0.8-0.3-0.8,0.1-1.3,0c-0.3,0.3,0,0.4-0.2,0.7c-0.5-0.2-0.8-0.4-1.1-0.8
					c-0.1-0.1,0-0.1,0-0.2l0-0.1l0,0l0,0l0,0c0.1,0.1-0.1-0.1-0.1-0.1l0,0l0,0l0,0l0-0.1c0-0.1,0-0.3,0-0.4c0-0.6,0.1-1.1-0.2-1.5
					c-0.1,0.1-0.5,0-0.8,0c-0.3,0-0.6,0.1-0.5,0.7c0,0,0.1,0.1,0.3,0.1C47,70,47.1,70,47.1,70s0,0.1-0.1,0.3c0,0.1-0.1,0.3-0.1,0.3
					c-0.3-0.3-0.6-1-0.9-0.7c0.4-0.5-0.1-1-0.4-1.3c-0.3-0.4-0.5-0.6,0.5-0.4c-0.1,0.7,0,0.8,0.7,1c-0.5-1.3,0-2.4,0-3.2l-0.6-0.3
					c0.6,0,1-0.4,1.1-0.7c-0.1-0.2,0-0.4-0.3-0.3c-0.2-0.1-0.3,0.3-0.4,0.5c-0.2,0.3-0.4,0.5-0.9,0.1c0.3-1,1-1.7,1.9-2
					c0.1,0.4-0.1,0.6,0.6,1.1c0.3,0.7,0.3,1.4,0.4,2c0.1,0.6,0.4,1.3,1,1.6c-0.3,0.2-0.3,0.6-0.7,0.7c-0.2,0.3,0.3,0.4-0.1,0.8
					c0.2,0.1,0.3,0.2,0.4,0.2c0.1,0,0.1,0.1,0.2,0.1c0.1,0,0.1,0,0.2,0.1c0.3,0.2,0.6,0.3,0.9,0.4c0.3,0.1,0.7,0.2,1.1,0.2
					c0.4,0,0.8-0.2,1.1-0.4c-0.5-0.3-0.4-0.5-0.4-0.7c0.1-0.2,0.2-0.4,0-0.6c0.5,0,0.5-0.5,0.5-0.7c-0.2-0.1-0.2-0.3-0.4-0.3
					c0,0.2-0.2,0.2-0.4,0.4c-0.7-0.3,0.2-0.4,0.3-0.7l0.3,0.3c0.2-0.5,1.6-0.8,1-1.4c0,0-0.2,0.1-0.4,0.1c-0.2,0.1-0.4,0.1-0.4,0.1
					c-0.2-0.6,0.9-1.2,0.1-1.7c-0.3,0.3,0.2,1-0.8,0.8c-0.5-0.1-0.4-0.5-0.2-0.6c0.5-0.3,0.3-0.8,0.1-1.1
					C52,63.4,51.8,63.2,52.4,62.8z"/>
				<path class="st39" d="M50.8,63.8c0,0.6,1.4,0.4,1.2,1c-0.5-0.1-1,0.1-1,0.3c0.3,0.2,0,0.4,0,0.6c-0.1,0.1-0.7-0.1-0.7-0.3
					c0.6-0.1,0.5-0.5,0.3-0.8C50.5,64.3,50.3,64.1,50.8,63.8z"/>
				<path class="st62" d="M53.7,63.2c0.1,0.4-1.1,0.3-0.8,0.6c-0.6-0.1,0-0.2,0-0.5l0.4,0.2L53.7,63.2z"/>
				<path class="st39" d="M51.8,65.9c0,0.2-0.4,0.6-1.1,0.4c-0.1,0-0.4-0.1-0.3,0C50.7,66.3,50.9,65.8,51.8,65.9z"/>
				<path class="st62" d="M54.7,65.4c0.1,0.2,0.1,0.3,0.1,0.5C54.6,65.8,54.3,65.6,54.7,65.4z"/>
				<path class="st39" d="M52.9,66.5c0.5,0.1,0.1,0.2,0.1,0.3l-0.3,0.1C52.7,66.8,52.6,66.6,52.9,66.5z"/>
				<path class="st39" d="M50.9,67.9c-0.3,0.1-0.5-0.4-0.7-0.3c0,0,0-0.1,0-0.2l0.8,0.2L50.9,67.9z"/>
				<path class="st39" d="M51,68.1c0.2,0.1,0.3,0.3,0.4,0.4c0,0,0,0,0-0.1c0,0,0,0,0,0C51.3,68.4,51.2,68.3,51,68.1z"/>
				<path class="st39" d="M51.9,68.4c0.1,0.2-0.2,0-0.4,0C51.2,68.2,51.8,68.2,51.9,68.4z"/>
				<path class="st39" d="M51.1,73.6c0.3-0.3,0.7-0.4,1.3-0.5c0.5-0.1,1.2-0.3,1.7-0.8c-0.5,0.4-0.9,0.7-1.3,1
					C52.3,73.5,51.8,73.7,51.1,73.6z"/>
				<path class="st39" d="M48.7,60c0.1-0.2-0.1-0.1-0.2,0l-0.1,0.2C48.4,60.2,48.7,60,48.7,60z"/>
				<path class="st39" d="M49.2,61c0.7-0.4,0.3-0.3,0.6-0.7c0-0.3-0.6-0.1-0.8-0.2l-0.4,0.2C48.7,60.6,48.7,61,49.2,61z"/>
				<path class="st62" d="M52.4,59.1c0.1-0.4-0.6-0.4-0.7-0.6c0.1,0.3,0.4,0.7,0.4,0.9C52.3,59.4,52.3,59.2,52.4,59.1z"/>
				<path class="st39" d="M47.9,58.1c-0.1,0,0-0.1,0.1-0.1l0,0l0,0.4l0,0l0,0l0,0l0,0.1c0,0.1,0,0.2,0,0.4c0,0.2,0,0.4-0.1,0.6
					c0,0.1,0,0.2-0.1,0.4c0-0.1,0-0.2,0.1-0.3c0-0.2,0.1-0.4,0.1-0.5c0.1-0.5,0.1-0.4,0.1-0.3c0,0.2,0,0.4,0,0.4
					c0-0.2,0.2-0.6,0.4-0.6c0.1,0.3,0.5,0.5,0.9,0.7c0.4-0.2,0.4,0.7,1,0c0.3,0.2-0.3,0.7-0.4,0.9c0.6-0.1,0.4,0.5,0,0.9
					c-0.3,0.4-0.7,0.8,0,0.8c-0.6,0.1-0.4,0.3-0.4,0.5c0,0.2,0,0.7,1.1,0.5c0.7-0.3-0.5-0.5,0.1-0.9c1-0.8,0.6,0.4,1.5,0.3
					c-0.2-0.1,0.6-0.2,0.3-0.5c0.5,0.5,1-0.5,1.6-0.3c0.4-1,0.4-0.9,1.4-1.7c-0.4-0.5-1.1,0-1.6,0c-0.6-0.3,0.2-1.2-0.3-1.5
					c1.5-0.4,0.5-1.4,0-1.9c-0.5-0.7-1.2,0.7-1.7,0c0.1-0.4,0.4-0.4,0.7-0.5c0.3,0,0.6-0.1,0.7-0.5c0,0-0.1,0-0.3,0
					c-0.1,0-0.3,0-0.3,0c-0.6,0.2-1.2,0.7-1.7,0.8c-0.1-0.1-0.4-0.2-0.2-0.4c0.4,0,0.7-0.5,0.5-1c-0.3,0.1-0.4,0.1-0.6,0.3
					c-0.1,0.9-0.3,0.8-0.5,0.6c-0.2-0.2-0.6-0.6-1-0.2c-0.9,0.4-0.9,0-1-0.6c-0.1-0.3-0.2-0.6-0.4-0.8c-0.2-0.2-0.6-0.3-1.1,0
					c0.4,0.6,0.1,0.8-0.3,1.1c-0.4,0.2-0.9,0.5-0.9,0.9c-0.3,0.3-0.8,0.2-1.4,0.5c0.1,0.2,0,0.8,0.3,0.9c0.9-0.1,1.9-0.2,2.7,0.3
					C47.9,58,48,58.3,47.9,58.1L47.9,58.1z"/>
			</g>
		</g>
	</g>
</g>
<g class="st61">
	<g>
		<g>
			<g>
				<path class="st39" d="M51,61.2c-0.3-0.1-0.1-0.6,0.8-0.9l0.5-0.3C52.3,60.3,52.5,61,51,61.2z"/>
				<path class="st62" d="M47.2,62.9c0.2-0.2,0.5-0.3,0.8-0.4l0,0.2C47.7,62.9,47.4,62.9,47.2,62.9z"/>
				<path class="st39" d="M39.2,66.3L39,66.4C39.2,66.3,39.3,66.2,39.2,66.3c0.5-0.3,0.9-0.4,0.8-0.3C39.7,66.1,39.6,66.1,39.2,66.3
					z"/>
				<path class="st39" d="M46.5,60.1c-1.1,0.8-2.7,2.1-3.7,3l-1.9,1.2c0.4-0.3,0.5-0.5,0.5-0.5c-0.3,0.2,0.6-0.5,0.8-0.7
					c0.2-0.2-0.6,0.5,0,0c0,0,0.1-0.1,0.1-0.1c0.2-0.2,0.2-0.2,0.3-0.3c0.1-0.1,0.2-0.2,0.4-0.4c0,0,0,0,0.1,0c0,0,0-0.1,0-0.1l0,0
					c0.1-0.1-0.2,0.3,0.2-0.3l0,0l0,0l0,0l0,0l0,0l0,0l0,0l0,0c0,0,0,0,0-0.1c0-0.1,0-0.3-0.1-0.4c0,0,0,0,0-0.1c0,0,0,0,0,0l0,0
					l0,0l0,0l0,0c0,0-0.1,0,0.1,0l0,0l0,0l0,0c0,0,0,0,0.1,0.1c0.2,0.1,0.5,0.2,1,0.2c0.2,0,0.6,0,1.4,0c0.2,0,0.5,0,0.7-0.1
					c0.3,0,0.7-0.1,1-0.2c0.4,0,1-0.1,1.5-0.1l0,0l0.6-0.1l0,0l0,0l0,0l0,0l0,0l0.1,0c0,0,0.1,0,0.1,0L49,61.3
					c1.2-0.1-0.2,0.2-0.1,0.3l-0.6,0.2c-1.1,0.2-0.6-0.2-2.2,0.2c-0.9,0.4,1.6,0.1,0.5,0.5c-0.2,0.2,0.5,0.1,0.9,0.1
					c0.7-0.1,0.6-0.2,1.4-0.4c0.5,0.2-3,1.2-2.6,1.5c0.6-0.1,2-0.3,2.8-0.8L48.3,63l0.7-0.3c0,0.1,0,0.2,0.8,0
					c-2.4,0.9,2.5-0.3-1.3,0.8c0.6-0.3,0.4-0.3-0.6-0.1c-0.1,0.4-1,1.1-0.9,1.4l1.1-0.4c-1.1,0.4-1.7,0.9-1.9,1.2
					c0.3,0,0.2,0.1,0.7-0.2c0.6-0.3,0.2-0.7,2.1-1.2c-0.3,0.5-1.1,1.2-2.5,2.2c-0.3,0-0.1-0.3-1.6,0.2c-0.8,0-1.1-0.3-1.3-0.7
					c-0.3-0.3-0.5-0.6-1.6-0.7c0.7-0.3,1-0.5,1.8-0.7c0.5-0.2-0.1-0.2,1-0.6c-1.3-0.2-0.8-1-0.7-1.5c-2,0.5-1.4-0.1-2.2-0.1
					c0.9-0.3,0.4-0.4,0.4-0.6c-0.3,0-0.5-0.2-1-0.2c0.2,0.2-0.2,0.2-0.4,0.5c-1.5,0,0-0.5,0.2-0.8c0,0,0.2,0.1,0.4,0.1
					c0.2,0.1,0.4,0.1,0.4,0.1c0-0.2,0.8-0.3,1.2-0.1c0.1,0.1,0.1,0,0.1,0.1l0,0l0,0l0,0l0,0l-0.1,0l0,0l0,0l0,0l0,0c0,0,0,0,0,0
					c0,0,0,0,0,0c0,0,0,0,0,0c0,0,0,0,0-0.1c0,0-0.2-0.3-0.4-0.6c-0.2-0.3-0.6-0.4-0.6-0.5c0.1-0.5,0.7-0.4,0.9-0.2
					c0.3,0.2,0.4,0.2,0.9-0.5c-0.1-0.3-0.5-0.2-0.8-0.3c-0.3,0-0.5-0.2-0.7-1.1c-0.1-0.5,0.2-0.8,0.5-0.9c0.3-0.1,0.7,0.1,0.9,0.3
					c0.4,0.6,0.7,0.7,1.1,0.9c0.1,0,0,0,0.2,0c0.1,0,0.2,0,0.3,0c0.2,0,0.4,0,0.6,0C46.8,58.7,47.5,58.9,46.5,60.1z"/>
				<path class="st39" d="M47.7,56.4c-0.2-0.1-0.4-0.2-0.6-0.2c-0.2,0-0.5-0.1-0.6,0c-0.2,0.1-0.2,0.2-0.3,0.3L46,56.7l0,0l0,0l0,0
					l0,0l0,0l-0.1-0.1l-0.1,0l-0.1,0.1c-0.5,0.5-0.9,0.9-1.7,0.6c0.2-0.5,0.2-1-0.1-1.4c-0.3-0.4-0.8-0.7-1.2-0.7
					c-0.4,0.3-0.8,0.5-1.3,0.6c-0.5,0.1-1,0.2-1.4,0.5c-0.3,0-0.8,0-0.8-0.4c0-0.1,0-0.2,0-0.3c0-0.1,0-0.2,0.1-0.3
					c0.1-0.2,0.3-0.4,0.7-0.6c1,0.1,1.8,0.1,2.6,0c0.7-0.1,1.4-0.2,2.1-0.2c0.4,0,0.7,0,1.1,0.1c0.2,0,0.4,0.1,0.5,0.1
					c0.1,0,0.2,0.1,0.3,0.1l0.1,0.1l0.2,0.1c0,0,0,0,0,0c0,0,0,0,0.1,0.1c0.1,0.1,0.3,0.3,0.4,0.4C47.6,55.8,47.6,56.1,47.7,56.4z"
					/>
				<path class="st62" d="M44.4,61.2c-0.3-0.1,1.5-1.7,0.8-1.5c1-0.8,0.2,0.2,0.5,0.4c0,0-0.2,0.1-0.3,0.2c-0.2,0.1-0.3,0.2-0.3,0.2
					s-0.1,0.2-0.3,0.4C44.6,61,44.4,61.2,44.4,61.2z"/>
				<path class="st39" d="M40.7,58.1c-0.1,0.1-0.2,0.2-0.3,0.3c0,0-0.1,0-0.1,0l0,0l-0.1,0.1l0,0l0,0l0,0l0,0l0,0l0,0L40,58.6
					c-0.1,0-0.1,0.1-0.2,0.1c-0.1,0.1-0.3,0.1-0.4,0.2c-0.6,0.3-1.2,0.6-1.8,0.4c-0.1,0.1-0.7-0.4-0.7,0.2c0.3-0.3,0.8-1.1,1.5-1.6
					c0.2-0.1,0.4-0.2,0.6-0.3l0.2,0l0.1,0l0,0l0.2-0.2l0,0l0,0l0,0l0,0l0,0c0,0,0.1,0.1,0.2,0.1c0.1,0,0.1,0.1,0.2,0.1
					c0.1,0,0.2,0,0.3,0C40.3,57.8,40.5,57.9,40.7,58.1z"/>
				<path class="st62" d="M43.2,61.8c0,0,0-0.1,0-0.2C43.2,61.7,43.2,61.8,43.2,61.8z"/>
				<path class="st39" d="M41.9,60.4c0.8,0.6,0.1,0.3,0,0.4c0,0-0.5-0.1-0.5-0.1C41.3,60.5,41.4,60.2,41.9,60.4z"/>
				<path class="st39" d="M38.5,62.7c0,0-0.1,0-0.2,0.1c-0.1,0-0.1,0-0.2,0l-0.1,0h0c0-0.1,0,0,0,0l-0.1,0l-0.2,0
					c-0.2,0-0.3,0-0.4,0c-0.1,0-0.2,0.1-0.2,0.1c0,0,0,0-0.1-0.1c0-0.1-0.1-0.2-0.1-0.2s0.4-0.1,0.8-0.2c0.4-0.1,0.8-0.1,0.8-0.1
					C38.4,62.3,38.5,62.7,38.5,62.7z"/>
				<path class="st39" d="M37.2,63.3c0.4,0,0.5,0.1,0.2,0.3l-0.6,0C36.6,63.6,37.2,63.4,37.2,63.3z"/>
				<path class="st39" d="M40.7,62.4c0.4,0.1-0.4,0.2-0.7,0.3C39.5,62.8,40.5,62.3,40.7,62.4z"/>
				<path class="st39" d="M50.3,61.6c-1.3,0.2-0.5-0.1-0.9-0.1C49.7,61.6,50.4,61.5,50.3,61.6z"/>
				<path class="st39" d="M52.9,63.2c-0.4,0.3,0,0.3,0.4,0.3l0.4-0.2L52.9,63.2z"/>
				<path class="st39" d="M52.8,61c-1.5,0.4-0.7,0.4-1.6,1.1c-0.1,0.4,1.1,0.4,1.2,0.8l0.9,0C53.6,62.2,53.7,61.2,52.8,61z"/>
				<path class="st62" d="M45.8,63.6c-0.5,0.4,0.6,0.2,0.6,0.4c0.1-0.3,0-0.6,0-0.8C46.1,63.3,46,63.4,45.8,63.6z"/>
				<path class="st39" d="M54.3,67c-0.1-0.5,1-1.4-1-1.7c-0.3,0.3-0.7,0.4-1,0.8c-2,0,0.2-0.6,0.1-0.9c-0.4,0.3-1.3,0.1-1.4-0.1
					c0.4-0.5,0.1-1.1-0.2-1.6c-0.7,0,0.1-1.1-1.7-0.4c-0.3-0.2,1.1-0.8,1.4-1.2c-1.2,0.1-0.4-0.6,0.3-1.4c0.7-0.8,1.3-1.6-0.1-1.3
					c1-0.5,0.6-0.9,0.6-1.1c-0.1-0.2-0.2-0.5-0.6-0.6c-0.4-0.1-1-0.1-1.7,0.7c-1,1.1,1.2,0.2,0.2,1.3c-1.6,1.7-1.1-0.1-2.7,1
					c0.3-0.1-1.1,0.8-0.4,0.7c-1,0.1-1.7,1.3-2.8,1.8c-0.8,0.9-0.8,0.9-2.9,2.2c0.4-0.1,1.9-0.9,2.7-1.3c1-0.2-0.9,0.9-0.4,0.9
					c-2.8,1.1-2,1.1-1.9,1.3c-0.1,0.2,2.5-0.8,2.4-0.4c-1.3,0.5-1.9,0.3-3.3,0.9l0.6-0.1c1.1-0.3,2.6-0.6,3.4-0.7
					c0,0.1,0.1,0.2-0.4,0.3c-0.5,0-1.6,0.3-2.2,0.6c0.5-0.1,0.6-0.1,1-0.2c3.1-0.9,0.2,0.2,2.1,0.1c2.7,0.3-3.7,0.8-2.3,1
					c1.9-0.2,1.9,0,2.1,0.2l2.4-2.3c-0.1,0.1-0.2,0.2-0.3,0.5c-0.2-0.1-0.2-0.9-0.3-1.8c-0.1,0.3-0.2,0.5-0.3,1
					c-0.1,3.3,0.1,6.4,0.4,9.3l7.1-6.8c0.4-0.1,0.8-0.3,1.2-0.4C54.4,67,54.4,67,54.3,67z"/>
			</g>
		</g>
	</g>
</g>
<g class="st61">
	<g>
		<g>
			<g>
				<path class="st39" d="M54.8,77.9c0-0.1,0-0.3,0-0.3l0,0C54.7,77.7,54.8,78.1,54.8,77.9z"/>
				<path class="st62" d="M54.8,78C54.8,77.9,54.8,77.9,54.8,78l0,0.1C54.8,78.1,54.8,78,54.8,78z"/>
				<path class="st39" d="M55.2,82.7l0,0.2C55.2,82.7,55.2,82.7,55.2,82.7c0-0.4-0.1-0.7,0-0.5C55.2,82.4,55.2,82.4,55.2,82.7z"/>
				<path class="st39" d="M55.9,77.5C55.9,77.5,55.9,77.5,55.9,77.5c-0.1,0.5-0.2,1.1-0.3,1.5l-0.2,1.8c0.1-0.8,0.1-0.2,0-0.1
					c0,0.3-0.1,0.5-0.1,0.9c0-0.2,0.1-0.6,0.1-0.8c-0.1,0.5-0.2,1.7-0.2,1.4l0-0.7c-0.1,0.1-0.1,0.5-0.2,0.7c0,0.1-0.1,0.2-0.1,0.2
					c0,0-0.1,0-0.1,0l-0.2,0l-0.1,0l-0.1,0c-0.1,0-0.2,0-0.2,0c-0.3,0-0.6-0.1-0.9-0.3c-0.3,0.2-0.7,0.2-1.1,0.1
					c-0.4-0.1-0.7-0.3-1-0.3l0.2-0.3c-0.7,0.2-0.4-0.6-0.7-0.8c0,0,0-0.1,0-0.2c0-0.1,0-0.2,0-0.2c0.4-0.4,0.7,0.4,1.1-0.4
					c0-0.3-0.2-0.3-0.5-0.4c-0.3,0-0.5-0.1-0.3-0.4c0-0.4-0.4-0.2-0.6-0.3c-0.3,0.1-0.3,0.2-0.7,0.3c-0.6-0.9,1.2-1.4,0.9-1.9
					c-0.3,0-1.1-0.4-1.4,0.1l0.4,0.2l-0.4,0.2c-0.1-0.2-0.1-0.6-0.5-0.5c0.6-0.2,0.3-0.5,0.1-0.7c-0.2-0.2-0.4-0.3,0.6-0.1
					c-0.3,0.3-0.2,0.4,0.3,0.6c0-0.7,0.6-1.2,0.6-1.6l-0.6-0.2c0.6,0,1-0.1,1.1-0.3c-0.1-0.1-0.1-0.2-0.3-0.2
					c-0.3-0.1-0.3,0.7-1.3,0.2c0.3-0.5,0.9-0.9,1.7-1c0.1,0.2-0.1,0.3,0.6,0.7c0.3,0.4,0.3,0.8,0.4,1.1c0,0.4,0.1,0.7,0.6,1
					c-0.4,0.1-0.5,0.3-0.9,0.3c-0.3,0.1,0.1,0.2-0.5,0.4c0.4,0.3,0.5,0.6,0.6,0.9c0.1,0.3,0.3,0.7,0.4,0.9c0.6-0.8,0.7-0.2,1.1-0.5
					c-0.2,0.4,0.2,0.4,0.3,0.4c0.1-0.2,0.2-0.2,0.2-0.5c-0.1,0.1-0.1-0.1-0.1-0.2c0.3-0.7,0,0.1,0.2,0.1c0,0-0.1,0.4-0.1,0.4
					c0.1,0,0.3,0.3,0.5,0.5c0.2,0.2,0.3,0.3,0.3-0.2c0,0,0-0.2-0.1-0.3c0,0-0.1,0-0.1,0c0.3-0.2,0.5-0.5,0.6-0.7
					c-0.1,0.2-0.3,0.5-0.3,0.5c0,0,0.2-0.2,0.2-0.3C55.7,78.3,55.9,77.9,55.9,77.5z"/>
				<path class="st39" d="M55.8,78.2c-0.2,0.4-0.1,0.2-0.3,0.6c0,0-0.1,0.1-0.2,0.2c-0.1,0.1-0.2,0.2-0.3,0.3c-0.1,0-0.1,0,0.1-0.1
					C55.4,78.9,55.6,78.5,55.8,78.2z"/>
				<path class="st62" d="M55.9,77.8c-0.1,0.2,0,0.1-0.1,0.3C55.9,77.8,55.9,77.9,55.9,77.8l0,0.1L55.9,77.8z"/>
				<path class="st39" d="M55,79.3c-0.1,0-0.2,0.1-0.2,0.1c0,0,0,0-0.1,0c0,0,0,0.2-0.1-0.3c-0.1-0.3-0.1-0.7-0.2-1.2
					c0,0,0-0.2-0.1-0.3c0-0.1,0-0.3-0.1-0.3c0-0.2,0-0.2-0.1-0.3c0,0,0-0.1,0-0.2c0,0,0-0.1,0-0.1l0,0l0.3,1.9l0,0l0,0l0,0l0,0l0,0
					l0,0l0,0l0,0l-0.3-1.9l0,0l0,0.1l0.1,0.3l0.1,0.7c0.1,0.5,0.2,1,0.3,1.5l0,0.2c0,0,0,0,0,0l0,0l0,0c0,0,0.1,0,0.1,0
					C54.9,79.3,55,79.3,55,79.3z"/>
				<path class="st62" d="M55.4,80.1c0,0.2-0.1,0.2-0.1,0.3C55.3,80.2,55.3,79.8,55.4,80.1z"/>
				<path class="st39" d="M54.9,79.3c0,0-0.1,0-0.1,0.1c0,0,0,0,0,0c0,0-0.1-0.1-0.1-0.1c0,0,0,0.1,0,0.1l0,0c0,0,0,0,0.1,0
					C54.8,79.4,54.8,79.4,54.9,79.3z"/>
				<path class="st39" d="M54.8,77.8C54.9,77.5,54.6,78,54.8,77.8l-0.1,0.1l0,0.1L54.8,77.8z"/>
				<path class="st39" d="M54.9,77.5L54.9,77.5L54.9,77.5L54.9,77.5l0.4-0.3l0,0l0,0l0,0l0,0l0,0c0,0,0,0,0,0c0,0,0,0,0.1-0.1l0,0
					l0,0l0,0l0,0l0,0l0,0l0,0l0,0L54.9,77.5L54.9,77.5L54.9,77.5L54.9,77.5z"/>
				<path class="st39" d="M54.2,78.5c-0.2,0.1,0.1-0.2,0.2-0.3C54.5,78,54.3,78.5,54.2,78.5z"/>
				<path class="st39" d="M49.7,80.5c0.6-0.2,0.6,0.4,1,0.6C50.3,81,49.9,81,49.7,80.5z"/>
				<path class="st39" d="M55.6,79c0.1,0.1,0.1,0.1,0.2,0.1l0,0L55.6,79z"/>
				<path class="st39" d="M54.8,78.2c0-0.1,0,0.1,0.1,0.2c0.1,0.2,0.3,0.3,0.4,0.5l0.1,0.1C55.3,78.8,55,78.5,54.8,78.2z"/>
				<path class="st62" d="M54.8,78c0,0.2,0.1,0.3,0.1,0.2c0,0.1,0.1,0.1,0.1,0.2C54.9,78.3,54.8,78.1,54.8,78
					C54.8,77.9,54.8,78,54.8,78z"/>
				<path class="st39" d="M58.3,76.1c0,0,0-0.1-0.1-0.2c0,0,0,0-0.1,0.1c0,0,0,0-0.1,0.1l0,0c-0.1,0.2-0.2,0.3-0.2,0.5
					c-0.2,0.5-0.5,1.2-0.9,2c0.3-0.6,0.6-1.3,0.9-1.9c0,0.1,0,0.2,0,0.3c-0.1,0.2-0.2,0.3-0.2,0.3c0,0,0,0,0,0l0,0c0,0,0,0,0,0.1
					c0,0.1-0.1,0.2-0.2,0.3c-0.2,0.4-0.5,1-0.7,1.5c-0.1,0.2-0.1,0.3-0.2,0.4l0,0c0,0,0,0-0.1,0c0.1,0.1,0,0-0.2-0.1
					c-0.2-0.1-0.6-0.3-0.8-0.6c-0.1-0.1-0.4-0.5-0.4-0.4c-0.1-0.2-0.1-0.2-0.2-0.3c-0.1-0.2-0.1-0.4,0-0.6c0.1-0.2,0.3-0.3,0.5-0.4
					c0,0,0.2,0,0.3,0c0.1,0,0.3,0.1,0.3,0.3c0,0.1,0,0.2,0,0.2c0-0.1-0.1-0.5-0.4-0.5c-0.2,0-0.1,0,0.1,0c0.2,0,0.3,0.2,0.3,0.2
					c0,0,0-0.1-0.2-0.2c0.1,0,0.1,0.1,0.1,0.1c0,0,0-0.1,0,0c-0.1,0.4-0.2,0.9-0.2,1.4c-0.3,0.8-0.3,0.9-0.4,2.8
					c-0.1-0.3-0.1-1.6-0.2-2.3c-0.2-0.6-0.1,1.2-0.1,1c0.2,2,0.2,1.7,0.2,1.7c0.1,0.2,0-1.6,0.1-1.2c0,0.9-0.1,1-0.1,1.9l0-0.3
					c0-0.6,0.1-1.4,0.2-1.8c0,0,0.1,0.1,0.1,0.3c-0.1,0.2-0.1,0.8-0.1,1.2c0.1-0.2,0.1-0.3,0.1-0.5c0.1-1.8,0.2,0,0.5-0.9
					c0.4-0.5,0.4,0,0.3,0.5c-0.1,0.5-0.2,1.2,0.4,1c0.1-1.4,0.7-0.6,1-1.1c0.2,0.1,0.2,0.5,0.4,0.9c0.1-0.2,0.3-0.2,0.3-0.5
					c-0.1-1.9-0.4-3.7-0.1-5.2C58.4,76.1,58.3,76.1,58.3,76.1z"/>
			</g>
		</g>
	</g>
</g>
<g class="st61">
	<g>
		<g>
			<g>
				<path class="st39" d="M69.7,74.5c-0.1,0,0-0.2,0.4-0.3l0.3-0.1C70.4,74.1,70.4,74.2,69.7,74.5z"/>
				<path class="st62" d="M67.9,75.4c0.1-0.2,0.2-0.2,0.4-0.2l0.1,0.2C68.2,75.6,68,75.5,67.9,75.4z"/>
				<path class="st39" d="M63.9,77.2l0,0.2c0-0.2,0-0.4-0.1-0.6c0.2-0.1,0.5,0.1,0.6,0.4C64.2,77.2,64,77,63.9,77.2z"/>
				<path class="st39" d="M68.2,72c-0.6-0.2-1.7-0.3-2.4,0l-1.1-0.4c0.6-0.2,0.5-0.8,0.6-1.2c-0.2-0.2-0.5,0.3-0.6-0.2
					c0.2,0,0.4,0.1,0.6,0.1c-0.1-0.2-0.3-0.4-0.5-0.6c-0.2-0.2-0.3-0.5,0.3-1.2c0,0,0.2,0,0.4-0.1c0.2,0,0.4-0.1,0.4-0.1
					c0.2-0.3,0.5-0.7,1-1c0.5-0.3,1.1-0.6,1.7-0.6l2.7-0.2l0.1,3.3c0.1,1.5-0.3,3.3-1.5,4.2c0.1,0.2,0.1,0.3,0,0.5
					c0,0.1,0.1,0.1,0.1,0.1c0,0.1,0,0.1,0.2,0.2l-0.3-0.2c0.5,0.3-0.2,0-0.2,0L69,74.4C68.3,74.2,69,74.3,68,74
					c-0.4,0-0.3,0-0.2,0.1c0.1,0,0.3,0.1-0.2-0.1c-0.3-0.3,0.3,0,0.5,0c0.5,0.2,0.5,0.2,1.1,0.5c0.2,0-0.3-0.3-0.7-0.6
					c-0.4-0.3-0.8-0.6-0.5-0.3c0.2,0.1,0.5,0.3,0.8,0.5c0.3,0.2,0.6,0.3,0.8,0.4L69,74.1l0.4,0.2c0.1,0,0.1,0.1,0.5,0.3
					c-0.7-0.4-0.3-0.1-0.1,0c0.2,0.1,0.4,0.2-0.6-0.2c0.3,0,0.2,0-0.3-0.4c0,0.1-0.1,0.2-0.3,0.4c0,0-0.1,0.1-0.1,0.1
					c0,0-0.1,0.1-0.1,0.2c0,0.1-0.1,0.2-0.1,0.2c-0.1,0.3-0.3,0.7-0.5,1c0,0,0.2,0.7,0.2,0.7c-0.1-0.1-0.3-0.1-0.4-0.1
					c-0.1,0-0.2,0-0.2,0c-0.1,0-0.1,0-0.2,0c-0.4,0.1-0.8,0.2-1.1,0.3c-0.2,0.3-0.6,0.3-0.4,0.6c0,0.2,0.7,0.1,1.3-0.2
					c0.1-0.1,0.3-0.1,0.4-0.2l0.1,0l0,0l0,0l0,0l0,0l0.1-0.1l0,0l0,0l0,0c0,0,0.1,0,0.1,0c0.1,0,0.1,0.1,0.2,0.2
					c0,0,0.1,0.1,0.1,0.1l0,0c-0.2,0.2,0,0-0.1,0.1l0,0l0,0l0,0l0,0l0,0l0,0.1c0,0.1,0,0.1-0.1,0.2c-1.1,0.8-2.3,0.9-3.4,0.5
					c-0.5-0.2-1-0.5-1.3-0.9c-0.2-0.2-0.3-0.4-0.4-0.7c-0.2-0.3,0-0.3,0-0.5c0,0,0.1,0.1,0.1,0.1c0.1,0.1,0.2,0.2,0.3,0.3
					c0.2,0.1,0.3,0.2,0.5,0.3c0.4,0.1,0.8,0,1.1-0.3c1-0.3,1.7-1,1.9-1.8c0.1-0.4,0.1-0.7,0-1.1c-0.1-0.4-0.1-0.7-0.3-1
					c0,0,0-0.1,0-0.1c0,0-0.1-0.1,0-0.1c0.1,0,0.2,0.1,0.5,0.2c0.3,0.1-0.3-0.3,0.3,0.1c-0.3-0.2-0.7-0.3-1-0.2
					c-0.3,0.1-0.4,0.4-0.2,0.6c0.1,0.2,0.3,0.4,0.5,0.5c0.2,0.1,0.5,0.1,0.7,0c-0.7-0.2-0.7-0.3-0.6-0.4c0.1-0.1,0.2-0.3,0.4-0.4
					c0.1-0.1,0.3-0.1,0.4-0.2c0.1-0.1,0.2-0.3,0.3-0.4c-0.1-0.1,0-0.3-0.3-0.5c0,0.1-0.1,0.2-0.2,0.2c-0.1,0,0.1,0.3,0.2,0.5
					c0,0-0.1-0.2-0.3-0.4c-0.1-0.1-0.1-0.2-0.2-0.3c0,0,0-0.1-0.1-0.1c0,0,0,0,0,0c0,0,0,0,0.1,0c0.2,0,0.4,0,0.5-0.2l0.2,0.4
					c0.2-0.2,0.6-0.3,1-0.5c0.4-0.2,0.6-0.5,0.4-0.9c0,0-0.8,0.2-0.8,0.2c0-0.4,0.4-0.8,0.5-1.2l0.2,0.2c-0.2,0-0.4,0.2-0.2,0.5
					c0.1,0,0.2,0,0.3,0L68,69.3c0,0.3-0.1,0.5-0.7,0.3c-0.4-0.1-0.4-0.3-0.3-0.5l1.6,1.2c0,0,0-0.1,0,0c0,0,0,0.1,0.1,0.2
					c0,0.1,0,0,0,0.1c0,0.1,0,0.3,0.1,0.4C68.9,71.3,68.9,71.8,68.2,72z"/>
				<path class="st39" d="M70.1,71.5C70.1,71.5,70.1,71.5,70.1,71.5C70.1,71.5,70,71.5,70.1,71.5L70,71.5c-0.2-0.1-0.3-0.2-0.4-0.3
					c-0.2-0.1-0.3-0.2-0.4-0.3c-0.1-0.1-0.2-0.1-0.3-0.3c-0.1-0.1-0.2-0.3-0.3-0.4c0,0,0-0.1,0,0L66.1,69C66,69,66,69.1,66,69.1
					c0.3,0.2,0,0.3,0,0.4c-0.1,0-0.7-0.2-0.7-0.3c0.4,0,0.5-0.2,0.4-0.3l3,1.4c0-0.1,0,0.1,0.4,0.5c0.2,0.2,0.4,0.4,0.7,0.5
					c0.1,0.1,0.3,0.2,0.5,0.3C70.3,71.6,70.1,71.6,70.1,71.5z"/>
				<path class="st62" d="M67.2,71.1c0.1-0.4,1.1,0.1,1-0.3c0.5,0.4-0.1,0.1-0.1,0.5l-0.3-0.3L67.2,71.1z"/>
				<path class="st39" d="M66.7,69.9c0,0.2-0.5,0.5-1.1,0.1c-0.1,0-0.3-0.2-0.3-0.1C65.6,70,65.9,69.7,66.7,69.9z"/>
				<path class="st62" d="M68.5,68.3L68.5,68.3l0.6-0.3l0.6,1.5c0.1,0.2,0.1,0.4,0,0.7c-0.1-0.2-0.3-0.5-0.1-0.7l0.5-0.4L68.5,68.3
					C68.5,68.3,68.5,68.3,68.5,68.3z"/>
				<path class="st39" d="M67.8,70.7c0.5,0.2,0,0.3,0,0.3l-0.3,0C67.5,70.9,67.5,70.7,67.8,70.7z"/>
				<path class="st39" d="M66.7,72.7C66.4,73,67,72.5,66.7,72.7l0.2-0.1l0.1-0.1L66.7,72.7z"/>
				<path class="st39" d="M66.2,73.1c-0.1,0.1-0.2,0.1-0.4,0.2l0.1,0C66,73.2,66.1,73.2,66.2,73.1z"/>
				<path class="st39" d="M66.6,72.8c-0.2,0.1-0.1,0.1-0.2,0.2C66.5,72.9,66.8,72.7,66.6,72.8z"/>
				<path class="st39" d="M70.2,74.8c-0.8-0.3-0.3-0.1-0.5-0.2C69.9,74.7,70.4,74.9,70.2,74.8z"/>
				<path class="st39" d="M69.3,75.9c0,0.1,0,0.2,0,0.2l0,0C69.3,76.1,69.3,75.9,69.3,75.9z"/>
				<path class="st39" d="M70.3,74.2C70.3,74.2,70.3,74.2,70.3,74.2c0,0-0.1,0.1-0.1,0.1c-0.1,0-0.1,0.1-0.1,0.1
					c-0.1,0-0.1,0.1-0.3,0.3c0,0,0,0,0,0c0,0,0,0,0.1,0l0,0l0,0l0,0l0,0c0.1-0.1-0.6,0.7-0.3,0.3l0,0l0,0l0,0l0,0l0,0
					c0,0-0.1,0.1-0.2,0.3c0,0-0.1,0.3-0.1,0.3c0-0.1,0.1-0.3,0.1-0.4c0-0.1,0.1-0.1,0.1-0.1c0,0,0,0,0.1,0c0,0-0.1,0-0.1-0.1l0,0
					l0,0l0,0c0.1-0.2-0.3,0.3,0.3-0.3l0,0l0,0l0,0l0,0l0,0l0,0l0.1-0.1C70.1,74.4,70.2,74.3,70.3,74.2z"/>
				<path class="st62" d="M67.2,75.9c-0.1,0.5,0.6,0.5,0.7,0.6c-0.2-0.3-0.4-0.7-0.5-1C67.3,75.6,67.3,75.8,67.2,75.9z"/>
				<path class="st39" d="M67.9,72.9c-0.1,0.3-0.3,0.5-0.4,0.9c-0.1,0.2-0.1,0.3-0.1,0.5c0,0.1,0.1,0.3,0.3,0.4
					c0.2-0.1,0.4,0,0.7-0.4c0.8,0.6-0.3,0.5-0.3,0.6c0.2,0,0.6,0.3,0.6,0.4l0,0c0,0,0.1,0.1,0.2,0.1c0.1,0.1,0.2,0.2,0.3,0.3
					c0.2,0.2,0.2,0.3,0.3,0.3c0,0.2-0.1-0.3,0-0.6c0-0.1,0.1-0.2,0.1-0.3l0,0c0,0,0.1,0,0,0c-0.1,0-0.2,0-0.5,0.4
					c-0.2-0.1,0.3-0.6,0.5-0.8c-0.6,0.2-0.2-0.3,0.2-0.6c0.4-0.3,0.9-0.3,0.2-0.6c0.6,0.1,0.5-0.2,0.6-0.3c0-0.2,0.3-0.9-0.8-1
					c-0.8,0.1,0.3,0.8-0.5,0.9c-1.2,0.4-0.4-0.6-1.3-0.9c0.2,0.1-0.7,0-0.5,0.4c-0.3-0.8-1.1,0.1-1.6-0.4c-0.4,0.4-0.5,0.6-0.8,0.8
					c-0.2,0.2-0.6,0.2-1.2,0.6c0.2,0.8,1.1,0.5,1.5,0.6c0.3,0.3,0.2,0.6,0.1,1c-0.1,0.3-0.2,0.7,0.1,1c-0.8,0.1-1,0.4-0.8,1
					c0.2,0.5,0.7,1.1,1.1,1.4c0.2,0.3,0.4,0.3,0.7,0.3c0.1-0.1,0.2-0.2,0.4-0.3c0.3-0.2,0.5-0.4,1.1-0.1c0.2,0.4-0.2,0.6-0.6,0.6
					c-0.4,0.1-0.9,0.1-0.6,0.7c0,0,0.9,0.1,0.9,0c0.7-0.4,1.2-1.1,1.7-1.5c0.3,0,0.7-0.2,0.8,0c-0.3,0.2-0.4,0.4-0.2,0.6
					c0.1,0.2,0.5,0.3,0.9,0.3c0,0,0-0.1,0-0.1c0,0,0.1-0.1,0.1-0.1c0.1-0.1,0.1-0.2,0.1-0.2c0.1-0.1,0.1-0.2,0.1-0.4
					c-1.2-0.2-0.6-0.5-0.2-0.8c0.5-0.3,0.9-0.9,0.6-1.3c-0.3-1,0.1-0.9,0.7-0.9c0.6,0,1.2,0,1.1-0.7c-1.5-0.1-0.4-1-0.8-1.6
					c0.1-0.3,0.6-0.3,1.1-0.4c-0.1-0.1-0.1-0.4-0.4-0.6C71.6,72.1,69.6,72.3,67.9,72.9C67.8,72.9,67.8,72.9,67.9,72.9z"/>
			</g>
		</g>
	</g>
</g>
<g class="st61">
	<g>
		<g>
			<g>
				<path class="st39" d="M63.3,79.9c-0.1-0.1,0.2-0.1,0.5,0.2l0.2,0.2C64,80.3,63.9,80.5,63.3,79.9z"/>
				<path class="st62" d="M61.7,78.7c0.2,0.1,0.2,0.2,0.4,0.3L62,79C61.8,78.9,61.7,78.8,61.7,78.7z"/>
				<path class="st39" d="M58.2,76.1L58.2,76.1C58.2,76.1,58.3,76.1,58.2,76.1c0.2,0.1,0.4,0.3,0.3,0.3
					C58.4,76.3,58.4,76.2,58.2,76.1z"/>
				<path class="st39" d="M62.6,78.2c-0.6-0.4-1.4-0.9-2-1.3l-0.9-0.7c0.5,0.3,0.3,0,0.3-0.1c-0.2-0.2-0.4-0.2-0.5-0.4
					c0.1,0.1,0.4,0.3,0.5,0.3c-0.2-0.2-1-0.7-0.7-0.7l0.5,0.3c0.1-0.2-0.5-1,0.1-0.9c-0.5-0.4-0.2-0.4-0.5-0.6l0.3,0.2
					c-0.5-0.3,0.2,0,0.1-0.1l0.3,0.1c0.5,0.3,0.2,0.3,0.9,0.7c0.5,0.2-0.6-0.6,0-0.3c0.2,0-0.2-0.2-0.3-0.3
					c-0.3-0.2-0.3-0.2-0.6-0.4c-0.1-0.3,1.5,0.6,1.4,0.4c-0.2-0.2-0.8-0.6-1.2-0.7l0.3,0.2l-0.4-0.2c0,0,0.1-0.1-0.3-0.3
					c1.2,0.6-0.9-0.9,0.7,0.2c-0.3-0.1-0.3,0,0.2,0.3c0.2-0.1,0.7,0,0.8-0.1l-0.5-0.3c0.5,0.3,0.9,0.4,1,0.4c-0.1-0.1,0-0.1-0.3-0.2
					c-0.3-0.2-0.3,0.1-1.1-0.5c0.3,0,0.8,0.1,1.6,0.3c0.1,0.1-0.1,0.1,0.5,0.6c0.5,0.6-0.2,0.6,0.5,1.4c-0.3-0.2-0.5-0.2-0.9-0.4
					c-0.3-0.1,0,0.1-0.5-0.2c0.4,0.5,0,0.6-0.2,0.7c0.9,0.5,0.5,0.5,0.8,0.7c-0.4-0.2-0.3,0-0.3,0.1c0.1,0.1,0.2,0.2,0.4,0.3
					c-0.1-0.1,0.1,0,0.2,0c0.6,0.4-0.1,0.1-0.2,0.1l-0.3-0.3c-0.1,0.1-1.2-0.5-0.7,0l0.7,0.3c0.2,0.3-0.7-0.1-0.1,0.5
					c0.3,0.1-0.1-0.4,0.7,0.2c0.4,0.3,0.3,0.4,0.1,0.3C62.2,77.5,63.9,78.8,62.6,78.2z"/>
				<path class="st39" d="M64.2,78.8c0.1-0.2-1.1-0.9-0.9-1c0.4,0.3,0.8,0.5,0.9,0.4c-0.2-0.2,0-0.2,0-0.2c0.1,0,0.6,0.4,0.6,0.5
					C63.8,78.1,65.1,79.3,64.2,78.8z"/>
				<path class="st62" d="M61.7,77.4c0-0.1,1,0.6,0.8,0.3c0.5,0.4,0,0.1-0.1,0.1l-0.3-0.2L61.7,77.4z"/>
				<path class="st39" d="M63.5,77.6c0-0.1,0.3-0.1,0.9,0.3c0.1,0,0.3,0.2,0.3,0.1C64.4,78,64.3,78.1,63.5,77.6z"/>
				<path class="st62" d="M61.1,76.3C61,76.2,61,76.2,61,76.1C61.1,76.2,61.3,76.4,61.1,76.3z"/>
				<path class="st39" d="M62.5,76.8c-0.4-0.3-0.1-0.1-0.1-0.1l0.2,0.1C62.7,76.9,62.7,77,62.5,76.8z"/>
				<path class="st39" d="M64,77.2c0.2,0,0.5,0.4,0.6,0.4l0,0.1L64,77.2L64,77.2z"/>
				<path class="st39" d="M64.7,77.4c-0.1-0.1-0.2-0.2,0-0.1l0.2,0.2C65,77.6,64.7,77.4,64.7,77.4z"/>
				<path class="st39" d="M63.1,76.6c-0.1-0.1,0.2,0.1,0.4,0.1C63.7,76.9,63.2,76.7,63.1,76.6z"/>
				<path class="st39" d="M59.3,73.7c0.5,0.4,0.2,0.2,0.3,0.4C59.4,74,59.1,73.8,59.3,73.7z"/>
				<path class="st39" d="M63.4,80.8c-0.2-0.1-0.1,0,0,0.2l0.2,0.1L63.4,80.8z"/>
				<path class="st39" d="M64,80.6c-0.6-0.5-0.3-0.2-0.8-0.5c-0.2,0,0.2,0.4,0.1,0.5l0.3,0.3C63.9,81,64.2,80.9,64,80.6z"/>
				<path class="st62" d="M61,78.3c-0.3-0.1,0.1,0.3,0,0.3c0.1,0,0.2-0.1,0.3-0.1C61.2,78.3,61.1,78.3,61,78.3z"/>
				<path class="st39" d="M63,81.9c0.1-0.1,0.6,0.1,0-0.6c-0.2,0-0.3-0.2-0.5-0.2c-0.7-0.7,0.2,0,0.3-0.1c-0.2-0.1-0.5-0.4-0.5-0.5
					c0.3,0.1,0.3-0.2,0.4-0.3c-0.2-0.3,0.4-0.1-0.4-0.7c0-0.1,0.6,0.3,0.8,0.4c-0.8-0.9,1.9,0.9,1-0.1c0.5,0.3,0.5,0.2,0.5,0.2
					c0.1-0.1,0.3-0.3-0.6-0.8c-0.6-0.4,0.2,0.4-0.4,0.1c-1-0.5-0.3-0.4-1-1c0.1,0.1-0.6-0.4-0.4-0.1c-0.3-0.4-0.9-0.6-1.3-1
					c-0.6-0.2-0.6-0.2-1.6-0.9c0.1,0.2,0.8,0.7,1.2,1c0.3,0.4-0.6-0.2-0.5,0c-1.2-1-1-0.6-1.1-0.5c-0.1,0.1,1,0.8,0.8,0.9
					c-0.6-0.4-0.7-0.7-1.3-1.1l0.2,0.2c0.4,0.4,1,0.9,1.3,1.2c0,0,0,0.1-0.2-0.1c-0.2-0.2-0.6-0.5-0.9-0.7c0.2,0.2,0.2,0.2,0.4,0.4
					c1.4,0.9,0,0.2,0.7,0.8c0.9,1.1-1.6-1.1-1.2-0.4c1.1,0.8,0.5,0.6,0.8,1c-0.1,0-0.4-0.2-0.8-0.4c0.1,0.1,0.1,0.2,0.3,0.4
					C60.3,80.2,61.7,81.2,63,81.9C63.1,82,63.1,81.9,63,81.9z"/>
			</g>
		</g>
	</g>
</g>
<g class="st61">
	<g>
		<g>
			<g>
				<path class="st39" d="M75.5,69c-0.1-0.1,0.2-0.2,0.6,0.1l0.3,0.1C76.3,69.3,76.1,69.5,75.5,69z"/>
				<path class="st62" d="M73.7,68c0.2,0,0.2,0.1,0.4,0.2l-0.1,0.1C73.8,68.1,73.8,68,73.7,68z"/>
				<path class="st39" d="M70,65.7l-0.1,0C70,65.7,70.1,65.7,70,65.7c0.3,0.1,0.4,0.3,0.3,0.2C70.2,65.8,70.2,65.8,70,65.7z"/>
				<path class="st39" d="M74.7,67c-0.6-0.3-1.6-0.6-2.2-0.9l-1-0.5c0.5,0.2,0.3,0,0.3-0.1c-0.2-0.1-0.4-0.1-0.6-0.2
					c0.2,0.1,0.4,0.2,0.5,0.2c-0.3-0.2-1.1-0.5-0.8-0.5l0.5,0.2c0.1-0.3-0.7-0.8-0.2-0.8c-0.6-0.2-0.3-0.2-0.7-0.4l0.3,0.1
					c-0.6-0.2,0.2-0.1,0.1-0.1l0.3,0c0.6,0.1,0.2,0.2,1.1,0.3c0.5,0-0.8-0.3-0.1-0.3c0.2-0.1-0.2-0.1-0.4-0.2
					c-0.3-0.1-0.3,0-0.7-0.1c-0.2-0.2,1.6,0,1.5-0.2c-0.3,0-1-0.2-1.4-0.1l0.4,0.1l-0.4,0c0,0,0-0.1-0.4-0.1c1.3,0-1.2-0.3,0.7-0.1
					c-0.3,0.1-0.3,0.1,0.3,0.2c0.1-0.2,0.7-0.3,0.7-0.5l-0.6,0c0.6,0,0.9-0.1,1.1-0.2c-0.1,0-0.1-0.1-0.4,0c-0.3,0-0.2,0.3-1.2,0.2
					c0.2-0.2,0.7-0.4,1.5-0.6c0.1,0.1,0,0.1,0.8,0.2c0.8,0.3,0.2,0.7,1.1,1.2c-0.4,0-0.6,0.1-1,0c-0.3,0,0,0.1-0.5,0.1
					c0.6,0.3,0.2,0.6,0.1,0.8c1,0.1,0.6,0.3,1,0.4c-0.4,0-0.3,0.1-0.3,0.2c0.2,0.1,0.2,0.1,0.5,0.2C74.5,65,74.7,65,74.8,65
					c0.7,0.2-0.1,0.1-0.1,0.2L74.3,65c-0.1,0.2-1.3,0-0.7,0.3l0.7,0.1c0.3,0.3-0.8,0.2,0,0.6c0.3,0-0.2-0.4,0.8-0.1
					c0.5,0.2,0.4,0.3,0.2,0.3C74.3,66.3,76.1,67.3,74.7,67z"/>
				<path class="st39" d="M76.4,67.2c0.1-0.3-1.2-0.6-1-0.9c0.5,0.2,0.9,0.2,1,0.1c-0.3-0.2,0-0.2,0-0.3c0.1,0,0.7,0.2,0.7,0.3
					C76,66.4,77.5,67.3,76.4,67.2z"/>
				<path class="st62" d="M73.7,66.3c0-0.1,1.1,0.4,0.8,0.1c0.6,0.3,0,0.1,0,0.2l-0.3-0.2L73.7,66.3z"/>
				<path class="st39" d="M75.6,65.9c0-0.1,0.3-0.2,1-0.1c0.1,0,0.4,0.1,0.3,0C76.6,65.9,76.5,66.1,75.6,65.9z"/>
				<path class="st62" d="M72.9,65.4c-0.1-0.1-0.1-0.1-0.1-0.2C72.9,65.3,73.1,65.4,72.9,65.4z"/>
				<path class="st39" d="M74.4,65.4c-0.5-0.1-0.1-0.1-0.1-0.1l0.2,0C74.6,65.4,74.7,65.5,74.4,65.4z"/>
				<path class="st39" d="M76,65.1c0.2-0.1,0.6,0.3,0.7,0.1l0,0.1L76,65.2L76,65.1z"/>
				<path class="st39" d="M76.8,65c-0.2-0.1-0.2-0.1-0.1-0.2l0.3,0.1C77.1,65,76.8,64.9,76.8,65z"/>
				<path class="st39" d="M75,64.8c-0.2-0.1,0.2,0,0.4,0C75.6,64.9,75,64.9,75,64.8z"/>
				<path class="st39" d="M70.3,63.5c0.6,0.1,0.2,0.1,0.4,0.2C70.6,63.7,70.2,63.6,70.3,63.5z"/>
				<path class="st39" d="M75.4,70.2c-0.2-0.1-0.1,0.1,0,0.2l0.2,0.1L75.4,70.2z"/>
				<path class="st39" d="M76.2,69.6c-0.6-0.5-0.4-0.2-0.9-0.4c-0.2,0.1,0.2,0.5,0.1,0.6l0.3,0.3C75.9,70.2,76.3,70,76.2,69.6z"/>
				<path class="st62" d="M73.1,67.6c-0.3-0.1,0.1,0.3,0,0.4c0.1,0,0.2-0.2,0.3-0.2C73.3,67.6,73.2,67.6,73.1,67.6z"/>
				<path class="st39" d="M74.6,71.8c0.1-0.2,0.8,0,0.2-0.8c-0.2,0-0.4-0.2-0.6-0.1c-0.7-0.7,0.3-0.1,0.3-0.2
					c-0.2,0-0.5-0.4-0.5-0.6c0.3,0,0.4-0.3,0.5-0.5c-0.2-0.3,0.4-0.3-0.4-0.8c0-0.2,0.6,0.2,0.9,0.2c-0.4-0.4,0.1-0.3,0.6-0.2
					c0.5,0.1,1,0.2,0.5-0.3c0.5,0.3,0.5,0.1,0.6,0c0.1-0.1,0.3-0.5-0.7-0.8c-0.7-0.2,0.3,0.5-0.4,0.3c-1.2-0.3-0.3-0.5-1.2-0.9
					c0.1,0.1-0.6-0.2-0.4,0c-0.3-0.4-1-0.4-1.5-0.7c-0.6-0.1-0.6-0.1-1.7-0.6c0.1,0.2,0.9,0.6,1.3,0.8c0.4,0.4-0.7-0.1-0.5,0.1
					c-1.3-0.8-1.1-0.5-1.1-0.4c-0.1,0.1,1.1,0.8,0.9,0.9c-0.6-0.4-0.7-0.7-1.4-1l0.2,0.2c0.5,0.4,1,0.8,1.3,1.1c0,0,0,0.1-0.2,0
					c-0.2-0.2-0.6-0.5-0.9-0.7c0.2,0.2,0.2,0.2,0.4,0.4c1.4,0.9,0,0.2,0.6,0.9c0.8,1.1-1.5-1.1-1.2-0.5c1.1,0.9,0.4,0.7,0.7,1.1
					c-0.1,0-0.4-0.2-0.7-0.5c0.1,0.1,0.1,0.2,0.3,0.4C71.9,69.9,73.2,71.1,74.6,71.8C74.6,71.8,74.6,71.8,74.6,71.8z"/>
			</g>
		</g>
	</g>
</g>
<g class="st61">
	<g>
		<g>
			<g>
				<path class="st39" d="M30.9,56.8C30.9,56.8,30.9,56.8,30.9,56.8L30.9,56.8C30.9,56.8,30.9,56.8,30.9,56.8z"/>
				<path class="st62" d="M30.9,56.8L30.9,56.8L30.9,56.8C30.9,56.8,30.9,56.8,30.9,56.8z"/>
				<path class="st39" d="M26.5,49.4l-0.2-0.1c0.2,0.1,0.5,0.1,0.6,0c0.2,0.4,0.2,0.9-0.1,0.9C26.7,49.9,26.9,49.7,26.5,49.4z"/>
				<path class="st39" d="M28.3,56.5c1.4-0.2,3.4-0.5,4.7-0.9l2.3-0.3c-1.1,0.3-0.4,0.4-0.4,0.3c0.5-0.1,0.8-0.1,1.2-0.2
					c-0.3,0.1-0.9,0.2-1.1,0.2c0.6-0.1,2.4-0.5,1.9-0.3l-1.1,0.3c0,0.1,0.6,0,0.9-0.1c0.4-0.1,0.5-0.2,0.1,0c1-0.3,0.7-0.2,1.3-0.4
					l-0.6,0.1c0.9-0.2-0.2,0-0.1,0L37,55.3c-0.9,0.2-0.5,0.2-1.8,0.5c-0.7,0.1,1.3-0.4,0.4-0.2c-0.2,0,0.4-0.1,0.7-0.2
					c0.5-0.1,0.5-0.1,1.1-0.2c0.3-0.1-2.3,0.3-2.1,0.1c0.4-0.1,1.5-0.2,2.1-0.2l-0.5,0.1l0.6,0c0,0,0,0,0.6-0.1c-1,0.1-0.5,0-0.2,0
					c0.3,0,0.5,0-0.9,0c0.5,0,0.4,0-0.4,0.1c-0.2-0.1-1.1-0.2-1.2-0.2l0.9,0c-0.9,0-1.6-0.1-1.9-0.1c0.2,0,0.1,0,0.5,0
					c0.6,0,0.5,0.1,2.1,0.1c-0.4,0-1.4-0.1-3-0.2c-0.2,0,0.1,0-1.1-0.1c-0.5,0-0.3,0.1-0.3,0.2c0,0.2,0.1,0.3-0.8,0.6
					c0.4,0,0.7,0,0.9,0c0.2,0,0.4,0,0.7,0c0.4,0,0,0.1,0.8,0.1c-0.9,0.3-0.5,0.6-0.6,0.7c-0.8,0.2-1.1,0.3-1.2,0.3
					c-0.2,0.1-0.2,0.1-0.7,0.3c0.5-0.1,0.5-0.1,0.5-0.1c0,0-0.2,0.1-0.2,0.1c-0.4,0.1-0.5,0.2-1.1,0.3c0.3-0.1-0.1,0-0.3,0
					c-1.6,0.5,0,0.1,0,0.1l0.9-0.3c0,0,0.1,0,0.3-0.1c0.2,0,0.4-0.1,0.5-0.1c0.3-0.1,0.5-0.1-0.2,0l-1.2,0.4
					c-0.8,0.2,0.9-0.4-0.9-0.1c-0.4,0.3,0.9,0.1-1.1,0.6c-1,0.3-1.1,0.2-0.7,0c0.8-0.4,0.2-0.4-0.3-0.5c-0.2,0-0.5-0.1-0.4-0.2
					C27.3,56.8,27.6,56.7,28.3,56.5z"/>
				<path class="st39" d="M25.1,57.8c0.2,0.4,2.8-0.4,2.7-0.1c-1,0.2-1.8,0.6-1.8,0.7c0.6-0.1,0.3,0.1,0.3,0.1
					C26,58.6,24.8,59,24.7,59c1-0.3,0.6-0.4,0.2-0.5C24.6,58.4,24.2,58.2,25.1,57.8z"/>
				<path class="st62" d="M30.6,56.4c0.2,0.1-2.2,0.5-1.6,0.5c-1.3,0.2,0-0.1-0.1-0.2l0.7,0c0,0,0.2-0.1,0.5-0.1
					C30.4,56.5,30.6,56.4,30.6,56.4z"/>
				<path class="st39" d="M28,58c0.2,0-0.3,0.1-1.8,0.5c-0.1,0-0.8,0.3-0.6,0.2C26.1,58.6,26.2,58.6,28,58z"/>
				<path class="st62" d="M33,56.4c0.3,0,0.3,0,0.4,0C33.1,56.4,32.5,56.6,33,56.4z"/>
				<path class="st39" d="M30.7,57.2c1-0.3,0.3-0.1,0.4-0.1L30.7,57.2C30.3,57.3,30.1,57.4,30.7,57.2z"/>
				<path class="st39" d="M27.8,57.8c-0.4,0-1.5,0.5-1.6,0.4L26,58.3L27.8,57.8L27.8,57.8z"/>
				<path class="st39" d="M26.2,58c0.4-0.1,0.6-0.2,0.2-0.2L25.8,58C25.5,58.1,26.3,58,26.2,58z"/>
				<path class="st39" d="M30.3,57.1c0.4-0.1-0.5,0.1-0.8,0.2C28.9,57.4,30.1,57.2,30.3,57.1z"/>
				<path class="st39" d="M38.5,54.9c-1,0.2-0.4,0.1-0.7,0.2C38.1,55,38.4,54.9,38.5,54.9z"/>
				<path class="st39" d="M30.5,56.5C30.4,56.5,30.4,56.5,30.5,56.5L30.5,56.5L30.5,56.5z"/>
				<path class="st39" d="M30.8,56.8C30.9,56.8,30.8,56.8,30.8,56.8c-0.1-0.1-0.2-0.2-0.3-0.2l-0.1,0C30.6,56.5,30.8,56.7,30.8,56.8
					z"/>
				<path class="st62" d="M30.1,55.6c-0.5-0.5,0.1,0.5,0.1,0.5c0.2,0.1,0.3,0.1,0.3,0.1C30.3,55.9,30.2,55.7,30.1,55.6z"/>
				<path class="st39" d="M30.3,56.4C30.4,56.3,30.4,56.4,30.3,56.4C30.3,56.4,30.3,56.4,30.3,56.4c0,0,0,0-0.1,0c0.1,0,0,0,0,0.1
					c0,0,0,0,0-0.1l0,0C30.2,56.4,30.3,56.4,30.3,56.4L30.3,56.4c0.1,0,0.2,0.1,0.3,0.1c0.1,0,0.2,0.2,0.2,0.2
					c0.1,0.1,0.1,0.1,0.1,0.1c0,0,0,0,0-0.1l-1-0.9c-0.1,0.1-0.2,0.2-0.7,0.3c-0.2,0.1-0.3,0.1-0.3,0.1c-0.1,0-0.3,0.1-0.4,0.1
					c-0.2,0-0.3,0.1-0.5,0.1c-0.2,0-0.4,0.1-0.6,0.1c-0.5,0.1-1,0.2-1.5,0.3c-0.4,0.1-0.9,0.1-1.4,0.2c-0.3,0.1-0.7,0.1-1.2,0.2
					c0,0,0.1,0,0.1,0c0.1,0,0.3,0,0.6,0c0.3,0,0.7-0.1,1.2-0.2c0.7-0.1,0.5-0.2,0.3-0.2l-0.1,0l0,0c0,0-0.1,0,0.2,0
					c0.8-0.1,1.3-0.2,1.7-0.3c0.4-0.1,0.8-0.1,1.2-0.2c0.4-0.1,0.4-0.1,0.4-0.1c-0.4,0.1-0.6,0.1-0.8,0.2c-0.1,0-0.3,0.1-0.4,0.1
					c-0.1,0-0.1,0-0.2,0c0,0,0,0,0,0c0.1,0,0.1,0,0.2,0c0.2,0,0.5,0,0.9-0.1c-0.4,0,1.3-0.3,0.7-0.2c0.4,0,1-0.1,1.5-0.2
					c0.6-0.1,1.1-0.3,1.7-0.3c0.5-0.3,0.8-0.5,1.2-0.8c0.4-0.2,1-0.5,2-1.2c-0.7-0.7-2.2,0.3-3,0.6c-0.3,0-0.4-0.1-0.4-0.2l-2.4-0.7
					c-0.3-0.1-1.1-1-1.2-0.5c-0.6-1.4-1-1.8-1.5-1.7c-0.5,0.1-0.8,0.6-1.1,0.9c-0.8,0.7,1.7,2,1.1,2.5c-0.7-0.2-1-0.6-1.3-1.1
					c-0.3-0.5-0.5-1-1.4-1.1c0,0,0,0.2,0.1,0.4c0,0.2,0.1,0.4,0.1,0.4c0.8,0.9,2.1,1.8,2.8,2.3c0,0.2-0.1,0.4-0.5,0.3
					c-0.4-0.5-1.5-0.8-2.3-0.3c0.4,0.4,0.5,0.4,1,0.6c0.8-0.2,1.2-0.1,1.4-0.1c0.2,0.1,0.2,0.2,0.1,0.4c0,0,0,0.1-0.1,0.1l0,0.1l0,0
					l0,0l0,0l0,0l0,0.2l0,0l0,0c0,0,0,0,0,0c0,0,0,0.1,0,0.1c0.1,0.2,0.3,0.7,0.8,0.5c0.7,0.1,0.9,0.1,0.8,0.3
					c-0.1,0.2-0.5,0.6-0.8,1c-0.3,0.4-0.7,0.9-0.8,1.4c-0.1,0.4,0.1,0.8,0.8,0.8c0.2-0.7,0.5-1.1,0.7-1.3c0.2-0.2,0.4-0.2,0.6-0.2
					c0.4,0,0.9,0.2,1.2-0.4c0.4,0.1,0.7,0.8,1.6,1.4c0.1-0.4,0.5-0.8,0.2-1.3c-0.6-0.7-1.2-1.4-1.7-2.2l-0.1-0.2l0,0
					C30.2,56.7,30.2,56.5,30.3,56.4L30.3,56.4z"/>
			</g>
		</g>
	</g>
</g>
</svg>
