<?xml version="1.0" encoding="utf-8"?>
<!-- Generator: Adobe Illustrator 19.2.1, SVG Export Plug-In . SVG Version: 6.00 Build 0)  -->
<svg version="1.1" id="Layer_1" xmlns="http://www.w3.org/2000/svg" xmlns:xlink="http://www.w3.org/1999/xlink" x="0px" y="0px"
	 viewBox="0 0 72.2 48.8" style="enable-background:new 0 0 72.2 48.8;" xml:space="preserve">
<style type="text/css">
	.st0{fill:#FFFFFF;}
</style>
<path d="M48.5,19.5c0.1,0.5-0.1,1.4,0.3,1.7c0.7,0.6,0.1,1,0.2,1.4c0,1.1,0.2,2.3,0.2,3.4c0,0.6-0.3,1.1-0.5,1.7
	c-0.2,0.5-0.3,1-0.5,1.4c-0.3,0.6-0.7,1.2-1.1,1.8c0,0,0.3,0.3,0.5,0.5c-0.4,1-0.7,1.8-1.1,2.8c-0.9-0.3-1.8,0-2.7,0.3
	c-1.5,0.4-3.3,0-4.9,0c-2.6,0-5.2,0.1-7.8,0.2c-2.4,0.2-4.8,0.6-7.3,0.7c-2,0-4-0.3-5.9-0.6c-0.5-0.1-1-0.6-1.6-0.8
	s-1.3-0.3-2.1-0.4c1-0.4,1-1,0.2-1.6c0.3-0.3,0.6-0.5,0.9-0.8c-0.8-0.7-0.4-1.2,0.3-1.6c-1.8-3.2-1.8-3.2-0.6-3.9c0-1.5,0-2.8,0-4.2
	c0-0.5-0.3-1-0.2-1.4c0.5-1.7,2-2,3.5-2.2c1.4-0.2,2.8-0.1,4.2-0.3c2.5-0.4,5-1,7.5-1.4c2-0.2,4-0.4,6-0.5c1.5-0.1,3-0.1,4.5,0
	c1.1,0.1,2.1,0.5,3.2,0.8c0.2,0.1,0.4,0.2,0.6,0.2c1.5-0.3,2.1,0.9,3,1.8C47.6,19,48,19.1,48.5,19.5z"/>
<g>
	<path class="st0" d="M69.9,24c-0.1-0.1-0.1-0.4-0.1-0.6c-0.2-1-0.5-2-1.1-1.9c-0.3,0.1-0.6-0.1-0.9-0.4c-0.4-0.3-0.7-0.8-1-1.4
		c-0.2-0.3-0.2-0.8-0.4-0.8c-0.2,0.1-0.4-0.1-0.6-0.1c-0.5-0.3-1.2-0.2-1.6-1.2c-0.1-0.4-0.4-0.3-0.6-0.5c-0.3-0.2-0.5-0.2-0.8-0.4
		c-0.9-0.4-1.7-0.7-2.5-1c-1.2-0.3-2.4-0.6-3.6-0.7c-2-0.3-3.9-0.6-5.9-0.8c-0.1,0-0.2,0-0.3,0c-0.3,0.6-0.7,1.2-1.2,1.6
		c0.4,1.1,0.4,2.3-0.1,3.4c0.4,0.1,0.8,0.1,1.2,0.2c2.5,0.3,5,0.5,7.5,0.8c0.7,0.1,1.4,0.3,1.9,1.3c0.1,0.1,0.2,0.1,0.3,0.2
		c1.1,0.5,2.1,1.1,3.2,1.5c0.8,0.4,1.3,1.7,2.4,0.7c0.2-0.2,0.4,0.3,0.6,0.6c0.5,0.6,0.9,1.2,1.3,1.8c0.1,0.1,0.2,0.2,0.2,0.4
		c0.1,0.3,0.2,0.7,0.1,1c0,0.2-0.3,0.7-0.4,1c-0.3,0.3-0.6,0.7-0.9,1c-0.7,0.7-1.4,1.3-2,1.9c-0.3,0.3-0.6,0.3-1,0.5
		c-1.6,0.8-3.1,1.6-4.6,2.2c-0.9,0.4-1.7,0.4-2.5,0.6c-1.2,0.2-2.5,0.9-3.7,1c0,0,0,0-0.1,0c-0.9,0.1-1.7,0.2-2.6,0.3
		c-0.4,0.1-0.8,0.2-1.2,0.2c-0.3,0.1-0.7,0.4-1,0.5c-0.5,0.1-0.9-0.1-1.4-0.1c-0.4,0.1-0.9-0.4-1.4,0.6c-0.2,0-0.3,0.1-0.4,0.1
		c-0.2,0.1-0.5,0.3-0.7,0.2c-0.3-0.5-0.7,0-1,0.1c-0.1,0-0.3,0.3-0.3,0.2c-0.3-0.7-0.8-0.2-1.3,0c-0.6,0.1-1.1,0.4-1.7,0.4
		c-0.4,0.1-0.7-0.2-1-0.1c-0.3,0.1-0.6,0.4-0.9,0.5c-1.1,0.2-2.1,0.4-3.1,0.5c-0.4,0.1-0.8,0-1.2,0.1c-1,0.1-2,0.4-3,0.5
		c-0.4,0.1-0.8-0.5-1.1,0.1c-0.4,0.7-0.6,0.1-0.8,0.3c-0.5,0.3-0.9-0.2-1.3,0c-0.1,0.1-0.2,0-0.3,0c-0.6-0.1-1.1-0.3-1.7-0.3
		c-0.5-0.1-1,0.1-1.6,0.2c-0.3,0-0.7-0.2-1-0.3c-0.8,0-1.5,0.2-2.3,0.1c-0.5-0.1-1.1-0.3-1.6-0.5c-2.2-0.5-4.5-1.1-6.7-2.1
		c-1.4-0.7-3-1-4.3-2.3c-0.9-0.9-1.7-2.1-2.1-4.4c-0.1-0.5-0.1-0.9,0.1-1.5c0.7-2.2,1.6-3.6,2.4-4.6c1.3-1.7,2.7-2.9,4-4.4
		c0.5-0.6,1-1,1.4-1.3c1-0.8,1.9-1.5,2.9-2.3c1.4-1.1,2.7-2.2,4.1-3c1.4-1,2.8-1.5,4.2-2.2c0.6-0.3,1.3-0.7,1.9-0.9
		C28.2,9.9,29.6,9.5,31,9c1.2-0.3,2.4-0.7,3.6-0.9c1.2-0.2,2.3-0.2,3.5-0.3c1.4-0.1,2.9-0.3,4.3-0.2c2.4,0.1,4.8,0.2,7.2,0.4
		c0.2,0,0.3,0,0.5-0.2c0.1-0.1,0.3-0.6,0.4-0.8c0.1-0.9,0.2-1.7,0.3-2.6c0.1-1.1,0-1.8-0.4-1.8c-0.9-0.1-1.8-0.4-2.7-0.5
		c-2,0-4,0.1-6,0.2c-1.6-0.1-3.2,0-4.8,0.3c-1.6,0.3-3.3,0.8-4.9,1.3C31,4.1,30,4.4,29,4.7c-2.2,0.9-4.4,1.7-6.7,2.9
		c-3.1,1.7-6.1,4-9.2,6.8c-1.8,1.7-3.6,3.3-5.5,5.6c-0.9,1.1-1.8,2.5-2.6,4.6c-0.7,1.7-1.2,3.5-1.4,5.7c-0.3,3.4,0,5.4,0.7,7
		c1.3,3.1,3.1,4.3,4.8,5.4c1.1,0.8,2.3,0.9,3.4,1.3c1.1,0.4,2.2,0.8,3.3,1.1c0.5,0.2,1.1,0,1.7,0.1c1.5,0.1,3,0.3,4.6,0.3
		c1.4,0.1,2.9,0,4.3-0.1c1.4-0.1,2.8-0.1,4.3-0.3c1.4-0.2,2.9-0.4,4.3-0.6c1.3-0.2,2.5-0.3,3.7-0.5c0.4-0.1,0.8-0.4,1.1-0.5
		c1.1-0.2,2.2-0.2,3.3-0.6c1.9-0.4,3.8-1,5.6-0.9c0.3,0,0.6,0,0.9-0.3c1.1-0.5,2.3-1.2,3.4-1.3c2.4-0.3,4.9-1.5,7.3-2.3
		c0.9-0.3,1.8-0.8,2.6-1.2c0.1,0,0.2-0.1,0.3-0.2c0.4-0.3,0.9-0.8,1.4-1.1c0.8-0.5,1.6-1.2,2.4-1.6c0.5-0.3,1-0.5,1.5-1.4
		c0.3-0.6,0.7-1.3,0.8-2C70,28.2,70.4,25.7,69.9,24z"/>
	<path d="M69.9,24c0-0.3,0-0.5-0.1-0.6c-0.2-1-0.5-2-1.1-1.9c-0.3,0-0.6-0.1-0.9-0.4c-0.3-0.3-0.7-0.8-1-1.4
		c-0.1-0.4-0.2-0.9-0.4-0.8C66.3,19,66,19,65.9,18.9c-0.5-0.3-1.2-0.2-1.6-1.2c-0.1-0.4-0.4-0.3-0.6-0.5c-0.3-0.2-0.5-0.2-0.8-0.4
		c-0.9-0.4-1.7-0.7-2.5-1c-1.2-0.3-2.4-0.6-3.6-0.7c-2-0.3-3.9-0.6-5.9-0.8c-0.1,0-0.2,0-0.3,0c-0.3,0.6-0.7,1.2-1.2,1.6
		c0.4,1.1,0.4,2.3-0.1,3.4c0.4,0.1,0.8,0.1,1.2,0.2c2.5,0.3,5,0.5,7.5,0.8c0.7,0.1,1.4,0.3,1.9,1.3c0.1,0.1,0.2,0.1,0.3,0.2
		c1.1,0.5,2.1,1.2,3.2,1.5c0.8,0.2,1.3,1.7,2.4,0.7c0.2-0.2,0.4,0.3,0.6,0.6c0.5,0.6,0.9,1.2,1.3,1.8c0.1,0.1,0.2,0.2,0.2,0.4
		c0.1,0.3,0.2,0.7,0.1,1c0,0.4-0.2,0.7-0.4,1c-0.3,0.5-0.6,0.7-0.9,1c-0.7,0.7-1.3,1.3-2,1.9c-0.4,0.3-0.6,0.3-1,0.5
		c-1.5,0.7-3.1,1.5-4.6,2.2c-0.9,0.4-1.7,0.4-2.5,0.6c-1.2,0.2-2.5,0.9-3.7,1c0,0,0,0-0.1,0c-0.9,0.1-1.7,0.2-2.6,0.3
		c-0.4,0.1-0.8,0.2-1.2,0.2c-0.3,0.1-0.7,0.4-1,0.5c-0.5,0.1-0.9-0.1-1.4-0.1c-0.4,0.1-0.9-0.4-1.4,0.6c-0.2,0-0.3,0.1-0.4,0.1
		c-0.2,0.1-0.5,0.4-0.7,0.2c-0.3-0.5-0.7-0.1-1,0.1c-0.1,0-0.3,0.3-0.3,0.2c-0.3-0.7-0.9-0.1-1.3,0c-0.6,0.1-1.1,0.4-1.7,0.4
		c-0.3,0.1-0.6-0.2-1-0.1c-0.3,0.1-0.6,0.4-0.9,0.5c-1,0.2-2.1,0.4-3.1,0.5c-0.4,0.1-0.8,0-1.2,0.1c-1,0.1-2,0.4-3,0.5
		c-0.4,0.1-0.8-0.5-1.1,0.1c-0.4,0.7-0.6,0.1-0.8,0.3c-0.5,0.3-0.9-0.4-1.3,0c-0.1,0.1-0.2,0-0.3,0c-0.5-0.2-1.1-0.3-1.7-0.3
		c-0.5,0.1-1.1,0.2-1.6,0.2c-0.3,0-0.7-0.2-1-0.3c-0.7-0.1-1.5,0.2-2.3,0.1c-0.5-0.1-1.1-0.3-1.6-0.5c-2.2-0.7-4.5-1.2-6.7-2.1
		c-1.5-0.6-2.9-1-4.3-2.3c-0.9-1-1.7-2.1-2.1-4.4c-0.1-0.4-0.1-0.8,0.1-1.5c0.7-2.2,1.6-3.6,2.4-4.6c1.3-1.6,2.7-2.9,4-4.4
		c0.5-0.4,0.9-0.9,1.4-1.3c1-0.9,1.9-1.5,2.9-2.3c1.4-1.1,2.7-2.2,4.1-3c1.4-0.8,2.8-1.5,4.2-2.2c0.6-0.3,1.3-0.7,1.9-0.9
		C28.2,9.8,29.6,9.5,31,9c1.2-0.3,2.4-0.7,3.6-0.9c1.2-0.2,2.3-0.2,3.5-0.3c1.5-0.2,2.9-0.4,4.3-0.3c2.4,0.1,4.8,0.2,7.2,0.4
		c0.2-0.1,0.3,0,0.5-0.2c0.1-0.1,0.3-0.5,0.4-0.8c0.1-0.9,0.3-1.7,0.3-2.6c0.1-1.1,0-1.8-0.4-1.8c-0.9-0.2-1.8-0.5-2.7-0.5
		c-2,0-4,0.1-6,0.2c-1.6,0.1-3.1,0.1-4.7,0.4C35.3,2.9,33.7,3.4,32,4c-1,0.3-2,0.5-3.1,0.9c-2.2,0.9-4.4,1.6-6.7,2.9
		c-3,1.8-6.1,3.9-9.2,6.8c-1.8,1.7-3.6,3.2-5.5,5.6c-0.9,1.1-1.8,2.5-2.6,4.6c-0.7,1.7-1.2,3.5-1.4,5.6c-0.3,3.4,0,5.4,0.7,7
		c1.3,3.1,3.1,4.3,4.8,5.4c1.1,0.6,2.2,0.9,3.4,1.3c1.1,0.4,2.2,0.8,3.3,1.1c0.5,0.2,1.1,0,1.7,0.1c1.6,0.1,3.1,0.3,4.6,0.3
		c1.4,0.1,2.9,0,4.3-0.1c1.4-0.1,2.8-0.1,4.3-0.3c1.4-0.1,2.9-0.4,4.3-0.6c1.2-0.1,2.5-0.3,3.7-0.5c0.4-0.1,0.8-0.4,1.1-0.5
		c1.1-0.2,2.2-0.3,3.3-0.6c1.9-0.4,3.8-1,5.6-0.9c0.3,0,0.6-0.2,0.9-0.3c1.1-0.5,2.3-1.2,3.4-1.3c2.4-0.3,4.9-1.5,7.3-2.3
		c0.9-0.3,1.8-0.8,2.6-1.2c0.1-0.1,0.2-0.1,0.3-0.2c0.4-0.3,0.9-0.8,1.4-1.1c0.8-0.5,1.6-1.1,2.4-1.6c0.5-0.3,1-0.5,1.5-1.4
		c0.3-0.6,0.7-1.3,0.8-2C70,28.2,70.4,25.9,69.9,24z"/>
</g>
</svg>
