<?xml version="1.0" encoding="utf-8"?>
<!-- Generator: Adobe Illustrator 19.2.1, SVG Export Plug-In . SVG Version: 6.00 Build 0)  -->
<svg version="1.1" id="Layer_1" xmlns="http://www.w3.org/2000/svg" xmlns:xlink="http://www.w3.org/1999/xlink" x="0px" y="0px"
	 viewBox="0 0 100 100" style="enable-background:new 0 0 100 100;" xml:space="preserve">
<style type="text/css">
	.st0{enable-background:new    ;}
</style>
<g>
	<path d="M20.1,52.2c0.3,0.3,1.9,2.8,2.2,3.2c0.6,0.9,2.9,3.2,3.5,4.1c0,0,1.1,1.9,1.1,2c0.6,1.3,0.6,1,1.5,2.3
		c0.6,0.8,1.9,2.7,3,3.5c1.9,1.5,2.5,2.8,4.4,4.2c0.5,0.3,1.9,1.3,2.7,1.6c1.3,0.6,1.7,0.8,3.3,1.3c0.8,0.2,1.9,0.6,2.9,0.8
		c0.5,0.1,4.3,0.8,5.1,0.7c0.8,0,3.6-0.6,4.1-0.8c0.5-0.1,1.1-1.2,1.3-1.3c1-0.6,1.8,0.7,2.8,0c0.5-0.3,3.5-2,4.3-3.3
		c0-0.1,4-2.4,4.3-2.5c1.8-0.8,4.6-3.6,4.5-4.4c-0.1-2.7,0.1-12.7,0.1-13.2c-0.2-0.6,1-2.3-1.5-3.4c-1.9-0.9-5.2-2.7-3-2.8
		c0,0,0,0,0.1,0c2.1-0.1,2.6,0.1,2.9,0.3c0.5,0.4,0.6,0.8,1.1,1.2c2.5,2.2,3.6,4.5,4,6.8c0.4,2.2,0.2,4.3,0.3,6.5
		c0.1,1.3-0.1,2.7-0.3,4c-0.2,1-0.7,2-1.2,3c-0.2,0.3-0.2,0.6-0.5,0.9s0,0.6-0.8,0.8c-2.1,0.7-1.5,1.4-2,2.1c-0.3,0.2-0.2,0.5,0,0.7
		c0.3,0.2-0.8,0.4-1.6,0.7c-1,0.5-2.1,1-2.6,1.4s-0.5,0.7-0.5,1.1c0.3,0.6-1.5,1.1-3.6,1.7c-0.3,0.1-0.8,0.2-1.3,0.3
		c-3.6,0.9-8.6,1.2-13.6,1.3c-1.6,0-3.2-0.2-4.5-0.4c-2.1-0.3-2.7-0.7-3.5-1.2c-1.3-0.7-2.7-1.4-4-2.1c-0.8-0.4-1.9-0.8-2.7-1.2
		c-0.3-0.1-0.3-0.2-0.5-0.2c-1.1-0.9-2.4-1.7-3.3-2.5c-2.5-2.4-5.7-4.7-7.2-7.2c-0.6-1.1-2.5-2.2-3.8-3.3c-0.3-0.3-0.8-0.6-0.8-0.9
		c-0.4-2-2.3-3.9-3.7-5.8c-0.8-1.1-1.4-2.3-2.3-3.4c-0.3-0.4-1.1-0.7-1.4-1.1c-0.8-1.3-1.7-2.5-2.3-3.9c-0.9-1.5-2-3-2.6-4.4
		c-0.9-1.5-1.5-3-2-4.5c-0.6-1.5-1.2-3.1-1.5-4.6c-0.3-1.7-0.4-3.3-0.8-5c0-0.6-0.6-1.2-0.3-1.8c0.2-1.3,0.7-2.6,1.1-3.9
		c0.5-1.4,0.7-2.7,1.7-4c1.7-2.2,3.8-4.4,9.7-6.6c3.1-1.1,7.3-2,14.4-2.6C31.4,6,35.4,6,39.1,6.3c4.5,0.3,7.7,0.9,10.3,1.6
		c5.6,1.3,9.3,2.9,13.4,4.4c7,2.6,12.4,5.3,17,8.1c3.5,2,5.7,4.2,8.2,6.3c1.1,1,1.9,2.1,2.8,3.1c1.7,1.6,3.3,3.3,4.4,4.9
		s1.7,3.3,2.3,5c0.9,2.1,1.8,4.2,2.4,6.3c0.3,1,0.1,2-0.1,3c0,0.4-2-0.5-2.3-0.7c-0.4-2.6-3.6-4.9-4.3-7.5c-0.3-1.4-3.2-6.2-4-7.7
		c-0.6-1.2-4.7-4.4-5.6-5.6c-0.8-1.3-4.3-3.5-5.4-4.7c-1.4-1.4-5.8-2.3-7.5-3.7c-0.6-0.6-5.4-2.6-6.2-3.2c-1.9-1.3-4.6-1.5-6.8-2.8
		c-2.2-1.2,1.1-0.4-1.6-1.6c-1.9-0.8-1.9-0.5-4.1-1.3c-1.1-0.4-5.8-1.4-6.8-1.7c-3.5-1-6.1,0-9.8-1C33,6.8,32,8,27.2,7.8
		c-1.6-0.1-2.9,0.6-3.7,0.8c-4.7,1.1-10.6,2.8-12.4,4c-2.3,1.8-3.5,5.3-4.2,7c-1.2,2.6,0.9,5.4,0.2,8C6.9,28.2,8,31.9,8,32.5
		c0,0.8,1.9,4.7,1.9,5.6c0,0.4,3.2,4.3,3.2,4.7C13.2,43.4,19.9,51.7,20.1,52.2z"/>
</g>
<g class="st0">
	<path d="M40.1,25.6l0.3-0.9l0,0l0-0.1l0-0.1l-0.1-0.1l0.1-0.1l0.1-0.4l0.1-0.2l0-0.1l0.2-0.8l0.1-0.1l0-0.1l0.1-0.2l0-0.1l0.2-0.2
		l0-0.1l0.1-0.3l0-0.1l0.1-0.2l-0.1,0.1l0.1-0.2l0-0.2l0.1,0l0-0.1l0.1,0l0-0.2l-0.1,0l0.1-0.2l0.2,0l0.1-0.2l0.1-0.3l0.1-0.5l0-0.2
		l0.1-0.6L42,19l0,0.2L41.9,19l-0.1,0l0.3-1.2l0.1-0.6l0-0.1l0.1,0l0-0.1l-0.1,0l0.2-0.4l-0.1,0l0.1-0.2l0.1-0.3l-0.1,0l-0.1,0.2
		l0-0.1l0.1-0.3l-0.1-0.1l-0.1,0.1l0.1,0l-0.1,0.3l-0.1,0.2L42,16.5l-0.1,0.1l0-0.1l0.1-0.4l-0.1,0l0,0.2l-0.1,0.1l0.1,0.2l-0.1,0.4
		l-0.2,0.1l-0.1,0l0.1-0.2l0.1,0l0.1-0.3l-0.2,0l0-0.1l0,0.1l0,0.1l-0.2,0.1l0-0.1l-0.2,0.2l0,0.2l0.1,0.1l-0.1,0.1l-0.1,0.3l-0.1,0
		l-0.1,0.3l-0.1,0l0,0.1l0.1,0l0,0.2l-0.1,0l0-0.1l-0.1,0.1l0,0.2l-0.2,0.3l0.1,0.2l-0.2,0.2l0,0.2l0.1,0.2l0,0.1l-0.1,0.1l0,0.2
		l-0.1,0.1l0.1,0.1l0.1-0.3l0.2,0l0-0.2l0-0.2l0.1-0.1l0-0.1l-0.1,0.1l0-0.1l0.2-0.4l0.1-0.1l0-0.2l-0.1,0l0.3-0.4l0.1,0l0.1-0.4
		l0.1,0l0-0.2l0,0l0-0.1l0.1-0.1l-0.1,0.5l-0.1,0l-0.1,0.3l0.1,0l0.1,0l-0.1,0.3l0-0.1l0,0.2l-0.1,0l0-0.1l-0.1,0l0-0.1l0-0.1l0,0.1
		l-0.2,0.3l-0.1,0l0,0.1l0.1,0l0,0.2l0,0.1l-0.1,0.1l-0.2,0.2l-0.1,0l0,0.1l0.1,0.1l0,0.3L40.4,20l0,0.2l-0.2,0.5l0,0.2L40,21.2
		l-0.1,0.2l-0.1,0.1l-0.1,0.2l-1.2,2.5l-0.1,0.1l0,0.1l-0.5,0.1l-0.4,0l-0.2,0l-0.1,0l-0.4,0l-0.4,0.1l-0.1-0.1l-0.1,0l-0.5-0.2
		l0.2,0l0.1,0l0-0.1l-0.4-0.1l0-0.1L35.7,24l0.1-0.1l-0.1-0.2l0-0.1l0.1-0.3l0-0.5l0-0.1l0.1-4.8l-0.3,0.4l-0.2,0.5l-0.6,0.9l0,0.1
		L34,21l-0.4,1l0,0.3l0.1,0.2l0,0.2l-0.1,0.1l-0.5,0l-0.5-0.1L32,22.4l-1.1-0.1l-0.6-0.2L30.2,22l0-0.6l0.2-0.3l1.7-2.9l0.9-1.4
		l0-0.1l0.6-0.8l0.6-0.9l1.9-2.7l0.8-0.7l0.4-0.2l0.4,0.1l0.5,0.4l0,0.2l0.2,0l0.2,0.2l0.1,0.1l0.1,0l0.1,0.2l-0.1,0.1l0.1,0l0,0.1
		l0.1-0.1l0.1,0.1l0.1,0.3l0.1,0l0,0.1l0.1,0l-0.1,0.2l0,0.3l-0.1,0.4l0,0.3l-0.3,1.1l0,0.1l0,0.1l-0.1,0.4l0,0.3l-0.2,0.2l0,0.1
		l0.1-0.1l0.1,0l-0.2,0.6l0,0.1l-0.1,0.1l-0.1,0l-0.1,0.4l0,0.1l0.2-0.1l0.5-0.6l0.2-0.3l0.9-1l0.2-0.2l0.1,0l0.2-0.2l0-0.1l0.3-0.3
		l0.2-0.1l0.5-0.6l0.1,0l0.2-0.2l0.2-0.2l0.1,0l0.2-0.2l0.2-0.2l0.2-0.2l0.1,0l0.2-0.2l0.1,0l-0.1,0.1l0.2-0.1l0,0.1l0.1,0.1
		l0.1-0.1l0-0.3l0.1,0l-0.1,0l0,0.1l0.2,0l0-0.1l0.1-0.1l0,0.2l0.1,0l0-0.1l0.1,0.2l0,0.1l0,0.3l0.2,0l0.1-0.2l0.1,0.2l-0.1,0.1
		l0.1,0l-0.3,0.3l0,0.1l0.1-0.1l0.1,0l0.2-0.1l0,0l-0.2,0.1l0,0.1l0.1,0l0.1-0.1l0.1,0.1l0-0.1l0.1,0l-0.1,0.2l-0.2,0l-0.1,0.1
		l0.2,0.1l-0.2,0.1l-0.1,0l0.1,0.1l0.1-0.1l-0.1,0.3l0,0.1l0,0.1l-0.1,0l0,0.1l0.1,0l0.1-0.2l0,0.1l0-0.2l0.1-0.1l0.1,0.1L44.8,15
		l0.1,0l0,0.1l-0.2,0.3l0.1,0.2l0,0.1l0.1,0l0,0.2l0.1,0l-0.1,0.2l0.1,0l0,0.2l-0.1,0.1l0,0.1l-0.1,0.2l0,0.2l-0.1,0.3l-0.1,0.1
		L44.5,18l-0.1,0.2l-0.2,0.1l-0.1,0.2L44,18.5l0-0.1l0.1,0l0.1-0.3l0.2-0.1l0.1-0.2l-0.2-0.1l-0.1,0.1l0,0.1l0.1-0.1l0.1,0.1
		L44.1,18l0,0.2l-0.2,0.1l-0.1,0.2l0,0.2l0.2-0.1l0.1,0.1l-0.1,0.1l0,0l-0.1,0l-0.1,0.3l-0.1,0.1l0.1,0.2l0.2-0.2l0.1-0.1l0.1-0.3
		l-0.2,0.6l-0.2,0.1l0,0.1l-0.1,0L43.4,20l0.2,0l-0.1,0.3l0,0l-0.1,0.2l-0.1,0.1l0,0.1l0.3-0.2l0.1-0.1l0,0.2l-0.2,0.1l0,0.1
		l0.1,0.1l-0.1,0l0,0.1l-0.1,0.1l-0.1,0.2l0,0.1l-0.1,0l-0.2,0.3l0,0.1l0.1,0l0.2-0.1l0,0.1L43,21.8l-0.1,0l0,0.1L42.8,22l-0.2,0.4
		l-0.1,0.2L42.3,23l0.1,0.1l0.1-0.5l0.2-0.1l0.1-0.3l0.1,0l0.1-0.2l0.1,0.1L43,22l0.1,0.1l0,0.2l0.1,0.1l0.1,0l0-0.2l0.1,0l0-0.1
		l0.1-0.1l-0.1-0.3l0.1,0l0.3-0.3l0,0.1l0,0.1l0,0.1l-0.2,0.1l0.2-0.1l0,0.1l-0.2,0.3l0,0.1l-0.1,0l0,0.1l0.1,0.1l-0.2,0.1l-0.1,0.1
		l-0.2,0.1L43,22.9l0.2,0.1l0.2-0.3l0.2-0.1l0.2-0.3l0.1,0l0,0.1l-0.1,0.1l0,0.2l-0.2,0.1l-0.1,0.2l0,0.2l-0.2,0l0,0.2l-0.2-0.1
		l0,0.3l-0.1,0.2l0.1,0l0.2-0.3l0.1-0.1l-0.1,0.2l-0.4,0.3l-0.1,0.1L42.6,24l0,0.1l0.1-0.1l0.1,0l0-0.2l0.1-0.1l0.1,0.1l0.1-0.3
		l0.2-0.2l0.1-0.3l-0.1,0.4l-0.1,0.1l-0.2,0.4L43,23.9l-0.1,0.3l-0.1,0.1l0,0.2l-0.1,0l0,0.1l0.1-0.1l0,0.1l0.1,0.1l-0.1,0.1
		l-0.2,0.2l-0.1,0.3l-0.1-0.1l-0.1,0.1l-0.1,0l-0.1,0.2l0.1,0l-0.2,0.2l0-0.1l-0.2,0.1l-0.2,0.1l0.1-0.5l-0.2,0.1l0,0.1l-0.1,0.2
		l0-0.2l-0.1,0L41,25.6l0.1-0.1l-0.1,0l0.1-0.2l-0.2,0.1l0-0.1l-0.3,0.2l-0.1-0.1l-0.1,0l0,0.1l-0.1,0.1l0-0.1l-0.1,0.1l0,0.1
		L40.1,25.6L40.1,25.6z M38.8,21.2L38.8,21.2l0.1-0.2l-0.1,0L38.8,21.2z M38.9,21.4l0-0.2L38.9,21.4L38.9,21.4z M39.2,19.8l0.1,0
		l0.1,0l0-0.1L39.2,19.8L39.2,19.8z M39.2,20L39.2,20l0.1-0.1l-0.1,0L39.2,20z M39.2,19.5l0.1-0.1l0-0.2l-0.1,0.1L39.2,19.5z
		 M39.3,20.6l0.1,0l0.2-0.4l0-0.1l-0.1,0.1l-0.1,0.2l-0.2,0L39.3,20.6z M39.6,18.5L39.6,18.5l0.3-0.2l0.1-0.2l0-0.1l-0.1,0.3
		l-0.2,0.1L39.6,18.5z M39.7,20.1L39.7,20.1l0.1-0.2l0.2-0.3l0-0.2l0-0.2l0.4-0.5l0-0.1l0.1-0.5l0.1-0.1l0.1-0.2l-0.1,0.2l-0.1,0
		l-0.1,0.3l-0.1,0.2L40,19.1l-0.2,0.3l0,0.4l-0.2,0.2l0.1,0.1L39.7,20.1z M39.9,20.4L39.9,20.4l0.1,0L39.9,20.4l0.1-0.2l-0.1,0
		L39.9,20.4z M40.1,16.8L40.1,16.8l0.2-0.3L40.1,16.8z M40.3,16.1l0.1,0l0-0.2L40.3,16.1z M40.4,25.8L40.3,26L40.4,25.8L40.4,25.8z
		 M40.3,17.7l0.1-0.1l0.2-0.2l0-0.2l0.1-0.2l0.1-0.3L40.5,17l-0.1,0.2l0,0.2L40.3,17.7z M40.4,16l0.2-0.2l0-0.2l-0.1,0.2L40.4,16z
		 M40.6,19.1l0.2-0.1l0.1-0.1l-0.1,0l-0.1-0.1L40.6,19.1z M40.7,19.4L40.7,19.4l0.1,0l0.1,0l-0.1,0.1l-0.1,0.2l-0.1,0l0-0.1
		L40.7,19.4z M40.9,16l0.1-0.3L40.9,16L40.9,16z M40.9,18.5L40.9,18.5l0.1-0.1L40.9,18.5L40.9,18.5z M40.9,17L40.9,17l0-0.2
		l-0.1,0.1L40.9,17z M41.1,18.7L41.1,18.7L41.1,18.7L41.1,18.7l0.2-0.1l0.2,0l-0.2,0.1l0,0.1L41,19l0.1,0.2l-0.2,0.2L41,19
		L41.1,18.7z M41,15.5l0.3-0.4l-0.2,0.1l-0.1,0l0,0.1L41,15.5L41,15.5z M41,24.7L41,24.7L41,24.7L41,24.7z M41.2,24.8l0.1-0.2
		l-0.2,0.1L41.2,24.8z M41.1,18.3L41.1,18.3l0.1-0.1L41.1,18.3z M41.2,25.1l0.1-0.1l0.1-0.2l-0.1,0L41.2,25.1z M41.2,16.5l0.1,0
		l0.1-0.2l-0.1,0L41.2,16.5z M41.3,25.2l0.2-0.1L41.4,25l-0.1,0.1L41.3,25.2z M41.4,24.4l0.2,0l0.1-0.2l0.1-0.2l0-0.1l0.1-0.2
		l0.1,0.1l0.2-0.1l0.1-0.5l0,0l0-0.2l0-0.2L42,23.2l-0.1,0.3l-0.2,0.4l0.1-0.3l-0.2,0.1L41.5,24l-0.1,0l0,0.1l-0.1,0l0,0.1l0.2-0.1
		l0.1,0.1l-0.2,0.1l0.1,0.1L41.4,24.4L41.4,24.4z M41.5,18.5l-0.1,0.1l-0.1,0l0-0.1L41.5,18.5z M41.4,17L41.4,17l0-0.1L41.4,17z
		 M41.6,17.8l0,0.2l-0.2,0L41.6,17.8L41.6,17.8z M41.4,15.5L41.4,15.5l0.1-0.1L41.4,15.5L41.4,15.5z M41.6,16.4L41.6,16.4l0-0.2
		l0.2-0.2l-0.1,0l-0.1,0.2l0,0.2l-0.1,0.1L41.6,16.4z M41.4,24.9l0.1,0l0.1-0.1l0.2,0l0.2-0.4l0.2-0.3l0.2-0.1l0.1-0.2L42.3,24
		l-0.4,0.3l0-0.1l-0.1,0.1l-0.1,0.4l-0.1,0l-0.2,0.2L41.4,24.9L41.4,24.9z M41.6,25.2l0.1-0.1l0-0.1L41.6,25.2L41.6,25.2z
		 M41.6,18.3l0,0.1L41.6,18.3L41.6,18.3L41.6,18.3z M41.7,19.6L41.7,19.6l-0.1,0.1L41.7,19.6z M41.8,17.2l0.1-0.2l0,0.1l-0.1,0.2
		l-0.1,0.3l-0.1,0l0.1,0L41.8,17.2z M41.6,24.4L41.6,24.4l0.2-0.1L41.6,24.4l0-0.1L41.6,24.4z M41.8,17.8l0,0.2l-0.1-0.1L41.8,17.8z
		 M41.7,18.2L41.7,18.2l0-0.1L41.7,18.2z M41.7,24.1L41.7,24.1l0.3-0.1l0.1-0.1l-0.1,0L42,23.9L41.7,24.1z M41.8,23.4l0.1-0.2l0,0
		L41.8,23.4z M41.9,14.7l0.1,0L41.9,14.7L41.9,14.7z M41.9,16l0-0.1L41.9,16L41.9,16z M42,22.8l0.2-0.1l0-0.2l-0.1,0.1l0,0.1
		L42,22.8L42,22.8z M42.3,25.4L42.3,25.4l-0.2,0l0-0.1L42.3,25.4z M42.2,23.6l0.1,0l0.1-0.3l-0.1,0l0,0.2L42.2,23.6z M42.2,18.5
		L42.2,18.5l0.1-0.2L42.2,18.5z M42.2,22.3l0.1-0.2l0.1-0.3l0.1-0.1l0-0.2l0.1-0.1l0-0.2l-0.2,0.2l-0.2,0.4l0,0.2l-0.1,0.2
		L42.2,22.3z M42.3,24.4l0.2-0.1l0-0.1L42.3,24.4L42.3,24.4z M42.2,25.2L42.2,25.2l0.2-0.1l0.1-0.2l0.1-0.2l0-0.1l-0.1,0l-0.1,0.1
		l-0.1,0.1l0,0.1l-0.1,0.1L42.2,25.2z M42.2,24.9l0.4-0.3l0.1-0.3l-0.4,0.4L42.2,24.9z M42.3,15.6l0.1,0l0.1-0.2l0.2-0.1l-0.1-0.1
		l-0.1,0l0,0.1L42.3,15.6z M42.4,21.3l0.1-0.1l0,0.1l0.3-0.5l-0.1,0l0.2-0.4l-0.4,0.5l0,0.1l-0.2,0L42.4,21.3z M42.4,23.6L42.4,23.6
		l0.1-0.1l0-0.1l0.1-0.3l0.1,0l0-0.1l0.1-0.1l0-0.2l0.1-0.1l0.1-0.3l0.1,0l0-0.2l-0.2,0.2l0,0.1l-0.1,0.1l-0.1,0.3l-0.1,0l-0.1,0.3
		l0.1,0l0.1-0.2l-0.1,0.5l-0.1,0.2L42.4,23.6z M42.4,15.1L42.4,15.1L42.4,15.1L42.4,15.1z M42.6,25.3L42.6,25.3L42.6,25.3L42.6,25.3
		L42.6,25.3z M42.5,15.8l0-0.2l-0.1,0L42.5,15.8L42.5,15.8z M42.7,25l0,0.1l-0.1,0l0-0.1L42.7,25z M42.9,14.4L42.9,14.4L42.9,14.4
		L42.9,14.4z M42.9,19.2L42.9,19.2L42.9,19.2L42.9,19.2z M42.9,20.2l0.2-0.1l0.2-0.2l-0.1,0l0.1-0.2l-0.1-0.1l0.2-0.2l0,0l0-0.2
		l-0.1,0l-0.1,0.1l0.1,0l0,0.2l0,0.1l-0.1,0.1L43,19.8l0.1,0.1l-0.2,0l0.1,0.1L42.9,20.2L42.9,20.2z M42.9,20.8l0.2-0.4L43,20.5
		L42.9,20.8z M42.9,21.4L42.9,21.4l0-0.1L42.9,21.4L42.9,21.4z M43,21.1L43,21.1l0-0.2L43,21.1L43,21.1z M42.9,20.8l0.3,0l0,0l0-0.1
		L43,20.7L42.9,20.8z M43.2,21.6L43,21.6l0-0.1L43.2,21.6l0.2-0.5l0.1,0l0.1-0.2l0.2-0.1l-0.2,0.5l-0.2,0.1l0.1,0.1l0.1,0l0,0.1
		l0.1,0l0.1-0.5l0.1-0.1l0,0.1l-0.1,0.5l-0.3,0.2l-0.2,0.2l0.1-0.4L43.2,21.6z M43.1,18.8l0.3-0.3l-0.1,0l-0.1,0.1L43.1,18.8z
		 M43.3,21.9l-0.1,0.2L43.3,21.9L43.3,21.9z M43.2,18.3l0.1-0.3L43.2,18.3L43.2,18.3z M43.4,18L43.4,18l0.1-0.3l-0.1,0.2L43.4,18z
		 M43.7,20.3L43.7,20.3L43.7,20.3L43.7,20.3z M43.6,18.3l0.2-0.3l0.1-0.1l0.2-0.5l0,0.1l0.1,0l0.1-0.2l0.1,0l0.1-0.2l-0.1,0.1
		l-0.1,0l-0.2,0.2l-0.1,0L43.6,18.3z M43.7,19.9L43.7,19.9L43.7,19.9L43.7,19.9z M43.7,22.1L43.7,22.1l-0.1,0.1l0.1-0.2L43.7,22.1z
		 M44,19.7l0.1,0L44,19.9l0,0.4l-0.3,0.1l0.1-0.2L44,19.7z M43.8,16.9L43.8,16.9L43.8,16.9L43.8,16.9z M43.8,17.2L43.8,17.2l0.1-0.2
		l-0.1,0L43.8,17.2z M44,20.6L44,20.6l-0.1,0L44,20.6z M43.9,18.3l0,0.1L43.9,18.3L43.9,18.3z M43.9,16.7l0.1-0.1l0.1,0l0.2-0.5l0,0
		l0.1-0.1l0.1-0.1l0-0.2l-0.1,0.2l-0.1,0L44,16.2l-0.1,0.3L43.9,16.7z M44,15.8L44,15.8l0.1-0.2l-0.1,0l0,0.1L44,15.8L44,15.8z
		 M44,20.5L44,20.5l0-0.1L44,20.5z M44.1,14.8l0.1-0.1l0.1,0l0-0.2l-0.1,0L44,14.6l0,0.1L44.1,14.8z M44.1,19.4L44,19.1l0.1,0
		l0.1-0.3l0,0.1l-0.1,0.7L44,19.6l0-0.1L44.1,19.4z M44.1,13.7L44.1,13.7L44.1,13.7L44.1,13.7z M44.1,15.4l0.2-0.2l0.1-0.1l0.1-0.3
		l-0.1,0l-0.1-0.1l0,0.1l0,0l0.1,0l0,0.1l0,0.1l-0.2,0L44.1,15.4L44.1,15.4z M44.2,16.9l0.1,0l0-0.3l-0.3,0.3L44.2,16.9z M44.2,18.6
		L44.2,18.6l0.1-0.3l0,0.3l-0.1,0.2L44.2,18.6L44.2,18.6z M44.2,14.5l0.1,0l-0.1-0.1L44.2,14.5z M44.2,17.5l0.2,0l0-0.1l-0.1,0
		L44.2,17.5L44.2,17.5z M44.3,16.4l0-0.2l-0.1,0L44.3,16.4L44.3,16.4z M44.4,17.7l0.1-0.1l0-0.2l-0.1,0L44.4,17.7L44.4,17.7z
		 M44.5,15.6l0.2-0.2l0-0.1l-0.1,0l-0.1,0.1l0,0.1l-0.1,0.1L44.5,15.6z M44.9,14.5L44.9,14.5L44.9,14.5L44.9,14.5z"/>
	<path d="M49.1,27l0.2-2.8L48,24.1l-0.1,0l-0.2,0l-0.1,0L47.3,24l-0.1,0.1l-0.9,1.7L46,26.2l-0.5,0.1l-0.2,0l-0.7-0.1l0-0.1
		l-0.3-0.1l-0.1-0.1l-0.2-0.1l-0.3-0.2l-0.1-0.2l1-2.1l2.9-4.2l1.7-1.9l0.8-0.7l0.8-0.5l0.5-0.1l0.2,0.1l0.3,0.3l0,0.1l0.3,0.1
		l0.1,0.4l0.1,0l0.2,0.1l0.3,0.1l0,0.2l0.3,0.3l0.3,0.1l0,0.3l-1.4,5.8l0.2-1l0.1-0.3l0.1-0.9l0.1-0.3l0-0.1l0.1-0.2l0-0.3l-0.2-0.1
		L52,22.3l0,0.1L51.8,23l-0.2,0.2l0.2,0l-0.1,0.4l0,0.2l-0.1,0.1l-0.1,0.3l0,0.1l-0.1,0.1l0,0.2l0.1-0.1l-0.1,0.3l-0.1,0.2l0,0.2
		l0,0.3l-0.1,0l0,0.1l0.1,0l0,0.2l-0.1,0.2l0,0.8l-0.1,0.7l-0.1,0l0-0.2l-0.1,0l0,0.1l-0.1,0l-0.1,0.2l0-0.2L50.8,27l-0.1,0.1
		l-0.1,0.1l0-0.2l-0.1,0.1l-0.1,0.2l-0.1,0l-0.1,0L50,27.1l-0.1,0.2l0-0.1l-0.1,0.1l-0.1,0l-0.1,0.1l-0.2,0.1l0-0.1L49.1,27z
		 M49,22.1l0.6,0.1l0.3-1.1l0.2-0.9L48.7,22L49,22.1z M49.3,20.9l0.2,0l0.3-0.5l0.3-0.3l0.1-0.5l-0.1,0.2l-0.1,0l-0.4,0.5l-0.1-0.2
		l-0.2,0.5l-0.1,0.2L49.3,20.9z M50.1,19.1l0-0.2l-0.1,0L50.1,19.1L50.1,19.1z"/>
	<path d="M54.4,28.6l0.2-0.9l0.1-0.1l0.1-0.2l0-0.1l0.1-0.1l0.1-0.4l1-2.3l0-0.3l-1.2-2.8l0-0.1l0,0l-0.5-1.5l-0.1-1l0.1-0.3
		l0.3-0.5l0.4-0.5l0.2,0.1l0.6,0.4l0.6,0.6l0.1,0l0.7,0.6l0.3,0.4l-0.1,0.3L57.2,20l-0.1,0.1L57,20.4l0.3,0.9l0.2,0.3l1.1-1l0.6-0.5
		l1.1-0.7l0.7-0.3l0.2-0.1l0.5-0.1l0.9,0.9l0,0.3l0.1-0.1l0,0.1l0,0.1l0.1,0l0,0.1l-0.2,0.2l0.1,0l0,0.1l0.1,0l0,0.1l0.1-0.1l0,0.1
		l0,0.1L62.8,21l0.1,0l-0.1,0l-0.1,0.3l-0.3,0.1l0-0.1l0.1,0l0-0.1l-0.2,0.2l-0.1-0.1l0,0.2l0,0.1L62,21.6l-0.2,0l-0.1,0.2l-0.1,0.1
		l-0.1,0l0,0.1L61.5,22l-0.1-0.1l-0.1,0.2l0-0.1l-0.1,0.2l-0.1,0.1l-0.2,0.2l-0.1-0.1l-0.2,0.2L60.4,23l-0.1,0l-0.3,0.3l-0.1,0
		l-0.4,0.6l-0.1,0.3l-0.1,0.1l-1.3,2.4L58,26.8l-0.1,0l-0.1,0.4l0-0.1l-0.1,0.1l0,0.1l0,0l-0.1,0l0,0.1l0,0.1l-0.2,0l0,0.1l0.1,0
		L57.4,28l0.1,0l0,0.2l-0.1,0.2l-0.1,0.2l-0.1-0.1l0,0.1l-0.1,0l0.1,0l0,0.2l-0.1,0l0,0.1l0,0.4l-0.2,0.1l0-0.1l-0.1,0l0-0.2
		L56.6,29l0,0.1l-0.1,0.1l0,0.1l-0.1,0l0-0.2l-0.2-0.2l-0.2,0L56,29l-0.1-0.1l-0.1,0l-0.1-0.2l-0.1,0.1l-0.1-0.1L55.4,29L55.2,29
		l-0.1,0.1L55,29l-0.1,0l0,0.1l-0.1,0l-0.3-0.2L54.4,28.6z M55.3,28.7l0.1,0.1L55.3,28.7L55.3,28.7z M55.4,29.3l0-0.1l0.1,0l0.1-0.1
		l0.1-0.1l0,0.1l0,0.1l0.1-0.1l0,0.1L55.4,29.3L55.4,29.3L55.4,29.3z M55.8,28.8l0.1,0l0.1,0L55.8,28.8z M56,29.5l0.2-0.1l-0.1,0.2
		L56,29.5L56,29.5z M56.9,29.3l0.1,0l-0.2,0.1L56.9,29.3L56.9,29.3z M57.5,27.5L57.5,27.5L57.5,27.5L57.5,27.5L57.5,27.5z
		 M62.7,20.9L62.7,20.9l0-0.3l0,0L62.7,20.9L62.7,20.9z"/>
	<path d="M60,30l0.1-1.1l0.2-1l0.5-1.4l0.6-1.3l2.1-3.8l1.3-1.7l0.5-0.5l0.1-0.2l0.3-0.2l0.2,0l0.4,0.4l1.2,0.1l0.7,0.1l1.5,0.7
		l0.5,0.5l0.2,0.5l0,0.7l-0.3,0.8l-0.3,0.2l-0.3,0.3L69,23.6l-0.2,0.1l-0.3,0.1l-0.2,0.1L67.8,24l-0.1,0.1l-0.4,0.2l0-0.1l-0.3,0
		l0.1,0.1l0.6,0.3l0.1,0.1l0.2,0l0.6,0.5l0.1,0.2l0,0.2l0.1,0l-0.1,0.1l0.1,0.3l0,0l0,0.1l-0.2,0.1l0.1-0.1l0.1-0.3l-0.1,0.1
		l-0.1,0.3l0.1,0l0,0.1l-0.3,0.2L68.3,27l0.1,0l-0.1,0.1l-0.2,0.2l-0.1,0.1l0.1,0l0,0.1l0.1,0l0-0.1l0.2,0l0.1-0.2l-0.1,0l0,0.1
		l-0.1,0.1l-0.1-0.1l0.2-0.3l0.1-0.1l0,0.1l0.1,0l-0.2,0.2l0.1,0.1l0.1,0l-0.2,0.4l-0.1,0l-0.2,0.2l0,0.1l0,0.1l-0.1,0l0,0.1l-0.1,0
		l-0.1,0.2l-0.1,0l0-0.1l-0.1,0.3l-0.2,0l0-0.1l-0.2,0l0.1,0.1l0,0.1l-0.1,0l0,0.1l0.1,0l-0.2,0l-0.1,0.1L67.1,29L67,29.1l-0.3,0.2
		l-0.3,0.1l0.3-0.2l-0.1,0l-0.1,0l0,0.1l-0.1,0.1l0-0.1l-0.1,0l0.1,0.1l-0.1,0.1L66,29.4l-0.2,0.1l-0.1,0l-0.2,0.1l-0.2,0.1l0.1,0
		l0.1-0.1l0,0.1l0.2-0.1l0,0.1l-0.3,0.1l-0.3-0.1l-0.1,0.1l0.1,0.1l0.1-0.1l0.1,0L65,30.1L65,30l-0.3,0l-0.1,0.1l0-0.1l-0.1,0
		l-0.2,0.1l0.3-0.3l-0.1,0l0.2-0.2l-0.2,0.1L64,30l0.2-0.2l0.1,0l0-0.1l-0.2,0.1l-0.2,0.2l0-0.1l-0.3,0.1l-0.1,0.1l-0.1-0.1l0-0.1
		l-0.2,0l0.1-0.1l0.2,0l0.2,0l0.2-0.1l0-0.1l-0.3,0.1l-0.2,0l-0.1,0.1l-0.3-0.1l-0.3,0l0,0.1l0.1,0l0,0.1L63,30l0,0.1l-0.1,0l0,0.1
		l0.1,0l0.1,0l-0.4,0.1l0-0.1l0.1,0l0-0.1l0-0.1l-0.1,0l0.1-0.1l-0.1,0l0,0.1l0,0.1l-0.2,0.2l-0.1,0.2l-0.1,0l-0.1,0l0.1-0.1l0-0.2
		l-0.1-0.1l0.2,0L62.2,30l0,0.1L61.9,30l-0.1,0.2l-0.1,0.1l0-0.1l0.2-0.4l0.1-0.1l0.2-0.1l-0.1,0.2l0.2-0.3l0.2-0.1l0,0.3l0.2-0.1
		l0-0.1l-0.1,0l0.4-0.1l0-0.1l0-0.1l0.3,0l0-0.1l-0.1,0L63,29.1l-0.1,0.1l-0.2,0l0,0.1l-0.1,0.1l-0.1-0.1l-0.4,0.5l-0.1,0l-0.2,0.1
		l0,0.1l-0.3,0.2l-0.1,0.2l-0.1,0l-0.5,0.6L60.8,31l-0.3,0.1l-0.1,0.1L60,30z M62.3,29.8l0.1-0.1l-0.1,0L62.3,29.8z M62.5,29.3
		l-0.1,0.1L62.5,29.3L62.5,29.3z M62.6,30.5l0.2,0.2l-0.2,0l-0.1,0.1l0-0.1L62.6,30.5z M62.6,28.4l0.2-0.1l0.2,0l3.3-1.5l0.7-0.5
		l0-0.1l-0.1,0l-0.1,0l-1.2-0.1l-0.3,0l-0.1,0.1L65,26.1l-0.1,0L64.5,26l-0.3,0l-0.3-0.2l0,0.1l-0.1,0.1l-0.1,0.2l-0.3,0.3l0,0.2
		l-0.4,0.4l0.1,0l-0.1,0.2L63,27.6l-0.1,0.2l0,0.1l-0.2,0.2L62.6,28.4z M62.9,30.6l-0.1-0.1l0.2,0.1l0.2-0.2l0.1,0l-0.1,0l0.2,0
		l-0.3,0.1l0,0.2l-0.1,0L63,30.6L62.9,30.6z M63,29.2l-0.2,0.1L63,29.2L63,29.2z M62.9,27.5L62.9,27.5L62.9,27.5L62.9,27.5z
		 M63.1,29l0.1-0.1l0-0.1l-0.1,0L63.1,29L63.1,29z M63.3,30l-0.1,0L63.3,30L63.3,30z M64.2,28.8L63.6,29l-0.2-0.1L63.3,29l-0.1,0.1
		l0.1,0l0.1,0.1l0.1-0.1l0.2,0l-0.1,0l-0.2,0.2l0.1,0l0,0l-0.1,0l0-0.1l-0.1,0.1l0.1,0.1l0.1,0l0,0.1l0.1,0l0-0.1l0.1,0l0.1-0.1
		l-0.2,0l0.4-0.1l-0.1,0.2l0,0.1l-0.1,0.1l0.2,0l0-0.2l0.3-0.1l0-0.1l-0.2,0l-0.2,0l0.1-0.1l0-0.1l0.2,0l-0.1,0.1l0.1,0l0.4,0l0-0.1
		l0.2-0.1l0.2,0l0.1-0.1l-0.4,0l0.2-0.2l0.1,0l0.4-0.2l0.1,0l-0.1,0.1l0.1-0.1l0.1-0.2l0.1,0l0,0l0.2,0.1l0.1-0.2l-0.1,0l-0.1-0.1
		l-0.1,0l-0.1,0.1l-0.4,0l-0.2,0.1l-0.2,0l-0.3,0.2l0.2-0.2l-0.1,0l-0.1-0.1l0-0.1l-0.2,0.1L64.2,28.8z M63.5,30.3l0.1,0l0-0.1
		l0.1,0l0.1-0.1l0,0.1l0.1-0.1l-0.3,0.4l-0.1,0.1l0.1-0.1l0-0.1l-0.1,0l-0.2,0.1l-0.1,0l0.1-0.1L63.5,30.3z M63.6,30.6L63.6,30.6
		L63.6,30.6L63.6,30.6z M63.5,28.7L63.5,28.7l0.1-0.1L63.5,28.7L63.5,28.7z M63.7,28.8l0.1-0.1l0.3-0.1l0.1-0.1l-0.1,0l-0.1,0.2
		l-0.2,0L63.7,28.8z M64,30.4L64,30.4l0-0.1L64,30.4z M64.3,30.4l-0.2,0.1l0.3-0.2L64.3,30.4z M64.2,30.1l0,0.1L64.2,30.1L64.2,30.1
		z M64.5,28.4l0.1-0.1l-0.2,0l-0.1,0.1L64.5,28.4L64.5,28.4z M64.3,29.6l0.2,0l0-0.1l-0.1,0l0.2-0.1l0,0.2l0.1-0.1l0.1-0.1l0-0.1
		l0.2,0l0.2-0.1l-0.2,0l-0.3,0l-0.2,0.2l-0.3,0.1L64.3,29.6L64.3,29.6z M64.5,28.6l-0.1,0.1l0.2,0L64.5,28.6z M64.5,29.9L64.5,30
		l0.2-0.1L64.5,29.9z M64.7,30.2L64.7,30.2l-0.2,0.1L64.7,30.2L64.7,30.2z M64.7,30L64.7,30l0.1-0.1L64.7,30z M64.9,28.5l0.1,0.1
		l0.2-0.1l-0.1-0.2L65,28.4L64.9,28.5L64.9,28.5z M65.1,29.4l0.2,0l0.1-0.1l-0.2,0l0.1-0.1l0-0.1L65.1,29.4z M65.4,28.5L65.4,28.5
		l0.3-0.1l-0.1,0l-0.1,0L65.4,28.5l0.2-0.1l0-0.1l0.1,0l0.2-0.3l0-0.1l-0.1,0L65.6,28l-0.1,0.1l0.1,0l-0.2,0.1l0.1,0l-0.3,0.1
		l-0.1,0.1l0.2-0.1L65.4,28.5z M65.3,28.8l0.1-0.1l0-0.1L65.3,28.8L65.3,28.8z M65.3,29.6L65.3,29.6l0.1-0.1l0,0l-0.1,0L65.3,29.6z
		 M65.5,29l0.2-0.1l-0.1-0.1L65.5,29z M65.5,29.5l0.2-0.1l0-0.1l0.3-0.3l-0.2,0.1L65.5,29.5L65.5,29.5z M65.6,29.2l0-0.1L65.6,29.2
		L65.6,29.2z M65.8,29l0.1-0.1L65.8,29L65.8,29z M65.9,23l3-1.3l0.2-0.2l-0.5-0.1l-0.6,0l-0.1,0l-0.7,0l-0.1,0.2l-0.2,0.4L66.6,22
		L66,22.7L65.9,23z M66.1,29.6l-0.2,0.1L66.1,29.6L66.1,29.6z M66,28.2L66,28.2l0.1,0l0.3,0l0-0.1l0.1,0l-0.1,0l-0.1,0L66,28.2
		L66,28.2z M66.1,29.4l0.2-0.2l-0.2,0.1L66.1,29.4z M66.2,28.9l0.1,0.1L66.2,28.9L66.2,28.9z M66.3,28.5l0.1-0.1L66.3,28.5
		L66.3,28.5z M66.4,28.8l0.2,0l0.1-0.1l0-0.1L66.4,28.8L66.4,28.8z M66.4,28.5L66.4,28.5L66.4,28.5L66.4,28.5z M66.6,28.3l0.1,0
		L66.6,28.3L66.6,28.3z M67.1,28.2L67.1,28.2L67.1,28.2L67.1,28.2z M67.5,28.1l0.1-0.1l-0.2,0.1L67.5,28.1z M67.8,28.5l0.1-0.2
		l0.1,0l-0.1-0.1l-0.2,0.1l0,0.1L67.8,28.5z M68.1,27.8L68.1,27.8L68.1,27.8L68.1,27.8z M68.5,26.8L68.5,26.8L68.5,26.8L68.5,26.8
		l-0.1,0.2l-0.1,0l0-0.1L68.5,26.8z"/>
	<path d="M70.5,32.3L70.5,32.3l-0.1,0.1l0.1,0.1l-0.2-0.1l0.1,0L70,32.3l-0.1,0.1l-0.1,0l0-0.1l-0.1,0l-0.2,0.1l-0.5,0.1L68.8,32
		l-0.1-0.3l0-0.1l-0.1-0.4l0.1,0l0-0.2l0.7-1.6l0.4-0.7l0-0.2l0.8-1.6l2-3.4l0.2-0.3l0-0.1l-0.1-0.1l-0.2-0.3l-0.1-0.3l0-0.1l0.2,0
		l0.2,0.1l0.5,0.1l0.1,0l0.1,0l0.5-0.4l0.2,0.1l0.2,0.2l1.8,0l0.2,0l0.2,0l0,0l0.3,0.1l0.2,0.2l0.2-0.1l0.3,0.1l0.1,0l0.2,0l0.5,0
		l-0.1-0.1l0.4,0l0,0.1l0.1,0l0,0.1l0.3,0.1l0,0.1l0.3,0.1l-0.1,0.1l0.4-0.1l0.1,0.2l0.1,0l0-0.1l0.2,0l0.3,0.2l0.2,0.4l-0.1,0.3
		l-0.1,0.1l0,0l0,0.1l-0.1,0l0-0.1l-0.2,0.2L79.8,24l-0.1,0l0,0.1l0.1,0.2l-0.1,0.1l0,0.2l-0.2,0.1l0,0.1l0.2,0l-0.1,0.1l0.1,0.1
		l-0.1,0l-0.1,0l-0.3,0l-0.1,0l-0.1-0.1l-0.4,0l-0.3-0.1l-0.7-0.1l-0.2,0l-0.5,0l-0.2,0l-0.7,0l-0.2,0.1l-0.2,0L75.2,25L75,25.2
		l-0.1,0l-0.3,0.3l-0.1,0.2l1.2,0l0.8,0.2l1.1,0.5l-0.2,0.1l-0.1,0l-1,0.1l-0.6,0.2l-0.2,0.2l-0.3,0.2l-0.3,0.4L74.8,28l-0.5,0.1
		l-0.4,0l-0.1,0.1l0-0.1l-0.5,0l-0.8,1.4l0.1,0L75,29l0.5,0.1l0.3,0.2l0.5,0.5l-0.1,0.4l0.1,0l0,0.1l0.1,0.1l-0.1,0L76,30.6l0.2-0.1
		l0.1,0l-0.1,0l0,0.1l0,0.1l-0.1,0.1l0-0.1l-0.1,0.1l0.1,0l0,0.1L76,31l-0.3,0.2l-0.1,0l0.1-0.1l-0.2,0.2l-0.1,0l-0.1,0.1l-0.1,0
		l-0.1-0.1l-0.2,0.2l0-0.1l-0.4,0l-0.1,0.1l-0.1,0l-0.1,0.1L74,31.5l0,0l-0.1,0.1l-0.1-0.1l0-0.1l0-0.1l-0.2,0.2l0.1,0l-0.1,0
		l-0.2-0.1l-0.1,0.1l0,0.1l-0.2,0.1l-0.2,0l-0.2,0.1l-0.2,0L72.5,32l0-0.1L72.4,32l0.1,0l-0.4,0.1l0-0.1l-0.2,0.2l-0.2,0l0,0.1
		l-0.2,0.1l0-0.1l-0.2,0l-0.1,0.1l-0.2,0l-0.4,0.1l0.1-0.1l-0.1-0.1L70.5,32.3L70.5,32.3z M70.6,32.4L70.6,32.4l0-0.1L70.6,32.4z
		 M75.3,22.9l0.1,0L75.3,22.9L75.3,22.9z M75.9,23.3l0-0.2L75.9,23.3L75.9,23.3z M76.4,23.4L76.4,23.4l0.2-0.1l0-0.1l-0.1,0
		l-0.1,0.1l-0.1,0l-0.1,0L76.4,23.4z M76.4,29.9L76.4,29.9l0.1-0.1L76.4,29.9z M76.5,30.1l-0.1,0.1L76.5,30.1L76.5,30.1z M76.9,23.7
		L76.9,23.7L76.9,23.7L76.9,23.7z M77,23.1L77,23.1L77,23.1L77,23.1z M77.2,23.7l0.1-0.1l0.1,0l0-0.1l-0.1-0.1l-0.1,0.1L77.2,23.7z
		 M77.4,22.7L77.4,22.7l-0.1-0.1L77.4,22.7z M77.5,23.4l0-0.1L77.5,23.4L77.5,23.4z M77.5,22.6l0.3,0.1L77.5,22.6L77.5,22.6z
		 M77.6,23.8l0.2-0.1l-0.1-0.1l0.1-0.1l-0.1-0.1l0,0.1l-0.1,0.1L77.6,23.8z M78,23.7l0-0.2L78,23.7l-0.1-0.2l-0.1,0.1L78,23.7z
		 M78.2,23.9L78.2,23.9l0-0.2l-0.1-0.1l0-0.1l-0.1-0.1L78,23.7l0.1,0l0,0.1l0.1,0L78.2,23.9z M78.2,22.9L78.2,22.9l0.2-0.1
		L78.2,22.9z M78.3,23.2L78.3,23.2l0.1,0L78.3,23.2L78.3,23.2z M78.3,23.8l0.1-0.1l-0.1,0L78.3,23.8z M78.4,24.1l0.1-0.1l-0.2,0
		L78.4,24.1z M78.5,23.8l0.1,0l0-0.1L78.5,23.8L78.5,23.8z M78.5,23.3L78.5,23.3L78.5,23.3L78.5,23.3z M78.7,24L78.7,24L78.7,24
		L78.7,24z M78.8,22.9l0.1,0l0-0.1L78.8,22.9L78.8,22.9z M79,24.1L79,24.1l0-0.2L79,24.1L79,24.1z M79.4,24.4l0.1-0.2l-0.2,0
		L79.4,24.4z M79.9,24.5L79.9,24.5l-0.1,0.1l0,0L79.9,24.5z M80,24.9l-0.2,0.1l0.1-0.1L80,24.9z M80.1,24.3l0,0.1l-0.1,0l0-0.1
		L80.1,24.3z M80.3,24.1l0,0.2L80.3,24.1L80.3,24.1z"/>
</g>
<g class="st0">
	<path d="M37.3,32.7L37.2,33l0.1,0.3l0,0.1l0,0.1l0,0.2l0-0.1l-0.1-0.1l-0.1,0l0.1,0.1l-0.1,0l0.1,0.2l-0.1,0.2L37,34.2l0-0.6
		l-0.1,0l-0.1,0.3L36.8,34l0,0.2l0.1,0L36.4,35l0,0.1l-0.2,0.2l0,0.1l0,0.1l-0.1,0.2l0-0.1l-0.1,0.2l0.1,0l-0.2,0.7l-0.2,0.3
		l-0.1,0.2l0,0l-0.1,0l0,0.1l-0.1,0.2l-0.1,0.2l-0.2,0.1l0,0.2l-0.4,0.8l-0.1,0.2l-0.2,0l0,0.5l-1.2,2.3L33.1,42l-0.2,0.4l0,0.1
		l-0.1,0l-0.1-0.1l-0.3-0.1l-0.2,0.1l-0.1,0l0,0.1l-0.2,0l0-0.1l-0.1,0l0.1-0.1l0-0.1l-0.1,0.1l-0.2,0l-0.2,0l0-0.1l-0.3,0.1l0-0.1
		l-0.1,0.1l0-0.1l-0.2,0.1l-0.1-0.1l-0.1,0l-0.2,0.1l-0.1-0.3l0-0.1l-0.1-0.1l0.1-0.7l-0.4-5.4l-0.1,0l-0.3,0.6l0,0.2l-0.2,0.2
		l0,0.1l-0.1,0.1l0,0.1L29.3,37l-0.2,0.6l-0.2,0.2l0,0.1l-0.2,0.3l-0.4,0.2l0,0.1l-0.1,0.1L27.8,39l-0.1,0.1l0-0.1l-0.1,0l-0.4,0.4
		l-0.1,0.1L27,39.7l0-0.1l-0.2,0l-0.2,0.3l-0.3,0.2l-0.6,0.7l-0.2,0l-0.1-1.4l0.4-1.3l1.7-4l0.1-0.1l0.3-0.7l1.2-2.1l0.2-0.6
		l0.3-0.4L30,30l0.1,0.1l0.1,0.1l0,0.1l0.2,0.1l0.4,0.5l0.5,0.4l0.1,0l0,0.1l0.2,0.2l0.3,0.4l0.2,0.1l0.1,0.2l0.2,0.6l0.1,1l0.1,2.1
		l0,0.1l0.4-0.6l0.1,0l0.8-1.2l0.3-0.4l0.3-0.4l0,0.1l0.1,0l0.1-0.2l-0.2,0l0.3-0.3l-0.2,0.1l0-0.2l1.2-1.4l0,0.2l-0.1,0.1l0,0.1
		l0.7-0.2l-0.2-0.1l0.1,0l0.2,0l0-0.1l0.2,0.1l0.1-0.1l0.3,0.2l-0.2,0.2l-0.1,0.3l0.1,0l0.2-0.4l0,0.2l-0.2,0.3l0.1,0.1l-0.1,0.1
		l-0.1,0.2l-0.1,0l0,0.1l0,0.2l0.1,0L37.3,32.7L37.3,32.7z M28.3,38.3L28.3,38.3L28.3,38.3L28.3,38.3z M28.5,38l0,0.1l0.1-0.2
		L28.5,38z M34.5,36.8l0-0.1l0-0.1L34.5,36.8L34.5,36.8z M34.7,36.5l0.1-0.3l-0.1,0L34.7,36.5z M34.9,37.1l0.1-0.3l0.1,0l0.1-0.2
		l0.1-0.1l-0.1,0l0-0.3l-0.1,0.3L35,36.4l0,0.2L34.9,37.1L34.9,37.1z M34.9,36.1l0,0.1L34.9,36.1L34.9,36.1z M35,35.8l0.1-0.1l0-0.1
		L35,35.8z M35.1,32.7l0.3-0.4l-0.3,0.2L35.1,32.7z M35.3,36.3l0.1-0.1l0-0.2l0.1-0.2l0.1-0.2l0.1,0l0.2-0.1l-0.1-0.1l-0.1,0.1
		l0-0.1l-0.1,0l-0.2,0.2l-0.1,0.1l-0.2,0L35.3,36.3z M35.5,35.8L35.5,35.8L35.5,35.8L35.5,35.8z M35.5,35.5L35.5,35.5l0.1-0.2
		l-0.1,0L35.5,35.5z M35.7,36.4l0-0.2l0.1-0.1L35.7,36L35.7,36.4L35.7,36.4L35.7,36.4z M35.7,34.8l0.1-0.1l-0.1,0L35.7,34.8z
		 M35.7,35.3l0.1,0l0.1-0.1l0.1,0l0.2-0.5l-0.1,0l-0.1,0l-0.1,0.4L35.7,35.3L35.7,35.3z M36.6,34l-0.1,0.3l-0.2,0.4l0,0.1L36.1,35
		l0,0.1l0.2-0.4l0.2-0.2l0.1-0.5L36.6,34l0.1-0.2L36.6,34z M36.8,33.8l0-0.2L36.8,33.8L36.8,33.8z M37.3,33.8L37.3,33.8l-0.1,0.2
		L37.3,33.8L37.3,33.8z"/>
	<path d="M36.8,42.7L36.8,42.7l-0.1,0.1l0.1,0.1l-0.2-0.1l0.1,0l-0.2-0.1l-0.1,0.1l-0.1,0l0-0.1l-0.1,0l-0.2,0.1l-0.5,0.1l-0.3-0.4
		L35,42.1l0-0.1L35,41.6l0.1,0l0-0.2l0.7-1.6l0.4-0.7l0-0.2l0.8-1.6l2-3.4l0.2-0.3l0-0.1l-0.1-0.1L38.8,33l-0.1-0.3l0-0.1l0.2,0
		l0.2,0.1l0.5,0.1l0.1,0l0.1,0l0.5-0.4l0.2,0.1l0.2,0.2l1.8,0l0.2,0l0.2,0l0,0l0.3,0.1l0.2,0.2l0.2-0.1l0.3,0.1l0.1,0l0.2,0l0.5,0
		l-0.1-0.1l0.4,0l0,0.1l0.1,0l0,0.1l0.3,0.1l0,0.1l0.3,0.1l-0.1,0.1l0.4-0.1l0.1,0.2l0.1,0l0-0.1l0.2,0l0.3,0.2l0.2,0.4l-0.1,0.3
		l-0.1,0.1l0,0l0,0.1l-0.1,0l0-0.1l-0.2,0.3l-0.1-0.1l-0.1,0l0,0.1l0.1,0.2L46,34.9l0,0.2l-0.2,0.1l-0.1,0.1l0.2,0l-0.1,0.1l0.1,0.1
		l-0.1,0l-0.1,0l-0.3,0l-0.1,0l-0.1-0.1l-0.4,0l-0.3-0.1l-0.7-0.1l-0.2,0l-0.5,0l-0.2,0l-0.7,0l-0.2,0.1l-0.2,0l-0.3,0.2l-0.2,0.3
		l-0.1,0L40.9,36l-0.1,0.2l1.2,0l0.8,0.2l1.1,0.5L43.8,37l-0.1,0l-1,0.1l-0.6,0.2L42,37.5l-0.3,0.2l-0.3,0.4L41,38.4l-0.5,0.1
		l-0.4,0L40,38.5l0-0.1l-0.5,0l-0.8,1.4l0.1,0l2.4-0.4l0.5,0.1l0.3,0.2l0.5,0.5l-0.1,0.4l0.1,0l0,0.1l0.1,0.1l-0.1,0l-0.2,0.2
		l0.2-0.1l0.1,0l-0.1,0l0,0.1l0,0.1l-0.1,0.1l0-0.1l-0.1,0.1l0.1,0l0,0.1l-0.1,0L42,41.6l-0.1,0l0.1-0.1l-0.2,0.2l-0.1,0l-0.1,0.1
		l-0.1,0l-0.1,0l-0.2,0.2l0-0.1l-0.4,0l-0.1,0.1l-0.1,0l-0.1,0.1L40.3,42l0,0L40.2,42l-0.1-0.1l0-0.1l0-0.1L39.9,42l0.1,0l-0.1,0
		L39.7,42l-0.1,0.1l0,0.1l-0.2,0.1l-0.2,0l-0.2,0.1l-0.2,0l-0.1,0.1l0-0.1l-0.2,0.1l0.1,0l-0.4,0.1l0-0.1l-0.2,0.2l-0.2,0l0,0.1
		l-0.2,0.1l0-0.1l-0.2,0l-0.1,0.1l-0.2,0L37,42.9l0.1-0.1L37,42.7L36.8,42.7L36.8,42.7z M36.9,42.9L36.9,42.9l0-0.1L36.9,42.9z
		 M41.6,33.4l0.1,0L41.6,33.4L41.6,33.4z M42.2,33.7l0-0.2L42.2,33.7L42.2,33.7z M42.7,33.8L42.7,33.8l0.2-0.1l0-0.1l-0.1,0
		l-0.1,0.1l-0.1,0l-0.1,0L42.7,33.8z M42.7,40.3L42.7,40.3l0.1-0.1L42.7,40.3z M42.8,40.6l-0.1,0.1L42.8,40.6L42.8,40.6z M43.2,34.1
		L43.2,34.1L43.2,34.1L43.2,34.1z M43.3,33.5L43.3,33.5L43.3,33.5L43.3,33.5z M43.5,34.2l0.1-0.1l0.1,0l0-0.1l-0.1-0.1L43.5,34
		L43.5,34.2z M43.7,33.1L43.7,33.1l-0.1-0.1L43.7,33.1z M43.8,33.8l0-0.1L43.8,33.8L43.8,33.8z M43.8,33l0.3,0.1L43.8,33L43.8,33z
		 M43.9,34.3l0.2-0.1L44,34l0.1-0.1L44,33.8l0,0.1L43.9,34L43.9,34.3z M44.3,34.1l0-0.2L44.3,34.1L44.2,34l-0.1,0.1L44.3,34.1z
		 M44.5,34.4L44.5,34.4l0-0.2l-0.1-0.1l0-0.1L44.4,34l-0.1,0.2l0.1,0l0,0.1l0.1,0L44.5,34.4z M44.5,33.3L44.5,33.3l0.2-0.1
		L44.5,33.3z M44.5,33.7L44.5,33.7l0.1,0L44.5,33.7L44.5,33.7z M44.6,34.2l0.1-0.1l-0.1,0L44.6,34.2z M44.7,34.5l0.1-0.1l-0.2,0
		L44.7,34.5z M44.7,34.3l0.1,0l0-0.1L44.7,34.3L44.7,34.3z M44.8,33.8L44.8,33.8L44.8,33.8L44.8,33.8z M45,34.4L45,34.4L45,34.4
		L45,34.4z M45.1,33.4l0.1,0l0-0.1L45.1,33.4L45.1,33.4z M45.3,34.6L45.3,34.6l0-0.2L45.3,34.6L45.3,34.6z M45.7,34.8l0.1-0.2
		l-0.2,0L45.7,34.8z M46.2,35L46.2,35l-0.1,0.1l0,0L46.2,35z M46.2,35.3l-0.2,0.1l0.1-0.1L46.2,35.3z M46.3,34.7l0,0.1l-0.1,0l0-0.1
		L46.3,34.7z M46.5,34.6l0,0.2L46.5,34.6L46.5,34.6z"/>
	<path d="M51.5,44l-0.2,0.2l0.1,0.1l0,0.2l-0.1,0.1l0.1,0.1l0.1-0.1l0,0.1l0.1,0l-0.1,0.1l0,0.1l0.2,0L51.5,45l0.1,0.2l-0.1,0.3
		l0,0.1l0.1-0.1l0,0.2l-0.1,0.1l0,0.2L51.3,46l0,0.2l-0.2,0.6l0,0.2l-0.1,0.3L51,47.9l-0.3,0.4l-0.1,0.1l-0.7-1.5l-0.1-0.3l-0.1-0.2
		l0-0.2l-0.2-0.4l-0.1,0l0.1-0.1l-0.1-0.3l-0.1-0.2l-0.1-0.6L49,44.3l-0.1-0.1l0.1,0l0,0l-0.1,0l0-0.3l-0.1-0.2l-0.2,0.1l-0.1,0.2
		l-0.1,0l-0.2,0.3l-0.2,0l-0.2,0.2l0,0.1l-0.2,0.2l-0.1-0.1l-0.1,0.1l-0.1,0L47,44.9l0-0.1l-0.2,0.1l-0.2,0.2l0-0.2l-0.1,0L46.3,45
		L45.9,45l0,0.1l-0.2,0.1l0-0.2l-0.2,0.3L45.4,45l-0.1,0l-0.1,0l-0.1,0.1l-0.2,0l-0.1,0l-0.1,0l-0.1,0l-0.1-0.2l0.2-0.6l3.3-4.1
		l0-0.1l0-0.2l0-0.1l-0.1,0l-0.1-0.3l0.1-0.1l0-0.1l0-0.1l-0.1,0.1l0.1-0.3L47.7,39l0-0.1l0.1-0.2l0-0.1l0,0.2l-0.1-0.5l0.1-0.1
		l0-0.1l-0.1,0.1l-0.3-3L47.1,35l0.1-0.2l0.1-0.1l0.2,0l0,0l0.6,0l0,0.1l0.1,0l0.3,0.1l0.1,0.1l0.1,0l0.1,0.1l0.3,0.1l0.1,0.1
		l0.2,0.1l0,0.1l0.2,0.1l0.5,0.6l-0.1,0.5l0,0.4l0,0.1l0,0.1l0.1,0.6l2-2.3l0.2-0.1l0.2,0.1l0,0.1l0.1,0l0.7,0.8l0.3,0.2l0.4,0.4
		l0.1,0.4L54,37.4l-0.3,0.4l-0.5,0.5l-1,1.3l-0.1,0L52,39.9l-0.7,0.8l-0.2,0.1l-0.2,0.3l-0.1,0.2l0.1,0.8l0,0.2l0.1,0l0,0.2l0.1,0.1
		l0,0.1l0.1,0l0,0.1l-0.1,0l0,0.1l0.1,0l-0.1,0.1l0,0.3L51,43.4l0.1,0l0-0.2l0.1,0.3l0,0.1l0.1,0.1l-0.1,0l0.1,0.1L51.3,44l0.1,0.1
		l0-0.1L51.5,44z M48.2,39.6L48.2,39.6L48.2,39.6L48.2,39.6z M48.2,39.5l0.1,0l-0.1-0.1L48.2,39.5z M51,43.7L51,43.7l0.1-0.1
		L51,43.7L51,43.7z"/>
	<path d="M54.1,47.3l0.1-1.7l0.7-1.9l1.8-3.8l-0.1,0L56.5,40L56,39.8l-0.2-0.3l-0.2-0.1l-0.5-0.7L55,38.2L54.9,38l-0.2-0.8l0.2-0.2
		l0.9-0.3l0.1,0l0.2-0.1l0.8-0.1l0,0.1l0.1,0.1l0.9,0l0.1,0l0.2,0l0.1-0.1l-0.2,0l-0.1-0.1l0.1-0.1l0.2,0.1l0.6,0.1l-0.2,0.1l0.2,0
		l0.1,0l0.2-0.1l0.2,0.1l0.1,0l-0.1,0.1l0.3,0l0.4,0.1l0.7,0.1l0.1,0.1l0.1-0.1l0.5,0.2l0.7,0.2l0.7,0.3l0.1,0l0.2,0l-0.1,0l0.3,0.1
		l1.2,0.7L63,39.1l-0.3,0.6L62.5,40l-0.2,0.2l-0.3,0l-0.9-0.1L60.8,40l-0.2,0l-0.7,0.7l-0.4,0.6L59,42l-1.5,3.1l-0.1,0.2L57,46.1
		l-0.1,0.4l-0.1,0.1l0,0.1L56.7,47l0.1,0.1l-0.2,0.2l0,0.1l0.1-0.1l-0.1,0.2l-0.1,0l0,0.1l-0.2,0l-0.1,0.1l-0.1,0L56,47.8l0,0.1
		l-0.2,0l0.1-0.1l0-0.1l-0.1,0l-0.1,0.2l-0.1,0L55.5,48l-0.2,0l0-0.1l-0.1,0L55,48l-0.1-0.1L54.7,48l-0.5-0.4L54.1,47.3z M54.2,45.9
		L54.2,45.9l0-0.2L54.2,45.9z M62.3,37.6l0.1,0.1L62.3,37.6L62.3,37.6z"/>
</g>
<g class="st0">
	<path d="M22.5,58.3l0.1-1.7l0.7-1.9l1.8-3.8l-0.1,0L24.9,51l-0.5-0.2l-0.2-0.3l-0.2-0.1l-0.5-0.7l-0.2-0.5l-0.1-0.1l-0.2-0.8
		l0.2-0.2l0.9-0.3l0.1,0l0.2-0.1l0.8-0.1l0,0.1l0.1,0.1l0.9,0l0.1,0l0.2,0l0.1-0.1l-0.2,0l-0.1-0.1l0.1-0.1l0.2,0.1l0.6,0.1
		l-0.2,0.1l0.2,0l0.1,0l0.2-0.1l0.2,0.1l0.1,0l-0.1,0.1l0.3,0l0.4,0.1l0.7,0.1l0.1,0.1l0.1-0.1l0.5,0.2l0.7,0.2l0.7,0.3l0.1,0l0.2,0
		l-0.1,0l0.3,0.1l1.2,0.7l-1.4,0.7l-0.3,0.6L31,51.1l-0.2,0.2l-0.3,0l-0.9-0.1l-0.4-0.1l-0.2,0l-0.7,0.7L28,52.4L27.4,53l-1.5,3.1
		l-0.1,0.2l-0.4,0.8l-0.1,0.4l-0.1,0.1l0,0.1L25.2,58l0.1,0.1l-0.2,0.2l0,0.1l0.1-0.1l-0.1,0.2l-0.1,0l0,0.1l-0.2,0l-0.1,0.1l-0.1,0
		l-0.1,0.1l0,0.1l-0.2,0l0.1-0.1l0-0.1l-0.1,0l-0.1,0.2l-0.1,0L23.9,59l-0.2,0l0-0.1l-0.1,0L23.4,59l-0.1-0.1l-0.2,0.2l-0.5-0.4
		L22.5,58.3z M22.7,56.9L22.7,56.9l0-0.2L22.7,56.9z M30.7,48.6l0.1,0.1L30.7,48.6L30.7,48.6z"/>
	<path d="M27.9,59.8l0.1-0.6l0.3-1.1l0.1-0.5l1.4-3l1.8-2.9l0.6-0.8l0.6-0.6l0.2-0.1l0.2-0.2l0.5,0.1l1.1,1l0.3,0.2l0.4,0.7
		l-0.1,0.2l-0.1,0.1l-0.4,0l-0.5,0.4l-1.7,2.4l0,0.1l-0.1,0.1l-0.2,0.3l-0.1,0L32.1,56L32,56.2l-0.1,0.1l0,0.1l-0.2,0.3l0,0.1
		L31.4,57l0.1-0.1l0.1,0.1l-0.1,0l-0.2,0.4l-0.3,0.5l0,0.1l0.1,0.1l-0.2,0.3l-0.1,0.2l-0.1,0.4l-0.2,0.3l-0.1,0l-0.1,0.2l-0.2,0.1
		l-0.1,0l-0.2,0.2l-0.2,0l-0.2,0.1l-0.1,0l-0.2,0.2l-0.2,0.1l-0.6,0.5l-0.2,0.2L28,60.6L27.9,59.8z M30.6,58.9l0.1-0.2L30.6,58.9
		L30.6,58.9z M31.5,57.5L31.5,57.5l0.1-0.2L31.5,57.5z"/>
	<path d="M41.5,64.7l0.3-0.9l0,0l0-0.1l0-0.1l-0.1-0.1l0.1-0.1L42,63l0.1-0.2l0-0.1l0.2-0.8l0.1-0.1l0-0.1l0.1-0.2l0-0.1l0.2-0.2
		l0-0.1l0.1-0.3l0-0.1l0.1-0.2l-0.1,0.1l0.1-0.2l0-0.2l0.1,0l0-0.1l0.1,0l0-0.2l-0.1,0l0.1-0.2l0.2,0l0.1-0.2l0.1-0.3l0.1-0.5l0-0.2
		l0.1-0.6L43.4,58l0,0.2l-0.1-0.2l-0.1,0l0.3-1.2l0.1-0.6l0-0.1l0.1,0l0-0.1l-0.1,0l0.2-0.4l-0.1,0l0.2-0.2l0.1-0.3l-0.1,0l-0.1,0.2
		l0-0.1l0.1-0.3l-0.1-0.1l-0.1,0.1l0.1,0l-0.1,0.3l-0.1,0.2l-0.1,0.2l-0.1,0.1l0-0.1l0.1-0.4l-0.1,0l0,0.2L43,55.6l0.1,0.2l-0.1,0.4
		l-0.2,0.1l-0.1,0l0.1-0.2l0.1,0l0.1-0.3l-0.2,0l0-0.1l0,0.1l0,0.1l-0.2,0.1l0-0.1l-0.2,0.2l0,0.2l0.1,0.1l-0.1,0.1l-0.1,0.3l-0.1,0
		l-0.1,0.3l-0.2,0l0,0.1l0.1,0l0,0.2l-0.1,0l0-0.1L42,57.2l0,0.2l-0.2,0.3l0.1,0.2l-0.2,0.2l0,0.2l0.1,0.2l0,0.1l-0.1,0.1l0,0.2
		l-0.1,0.1l0.1,0.1l0.1-0.3l0.2,0l0-0.2l0-0.2l0.1-0.1l0-0.1l-0.1,0.1l0-0.1l0.2-0.4l0.1-0.1l0-0.2l-0.1,0l0.3-0.4l0.1,0l0.1-0.4
		l0.1,0l0-0.2l0,0l0-0.1l0.1-0.1l-0.1,0.5l-0.1,0l-0.1,0.3l0.1,0l0.1,0l-0.1,0.3l0-0.1l0,0.2l-0.1,0l0-0.1l-0.1,0l0-0.1l0-0.1l0,0.1
		l-0.2,0.3l-0.1,0l0,0.1l0.1,0l0,0.2l0,0.1l-0.1,0.1L42,58.5l-0.1,0l0,0.1l0.1,0.1l0,0.3l-0.2,0.1l0,0.2l-0.2,0.5l0,0.1l-0.2,0.3
		l-0.1,0.2l-0.1,0.1l-0.1,0.2L40,63.3l-0.1,0.1l0,0.1l-0.5,0.1l-0.4,0l-0.2,0l-0.1,0l-0.4,0l-0.4,0.1l-0.1-0.1l-0.1,0l-0.5-0.2
		l0.2,0l0.1,0l0-0.1l-0.4-0.1l0-0.1l-0.1-0.1l0.1-0.1l-0.1-0.2l0-0.1l0.1-0.3l0-0.5l0-0.1l0.1-4.8l-0.3,0.4l-0.2,0.5l-0.6,0.9l0,0.1
		l-0.7,1.2l-0.4,1l0,0.3l0.1,0.2l0,0.2l-0.1,0.1l-0.5,0l-0.5-0.1l-0.4-0.2l-1.1-0.1l-0.6-0.2L31.6,61l0-0.6l0.2-0.3l1.7-2.9l0.9-1.4
		l0-0.1L35,55l0.6-0.9l1.9-2.7l0.8-0.7l0.4-0.2l0.4,0.1l0.5,0.4l0,0.2l0.2,0l0.2,0.2l0.1,0.1l0.1,0l0.1,0.2l-0.1,0.1l0.1,0l0,0.1
		l0.1-0.1l0.1,0.1l0.1,0.3l0.1,0l0,0.1l0.1,0l-0.1,0.2l0,0.3l-0.1,0.4l0,0.3l-0.3,1.1l0,0.1l0,0.1l-0.1,0.4l0,0.3L40,55.7l0,0.1
		l0.1-0.1l0.1,0L40,56.4l0,0.1l-0.1,0.1l-0.1,0l-0.1,0.4l0,0.1l0.2-0.1l0.5-0.6l0.2-0.3l0.9-1l0.2-0.2l0.1,0l0.2-0.2l0-0.1l0.3-0.3
		l0.2-0.1l0.5-0.6l0.2,0l0.2-0.2l0.2-0.2l0.1,0l0.2-0.2l0.2-0.2l0.2-0.2l0.1,0l0.2-0.2l0.1,0l-0.1,0.1l0.2-0.1l0,0.1l0.1,0.1
		l0.1-0.1l0-0.3l0.1,0l-0.1,0l0,0.1l0.2,0l0-0.1l0.1-0.1l0,0.2l0.1,0l0-0.1l0.1,0.2l0,0.1l0,0.3l0.2,0l0.1-0.2l0,0.2l-0.1,0.1l0.1,0
		l-0.3,0.3l0,0.1l0.1-0.1l0.1,0l0.2-0.1l0,0l-0.2,0.1l0,0.1l0.1,0l0.1-0.1l0.1,0.1l0-0.1l0.1,0l-0.1,0.2l-0.2,0l-0.1,0.1l0.2,0.1
		l-0.2,0.1l-0.1,0l0.1,0.1l0.1-0.1L45.9,54l0,0.1l0,0.1l-0.1,0l0,0.1l0.1,0l0.1-0.2l0,0.1l0-0.2l0.1-0.1l0.1,0.1l-0.1,0.1l0.1,0
		l0,0.1l-0.2,0.3l0.1,0.2l0,0.1l0.1,0l0,0.2l0.1,0l-0.1,0.2l0.1,0l0,0.2l-0.1,0.1l0,0.1l-0.1,0.2l0,0.2l-0.1,0.3L46,56.5L45.9,57
		l-0.1,0.2l-0.2,0.1l-0.1,0.2l-0.2,0l0-0.1l0.1,0l0.1-0.3l0.2-0.1l0.1-0.2l-0.2-0.1l-0.1,0.1l0,0.1l0.1-0.1l0.1,0.1L45.5,57l0,0.2
		l-0.2,0.1l-0.1,0.2l0,0.2l0.2-0.1l0.1,0.1l-0.1,0.1l0,0l-0.1,0L45,58l-0.1,0.1l0.1,0.2l0.2-0.2l0.1-0.1l0.1-0.3l-0.2,0.6l-0.2,0.1
		l0,0.1l-0.1,0L44.7,59l0.2,0l-0.1,0.3l0,0l-0.1,0.2l-0.1,0.1l0,0.1l0.3-0.2l0.1-0.1l0,0.2l-0.2,0.1l0,0.1l0.1,0.1l-0.1,0l0,0.1
		L44.6,60l-0.1,0.2l0,0.1l-0.1,0l-0.2,0.3l0,0.1l0.1,0l0.2-0.1l0,0.1l-0.1,0.1l-0.1,0l0,0.1l-0.1,0.1l-0.3,0.4l-0.1,0.2l-0.1,0.4
		l0.1,0.1l0.1-0.5l0.2-0.1l0.1-0.3l0.1,0l0.1-0.2l0.1,0.1l-0.1,0l0.1,0.1l0,0.2l0.1,0.1l0.1,0l0-0.2l0.1,0l0-0.1l0.1-0.1l-0.1-0.2
		l0.1,0l0.3-0.3l0,0.1l0,0.1l0,0.1l-0.2,0.1l0.2-0.1l0,0.1l-0.2,0.3l0,0.1l-0.1,0l0,0.1l0.1,0.1l-0.2,0.1l-0.1,0.1l-0.2,0.1L44.4,62
		l0.2,0.1l0.2-0.3l0.2-0.1l0.2-0.3l0.1,0l0,0.1L45,61.5l0,0.2l-0.2,0.1L44.7,62l0,0.2l-0.2,0l0,0.2l-0.2-0.1l0,0.3l-0.1,0.2l0.1,0
		l0.2-0.3l0.1-0.1l-0.1,0.2l-0.4,0.3L44.1,63L44,63l0,0.1l0.1-0.1l0.1,0l0-0.2l0.1-0.1l0.1,0.1l0.1-0.3l0.2-0.2l0.1-0.3l-0.1,0.4
		l-0.1,0.1l-0.2,0.4L44.4,63l-0.1,0.3l-0.1,0.1l0,0.2l-0.1,0l0,0.1l0.1-0.1l0,0.1l0.1,0.1L44.1,64l-0.2,0.2l-0.1,0.3l-0.1-0.1
		l-0.1,0.1l-0.1,0l-0.1,0.2l0.1,0l-0.2,0.2l0-0.1L43,64.7l-0.2,0.1l0.1-0.5l-0.2,0.1l0,0.1l-0.1,0.2l0-0.2l-0.1,0l-0.3,0.2l0.1-0.1
		l-0.1,0l0.1-0.2l-0.2,0.1l0-0.1L42,64.5l-0.1-0.1l-0.1,0l0,0.1l-0.1,0.1l0-0.1l-0.1,0.1l0,0.1L41.5,64.7L41.5,64.7z M40.2,60.2
		L40.2,60.2l0.1-0.2l-0.1,0L40.2,60.2z M40.3,60.5l0-0.2L40.3,60.5L40.3,60.5z M40.6,58.8l0.1,0l0.1,0l0-0.1L40.6,58.8L40.6,58.8z
		 M40.6,59.1L40.6,59.1l0.1-0.1l-0.1,0L40.6,59.1z M40.6,58.5l0.1-0.1l0-0.2l-0.1,0.1L40.6,58.5z M40.7,59.6l0.1,0l0.2-0.4l0-0.1
		l-0.1,0.1l-0.1,0.2l-0.2,0L40.7,59.6z M41,57.6L41,57.6l0.3-0.2l0.1-0.2l0-0.1l-0.1,0.3L41,57.5L41,57.6z M41.1,59.2L41.1,59.2
		l0.1-0.2l0.2-0.3l0-0.2l0-0.2l0.4-0.5l0-0.1l0.1-0.5l0.1-0.1l0.1-0.2l-0.1,0.2l-0.1,0l-0.1,0.3l-0.1,0.2l-0.1,0.5l-0.2,0.3l0,0.4
		L41.1,59l0.1,0.1L41.1,59.2z M41.3,59.4L41.3,59.4l0.1,0L41.3,59.4l0.1-0.2l-0.1,0L41.3,59.4z M41.5,55.8L41.5,55.8l0.2-0.3
		L41.5,55.8z M41.7,55.2l0.1,0l0-0.2L41.7,55.2z M41.8,64.9l-0.1,0.2L41.8,64.9L41.8,64.9z M41.7,56.8l0.1-0.1l0.2-0.2l0-0.2
		l0.1-0.2l0.1-0.3l-0.3,0.2l-0.1,0.2l0,0.2L41.7,56.8z M41.8,55.1l0.2-0.2l0-0.2l-0.1,0.2L41.8,55.1z M42,58.1l0.2-0.1l0.1-0.1
		l-0.1,0L42,58L42,58.1z M42.1,58.4L42.1,58.4l0.1,0l0.1,0l-0.1,0.1l-0.1,0.2l-0.1,0l0-0.1L42.1,58.4z M42.3,55l0.1-0.3L42.3,55
		L42.3,55z M42.3,57.5L42.3,57.5l0.1-0.1L42.3,57.5L42.3,57.5z M42.3,56.1L42.3,56.1l0-0.2L42.3,56L42.3,56.1z M42.5,57.8L42.5,57.8
		L42.5,57.8L42.5,57.8l0.2-0.1l0.2,0l-0.2,0.1l0,0.1L42.4,58l0.1,0.2l-0.2,0.2l0.1-0.4L42.5,57.8z M42.4,54.5l0.3-0.4l-0.2,0.1
		l-0.1,0l0,0.1L42.4,54.5L42.4,54.5z M42.4,63.7L42.4,63.7L42.4,63.7L42.4,63.7z M42.6,63.8l0.1-0.2l-0.2,0.1L42.6,63.8z M42.5,57.3
		L42.5,57.3l0.1-0.1L42.5,57.3z M42.6,64.2l0.1-0.1l0.1-0.2l-0.1,0L42.6,64.2z M42.6,55.5l0.1,0l0.1-0.2l-0.1,0L42.6,55.5z
		 M42.7,64.3l0.2-0.1l-0.1-0.1l-0.1,0.1L42.7,64.3z M42.7,63.5l0.2,0l0.1-0.2l0.1-0.2l0-0.1l0.2-0.2l0.1,0.1l0.2-0.1l0.1-0.5l0,0
		l0-0.2l0-0.2l-0.2,0.4l-0.1,0.3l-0.2,0.4l0.1-0.3L43,62.7L42.9,63l-0.1,0l0,0.1l-0.1,0l0,0.1l0.2-0.1l0.1,0.1l-0.2,0.1l0.1,0.1
		L42.7,63.5L42.7,63.5z M42.9,57.5l-0.1,0.1l-0.1,0l0-0.1L42.9,57.5z M42.8,56.1L42.8,56.1l0-0.1L42.8,56.1z M43,56.9l0,0.2l-0.2,0
		L43,56.9L43,56.9z M42.8,54.6L42.8,54.6l0.1-0.1L42.8,54.6L42.8,54.6z M43,55.5L43,55.5l0-0.2l0.2-0.2l-0.1,0l-0.1,0.2l0,0.2
		l-0.1,0.1L43,55.5z M42.8,64l0.1,0l0.1-0.1l0.2,0l0.2-0.4l0.2-0.3l0.2-0.1l0.1-0.2L43.7,63l-0.4,0.3l0-0.1l0,0.1l-0.1,0.4l-0.1,0
		l-0.2,0.2L42.8,64L42.8,64z M43,64.3l0.1-0.1l0-0.1L43,64.3L43,64.3z M43,57.4l0,0.1L43,57.4L43,57.4L43,57.4z M43.1,58.7
		L43.1,58.7L43,58.7L43.1,58.7z M43.2,56.3l0.1-0.2l0,0.1l-0.1,0.2l-0.1,0.3l-0.1,0l0.1,0L43.2,56.3z M43,63.4L43,63.4l0.2-0.1
		L43,63.4l0-0.1L43,63.4z M43.2,56.8l0,0.2L43,56.9L43.2,56.8z M43.1,57.2L43.1,57.2l0-0.1L43.1,57.2z M43.1,63.1L43.1,63.1l0.3-0.1
		l0.1-0.1l-0.1,0L43.4,63L43.1,63.1z M43.2,62.5l0.1-0.2l0,0L43.2,62.5z M43.3,53.7l0.1,0L43.3,53.7L43.3,53.7z M43.3,55.1l0-0.1
		L43.3,55.1L43.3,55.1z M43.4,61.8l0.2-0.1l0-0.2l-0.1,0.1l0,0.1L43.4,61.8L43.4,61.8z M43.7,64.5L43.7,64.5l-0.2,0l0-0.1L43.7,64.5
		z M43.6,62.6l0.1,0l0.1-0.3l-0.1,0l0,0.2L43.6,62.6z M43.6,57.6L43.6,57.6l0.1-0.2L43.6,57.6z M43.6,61.4l0.1-0.2l0.1-0.3l0.1-0.1
		l0-0.2l0.1-0.1l0-0.2l-0.2,0.2l-0.2,0.4l0,0.2l-0.1,0.2L43.6,61.4z M43.7,63.5l0.2-0.1l0-0.1L43.7,63.5L43.7,63.5z M43.6,64.2
		L43.6,64.2l0.2-0.1l0.1-0.2l0.1-0.2l0-0.1l-0.1,0l-0.1,0.1L43.7,64l0,0.1l-0.1,0.1L43.6,64.2z M43.6,64l0.4-0.3l0.1-0.3l-0.4,0.4
		L43.6,64z M43.7,54.6l0.1,0l0.1-0.2l0.2-0.1L44,54.1l-0.1,0l0,0.1L43.7,54.6z M43.8,60.3l0.1-0.1l0,0.1l0.3-0.5l-0.1,0l0.2-0.4
		L44,59.9l0,0.1l-0.2,0L43.8,60.3z M43.8,62.6L43.8,62.6l0.1-0.1l0-0.1l0.1-0.3l0.1,0l0-0.1l0.1-0.1l0-0.2l0.1-0.1l0.1-0.3l0.1,0
		l0-0.2l-0.2,0.2l0,0.1l-0.1,0.1L44,61.8l-0.1,0l-0.1,0.3l0.1,0L44,62l-0.1,0.5l-0.1,0.2L43.8,62.6z M43.8,54.1L43.8,54.1L43.8,54.1
		L43.8,54.1z M43.9,64.4L43.9,64.4L43.9,64.4L43.9,64.4L43.9,64.4z M43.9,54.9l0-0.2l-0.1,0L43.9,54.9L43.9,54.9z M44.1,64.1l0,0.1
		l-0.1,0l0-0.1L44.1,64.1z M44.3,53.4L44.3,53.4L44.3,53.4L44.3,53.4z M44.3,58.3L44.3,58.3L44.3,58.3L44.3,58.3z M44.3,59.2
		l0.2-0.1l0.2-0.2l-0.1,0l0.1-0.2l-0.1-0.1l0.2-0.2l0,0l0-0.2l-0.1,0l-0.1,0.1l0.1,0l0,0.2l0,0.1l-0.1,0.1l-0.1,0.3l0.1,0.1l-0.2,0
		l0.1,0.1L44.3,59.2L44.3,59.2z M44.3,59.8l0.2-0.4l-0.2,0.2L44.3,59.8z M44.3,60.4L44.3,60.4l0-0.1L44.3,60.4L44.3,60.4z
		 M44.4,60.1L44.4,60.1l0-0.2L44.4,60.1L44.4,60.1z M44.3,59.9l0.3,0l0,0l0-0.1l-0.2,0.1L44.3,59.9z M44.6,60.6l-0.2,0.1l0-0.1
		L44.6,60.6l0.2-0.5l0.1,0l0.1-0.2l0.2-0.1l-0.2,0.5l-0.2,0.1l0.1,0.1l0.1,0l0,0.1l0.1,0l0.1-0.5l0.1-0.1l0,0.1l-0.1,0.5l-0.3,0.2
		l-0.2,0.2l0.1-0.4L44.6,60.6z M44.5,57.8l0.3-0.3l-0.1,0l-0.1,0.1L44.5,57.8z M44.6,60.9l-0.1,0.2L44.6,60.9L44.6,60.9z M44.6,57.4
		l0.1-0.3L44.6,57.4L44.6,57.4z M44.8,57L44.8,57l0.1-0.3l-0.1,0.2L44.8,57z M45,59.4L45,59.4L45,59.4L45,59.4z M45,57.3l0.2-0.3
		l0.1-0.1l0.2-0.5l0,0.1l0.1,0l0.1-0.2l0.1,0l0.1-0.2l-0.1,0.1l-0.1,0l-0.2,0.2l-0.1,0L45,57.3z M45,59L45,59L45,59L45,59z
		 M45.1,61.2L45.1,61.2l-0.1,0.1l0.1-0.2L45.1,61.2z M45.4,58.7l0.1,0L45.4,59l0,0.4l-0.3,0.1l0.1-0.2L45.4,58.7z M45.2,56L45.2,56
		L45.2,56L45.2,56z M45.2,56.3L45.2,56.3l0.1-0.2l-0.1,0L45.2,56.3z M45.4,59.6L45.4,59.6l-0.1,0L45.4,59.6z M45.3,57.4l0,0.1
		L45.3,57.4L45.3,57.4z M45.3,55.7l0.1-0.1l0.1,0l0.2-0.5l0,0l0.1-0.1l0.1-0.1l0-0.2L45.9,55l-0.1,0l-0.4,0.3l-0.1,0.3L45.3,55.7z
		 M45.4,54.8L45.4,54.8l0.1-0.2l-0.1,0l0,0.1L45.4,54.8L45.4,54.8z M45.4,59.5L45.4,59.5l0-0.1L45.4,59.5z M45.5,53.9l0.1-0.1l0.1,0
		l0-0.2l-0.1,0l-0.1,0.1l0,0.1L45.5,53.9z M45.5,58.4l-0.1-0.3l0.1,0l0.1-0.3l0,0.1l-0.1,0.7l-0.2,0.1l0-0.1L45.5,58.4z M45.5,52.7
		L45.5,52.7L45.5,52.7L45.5,52.7z M45.5,54.5l0.2-0.2l0.1-0.1l0.1-0.3l-0.1,0l-0.1-0.1l0,0.1l0,0l0.1,0l0,0.1l0,0.1l-0.2,0
		L45.5,54.5L45.5,54.5z M45.6,55.9l0.1,0l0-0.3l-0.3,0.3L45.6,55.9z M45.6,57.7L45.6,57.7l0.1-0.3l0,0.3l-0.1,0.2L45.6,57.7
		L45.6,57.7z M45.6,53.5l0.1,0l-0.1-0.1L45.6,53.5z M45.6,56.6l0.2,0l0-0.1l-0.1,0L45.6,56.6L45.6,56.6z M45.7,55.4l0-0.2l-0.1,0
		L45.7,55.4L45.7,55.4z M45.8,56.7l0.1-0.1l0-0.2l-0.1,0L45.8,56.7L45.8,56.7z M45.9,54.7l0.2-0.2l0-0.1l-0.1,0l-0.1,0.1l0,0.1
		l-0.1,0.1L45.9,54.7z M46.3,53.5L46.3,53.5L46.3,53.5L46.3,53.5z"/>
	<path d="M47,64.8L47,64.8l-0.1,0.1L47,65l-0.2-0.1l0.1,0l-0.2-0.1l-0.1,0.1l-0.1,0l0-0.1l-0.1,0l-0.2,0.1l-0.5,0.1l-0.3-0.4
		l-0.1-0.3l0-0.1l-0.1-0.4l0.1,0l0-0.2l0.7-1.6l0.4-0.7l0-0.2l0.8-1.6l2-3.4l0.2-0.3l0-0.1l-0.1-0.1L49,55.1L49,54.8l0-0.1l0.2,0
		l0.2,0.1l0.5,0.1l0.1,0l0.1,0l0.5-0.4l0.2,0.1l0.2,0.2l1.8,0l0.2,0l0.2,0l0,0l0.3,0.1l0.2,0.2l0.2-0.1l0.3,0.1l0.1,0l0.2,0l0.5,0
		l-0.1-0.1l0.4,0l0,0.1l0.1,0l0,0.1l0.3,0.1l0,0.1l0.3,0.1l-0.1,0.1l0.4-0.1l0.1,0.2l0.1,0l0-0.1l0.2,0l0.3,0.2l0.2,0.4l-0.1,0.3
		l-0.1,0.1l0,0l0,0.1l-0.1,0l0-0.1l-0.2,0.2l-0.1-0.1l-0.1,0l0,0.1l0.1,0.2l-0.1,0.1l0,0.2L56,57.1l0,0.1l0.2,0L56,57.3l0.1,0.1
		l-0.1,0l-0.1,0l-0.3,0l-0.1,0l-0.1-0.1l-0.4,0l-0.3-0.1L54,57.2l-0.2,0l-0.5,0l-0.2,0l-0.7,0l-0.2,0.1l-0.2,0l-0.3,0.2l-0.2,0.3
		l-0.1,0l-0.3,0.3l-0.1,0.2l1.2,0l0.8,0.2l1.1,0.5l-0.2,0.1l-0.1,0l-1,0.1l-0.6,0.2l-0.2,0.2L52,59.8l-0.3,0.4l-0.4,0.2l-0.5,0.1
		l-0.4,0l-0.1,0.1l0-0.1l-0.5,0L49,61.9l0.1,0l2.4-0.4l0.5,0.1l0.3,0.2l0.5,0.5l-0.1,0.4l0.1,0l0,0.1l0.1,0l-0.1,0l-0.2,0.2l0.2-0.1
		l0.1,0l-0.1,0l0,0.1l0,0.1l-0.1,0.1l0-0.1l-0.1,0.1l0.1,0l0,0.1l-0.1,0l-0.3,0.2l-0.1,0l0.1-0.1l-0.2,0.2l-0.1,0l-0.1,0.1l-0.1,0
		l-0.1,0l-0.2,0.2l0-0.1l-0.4,0L51,63.8l-0.1,0l-0.1,0.1L50.6,64l0,0L50.5,64L50.4,64l0-0.1l0-0.1L50.2,64l0.1,0l-0.1,0L50,64.1
		l-0.1,0.1l0,0.1l-0.2,0.1l-0.2,0l-0.2,0.1l-0.2,0l-0.1,0.1l0-0.1l-0.2,0.1l0.1,0l-0.4,0.1l0-0.1l-0.2,0.2l-0.2,0l0,0.1l-0.2,0.1
		l0-0.1l-0.2,0l-0.1,0.1l-0.2,0l-0.4,0.1l0.1-0.1l-0.1-0.1L47,64.8L47,64.8z M47.2,64.9L47.2,64.9l0-0.1L47.2,64.9z M51.9,55.4
		l0.1,0L51.9,55.4L51.9,55.4z M52.4,55.8l0-0.2L52.4,55.8L52.4,55.8z M53,55.8L53,55.8l0.2-0.1l0-0.1l-0.1,0L53,55.7l-0.1,0l-0.1,0
		L53,55.8z M52.9,62.4L52.9,62.4l0.1-0.1L52.9,62.4z M53,62.6l-0.1,0.1L53,62.6L53,62.6z M53.5,56.1L53.5,56.1L53.5,56.1L53.5,56.1z
		 M53.6,55.6L53.6,55.6L53.6,55.6L53.6,55.6z M53.7,56.2l0.1-0.1l0.1,0l0-0.1L53.9,56L53.7,56L53.7,56.2z M54,55.2L54,55.2l-0.1-0.1
		L54,55.2z M54.1,55.9l0-0.1L54.1,55.9L54.1,55.9z M54.1,55.1l0.3,0.1L54.1,55.1L54.1,55.1z M54.1,56.3l0.2-0.1l-0.1-0.1l0.1-0.1
		l-0.1-0.1l0,0.1l-0.1,0.1L54.1,56.3z M54.5,56.2l0-0.2L54.5,56.2L54.4,56l-0.1,0.1L54.5,56.2z M54.8,56.4L54.8,56.4l0-0.2l-0.1-0.1
		l0-0.1L54.7,56l-0.1,0.2l0.1,0l0,0.1l0.1,0L54.8,56.4z M54.7,55.3L54.7,55.3l0.2-0.1L54.7,55.3z M54.8,55.7L54.8,55.7l0.1,0
		L54.8,55.7L54.8,55.7z M54.9,56.3l0.1-0.1l-0.1,0L54.9,56.3z M55,56.5l0.1-0.1l-0.2,0L55,56.5z M55,56.3l0.1,0l0-0.1L55,56.3
		L55,56.3z M55,55.8L55,55.8L55,55.8L55,55.8z M55.3,56.4L55.3,56.4L55.3,56.4L55.3,56.4z M55.4,55.4l0.1,0l0-0.1L55.4,55.4
		L55.4,55.4z M55.5,56.6L55.5,56.6l0-0.2L55.5,56.6L55.5,56.6z M56,56.9l0.1-0.2l-0.2,0L56,56.9z M56.4,57L56.4,57l-0.1,0.1l0,0
		L56.4,57z M56.5,57.3l-0.2,0.1l0.1-0.1L56.5,57.3z M56.6,56.8l0,0.1l-0.1,0l0-0.1L56.6,56.8z M56.8,56.6l0,0.2L56.8,56.6L56.8,56.6
		z"/>
</g>
</svg>
