<?xml version="1.0" encoding="utf-8"?>
<!-- Generator: Adobe Illustrator 19.2.1, SVG Export Plug-In . SVG Version: 6.00 Build 0)  -->
<svg version="1.1" id="Layer_1" xmlns="http://www.w3.org/2000/svg" xmlns:xlink="http://www.w3.org/1999/xlink" x="0px" y="0px"
	 width="168.5px" height="45px" viewBox="0 0 168.5 45" style="enable-background:new 0 0 168.5 45;" xml:space="preserve">
<style type="text/css">
	.st0{fill:#FFFFFF;}
	.st1{enable-background:new    ;}
</style>
<g>
	<path class="st0" d="M109.8,30.9c-0.4,0-0.7,0.1-1.1,0.1c-0.5,0.1-1.2,0.3-1.6,0.2c-1-0.4-1.7,0.1-2.6,0.2c-0.3,0-0.6,0.3-0.7,0.2
		c-1.1-0.5-2.1-0.1-3.2,0.1c-1.4,0.1-2.7,0.4-4.1,0.5c-0.9,0.1-1.8-0.1-2.6,0c-0.7,0.1-1.4,0.4-2.1,0.5c-2.6,0.3-5.2,0.5-7.7,0.7
		c-1,0.1-1.9,0.1-2.9,0.2c-2.5,0.2-5,0.5-7.4,0.7c-0.9,0.1-2.1-0.3-2.7,0.2c-0.8,0.6-1.4,0.1-2,0.3c-1.1,0.3-2.3-0.1-3.4,0.1
		c-0.3,0.1-0.6,0-0.9,0c-1.5,0-3-0.1-4.4-0.1c-1.3,0-2.6,0.2-3.9,0.3c-0.9,0-1.8-0.1-2.7-0.1c-1.9,0.1-3.8,0.3-5.7,0.3
		c-1.4,0-2.9-0.1-4.3-0.2c-5.9-0.2-11.8-0.4-17.7-1c-3.9-0.4-7.9-0.5-11.7-1.4c-2.7-0.6-5.1-1.5-7.2-3.3c-0.5-0.4-0.5-0.7-0.3-1.2
		c0.9-1.8,2.5-3,4.2-3.9c2.7-1.5,5.5-2.6,8.3-3.9c1-0.5,2-0.9,3-1.2c2.1-0.7,4.2-1.4,6.3-2.1c3-1,6-2,9.1-2.8
		c3.2-0.9,6.5-1.5,9.8-2.2c1.5-0.3,3-0.7,4.5-0.9c3.4-0.5,6.8-1,10.2-1.5c2.9-0.4,5.9-0.8,8.8-1.1s5.8-0.4,8.7-0.6
		c3.6-0.2,7.2-0.5,10.8-0.6c6.1-0.2,12.2-0.3,18.3-0.4c0.4,0,0.8,0,1.1-0.2c0.3-0.1,0.6-0.5,0.6-0.7c0-0.7-0.1-1.4-0.2-2.1
		c-0.2-0.9-0.8-1.4-1.8-1.4c-2.3,0-4.7-0.1-7-0.1c-5,0.2-10,0.5-15,0.8c-4.1,0.1-8.1,0.3-12,0.7c-4,0.4-7.9,1-11.8,1.5
		c-2.5,0.3-5,0.6-7.4,1c-5.2,0.9-10.4,1.8-15.6,3c-7,1.7-13.8,3.8-20.5,6.3c-3.9,1.5-7.8,3-11.5,5c-1.8,1-3.4,2.2-4.7,3.9
		c-1,1.4-1.6,2.9-1.2,4.7c0.6,2.7,2.3,4.3,4.6,5.5C11,37.2,16,38,20.9,38.7c3,0.5,6.1,0.5,9.1,0.7s5.9,0.4,8.9,0.5
		c1.4,0.1,2.9-0.1,4.3-0.1c3.9-0.1,7.8-0.1,11.8-0.2c3.6-0.1,7.3-0.3,10.9-0.5c3.5-0.2,7.1-0.4,10.6-0.7s7.1-0.6,10.6-0.9
		c3.1-0.3,6.2-0.5,9.2-0.8c0.9-0.1,1.8-0.4,2.7-0.5c2.7-0.3,5.5-0.4,8.2-0.8c4.6-0.5,9.2-1.2,13.8-1.3c0.7,0,1.5-0.1,2.2-0.3
		c2.7-0.5,5.4-1.2,8.1-1.4c5.9-0.5,11.7-1.7,17.5-2.6c2.1-0.3,4.1-0.8,6.2-1.2c0.2,0,0.4-0.1,0.6-0.2c1-0.3,2-0.7,3-1
		c1.8-0.5,3.6-1.1,5.4-1.5c1.1-0.3,2.3-0.5,3.1-1.3c0.5-0.5,1.2-1.1,1.3-1.7c0.4-1.9,0.3-3.9-1.5-5.2c-0.2-0.1-0.3-0.3-0.5-0.5
		c-1-0.8-2.1-1.5-3.5-1.4c-0.8,0.1-1.6,0-2.4-0.2c-1.1-0.2-2.1-0.6-3.1-1c-0.5-0.2-0.8-0.6-1.4-0.6c-0.5,0.1-1.1,0-1.6,0
		c-1.5-0.2-3.2,0-4.6-0.8c-0.5-0.3-1.2-0.2-1.8-0.3c-0.7-0.1-1.4-0.1-2.1-0.2c-2.3-0.2-4.5-0.4-6.8-0.5c-3.1-0.1-6.2-0.2-9.3-0.2
		c-5.1,0-10.1-0.1-15.2,0c-5.5,0.1-10.9,0.4-16.3,1.4c-0.9,0.2-1.9,0.2-2.8,0.4c-0.6,0.1-1.2,0.3-1.1,1.1c0.1,0.7,1.5,1.9,2.2,1.8
		c2.4-0.2,4.8-0.3,7.2-0.5c1.3-0.1,2.7-0.1,4,0c2.1,0.1,4.2,0.3,6.3,0.4c0-0.1,0-0.2,0-0.3c-1.2,0-2.3,0-3.5,0c0-0.1,0-0.2,0-0.2
		c1.7,0,3.4,0,5.1,0c6.4,0,12.8-0.1,19.2-0.1c1.8,0,3.6,0.1,5.4,0.8c0.2,0.1,0.5,0.1,0.7,0.1c2.9,0.3,5.8,0.7,8.8,0.9
		c2.1,0.2,4.1,1.2,6.3,0.3c0.5-0.2,1.2,0.2,1.7,0.4c1.4,0.4,2.7,0.9,4.1,1.3c0.3,0.1,0.6,0.1,0.8,0.3c0.3,0.2,0.7,0.5,0.7,0.8
		c0,0.2-0.4,0.6-0.6,0.8c-0.6,0.3-1.2,0.6-1.9,0.9c-1.4,0.6-2.9,1.2-4.3,1.7c-0.7,0.3-1.5,0.3-2.3,0.5c-3.6,0.8-7.2,1.6-10.8,2.2
		c-2,0.4-4,0.5-6.1,0.7c-3,0.3-5.9,1-8.9,1.2c-0.1,0-0.1,0-0.2,0c-2.1,0.2-4.3,0.3-6.4,0.5c-1,0.1-1.9,0.2-2.9,0.3
		c-0.8,0.1-1.6,0.4-2.4,0.5c-1.2,0.1-2.4,0-3.6,0.1C111.9,30.4,110.7,30.1,109.8,30.9z"/>
	<path d="M109.8,30.9c0.9-0.8,2.2-0.5,3.2-0.6c1.2-0.1,2.4,0,3.6-0.1c0.8-0.1,1.6-0.4,2.4-0.5c1-0.1,1.9-0.2,2.9-0.3
		c2.1-0.2,4.3-0.3,6.4-0.5c0.1,0,0.1,0,0.2,0c3-0.2,5.9-0.9,8.9-1.2c2-0.2,4.1-0.3,6.1-0.7c3.6-0.7,7.2-1.5,10.8-2.2
		c0.8-0.2,1.5-0.2,2.3-0.5c1.5-0.5,2.9-1.1,4.3-1.7c0.6-0.3,1.3-0.5,1.9-0.9c0.3-0.2,0.7-0.5,0.6-0.8c0-0.3-0.4-0.6-0.7-0.8
		c-0.2-0.2-0.5-0.2-0.8-0.3c-1.4-0.4-2.7-0.9-4.1-1.3c-0.6-0.2-1.3-0.6-1.7-0.4c-2.2,0.9-4.2-0.2-6.3-0.3c-2.9-0.2-5.8-0.6-8.8-0.9
		c-0.2,0-0.5,0-0.7-0.1c-1.7-0.7-3.6-0.8-5.4-0.8c-6.4,0-12.8,0.1-19.2,0.1c-1.7,0-3.4,0-5.1,0c0,0.1,0,0.2,0,0.2c1.2,0,2.3,0,3.5,0
		c0,0.1,0,0.2,0,0.3c-2.1-0.1-4.2-0.3-6.3-0.4c-1.3-0.1-2.7,0-4,0c-2.4,0.1-4.8,0.3-7.2,0.5c-0.7,0-2.2-1.1-2.2-1.8
		c-0.1-0.8,0.6-1,1.1-1.1c0.9-0.2,1.9-0.2,2.8-0.4c5.4-0.9,10.8-1.3,16.3-1.4c5.1-0.1,10.1,0,15.2,0c3.1,0,6.2,0.1,9.3,0.2
		c2.3,0.1,4.5,0.3,6.8,0.5c0.7,0.1,1.4,0.1,2.1,0.2c0.6,0.1,1.3,0,1.8,0.3c1.5,0.8,3.1,0.6,4.6,0.8c0.5,0.1,1.1,0.1,1.6,0
		c0.6-0.1,0.9,0.3,1.4,0.6c1,0.4,2.1,0.8,3.1,1c0.8,0.2,1.6,0.2,2.4,0.2c1.4-0.1,2.5,0.6,3.5,1.4c0.2,0.1,0.3,0.3,0.5,0.5
		c1.8,1.4,1.9,3.3,1.5,5.2c-0.1,0.6-0.8,1.2-1.3,1.7c-0.9,0.8-2,1-3.1,1.3c-1.8,0.5-3.6,1-5.4,1.5c-1,0.3-2,0.7-3,1
		c-0.2,0.1-0.4,0.1-0.6,0.2c-2.1,0.4-4.1,0.9-6.2,1.2c-5.8,0.9-11.6,2.1-17.5,2.6c-2.7,0.2-5.4,0.9-8.1,1.4
		c-0.7,0.1-1.5,0.3-2.2,0.3c-4.6,0.1-9.2,0.8-13.8,1.3c-2.7,0.3-5.5,0.5-8.2,0.8c-0.9,0.1-1.8,0.4-2.7,0.5c-3.1,0.3-6.1,0.6-9.2,0.8
		c-3.5,0.3-7.1,0.7-10.6,0.9c-3.5,0.3-7.1,0.5-10.6,0.7c-3.6,0.2-7.3,0.4-10.9,0.5c-3.9,0.1-7.8,0.1-11.8,0.2
		c-1.4,0-2.9,0.2-4.3,0.1c-3-0.1-5.9-0.3-8.9-0.5c-3.1-0.2-6.1-0.3-9.1-0.7C16,38,11,37.2,6.5,34.9c-2.3-1.2-4-2.8-4.6-5.5
		C1.4,27.7,2,26.2,3,24.8c1.2-1.7,2.9-2.9,4.7-3.9c3.7-2.1,7.6-3.5,11.5-5c6.7-2.6,13.6-4.6,20.5-6.3c5.1-1.3,10.4-2.1,15.6-3
		c2.5-0.4,5-0.7,7.4-1c4-0.6,8-1.2,11.9-1.6s7.9-0.6,11.8-0.8c5-0.3,10-0.6,15-0.8c2.3-0.1,4.7,0,7,0.1c1,0,1.6,0.5,1.8,1.4
		c0.2,0.7,0.2,1.4,0.2,2.1c0,0.3-0.3,0.6-0.6,0.7c-0.3,0.2-0.7,0.1-1.1,0.2C102.6,7,96.5,7.1,90.4,7.3C87,7.4,83.4,7.7,79.8,8
		c-2.9,0.2-5.8,0.3-8.7,0.6c-3,0.3-5.9,0.7-8.8,1.1c-3.4,0.5-6.8,0.9-10.2,1.5c-1.5,0.2-3,0.6-4.5,0.9c-3.3,0.7-6.5,1.4-9.8,2.2
		c-3.1,0.8-6.1,1.8-9.1,2.8c-2.1,0.7-4.2,1.3-6.3,2.1c-1,0.4-2,0.8-3,1.2c-2.8,1.3-5.6,2.5-8.3,3.9c-1.7,0.9-3.3,2.1-4.2,3.9
		c-0.3,0.6-0.2,0.9,0.3,1.2c2.1,1.8,4.6,2.6,7.2,3.3c3.9,0.9,7.8,1.1,11.7,1.4c5.9,0.5,11.8,0.7,17.7,1c1.4,0.1,2.9,0.2,4.3,0.2
		c1.9,0,3.8-0.3,5.7-0.3c0.9,0,1.8,0.1,2.7,0.1c1.3,0,2.6-0.2,3.9-0.3c1.5,0,3,0,4.4,0.1c0.3,0,0.6,0.1,0.9,0
		c1.1-0.3,2.2,0.2,3.4-0.1c0.6-0.2,1.2,0.3,2-0.3c0.6-0.5,1.8-0.1,2.7-0.2c2.5-0.2,5-0.5,7.4-0.7c1-0.1,1.9-0.1,2.9-0.2
		c2.6-0.2,5.2-0.4,7.7-0.7c0.7-0.1,1.4-0.4,2.1-0.5c0.9-0.1,1.8,0.1,2.6,0c1.4-0.1,2.7-0.4,4.1-0.5c1-0.1,2.1-0.6,3.2-0.1
		c0.2,0.1,0.5-0.2,0.7-0.2c0.8-0.2,1.6-0.6,2.6-0.2c0.4,0.2,1.1-0.1,1.6-0.2C109.1,31,109.4,30.9,109.8,30.9z"/>
</g>
<g class="st1">
	<path d="M32.3,21.9C32.3,21.9,32.3,21.9,32.3,21.9l-0.1-0.1l0,0.1h-0.1L32,21.9L32,22l0.1,0c0.1,0,0.1,0,0.1,0.1l0,0l-0.1,0
		l-0.1,0.1c0,0,0,0.1,0,0.1l0,0.1c0,0,0,0,0,0.1c0,0,0,0,0,0l-0.2,0c-0.1,0-0.1,0-0.1,0.1l0,0.1c0,0,0,0,0,0.1c0,0,0,0,0,0l0,0
		l-0.1,0l-0.1,0.1c0,0,0,0-0.1,0c0,0,0,0-0.1-0.1l0,0.1l0,0.1l-0.1,0h-0.1c0,0,0,0.1,0,0.1l0.1,0.1l0,0.1l-0.1,0.1
		c-0.1,0-0.1,0-0.2,0l-0.1,0.1c0,0-0.1,0-0.1,0l-0.1,0l-0.1,0.1h-0.1l-0.1,0.1l-0.1,0.1h-0.1c0,0,0,0.1,0,0.1l-0.1,0l-0.1,0l-0.1,0
		l0.1,0c0.1,0,0.1-0.1,0.1-0.1h-0.1l-0.1,0l-0.1,0.2c0,0.1-0.1,0.2-0.2,0.2l0-0.1c0-0.1,0-0.1,0-0.2c0,0-0.1,0-0.1,0l0,0.1h0h-0.1
		l-0.1,0c0,0,0-0.1,0-0.1l0-0.1l-0.1,0l0-0.1c0,0-0.1,0-0.1,0.1c0,0.1,0,0.2,0,0.2c0,0-0.1-0.1-0.1-0.1c0,0-0.1-0.1-0.1,0L28.7,24
		l-0.1,0.2l0,0.1c0,0,0,0.1,0,0.1l-0.1,0l-0.1,0l-0.1,0.1l-0.1,0.1c-0.1,0-0.1-0.1-0.1-0.1c0-0.1-0.1-0.1,0-0.2l0.1,0
		c0,0,0.1-0.1,0.1-0.1c0-0.1,0-0.1-0.1-0.1L28,24l0-0.1c0,0-0.1-0.1-0.1-0.1l-0.1-0.1l0-0.1l-0.1-0.2l0-0.1l0-0.1c0,0,0.1,0,0.1,0
		l0.1-0.2c0-0.1,0.1-0.1,0.2-0.2l0.2,0.1l0.2-0.1c0.1,0,0.1-0.1,0.2-0.1l0.2,0.1l0,0.1c0.1,0,0.2,0,0.2,0c0,0.1,0,0.1,0.1,0.2l0,0
		l0.2,0l0.2,0l0.1-0.1l0.3-0.2c0.2-0.1,0.3-0.1,0.3-0.2l0.1-0.1c0-0.1-0.1-0.1-0.2-0.2c-0.1-0.1-0.2-0.2-0.3-0.2l-0.3-0.2
		c-0.1,0-0.2-0.1-0.3-0.1s-0.2,0-0.5-0.1c-0.2,0-0.5-0.1-0.7-0.1h-0.5c-0.2,0-0.5,0-0.7,0.1c-0.1,0-0.2,0-0.2,0.1c0,0,0,0.1,0.1,0.2
		l0,0.2l0,0.1c0,0,0.1,0.1,0.1,0.1c0,0,0.1,0,0.1,0.1l0,0.4l0,0.1l0.1,0.1c0,0.1,0,0.2,0,0.2l0.1,0.3l0,0.2l0.1,0.1l0,0.2
		c0,0,0,0.1,0,0.1l0,0l0,0.1l0.1,0c0,0,0,0,0,0.1l-0.1,0c0,0,0,0,0,0l0,0.1l0,0.1l0.1-0.1c0,0,0,0,0,0.1c0,0,0,0.1,0.1,0.1l0,0.1
		l-0.1,0.1v0.2c0,0.1,0,0.1-0.1,0.1l0,0.1c0,0.1,0,0.1,0,0.2c0,0.1,0,0.1,0.1,0.2l0.1,0.7l0.1,0.3l0.1,0.3l0.1,0.3
		c0,0.1,0.1,0.2,0,0.3c0,0,0,0,0,0.1s0,0-0.1,0.1l-0.1,0.1l-0.1,0.1c0,0-0.1,0-0.1,0.1c-0.1,0.3-0.3,0.4-0.6,0.5l-0.1,0.1
		c0,0-0.1,0-0.1-0.1l-0.1-0.2L27,27.7l0-0.2l0-0.1l-0.1-0.1l0-0.2l0-0.1l-0.1-0.2l-0.1-0.1l0-0.2c0-0.1,0-0.2,0-0.3L26.6,26l-0.1,0
		l0-0.1l-0.1-0.3l0-0.1l-0.1-0.1c0-0.1,0-0.2-0.1-0.2l-0.1,0l0-0.1l-0.1-0.2l0-0.1l0-0.1c0,0-0.1-0.1-0.1-0.1l0-0.1L26,24.2L25.9,24
		c0-0.1,0-0.2-0.1-0.2l0-0.3l0-0.1l-0.1-0.1l0-0.1c-0.1,0-0.2-0.1-0.2-0.1c0,0,0-0.1,0-0.2l0-0.1c0,0,0,0,0,0l0,0l0-0.1l0-0.1l0.1,0
		l-0.1-0.2l0-0.1c0,0-0.1,0-0.1,0c0,0,0,0.1,0,0.1l0,0l-0.1-0.2l0-0.1l0-0.1l-0.1-0.1l0-0.3l0-0.1l0-0.1l0-0.2l0.1,0l0.2,0.1l0.2,0
		l0.1-0.1c0,0,0,0,0,0l-0.1-0.1c0.1-0.1,0.1-0.2,0.1-0.2c0,0,0-0.1,0-0.1c0,0,0-0.1-0.1-0.2l0-0.1c0,0,0.1,0,0.1,0l0,0.1
		c0,0,0.1-0.1,0.1-0.1l0-0.1l0.1-0.1l0.1,0l0,0l0-0.1l0,0.1c0,0,0,0.1,0,0.1c0,0,0.1,0,0.1-0.1c0,0,0,0,0.1,0c0,0,0,0,0.1,0l0.3,0
		l0.2,0c0.1,0,0.1-0.1,0.2-0.2c0-0.1,0.1-0.2,0.1-0.2l0.1,0l0.1,0.1l0.1,0l0.1,0l0.1,0.2l0,0c0-0.1,0-0.1,0-0.2c0.1,0,0.1,0,0.2,0
		l0.1-0.1c0,0,0.1,0,0.1,0l0.1,0l0.1-0.1h0.2c0,0,0.1,0.1,0.2,0.1l0.2,0l0.1,0l0.3,0c0.2,0,0.4,0,0.5,0.1l0.3,0.1l0.1,0
		c0.1,0,0.1,0,0.2,0l0.2,0.1l0.2,0.1l0.1,0.1c0.1,0,0.1,0,0.1,0l0.1,0.1l0,0.1l0.1,0l0.1,0l0,0.1c0,0,0,0.1,0.1,0.1l0.1,0l0.1,0
		c0,0,0-0.1,0-0.1l0.1,0l0.1,0l0,0.1c0,0,0.1,0,0.1,0c0,0,0.1,0.1,0.1,0.2c0,0.1,0.1,0.2,0.1,0.2l0,0.1l0.1,0.1l0,0.1l0.1,0.1
		c0,0,0,0.1,0,0.1c0,0-0.1,0-0.1,0.1l0,0l0,0c0,0,0,0.1,0,0.1V21.9z M26,20.8C26,20.8,25.9,20.9,26,20.8
		C25.9,20.9,25.9,20.9,26,20.8C25.8,20.8,25.8,20.8,26,20.8C25.9,20.8,25.9,20.8,26,20.8z M26,20.4L26,20.4L26,20.4
		C26,20.4,26,20.4,26,20.4L26,20.4z M27.5,20.1L27.5,20.1L27.5,20.1L27.5,20.1z M27.8,23.8L27.8,23.8l-0.1,0.1L27.8,23.8
		C27.8,23.8,27.8,23.8,27.8,23.8z M27.9,23.9L27.9,23.9L27.9,23.9L27.9,23.9C27.8,23.9,27.9,23.9,27.9,23.9L27.9,23.9z M28.9,20.4
		L28.9,20.4L28.9,20.4L28.9,20.4z M29,24C29,24,28.9,24.1,29,24c0,0.1,0,0.1-0.1,0.1s0,0,0,0C28.9,24.1,28.9,24.1,29,24
		C28.9,24,28.9,24,29,24z M29,20.1L29,20.1L29,20.1L29,20.1z M29.5,20.3L29.5,20.3l-0.3,0l-0.1,0l0-0.1H29l0,0.1l0,0.1l0,0.1
		c0,0,0.1,0,0.1,0c0,0,0,0.1,0,0.1l0.1,0.1l0.1-0.1C29.4,20.4,29.5,20.4,29.5,20.3C29.5,20.3,29.5,20.3,29.5,20.3z M29.1,24.1
		L29.1,24.1L29.1,24.1C29.1,24.1,29.1,24.1,29.1,24.1L29.1,24.1z M29.5,20.2C29.5,20.2,29.5,20.2,29.5,20.2c0-0.1-0.1-0.1-0.1-0.1
		l0,0.1L29.5,20.2L29.5,20.2z M29.8,20.4l-0.1-0.1l0,0.1l0,0.1l0,0.1c0.1,0,0.1,0,0.2,0C29.8,20.5,29.8,20.5,29.8,20.4z M29.6,23.5
		L29.6,23.5l0,0.2L29.6,23.5L29.6,23.5z M30.1,20.4l-0.1,0l0,0.1v0.1l-0.2,0l0,0.1l0.1,0l0.1,0c0,0,0.1,0,0.1,0l0-0.1L30.1,20.4z
		 M30.2,21.1L30.2,21.1L30.2,21.1L30.2,21.1z M30.4,20.5c0,0-0.1,0-0.1,0l0,0l0,0C30.3,20.6,30.4,20.6,30.4,20.5L30.4,20.5z
		 M31,21.1L31,21.1l-0.2,0c0,0-0.1,0-0.1-0.1c0,0,0-0.1,0-0.1l0.1-0.1l-0.1-0.1l0,0.1c0,0,0,0.1,0,0.1c0,0,0,0-0.1,0c0,0,0,0,0,0
		c0-0.1,0-0.1,0.1-0.1h-0.1l-0.1,0.1c0,0.1,0,0.1,0,0.1l0,0.1l0,0l0-0.1c0,0,0,0.1,0,0.2l0,0.1l0.1,0.1c0,0,0.1,0,0.1,0l0.1-0.1
		L31,21.1z M30.7,21.3C30.7,21.3,30.8,21.3,30.7,21.3C30.8,21.3,30.7,21.3,30.7,21.3z M30.9,23C30.9,23,30.9,23.1,30.9,23
		C30.9,23.1,30.9,23.1,30.9,23L30.9,23L30.9,23z M31,21.2C31,21.2,31,21.3,31,21.2C31,21.3,31,21.3,31,21.2
		C30.9,21.3,30.9,21.2,31,21.2C30.9,21.2,31,21.2,31,21.2z M31.1,21.6l-0.1-0.1l0,0L31.1,21.6L31.1,21.6z M31.1,21.5L31,21.4l0,0
		L31.1,21.5L31.1,21.5z M31.9,21.8L31.9,21.8L31.9,21.8L31.9,21.8L31.9,21.8z"/>
	<path d="M41.8,27.9L41.8,27.9l-0.1,0l-0.2,0.2l-0.3,0.2c0,0.1,0,0.1,0,0.1l-0.1,0L41,28.6l0,0.1c0,0-0.1,0-0.2,0l-0.1-0.2l-0.1,0
		l-0.1-0.2l-0.1,0l-0.1,0l-0.1-0.1V28c-0.1,0-0.1,0-0.2-0.1c0-0.1,0-0.1-0.1-0.1l-0.2-0.1l-0.1-0.2l-0.2-0.1l0-0.1l-0.1-0.1
		c0,0-0.1-0.1-0.1-0.1c0,0,0.1-0.1,0-0.1l-0.1,0l0-0.1c-0.1,0-0.1,0-0.1-0.1v-0.1l0,0l-0.1-0.1l0-0.1l-0.2,0l-0.1,0
		c0,0-0.1,0.1-0.1,0.1l-0.1,0l-0.1,0l-0.1,0.1l-0.2,0h-0.2l-0.3-0.1l-0.1,0l0,0l-0.3,0l-0.1-0.1l0,0l0,0.1c-0.1,0-0.1,0-0.2-0.1
		l-0.1-0.1l-0.1,0l0,0c-0.1,0-0.1,0-0.2,0l0,0l-0.1-0.1l-0.2,0l-0.2,0l-0.2,0l-0.1,0.2c0,0,0,0,0,0c0,0,0,0,0,0l0,0.2L35.5,27l0,0.1
		l-0.1,0.3l0,0.4l-0.1,0.5c0,0,0,0.1,0,0.1c0,0.1,0,0.2-0.1,0.4l-0.1,0.3l0,0.2l0,0.2l0,0l0,0.2l0,0L35,30l-0.1,0l-0.1,0l0-0.1
		l-0.1,0.1c0,0-0.1,0.1-0.1,0.1l-0.1-0.1l-0.1,0l-0.1-0.1l0,0l0,0l-0.1,0l0,0.1l0,0L34,29.8c0-0.1,0-0.1,0-0.1l0,0l0-0.1
		c0,0,0,0-0.1,0l-0.1,0c0,0,0,0,0,0.1l0.1,0l0,0l-0.1,0.1l-0.2,0l-0.1,0l0,0.1c0,0,0,0.1,0,0.1c0,0-0.1,0-0.1-0.1s0,0-0.1-0.1
		c0,0.1-0.1,0.1-0.1,0.1c0,0,0,0-0.1,0v-0.1l0,0l0-0.2l0.1-0.1l0-0.1c0-0.1,0-0.2,0.1-0.3l0-0.1l0-0.1v0v-0.3l0.1-0.2l0-0.1l0.1-0.5
		c0-0.2,0.1-0.3,0.1-0.4c0,0,0-0.1,0-0.1l0.1-0.2l0-0.4l0-0.1l0.1-0.5l0-0.4l0-0.3l0-0.1l0-0.1c0-0.1,0-0.1,0-0.2l0.1-0.1l0-0.1
		l0-0.2l0-0.2l0-0.1c0,0,0-0.1,0.1-0.1l0.1-0.1l-0.1-0.3l0.1,0l0.1,0l0-0.1v-0.1l-0.1-0.1l0,0l0-0.1l0-0.1l0-0.1l0.1-0.2l0.1-0.3
		l0,0c0,0,0,0,0,0l0-0.2l0-0.1L34,22.3c0-0.1-0.1-0.1,0-0.2c0,0,0.1,0,0.1,0l0.1,0l0,0.1h0c0,0,0-0.1,0-0.1L34.1,22l0-0.2l0.1,0
		v-0.1l-0.1-0.1c0-0.1-0.1-0.3-0.1-0.3l0-0.1c0,0,0-0.1,0-0.1l0.1,0l0,0l0-0.1l0.1-0.1l0.1-0.1l0-0.2c0.1,0,0.2,0,0.2,0l-0.1-0.1
		c-0.1-0.1-0.1-0.1-0.1-0.2c0-0.1,0.1-0.1,0.3-0.2l0-0.1l0.2,0l0.1,0v-0.1l0.1,0.1c0,0,0,0,0.1,0s0,0,0.1,0l0.1,0.1l-0.1,0
		c0,0,0,0.1,0,0.1l0,0l0,0.1l0.1,0l0.1,0l0-0.1l0.1,0.1l0-0.1c0,0,0,0,0.1,0l0,0.1c0,0,0.1,0.1,0.1,0.1l0.1,0h0.1l-0.1,0.1l0.1,0
		c0.1,0,0.1,0,0.2,0.1l0.1,0.2l0.2,0.2c0.1,0.1,0.1,0.2,0.1,0.2v0.2l0,0.1l0,0.1c0,0,0,0-0.1,0s0,0,0,0l0.1,0l-0.1,0.1
		c0,0,0.1,0,0.1,0c0,0,0.1,0,0.1,0l0,0.1l0,0.1l0.1,0l0.1,0.1l0,0.1l0.1,0.1l0,0.2l0.1,0c0,0,0.1,0,0.1,0v0.1l0,0c0,0,0.1,0,0.1,0
		l0.1,0.1l0.1,0c0,0,0,0,0,0.1l0.2,0.1l0,0.1l0.2,0.1l0.1,0.2l0.2,0.1c0,0,0,0.1,0,0.1l0,0.1l0.2,0.1c0,0,0,0,0,0c0,0,0,0,0,0
		l0.2,0.1l0.2,0.2l0,0.1c0,0.1,0,0.1,0.1,0.2l0.4,0.1c0,0,0.1,0,0.1-0.1c0,0,0.1,0,0.3,0.1l0.1,0.1l0,0.1l-0.1,0
		c0,0,0.1,0.1,0.1,0.1c0.1,0,0.1,0,0.1,0l-0.1,0.1l-0.1,0.1l0.1,0l0.1,0.1c0.1,0.1,0.1,0.2,0.1,0.2l0.1,0c0.1,0,0.1,0,0.1,0l0.1,0.1
		l0.1,0.1l0.1,0.2l0.1,0c0.1,0,0.1,0,0.1,0c0,0,0,0,0,0.1c0,0,0,0,0,0l0.1,0.1c0,0,0.1,0.1,0.1,0.1l0.1,0.1l0.2,0.1
		c0.1,0,0.1,0.1,0.2,0.1l0.1,0l0,0.1l0.1,0.1l0.1,0l0,0.1l0.1,0.1c0,0,0,0,0.1,0.1l0,0.1l0.1,0.1l0,0.1
		C41.7,27.8,41.7,27.8,41.8,27.9L41.8,27.9z M34.6,20L34.6,20l-0.1,0c0,0,0,0.1,0,0.1l0,0.1h-0.1l0,0l-0.1,0l0,0c0,0-0.1,0-0.1-0.1
		l0-0.1l0.1-0.1c0,0,0,0.1,0,0.1c0,0.1,0,0.1,0,0.1l0-0.1l0.1-0.1C34.5,20,34.5,20,34.6,20L34.6,20z M35.2,21.8c0,0-0.1,0-0.1,0
		s-0.1,0-0.1,0c0,0,0,0.1,0,0.1c0.1,0,0.2,0,0.2,0C35.2,21.8,35.2,21.8,35.2,21.8z M37.1,24.8c0-0.1,0-0.1,0-0.2
		c-0.1-0.1-0.2-0.1-0.2-0.2c0,0,0-0.1-0.1-0.2l-0.2-0.1l-0.1-0.2c-0.1-0.1-0.2-0.2-0.3-0.4l-0.3-0.4l-0.2,0l0,0l0.1,0.1l-0.1,0
		c0,0-0.1,0-0.1,0.1l0,0.1c0,0,0.1,0.1,0.1,0.1l-0.1,0c0,0-0.1,0-0.1,0l0.1,0l0,0.1l0,0.1l-0.1,0.1V24l-0.1,0l0,0l0.1,0l-0.1,0.1
		l0,0.2l-0.1,0.1c-0.1,0-0.1,0.1-0.1,0.1c0,0,0,0,0.1,0c0,0,0.1,0,0.1,0c0.1,0,0.2,0,0.2,0c0,0,0,0.1,0,0.1l0,0.1l0.1,0.1l0.2,0.1
		c0,0,0.1,0,0.1-0.1l0.1-0.1l0.1,0l0.2-0.2c0,0,0,0.1,0,0.1c0,0,0,0,0,0l0.3,0L37.1,24.8L37.1,24.8L37.1,24.8z"/>
	<path d="M49.4,25.5l-0.1,0.1v0.1c0,0,0,0.1,0,0.1l0,0c0,0,0,0.1,0,0.1c0,0,0,0.1,0,0.1l0,0c0,0,0,0-0.1,0l0,0.1v0.1L49,26.4
		c0,0,0,0,0,0c0,0,0,0,0,0c0,0-0.1-0.1-0.1-0.1c0,0-0.1,0-0.1,0l0,0.1l-0.1,0l-0.1,0l-0.1,0.2l-0.1,0.1l0,0.1c0,0,0,0-0.1,0
		l-0.1,0.1h-0.1v0.1l-0.1,0l-0.1,0.1l-0.2,0.3c-0.1,0-0.1,0-0.1,0.1c0,0-0.1,0.1-0.1,0.2c0,0-0.1,0-0.1,0l0,0h-0.2
		c0,0-0.1,0.1-0.1,0.1l-0.1,0.1c0,0,0,0-0.1,0c0,0,0,0,0,0l-0.1,0.1l-0.2,0l-0.1,0.1c-0.1,0-0.1,0-0.2-0.1l-0.1-0.1
		c0,0-0.1,0-0.1,0.1c0,0,0,0.1,0,0.1s0,0,0,0l-0.2,0l-0.1,0.1l-0.1,0l-0.1-0.2l-0.1,0l-0.2,0.1l0,0.1l-0.1,0l-0.1-0.1l-0.2,0l-0.2,0
		c-0.1,0-0.2,0-0.2-0.1l0-0.1l0-0.1l0-0.1l0.1,0.1c0,0,0,0,0.1,0v-0.2l0-0.1l0-0.1l0.1-0.1l0-0.2l0.1,0l0,0c0.1,0,0.1,0,0.1,0
		c0-0.1,0-0.1-0.1-0.1L45,26.7l-0.1,0l0,0l0.1,0l0,0l0-0.1l0.1,0l0.1-0.1c0,0,0,0,0-0.1l0-0.1h0.1c0,0,0-0.1,0-0.2l0-0.2l0-0.1
		l0.1-0.2c0,0,0.1,0,0.1,0l0.2-0.1c0.1,0,0.2-0.1,0.3-0.1c0.1,0,0.2,0,0.3,0.1c0,0.1,0,0.1,0,0.1l-0.1,0.1l0.1,0.1l-0.1,0.1
		c-0.1,0-0.1,0.1-0.1,0.1c0,0,0,0.1,0.1,0.1c0.1,0,0.1,0,0.2,0l0.1,0l0.2,0.1c0,0,0.1,0,0.1,0l0.3,0l0.3,0l0.3,0l0.2-0.1l0.1-0.1
		c0,0,0,0,0,0c0,0,0,0,0,0l0-0.1l-0.2-0.3l-0.1-0.2l-0.1-0.1l-0.1-0.1l-0.1-0.2l0-0.1l-0.1-0.1c0,0-0.1,0-0.1-0.1c0-0.1,0-0.1,0-0.1
		c0,0-0.1,0-0.1,0l-0.2,0l0-0.1l0,0c-0.1,0-0.1,0-0.1,0c0,0-0.1,0-0.1,0l-0.3-0.4l-0.2-0.1L46.1,24L46,24l-0.2-0.1l-0.1-0.1
		l-0.1-0.1c0,0,0-0.1,0-0.1c0,0,0,0,0,0h-0.1l-0.2-0.1l-0.2-0.2l-0.2-0.1l-0.2-0.3l-0.3-0.2l-0.2-0.2l-0.3-0.2l-0.1-0.1
		c-0.1,0-0.2-0.1-0.3-0.1c-0.1-0.1-0.2-0.1-0.2-0.2c0-0.1-0.1-0.1-0.1-0.2L43,21.5l-0.2-0.3L42.6,21l0-0.1l-0.1,0c0,0,0,0,0-0.1
		c0,0,0,0,0,0l0-0.1l0-0.1l-0.1,0c0,0,0,0,0-0.1l0.1,0l0.1,0l0.1,0l0,0l0.1-0.1l0.1,0l0,0.1l0.2,0l0.2,0l0.2,0l0.2,0l0.2,0l0.1-0.1
		c0,0,0.1,0,0.2,0l0.2,0c0,0,0,0,0,0.1c0,0,0,0,0,0l0.1,0l0.1,0v-0.2c0,0,0-0.1,0.1-0.1l0,0.1l-0.1,0.2h0c0,0,0.1,0,0.2,0l0.2,0
		c0,0,0.1,0,0-0.1l-0.1-0.1l0.1-0.1l0-0.1l0.1,0l0.1,0l0,0l-0.1,0c0,0,0,0.1,0,0.1c0,0,0,0,0.1-0.1l0,0.1l0.1-0.1h0.1l0,0l0-0.1
		v-0.2c0.1,0,0.1,0,0.1,0v0l0,0c0,0,0,0.1,0,0.1c0,0-0.1,0.1-0.1,0.1l0.2,0v0l0,0l0.1,0.1c0,0,0,0,0.1,0c0,0,0-0.1,0-0.1l0-0.1
		c0,0,0.1-0.1,0.1-0.1c0,0,0.1,0,0.1,0.1l0,0l0,0h-0.1c0,0.1,0,0.1,0,0.1l-0.1,0.1c0,0,0,0,0,0.1c0,0,0.1,0,0.1,0H46l0-0.1
		c0.1,0,0.1,0,0.1,0l0.1,0l0,0c0,0,0.1,0.1,0.1,0.1l0,0.1l0,0h-0.1l0,0.1c0,0,0,0,0.1,0l0.1,0l0,0.1h0.1l0,0.1c0,0,0.1,0,0.1-0.1
		s0,0,0.1,0l0.1,0.1l0.1,0l0,0.1l0.1,0l0.1,0l0,0l0-0.1l0.1,0c0,0,0,0,0.1,0l0.1-0.1c0,0,0-0.1,0-0.1l0,0c0,0,0,0,0,0v0l-0.1,0l0,0
		c0-0.1,0-0.1,0-0.2c0-0.1,0.1-0.1,0.1-0.1l0.1,0l0.1,0l0,0.2c0,0.1,0,0.1,0.1,0.1c0,0,0,0,0-0.1l0-0.1l0.1,0v-0.1l0.1,0.1
		c0.1,0,0.2,0,0.3,0l0.1,0.1h0.1l0.1,0.1l0.1,0l0,0c0,0,0,0,0.1,0c0.1,0,0.1,0,0.2,0.1l0.2,0.2l0.2,0.1c0.1,0.1,0.1,0.1,0.1,0.2v0.4
		c0,0-0.1,0.1-0.1,0.1l-0.1,0l0,0.1l-0.1-0.1l-0.1,0.1l0-0.1l-0.1-0.1l-0.1,0l-0.1-0.1c-0.1,0-0.1,0-0.2,0.1l-0.1,0.1l0,0.1l0,0.2
		l0,0l0,0.1l0,0L48,21.8l0.1,0l0.1,0l0,0l0,0.1L48.1,22L48,22c0,0,0-0.1,0-0.1c0,0,0,0,0,0l-0.1,0c0,0,0,0,0,0s0,0,0,0l0,0.1v0.1
		l0,0.1l-0.2,0c0,0-0.1-0.1-0.1-0.1l0.1-0.1l0.1-0.2c0-0.1-0.1-0.1-0.1-0.1l-0.1-0.1v-0.1l-0.2-0.1c-0.1,0-0.1,0-0.1,0l-0.2-0.1
		l-0.2-0.1h-0.1l-0.2-0.1l0,0l-0.1,0.1l-0.1-0.1L46,21.1l-0.2,0L45.7,21h-0.1l-0.1,0l-0.2-0.1c0,0-0.1,0-0.1,0c0,0-0.1,0-0.1,0
		c0,0,0,0.1,0,0.2c0.1,0.1,0.1,0.1,0.2,0.1l0.4,0.2l0.3,0.2l0.1,0.1l0.3,0.1l0.1,0.1l0.2,0.2l0.4,0.2c0.1,0.1,0.1,0.2,0.2,0.2
		l0.5,0.4l0.2,0.2l0.3,0.3l0.2,0.2l0.1,0.1l0.1,0.1c0,0,0.1,0.1,0.1,0.1s0.1,0.1,0.1,0.1c0.1,0.1,0.1,0.2,0.2,0.2c0,0,0,0.1-0.1,0.1
		c0,0,0,0.1,0,0.1l0.2-0.1c0,0,0,0.1,0,0.1l0,0.1h0.1l0,0.2v0.3c0,0,0,0.1,0,0.1l0.1,0.1v0.3L49.4,25.5z M44.1,21.6L44.1,21.6
		L44.1,21.6L44.1,21.6z M44.9,22.3c0-0.1,0-0.1-0.1-0.1l0-0.1l0,0l0.1,0L44.8,22v-0.2l0-0.1l-0.1-0.1l0-0.1l0-0.1c0,0-0.1,0-0.1,0.1
		l0,0l-0.1,0l0-0.1c0,0-0.1,0-0.1-0.1l-0.1,0.1l0-0.1l0-0.1l0,0c0,0.1,0,0.2,0,0.2l0.2,0c0,0,0,0,0.1,0c0,0,0,0,0,0l0,0.2l0.2,0
		l0,0.1c0,0,0,0,0,0.1l0.1,0c0,0,0,0,0,0s0,0,0,0c0,0,0,0.1,0,0.1c0,0.1,0,0.1,0,0.1c0,0,0,0,0,0.1C44.8,22.3,44.8,22.4,44.9,22.3
		L44.9,22.3z M44.6,21.3C44.6,21.4,44.6,21.4,44.6,21.3C44.6,21.4,44.6,21.3,44.6,21.3z M45.3,22.4l-0.1-0.2l0.1,0l0,0V22
		c0,0,0-0.1-0.1-0.1l-0.1,0.1l-0.1,0l-0.1-0.1l0,0.1l0.1,0l0,0.1L45.3,22.4z M45.9,20.2L45.9,20.2l-0.1,0l0,0l0,0c0,0,0-0.1,0-0.1
		l-0.1,0l0-0.1c0,0-0.1,0.1-0.1,0.1c0,0,0,0,0,0.1c0,0,0,0,0,0l-0.1-0.1c0,0,0,0-0.1,0l0,0v0.1l-0.1,0.2c0,0,0,0.1,0.1,0.1l0.2-0.1
		l0.1,0l0.1-0.1l0.1,0.1h0.1L45.9,20.2z M45.5,26.2l-0.1,0l0,0L45.5,26.2l0,0.1L45.5,26.2C45.6,26.2,45.6,26.2,45.5,26.2z
		 M45.6,22.5L45.6,22.5c-0.1,0-0.1,0-0.2,0v0L45.6,22.5l-0.1,0.1C45.5,22.6,45.6,22.6,45.6,22.5C45.6,22.6,45.6,22.5,45.6,22.5
		C45.6,22.5,45.6,22.5,45.6,22.5z M45.6,20.5L45.6,20.5l0,0.1L45.6,20.5C45.6,20.5,45.6,20.5,45.6,20.5z M46.6,23.2c0,0-0.1,0-0.1,0
		c0,0-0.1,0-0.1,0.1c0,0.1,0,0.1,0.1,0.1l0.1,0.1C46.6,23.4,46.6,23.3,46.6,23.2L46.6,23.2z M46.6,20.1L46.6,20.1V20
		C46.6,20,46.6,20,46.6,20.1L46.6,20.1z M46.9,23.5C47,23.5,46.9,23.4,46.9,23.5l-0.2-0.2l0,0l-0.1,0l0,0.2l-0.1,0l0,0.1l0.2-0.1
		L46.9,23.5z M46.9,20.1v0.1l0,0.1l-0.2-0.2c0,0,0-0.1,0-0.1l0,0C46.7,20.1,46.7,20.1,46.9,20.1L46.9,20.1z M46.8,23.3L46.8,23.3
		L46.8,23.3L46.8,23.3z M46.9,24.4L46.9,24.4L46.9,24.4L46.9,24.4z M47,27.6L47,27.6c0-0.1,0-0.1,0-0.1L47,27.6
		C46.9,27.5,46.9,27.5,47,27.6L47,27.6L47,27.6z M47.2,24.5L47,24.4l0,0C47,24.5,47.1,24.5,47.2,24.5L47.2,24.5
		C47.1,24.6,47.2,24.6,47.2,24.5C47.2,24.5,47.2,24.5,47.2,24.5z M47.4,27.5L47.4,27.5L47.4,27.5C47.3,27.5,47.3,27.5,47.4,27.5
		L47.4,27.5z M47.5,20.6L47.5,20.6l-0.1,0.1C47.5,20.7,47.5,20.7,47.5,20.6C47.5,20.7,47.5,20.6,47.5,20.6z M48.1,26.8L48.1,26.8
		L48.1,26.8L48.1,26.8C48.1,26.8,48.1,26.8,48.1,26.8z M48.2,21.4l-0.1-0.2v-0.1L48.2,21.4L48.2,21.4z M48.3,21.9L48.3,21.9
		L48.3,21.9L48.3,21.9z M48.5,21.2L48.5,21.2l-0.1,0.1c0,0,0,0-0.1,0c0,0,0-0.1,0-0.1C48.4,21.2,48.5,21.2,48.5,21.2z M49.5,25.3
		C49.5,25.3,49.5,25.3,49.5,25.3L49.5,25.3L49.5,25.3C49.5,25.3,49.5,25.3,49.5,25.3z"/>
	<path d="M60.8,21.3L60.8,21.3L60.8,21.3l-0.1,0.1c-0.1,0-0.1-0.1-0.2-0.1l-0.2,0.2l-0.1,0c0,0-0.1,0-0.2,0L60,21.6l0.1,0.2
		c0,0,0.1,0,0.1,0.1c0,0,0,0,0,0.1L60,22l0,0.1l0,0.1c0,0-0.1,0-0.1,0c0,0-0.1,0-0.1,0l0,0.1c0,0-0.1,0-0.1,0c0,0,0,0.1,0,0.1
		c0,0-0.1,0-0.1-0.1c0,0,0-0.1,0-0.1c0,0,0,0,0,0l-0.1,0.1l-0.1,0.1c0,0-0.1-0.1-0.1-0.1l-0.2,0l-0.1,0l-0.1-0.1l0,0.1l-0.1,0
		l-0.1-0.1l-0.1,0.2c0,0-0.1,0-0.1-0.1c0,0,0-0.1-0.1-0.1l-0.2,0l-0.2,0l-0.2,0l-0.1,0l-0.2-0.1l-0.2-0.1l-0.2,0.1l-0.1,0l-0.1,0
		l-0.2,0l-0.2-0.1l-0.1,0l0,0l-0.1,0l-0.3,0l-0.1,0l-0.2,0L55.4,22c0,0-0.1,0-0.2,0l-0.1,0l-0.1,0l0.1,0.1c-0.1,0-0.1,0.1-0.1,0.1
		l0.1,0.1c0,0-0.1,0-0.1,0l-0.1,0l0,0.1l0,0l0,0.1l0,0.1c0,0.1,0,0.2-0.1,0.3l-0.1,0.1c0,0,0,0.1,0,0.1l0.1,0l0,0.1l0.1,0.2
		l-0.1,0.1c0,0.1,0,0.1,0,0.2l0,0.2v0.2c0,0,0,0.1,0,0.1c0,0.1,0,0.1,0,0.2l0,0h0.1l0,0.3l0.1,0.1l0,0.1l0,0.1l0,0.1l0.1,0.1l0,0.3
		l0,0.1c0.1,0,0.1,0,0.1,0.1v0.3l0,0c0,0,0,0.1,0,0.2l0,0.2c0,0.1,0,0.1,0,0.2l0.2,0.3c0.1,0.1,0.1,0.2,0.1,0.3l0,0.1l-0.1,0.1
		l0,0.2l-0.1,0.2l-0.1,0l-0.1,0.1l-0.1,0L55,27.8l-0.3,0.1l-0.1,0c0,0-0.1,0-0.1,0c0,0,0,0.1,0,0.1s0,0.1,0,0.1c0,0,0,0,0,0
		c0,0-0.1,0-0.1,0c0,0,0,0.1,0,0.1l0.2,0.1l0,0l0,0l0,0.2l0,0.1c0,0.1,0,0.1-0.1,0.1l-0.2,0l-0.1,0.1c0,0-0.1-0.1-0.1-0.1l-0.1,0
		c-0.1,0-0.1,0-0.1,0l0-0.1L54,28.6l-0.1,0l0-0.2l-0.1-0.2l0-0.2l0-0.2l0-0.2l0-0.2l0-0.1l0-0.2l-0.1-0.4l0-0.3l0-0.1l0-0.2L53.7,26
		c0-0.2-0.1-0.4-0.1-0.6l0-0.2l0-0.2l0-0.2c0-0.1,0-0.1-0.1-0.2s-0.1-0.2-0.1-0.3l0-0.5l-0.1-0.3l0-0.1l0-0.1l0-0.1c0,0,0,0,0-0.1
		c0,0,0,0-0.1,0l0,0l0-0.2l-0.1-0.1l0-0.1l-0.1-0.1l0-0.1l-0.1-0.4l0-0.1l0,0l0.1,0l0.1,0.1c0.1,0,0.1-0.1,0.1-0.2c0,0,0,0,0,0
		c0,0,0,0,0,0l-0.2,0l-0.2,0l-0.1,0h-0.1c0,0-0.1,0-0.3,0h-0.5l-1.4-0.2l-0.2,0c-0.1,0-0.1,0-0.2,0l-0.2-0.1c0,0-0.1-0.1-0.1-0.1
		l0-0.3l-0.1,0l0-0.1l0-0.1c0,0,0,0,0,0l0.1,0l0.1-0.2c0,0,0-0.1,0-0.1v0l0.1,0c0-0.1,0-0.1,0-0.2v0l-0.1-0.3c0-0.1,0-0.1,0-0.1
		c0,0,0.1,0,0.1,0l0.3,0.1c0.1,0,0.2,0,0.3,0l0.1,0l0.1,0l0.1,0l0.2,0l0.1,0l0.1-0.1l0.1,0.1l0.1,0h0.1c0.1,0,0.2,0,0.2,0l0.1,0
		l0.3,0l0.1,0l0.7,0.1l0.1,0l0.2,0.1l0.1,0l0.3,0.1l0.1,0l0.2,0.1h0.4c0,0,0,0.1,0.1,0.1h0.1l0.3,0c0.1,0,0.2,0,0.2,0l0.3,0l0.1,0.1
		l0.3,0l0.2,0l0.2,0.1l0.4,0l0,0c0,0,0.1,0,0.1,0l0.1,0.1h0.1l0,0.1l0,0l0.1,0l0.1,0h0.1l0.2,0l0.2,0l0.2,0l0.2,0.1
		c0.1,0,0.2,0,0.2,0l0.1,0l0.1,0.1l0.1,0l0.2,0l0.2,0l0.2,0.1c0.1,0,0.1,0,0.2,0l0.3,0c0.2,0,0.3,0,0.3,0l0.1,0.1l0,0.1L60.8,21.3
		C60.8,21.3,60.8,21.3,60.8,21.3z M53.4,22.4l-0.1-0.1l-0.1,0l0,0L53.4,22.4C53.3,22.5,53.3,22.5,53.4,22.4L53.4,22.4z M53.6,23.1
		c0,0-0.1,0-0.1,0c0,0,0,0.1,0,0.1c0,0,0,0.1,0,0.1c0,0,0,0,0.1,0L53.6,23.1L53.6,23.1z M55.8,27.3L55.8,27.3l0,0.2L55.8,27.3z
		 M57.7,22.2C57.7,22.2,57.7,22.2,57.7,22.2C57.7,22.2,57.7,22.2,57.7,22.2C57.7,22.3,57.7,22.2,57.7,22.2z M58.9,21.3
		C58.9,21.4,58.9,21.4,58.9,21.3C58.9,21.4,58.8,21.4,58.9,21.3L58.9,21.3L58.9,21.3L58.9,21.3z M59.5,21.5c0,0,0,0.1,0,0.1
		c0,0,0,0.1-0.1,0C59.4,21.7,59.3,21.6,59.5,21.5C59.4,21.5,59.4,21.5,59.5,21.5z M59.5,21.4C59.5,21.4,59.5,21.4,59.5,21.4
		C59.4,21.4,59.4,21.4,59.5,21.4C59.4,21.4,59.4,21.4,59.5,21.4L59.5,21.4z M60,21.4C60,21.4,60.1,21.5,60,21.4c0,0.1,0,0.1,0,0.1
		C60,21.5,60,21.5,60,21.4C60,21.4,60,21.4,60,21.4z M60.1,21.8L60.1,21.8l-0.1-0.2C60.1,21.6,60.1,21.7,60.1,21.8z"/>
	<path d="M74.7,25.1l0,0.2l-0.1,0.1l0,0.1l0,0.1l-0.1,0.2l-0.2,0.3h-0.1L74,26.3c0,0-0.1,0.1-0.1,0.1c0,0,0,0-0.1,0l-0.2,0l0-0.1
		c0,0,0,0-0.1,0c0,0,0,0.1,0,0.2c0,0.1,0,0.2,0,0.2c0,0.1-0.1,0.1-0.1,0.1l-0.1,0l-0.1,0v0.1L73.2,27L73,27l-0.1,0.1l-0.2,0
		c-0.1,0-0.1,0-0.1,0l0,0c0,0,0-0.1,0-0.1c0,0,0-0.1,0-0.1c0,0-0.1,0-0.2,0l-0.1,0c0,0,0,0,0-0.1c0,0,0,0,0,0l-0.1,0l0,0l0,0l0,0
		l0,0.1c0,0-0.1,0.1-0.1,0.1h-0.1l-0.1,0l-0.1,0l-0.3-0.2l0-0.1c-0.1,0-0.1-0.1-0.2-0.1l0-0.1l0,0l-0.1,0l-0.2,0l-0.1-0.1l-0.1-0.1
		c-0.1,0-0.1,0-0.1,0l-0.1,0c0,0-0.1,0-0.1-0.1l0-0.2l-0.1-0.1l0,0l0-0.1l0-0.1l-0.1,0L70,26l0-0.2l-0.1-0.2c0-0.1-0.1-0.2-0.1-0.2
		l-0.1-0.1l-0.1,0L69.2,25l-0.3-0.3l-0.1-0.1l-0.1-0.1l-0.1,0l-0.2-0.1l0-0.1c0,0,0-0.1-0.1-0.1L68.3,24l-0.2-0.1l-0.1,0l-0.1,0
		l-0.2-0.2l-0.1-0.2c0-0.1,0-0.2,0-0.2l-0.2-0.2l0-0.2l0-0.1c0-0.1,0-0.1,0-0.2l0.1-0.3l0-0.2l0.1-0.1v-0.2l0.1-0.1l0-0.1
		c0-0.1,0-0.1,0-0.1l0.4-0.2l0-0.1c0,0,0-0.1,0.1-0.1l0.1,0l0-0.1c0,0,0.1,0,0.1,0l0.2-0.2l0.1-0.2l0.1,0l0.1-0.1l0.1-0.1h0.1h0.2
		c0.1,0,0.1,0,0.2,0l0.1,0l0.1,0l0-0.1H70l0,0.1c0,0,0,0.1,0,0.1l0.1,0l0.1-0.1l0.2,0l0.2,0l0.2,0.2c0.1,0,0.1,0.1,0.2,0.2l0.1,0.2
		l0.2-0.1l0.2,0.1l0.3,0l0.1,0.1v0.1l0.2,0l0.1,0.1l0.1,0.1l0.1,0l0.1,0l0,0.1l0,0.1l0,0.3c0,0-0.1,0-0.1,0.1c0,0.1,0,0.1,0,0.1
		l0.1,0l0.2,0c0.1,0,0.1,0,0.2,0c0,0,0.1,0,0.1,0.1l0,0.1l0,0.1l0.2,0.1c0.1,0.1,0.1,0.2,0.1,0.2l0.3,0.1c0,0.1,0.1,0.1,0.1,0.2
		l0.1,0l0.2,0.2l0,0.1h0.1c0,0,0,0.1,0,0.1c0,0,0,0.1,0,0.1l0.1,0.1c0,0,0.1,0.1,0.1,0.1l0.1,0.1l0.1,0.2l0.1,0.3l0.1,0.3l0.1,0.2
		l-0.1,0.1l0.1,0.1L74.7,25.1z M73.4,24.8c0-0.1,0-0.2,0-0.3l-0.1-0.1v-0.1l-0.1-0.1l-0.1-0.2L73,23.9l-0.1,0l-0.1,0l0-0.1
		c0-0.1,0-0.1-0.1-0.2l-0.1-0.1l-0.1-0.1c0-0.1,0-0.1-0.1-0.1l-0.1-0.1l0-0.1l-0.1,0l-0.1,0l-0.1-0.1c0,0,0,0,0.1-0.1L72,22.5
		c0,0-0.1,0-0.1,0l-0.1,0l-0.2-0.2l-0.2-0.2L71.2,22l-0.2-0.1l-0.1-0.2l-0.1,0l-0.2-0.1l-0.1-0.1l-0.2-0.1c0-0.1,0-0.1,0-0.1
		l0.1-0.1l0-0.1c-0.1,0-0.2,0-0.4,0.1l-0.2,0.1c-0.3,0.1-0.6,0.3-0.9,0.6c-0.3,0.3-0.5,0.6-0.5,0.9c0,0,0,0.1,0,0.2
		c0,0.1,0,0.1,0,0.2l0.2,0.4c0.2,0.3,0.4,0.6,0.7,0.9c0.2,0.2,0.5,0.4,1,0.6c0.3,0.2,0.7,0.3,1,0.4c0.3,0.1,0.6,0.2,1,0.2
		c0.2,0,0.4,0,0.6-0.1c0.2-0.1,0.3-0.1,0.5-0.2C73.3,25.1,73.4,25,73.4,24.8z M71.1,27C71.1,27,71.1,27,71.1,27l-0.2,0l-0.1-0.1l0,0
		l0.2,0.1C71.1,27,71.1,27,71.1,27z M71.5,27L71.5,27C71.5,27,71.5,27,71.5,27C71.5,27,71.4,27,71.5,27C71.5,26.9,71.5,26.9,71.5,27
		z M72.1,21.5L72.1,21.5L72,21.6l-0.1,0l0.1,0.1l0-0.1L72.1,21.5z M72.2,21.7c0,0-0.1,0-0.1,0.1C72.1,21.7,72.2,21.7,72.2,21.7
		C72.2,21.7,72.2,21.7,72.2,21.7z M72.5,21.4L72.5,21.4L72.5,21.4C72.5,21.4,72.5,21.4,72.5,21.4z M73.5,26.6
		C73.5,26.6,73.5,26.6,73.5,26.6L73.5,26.6L73.5,26.6L73.5,26.6L73.5,26.6z"/>
	<path d="M74.5,20.4l0,0.1C74.4,20.5,74.4,20.5,74.5,20.4L74.5,20.4z M74.5,21C74.5,21,74.4,21,74.5,21C74.5,21,74.5,21,74.5,21z
		 M74.6,20.4l0,0.2l0,0C74.5,20.6,74.5,20.5,74.6,20.4C74.6,20.4,74.6,20.4,74.6,20.4C74.6,20.3,74.6,20.3,74.6,20.4L74.6,20.4z
		 M87.3,25.8L87.3,25.8l-0.1,0.1l-0.1,0.2l-0.1,0l0,0l-0.1,0l-0.1-0.1c0,0.1-0.1,0.1-0.1,0.2l0,0c0,0,0,0,0,0l-0.1,0.1l0,0.1h0l0,0
		l0,0l0,0.2l0,0.1c0,0.1,0,0.1,0.1,0.2c0,0,0,0.1,0,0.1s0,0-0.1,0l0,0l0-0.1c0,0,0,0-0.1,0c0,0,0,0-0.1,0.1L86,26.9l-0.2-0.1l-0.2,0
		l-0.4-0.2l-0.1-0.1l-0.1-0.1l-0.2-0.1c0,0-0.1-0.1-0.2-0.1c-0.1,0-0.2,0-0.2,0l-0.1-0.1c0-0.1-0.1-0.1-0.2-0.1l0,0.1l0,0.2l-0.1,0
		c-0.1,0-0.1-0.1-0.1-0.1l0-0.1l-0.2,0L83.6,26l-0.4-0.1l-0.4-0.1l-0.4-0.1l-0.1,0c0,0-0.1,0-0.1,0l-0.1-0.1l0,0c0,0.1,0,0.1,0,0.1
		c0,0-0.1,0-0.1,0l-0.1,0c0,0-0.1,0.1-0.1,0.1l-0.3,0l-0.2-0.1l-0.1-0.1l-0.1,0l0,0.1l-0.1,0L81,25.7l-0.1-0.1l-0.1,0l-0.1,0l0,0
		l-0.2,0l-0.1-0.1h-0.1l-0.1,0l-0.2-0.1l-0.2,0l-0.3-0.1l-0.2,0l-0.4,0l-0.2-0.1l-0.3-0.1c-0.1,0-0.1,0-0.2,0.1v0.2l-0.1,0.1
		l0.1,0.1l0,0.2c0,0.1,0.1,0.2,0.1,0.3c0,0,0,0.1-0.1,0.1c-0.1,0-0.1,0-0.1,0.1l0.1,0.1l0,0.1l0.1,0.2l0,0.2l0.1,0.1l0,0.1l0,0
		l0,0.1l0,0.2l0,0.1l0.1,0l0,0.1l0,0.1l0,0.3l-0.1,0.1l0,0.1l0,0.1l0-0.1c0,0,0,0-0.1-0.1c0,0-0.1,0-0.1,0l-0.1,0.1H78
		c0,0-0.1,0.1-0.1,0.1l-0.1,0l-0.1,0l0,0c-0.1,0-0.1,0.1-0.1,0.2l0,0.1l-0.1,0.1l0,0.2l-0.1,0L77.4,29c0,0-0.1,0.1-0.1,0.1l-0.1-0.1
		l0,0.1l0,0.1l0,0l-0.1-0.1H77L77,29l0-0.2l-0.1-0.3c0-0.1-0.1-0.2,0-0.3l0.1-0.1l0-0.2v-0.2l0-0.2c0-0.1,0.1-0.2,0.1-0.3
		c0,0,0-0.1,0-0.1l0,0l0-0.1c0-0.1,0-0.2,0-0.3l0.1-0.2l-0.1-0.6l0-0.1l0-0.2l0-0.2v-0.2l0-0.2l-0.1-0.1l-0.1-0.1l-0.1,0l-0.1-0.1
		l0-0.1l-0.1,0c-0.1,0-0.1-0.1-0.1-0.1l0.1-0.3l0.3-0.5c0,0,0-0.1-0.1-0.2c-0.1-0.1-0.1-0.1-0.1-0.2l0.2-0.2l0.1,0l0-0.1
		c0,0,0-0.1,0.1-0.1l0,0.1l0,0.2l0,0.1c0,0,0.1,0,0.1,0l0.1,0c0.1-0.1,0.2-0.2,0.2-0.4c0-0.1,0-0.1,0-0.1l0-0.1c0,0-0.1,0-0.1,0
		l0,0.1c0,0,0-0.1,0-0.1l0.1-0.1l0,0l0.1-0.1l0.1-0.2c0.1,0,0.1,0,0.1,0c0,0,0,0.1,0,0.2c0,0,0.1,0,0.1,0.1l0,0.1c0,0,0.1,0,0.1,0
		l0-0.1l0,0.1c0,0,0,0,0.1,0l0-0.2c0,0.1,0.1,0.2,0.1,0.2l0,0v0.1c0,0,0,0,0.1,0c0,0,0,0,0.1,0l0.1,0.2c0.1,0,0.1,0,0.2,0l0.2-0.1h0
		l0,0l0.2,0l0.1,0.1c0,0,0,0,0.1,0c0,0,0,0,0.1-0.1c0-0.1,0.1-0.1,0.1-0.1l0.2,0l0.2,0l0.2-0.1c0.1,0,0.2-0.1,0.3,0l0.1,0.1
		c0-0.1,0-0.1,0.1-0.2c0,0,0.1-0.1,0.2-0.1l0.2-0.1l0.4-0.1l0.2-0.1h0.2c0,0,0.1,0,0.1,0l0.1-0.1c0,0,0.1-0.1,0.1-0.1
		c0-0.1,0-0.1-0.1-0.1l-0.2,0L81,21.3l-0.3,0.1l-0.1,0l-0.1-0.1l-0.2,0l-0.1,0c0-0.1,0-0.1,0-0.1c-0.1,0.1-0.1,0.1-0.2,0.1l0-0.1
		L79.9,21c0,0-0.1,0-0.1,0l-0.2,0l0,0l-0.2,0l-0.1,0l0,0l-0.2,0l-0.2,0l-0.2-0.1l-0.2,0l-0.1,0l-0.1,0l-0.2,0l-0.2,0l-0.1,0l-0.1,0
		l-0.1,0c0,0,0,0-0.1,0l-0.1,0.1l-0.2,0l-0.2,0l-0.2,0.1l-0.5,0L76,20.9L75.8,21l-0.2,0l-0.2,0l-0.1,0.1l-0.1,0l-0.1,0
		c0-0.1,0-0.1,0-0.1c0,0,0,0,0,0c0,0,0,0.1-0.1,0.1c0,0,0,0-0.1,0l-0.1,0l0-0.1h-0.1l0-0.1l0,0l-0.1,0l0,0l0.2-0.1l0-0.1l-0.1-0.1
		c0,0,0,0,0-0.1l0-0.1l0.1-0.1l0-0.2c0,0,0-0.1,0.1-0.1l0.1,0l0.1-0.2c0,0,0.1-0.1,0.1-0.1c0.1,0,0.1,0,0.2-0.1l0-0.1
		c0,0,0-0.1,0-0.1l0.1,0l0,0c0,0,0.1,0,0.1-0.1l0.1-0.1c0,0,0.1-0.1,0.2-0.1l0.1,0c0.1,0,0.1,0,0.1-0.1l0.1-0.1l0.2-0.1l0.3-0.1
		l0.1,0l0.1,0l0.1-0.1c0,0,0,0,0,0c0,0,0,0,0,0l0.2,0l0,0.1c0.1,0,0.1,0,0.1,0l0.1-0.1h0.7c0.1,0,0.1,0,0.2,0l0.2,0l0.2,0.1l0.4,0
		l0.5,0.1l0.1,0l0,0.1l0.1,0.1l0.2,0.1h0l0.1,0l0.2,0c0,0,0,0,0.1-0.1c0,0,0.1,0,0.1,0.1l0.1,0.1l0.1,0c0,0,0.1-0.1,0.1-0.1l0.1,0.1
		l0.1,0c0.1,0,0.1,0.1,0.2,0.1l0.1-0.1c0,0,0,0,0.1-0.1l0,0.1l0,0.1l0.1,0c0,0,0,0,0.1,0s0.1,0,0.1,0.1l0.2,0.2l0.1,0l0.1,0.1
		c0.1,0,0.1,0,0.1,0.1l0,0.1c0,0,0.1,0,0.2,0l0.2-0.1l0,0.1l0.1,0.1H83l0,0.1l0.1,0.1l0,0.1c0,0.1,0,0.1,0.1,0.1l0.1,0.1L83,20.8
		l-0.2,0.3l-0.1,0.2l-0.2,0.1c0,0,0,0.1,0,0.2l0,0.1l-0.1,0l0,0.2c0,0.1,0,0.1-0.1,0.2l-0.2,0.1l0,0.2c0,0,0,0.1,0,0.1l-0.1,0l0,0
		c0,0.1,0,0.1-0.1,0.2l-0.1,0.1c0,0-0.1,0-0.3,0l-0.2,0.1l-0.1,0.1l0,0l0,0l-0.1,0l-0.1,0l0,0.2c0,0.1,0,0.1-0.1,0.2l-0.1,0l-0.3,0
		c0,0,0,0,0,0c0,0,0,0-0.1,0.1c0,0,0,0.1,0,0.1c0,0,0.1,0.1,0.2,0.1l0.2,0l0.6,0.1l0.4,0.1h0.2l0.4,0.2l0.2,0l0.3,0
		c0.1,0,0.1,0,0.2,0.1s0.1,0.1,0.2,0.1l0.3,0.1l0.3,0c0.2,0,0.4,0.1,0.5,0.1c0.2,0,0.4,0.1,0.6,0.2l0.7,0.3l0.7,0.3
		c0.1,0,0.2,0.1,0.3,0.1c0.1,0,0.2,0.1,0.3,0.2l0.2,0.1l0.1,0.1l0,0.1C87.2,25.8,87.2,25.8,87.3,25.8C87.3,25.7,87.3,25.7,87.3,25.8
		z M76.7,23.1C76.7,23.1,76.8,23.1,76.7,23.1c0,0.1,0,0.1,0,0.1C76.7,23.2,76.6,23.1,76.7,23.1C76.7,23,76.7,23,76.7,23.1z
		 M77.9,25.3L77.9,25.3l-0.1,0.1c0,0,0,0.1,0,0.1l0.1,0.1l0,0l0-0.1C77.9,25.3,77.9,25.3,77.9,25.3z M77.9,26.6c0,0,0,0.1,0,0.1l0,0
		L77.9,26.6L77.9,26.6z M78,25.4L78,25.4L78,25.4L78,25.4L78,25.4z M78.1,28.2L78.1,28.2L78.1,28.2L78.1,28.2z M79.9,23.3
		C79.9,23.3,79.9,23.4,79.9,23.3c0,0.1-0.1,0.1-0.1,0.1C79.8,23.4,79.8,23.3,79.9,23.3C79.8,23.3,79.9,23.3,79.9,23.3
		C79.9,23.3,79.9,23.3,79.9,23.3z M80.1,23.4L80,23.2l0,0l0,0.1L80.1,23.4L80.1,23.4L80.1,23.4z M81.1,22.9
		C81.1,22.9,81.1,23,81.1,22.9c0,0.1,0,0.1-0.1,0.1C81,23,81,23,81.1,22.9C81,22.9,81.1,22.9,81.1,22.9z M84.1,25.8
		C84,25.8,84,25.8,84.1,25.8l-0.1,0.1c0,0,0,0.1,0,0.1l0.1,0C84.1,25.9,84.1,25.9,84.1,25.8L84.1,25.8z M86.5,26.3
		C86.4,26.4,86.4,26.4,86.5,26.3L86.5,26.3C86.4,26.3,86.4,26.3,86.5,26.3z"/>
	<path d="M97.1,23.5c0,0,0,0.1,0,0.2L97,23.8L97,23.9l0-0.1c0,0,0-0.1,0-0.1c0,0,0,0,0-0.1l-0.2,0.1c0,0,0,0,0,0.1s0,0,0,0l-0.2,0
		l0,0l0,0L96.6,24c0,0.1,0,0.1-0.1,0.1l0-0.1l-0.1,0c0,0,0-0.1,0-0.1l0,0l0.1-0.1c0,0,0,0,0,0l-0.1,0L96.2,24c-0.1,0-0.1,0-0.1,0
		c0,0,0,0.1,0.1,0.1l0.3,0.1l0,0.1c0,0,0.1,0,0.1,0c0,0,0,0,0,0c0,0,0,0,0,0.1c0,0,0,0,0,0.1l-0.1,0.1l0,0.1c-0.1,0-0.1,0.1-0.2,0.1
		l0,0.1c-0.1,0-0.1,0-0.2,0l0,0.2l0,0c0,0-0.1-0.1-0.1,0l0,0.2c0,0,0,0-0.1,0s0,0,0,0l0,0.1c0,0,0,0.1,0,0.1c0,0-0.1,0.1-0.1,0.1
		c0,0-0.1,0-0.1,0.1l0,0.1c0,0.1,0,0.1-0.1,0.1c-0.1,0-0.1,0-0.2,0L95.4,26l-0.1,0c0,0-0.1,0-0.1,0l0,0.1c-0.1,0-0.1,0-0.2,0
		l-0.1,0.1l0-0.1c0-0.1,0-0.1,0-0.1l0,0l0,0.1l-0.1,0.1l0,0.1h-0.2l0,0.1c0,0-0.1,0.1-0.1,0.1c-0.1,0-0.2,0-0.3,0
		c-0.2,0-0.3,0-0.3,0c0,0-0.1,0-0.1,0.1c0,0-0.1,0.1-0.1,0.1l-0.2,0.1l-0.1,0.1l-0.1,0.1c0,0-0.1,0-0.2,0L92.9,27l-0.2,0.1l-0.1,0
		c0,0-0.1,0-0.2,0h-0.2l-0.1,0l-0.1,0l-0.1,0.1l-0.1-0.1L91.7,27l-0.2,0l-0.1-0.1l0.1-0.1l0.1-0.2v-0.1l0.2-0.2v-0.2
		c0-0.1,0-0.1,0-0.2l0.1,0c0,0,0-0.1,0-0.1c0,0-0.1-0.1-0.1-0.2l-0.1-0.2l-0.1-0.2l-0.1-0.2L91.5,25l-0.1-0.2l-0.2-0.2l-0.7-0.9
		l-0.1-0.2l-0.1-0.2l-0.1-0.1c-0.1-0.1-0.1-0.2-0.2-0.3l0-0.1l-0.1,0l-0.4,0.1c-0.1,0-0.2,0-0.3,0L89,22.9l-0.3,0L88.5,23
		c-0.1,0-0.1,0-0.2,0l-0.1-0.1l-0.1,0l-0.1,0c0-0.1,0-0.1,0-0.1l-0.1-0.1c0,0-0.1-0.1-0.1-0.1l0-0.1h0.1c0,0,0-0.1,0-0.1
		c0,0,0-0.1,0-0.1l0.1,0c0,0,0.1,0,0.1-0.1l0-0.1l0.1,0l0.1-0.2l0-0.1l0.1,0l0.1,0.1c0,0,0.1,0,0.1,0l0.1-0.1l0.1,0l0-0.1l-0.1-0.1
		l-0.1,0c0-0.1,0.2-0.1,0.3-0.2l0.4,0l0.1-0.1l0.3-0.1l0.5,0l0.2,0c0.1,0,0.1,0,0.2,0l0.2,0c0.1,0,0.2,0,0.3,0l0.2,0l0.2,0l0.3,0.1
		l0.3,0l0.2-0.1c0,0,0.1,0,0.2,0.1l0.1,0.1h0.3l0.1,0.1l0,0.1l0.1,0.2l0,0l0.1-0.1l0.1,0.2l-0.1,0c-0.1,0-0.1,0-0.1,0.1l0.1,0l0,0.1
		l0.1,0c0,0,0.1,0,0.1,0c0,0,0.1,0.1,0.1,0.1l0.1,0.1h0.2c0,0,0,0,0-0.1c0,0,0,0,0,0l0,0.1h0l0,0l0,0.1l0-0.1c0.1,0,0.2,0,0.2,0
		c0,0,0,0,0-0.1l0-0.1c0,0,0-0.1,0.1,0l0.2,0l0.1,0l0.1,0.1l0,0c-0.1,0-0.1,0-0.1,0c0,0,0,0,0,0.1l0.1,0.1c0,0.1,0,0.1,0.1,0.2l0,0
		l0-0.1l0,0.1h0.2c0,0,0.1,0,0.1,0.1l0,0.1l0,0l0.1-0.1l0.2,0.1l0-0.1l0.1,0c0,0,0.1,0,0.1-0.1v-0.1l0-0.1l0.2,0
		c0,0,0.1-0.1,0.1-0.1c0,0,0-0.1,0-0.1l-0.1,0v-0.1l0-0.1l0-0.1c0,0,0.1,0,0.1,0.1l0.1,0.1l0.1,0l0.1,0l0.3,0.3l0.1,0l0.1,0.1l0.1,0
		c0,0,0,0.1,0,0.1l0.1,0h0.1l0.1,0.1l0.1,0.1c0.1,0,0.1,0,0.1,0l0,0.2l0.1,0.1l0.1,0c0,0,0,0.1,0,0.1l0,0.1l0,0.1l0,0.1l0,0
		C97,23.5,97,23.5,97.1,23.5C97.1,23.5,97.1,23.5,97.1,23.5z M91.5,26.7L91.5,26.7l0.1-0.1L91.5,26.7z M95.4,24.8l0-0.1
		c0-0.1,0-0.3-0.1-0.4c-0.1-0.1-0.2-0.3-0.3-0.3c-0.1-0.1-0.2-0.2-0.4-0.3L94,23.4l-0.2-0.1l-0.3-0.1l-0.3-0.1L92.9,23l-0.1,0
		c-0.1,0-0.1,0-0.2,0s0,0,0,0.1l0.1,0.3c0.1,0.1,0.1,0.2,0.2,0.3l0.1,0.1v0.1l0.1,0.1l0,0.1c0,0,0.1,0,0.1,0c0,0,0.1,0.1,0.2,0.2
		l0.1,0.2l0.2,0.3l0.2,0.3l0.1,0.2l0,0.2l0,0.1l0,0.1c0,0,0,0,0,0.1l0.1,0l0.1-0.1c0,0,0.1,0,0.2-0.1l0.3-0.1l0.4-0.1
		c0.2-0.1,0.3-0.1,0.3-0.2l0-0.1C95.4,24.8,95.4,24.8,95.4,24.8z M92.6,21.7l-0.1,0.1L92.6,21.7L92.6,21.7z M93.4,21.7L93.4,21.7
		h-0.1l-0.1,0L93.4,21.7L93.4,21.7z M93.9,22.2L93.9,22.2l-0.1-0.1c0,0,0,0,0,0l0,0.1L93.9,22.2L93.9,22.2z M94.1,21.7
		c0,0,0,0.1,0,0.1c0,0,0,0-0.1,0C94,21.8,94,21.8,94.1,21.7C94,21.7,94,21.7,94.1,21.7z M94.3,26.4L94.3,26.4v-0.1
		C94.3,26.3,94.3,26.3,94.3,26.4L94.3,26.4z M94.3,22.3L94.3,22.3L94.3,22.3L94.3,22.3z M94.8,22L94.8,22c0,0.2,0,0.2,0,0.2l0,0
		c0,0,0-0.1,0-0.1c0,0,0,0,0,0l0,0l-0.2,0c0,0,0-0.1,0-0.1c0,0,0.1-0.1,0.2,0L94.8,22z M95.1,22.2C95.1,22.2,95.1,22.2,95.1,22.2
		C95.1,22.3,95.1,22.3,95.1,22.2l-0.1,0l-0.1,0c0,0,0-0.1,0-0.1c0,0,0.1,0,0.1,0C95,22.1,95.1,22.1,95.1,22.2z M95.2,22.3L95.2,22.3
		L95.2,22.3L95.2,22.3z M96,23.5L96,23.5l-0.1-0.1l0-0.1l0,0l0,0.1l0.1,0C95.9,23.6,96,23.6,96,23.5L96,23.5z M95.9,22.9L95.9,22.9
		L95.9,22.9L95.9,22.9L95.9,22.9z M96,23.3c0,0,0,0.1,0,0.1c0,0-0.1,0-0.1,0C95.9,23.4,95.9,23.4,96,23.3C95.9,23.3,96,23.3,96,23.3
		z M96,24.9L96,24.9L96,24.9L96,24.9z M96.3,23.7L96.3,23.7l-0.1-0.1l0-0.1l-0.1,0.1l0.1,0.1l0,0L96,23.8l0.1,0c0,0,0,0,0.1,0
		C96.2,23.8,96.2,23.8,96.3,23.7L96.3,23.7z M96.3,24.6C96.2,24.5,96.2,24.5,96.3,24.6L96.3,24.6L96.3,24.6z M96.5,23.9
		C96.6,23.9,96.6,24,96.5,23.9L96.5,24L96.5,23.9C96.5,23.9,96.5,23.9,96.5,23.9C96.5,23.9,96.5,23.9,96.5,23.9z M96.7,23.6
		L96.7,23.6l0,0.1L96.7,23.6L96.7,23.6z M96.7,23.5c0-0.1,0-0.1,0-0.2s0-0.1-0.1-0.1l0,0.2L96.7,23.5C96.7,23.4,96.7,23.5,96.7,23.5
		L96.7,23.5z M96.8,23.5C96.8,23.5,96.8,23.6,96.8,23.5C96.8,23.6,96.8,23.5,96.8,23.5z M96.9,23.8C96.9,23.8,96.9,23.9,96.9,23.8
		l0,0.1L96.9,23.8C96.8,23.8,96.8,23.8,96.9,23.8z"/>
	<path d="M107.2,26.8C107.1,26.8,107.1,26.9,107.2,26.8L107,27l0,0.1l-0.1,0l0,0.1c-0.1,0-0.2,0-0.2,0.1l-0.1,0.1l-0.1,0l-0.1,0
		l-0.1,0.1l-0.1,0.1c-0.1,0-0.2,0-0.2,0v0.1h0l0,0l-0.1,0l-0.3,0.3l-0.1,0l-0.1,0.1c0,0-0.1,0-0.1-0.1c0-0.1-0.1-0.1-0.1-0.1
		c0,0,0,0.1,0,0.1c0,0,0,0.1,0,0.1l0,0c0-0.1-0.1-0.1-0.1-0.1c0,0.1,0,0.1,0,0.1c0,0.1,0.1,0.1,0,0.1h0h-0.1c0,0,0,0,0-0.1
		c0,0,0,0,0,0c0,0-0.1,0-0.1,0.1l-0.1,0.1l-0.1,0l-0.2,0l-0.2,0l-0.1,0l0-0.1l-0.2,0l-0.1-0.1c0,0,0,0-0.1,0l0,0.1
		c0,0-0.1,0.1-0.1,0.1l-0.1,0l-0.2,0l-0.1,0l-0.1,0l-0.2,0l-0.2,0l0,0.1l-0.1,0h-0.2l0-0.1l0,0.1c0,0-0.1,0-0.1,0
		c0,0-0.1-0.1-0.1-0.1V28l0,0.1l-0.1,0l-0.1,0.1l-0.2,0c-0.1,0-0.1,0-0.1-0.1l0-0.1l-0.1-0.1l0-0.1l0,0c0,0,0,0,0,0.1
		c-0.1,0.1-0.1,0.2-0.1,0.2c0,0.1-0.1,0.1-0.2,0.1l-0.1-0.1l0-0.1c-0.1,0-0.2,0-0.2-0.1c0,0,0-0.1-0.1-0.1l-0.1,0.1c0,0,0,0-0.1,0
		c0,0,0-0.1,0-0.1l0-0.1c0,0,0-0.1-0.1-0.1l-0.1,0c0,0-0.1-0.1-0.1-0.1l-0.1,0l-0.1,0v0.1h-0.1l-0.1,0l-0.2,0l0-0.2
		c0,0-0.1-0.1-0.1-0.1c-0.1,0-0.1,0.1-0.2,0.1c0,0-0.1,0-0.1,0c0,0,0-0.1,0-0.1c-0.1,0-0.1,0-0.2-0.1l-0.1-0.1l-0.1-0.1
		c0-0.1,0-0.1-0.1-0.1l-0.2,0l0.1,0l0,0L99,27l0-0.1l-0.1,0l0-0.1l0-0.1l0,0.1c0,0,0,0-0.1,0l0-0.1l-0.1,0l-0.1-0.1l0-0.1
		c-0.1,0-0.1,0-0.1,0c0,0,0-0.1,0-0.1c0,0,0,0,0,0c0,0,0,0,0,0l-0.2-0.1l-0.1-0.2L98,26l0-0.2c0-0.1,0-0.1,0-0.1l-0.1,0v-0.2
		c0-0.1,0-0.1,0-0.1l-0.1,0l0,0c0,0-0.1-0.1-0.1-0.1l-0.1-0.1l-0.1-0.1v-0.1l0.1,0l0-0.2h0.1v-0.1l0-0.2l0.1-0.1l0-0.2
		c0,0,0-0.1-0.1-0.2l-0.1-0.2l0-0.1l0.1,0l0.2-0.1l0-0.1l0-0.1l0.1-0.2l0-0.1l0.1,0l-0.1-0.1l0.1-0.1l0.1-0.1c0-0.1,0.1-0.1,0.1-0.1
		l0-0.1c0,0,0-0.1,0-0.1l0.1,0.1c0.1,0,0.1,0,0.1,0l0-0.1l0-0.1h-0.1l0,0c0,0,0.1-0.1,0.1-0.1c0,0,0.1,0,0.1,0s0,0,0,0v-0.1l0,0
		l0-0.1l0-0.1l0-0.1l0,0l0,0.1l-0.1,0.1c0,0,0.1,0,0.1,0l0.1,0l0,0.1c0,0,0.1,0,0.1,0c0-0.1,0-0.1,0-0.2l0.1,0l0.1-0.1l-0.1-0.2
		l0.3-0.2l0-0.1c0-0.1,0-0.1,0-0.1c0.1,0,0.1,0,0.1,0v0l0,0c0-0.1,0.1-0.2,0.1-0.2c0,0,0.1,0,0.1,0c0,0,0.1,0,0.1,0l0.1-0.2
		c0.1,0,0.2,0,0.2-0.1l0-0.1c0.1,0,0.2-0.1,0.2-0.1c0,0,0,0,0.1,0l0.1-0.1l0.1,0c0.1,0,0.1,0,0.1,0c0,0,0-0.1,0-0.1l0.1,0l0.1-0.1
		l0.2,0c0,0,0.1,0,0.1,0l0,0h0.1l0.1-0.1l0.1,0.1l0.1,0l0.1,0.1l0,0.1l0,0.1l0,0l0,0.1l0,0.1c0,0,0,0,0,0s0,0,0,0l0.1,0l0.1,0
		l-0.1-0.1l0.1-0.1l0-0.2l0-0.2c0-0.1,0-0.1,0.1-0.1l0,0l0,0.1l0.1,0c-0.1,0-0.1,0-0.1,0c0,0,0,0,0,0.1l0.1,0l0.1,0l0,0.1l0,0.1
		c0,0,0.1,0,0.1-0.1l0-0.1l-0.1-0.1c0,0,0,0,0,0c0,0,0,0,0,0c0,0,0.1,0,0.2,0s0.1,0.1,0.2,0.1l0,0.1c0,0,0,0,0,0h0.1
		c0,0,0.1,0,0.1,0l0,0l0,0l0,0c0,0,0.1,0.1,0.1,0.1c0,0,0,0,0,0s0,0,0,0h0.3l0,0.1h0.1l-0.1,0.1c0,0,0,0.1,0,0.1c0,0,0,0,0,0l0,0
		c0.1,0,0.1,0,0.1,0.1l0.1,0.1c0,0,0.1,0,0.1,0l0.1-0.1l0.1,0l0,0h0.1l0,0.1l0.1,0l0,0l0,0l0,0l0-0.1l-0.1,0l0-0.1c0,0,0.1,0,0.1,0
		c0-0.1,0-0.1,0-0.1l0.1,0l0-0.1l0-0.1c0,0,0.1,0,0.1,0.1c0,0,0,0,0,0c0,0,0,0,0,0l0.1-0.1l0.1-0.1l0.1,0c0,0.1,0,0.1,0,0.1
		c0,0,0.1,0,0.1,0l0.1,0l0.1,0.1l0.2,0.1l0.3,0.1c0,0,0,0,0,0c0,0,0,0,0,0l0.2,0.1c0,0,0,0.1,0,0.1c0,0.1,0,0.1,0,0.1l0.1,0l0,0
		l0.1,0.1v0.1l0.1,0.1l0.1,0.1v0.2l0.1,0.1c0,0,0,0.1,0,0.1c0,0-0.1,0-0.1,0l-0.1-0.1l-0.1,0l-0.1,0l-0.1,0l-0.1-0.1
		c0,0-0.1,0.1-0.1,0.1c0,0-0.1,0.1-0.1,0.1c-0.1,0-0.2,0-0.2,0.1c0,0-0.1,0.1-0.1,0.1l0,0.1l-0.1,0.2l0,0l0,0c0,0-0.1,0.1-0.2,0.1
		l-0.2,0l0,0l0,0c0,0,0,0,0,0l-0.1-0.1v-0.1l-0.1-0.1l-0.1-0.1c0-0.1,0-0.2-0.1-0.2c0,0,0-0.1,0-0.2c0-0.1,0-0.1,0-0.1
		c0,0-0.1,0-0.1,0l0,0.1c0,0-0.1-0.1-0.1-0.1v-0.1c0,0,0,0-0.1,0c0,0,0,0,0,0h0c0-0.1,0-0.1,0-0.1l0,0l-0.1-0.1l-0.1,0c0,0,0,0,0,0
		l0-0.1l-0.1,0l-0.1-0.1l-0.1,0l0,0l-0.2,0c0,0-0.1,0-0.1-0.1l-0.1-0.1l-0.1,0c0,0,0,0-0.1,0l0-0.1l0-0.1c0,0,0-0.1-0.1-0.1
		c0,0,0,0,0,0c-0.1,0-0.1,0.1-0.1,0.1c-0.1,0.1-0.1,0.1-0.2,0.2l-0.1-0.1l-0.2,0l-0.2,0.1l-0.2,0.1l-0.1,0h-0.1l-0.2,0.2l-0.1,0
		l-0.3,0.2l-0.2,0.2l-0.2,0.1l-0.1,0l0,0.1l0,0.1l-0.2,0.1l0,0.1l-0.1,0.1l0,0l0.2,0l0.2,0c0,0,0.1,0,0.2,0l0.2,0l0.1,0l0.2,0l0.2,0
		l0.3,0h0.2l0.2,0l0.2,0h0l0,0l0.1,0.1l0.1,0l0.3,0c0.1,0,0.2,0,0.3,0c0.1,0,0.2,0,0.2,0l0.6,0.1l0.1,0l0.1,0l0.1,0l0.1-0.1l0.1,0
		l0,0l0.1,0l0.2,0l0,0l0.1,0l0.2,0.1c0.1,0,0.2,0.1,0.3,0l0.1-0.1l0,0l0.1,0l0.1,0l0.1,0l0.1,0l0.1,0c0.2,0,0.3,0,0.4,0.1l0.1,0
		l0,0.1v0.1l0,0c0,0,0,0.1,0,0.1l-0.1,0.1l0,0l0.1,0.1l0,0.2l0,0c0,0-0.1,0.1-0.1,0.1c0,0,0,0-0.1,0c0,0-0.1,0-0.1-0.1c0,0,0,0,0,0
		l-0.5,0l0,0l-0.1,0c0,0,0,0.1,0,0.1c0,0,0.1,0.1,0,0.1c0,0,0,0-0.1,0c0,0,0,0,0,0l-0.1,0.2h-0.1l-0.1,0.1l0,0l0,0.1
		c0,0.1,0,0.1-0.1,0.1l-0.2,0l-0.1,0l-0.2,0l-0.2,0l-0.3,0l-0.1-0.1l-0.1,0l0,0l-0.1,0l-0.2,0l-0.1,0.1c0,0-0.1,0-0.1,0
		c-0.1,0-0.1,0-0.1,0l-0.2-0.1l-0.2,0l-0.2-0.1l-0.3,0l-0.2,0.1l-0.1-0.1l-0.1,0l-0.3,0l-0.1,0.1l-0.1-0.1l-0.1,0l-0.2,0l-0.1,0
		l-0.2,0l-0.3,0l0,0l-0.1,0l-0.1-0.1c0,0-0.1,0.1-0.1,0.1c0,0,0,0,0,0s0,0,0,0l-0.1-0.1l-0.3,0l-0.2,0l-0.1,0.1h-0.1
		c0,0-0.1,0-0.1,0c0,0-0.1,0.1-0.1,0.2l0.1,0.3c0.1,0.2,0.2,0.4,0.3,0.7l0.2,0.3c0.1,0.1,0.2,0.1,0.4,0.3l0.4,0.2l0.1,0
		c0.2,0.1,0.5,0.3,0.8,0.4c0.1,0,0.3,0.1,0.4,0.1s0.3,0.1,0.4,0.1l0.7,0.1l0.5,0l0.7,0l0.7,0l0.3,0l0.3,0l0.2,0c0,0,0.1,0,0.2,0
		l0.2-0.1l0.1,0l0.3-0.1l0.2-0.1l0.1,0l0.1,0C107.1,26.8,107.1,26.8,107.2,26.8C107.1,26.8,107.1,26.8,107.2,26.8z M97.7,24.6
		C97.7,24.7,97.7,24.7,97.7,24.6L97.7,24.6C97.6,24.7,97.6,24.7,97.7,24.6C97.6,24.7,97.6,24.7,97.7,24.6z M98,23.5
		C98.1,23.5,98.1,23.6,98,23.5L98,23.5L98,23.5L98,23.5z M98.3,25.3L98.3,25.3L98.3,25.3C98.3,25.3,98.2,25.3,98.3,25.3L98.3,25.3z
		 M98.5,22.4L98.5,22.4L98.5,22.4L98.5,22.4z M99.1,21.9L99.1,21.9L99.1,21.9L99.1,21.9L99.1,21.9z M99.2,26.6L99.2,26.6
		c-0.1,0.1-0.1,0.1,0,0.2l0,0C99.2,26.7,99.2,26.6,99.2,26.6z M99.3,26.6C99.3,26.6,99.3,26.6,99.3,26.6c-0.1,0.1-0.1,0.1-0.1,0.1
		l0.1,0C99.3,26.6,99.3,26.6,99.3,26.6C99.3,26.6,99.3,26.6,99.3,26.6z M99.4,26.9L99.4,26.9L99.4,26.9L99.4,26.9z M100.6,27.7
		c0,0,0,0.1,0,0.1l-0.1,0C100.5,27.8,100.5,27.8,100.6,27.7C100.5,27.7,100.5,27.7,100.6,27.7z M100.9,20.8L100.9,20.8L100.9,20.8
		l-0.1,0c0,0-0.1,0.1-0.1,0.1V21c0,0.1,0.1,0.1,0.1,0C100.9,20.9,100.9,20.9,100.9,20.8z M100.9,27.7
		C100.9,27.7,100.9,27.8,100.9,27.7C100.9,27.8,100.9,27.8,100.9,27.7C100.8,27.8,100.8,27.8,100.9,27.7
		C100.9,27.7,100.9,27.7,100.9,27.7z M101,20.9L101,20.9L101,20.9L101,20.9z M101.3,20.7C101.3,20.8,101.3,20.8,101.3,20.7
		L101.3,20.7L101.3,20.7C101.2,20.7,101.3,20.7,101.3,20.7z M101.3,28L101.3,28l0,0.1L101.3,28L101.3,28z M101.3,21
		C101.3,20.9,101.3,20.9,101.3,21C101.3,20.9,101.3,20.9,101.3,21z M101.5,28.1L101.5,28.1L101.5,28.1L101.5,28.1L101.5,28.1z
		 M101.6,20.7L101.6,20.7L101.6,20.7l-0.1,0.1C101.6,20.8,101.6,20.8,101.6,20.7C101.6,20.8,101.6,20.7,101.6,20.7z M101.7,20.2
		L101.7,20.2L101.7,20.2L101.7,20.2z M102.2,27.7L102.2,27.7L102.2,27.7L102.2,27.7z M102.5,28.2L102.5,28.2L102.5,28.2L102.5,28.2
		L102.5,28.2z M102.7,21l0,0.1l0,0.1v-0.1L102.7,21z M103,20.9L103,20.9L103,20.9L103,20.9l-0.2,0.2v0.1c0,0,0.1,0,0.1,0l0-0.1
		l0.1-0.1C102.9,21,103,21,103,20.9C103,21,103,20.9,103,20.9z M102.9,20.7L102.9,20.7c0.1,0.1,0,0.1,0,0.1
		C102.9,20.8,102.9,20.8,102.9,20.7C102.9,20.7,102.9,20.7,102.9,20.7z M103.2,20.3L103.2,20.3L103.2,20.3l-0.2,0.1l0-0.1
		C103.1,20.4,103.1,20.4,103.2,20.3C103.2,20.3,103.2,20.3,103.2,20.3z M103.4,20.4L103.4,20.4c-0.1,0.1-0.1,0.1-0.2,0.1l0.1-0.1
		C103.4,20.4,103.4,20.4,103.4,20.4z M103.5,20.3L103.5,20.3l-0.1,0.2L103.5,20.3L103.5,20.3z M103.8,28l-0.1,0
		c-0.1,0-0.1,0-0.1,0.1c0,0,0.1,0.1,0.1,0.1L103.8,28L103.8,28z M103.7,20.3C103.7,20.3,103.7,20.3,103.7,20.3
		C103.6,20.4,103.6,20.3,103.7,20.3C103.6,20.3,103.6,20.3,103.7,20.3C103.6,20.3,103.7,20.3,103.7,20.3z M103.9,20.6L103.9,20.6
		L103.9,20.6L103.9,20.6z M104.1,20.1L104.1,20.1L104.1,20.1L104.1,20.1z M104.3,20.8l0,0.1L104.3,20.8L104.3,20.8z M104.4,20.6
		L104.4,20.6L104.4,20.6L104.4,20.6z M104.8,24.3L104.8,24.3l-0.1,0c0,0,0,0-0.1,0l0,0L104.8,24.3C104.8,24.3,104.8,24.3,104.8,24.3
		z M104.8,20.8l-0.1,0.1l0.1,0.1l0-0.1L104.8,20.8z M105.3,21.1C105.3,21.1,105.3,21.1,105.3,21.1l-0.1,0.1L105.3,21.1L105.3,21.1z
		 M105.9,20.1L105.9,20.1L105.9,20.1l-0.1,0.3c0,0.1-0.1,0.1-0.1,0.1l-0.2-0.1l0-0.1l0,0l-0.1-0.1l0.1-0.3c0.1,0,0.1,0,0.1,0
		l0.1-0.1c0,0,0.1,0.1,0.1,0.1c0,0,0,0.1,0.1,0.1L105.9,20.1z M105.5,27.8C105.5,27.8,105.5,27.8,105.5,27.8
		C105.5,27.8,105.5,27.8,105.5,27.8C105.5,27.8,105.5,27.8,105.5,27.8z M107.3,26.8L107.3,26.8L107.3,26.8L107.3,26.8L107.3,26.8z"
		/>
	<path d="M107.2,20.4l0,0.1C107.1,20.5,107.1,20.5,107.2,20.4L107.2,20.4z M107.1,21C107.1,21,107.1,21,107.1,21
		C107.2,21,107.2,21,107.1,21z M107.3,20.4l0,0.2l0,0C107.2,20.6,107.2,20.5,107.3,20.4C107.3,20.4,107.3,20.4,107.3,20.4
		C107.3,20.3,107.3,20.3,107.3,20.4L107.3,20.4z M120,25.8L120,25.8l-0.1,0.1l-0.1,0.2l-0.1,0l0,0l-0.1,0l-0.1-0.1
		c0,0.1-0.1,0.1-0.1,0.2l0,0c0,0,0,0,0,0l-0.1,0.1l0,0.1h0l0,0l0,0l0,0.2l0,0.1c0,0.1,0,0.1,0.1,0.2c0,0,0,0.1,0,0.1s0,0-0.1,0l0,0
		l0-0.1c0,0,0,0-0.1,0s0,0-0.1,0.1l-0.1,0.1l-0.2-0.1l-0.2,0l-0.4-0.2l-0.1-0.1l-0.1-0.1l-0.2-0.1c0,0-0.1-0.1-0.2-0.1
		c-0.1,0-0.2,0-0.2,0l-0.1-0.1c0-0.1-0.1-0.1-0.2-0.1l0,0.1l0,0.2l-0.1,0c-0.1,0-0.1-0.1-0.1-0.1l0-0.1l-0.2,0l-0.1-0.1l-0.4-0.1
		l-0.4-0.1l-0.4-0.1l-0.1,0c0,0-0.1,0-0.1,0l-0.1-0.1l0,0c0,0.1,0,0.1,0,0.1c0,0-0.1,0-0.1,0l-0.1,0c0,0-0.1,0.1-0.1,0.1l-0.3,0
		l-0.2-0.1l-0.1-0.1l-0.1,0l0,0.1l-0.1,0l-0.1,0.1l-0.1-0.1l-0.1,0l-0.1,0l0,0l-0.2,0l-0.1-0.1H113l-0.1,0l-0.2-0.1l-0.2,0l-0.3-0.1
		l-0.2,0l-0.4,0l-0.2-0.1l-0.3-0.1c-0.1,0-0.1,0-0.2,0.1v0.2l-0.1,0.1l0.1,0.1l0,0.2c0,0.1,0.1,0.2,0.1,0.3c0,0,0,0.1-0.1,0.1
		c-0.1,0-0.1,0-0.1,0.1l0.1,0.1l0,0.1l0.1,0.2l0,0.2l0.1,0.1l0,0.1l0,0l0,0.1l0,0.2l0,0.1l0.1,0l0,0.1l0,0.1l0,0.3l-0.1,0.1l0,0.1
		l0,0.1l0-0.1c0,0,0,0-0.1-0.1c0,0-0.1,0-0.1,0l-0.1,0.1h-0.1c0,0-0.1,0.1-0.1,0.1l-0.1,0l-0.1,0l0,0c-0.1,0-0.1,0.1-0.1,0.2l0,0.1
		l-0.1,0.1l0,0.2l-0.1,0l-0.1,0.1c0,0-0.1,0.1-0.1,0.1l-0.1-0.1l0,0.1l0,0.1l0,0l-0.1-0.1h-0.1l-0.1-0.1l0-0.2l-0.1-0.3
		c0-0.1-0.1-0.2,0-0.3l0.1-0.1l0-0.2v-0.2l0-0.2c0-0.1,0.1-0.2,0.1-0.3c0,0,0-0.1,0-0.1l0,0l0-0.1c0-0.1,0-0.2,0-0.3l0.1-0.2
		l-0.1-0.6l0-0.1l0-0.2l0-0.2v-0.2l0-0.2l-0.1-0.1l-0.1-0.1l-0.1,0l-0.1-0.1l0-0.1l-0.1,0c-0.1,0-0.1-0.1-0.1-0.1L109,24l0.3-0.5
		c0,0,0-0.1-0.1-0.2c-0.1-0.1-0.1-0.1-0.1-0.2l0.2-0.2l0.1,0l0-0.1c0,0,0-0.1,0.1-0.1l0,0.1l0,0.2l0,0.1c0,0,0.1,0,0.1,0l0.1,0
		c0.1-0.1,0.2-0.2,0.2-0.4c0-0.1,0-0.1,0-0.1l0-0.1c0,0-0.1,0-0.1,0l0,0.1c0,0,0-0.1,0-0.1l0.1-0.1l0,0l0.1-0.1l0.1-0.2
		c0.1,0,0.1,0,0.1,0c0,0,0,0.1,0,0.2c0,0,0.1,0,0.1,0.1l0,0.1c0,0,0.1,0,0.1,0l0-0.1l0,0.1c0,0,0,0,0.1,0l0-0.2
		c0,0.1,0.1,0.2,0.1,0.2l0,0v0.1c0,0,0,0,0.1,0c0,0,0,0,0.1,0l0.1,0.2c0.1,0,0.1,0,0.2,0l0.2-0.1h0l0,0l0.2,0l0.1,0.1c0,0,0,0,0.1,0
		c0,0,0,0,0.1-0.1c0-0.1,0.1-0.1,0.1-0.1l0.2,0l0.2,0l0.2-0.1c0.1,0,0.2-0.1,0.3,0l0.1,0.1c0-0.1,0-0.1,0.1-0.2c0,0,0.1-0.1,0.2-0.1
		l0.2-0.1l0.4-0.1l0.2-0.1h0.2c0,0,0.1,0,0.1,0l0.1-0.1c0,0,0.1-0.1,0.1-0.1c0-0.1,0-0.1-0.1-0.1l-0.2,0l-0.1-0.1l-0.3,0.1l-0.1,0
		l-0.1-0.1l-0.2,0l-0.1,0c0-0.1,0-0.1,0-0.1c-0.1,0.1-0.1,0.1-0.2,0.1l0-0.1l-0.3-0.1c0,0-0.1,0-0.1,0l-0.2,0l0,0l-0.2,0l-0.1,0l0,0
		l-0.2,0l-0.2,0l-0.2-0.1l-0.2,0l-0.1,0l-0.1,0l-0.2,0l-0.2,0l-0.1,0l-0.1,0l-0.1,0c0,0,0,0-0.1,0l-0.1,0.1l-0.2,0l-0.2,0l-0.2,0.1
		l-0.5,0l-0.2,0.1l-0.2,0.1l-0.2,0l-0.2,0l-0.1,0.1l-0.1,0l-0.1,0c0-0.1,0-0.1,0-0.1c0,0,0,0,0,0c0,0,0,0.1-0.1,0.1c0,0,0,0-0.1,0
		l-0.1,0l0-0.1h-0.1l0-0.1l0,0l-0.1,0l0,0l0.2-0.1l0-0.1l-0.1-0.1c0,0,0,0,0-0.1l0-0.1l0.1-0.1l0-0.2c0,0,0-0.1,0.1-0.1l0.1,0
		l0.1-0.2c0,0,0.1-0.1,0.1-0.1c0.1,0,0.1,0,0.2-0.1l0-0.1c0,0,0-0.1,0-0.1l0.1,0l0,0c0,0,0.1,0,0.1-0.1l0.1-0.1c0,0,0.1-0.1,0.2-0.1
		l0.1,0c0.1,0,0.1,0,0.1-0.1l0.1-0.1l0.2-0.1l0.3-0.1l0.1,0l0.1,0l0.1-0.1c0,0,0,0,0,0c0,0,0,0,0,0l0.2,0l0,0.1c0.1,0,0.1,0,0.1,0
		l0.1-0.1h0.7c0.1,0,0.1,0,0.2,0l0.2,0l0.2,0.1l0.4,0l0.5,0.1l0.1,0l0,0.1l0.1,0.1l0.2,0.1h0l0.1,0l0.2,0c0,0,0,0,0.1-0.1
		c0,0,0.1,0,0.1,0.1l0.1,0.1l0.1,0c0,0,0.1-0.1,0.1-0.1l0.1,0.1l0.1,0c0.1,0,0.1,0.1,0.2,0.1l0.1-0.1c0,0,0,0,0.1-0.1l0,0.1l0,0.1
		l0.1,0c0,0,0.1,0,0.1,0s0.1,0,0.1,0.1l0.2,0.2l0.1,0L115,20c0.1,0,0.1,0,0.1,0.1l0,0.1c0,0,0.1,0,0.2,0l0.2-0.1l0,0.1l0.1,0.1h0.1
		l0,0.1l0.1,0.1l0,0.1c0,0.1,0,0.1,0.1,0.1l0.1,0.1l-0.1,0.2l-0.2,0.3l-0.1,0.2l-0.2,0.1c0,0,0,0.1,0,0.2l0,0.1l-0.1,0l0,0.2
		c0,0.1,0,0.1-0.1,0.2l-0.2,0.1l0,0.2c0,0,0,0.1,0,0.1l-0.1,0l0,0c0,0.1,0,0.1-0.1,0.2l-0.1,0.1c0,0-0.1,0-0.3,0l-0.2,0.1l-0.1,0.1
		l0,0l0,0l-0.1,0l-0.1,0l0,0.2c0,0.1,0,0.1-0.1,0.2l-0.1,0l-0.3,0c0,0,0,0,0,0c0,0,0,0-0.1,0.1c0,0,0,0.1,0,0.1c0,0,0.1,0.1,0.2,0.1
		l0.2,0l0.6,0.1l0.4,0.1h0.2l0.4,0.2l0.2,0l0.3,0c0.1,0,0.1,0,0.2,0.1c0.1,0,0.1,0.1,0.2,0.1l0.3,0.1l0.3,0c0.2,0,0.4,0.1,0.5,0.1
		s0.4,0.1,0.6,0.2l0.7,0.3l0.7,0.3c0.1,0,0.2,0.1,0.3,0.1s0.2,0.1,0.3,0.2l0.2,0.1l0.1,0.1l0,0.1C119.9,25.8,119.9,25.8,120,25.8
		C119.9,25.7,120,25.7,120,25.8z M109.4,23.1C109.4,23.1,109.4,23.1,109.4,23.1c0,0.1,0,0.1,0,0.1C109.3,23.2,109.3,23.1,109.4,23.1
		C109.3,23,109.4,23,109.4,23.1z M110.6,25.3L110.6,25.3l-0.1,0.1c0,0,0,0.1,0,0.1l0.1,0.1l0,0l0-0.1
		C110.6,25.3,110.6,25.3,110.6,25.3z M110.6,26.6c0,0,0,0.1,0,0.1l0,0L110.6,26.6L110.6,26.6z M110.7,25.4L110.7,25.4L110.7,25.4
		L110.7,25.4L110.7,25.4z M110.8,28.2L110.8,28.2L110.8,28.2L110.8,28.2z M112.6,23.3C112.6,23.3,112.6,23.4,112.6,23.3
		c0,0.1-0.1,0.1-0.1,0.1C112.5,23.4,112.5,23.3,112.6,23.3C112.5,23.3,112.5,23.3,112.6,23.3C112.6,23.3,112.6,23.3,112.6,23.3z
		 M112.8,23.4l-0.1-0.1l0,0l0,0.1L112.8,23.4L112.8,23.4L112.8,23.4z M113.8,22.9C113.8,22.9,113.8,23,113.8,22.9
		c0,0.1,0,0.1-0.1,0.1C113.7,23,113.7,23,113.8,22.9C113.7,22.9,113.8,22.9,113.8,22.9z M116.8,25.8
		C116.7,25.8,116.7,25.8,116.8,25.8l-0.1,0.1c0,0,0,0.1,0,0.1l0.1,0C116.8,25.9,116.8,25.9,116.8,25.8L116.8,25.8z M119.2,26.3
		C119.1,26.4,119.1,26.4,119.2,26.3L119.2,26.3C119.1,26.3,119.1,26.3,119.2,26.3z"/>
	<path d="M127.6,25.5l-0.1,0.1v0.1c0,0,0,0.1,0,0.1l0,0c0,0,0,0.1,0,0.1c0,0,0,0.1,0,0.1l0,0c0,0,0,0-0.1,0l0,0.1v0.1l-0.2,0.2
		c0,0,0,0,0,0s0,0,0,0c0,0-0.1-0.1-0.1-0.1c0,0-0.1,0-0.1,0l0,0.1l-0.1,0l-0.1,0l-0.1,0.2l-0.1,0.1l0,0.1c0,0,0,0-0.1,0l-0.1,0.1
		h-0.1v0.1l-0.1,0l-0.1,0.1l-0.2,0.3c-0.1,0-0.1,0-0.1,0.1c0,0-0.1,0.1-0.1,0.2c0,0-0.1,0-0.1,0l0,0h-0.2c0,0-0.1,0.1-0.1,0.1
		l-0.1,0.1c0,0,0,0-0.1,0c0,0,0,0,0,0l-0.1,0.1l-0.2,0l-0.1,0.1c-0.1,0-0.1,0-0.2-0.1l-0.1-0.1c0,0-0.1,0-0.1,0.1c0,0,0,0.1,0,0.1
		s0,0,0,0l-0.2,0l-0.1,0.1l-0.1,0l-0.1-0.2l-0.1,0l-0.2,0.1l0,0.1l-0.1,0l-0.1-0.1l-0.2,0l-0.2,0c-0.1,0-0.2,0-0.2-0.1l0-0.1l0-0.1
		l0-0.1l0.1,0.1c0,0,0,0,0.1,0v-0.2l0-0.1l0-0.1l0.1-0.1l0-0.2l0.1,0l0,0c0.1,0,0.1,0,0.1,0c0-0.1,0-0.1-0.1-0.1l-0.1-0.1l-0.1,0
		l0,0l0.1,0l0,0l0-0.1l0.1,0l0.1-0.1c0,0,0,0,0-0.1l0-0.1h0.1c0,0,0-0.1,0-0.2l0-0.2l0-0.1l0.1-0.2c0,0,0.1,0,0.1,0l0.2-0.1
		c0.1,0,0.2-0.1,0.3-0.1c0.1,0,0.2,0,0.3,0.1c0,0.1,0,0.1,0,0.1l-0.1,0.1l0.1,0.1l-0.1,0.1c-0.1,0-0.1,0.1-0.1,0.1
		c0,0,0,0.1,0.1,0.1c0.1,0,0.1,0,0.2,0l0.1,0l0.2,0.1c0,0,0.1,0,0.1,0l0.3,0l0.3,0l0.3,0l0.2-0.1l0.1-0.1c0,0,0,0,0,0c0,0,0,0,0,0
		l0-0.1l-0.2-0.3l-0.1-0.2l-0.1-0.1l-0.1-0.1l-0.1-0.2l0-0.1l-0.1-0.1c0,0-0.1,0-0.1-0.1c0-0.1,0-0.1,0-0.1c0,0-0.1,0-0.1,0l-0.2,0
		l0-0.1l0,0c-0.1,0-0.1,0-0.1,0c0,0-0.1,0-0.1,0l-0.3-0.4l-0.2-0.1l-0.1-0.1l-0.1,0l-0.2-0.1l-0.1-0.1l-0.1-0.1c0,0,0-0.1,0-0.1
		c0,0,0,0,0,0h-0.1l-0.2-0.1l-0.2-0.2l-0.2-0.1l-0.2-0.3l-0.3-0.2l-0.2-0.2l-0.3-0.2l-0.1-0.1c-0.1,0-0.2-0.1-0.3-0.1
		c-0.1-0.1-0.2-0.1-0.2-0.2c0-0.1-0.1-0.1-0.1-0.2l-0.3-0.3l-0.2-0.3l-0.1-0.2l0-0.1l-0.1,0c0,0,0,0,0-0.1c0,0,0,0,0,0l0-0.1l0-0.1
		l-0.1,0c0,0,0,0,0-0.1l0.1,0l0.1,0l0.1,0l0,0l0.1-0.1l0.1,0l0,0.1l0.2,0l0.2,0l0.2,0l0.2,0l0.2,0l0.1-0.1c0,0,0.1,0,0.2,0l0.2,0
		c0,0,0,0,0,0.1c0,0,0,0,0,0l0.1,0l0.1,0v-0.2c0,0,0-0.1,0.1-0.1l0,0.1l-0.1,0.2h0c0,0,0.1,0,0.2,0l0.2,0c0,0,0.1,0,0-0.1l-0.1-0.1
		l0.1-0.1l0-0.1l0.1,0l0.1,0l0,0l-0.1,0c0,0,0,0.1,0,0.1c0,0,0,0,0.1-0.1l0,0.1l0.1-0.1h0.1l0,0l0-0.1v-0.2c0.1,0,0.1,0,0.1,0v0l0,0
		c0,0,0,0.1,0,0.1c0,0-0.1,0.1-0.1,0.1l0.2,0v0l0,0l0.1,0.1c0,0,0,0,0.1,0c0,0,0-0.1,0-0.1l0-0.1c0,0,0.1-0.1,0.1-0.1
		c0,0,0.1,0,0.1,0.1l0,0l0,0h-0.1c0,0.1,0,0.1,0,0.1l-0.1,0.1c0,0,0,0,0,0.1c0,0,0.1,0,0.1,0h0.1l0-0.1c0.1,0,0.1,0,0.1,0l0.1,0l0,0
		c0,0,0.1,0.1,0.1,0.1l0,0.1l0,0h-0.1l0,0.1c0,0,0,0,0.1,0l0.1,0l0,0.1h0.1l0,0.1c0,0,0.1,0,0.1-0.1c0,0,0,0,0.1,0l0.1,0.1l0.1,0
		l0,0.1l0.1,0l0.1,0l0,0l0-0.1l0.1,0c0,0,0,0,0.1,0l0.1-0.1c0,0,0-0.1,0-0.1l0,0c0,0,0,0,0,0v0l-0.1,0l0,0c0-0.1,0-0.1,0-0.2
		c0-0.1,0.1-0.1,0.1-0.1l0.1,0l0.1,0l0,0.2c0,0.1,0,0.1,0.1,0.1c0,0,0,0,0-0.1l0-0.1l0.1,0v-0.1l0.1,0.1c0.1,0,0.2,0,0.3,0l0.1,0.1
		h0.1l0.1,0.1l0.1,0l0,0c0,0,0,0,0.1,0c0.1,0,0.1,0,0.2,0.1l0.2,0.2l0.2,0.1c0.1,0.1,0.1,0.1,0.1,0.2v0.4c0,0-0.1,0.1-0.1,0.1
		l-0.1,0l0,0.1l-0.1-0.1l-0.1,0.1l0-0.1l-0.1-0.1l-0.1,0l-0.1-0.1c-0.1,0-0.1,0-0.2,0.1l-0.1,0.1l0,0.1l0,0.2l0,0l0,0.1l0,0
		l-0.1,0.1l0.1,0l0.1,0l0,0l0,0.1l-0.1,0.1l-0.1,0c0,0,0-0.1,0-0.1c0,0,0,0,0,0l-0.1,0c0,0,0,0,0,0s0,0,0,0l0,0.1v0.1l0,0.1l-0.2,0
		c0,0-0.1-0.1-0.1-0.1l0.1-0.1l0.1-0.2c0-0.1-0.1-0.1-0.1-0.1l-0.1-0.1v-0.1l-0.2-0.1c-0.1,0-0.1,0-0.1,0l-0.2-0.1l-0.2-0.1h-0.1
		l-0.2-0.1l0,0l-0.1,0.1l-0.1-0.1l-0.1-0.1l-0.2,0l-0.1-0.1h-0.1l-0.1,0l-0.2-0.1c0,0-0.1,0-0.1,0s-0.1,0-0.1,0c0,0,0,0.1,0,0.2
		c0.1,0.1,0.1,0.1,0.2,0.1l0.4,0.2l0.3,0.2l0.1,0.1l0.3,0.1l0.1,0.1l0.2,0.2l0.4,0.2c0.1,0.1,0.1,0.2,0.2,0.2l0.5,0.4l0.2,0.2
		l0.3,0.3l0.2,0.2l0.1,0.1l0.1,0.1c0,0,0.1,0.1,0.1,0.1s0.1,0.1,0.1,0.1c0.1,0.1,0.1,0.2,0.2,0.2c0,0,0,0.1-0.1,0.1c0,0,0,0.1,0,0.1
		l0.2-0.1c0,0,0,0.1,0,0.1l0,0.1h0.1l0,0.2v0.3c0,0,0,0.1,0,0.1l0.1,0.1v0.3L127.6,25.5z M122.2,21.6L122.2,21.6L122.2,21.6
		L122.2,21.6z M123.1,22.3c0-0.1,0-0.1-0.1-0.1l0-0.1l0,0l0.1,0l-0.1-0.1v-0.2l0-0.1l-0.1-0.1l0-0.1l0-0.1c0,0-0.1,0-0.1,0.1l0,0
		l-0.1,0l0-0.1c0,0-0.1,0-0.1-0.1l-0.1,0.1l0-0.1l0-0.1l0,0c0,0.1,0,0.2,0,0.2l0.2,0c0,0,0,0,0.1,0c0,0,0,0,0,0l0,0.2l0.2,0l0,0.1
		c0,0,0,0,0,0.1l0.1,0c0,0,0,0,0,0c0,0,0,0,0,0c0,0,0,0.1,0,0.1c0,0.1,0,0.1,0,0.1c0,0,0,0,0,0.1C122.9,22.3,122.9,22.4,123.1,22.3
		L123.1,22.3z M122.8,21.3C122.8,21.4,122.8,21.4,122.8,21.3C122.8,21.4,122.8,21.3,122.8,21.3z M123.4,22.4l-0.1-0.2l0.1,0l0,0V22
		c0,0,0-0.1-0.1-0.1l-0.1,0.1l-0.1,0l-0.1-0.1l0,0.1l0.1,0l0,0.1L123.4,22.4z M124,20.2L124,20.2l-0.1,0l0,0l0,0c0,0,0-0.1,0-0.1
		l-0.1,0l0-0.1c0,0-0.1,0.1-0.1,0.1c0,0,0,0,0,0.1c0,0,0,0,0,0l-0.1-0.1c0,0,0,0-0.1,0l0,0v0.1l-0.1,0.2c0,0,0,0.1,0.1,0.1l0.2-0.1
		l0.1,0l0.1-0.1l0.1,0.1h0.1L124,20.2z M123.7,26.2l-0.1,0l0,0L123.7,26.2l0,0.1L123.7,26.2C123.7,26.2,123.7,26.2,123.7,26.2z
		 M123.8,22.5L123.8,22.5c-0.1,0-0.1,0-0.2,0v0L123.8,22.5l-0.1,0.1C123.7,22.6,123.7,22.6,123.8,22.5
		C123.7,22.6,123.8,22.5,123.8,22.5C123.8,22.5,123.8,22.5,123.8,22.5z M123.8,20.5L123.8,20.5l0,0.1L123.8,20.5
		C123.7,20.5,123.7,20.5,123.8,20.5z M124.7,23.2c0,0-0.1,0-0.1,0c0,0-0.1,0-0.1,0.1c0,0.1,0,0.1,0.1,0.1l0.1,0.1
		C124.7,23.4,124.7,23.3,124.7,23.2L124.7,23.2z M124.7,20.1L124.7,20.1V20C124.7,20,124.8,20,124.7,20.1L124.7,20.1z M125.1,23.5
		C125.1,23.5,125.1,23.4,125.1,23.5l-0.2-0.2l0,0l-0.1,0l0,0.2l-0.1,0l0,0.1l0.2-0.1L125.1,23.5z M125,20.1v0.1l0,0.1l-0.2-0.2
		c0,0,0-0.1,0-0.1l0,0C124.9,20.1,124.9,20.1,125,20.1L125,20.1z M125,23.3L125,23.3L125,23.3L125,23.3z M125.1,24.4L125.1,24.4
		L125.1,24.4L125.1,24.4z M125.1,27.6L125.1,27.6c0-0.1,0-0.1,0-0.1L125.1,27.6C125.1,27.5,125.1,27.5,125.1,27.6L125.1,27.6
		L125.1,27.6z M125.3,24.5l-0.1-0.1l0,0C125.2,24.5,125.2,24.5,125.3,24.5L125.3,24.5C125.3,24.6,125.3,24.6,125.3,24.5
		C125.3,24.5,125.3,24.5,125.3,24.5z M125.5,27.5L125.5,27.5L125.5,27.5C125.5,27.5,125.5,27.5,125.5,27.5L125.5,27.5z M125.7,20.6
		L125.7,20.6l-0.1,0.1C125.6,20.7,125.6,20.7,125.7,20.6C125.6,20.7,125.6,20.6,125.7,20.6z M126.2,26.8L126.2,26.8L126.2,26.8
		L126.2,26.8C126.3,26.8,126.3,26.8,126.2,26.8z M126.4,21.4l-0.1-0.2v-0.1L126.4,21.4L126.4,21.4z M126.4,21.9L126.4,21.9
		L126.4,21.9L126.4,21.9z M126.7,21.2L126.7,21.2l-0.1,0.1c0,0,0,0-0.1,0c0,0,0-0.1,0-0.1C126.6,21.2,126.6,21.2,126.7,21.2z
		 M127.7,25.3C127.7,25.3,127.7,25.3,127.7,25.3L127.7,25.3L127.7,25.3C127.6,25.3,127.6,25.3,127.7,25.3z"/>
</g>
</svg>
