<?xml version="1.0" encoding="utf-8"?>
<!-- Generator: Adobe Illustrator 19.2.1, SVG Export Plug-In . SVG Version: 6.00 Build 0)  -->
<svg version="1.1" id="Layer_1" xmlns="http://www.w3.org/2000/svg" xmlns:xlink="http://www.w3.org/1999/xlink" x="0px" y="0px"
	 viewBox="0 0 89.3 88.7" style="enable-background:new 0 0 89.3 88.7;" xml:space="preserve">
<style type="text/css">
	.st0{fill:#FFFFFF;}
</style>
<path d="M38.9,20.9c1.9,0.7,2,0.9,2.5-1.3c1.9,0.9,3.7,0.6,5.6,0c1.4-0.5,2.4,0.1,3.4,1c0.3,0.3,1.1,0.4,1.2,0.8
	c0.6,1.6,2.1,1.6,3.3,2.1c0.2,0.1,0.6,0,0.9-0.1c1.4-0.6,2-0.3,1.8,1.2c-0.3,2.4-0.7,4.8-0.9,7.2c-0.2,2.2,0.1,2.4,2.3,2.5
	c2.4,0,4.8-0.1,7.2-0.2c1,0,1.9,0.1,3,0.2c-0.5,2.2,1.3,4.4,2.9,5.3c0.9,0.5,1.6,1.3,2.4,2.1c0.2,0.2,0.2,0.6,0.1,0.8
	c-0.4,1-1,2-1.5,3c-0.3,0.7-0.5,1.6-0.7,2.3c-0.4,1.1-0.6,2.4-1.3,3.1C70,52,68.4,52.7,67,53.5c-0.1,0.1-0.3,0.1-0.5,0.1
	c-2.3,0.2-4.6,0.4-7,0.4c-1.7,0.1-1.8,0.1-1.9,1.8c-0.1,2.8-0.3,5.6-0.6,8.4c-0.1,1.2-0.6,2.3-1,3.5c-0.2,0.4-0.5,0.8-0.8,1.2
	c-0.8-0.1-1.6-0.5-2.3-0.3c-1.8,0.4-3.5-0.2-5.3,0c-0.8,0.1-1.7-0.3-2.4,0.5c-0.4-0.4-0.8-0.7-1.3-1.1c-0.6,0-1.4,0-2.4,0
	c-1.7-4.8-1.2-9.8-2.4-14.7c-1.4,0-3.2-0.5-4.5,0.1c-1.3,0.7-2.3,0.3-3.4,0.4c-1.3,0.1-2.7,0-4.1-0.1c-0.2,0-0.4-0.2-0.9-0.5
	c0.5-0.2,0.8-0.3,1.1-0.5c0.1-0.1,0.2-0.2,0.3-0.3c-0.5-0.2-1.1-0.3-1.6-0.5c0.1-0.2,0.2-0.3,0.4-0.5c0.3-0.1,0.5-0.3,0.7-0.4
	c-0.7-0.5-1.4-1.1-2.1-1.6c0-0.1,0.1-0.2,0.1-0.2c0.8,0,1.5,0,2.4,0c-0.2-0.1-0.3-0.2-0.3-0.2c-1.9,0.1-1.9-1.3-2.1-2.5
	c0-0.3,0.2-0.6,0.2-0.9c0.1-0.4,0.3-0.9,0.2-1.2c-0.3-0.8-0.8-1.4-1.2-2.2c0.6-0.3,0.9-0.5,1.4-0.8c-0.5-0.1-0.8-0.2-1.2-0.3
	c1.1-0.4,0.5-0.8,0.2-1.3c0.4-0.3,0.8-0.6,1.2-0.9c-0.6-0.8-1-1.3-1.6-2.1c2.7-0.5,5.2-0.9,7.7-1.3c1.5-0.2,3-0.4,4.5-0.5
	c0.7-0.1,1-0.3,1.1-1.2c0.2-3.5,0.6-7,0.8-10.5C38.8,22.6,38.8,21.8,38.9,20.9z M46.8,21.1c-0.1,0-0.2,0-0.3,0c0,0.9,0,1.9,0,2.8
	c0.1,0,0.2,0,0.3,0C46.8,22.9,46.8,22,46.8,21.1z"/>
<g>
	<path class="st0" d="M4.8,49.2c0.1,0.2,0.2,0.7,0.3,1.2c0.6,1.9,1.2,3.5,1.9,3.3c0.4-0.2,0.8,0.1,1.2,0.5c0.6,0.5,1.1,1.4,1.7,2.4
		c0.3,0.5,0.5,1.4,0.8,1.4c0.2-0.2,0.5,0,0.8,0.1c0.8,0.5,1.6,0.1,2.4,2c0.3,0.7,0.6,0.5,0.9,0.7c0.4,0.3,0.7,0.3,1.1,0.5
		c1.2,0.5,2.3,1.1,3.4,1.4c1.5,0.3,3.1,0.7,4.6,0.8c2.5,0.2,5,0.6,7.5,0.6c0.1,0,0.2,0,0.4,0c0.1-1.1,0.5-2.2,1-3.1
		c-0.8-1.9-1.2-4.2-1-6.2c-0.5,0-1-0.1-1.5-0.1c-3.2-0.2-6.3-0.2-9.5-0.5c-0.9-0.1-1.8-0.4-2.8-2C17.9,52,17.8,52,17.7,52
		c-1.5-0.8-3-1.8-4.5-2.4c-1.1-0.5-2.2-2.9-3.2-0.9c-0.2,0.4-0.6-0.5-0.9-1c-0.7-1-1.5-2.1-2.2-3.1c-0.2-0.2-0.3-0.2-0.4-0.7
		c-0.2-0.5-0.4-1.2-0.5-1.8c0-0.5,0.1-1.4,0.2-1.8c0.3-0.7,0.5-1.3,0.8-2C7.7,37,8.3,35.7,9,34.6c0.3-0.7,0.7-0.6,1.1-1.1
		c1.7-1.7,3.3-3.4,5-4.6c0.9-0.8,1.9-1,2.9-1.4c1.4-0.6,2.8-2.1,4.2-2.4c0,0,0,0,0.1,0c1-0.4,2.1-0.5,3.1-0.9
		c0.5-0.2,0.9-0.4,1.4-0.6c0.4-0.2,0.7-0.9,1.1-1c0.6-0.2,1.2,0.1,1.8-0.1c0.5-0.2,1.2,0.5,1.5-1.2c0.2,0,0.3-0.2,0.5-0.2
		c0.2-0.2,0.6-0.6,0.8-0.4c0.5,0.9,0.8-0.2,1.3-0.4c0.1,0,0.3-0.7,0.3-0.4c0.6,1.2,1.1,0.3,1.6-0.1c0.7-0.2,1.3-0.8,2-1
		c0.4-0.2,0.9,0.3,1.3,0.1c0.3-0.2,0.6-0.9,1-1.1c1.2-0.6,2.5-0.9,3.7-1.3c0.5-0.2,0.9-0.2,1.4-0.3c1.2-0.4,2.4-1,3.6-1.3
		c0.4-0.2,1.1,0.8,1.3-0.4c0.3-1.3,0.7-0.2,0.9-0.6c0.5-0.6,1.2,0.3,1.7-0.1c0.1-0.2,0.3,0,0.4,0c0.7,0.1,1.5,0.3,2.2,0.4
		c0.6,0,1.3-0.4,1.9-0.5c0.4,0,0.9,0.3,1.3,0.3c0.9-0.2,1.8-0.5,2.8-0.5c0.7,0.1,1.4,0.3,2.2,0.6c2.9,0.7,5.9,1.3,8.9,2.9
		c2,1.1,4,1.4,6,3.6c1.4,1.5,2.7,3.6,4,7.8c0.3,0.9,0.3,1.6,0.3,2.7c-0.2,4.1-0.8,6.7-1.5,8.7c-1.1,3.3-2.4,5.7-3.6,8.6
		c-0.4,1.1-0.9,2-1.3,2.6c-0.9,1.5-1.9,3-2.8,4.5c-1.3,2.2-2.7,4.3-4.1,6c-1.5,1.9-3,3.2-4.5,4.6c-0.7,0.6-1.4,1.5-2.1,1.9
		c-1.6,1-3.2,2-4.8,3c-1.4,0.8-2.8,1.6-4.2,2.2s-2.8,0.7-4.2,1c-1.8,0.3-3.5,0.9-5.3,1c-3,0.2-6,0.2-9,0.2c-0.2,0-0.4,0-0.5,0.4
		c-0.1,0.2-0.2,1.1-0.2,1.6c0.1,1.6,0.2,3.2,0.4,4.8c0.2,2.1,0.6,3.2,1.1,3.3c1.1,0.1,2.3,0.4,3.5,0.5c2.4-0.3,4.9-0.8,7.3-1.3
		c2-0.1,4-0.4,5.8-1.1c1.9-0.8,3.8-2,5.6-3c1.2-0.6,2.4-1.2,3.5-2c2.4-1.9,4.9-3.7,7.3-6.2C71.9,69,75,64.5,78,59
		c1.7-3.3,3.4-6.5,5-10.9c0.8-2.2,1.4-4.9,1.8-8.7c0.3-3.1,0.4-6.5,0-10.7c-0.7-6.2-1.7-9.9-3-12.7c-2.5-5.4-5.1-7.4-7.6-9.2
		c-1.6-1.2-3.1-1.4-4.6-1.9c-1.5-0.6-3-1.1-4.5-1.5c-0.7-0.3-1.4,0.1-2.1,0.1c-1.9,0.1-3.8-0.1-5.8,0c-1.8,0.1-3.6,0.4-5.3,0.7
		c-1.7,0.3-3.5,0.6-5.1,1.2c-1.7,0.6-3.4,1.1-5.1,1.7c-1.5,0.6-3,0.9-4.4,1.5c-0.4,0.2-0.8,0.8-1.3,1c-1.3,0.6-2.7,0.7-3.9,1.5
		c-2.2,1-4.4,2.4-6.6,2.4c-0.3,0-0.7,0.2-1,0.6c-1.3,1-2.5,2.5-3.8,2.9c-2.8,0.9-5.6,3.4-8.3,5.3c-1,0.6-1.9,1.7-2.9,2.5
		c-0.1,0-0.2,0.2-0.3,0.4c-0.5,0.6-0.9,1.5-1.3,2.2c-0.8,1.1-1.6,2.4-2.5,3.2c-0.5,0.6-1.1,1.1-1.4,2.8c-0.2,1.1-0.4,2.5-0.4,3.8
		C3.4,41.6,3.7,46.2,4.8,49.2z"/>
	<path d="M4.8,49.2c0.1,0.5,0.2,0.9,0.3,1.2c0.6,1.9,1.2,3.5,1.9,3.3c0.4,0,0.8,0.1,1.2,0.5c0.5,0.5,1.1,1.4,1.7,2.4
		c0.3,0.7,0.5,1.6,0.8,1.4c0.2-0.2,0.5-0.2,0.8,0.1c0.8,0.5,1.5,0.1,2.4,2c0.3,0.7,0.6,0.5,0.9,0.7c0.4,0.3,0.7,0.3,1.1,0.5
		c1.2,0.5,2.3,1.1,3.4,1.4c1.5,0.3,3.1,0.7,4.6,0.8c2.5,0.2,5,0.6,7.5,0.6c0.1,0,0.2,0,0.4,0c0.1-1.1,0.5-2.2,1-3.1
		c-0.8-1.9-1.2-4.2-1-6.2c-0.5,0-1-0.1-1.5-0.1c-3.2-0.2-6.3-0.2-9.5-0.5c-0.9-0.1-1.8-0.4-2.8-2C17.9,52,17.8,52,17.7,52
		c-1.5-0.8-3-1.8-4.5-2.4c-1.1-0.3-2.2-2.9-3.2-0.9c-0.2,0.4-0.6-0.5-0.9-1c-0.7-1-1.5-2.1-2.2-3.1c-0.2-0.2-0.3-0.2-0.4-0.7
		c-0.2-0.5-0.4-1.2-0.5-1.8c-0.1-0.7,0.1-1.4,0.2-1.8c0.2-0.9,0.6-1.3,0.8-2C7.7,37,8.3,35.7,9,34.6c0.4-0.7,0.7-0.6,1.1-1.1
		c1.7-1.5,3.4-3.1,5-4.6c0.9-0.8,2-1,2.9-1.4c1.4-0.6,2.8-2.1,4.2-2.4c0,0,0,0,0.1,0c1-0.4,2.1-0.5,3.1-0.9c0.5-0.2,0.9-0.4,1.4-0.6
		c0.4-0.2,0.7-0.9,1.1-1c0.6-0.2,1.2,0.1,1.8-0.1c0.5-0.2,1.2,0.5,1.5-1.2c0.2,0,0.3-0.2,0.5-0.2c0.2-0.2,0.5-0.9,0.8-0.4
		c0.5,0.9,0.9,0.1,1.3-0.4c0.1,0,0.2-0.7,0.3-0.4c0.6,1.2,1.1,0.1,1.6-0.1c0.7-0.2,1.3-0.8,2-1c0.4-0.2,0.9,0.3,1.3,0.1
		c0.3-0.2,0.6-0.9,1-1.1c1.2-0.6,2.5-0.9,3.7-1.3c0.5-0.2,0.9-0.2,1.4-0.3c1.2-0.4,2.4-1,3.6-1.3c0.4-0.2,1.1,0.8,1.3-0.4
		c0.3-1.3,0.7-0.2,0.9-0.6c0.6-0.6,1.2,0.5,1.7-0.1c0.1-0.2,0.3,0,0.4,0c0.7,0.3,1.4,0.3,2.2,0.4c0.6-0.2,1.2-0.6,1.9-0.5
		c0.4,0,0.9,0.3,1.3,0.3c0.9,0.1,1.8-0.5,2.8-0.5c0.7,0.1,1.4,0.3,2.2,0.6c3,0.9,5.9,1.6,8.9,2.9c2,0.8,3.9,1.4,6,3.6
		c1.4,1.7,2.7,3.6,4,7.8c0.3,0.7,0.4,1.4,0.3,2.7c-0.2,4.1-0.8,6.7-1.5,8.7c-1.1,3.1-2.4,5.7-3.6,8.6c-0.4,0.9-0.9,1.7-1.3,2.6
		c-0.9,1.7-1.9,3-2.8,4.5c-1.3,2.2-2.7,4.3-4.1,6c-1.5,1.7-3,3.2-4.5,4.6c-0.7,0.6-1.4,1.5-2.1,1.9c-1.6,1.2-3.2,2-4.8,3
		c-1.4,0.8-2.8,1.6-4.2,2.2c-1.4,0.6-2.8,0.7-4.2,1c-1.7,0.5-3.5,1.1-5.1,1.2C41,76,38,76,35,76c-0.2,0.2-0.4,0-0.5,0.4
		c-0.1,0.2-0.2,0.9-0.2,1.6c0.1,1.6,0.2,3.2,0.4,4.8c0.2,2.1,0.6,3.2,1.1,3.3c1.2,0.3,2.3,0.6,3.5,0.5c2.4-0.3,4.9-0.8,7.3-1.3
		c1.9-0.3,3.8-0.6,5.7-1.4c1.9-0.8,3.8-2,5.7-3.2c1.1-0.6,2.3-1.2,3.5-2c2.4-1.9,5-3.5,7.3-6.2c3.2-3.6,6.3-7.9,9.3-13.6
		c1.7-3.3,3.5-6.3,5-10.9c0.8-2.2,1.4-4.9,1.8-8.7c0.3-3.1,0.4-6.5-0.1-10.4c-0.7-6.2-1.7-9.9-3-12.7c-2.5-5.4-5.1-7.4-7.6-9.2
		c-1.5-1-3-1.4-4.6-1.9c-1.5-0.6-3-1.1-4.5-1.5c-0.7-0.3-1.4,0.1-2.1,0.1c-2,0.1-3.9-0.1-5.8,0c-1.8,0.1-3.6,0.4-5.3,0.7
		c-1.7,0.3-3.5,0.6-5.1,1.2c-1.7,0.3-3.4,1.1-5.1,1.7C40,7.5,38.6,8,37.1,8.6c-0.4,0.2-0.8,0.8-1.3,1c-1.3,0.6-2.6,0.9-3.9,1.5
		c-2.2,1-4.4,2.4-6.6,2.4c-0.3,0-0.7,0.4-1,0.6c-1.3,1-2.5,2.5-3.8,2.9c-2.8,0.9-5.6,3.4-8.3,5.3c-1,0.6-1.9,1.7-2.9,2.5
		c-0.1,0.2-0.2,0.2-0.3,0.4c-0.5,0.6-0.9,1.5-1.3,2.2c-0.8,1.1-1.6,2.1-2.5,3.2c-0.5,0.6-1,1.1-1.4,2.8c-0.2,1.1-0.4,2.5-0.4,3.8
		C3.4,41.6,3.7,46,4.8,49.2z"/>
</g>
</svg>
