<?xml version="1.0" encoding="utf-8"?>
<!-- Generator: Adobe Illustrator 19.2.0, SVG Export Plug-In . SVG Version: 6.00 Build 0)  -->
<svg version="1.1" id="Layer_1" xmlns="http://www.w3.org/2000/svg" xmlns:xlink="http://www.w3.org/1999/xlink" x="0px" y="0px"
	 viewBox="0 0 370 152" style="enable-background:new 0 0 370 152;" xml:space="preserve">
<style type="text/css">
	.st0{enable-background:new    ;}
	.st1{fill:#231F20;}
	.st2{fill:#FFFFFF;}
	.st3{fill:#010101;}
</style>
<title>quesadillas</title>
<g class="st0">
	<path class="st1" d="M88.3,87.2c-0.1,0.1,0,0.1,0,0.2l0.4,0.1c0,0.2,0,0.4,0,0.5c-0.1,0.1-0.2,0.2-0.3,0.2l-0.1-0.2l-0.1-0.5
		l-0.4-0.2c-0.2-0.1-0.4-0.2-0.5-0.1c0,0.1,0,0.3,0,0.4l0.3,0.2c-0.2,0-0.3,0-0.3,0.1c-0.1,0-0.1,0.1-0.1,0.2l-0.1,0.3l0,0.2
		l0.3,0.5l-0.1,0.1l0.3,0l0.2,0.1l-0.1,0.7c0.2-0.1,0.3-0.2,0.4-0.2c0.1-0.1,0.1-0.1,0.2-0.1c0.1,0,0.1-0.1,0.2-0.1l0.2,0.3l0,0.3
		l-0.3,0c0.1,0.2,0.3,0.3,0.4,0.4c0.1,0.1,0.2,0.2,0.2,0.3c0,0.1,0.1,0.1,0.1,0.2c0,0.2-0.2,0.3-0.4,0.3c-0.2,0-0.5,0-0.6-0.2
		l-0.3,0L87.6,91l-0.3,0.2l-0.2,0.2l-0.1-0.1l-0.4-0.1l0,0.3l-0.3,0.3l0.2,0.2l0.5,0.4l0.3-0.1c0.2,0,0.3,0.1,0.3,0.1l-0.3,0.4
		l-0.8,0.7l-0.2,0.5l-0.2,0L86,93.7l-0.2,0.2l-0.1-0.2L85,93.3c-0.1,0-0.1,0-0.2,0c-0.1,0-0.1,0-0.1,0l-0.1,0.2
		c-0.3,0-0.5-0.1-0.6-0.1c-0.1,0-0.4,0-0.7,0c-0.2,0.2-0.3,0.4-0.4,0.6c-0.1,0.2-0.1,0.4-0.3,0.5c-0.2-0.1-0.3-0.2-0.3-0.3
		c0-0.2,0-0.3-0.1-0.3c0,0-0.1,0-0.1,0C82.1,93.9,82,94,82,94.1c0,0.2,0,0.3,0,0.4l-0.2,0.1l-0.2-0.1l0.2,0.6c0,0.2,0,0.3-0.1,0.4
		l-1.1,0.8l-0.7,0c-0.2,0.1-0.4,0.2-0.4,0.2c-0.1,0.1-0.1,0.2,0,0.3l0.3,0.2l0.1,0.1c0.1,0.1,0.2,0.1,0.2,0.2l0.2,0.5l0.3,0.1
		l-0.1,0.3l0.4,0.6c0,0.3,0.1,0.6,0.2,0.7l1.5,0.7l0.5,0.1l0.1,0.2l0.7,0.5c0.2,0.1,0.3,0.3,0.4,0.6c0,0.2-0.1,0.3-0.4,0.6
		c-0.2,0.1-0.5,0.2-0.8,0.1c-0.1-0.1-0.2-0.2-0.3-0.4s-0.2-0.2-0.4-0.2l0,0.3l0.2,0.4l-0.4,0.2c-0.1,0-0.1,0-0.2,0
		c-0.1,0-0.1,0.1-0.1,0.1l-0.3,0.6l-0.3,0.3l-0.6,0.2c-0.3,0.1-0.4,0.2-0.5,0.3l0,0.2c0.1,0.1,0.1,0.2,0.1,0.4l0,0.3l0.3,0.2
		l-0.1,0.2l-1.8,0.2l-0.6-0.3l-0.8-0.5l-0.1-0.4l-0.9-0.5l-1.2-1.5l-1.8-2.6c-0.1-0.1-0.3-0.2-0.7-0.1l-0.9,0.2l-0.3-0.2l-0.2,0.3
		c-0.2,0-0.3,0-0.3-0.1l-0.2-0.1l-0.2-0.1c0.1,0,0.2,0,0.3-0.1c0.1,0,0.1-0.1,0.1-0.1l-0.2-0.3c-0.3-0.3-0.5-0.5-0.7-0.6L69.6,99
		l-0.4,0.2l-0.7,0.2L68,99.8c-0.2,0-0.3-0.1-0.3-0.1l-0.3-0.1l0,0.3l-0.2,0l-0.1-0.1l-0.3,0c0-0.2-0.1-0.3-0.1-0.4
		c-0.2-0.2-0.3-0.3-0.3-0.5l0-0.8l0.2-0.3l-0.1-0.3c-0.1,0.1-0.2,0.1-0.2,0.2l-0.1,0.4c-0.2,0-0.3,0.1-0.4,0.2l-0.1,0.2l0,0.3l0,0.4
		c-0.1,0.2-0.2,0.3-0.2,0.3l-0.3-0.4L64.1,99l-0.3-0.3l-0.6-0.1l-0.4,0.1l-0.7-0.5l-0.1,0.3L62,98.7l-0.4-0.2l-0.3-0.4l-0.7-0.2
		c-0.1-0.1-0.1-0.2-0.1-0.5l0.1-0.1l-0.1-0.1c-0.1-0.2-0.1-0.3-0.1-0.5l-0.2-0.3l0.5,0l0.1-0.3l-0.2,0.1l-0.2-0.1l-0.3,0.2l-0.5,0.2
		c-0.2,0-0.4,0-0.4-0.2l0.1-0.5l0.2-0.4l0.2,0.3l0.4,0.3c0.2,0,0.3-0.1,0.3-0.3l0.1-0.4l0.5-0.1c0-0.1,0-0.2,0-0.3L60.4,95l-1-0.6
		l-0.3,0.2L59,94.8c0-0.1-0.1-0.1-0.1-0.1c-0.1,0-0.1-0.1-0.1-0.1l-0.3,0.2c-0.1-0.1-0.2-0.2-0.2-0.3L58,94l-0.3-0.1l-0.2-0.4
		c-0.1-0.1-0.2-0.1-0.3-0.1c0,0.1,0,0.2,0.1,0.3l0.2,0.3l-0.2-0.1c-0.1-0.1-0.2-0.1-0.4,0l0,0.3l0.2,0.4c-0.3-0.1-0.6-0.3-0.7-0.6
		l-0.1-0.7l-0.3,0L55.8,93l-0.2-0.2L55.4,93l-0.1,0.2l-0.1-0.3l-0.4,0l-0.3-0.2l-0.4-0.3l-0.4,0c-0.1-0.1-0.1-0.2,0-0.3
		c0.1,0,0.1-0.1,0.1-0.3l-0.5-0.4l-0.4-0.2l0.2-0.3c0.1-0.1,0.2-0.4,0.1-0.7l-0.2-0.1l0-0.3l-0.8-0.7l-0.4,0.1l-0.2-0.6l-0.3-0.6
		l0.2-0.3l-0.1-0.6l0.2-0.2l0.2-0.3l-0.8-0.2c-0.1-0.1-0.1-0.3-0.1-0.4c0-0.2,0-0.4,0.1-0.6l-0.3-0.3l0.5-0.5l0.3-0.9l-0.1-0.4
		l0.2-0.3l0.2-0.3l-0.1-0.4l0.2-0.6l0.4-0.7l0.1-0.7c0-0.3,0-0.5,0.1-0.6c0.1-0.1,0.2-0.1,0.3,0l0.2,0.1l0-0.1l0.1-0.2l0.7-0.9
		l0.3-0.2l0.2-0.4c0.2,0,0.3-0.1,0.4-0.1l0.1-0.5l0.8-1.2l0.2,0c0.2-0.3,0.5-0.5,0.7-0.6l0.6,0l0.3-0.3l0.6-0.2
		c0.2,0,0.3-0.1,0.4-0.3l0.2-0.3l0.4,0l0.2-0.3c0.5,0.2,0.8,0.2,1.1,0.2c0.1-0.1,0.2-0.2,0.3-0.3l0.2-0.3l0.5-0.1l0.5-0.1l0.3-0.3
		l0.3,0l0.1-0.3c0.1-0.1,0.2-0.2,0.2-0.3l0.4-0.1l0.4-0.1l0.2,0.5l0.2-0.1l0.2,0.1l0.1,0l-0.6,0.2c-0.2,0-0.3,0.1-0.4,0.2l0,0.2
		l0.2,0.1l0,0.3c0.2,0,0.3,0,0.3,0l0.5-0.3c0.1-0.1,0.2-0.1,0.2-0.2l0.1-0.3l0.3,0l0.2-0.3l0.2-0.4c0-0.1,0.1-0.1,0.3-0.2
		c0.1,0.1,0.2,0.2,0.2,0.3l0,0.3l0.2,0.3c0.1,0.1,0.2,0.3,0.3,0.5l0,0.6L66,74.6c-0.1,0-0.1,0.2,0,0.4l0.5,0.4l0.2-0.2
		c0.1,0.3,0.3,0.4,0.5,0.4l0.4-0.2l0.6-0.3l0.8,0.2l0.5-0.1l0.2,0.2L70,75c0.2-0.1,0.3-0.1,0.5-0.1l0.4,0.5
		c-0.1,0.1-0.1,0.2-0.1,0.4c0.1,0.1,0.2,0.2,0.3,0.2l0.3,0l-0.1-0.5l0.3,0.2l0.3,0.1l0.3,0.5l0.1,0.1l0.2,0.1l-0.2,0.6l0.3,0
		c0.1-0.2,0.1-0.4,0.2-0.6l-0.1-0.7l-0.4-0.5l0.1-0.3l-0.2,0l-0.2-0.3l0.1,0.1l0.1-0.1l0-0.4l0.7,0.2l0.9,0.3l0.2-0.1l0-0.4l0.2,0.2
		c0.1,0,0.3-0.1,0.3-0.2l0.4,0.2l0.3-0.2l0.2,0l0,0.2l-0.1,0.1l0.3,0.1l0.1,0.2l-0.2,0.1l0,0.2c0.1,0,0.2,0,0.3,0l0.5-0.4l0.2,0.3
		l0.2,0.4l0.7,0.2c0,0.1,0.1,0.1,0.1,0.2c0,0.1,0.1,0.1,0.3,0.2c0.1,0.1,0.3,0.2,0.4,0.5l0.6,1c0.2,0.4,0.5,0.7,0.8,0.9l0.2,0
		l0.2,0.4l0.2,0.3c0.3,0,0.5,0,0.6,0l0.3,0.5l0.2,0.4c0-0.1,0.1-0.3,0-0.4c0-0.1,0-0.1,0-0.2c0-0.1,0.1-0.1,0.1-0.1
		c0.1,0,0.2,0,0.2,0s0.2,0.1,0.5,0.2l0.8,0.5l0.2,0.5c0.1,0,0.2-0.1,0.3-0.2l0.2-0.3l1,0.6l0.3-0.3c0.1-0.1,0.2-0.1,0.4,0l0.3,0.1
		l0.3-0.1c0.1,0.4,0.3,0.6,0.5,0.7l0.7,0.7l0.1,0.3l0.3,0.2l0.1,0.7l0.1,0.6L88.3,87.2z M52.4,88.7l0,0.4l-0.2-0.3L52.4,88.7z
		 M53.9,93.7l0.2,0.3C54,94,53.9,94,53.9,94l-0.2-0.2L53.9,93.7z M54.1,93.1c0.1,0,0.2,0,0.2,0c0,0,0,0.1,0,0.3c0,0.1,0,0.1-0.2,0.2
		C54,93.5,54,93.4,54,93.3C54,93.3,54,93.2,54.1,93.1z M83.2,87.4l-0.1-1.7c-0.1-0.6-0.2-1.1-0.4-1.6c-0.2-0.5-0.4-1-0.8-1.4l-1-0.7
		l-0.2-0.3c-0.1-0.1-0.2-0.2-0.4-0.3l-0.4,0.2l-0.2,0.2l-0.5-0.3c0,0-0.1,0-0.3,0c-0.1,0.2-0.1,0.3-0.1,0.4c0,0.2,0,0.3-0.2,0.3
		c-0.2,0-0.3-0.1-0.5-0.3l-0.2-0.3l-0.2,0.2l-0.5,0.2l0.1,0.3l-0.6,0.1l-0.2,0.3L76.3,83l-0.4,0.1l0,0.2l0.2,0.2l-0.3,0.4l-0.4,0.4
		c-0.3,0-0.5,0-0.6-0.2l-0.2,0.1c-0.1,0.2-0.4,0.3-0.8,0.1c-0.2-0.1-0.3-0.2-0.4-0.2c-0.3-0.3-0.4-0.6-0.3-0.8l0.4-0.1
		c0.2-0.1,0.2-0.2,0.2-0.3l-0.1-0.4l-0.3-0.3c-0.2-0.7-0.6-1.3-1.2-1.8l-0.4-0.5l-0.5-0.6l-0.8-0.3l-0.6-0.7l-0.7-0.3l-0.8-0.3
		c-0.5,0.1-0.8,0.1-0.9,0l-0.2-0.2l-0.1-0.2l-0.4,0.3c-0.2,0-0.3,0-0.3-0.1l-0.1-0.2l-1,0.2l-0.9,0l-0.7,0.3l-0.5,0l-0.7,0.5
		L61.6,79l-0.8,0.1l-0.2,0.6L60,80c-0.2,0.1-0.3,0.3-0.3,0.4l-0.6,0.4l0,0.3l-0.4,0.7c-0.2,0-0.3,0-0.5,0c-0.2-0.1-0.3-0.1-0.5,0
		c-0.2,0.2-0.1,0.4,0.1,0.5l0.1,0.1l0,0.6l-0.2,0.6l-0.5,0.7l0,0.2l0.1,0l-0.1,0.5l-0.3,0.6l0.2,0.4L57.2,87l0.2,0.4
		c0,0.5,0.1,1,0.3,1.6c0.2,0.5,0.5,1,0.8,1.4l0.5,0.5l0.8,0.5c0.4,0.2,0.8,0.4,1.2,0.6c0.4,0.2,0.9,0.3,1.6,0.5
		c0.7,0.2,1.6,0.4,2.6,0.5l2.7,0.1l0.6,0.1c0.2,0,0.3-0.1,0.4-0.1c0.1-0.1,0-0.3-0.2-0.6l-0.6-0.8c0-0.2-0.1-0.4-0.3-0.5l-0.4-0.6
		l-1.9-2.8l-0.6-0.8l0.1-0.4l-0.2-0.3l0.2,0l0.3,0.1l-0.1-0.5c-0.2,0-0.3,0-0.3-0.1l0-0.2c0.1,0,0.1,0,0.2,0c0,0,0.1,0,0.1-0.1
		l0.5,0.3l0.2,0.5c0.2-0.1,0.2-0.2,0.2-0.4l-0.3-0.3c-0.2-0.2-0.2-0.4,0-0.6c0.1-0.1,0.2-0.1,0.5-0.1l0.4,0l0.1-0.5l0.1-0.5l0.2-0.1
		l0.2,0l0-0.5c0.1,0,0.2,0.1,0.3,0.1c0.1,0.1,0.2,0.1,0.4,0.3c0.2,0.1,0.3,0.2,0.6,0.3l0.5,0l0.4-0.1l0.6,0.6l0.5,0.5
		c0.2,0.1,0.4-0.1,0.6-0.5l0.1-0.3l0.4,0.2l0.5,0.4c-0.1,0.1-0.2,0.2-0.3,0.2c-0.2,0-0.3,0.1-0.4,0.1c0.1,0.1,0.2,0.2,0.3,0.1
		c0.2,0,0.4,0,0.5,0.1c-0.1,0.3,0,0.5,0.1,0.6l0.3,0c0.2,0.1,0.3,0.1,0.3,0.2c0.2,0.5,0.3,0.8,0.5,1l0.5,0.4
		c0.1,0.1,0.2,0.4,0.3,0.8L74,89c0,0,0.1-0.1,0.3-0.1c0,0.2,0.1,0.4,0.3,0.6l0.3,0.5l-0.1,0.1l0,0.1l0.1,0.5l0.1,0.5
		c0.2-0.1,0.3-0.1,0.4,0l-0.1,0.3l0.3-0.1l0.3,0.5c0.2,0,0.5,0,0.9-0.1l1.1-0.5c1.1-0.4,2-0.7,2.5-1c0.5-0.3,1.1-0.7,1.7-1.2
		l0.4-0.8l0.4-0.6l0-0.3L83.2,87.4z M58,96.2l0,0.2l-0.2,0L57.2,96l0-0.3L58,96.2z M59.7,95l0,0.2l-0.3-0.1c0.1-0.1,0.1-0.1,0.2-0.1
		C59.6,95,59.6,95,59.7,95z M61.1,96.3c-0.1,0-0.2,0-0.2-0.1l0.1-0.3c0.1,0,0.2,0,0.2,0.1C61.3,96.1,61.3,96.2,61.1,96.3z M63,73.6
		l0,0.2l-0.2,0.1l0-0.2c0,0,0.1-0.1,0.1-0.1L63,73.6z M63.1,98l0.2,0.1c0,0.1-0.1,0.2-0.2,0.3L63,98.3C63,98.1,63.1,98,63.1,98z
		 M63.8,99.5l-0.5-0.2c-0.2-0.1-0.2-0.3-0.1-0.4c0.1,0,0.2,0,0.2,0.1l0.1,0.3L63.8,99.5z M63.5,74.3l-0.1,0.1l-0.1,0.3l0-0.5
		L63.5,74.3z M66,97.2c0.1,0.1,0.1,0.2-0.1,0.4c-0.2,0.2-0.4,0.3-0.6,0.2l-0.1-0.2l0.1-0.3c0-0.2,0.1-0.3,0.2-0.4L66,97.2z
		 M67.1,99.2l0,0.2L67,99.4l-0.1-0.2L67.1,99.2z M67.6,99.1l-0.1,0L67.3,99L67.6,99.1z M67.8,74.3l-0.2,0.2l-0.1-0.1l0-0.2
		L67.8,74.3z M70.9,84.3l-0.4,0l0.1-0.2L70.9,84.3z M73.6,80.1c0.1,0.1,0.2,0.1,0.2,0.2l-0.2,0.2c-0.1-0.1-0.2-0.1-0.2-0.2
		C73.5,80.2,73.5,80.1,73.6,80.1z M74.5,91.4c0.1,0.1,0.1,0.3,0.1,0.7l-0.2,0.2c-0.2-0.1-0.4-0.2-0.5-0.3c-0.1-0.1,0-0.2,0.2-0.3
		c0.1-0.1,0.1-0.1,0.2-0.1C74.4,91.5,74.4,91.5,74.5,91.4z M74.3,83.1l-0.2,0.4c0-0.1,0-0.2,0-0.2L74.3,83.1z M74.9,81.9L75,82
		l-0.1,0.1C74.9,82,74.9,81.9,74.9,81.9z M75.1,80.8L75,80.7l0.1-0.1L75.1,80.8z M75.2,82.4l-0.2,0.2l0-0.3L75.2,82.4z M75.3,80.3
		l0,0.2l-0.2-0.1L75.3,80.3z M75.9,83.6l0,0.1l-0.3,0l0.2-0.1L75.9,83.6z M75.6,81.8l0.2-0.3l-0.1-0.4c0.1-0.2,0.1-0.3,0.2-0.3
		c0.2,0.1,0.2,0.3,0,0.6L75.6,81.8z M77.2,81.7l-0.5-0.3l-0.4,0.1l0.1-0.4l0.2,0.1l0.1,0.2l0.2-0.2l0.2-0.2L77.2,81.7z M77.6,80.7
		l-0.1,0.3l0-0.3L77.6,80.7z M80.2,96.8l0.2,0.3l-0.2,0L80,96.9C80.1,96.8,80.2,96.8,80.2,96.8z M81.2,96.7l-0.1,0.2l-0.2,0l0.1-0.2
		C81.1,96.7,81.2,96.6,81.2,96.7z M81.5,95.9l-0.2,0l0-0.1L81.5,95.9z M83.8,92.6c0,0,0.1,0.1,0.1,0.3l-0.2,0l-0.1-0.2
		c0,0,0.1-0.1,0.1-0.1L83.8,92.6z M86.8,88.7c0,0.1,0,0.2-0.1,0.3c0-0.1,0-0.1,0-0.2C86.8,88.8,86.8,88.7,86.8,88.7z M86.9,91.4
		c0,0.1,0.1,0.1,0.1,0.2l-0.1,0.1l-0.1-0.1L86.9,91.4z M87.3,86.3l-0.1,0.5l0-0.3L87.3,86.3z M88,86.1l-0.3-0.4l-0.1-0.4
		c0.1,0.1,0.2,0.1,0.3,0.2L88,86.1z M87.8,84.3c0,0.1,0,0.2,0,0.2l-0.2,0.1L87.8,84.3z M88.3,86.7l-0.1,0.2
		c-0.2-0.1-0.3-0.2-0.4-0.3l0.1-0.3C88.2,86.4,88.3,86.5,88.3,86.7z"/>
</g>
<g class="st0">
	<path class="st1" d="M110.1,70.4c-0.1,0.1-0.2,0.2-0.3,0.2l-0.2,0.1l0.2,0.4l-0.2,0.8l0,0.8l0.2,1.3l0.2,0.8l-0.1,0.7l0.2,0.8
		l-0.2,0.9l0.2,0.3l-0.1,0.3l0.3,0.7l0,1.1c0,0.4,0,0.8-0.1,1.2l-0.2,0.4l0,0.4l-0.4,0.7l-0.2,1.7l-0.4,0.6l-0.6,0.7l-0.4,1
		l-0.4,0.3l-0.4,0.8c-0.4,0.1-0.7,0.3-0.8,0.4l-0.2,0.6l-0.4,0.3c-0.2,0.1-0.3,0.2-0.4,0.3l-0.4,0.4l-0.2,0.6l-0.6,0.5l-0.2-0.2
		c-0.1-0.1-0.2-0.1-0.4,0c0,0.2,0,0.3,0,0.4l0.2,0.3l-0.7,1l-0.4,0.2l-0.3,0.6c-0.1,0.1-0.2,0.1-0.3,0l-0.2-0.5l-0.4-0.1l0,0.4
		l0,0.5c-0.1,0.1-0.3,0.1-0.6,0c-0.3-0.1-0.5-0.1-0.7,0c-0.2,0.2-0.5,0.4-0.9,0.5l-0.4,0l-0.6-0.4l-1.2,0.2l-0.5-0.2l-0.6-0.3
		l-1-0.3l-0.7-0.5l-0.4-0.4l-1.1-1l-1-1.1l-0.4-0.7l-0.4-0.7c-1.2-2.2-2.3-4.5-3.1-7l-1.2-4.3l-0.1-0.7l0-0.6L86.6,75l-0.2-0.8
		L86.3,73l-0.2-0.6l0.1-0.3l0.1-0.2l0.3-2l0.1-0.6l0.9-0.6l0.2-1.4l0.4-0.4c0-0.5,0.1-0.9,0.3-1.2c0.1-0.3,0.4-0.6,0.8-0.8l0.2-0.3
		c0,0,0.1-0.1,0.3-0.1c0.1,0,0.3,0.2,0.4,0.5l0.1,0.5C90.1,65.9,90,66.4,90,67l0.2,2.2l0,0.8l0.3,0.6l-0.1,0.6
		c0,0.3,0.1,0.6,0.1,0.9c0.1,0.3,0.2,0.6,0.3,0.7l0.7,2.1c0.1,0.5,0.1,0.9,0,1.1l0.2,0.4l0.5,0.6c0.1,0.5,0.1,0.8,0.2,0.9l0.5,0.9
		l0.6,2c0.1,0.2,0.3,0.4,0.5,0.5l0.2,0.1l0.2,0.3l0.3,0.5l0.2,0.4l0,0.6l0.6,0.4l0.4,0.4c0.2,0.3,0.3,0.5,0.3,0.6
		c0,0.1,0.1,0.2,0.2,0.2c0.2,0.3,0.8,0.7,1.6,1.2c0.4,0.3,0.9,0.5,1.2,0.6l0.9,0c0.9-0.1,1.7-0.5,2.3-1.3c0.7-0.7,1.1-1.6,1.3-2.6
		l0.1-1.4l0-1.1l0.2-3.4l-0.1-0.7c0-0.3-0.1-0.5-0.2-0.5l0-0.6l0.1-0.6l-0.2-1.4c-0.1-0.5-0.1-1.1,0-1.5c0.1-0.2,0.1-0.3,0.2-0.3
		l0.4-0.2l0-0.6l0.3,0l0.3-0.7l0.4-0.4l0.3-0.4l-0.1-0.3l0.5-0.4l-0.5-0.6l0.3-0.1l0.4-0.1l0-0.3c0.1-0.1,0.1-0.2,0.2-0.2l0.7,0.2
		l0.8,0.2l0.2-0.1l0.1,0.2l0.1,0.5l0.8,0.1c0.1,0.1,0.2,0.3,0.2,0.6l0.1,0.6l0.2,0.1l0.2,0.4l-0.1,0.3l-0.1,0.1
		c0.1,0.1,0.2,0.2,0.3,0.2c0.1,0,0.1,0.1,0.2,0.1C110.1,70.3,110.1,70.4,110.1,70.4z M109.9,68.8c0,0.1,0,0.2-0.1,0.3
		c-0.1,0.1-0.1,0.1-0.2,0c0-0.1,0-0.2,0-0.2C109.6,68.8,109.7,68.8,109.9,68.8z"/>
</g>
<g class="st0">
	<path class="st1" d="M147.3,83.5c-0.1,0.2-0.1,0.3-0.2,0.3l-0.5,0.4l0,0.2l-0.3,0.2l0,0.3c-0.4,0.1-0.6,0.2-0.7,0.3l-0.2,0.4
		l-0.3,0.2l-0.4,0.1l-0.3,0.3l-0.2,0.4c-0.4,0-0.6,0-0.7,0.1l0,0.4l-0.2,0l-0.1,0.2l-0.5,0l-0.8,1.2l-0.5,0l-0.3,0.3
		c-0.2,0.1-0.3,0-0.4-0.2c-0.1-0.2-0.3-0.3-0.4-0.2c0,0.2-0.1,0.3,0,0.4c0,0.1,0,0.2,0,0.4l-0.2-0.1c-0.2-0.3-0.4-0.5-0.6-0.3
		c0.1,0.2,0.1,0.4,0.2,0.5c0.2,0.2,0.3,0.4,0.2,0.5l-0.2,0l-0.2,0c0-0.1,0-0.2-0.1-0.3c0,0,0,0-0.1,0c-0.1,0.1-0.2,0.2-0.3,0.3
		l-0.3,0.4l-0.5,0.1l-0.8,0.1l-0.6,0.3l-0.4,0.1l-0.2-0.3l-0.7-0.1l-0.4-0.2c0-0.1-0.1-0.1-0.3-0.2l-0.1,0.3
		c-0.1,0.2-0.2,0.3-0.3,0.4l-0.3-0.1l-0.6-0.1l-0.3,0.2l-0.3,0.2l-0.6,0l-0.8,0.2l-0.1,0.2l-0.6-0.1l-0.7,0.1l-0.1-0.3l-0.2,0.3
		c-0.1,0.1-0.2,0.1-0.4,0.2c-0.2-0.1-0.3-0.2-0.3-0.3l-0.1-0.9l-0.2,0.3l-0.3-0.1l-0.2,0.4l-0.6,0c-0.2,0-0.4-0.1-0.5-0.3l-0.1-0.3
		l-0.4-0.2l-0.1-0.3l-0.2-0.1c-0.1,0.1-0.1,0.2-0.2,0.3c-0.2,0.3-0.3,0.6-0.4,0.9c-0.1,0.2-0.3,0.4-0.6,0.4l-0.5-0.3l0-0.3
		c-0.4,0-0.6-0.1-0.7-0.1c-0.1-0.2-0.1-0.3-0.3-0.3l-0.2,0.3c0,0.1-0.1,0.1-0.2,0.1c-0.1-0.1-0.1-0.2-0.1-0.4l0.1-0.4
		c0-0.2-0.1-0.2-0.3-0.2l-0.3,0.1c-0.1-0.1-0.2-0.2-0.3-0.2l-0.3,0.2l-0.2,0.2l0,0.3l-0.3,0l-0.3-0.1l-0.7,0.3l0-0.6
		c-0.2-0.1-0.4-0.2-0.5-0.3c-0.3,0.1-0.4,0.3-0.6,0.4c-0.1,0.2-0.3,0.2-0.4,0.2c0.1-0.2,0.1-0.3,0-0.5c-0.3,0-0.6-0.1-0.7-0.1
		l-0.3-0.5l-0.4-0.2c-0.1-0.2-0.2-0.3-0.4-0.3l-0.7,0l0.2-0.2l0-0.2l-0.7-0.1L116,88l-0.6,0l-0.1-0.3l-0.2-0.2l-0.2,0.3
		c-0.1,0-0.2,0.1-0.2,0.1l-0.1-0.3l-0.3,0l-0.3-0.5l-0.1-0.4c-0.3,0-0.5,0-0.6,0c0-0.1,0-0.2,0.1-0.3c0.1-0.1,0.1-0.1,0.1-0.2
		s0-0.1,0-0.1l-0.7-0.2l-0.4-0.7l-0.5-0.1l-0.1-0.7c0-0.3-0.1-0.4-0.2-0.5l-0.3,0.2l-0.1-0.6c0-0.3-0.1-0.5-0.2-0.5l-0.2,0.1
		l-0.2,0.2c-0.2-0.1-0.3-0.2-0.4-0.3l-0.3-0.4l-0.3-0.2l-0.1-0.4l0.3-0.2l-0.1-0.6l0.3,0l-0.1-0.5l-0.3-0.9l0.2-0.3l0-0.8
		c0-0.2-0.1-0.4-0.4-0.7l-0.3-0.7l-0.2-0.3l0.3,0l0.7-0.4l-0.2-0.3l-0.1-0.3l0.3-0.9l0-0.4l0.3-0.1l-0.4-0.5l0.5-0.4l0.3-0.5
		c0.1-0.2,0.2-0.4,0.3-0.5l0.1-0.3c0-0.2,0.1-0.2,0.2-0.3l0.5,0.2c0.3,0.1,0.5,0.1,0.5-0.2l-0.1-0.5l0.1-0.3l-0.2,0l-0.1-0.2
		c0.2-0.2,0.3-0.3,0.5-0.3c0.2,0,0.3,0,0.4-0.1c0.1,0,0.1-0.1,0.2-0.1l0-0.2l-0.2-0.1l0.1-0.4l0.1-0.6l0.1-0.3l0.2,0.1l0.1,0.3
		l-0.3,0.4c0.1,0.1,0.2,0.1,0.3,0.1l0.3,0l0.1,0.5c0.1,0,0.2,0,0.3-0.1c-0.1-0.2-0.2-0.4-0.1-0.6l0.2-0.2l0.2-0.3l-0.4-0.7l1-0.7
		l-0.2-0.4c-0.1-0.2-0.1-0.4-0.1-0.5c0.3,0,0.4-0.1,0.5-0.2l0-0.2l-0.1-0.1c0-0.4,0.1-0.7,0.2-0.8c0.1,0,0.2,0,0.3,0s0.2,0,0.3,0
		l0.2-0.6c0.5-0.2,0.7-0.3,0.8-0.3l0.1-0.5c0.4-0.1,0.7-0.3,0.8-0.5c0,0.1,0.1,0.1,0.3,0.2l0.2-0.5l0.3-0.1c0.2,0,0.3-0.1,0.4-0.1
		c0-0.2,0-0.3,0-0.4l0.4,0l0.2-0.3l0.7-0.3c0.1,0,0.2,0,0.4,0l0.2-0.2l0.4,0l0.3-0.5l0.5,0.2l0.3-0.1l0.3,0.3l0.2,0.4l0.2,0.3
		l0.1,0.1l-0.1,0.5l0,0.5c0,0.1,0,0.1,0.1,0.2c0.1,0,0.1,0.1,0.1,0.1l0.3-0.1l0.3-0.1l-0.3-0.2l0.3-0.3l-0.2-0.7l-0.2-0.8
		c0-0.2,0-0.3,0.2-0.4l0.1,0.2l0.1,0.3l0.3,0.1c-0.2,0-0.3,0.1-0.4,0.1c0,0.1,0,0.2,0.1,0.2l0.4,0.1l0.3-0.2l0.1,0.3l0.1,0.4
		c0.1-0.1,0.2-0.2,0.2-0.3l0-0.6l-0.4-0.3c0-0.1-0.1-0.1-0.1-0.2c0-0.1-0.1-0.1-0.1-0.2c0.1-0.1,0.3-0.1,0.6-0.1
		c0.3,0.1,0.5,0.2,0.6,0.3l0.1,0.3c0.1,0.1,0.1,0.2,0.2,0.2l0.3,0c0.2-0.1,0.3-0.1,0.3-0.1l0.2,0.2l0.2-0.2l0.1-0.1
		c0.1,0.1,0.2,0.2,0.3,0.3c0,0.1,0.1,0.1,0.1,0.2c0,0,0.1,0.1,0.1,0.1l1.1-0.1l0.1,0.2l0.3,0l-0.3,0.3c-0.1,0.1-0.1,0.2,0,0.4
		c0.1,0,0.1,0,0.2-0.1l0.2-0.2c0.2,0.1,0.4,0.1,0.4,0.2l0.5,0.4c0.1,0,0.3,0.1,0.5,0l0.4-0.3l0.3,0.1l0.2,0l0.3,0l0.2,0.3l0.3-0.2
		l0-0.2l-0.1-0.2l-0.2-0.1l0-0.4l-0.3-0.1l-0.1-0.2c0.1-0.1,0.2-0.2,0.3-0.2c0-0.2,0-0.4,0-0.5l0.4-0.1l-0.2-0.3l0.1-0.2
		c0.2,0,0.2,0,0.3,0.2c0,0.1,0,0.1,0,0.2c0,0,0,0.1,0.1,0.1l0.3-0.5l0.4-0.6l0.3-0.2c0,0.2,0,0.4,0,0.6c0.1,0,0.2-0.1,0.3-0.1
		l0.3-0.2L135,60l0.7,0.4l1.1,0.3c0,0.1,0,0.1,0,0.2c0,0.1,0.1,0.1,0.1,0.1l0.7,0.4c0.1,0.1,0.2,0.3,0.2,0.5c0,0.3,0.1,0.4,0.2,0.5
		l0.3-0.1l0.1,0.1l0.5,0.4l0.1,0.5l0.4,0.3l0.3,0.2l0.1,0.7L140,65c0.1,0.2,0.1,0.3,0.1,0.5c-0.1,0.1-0.2,0.1-0.3,0l-0.3-0.2
		l-0.3,0.2l-0.3-0.1l-0.3,0.2l-0.5-0.3c-0.1,0.1-0.3,0.2-0.4,0.4c-0.1,0.1-0.2,0.2-0.4,0.3c-0.3,0.1-0.6,0.2-0.7,0.3
		c-0.1,0.1-0.2,0.3-0.2,0.5l0,0.6l-0.5,0.7l0.1,0.2l0.1,0.1c0,0.2-0.2,0.4-0.5,0.6l-0.9,0.2l-0.1-0.1l0.1-0.2c0-0.1,0-0.2-0.1-0.2
		l-0.3-0.2l-0.1-0.4l-0.5-0.2l-0.5-0.2c-0.1-0.4-0.3-0.6-0.4-0.7c-0.1-0.1-0.2-0.3-0.1-0.6c0-0.3,0-0.5-0.2-0.5
		c-0.1,0.1-0.2,0.1-0.3,0.2l-0.1,0.5c-0.2-0.1-0.3-0.2-0.4-0.4l0-0.4c-0.1,0-0.2,0-0.2,0c0,0.1-0.1,0.1-0.1,0.1l-0.1,0
		c0.1-0.3,0-0.5-0.1-0.5l-0.1,0.1l-0.4-0.3l-0.3,0.2c-0.1,0-0.2-0.1-0.2-0.2l-0.1-0.2l-0.5,0.3l-0.4-0.4l-0.5-0.1l-0.2,0.1l-0.7,0.1
		c-0.2,0-0.4,0-0.6-0.2l-0.3-0.4l-0.2,0.2c0,0-0.1,0.1-0.3,0.1l-0.1-0.2l0-0.4c-0.1-0.2-0.2-0.3-0.3-0.3c-0.1,0.1-0.1,0.1-0.2,0.2
		c-0.2,0.2-0.4,0.4-0.5,0.5c-0.3,0.4-0.5,0.6-0.7,0.7l-0.3-0.3l-0.9,0.2l-0.6,0.4l-0.7,0.5l-0.2,0l-0.3,0l-0.6,0.7l-0.5,0.2l-0.9,1
		l-0.5,0.7l-0.7,0.6l-0.4,0.1l-0.1,0.4l0,0.5l-0.6,0.6l0.1,0.3l-0.2,0.3l0.2,0.1l0.8,0l0.6-0.2c0.2,0.1,0.4,0,0.7-0.1l0.6-0.3
		l0.5,0.1l0.9-0.2l0.9-0.3l1.1-0.1l0.9-0.1l0.8,0l0.9,0l0.2,0l0.1-0.2l0.5,0.2l0.6,0l1-0.2c0.4,0,0.7-0.1,1.1-0.1
		c0.4,0,0.8,0.1,0.9,0.1l2.5,0l0.2-0.1l0.6,0l0.5,0l0.2-0.3l0.2-0.1l0.2,0.2l0.3,0.1l0.6,0.1l0.2,0.2l0.2-0.2l1,0.2
		c0.5,0.1,0.8,0.1,1.1,0l0.3-0.3l0.1-0.1l0.5,0.1l0.3,0.1l0.3-0.2l0.3,0.1l0.5,0c0.6-0.1,1.1,0,1.4,0.1l0.5,0.1l0.1,0.4l0,0.4
		l0.2,0.1c0,0.2,0,0.3-0.1,0.3l-0.3,0.5l0.1,0.1l0.3,0.5l0,0.7l-0.1,0.2c-0.1,0.1-0.2,0.2-0.3,0.3c-0.1,0.1-0.1,0.1-0.2,0.2
		c-0.2-0.1-0.3-0.2-0.3-0.3c-0.1-0.1-0.1-0.1-0.2-0.1l-1.7,0.3l-0.2-0.2l-0.3-0.1c-0.1,0.1-0.1,0.3,0.1,0.5c0.2,0.1,0.2,0.2,0.2,0.3
		c-0.1,0-0.1,0-0.2,0c-0.1,0-0.2,0-0.2,0l-0.3,0.7l-0.3,0l-0.2,0.6l-0.2-0.1l-0.1,0.5c0,0.2,0,0.4-0.2,0.4l-0.6,0.1l-0.6,0l-0.7,0.3
		l-0.6-0.1l-1.2,0.2l-0.4-0.2l-0.4,0l-0.1-0.2l-0.5,0.1l-0.8-0.1l-0.4,0.3c-0.1,0.1-0.2,0.2-0.4,0.2c-0.2,0-0.4,0-0.4,0l-0.8-0.2
		l-0.7,0.1l-0.6-0.2l-1.2,0.1l-0.6,0.3l-0.3-0.2l-0.3-0.1l-1,0.2l-0.3,0.3l-0.4-0.2l-0.5,0l-0.8,0.2l-0.6-0.1l-0.7-0.1l-1,0.3
		l-0.2,0.1l-0.4,0l-0.3-0.3c-0.1,0.1-0.2,0.2-0.2,0.3c0,0.1,0,0.1-0.1,0.2c0,0-0.1,0.1-0.1,0.1l-0.5-0.2l-1.3,0l-0.9,0.2l-0.3,0.3
		l-0.5,0.1c-0.1,0-0.2,0.1-0.3,0.1c-0.1,0.2-0.2,0.4-0.2,0.6l0.5,1c0.3,0.8,0.8,1.6,1.6,2.4l1,1c0.2,0.2,0.8,0.5,1.6,0.9l1.5,0.7
		l0.6,0.1c1,0.4,2.1,0.8,3.3,1.1c0.6,0.1,1.1,0.2,1.7,0.3c0.6,0.1,1.1,0.1,1.7,0.2l2.7,0.2l1.8-0.1l2.6-0.3l2.7-0.3l1.1-0.3l1.2-0.2
		l0.6-0.1c0.2,0.1,0.4,0,0.6-0.1l0.6-0.4l0.5,0l1.1-0.5l0.8-0.6l0.4-0.2l0.5-0.1C147,83.4,147.2,83.4,147.3,83.5
		C147.2,83.5,147.2,83.5,147.3,83.5z M110,80c0,0.1,0,0.1,0,0.2l-0.2,0.1c0-0.1-0.1-0.1-0.1-0.2C109.8,80.1,109.9,80,110,80z
		 M110.9,75.5c0.2,0,0.2,0.1,0.2,0.3l-0.2,0.1l-0.2-0.3L110.9,75.5z M112.1,70.9l-0.1,0.2l0-0.2L112.1,70.9z M112.8,82.1l0,0.3
		l-0.2,0.1c0-0.1-0.1-0.2-0.1-0.3L112.8,82.1z M114.4,68.7l0,0.2l-0.1,0.1l-0.1-0.2L114.4,68.7z M116.8,86.7l-0.2,0.2
		c-0.1,0.2-0.1,0.4,0.1,0.5l0.2-0.1C116.9,87,116.9,86.8,116.8,86.7z M117.4,86.4c-0.1,0.1-0.2,0.2-0.2,0.3c0,0.1-0.1,0.2,0,0.3
		l0.3-0.2c0-0.1,0-0.1,0-0.2C117.4,86.5,117.4,86.4,117.4,86.4z M117.7,87.9l-0.3-0.2l0,0.2L117.7,87.9z M120.5,63.8l-0.2,0
		l-0.1,0.1l-0.2-0.1c-0.1,0.1-0.2,0.2-0.2,0.3l0,0.4c0.2,0.2,0.4,0.2,0.5-0.1C120.6,64.1,120.6,63.9,120.5,63.8z M121.1,64l0.1,0.3
		l-0.2,0.1L121.1,64z M121.9,63.3c0,0.1,0.1,0.2,0,0.2l-0.2,0l0-0.2C121.8,63.3,121.8,63.3,121.9,63.3z M122.1,64.1
		c0-0.1-0.1-0.1-0.1-0.2C122.1,64,122.1,64.1,122.1,64.1z M122.6,90.2c0.1,0.2,0.1,0.3,0.1,0.4l-0.3,0.2c-0.1-0.1-0.1-0.2-0.1-0.4
		C122.4,90.4,122.5,90.3,122.6,90.2z M123.1,63l0,0.3l-0.2,0.1l0,0.2c0.1-0.1,0.2-0.2,0.3-0.2C123.2,63.2,123.2,63.1,123.1,63z
		 M123.4,61.2l-0.2,0.2l0-0.2L123.4,61.2z M123.9,90.1c0,0,0.1,0.1,0.1,0.3c-0.1,0.1-0.2,0.1-0.3,0c0,0-0.1-0.1-0.1-0.3
		C123.8,90.1,123.9,90.1,123.9,90.1z M125.4,91l0.1,0.3l-0.1,0.2l-0.1-0.3L125.4,91z M126.3,91.1l0,0.2l-0.3,0.2l0-0.2L126.3,91.1z
		 M127.3,63.4l0.1,0.4l-0.1,0.3l0-0.3L127.3,63.4z M128.5,63.1l-0.3-0.2l-0.1-0.1l0,0.4l-0.3,0.9l0.1,0.5c0.1,0,0.2,0,0.2-0.1l0-0.4
		l0.2-0.5c0.1-0.1,0.1-0.1,0.1-0.2C128.4,63.3,128.5,63.2,128.5,63.1z M128.2,62.2l0.2,0.2c0.1,0.1,0,0.2-0.1,0.3
		c-0.1,0-0.2-0.1-0.2-0.2C128.1,62.3,128.2,62.2,128.2,62.2z M129,60.8l0.1,0.2l-0.4,0.2l-0.2,0.2l0.1-0.3c0.1-0.1,0.2-0.1,0.3-0.2
		C128.9,60.9,129,60.8,129,60.8z M128.8,89.5l0,0.3l0.1-0.1L128.8,89.5z M130,61l-0.1,0.2c-0.3,0.2-0.4,0.3-0.6,0.2l0.2-0.3
		C129.7,61,129.8,60.9,130,61z M130.3,60.6l-0.1,0.3l-0.1,0.4l-0.1-0.5L130.3,60.6z M130.4,91l0,0.2l-0.2,0l0-0.2L130.4,91z
		 M130.9,60.4c0,0.2,0,0.2,0,0.3c-0.1,0-0.2,0-0.2,0c-0.1-0.1-0.1-0.2,0-0.2C130.7,60.3,130.8,60.3,130.9,60.4z M131.7,61.3l0.1,0.1
		l-0.1,0.1L131.7,61.3z M132.4,59.4l0,0.1l-0.1,0L132.4,59.4z M133.4,62.1l-0.1,0.5l0-0.3L133.4,62.1z M133.9,61.2l-0.2,0.1
		l-0.2-0.2L133.9,61.2z M135,89.6l-0.4-0.1c-0.2,0-0.4,0.1-0.4,0.3c0.1,0.1,0.3,0.2,0.4,0.3l0.1-0.4L135,89.6z M135.2,61.7l-0.4,0.3
		l0.4,0.5l0.1-0.3L135.2,61.7z M137.1,75l-0.1-0.2l-0.4,0.2c-0.1,0-0.1,0.1-0.2,0.2l0.1,0.1l0.4,0C137.1,75.2,137.1,75.1,137.1,75z
		 M139.1,58.8l-0.1,0.3l-0.2,0.1l-0.1,0.8c-0.1,0.2-0.2,0.3-0.4,0.3l-0.7-0.2l-0.2-0.2l-0.1-0.2l-0.4-0.2l0.2-1
		c0.2,0,0.3-0.1,0.4-0.1l0.3-0.3c0.2,0.1,0.3,0.2,0.4,0.4c0.1,0.1,0.2,0.3,0.3,0.3L139.1,58.8z M137.3,62.6c0.1,0.1,0.1,0.2,0,0.3
		l-0.2,0.3l0.1-0.7L137.3,62.6z M141.6,88.2c0-0.1,0-0.2,0-0.3c0,0.1,0.1,0.1,0,0.2C141.6,88.2,141.6,88.2,141.6,88.2z M147.7,83.4
		l0,0.2l-0.2,0l0-0.2L147.7,83.4z"/>
</g>
<g class="st0">
	<path class="st1" d="M164.6,77.2l-0.3,0.6l0.1,0.4c0,0.2-0.1,0.3-0.1,0.3l-0.1,0.2c0,0.1,0.1,0.2,0.1,0.3c0,0.1,0,0.2,0,0.2
		l-0.2-0.1c0,0-0.1,0-0.3,0l0.2,0.2l0.1,0.4l-0.7,0.7c0,0.1,0,0.1,0,0.2c0,0-0.1,0.1-0.1,0.1c-0.2-0.1-0.3-0.2-0.4-0.3
		c-0.1,0.1-0.2,0.1-0.2,0.2l-0.1,0.2l-0.4-0.1l-0.3-0.1l-0.2,0.8l-0.3,0.3l-0.2,0.3c0,0-0.1,0-0.3,0l-0.2,0.4l-0.2,0l0,0.3l-0.4,0.1
		l-0.5,0.6l-0.6,1.2c-0.2,0.1-0.4,0.2-0.5,0.3c-0.1,0.1-0.1,0.4-0.1,0.8c-0.1,0-0.2,0-0.4,0l-0.2,0.2l-0.6,0.1
		c-0.1,0.1-0.2,0.2-0.2,0.3l-0.2,0.3c-0.1-0.1-0.2-0.1-0.3-0.1c-0.1,0-0.2,0-0.2-0.1l-0.3,0.4l-0.7,0l-0.2,0.4
		c-0.2,0-0.4-0.1-0.7-0.4l-0.3-0.5c-0.2,0-0.3,0.2-0.2,0.4c0,0.2,0,0.3,0,0.3c0,0-0.1,0.1-0.1,0.1l-0.6-0.1l-0.2,0.3l-0.3,0.1
		l-0.5-0.6l-0.4,0.2l-0.6,0.4l-0.1,0.2l-0.5,0l-0.5-0.2l-0.6,0.2l-0.8-0.1c-0.5,0.1-0.8,0-0.9-0.1l-0.2-0.4l0-0.5l-0.1-0.3l0.3,0.2
		c0.1,0.1,0.2,0.1,0.4,0.1l-0.1-0.7l-0.2-0.2l-0.2-0.3l0.3-0.5l-0.1-0.6l0.5-0.2l0.1-0.2c0.3,0,0.5,0,0.5-0.2
		c-0.1-0.2-0.2-0.3-0.3-0.4l-0.5-0.2l-0.4,0l-0.1-0.2l0.4-0.2l0-0.2l0-0.4l0.5,0.1l0.4-0.3c0-0.1-0.1-0.2-0.1-0.2l-0.2-0.2l0.3,0
		c0.1-0.1,0.1-0.3,0-0.6l-0.1-0.6l0.1-0.5l0.3-0.7c0.2,0,0.4,0,0.5-0.2l0.9-0.6c0.4-0.2,0.7-0.4,1-0.4c0.4-0.1,0.7,0.1,1,0.4
		c0,0.2,0,0.4,0,0.5l-0.2,0.5l0.3,0.3l-0.4,0.5c-0.2,0.2-0.3,0.4-0.3,0.6c0.1,0.1,0.2,0.2,0.3,0.3c0.3,0,0.5-0.1,0.7-0.1l0.5-0.2
		l0.9,0.2c0.1-0.1,0.2-0.2,0.3-0.2l1.1-0.1l1.1-0.1l1.2-0.3l0.8-0.3l0.3-0.5c0.1,0,0.1,0,0.2-0.1c0,0,0.1-0.1,0.1-0.1l-0.1-0.4
		l-1-0.8l-0.6-0.7l-0.5-0.3l-0.4-0.5l-0.3-0.6l0.1-0.5l-0.4-0.3c-0.2,0-0.3-0.1-0.3-0.3c0-0.2,0-0.4-0.1-0.5
		c-0.1-0.1-0.3-0.1-0.5-0.1l-0.6,0.1l-0.2-0.2l-0.2-0.2c-0.2,0.1-0.3,0.1-0.4,0.1c-0.2,0-0.3,0-0.3-0.1l-1.5-1.2l-0.7-0.3l-0.3-0.4
		l-0.3,0l-0.7-0.3l-0.5-0.3l-0.3-0.5c0-0.2-0.1-0.3-0.1-0.4c0,0-0.1,0-0.1,0l-0.5,0.1l-0.8-0.5l-0.9-0.5l-0.9-0.3l-1-0.9l-1.2-0.5
		l-0.7-0.5l-1.4-0.5l-0.3-0.4c-0.6-0.1-1-0.2-1.2-0.3c-0.4-0.2-0.6-0.4-0.8-0.7c-0.1-0.3-0.3-0.5-0.5-0.6l-1.3-0.8l-1-0.8l-0.6-0.7
		l-0.1-0.4l-0.4,0c0-0.1,0-0.1,0-0.2s0-0.2,0-0.2l-0.3-0.5l-0.2-0.4l-0.3,0.1c-0.2,0-0.2-0.2-0.1-0.4l0.4,0l0.3-0.2l0.3,0.1l0.2-0.1
		l0.2-0.3l0.4-0.1l0.2,0.2l0.6-0.2l0.7-0.2l0.8,0l0.7-0.2l0.6,0.1l0.4-0.3c0.1-0.1,0.4-0.2,0.7-0.3l0.7,0c0,0.1,0,0.1,0,0.2
		c0,0.1,0,0.2,0,0.2l0.2,0L143,60l-0.1-0.6c0-0.2,0.1-0.3,0.2-0.4l0.1,0.2l-0.1,0.7l0.2,0c0.1-0.1,0.4-0.1,0.6,0l0.6,0.1
		c0.2,0,0.2-0.1,0.2-0.3l-0.3-0.3l0.3-0.3l0-0.3l0.4-0.1l0.3-0.2l0.1,0.1l-0.3,0.2c0,0.1,0,0.2,0,0.3c0.1-0.1,0.2-0.2,0.3-0.3
		l0.1,0.2l0.4-0.4l0.5-0.1l-0.1-0.2l0-0.4l-0.1-0.7c0.3,0,0.5-0.1,0.5-0.2l0-0.2l0.1-0.1c0.1,0.1,0,0.3-0.1,0.5
		c-0.2,0.1-0.2,0.2-0.2,0.4l0.6,0l0-0.2l0.2-0.1l0.3,0.5c0.1,0.1,0.2,0.1,0.3,0c-0.1-0.1-0.1-0.2-0.2-0.3l-0.2-0.2
		c0.1-0.2,0.2-0.3,0.4-0.3c0.2,0,0.4,0,0.5,0.2l0.1-0.1l-0.1,0.1l-0.3,0c0,0.3,0,0.5-0.1,0.6l-0.3,0.3c0,0,0,0.1,0,0.3
		c0.1,0,0.3-0.1,0.3-0.2l0.3,0l0.1-0.3c0.2,0,0.4-0.1,0.4-0.1l0.3-0.2l0-0.2c0.2,0.1,0.3,0.2,0.3,0.3L150,58l0.2,0.1l-0.2,0
		l-0.1,0.3c0.1,0.1,0.2,0.2,0.3,0.2l0.3,0l-0.1,0.5l0.2,0l0.2,0.2c0.1-0.1,0.2-0.2,0.3-0.3c0-0.1,0.2-0.2,0.3-0.2l0.5,0.3l0.4-0.1
		l0.1,0.3l0.3-0.2l0.3,0l0-0.1l0-0.3l0.2,0.1c0,0,0.1,0,0.3,0l0.2-0.4c0-0.2,0-0.3-0.1-0.4l-0.2-0.1c0,0,0-0.1,0-0.1l0-0.1l-0.4,0
		l-0.1,0.2c0-0.2,0-0.4,0.1-0.6c0.1-0.2,0.2-0.4,0.3-0.4l0.3,0.1l0.4-0.2l0.1,0.6c0,0.2,0.2,0.3,0.5,0.3c0.1-0.1,0.2-0.2,0.2-0.3
		l0-0.3l0.3-0.1l0-0.3l0.4,0.2c0.4-0.1,0.7-0.1,1,0l0.5,0.3l0.5-0.1l0.3,0.2l0.3,0.2l0.2-0.1c0,0,0.1-0.1,0.3-0.1
		c0.2,0,0.5,0.1,0.7,0.4l0.8,0.6l0.8,0.4c0.3,0.2,0.5,0.4,0.6,0.7l0.2,1.6c-0.1,0.2-0.2,0.3-0.3,0.3l-0.4,0.1l-0.1,0.2l-0.5-0.3
		l-0.4,0.6l-0.2-0.3l-0.3-0.4l-0.2,0.2l-0.6-0.3c-0.3,0.1-0.5,0.2-0.6,0.3l-0.5,0.3l-0.1,0.6l0,0.6l0.2,0.2l-0.1,0.4l0.2,0.1
		l-0.3,0.5l0.3,0.1l0.3,0.2l0.2-0.2l0.2,0.3l-0.4,0.3l-0.4,0.1c-0.1-0.2-0.1-0.3-0.1-0.3c0,0-0.1-0.1-0.1-0.1l-0.4,0.2
		c-0.1-0.1-0.1-0.1-0.2-0.1c-0.1,0-0.1,0-0.1,0l-0.1,0.5l0.1,0.5l0,0.4l-0.7,0c-0.2-0.1-0.3-0.2-0.4-0.4l0.2-0.5l0.2-0.6
		c-0.1-0.2-0.3-0.3-0.4-0.4l-0.4-0.3l-0.1-0.4l-0.6-0.2c-0.2,0-0.4,0.1-0.4,0.2l-0.9-0.3l-0.8-0.3l-0.4,0l-0.9-0.2l-0.2-0.2
		l-0.3,0.3l-0.3-0.2l-0.5-0.2l-0.7,0.1l-0.4-0.2l-0.4,0l-0.3-0.1l-0.8-0.1c-0.2,0-0.3-0.1-0.5-0.1c-0.2,0-0.3,0-0.4,0
		c-0.1,0.1,0,0.3,0.2,0.6c0.3,0.2,0.5,0.3,0.7,0.3l1.7,0.6l1,0.5l0.3,0.3l1,0.4l0.5,0.3l0.8,0.6l1.6,0.7c0.3,0.3,0.6,0.5,0.8,0.6
		l2.2,1.2l0.8,0.6l1.4,0.9l1,0.5l0.5,0.5l0.4,0.5c0.2,0.1,0.3,0.2,0.5,0.3c0.2,0.1,0.3,0.2,0.5,0.4c0.3,0.2,0.5,0.5,0.7,0.8
		c-0.1,0.2-0.2,0.3-0.3,0.4c-0.1,0.1-0.1,0.2-0.1,0.4l0.6-0.3c0.1,0.1,0.2,0.2,0.2,0.3l0.1,0.3l0.2,0l0.2,0.7l0.1,1.1
		c0,0.1,0.1,0.2,0.1,0.3l0.3,0.2l0.2,1.2L164.6,77.2z M142.2,64.7l-0.1,0.2l-0.2-0.2L142.2,64.7z M145.8,67.2
		c-0.1-0.2-0.2-0.3-0.3-0.4l-0.2-0.2l0-0.2l0.2-0.1l-0.3-0.2l-0.1-0.6l-0.1-0.4l-0.5-0.3l0.1-0.2l-0.1-0.2c-0.1,0.1-0.2,0.2-0.2,0.3
		l-0.2,0.1l-0.3,0l-0.2-0.3c-0.1-0.1-0.2-0.1-0.4-0.2l-0.3,0.3l-0.1-0.2l-0.2-0.2l-0.1,0.2c0,0.3,0.1,0.6,0.2,0.8l0.6-0.2
		c0.1,0,0.2,0,0.2,0c0,0,0.1,0.1,0.1,0.1l0.1,0.8l0.7,0l-0.1,0.3c-0.1,0.1,0,0.2,0.1,0.3l0.3-0.1c0.1,0,0.1-0.1,0.2-0.1
		c0.1,0,0.1,0,0.1,0c0.1,0.1,0.1,0.2,0.2,0.4c0,0.2,0,0.4,0,0.6c0,0.1,0.1,0.1,0.1,0.2c0,0.1,0.1,0.1,0.2,0.2L145.8,67.2z
		 M144.2,63.5c0,0.1,0,0.1,0,0.2C144.2,63.6,144.2,63.5,144.2,63.5z M147.3,67.1l-0.4-0.6l0.3-0.2l-0.2-0.1l0-0.3
		c-0.1-0.1-0.2-0.2-0.3-0.2l-0.3,0.5l-0.2,0.1l-0.4-0.2l0.2,0.3l0.6,0.1l0.1,0.4L147.3,67.1z M148.4,58.5l-0.3,0.2l-0.2,0l-0.1-0.1
		l0.1-0.1c-0.1-0.1-0.1-0.2-0.2-0.2l-0.3-0.1l-0.1-0.2c-0.1,0.1-0.2,0.3-0.2,0.4c0,0.1,0,0.2,0,0.2c0,0-0.1,0.1-0.1,0.1l-0.3-0.2
		c0,0-0.1,0.1-0.3,0.1l-0.2-0.1l0,0.4l-0.2,0.6c0,0.2,0.1,0.3,0.3,0.3l0.6-0.4l0.5-0.1l0.2-0.4l0.5,0.2l0.3,0L148.4,58.5z
		 M147.6,59.8l0.1,0.2l-0.2,0.3l0-0.4C147.5,59.8,147.5,59.8,147.6,59.8z M148.6,67.4l-0.3,0c-0.1,0.1-0.2,0.1-0.3,0.1l0,0.2l0.3,0
		l-0.1,0.2c0.1,0,0.2-0.1,0.3-0.2c0.1-0.1,0.1-0.1,0.1-0.2S148.5,67.5,148.6,67.4z M150.1,81.6l-0.4,0.1l-0.1,0.1l0.4,0l0.1,0.5
		l0.2-0.3C150.3,81.7,150.2,81.6,150.1,81.6z M151.1,57.8l-0.2-0.2l0.1-0.2c0.1,0.1,0.2,0.2,0.2,0.3L151.1,57.8z M152.1,57.8
		l0.1,0.4l0,0.4l-0.7-0.6c-0.1-0.1-0.1-0.3-0.1-0.5l0.2-0.1c0,0.2,0.1,0.4,0.3,0.5L152.1,57.8z M152.5,69.7c-0.1-0.1-0.2-0.1-0.4,0
		c-0.2,0-0.3,0.1-0.2,0.3c0.1,0.2,0.2,0.3,0.3,0.4l0.4,0.2c0.1-0.2,0.2-0.3,0.2-0.4L152.5,69.7z M154.1,70.6c0.1-0.1,0-0.2-0.2-0.3
		l-0.5-0.3l-0.1-0.1l-0.3,0.2l0,0.6l-0.3,0.1l0.2,0.5l0.6-0.5L154.1,70.6z M153.6,69.9l0.1-0.1l0.1,0.2L153.6,69.9z M154.4,74.1
		l-0.1,0.1l0,0.1L154.4,74.1z M155.4,74.3l-0.5-0.2l-0.2,0.2c0.2,0,0.4,0,0.4,0l0.2,0.3c0.1,0,0.2,0,0.2,0
		C155.5,74.4,155.4,74.3,155.4,74.3z M155,59.3l0,0.3l-0.2,0.3c0-0.2,0-0.3,0-0.3C154.7,59.5,154.8,59.5,155,59.3z M156.3,86.1
		l0.2-0.1c-0.1-0.2-0.1-0.3-0.3-0.3l-0.1,0.1c0,0,0,0.1,0,0.1l0,0.1L156.3,86.1z M157.7,85.6l0.2,0.2l-0.2,0.1
		c-0.1-0.1-0.2-0.1-0.2-0.2L157.7,85.6z M158.1,62.2l-0.3-0.6l0-0.3l0.3,0.5L158.1,62.2z M158.5,64l-0.2,0.1l0-0.2L158.5,64z
		 M159,61l-0.2,0.2l0,0.4c-0.1,0.1-0.1,0.2-0.2,0.2c-0.2,0-0.2-0.2,0-0.5C158.7,61,158.8,60.9,159,61z M160.1,82.6l-0.1,0l0-0.3
		l0.2,0.2C160.2,82.6,160.2,82.6,160.1,82.6z M164.8,76.2c0,0.1,0,0.2,0,0.2l-0.2,0.1l0-0.2C164.7,76.2,164.7,76.2,164.8,76.2z"/>
</g>
<g class="st0">
	<path class="st1" d="M196.6,82.5l-0.3,0.1l-0.2,0.1l-0.8,0.8l-1,0.8c0,0.2,0,0.4-0.1,0.5l-0.2,0.1l-0.3,0.5l-0.1,0.5
		c-0.2,0.2-0.4,0.2-0.6,0.1l-0.6-0.6l-0.3,0l-0.5-0.8l-0.4-0.1l-0.3-0.1l-0.4-0.4l0-0.3c-0.3,0-0.5-0.1-0.6-0.2
		c-0.1-0.3-0.2-0.5-0.3-0.5l-0.9-0.4l-0.4-0.5l-0.7-0.3l-0.1-0.4L187,81c-0.2-0.2-0.3-0.3-0.4-0.5c0.2-0.2,0.2-0.4,0.1-0.5l-0.4,0.1
		l-0.2-0.3c-0.2,0-0.4-0.1-0.5-0.2l0-0.4l-0.2-0.1l-0.4-0.2l-0.2-0.3l-0.6,0l-0.5,0c-0.2,0.2-0.3,0.3-0.5,0.4l-0.4-0.1l-0.5-0.1
		l-0.2,0.3l-0.8,0.2l-0.7,0.1l-1.2-0.3l-0.3,0.1l-0.2,0.2l-1.1,0l-0.4-0.4l-0.2,0.2l0.1,0.4c-0.3-0.1-0.6-0.1-0.7-0.1l-0.6-0.2
		l-0.3,0.1l-0.1,0.2c-0.3,0-0.5,0.1-0.6,0.2l-0.2,0.2l-0.4-0.2l-0.7,0.2l-0.8,0l-0.8,0.1l-0.1,0.8c0.1,0,0.1,0,0.2,0.1
		c0,0,0.1,0.1,0.1,0.1l0,0.9l-0.3,0.5l0.1,0.5l-0.1,1.3l0.1,1.5l-0.2,2c0.1,0.1,0.2,0.3,0.3,0.5c0,0.3,0,0.7-0.1,1.4l-0.2,1.3
		l0.1,0.8l0,0.7l-0.1,0.2l-0.1,0.6l0.2,0.1l-0.3,0.4l-0.4,0.2l-0.5-0.1l-0.1-0.3l-0.2,0.3c-0.1,0.2-0.2,0.3-0.3,0.3l-0.4-0.3
		l-0.3,0.1l-0.5-0.3l-0.1-0.1l-0.1-0.1l-0.2,0.2l0,0.4l-0.1,0.1l-0.4-0.5c-0.1-0.2-0.2-0.4-0.1-0.5l0.2-0.1l-0.2-0.2
		c0-0.1-0.1-0.1-0.3-0.1l-0.3,0.2c-0.1,0.1-0.1,0.2,0,0.4l0.4,0l0.1,0.2l-0.5,0.4l-0.8,0l-0.4,0.1l-0.1,0.3c0.1,0.1,0.1,0.2,0,0.3
		c-0.2-0.1-0.3-0.1-0.4-0.2c0-0.1-0.1-0.1-0.3-0.2c-0.1,0.3-0.1,0.5-0.3,0.6c-0.1,0.1-0.2,0.1-0.3-0.1l0-0.2l0.1-0.2l-0.2-0.6
		l0.3-0.4l-0.3-0.5c0-0.3,0-0.6,0.1-1.1l0.1-0.6l0-0.4l0-0.2l-0.1-1.1l0.1-0.7l-0.1-0.4l0.2-1.9c0.1-0.7,0.1-1.2,0.1-1.7
		c-0.1-0.1-0.1-0.2-0.1-0.4l0.2-0.6l0-1.4l-0.1-0.5l0-1.9l-0.1-1.5l-0.1-1.2l-0.1-0.3l0.1-0.6c0-0.3,0-0.5,0-0.7l0.3-0.4l-0.1-0.4
		l-0.3-0.8l0.1-0.6l-0.2-0.4c0.1-0.2,0.1-0.3,0.2-0.3l0.2-0.3l-0.6-1.1l0.2-0.2l0.3-0.1l0-0.5l0-0.3l-0.3-0.2l-0.1-0.1l0.1-0.4
		l0.1-0.3l-0.2-0.3l0.2-0.6l0.2-1l-0.2-0.1c-0.1,0-0.2-0.1-0.2-0.2l0-0.7l0.1-0.5l-0.4-0.4c-0.2-0.2-0.3-0.4-0.1-0.6
		c0.1-0.1,0.3-0.1,0.4,0l0.3-0.2l0.2,0.2l0.2,0c0.1-0.1,0-0.2-0.2-0.3l-0.6-0.3l0.1-0.7l0.3-0.1l0-0.2l-0.3-0.2
		c-0.3-0.5-0.4-1-0.4-1.3l-0.2-0.3c0-0.2,0-0.3,0.1-0.4l0.4-0.2l-0.2-0.2L164,60l0.2-0.4l0.3-0.4l-0.1-0.7c0.4,0,0.6,0,0.7-0.1
		l-0.4-0.3c-0.3-0.2-0.4-0.4-0.4-0.6c0.1-0.3,0.4-0.5,1.1-0.8l0.1-0.3l0.6,0.1l0.3-0.2l0-0.2l0.3,0.2c0.1-0.1,0.2-0.2,0.2-0.2
		c0.1,0,0.1-0.1,0.2-0.1l0.3,0.2l-0.4,0.2c-0.1,0.1,0,0.2,0.1,0.4l0.2,0l0,0.3l0.4,0l0.3,0l0.1-0.4l0.4,0.2l0.1-0.3
		c0,0,0.1-0.1,0.3-0.1l0.1,0.2c0.1,0.1,0.3,0.2,0.4,0.2l0.5,0.1l0.4-0.1l-0.4,0.5l0.5,0.1c0.2,0,0.4,0,0.6,0.2l0.4,0.6l0.7,0.7
		c0.3,0.3,0.4,0.6,0.6,0.9l0.1,0.9l0.1,0.4l0,0.4c-0.1,0.1-0.1,0.1-0.2,0.2c-0.1,0-0.1,0.1-0.2,0.1l0.6,0l-0.2,0.5
		c0.2,0,0.3-0.1,0.4-0.1c0.2-0.1,0.3-0.1,0.4,0l-0.1,0.4L174,63l0.3,0l0.3,0.2l0.1,0.4l0.5,0.3l0,0.8l0.4,0.1c0.2,0,0.3,0,0.4,0
		l0,0.4l0.1,0.1c0.2,0,0.3,0,0.4,0.1l0.3,0.4l0.5,0c0,0,0,0.1-0.1,0.3l0.8,0.5l0.2,0.5l0.6,0.3l0.6,0.7l0.7,0.3
		c0.1,0.1,0.2,0.3,0.2,0.3l0.1,0.3l0.8,0.4c0,0.1,0,0.1,0,0.2c0,0.1,0.1,0.1,0.1,0.1l0.8,0.4l0.9,0.7l0.1,0.5c0,0.2,0.1,0.4,0.4,0.6
		l1.7,0.3c0.2,0,0.3-0.1,0.5-0.3c0.1-0.2,0.5-0.1,1,0.1l0.6,0.3l0.1,0.3l-0.5,0.2c0.2,0.1,0.3,0.2,0.4,0.2c0.3,0,0.4,0,0.5,0.1
		l-0.3,0.5l-0.3,0.5l0.3,0.1l0.5,0.3c0.3,0.3,0.5,0.5,0.6,0.6l0.4,0c0.2,0,0.4,0,0.4,0.1l0.4,0.3l0.4,0.3l0.4,0.6l0.5,0.1
		c0.3,0,0.5,0.1,0.6,0.1c0,0.1,0,0.1-0.1,0.2c0,0.1,0,0.2,0,0.2l0.5,0.3c0.2,0.1,0.3,0.2,0.4,0.3l0.3,0.5l0.8,0.3
		c0.3,0.1,0.5,0.2,0.8,0.5l0.4,0.1l0.2,0.5l0.4,0.2l0.4,0.1l-0.1,0.3l0.3,0.3c0.1,0,0.2,0.1,0.3,0.3l-0.1,0.5l0.4,0.3l-0.2,0.3
		c0,0,0,0.1-0.1,0.3L196.6,82.5z M165.4,56l-0.1,0.1l-0.3,0c0,0.1,0,0.3,0,0.4l0.1,0.3l-0.2,0l-0.2-0.2l-0.3,0.1l-0.1,0.1
		c-0.2,0-0.3-0.1-0.4-0.5l-0.1-0.5l0.3-0.3c0,0.1,0.1,0.3,0.1,0.4c0,0.2,0.1,0.3,0.1,0.4l0.2-0.3l0.2-0.3c0.2,0,0.3,0,0.3,0
		L165.4,56z M168.5,62.3c-0.2,0-0.3,0-0.4,0c-0.1,0-0.2,0.1-0.3,0.2c-0.1,0.2-0.1,0.3,0.1,0.4c0.4,0.1,0.6,0.1,0.8-0.1
		C168.7,62.5,168.7,62.4,168.5,62.3z M177.3,73c0.2-0.3,0.1-0.5-0.2-0.8c-0.4-0.3-0.7-0.5-0.9-0.7c-0.1-0.2-0.2-0.4-0.5-0.5
		l-0.7-0.5l-0.5-0.7c-0.3-0.3-0.8-0.8-1.3-1.4l-1.2-1.5l-0.6-0.1l-0.1,0.1l0.6,0.4l-0.3,0.2c-0.1,0-0.2,0.1-0.2,0.3l0.2,0.4
		c0.2,0.2,0.3,0.3,0.3,0.5l-0.3,0.2c-0.1,0.1-0.2,0.2-0.2,0.2l0.2,0.1l0.2,0.3l0.1,0.4l-0.4,0.4l0,0.4l-0.5,0.1l0.2,0.2l0.2,0.1
		l-0.2,0.3l0.1,0.8l-0.5,0.4c-0.2,0.2-0.3,0.4-0.3,0.6c0.1,0,0.2,0.1,0.3,0.1s0.2,0,0.3,0c0.4,0,0.6,0,0.7,0
		c0.1,0.1,0.1,0.3,0.1,0.4l0,0.4l0.4,0.2l0.7,0.2c0.2,0,0.3-0.1,0.4-0.3l0.2-0.4l0.4,0l0.8-0.8c0.1,0.2,0.1,0.3,0.1,0.3
		c0,0,0.1,0.1,0.1,0.1l0.9-0.2l0.8,0.2l0.2-0.1L177.3,73z"/>
</g>
<g class="st0">
	<path class="st1" d="M213.3,62.1c0.1,0.1,0.2,0.3,0.1,0.7l-0.2,0.8l-0.2,0.3l-0.1-0.5c0-0.1,0-0.2-0.1-0.3c0-0.1-0.1-0.2-0.1-0.3
		l-0.6,0.4c0,0.1,0.1,0.1,0.1,0.2c0,0.1,0.1,0.1,0.1,0.2l-0.6,0.1l0.1,0.2L212,64l-0.2,0.5c0,0.3-0.1,0.4-0.2,0.5l-0.2-0.3l-0.5,0.2
		c-0.1-0.1-0.2-0.2-0.2-0.3l-0.2-0.2l0.2-0.3c-0.1-0.1-0.1-0.2-0.2-0.2l-0.2,0.1l-0.2,0.6c-0.2,0-0.3,0.1-0.4,0.1
		c0.1,0.1,0.2,0.2,0.3,0.3l1,0.4l0.1,0.3c0.1,0,0.2,0,0.3,0.1c0.1,0.1,0.1,0.1,0.2,0.1c0,0.1,0,0.1-0.1,0.2c0,0.1-0.1,0.2-0.2,0.2
		l-0.4,0.3l0.1,0.4c-0.2,0.1-0.4,0.3-0.6,0.5l-0.1,0.5c-0.3,0-0.5,0.1-0.6,0.2l0.1,0.7l-0.1,0c-0.1-0.2-0.3-0.2-0.4-0.1l0.3,0.6
		c-0.1,0-0.2,0-0.2,0.1c0,0-0.1,0.1-0.1,0.1l0.2,0.3c0,0.1,0.1,0.2,0.1,0.3c-0.2,0.2-0.3,0.3-0.5,0.3c-0.2,0.1-0.3,0.2-0.3,0.4
		l0.1,0.5c-0.1,0.2-0.1,0.4-0.2,0.4c-0.3,0-0.5,0.1-0.7,0.2l-0.2,0.5l-0.2-0.1c-0.1,0-0.2,0-0.3,0l-0.1,0.4c-0.3,0-0.5,0.1-0.6,0.3
		l-0.3,0.4l0-0.4c0.1-0.3,0-0.4-0.2-0.4l-0.2,0.2l0,0.2l-0.4,0.3l0,0.5l-0.9,0.1l-0.1,0.3c0,0.2-0.2,0.3-0.4,0.5
		c-0.2,0.1-0.7,0.2-1.3,0.3c-0.6,0.1-1,0.2-1.1,0.2c-0.2,0-0.3,0.1-0.4,0.3c-0.1,0.2-0.2,0.3-0.3,0.4l-0.7,0.3l-0.2,0.4l-0.3,0.3
		c-0.1,0.1-0.4,0.2-0.7,0.2l-0.4,0.3l-0.7,0.4l-0.5,0c-0.2-0.1-0.4-0.1-0.7-0.1l-0.8,0.1l-0.3-0.1l-0.5,0.2l-0.2,0.4l-0.4-0.2
		l-0.4-0.3l-0.7,0l-0.3-0.2l0.3-0.6l0.5-0.8l-0.1-0.5l0.6-0.8l-0.1-0.8c0-0.2,0-0.5,0.1-0.7l0.5,0.1c0.1-0.1,0.2-0.2,0.1-0.3
		c-0.2-0.1-0.4-0.3-0.6-0.5l-0.5-0.6l-0.6-0.6l-0.4-0.6l-0.5-0.6l-0.4-0.7l-0.8-0.6l-3-3.2l-0.6-0.7l-0.6-0.8l-0.4-0.2
		c-0.3-0.3-0.6-0.6-0.8-1l-0.2-0.5l-0.4-0.1l-1.4,0.5c-0.3,0-0.7,0.2-1.1,0.3l-0.9,0.5l-1.1,0.3l-0.6,0.3c-0.3,0.1-0.5,0.1-0.7,0
		l-0.4-0.3l-0.5,0.2l-0.4-0.1c0-0.3-0.1-0.5-0.2-0.5l-0.5-0.5c-0.2-0.1-0.3-0.2-0.4-0.2l0-0.2l0.5-0.1c0-0.1-0.1-0.2-0.1-0.3
		c0-0.1,0-0.2,0-0.2l0.5,0.1c0.1-0.1,0.2-0.2,0.2-0.3l0.1-0.4l0.4,0l0.2-0.8l-0.1-0.4l0.2,0.1l0.3,0.2c0.1-0.1,0.2-0.2,0.3-0.2
		l0.3-0.6l0.4,0l-0.2-0.3l-0.3-0.3l-0.4-0.1c0.1-0.3,0.5-0.5,1.1-0.7l1.4-0.3l0.5-0.4l1.2-0.4l1.8-0.3l0.6-0.2
		c0.2-0.1,0.5-0.2,0.7-0.1l0.7-0.1c0.5-0.2,0.8-0.3,1-0.2l0.6,0l0.8-0.1l1.3,0.1l1.1,0l0.7-0.4c0.2,0,0.4,0.1,0.6,0.3l0.5,0.3l1-0.1
		l0.4,0.3l0,0.2l0.4,0.7l0.2-0.1l0.4-0.5l0.5,0.6l-0.6-0.1c-0.2,0-0.3,0.2-0.3,0.5l0.5,0l0.2,0.2l0.3-0.1c0.1-0.1,0.3-0.1,0.5,0
		c0.2,0.1,0.3,0.2,0.4,0.3l0.3,0.3l0.6-0.1c0-0.1,0-0.2,0-0.2c0-0.1,0-0.1,0.1-0.1l0.2,0.4l0.2,0l0.1-0.2l0.2,0.2l0.1-0.4
		c0.4-0.1,0.6-0.1,0.7-0.2c0-0.1-0.1-0.2-0.1-0.2l-0.2-0.2c0-0.2,0.1-0.2,0.3-0.2l0.7,0.1l0.5-0.1l0.3,0.2l0.1,0.2
		c-0.3,0-0.5,0-0.5,0.1c-0.1,0.1-0.1,0.2,0,0.4l0.4,0.2c0,0.2,0.2,0.4,0.4,0.6l0.2-0.2l0-0.4l0.2,0.2l0.8-0.1c0.2,0,0.3,0.1,0.4,0.5
		l0.2,0.4l0.2,0.1l0.2-0.3l0.8,0.1l0.1-0.2l0.2-0.1c0.1-0.1,0.2-0.2,0.2-0.3l0-0.2l-0.1-0.2l0.7,0.1c0.1-0.1,0.2-0.2,0.2-0.3
		c-0.1-0.1-0.2-0.2-0.2-0.2l-0.5,0l0-0.2l0.1-0.3l0.1-0.3c0.2,0.1,0.3,0.1,0.3,0.2l0.3,0.3l0.3-0.1l0.3-0.1l1.3,0.8l0.3-0.1L209,59
		l0.3,0.1c-0.1,0.1-0.1,0.3,0.1,0.4l0.3-0.2l0.3,0l0.3,0.4l0.3,0.4c0.2,0,0.4,0,0.6,0l0.3,0.8l0.5,0.2l0.4,0.1c0,0.2,0,0.3,0,0.4
		l0.2,0.4l0.2,0.3l0,0.3l0.2-0.1c0.1-0.2,0.2-0.3,0.2-0.3C213.2,62.2,213.2,62.2,213.3,62.1z M193.5,77.3l0.2-0.3l0.2-0.2
		L193.5,77.3z M195.4,57.7l-0.2,0.5l0.1-0.4L195.4,57.7z M207.4,68l0-0.6c-0.1-0.5-0.3-1-0.7-1.5c-0.4-0.5-0.8-0.9-1.4-1.2
		c-0.4-0.3-1-0.6-1.8-0.8l-1.9-0.5l-0.7-0.3l-1.1-0.2l-1.1-0.2l-1.7-0.1l-0.6,0c-0.3,0-0.5,0.1-0.6,0.1c-0.1,0.1-0.2,0.2-0.1,0.4
		l0.7,1c0.3,0.5,0.6,0.8,0.9,0.9l0.4,0.2l0,0.3l0.5,0.5l0.1,0.4c0.1,0.1,0.2,0.1,0.3,0.1c0.2,0.1,0.4,0.3,0.7,0.6l0.6,0.5l0.9,1
		l0.8,1.1l0.4,0.9l0,0.6l0.2,0.2l-0.1,0.3c-0.1,0.1-0.1,0.2,0,0.3l0.3-0.1l0.5-0.3c0.2,0,0.4-0.1,0.7-0.4l0.9-0.6l1.3-0.7
		c0.5-0.3,0.9-0.6,1.1-0.9l0.1-0.5C207.3,68.3,207.3,68.1,207.4,68z M198.1,57.1l-0.2,0.4l-0.3-0.3l-0.2,0l0.7-0.2L198.1,57.1z
		 M200.7,59l-0.2-0.1l-0.3-0.1c-0.1,0-0.2,0.1-0.2,0.1l0.1,0.3l0.3,0.1L200.7,59z M200.9,56.8c0.1,0.1,0.1,0.2,0.1,0.4
		c0,0.1-0.1,0.1-0.3,0.2c-0.1-0.1-0.1-0.2-0.1-0.4C200.7,56.9,200.7,56.9,200.9,56.8z M202.1,59l-0.2-0.1l0.2-0.1L202.1,59z
		 M203.7,57.8l0.3,0.3c-0.1,0.2-0.2,0.4-0.3,0.5l-0.1,0.2c-0.1-0.1-0.1-0.3-0.2-0.4c0,0-0.1,0-0.1,0l-0.2,0.2l-0.8-0.1
		c-0.1-0.1-0.1-0.3,0-0.5c0.2-0.2,0.4-0.3,0.6-0.2L203.7,57.8z M204,74.6l-0.2-0.2l0.2-0.2c0.2,0,0.2,0.1,0.2,0.3L204,74.6z
		 M205.1,58.2c0.1,0.1,0.1,0.2,0,0.4c-0.1,0-0.2,0.1-0.2,0l-0.3-0.3l-0.6-0.1c-0.1-0.1-0.1-0.2,0-0.4c0.1-0.1,0.2-0.2,0.3-0.2
		C204.6,57.8,204.9,58,205.1,58.2z M205.4,58.6l0.1,0.1l-0.2-0.1L205.4,58.6z M208.3,60.5l0.2,0.2l-0.2,0.1l-0.2-0.1L208.3,60.5z
		 M209.3,62.9l-0.2-0.1l-0.3,0l-0.2-0.2l-0.2,0.2l-0.1,0.3l0.4,0.1c0.2,0,0.3,0,0.4,0.1L209.3,62.9z M209.2,62.1
		c0.1,0.1,0.1,0.2,0.1,0.4c-0.1,0.1-0.2,0.1-0.4,0.1c-0.2-0.1-0.2-0.2-0.1-0.4C208.8,62.1,209,62.1,209.2,62.1z M210.3,63.6l-0.2,0
		l-0.3-0.4l0-0.4l-0.4,0.3l0.3,0.2l0.1,0.1l-0.5,0.3l0.4,0c0.1,0.1,0.1,0.1,0.2,0.1c0.1,0,0.1,0,0.2,0L210.3,63.6z M209.7,68.3
		l0.1,0.1l-0.1,0.1L209.7,68.3z M210.8,66.8c-0.2-0.1-0.3-0.2-0.4-0.3l0.3,0.1L210.8,66.8z M211.4,64.1c0.1,0.1,0.1,0.2,0,0.4
		l-0.2,0.1l-0.1-0.3c0-0.1,0-0.2,0-0.2C211.2,64.1,211.3,64.1,211.4,64.1z M211.9,62.4c0-0.2-0.1-0.4-0.2-0.6
		c-0.1-0.1-0.2-0.3-0.4-0.4l0,0.6l0.3,0.1c0,0.1,0.1,0.2,0,0.2L211.9,62.4z M211.7,62.9l-0.1,0.3l0,0.1l-0.1-0.3L211.7,62.9z
		 M212.1,62.6c0,0.1,0,0.1,0,0.2C212.1,62.7,212.1,62.6,212.1,62.6z M212.5,63.6c0,0.1,0.1,0.2,0.1,0.2l-0.2,0.3l-0.1-0.5
		C212.4,63.6,212.5,63.6,212.5,63.6z"/>
</g>
<g class="st0">
	<path class="st1" d="M227.2,72.4c-0.1,0.2-0.2,0.4-0.3,0.5l-0.4,0.2l-0.6-0.2l-0.5,0.4l-0.4,0.2c-0.1,0.2-0.2,0.3-0.2,0.4l-0.1,0.3
		l0.2,0.6l-0.3,0.3l-0.2,0.4l0.1,0.6c0.1,0.3,0,0.4-0.1,0.5l-0.7-0.4c-0.1,0.1-0.1,0.2,0,0.3l0.2,0.2l0,0.4l0.4,0.1
		c0.2,0.1,0.3,0.3,0.2,0.5l-0.5,0.1l-0.2,0.3l-0.6-0.2l-0.5-0.1c-0.2-0.2-0.5-0.6-0.8-1.2c-0.2-0.6-0.3-0.9-0.4-0.9l-0.7-1.7
		c-0.2-0.8-0.4-1.3-0.5-1.6l-2.6-5.8l-1.3-2.7c-0.3-0.6-0.5-1.1-0.7-1.4c-0.2-0.4-0.3-0.8-0.5-1.4l-0.4-0.4l-0.6-1.4
		c-0.3-0.6-0.5-1-0.9-1.3l-0.7-1c-0.1-0.4-0.3-0.6-0.4-0.7l-0.2-0.5l-0.1-0.6l-0.2-0.3l-0.3-0.7l0.2-0.2c0.1-0.1,0.2-0.1,0.5-0.1
		l0.4,0.1l0.3-0.2c0-0.2,0-0.3,0-0.3c0,0,0-0.1,0.1-0.1l0.2,0.3l0.2,0.1l0-0.2l0-0.3c0-0.1,0-0.2,0-0.2s0.1-0.1,0.1-0.1
		c0.1,0.2,0.2,0.3,0.3,0.4c0,0.3,0.1,0.4,0.3,0.4c0.1-0.1,0.2-0.2,0.2-0.2l0-0.4l0.4-0.4l0.1-0.3l0.2,0.3c0.1-0.4,0.2-0.6,0.4-0.6
		l0.3,0.3c0.1,0.1,0.2,0.2,0.3,0l-0.2-0.2c-0.1-0.2-0.1-0.3,0.1-0.3l0.1,0.2l0.1,0.2c0.2,0,0.3,0,0.4,0.1c-0.1,0.2,0,0.4,0.1,0.5
		l0.6,0.4c0.3,0.2,0.5,0.5,0.6,0.7c0.1,0.3,0.2,0.8,0.3,1.5l-0.1,0.3l0.1,0.2l0.3,0.1c0.2,0,0.2,0.1,0.3,0.2
		c-0.1,0.1-0.2,0.1-0.3,0.1l0.3,0.4c0.1-0.1,0.2-0.2,0.2-0.2c0.1,0,0.1-0.1,0.2-0.1c0.1,0.1,0.1,0.3,0.1,0.4c0,0.2,0,0.4,0,0.5
		c0.1,0.1,0.2,0.2,0.3,0.3l0.1,0.1l0,0.3l1.1,1l0.6,1l0.3,0.7l-0.2,0.3l-0.2-0.2l-0.2-0.2c-0.2,0-0.3,0.1-0.2,0.3
		c0,0.3,0.1,0.5,0.3,0.6c0.1,0.2,0.3,0.1,0.5-0.1l0.1-0.2l0.2,0.2c0,0.1,0.1,0.1,0.3,0.2l0.2-0.2l0.2-0.3c0.1,0.2,0.2,0.3,0.3,0.4
		c0.1,0.1,0.1,0.3,0.1,0.5l-0.3,0.3l0.2,0.3c-0.1,0.1-0.1,0.2-0.1,0.4l0.5,0.1c0,0.1,0,0.2,0,0.2l-0.1,0.1l0.3,0.5l0.4,0.4l0,0.3
		l-0.1,0.6l0.3,0.2l0.4,0.3l0.1,0.6l0,0.8l0.1,0.1c0.1,0.2,0.2,0.3,0.3,0.4l0.5,1.1l0.3,0.1l0.4,0.3l-0.1,0.3
		c-0.1,0.1-0.1,0.2,0,0.4l0.3,0.1l0.2,0.3c0,0.2,0.1,0.3,0.1,0.4l0.4,0.2c0.1,0.1,0.1,0.3,0.1,0.5l0,0.4L227.2,72.4z M212.4,54.5
		c0.2,0.1,0.3,0.2,0.2,0.3c-0.1,0.1-0.2,0.1-0.3,0.1c-0.1-0.1-0.2-0.2-0.2-0.3C212.2,54.5,212.3,54.5,212.4,54.5z M215.7,54.7
		l-0.1-0.5l-0.2-0.9l-0.5,0.1l-0.1-0.3l-0.1,0.2l0.1,0.3l-0.4,0.5c0,0.2,0.1,0.3,0.3,0.2l0.2-0.1l0,0.4l0.3,0l0.2,0.5l0.1-0.5
		L215.7,54.7z M217,55.3l-0.3,0.1c-0.1,0.2-0.1,0.3-0.1,0.4c0,0.2,0.1,0.3,0.3,0.4c0.1,0.1,0.2,0.1,0.3,0c0.1-0.1,0.1-0.2,0.1-0.4
		C217.2,55.6,217.1,55.4,217,55.3z M222.9,64.3c-0.1-0.1-0.2-0.2-0.2-0.3c0-0.1,0-0.1,0-0.2c0-0.1,0-0.1,0.1-0.1l0.2,0.3
		c0,0.1,0,0.2,0,0.2C223,64.2,222.9,64.3,222.9,64.3z M223.2,64.7l0,0.5l-0.1,0.2l0-0.3L223.2,64.7z M225.3,68.2l-0.1-0.4l0,0.2
		L225.3,68.2z"/>
</g>
<g class="st0">
	<path class="st1" d="M248.3,56.3l-0.2,0.4l0.1,0.4l0,0.3l-0.2,0.1l0.1,0.3c-0.4,0.2-0.7,0.5-0.8,0.8l-0.4,0.7l-0.2-0.2l-0.2-0.1
		c0,0.2,0,0.4,0,0.4l-0.3,0.1l0.2,0.6c-0.2,0-0.3,0.1-0.3,0.3l0,0.4l-0.4,0.2l-0.5,0.2c-0.1,0.1-0.2,0.2-0.3,0.3l-0.1,0.7l-0.1,0.3
		c-0.2-0.1-0.4-0.2-0.5-0.3l-0.3-0.4c-0.2,0.1-0.3,0.2-0.3,0.3l-0.1,0.3l-0.5,0.7l-0.3-0.1l-0.2,0.2l-0.1,0.1l-0.3-0.2
		c-0.1-0.2-0.2-0.2-0.3-0.1c-0.1,0.1-0.2,0.2-0.2,0.4c0,0.3,0,0.4,0,0.5c-0.3-0.1-0.5,0-0.7,0l-0.2,0.6c-0.1,0.1-0.3,0.2-0.3,0.2
		l-0.2-0.5l-0.3,0c-0.1,0.1-0.1,0.3,0.1,0.5c0.1,0.2,0.1,0.4,0.1,0.5l-0.3,0l-0.1-0.2l-0.8,0.1l-0.3,0.2l-0.2,0.2l0,0.3l-0.3,0.4
		l-0.3,0l-0.5,0.7l-0.8,0.4l-0.7,0.2l-0.3,0.6l-0.6-0.2l-0.1,0.3l-0.4,0l-0.3,0.4l-0.2-0.2c-0.3,0.1-0.5,0.2-0.6,0.3
		c-0.3,0.2-0.4,0.3-0.5,0.2l-0.2-0.8l0.2-0.4c-0.1-0.1-0.2,0-0.4,0.2l-0.3,0.8c-0.1-0.2-0.3-0.4-0.6-0.5l-0.9-0.5
		c-0.2-0.2-0.5-0.6-0.7-1.4l-0.5-2.2l0.1-0.8l-0.3-0.1l-0.2-0.4l0-0.7l0-0.6l-0.4-1.2l-0.2-1c0-0.4-0.1-0.6,0-0.8l-0.1-0.9l-2-6.3
		l-0.1-1l-0.1-0.6l-0.6-1.4l-0.4-0.4l0-1.4l-0.5-0.2c0-0.2,0.1-0.3,0.3-0.2l0.6,0.1l0.2-0.3l0.2-0.5l0.3-0.2l-0.1-0.6l0.3-0.1
		l-0.1-0.1l0.3-0.4l0-0.3c0.1-0.3,0.4-0.6,0.6-0.8l0.4-0.7l0.2,0.3l0.3,0.5l0.2-0.2l0.1-0.3l0.6-0.3l0.2,0.2l0.5-0.1l0,1.3l0.2-0.1
		l0.3,0.9c-0.1,0.1-0.3,0.1-0.6-0.2l-0.3-0.1c-0.1,0.1-0.2,0.3-0.2,0.3l0,0.4l0.2,0.1l0.2-0.3c0,0.2,0.1,0.3,0.3,0.2l0.1-0.2
		l0.2-0.2l0,0.2l-0.1,0.4l-0.1-0.1l-0.1,0.2l-0.1,0.1l0.4,0.3l0.2,0.9l0.3,0.2l0.2,0.2l-0.1,0.8l0.2,0.4l0,0.9l0.1,0.6l0.5,0.6
		l-0.1,0.6l0.3,0.6l-0.1,0.7c-0.1,0.1-0.2,0.1-0.3,0.1l-0.1,0.2l0.3,0.5l0.2,0.7c0.1,0.1,0.1,0.2,0.2,0.3s0.1,0.2,0.1,0.3l-0.3,0.6
		l0.1,0.6l0.2,0.5l-0.1,0.5l0.1,0.7l0.2,0.8l0.2,0.1l0.3,0.1l0.1,0.5l-0.3,0.5l0.2,0.1c0,0.2,0.1,0.4,0.2,0.5l0.3,0.3l0.2,0.5
		c0,0.2,0.2,0.5,0.4,0.7l0.1,0.2l0.4,0l0.7,0.1l1.8-0.9l0.5-0.3c0.2,0,0.3-0.1,0.4-0.2l0.3-0.4c0.6-0.2,0.9-0.3,1.1-0.5l1.1-0.9
		l1.9-1l0.8-0.6L243,57l0.6-0.2l0.3,0.1c0.3-0.1,0.5-0.2,0.7-0.4c0.2-0.1,0.3-0.2,0.3-0.4l0-0.4l0.4,0.4l0.2-0.3l0.2-0.2l0.7-0.3
		l0.8-0.3l0.3,0.1l0.3-0.2c0,0.1,0.1,0.1,0.2,0.2s0.2,0.2,0.2,0.4L248.3,56.3z M227.9,42.1c-0.1,0.1-0.1,0.2-0.2,0.3
		c0-0.1,0.1-0.1,0.1-0.2C227.8,42.2,227.8,42.1,227.9,42.1z M231.9,66.9c0,0,0.1,0.1,0.1,0.3c-0.1,0-0.2,0.1-0.2,0.1
		c0,0-0.1-0.1-0.1-0.3C231.7,66.9,231.8,66.9,231.9,66.9z M232.3,57.8c0.1,0.1,0.1,0.2,0,0.3c-0.1,0.1-0.2,0.1-0.3,0
		c0-0.2,0-0.2,0-0.3C232.1,57.7,232.2,57.7,232.3,57.8z M240.5,63.7l-0.2,0l-0.2,0.3l0.3,0.2l0.1-0.2L240.5,63.7z"/>
	<path class="st1" d="M272.4,53.2l-0.2,0.4l0.1,0.4l0,0.3l-0.2,0.1l0.1,0.3c-0.4,0.2-0.7,0.5-0.8,0.8l-0.4,0.7l-0.2-0.2l-0.2-0.1
		c0,0.2,0,0.4,0,0.4l-0.3,0.1l0.2,0.6c-0.2,0-0.3,0.1-0.3,0.3l0,0.4l-0.4,0.2l-0.5,0.2c-0.1,0.1-0.2,0.2-0.3,0.3l-0.1,0.7l-0.1,0.3
		c-0.2-0.1-0.4-0.2-0.5-0.3l-0.3-0.4c-0.2,0.1-0.3,0.2-0.3,0.3l-0.1,0.3l-0.5,0.7l-0.3-0.1l-0.2,0.2l-0.1,0.1l-0.3-0.2
		c-0.1-0.2-0.2-0.2-0.3-0.1c-0.1,0.1-0.2,0.2-0.2,0.4c0,0.3,0,0.4,0,0.5c-0.3-0.1-0.5,0-0.7,0l-0.2,0.6c-0.1,0.1-0.3,0.2-0.3,0.2
		l-0.2-0.5l-0.3,0c-0.1,0.1-0.1,0.3,0.1,0.5c0.1,0.2,0.1,0.4,0.1,0.5l-0.3,0l-0.1-0.2l-0.8,0.1l-0.3,0.2l-0.2,0.2l0,0.3l-0.3,0.4
		l-0.3,0l-0.5,0.7l-0.8,0.4l-0.7,0.2l-0.3,0.6l-0.6-0.2l-0.1,0.3l-0.4,0l-0.3,0.4l-0.2-0.2c-0.3,0.1-0.5,0.2-0.6,0.3
		c-0.3,0.2-0.4,0.3-0.5,0.2l-0.2-0.8l0.2-0.4c-0.1-0.1-0.2,0-0.4,0.2l-0.3,0.8c-0.1-0.2-0.3-0.4-0.6-0.5l-0.9-0.5
		c-0.2-0.2-0.5-0.6-0.7-1.4l-0.5-2.2l0.1-0.8l-0.3-0.1l-0.2-0.4l0-0.7l0-0.6l-0.4-1.2l-0.2-1c0-0.4-0.1-0.6,0-0.8l-0.1-0.9l-2-6.3
		l-0.1-1l-0.1-0.6l-0.6-1.4l-0.4-0.4l0-1.4l-0.5-0.2c0-0.2,0.1-0.3,0.3-0.2l0.6,0.1l0.2-0.3l0.2-0.5l0.3-0.2l-0.1-0.6l0.3-0.1
		l-0.1-0.1l0.3-0.4l0-0.3c0.1-0.3,0.4-0.6,0.6-0.8l0.4-0.7l0.2,0.3l0.3,0.5l0.2-0.2l0.1-0.3l0.6-0.3l0.2,0.2l0.5-0.1l0,1.3l0.2-0.1
		l0.3,0.9c-0.1,0.1-0.3,0.1-0.6-0.2l-0.3-0.1c-0.1,0.1-0.2,0.3-0.2,0.4l0,0.4l0.2,0.1l0.2-0.3c0,0.2,0.1,0.3,0.3,0.2l0.1-0.2
		l0.2-0.2l0,0.2l-0.1,0.4l-0.1-0.1l-0.1,0.2l-0.1,0.1l0.4,0.3l0.2,0.9l0.3,0.2l0.2,0.2l-0.1,0.8l0.2,0.4l0,0.9l0.1,0.6l0.5,0.6
		l-0.1,0.6l0.3,0.6l-0.1,0.7c-0.1,0.1-0.2,0.1-0.3,0.1l-0.1,0.2l0.3,0.5l0.2,0.7c0.1,0.1,0.1,0.2,0.2,0.3s0.1,0.2,0.1,0.3l-0.3,0.6
		l0.1,0.6l0.2,0.5l-0.1,0.5l0.1,0.7l0.2,0.8l0.2,0.1l0.3,0.1l0.1,0.5l-0.3,0.5l0.2,0.1c0,0.2,0.1,0.4,0.2,0.5l0.3,0.3l0.2,0.5
		c0,0.2,0.2,0.5,0.4,0.7l0.1,0.2l0.4,0l0.7,0.1l1.8-0.9l0.5-0.3c0.2,0,0.3-0.1,0.4-0.2l0.3-0.4c0.6-0.2,0.9-0.3,1.1-0.5l1.1-0.9
		l1.9-1l0.8-0.6l0.4-0.2l0.6-0.2l0.3,0.1c0.3-0.1,0.5-0.2,0.7-0.4c0.2-0.1,0.3-0.2,0.3-0.4l0-0.4l0.4,0.4l0.2-0.3l0.2-0.2l0.7-0.3
		l0.8-0.3l0.3,0.1l0.3-0.2c0,0.1,0.1,0.1,0.2,0.2s0.2,0.2,0.2,0.4L272.4,53.2z M252,39c-0.1,0.1-0.1,0.2-0.2,0.3
		c0-0.1,0.1-0.1,0.1-0.2C252,39.1,252,39,252,39z M256,63.8c0,0,0.1,0.1,0.1,0.3c-0.1,0-0.2,0.1-0.2,0.1c0,0-0.1-0.1-0.1-0.3
		C255.9,63.8,256,63.8,256,63.8z M256.5,54.7c0.1,0.1,0.1,0.2,0,0.3c-0.1,0.1-0.2,0.1-0.3,0c0-0.2,0-0.2,0-0.3
		C256.3,54.6,256.4,54.6,256.5,54.7z M264.7,60.6l-0.2,0l-0.2,0.3l0.3,0.2l0.1-0.2L264.7,60.6z"/>
	<path class="st1" d="M310,60.9l-0.3,0.1l-0.2,0.1l-0.8,0.8l-1,0.8c0,0.2,0,0.4-0.1,0.5l-0.2,0.1l-0.3,0.5l-0.1,0.5
		c-0.2,0.2-0.4,0.2-0.6,0.1l-0.6-0.6l-0.3-0.1l-0.5-0.8l-0.4-0.1l-0.3-0.1l-0.4-0.4l0-0.3c-0.3,0-0.5-0.1-0.6-0.2
		c-0.1-0.3-0.2-0.5-0.3-0.5l-0.9-0.4l-0.4-0.5l-0.7-0.3l-0.1-0.4l-0.4-0.3c-0.2-0.2-0.3-0.3-0.4-0.5c0.2-0.2,0.2-0.4,0.1-0.5
		l-0.4,0.1l-0.2-0.3c-0.2,0-0.4-0.1-0.5-0.2l0-0.4l-0.2-0.1l-0.4-0.2l-0.2-0.3l-0.6,0l-0.5,0c-0.2,0.2-0.3,0.3-0.5,0.4l-0.4-0.1
		l-0.5-0.1l-0.2,0.3l-0.8,0.2l-0.7,0.1l-1.2-0.3l-0.3,0.1l-0.2,0.2l-1.1,0l-0.4-0.4l-0.2,0.2l0.1,0.4c-0.3-0.1-0.6-0.1-0.7-0.1
		l-0.6-0.2l-0.3,0.1l-0.1,0.2c-0.3,0-0.5,0.1-0.6,0.2l-0.2,0.2l-0.4-0.2l-0.7,0.2l-0.8,0l-0.8,0.1l-0.1,0.8c0.1,0,0.1,0,0.2,0.1
		c0.1,0,0.1,0.1,0.1,0.1l0,0.9l-0.3,0.5l0.1,0.5l-0.1,1.3l0.1,1.5l-0.2,2c0.1,0.1,0.2,0.3,0.3,0.5c0,0.3,0,0.7-0.1,1.4l-0.2,1.3
		l0.1,0.8l0,0.7l-0.1,0.2l-0.1,0.6l0.2,0.1l-0.3,0.4l-0.4,0.2l-0.5-0.1l-0.1-0.3l-0.2,0.3c-0.1,0.2-0.2,0.3-0.3,0.3l-0.4-0.3
		l-0.3,0.1l-0.5-0.3l-0.1-0.1l-0.1-0.1l-0.2,0.2l0,0.4l-0.1,0.1l-0.4-0.5c-0.1-0.2-0.2-0.4-0.1-0.5l0.2-0.1l-0.2-0.2
		c0-0.1-0.1-0.1-0.3-0.1l-0.3,0.2c-0.1,0.1-0.1,0.2,0,0.4l0.4,0l0.1,0.2l-0.5,0.4l-0.8,0l-0.4,0.1l-0.1,0.3c0.1,0.1,0.1,0.2,0,0.3
		c-0.2-0.1-0.3-0.1-0.4-0.2c0-0.1-0.1-0.1-0.3-0.2c-0.1,0.3-0.1,0.5-0.2,0.6c-0.1,0.1-0.2,0.1-0.3-0.1l0-0.2l0.1-0.2l-0.2-0.6
		l0.3-0.4l-0.3-0.5c0-0.3,0-0.6,0.1-1.1l0.1-0.6l0-0.4l0-0.2l-0.1-1.1l0.1-0.7l-0.2-0.4l0.2-1.9c0.1-0.7,0.1-1.2,0.1-1.7
		c-0.1-0.1-0.1-0.2-0.2-0.4l0.2-0.6l0-1.4l-0.1-0.5l0-1.9l-0.1-1.5l-0.1-1.2l-0.1-0.3l0.1-0.6c0-0.3,0-0.5,0-0.7l0.3-0.4l-0.1-0.4
		l-0.3-0.8l0.1-0.6l-0.2-0.4c0.1-0.2,0.1-0.3,0.2-0.3l0.2-0.3l-0.6-1.1l0.2-0.2l0.3-0.1l0-0.5l0-0.3l-0.3-0.2l-0.1-0.1l0.1-0.4
		l0.1-0.3l-0.2-0.3l0.2-0.6l0.2-1l-0.2-0.1c-0.1,0-0.2-0.1-0.2-0.2l0-0.7l0.1-0.5l-0.4-0.4c-0.2-0.2-0.3-0.4-0.1-0.6
		c0.1-0.1,0.3-0.1,0.4,0l0.3-0.2l0.2,0.2l0.2,0c0.1-0.1,0-0.2-0.2-0.3l-0.6-0.3l0.1-0.7l0.3-0.1l0-0.2l-0.3-0.2
		c-0.3-0.5-0.4-1-0.4-1.3l-0.2-0.3c0-0.2,0-0.3,0.1-0.4l0.4-0.2l-0.2-0.2l-0.1-0.2l0.2-0.4l0.3-0.4l-0.1-0.7c0.4,0,0.6,0,0.7-0.1
		l-0.4-0.3c-0.3-0.2-0.4-0.4-0.4-0.6c0.1-0.3,0.4-0.5,1.1-0.8l0.1-0.3l0.6,0.1l0.3-0.2l0-0.2l0.3,0.2c0.1-0.1,0.2-0.2,0.2-0.2
		c0.1,0,0.1-0.1,0.2-0.1l0.3,0.2l-0.4,0.2c-0.1,0.1,0,0.2,0.1,0.4l0.2,0l0,0.3l0.4,0l0.3,0l0.1-0.4l0.4,0.2l0.1-0.3
		c0,0,0.1-0.1,0.3-0.1l0.1,0.2c0.1,0.1,0.3,0.2,0.4,0.2l0.5,0.1l0.4-0.1l-0.4,0.5l0.5,0.1c0.2,0,0.4,0,0.6,0.2l0.4,0.6l0.7,0.7
		c0.3,0.3,0.4,0.6,0.6,0.9l0.1,0.9l0.1,0.4l0,0.4c-0.1,0.1-0.1,0.1-0.2,0.2c-0.1,0-0.1,0.1-0.2,0.1l0.6,0l-0.2,0.5
		c0.2,0,0.3-0.1,0.4-0.1c0.2-0.1,0.3-0.1,0.4,0l-0.1,0.4l0.2,0.3l0.3,0l0.3,0.2l0.1,0.4l0.5,0.3l0,0.8l0.4,0.1c0.2,0,0.3,0,0.4,0
		l0,0.4l0.1,0.1c0.2,0,0.3,0,0.4,0.1l0.3,0.4l0.5,0c0,0,0,0.1-0.1,0.3l0.8,0.5l0.2,0.5l0.6,0.3l0.6,0.7l0.7,0.3
		c0.1,0.1,0.2,0.3,0.2,0.3l0.1,0.3l0.8,0.4c0,0.1,0,0.1,0,0.2c0,0.1,0.1,0.1,0.1,0.1l0.8,0.4l0.9,0.7l0.1,0.5c0,0.2,0.1,0.4,0.4,0.6
		l1.7,0.3c0.2,0,0.3-0.1,0.5-0.3c0.1-0.2,0.5-0.1,1,0.1l0.6,0.3l0.1,0.3l-0.5,0.2c0.2,0.1,0.3,0.2,0.4,0.2c0.3,0,0.4,0,0.5,0.1
		l-0.3,0.5l-0.3,0.5l0.3,0.1l0.5,0.3c0.3,0.3,0.5,0.5,0.6,0.6l0.4,0c0.2,0,0.4,0,0.4,0.1l0.4,0.3l0.4,0.3L304,55l0.5,0.1
		c0.3,0,0.5,0.1,0.6,0.1c0,0.1,0,0.1-0.1,0.2c0,0.1,0,0.2,0,0.2l0.5,0.3c0.2,0.1,0.3,0.2,0.4,0.3l0.3,0.5l0.8,0.3
		c0.3,0.1,0.5,0.2,0.8,0.5l0.4,0.1l0.2,0.5l0.4,0.2l0.4,0.1l-0.1,0.3l0.3,0.3c0.1,0,0.2,0.1,0.3,0.3l-0.1,0.5l0.4,0.3l-0.2,0.3
		c0,0,0,0.1-0.1,0.3L310,60.9z M278.7,34.5l-0.1,0.1l-0.3,0c0,0.1,0,0.3,0,0.4l0.1,0.3l-0.2,0l-0.2-0.2l-0.3,0.1l-0.1,0.1
		c-0.2,0-0.3-0.1-0.4-0.5l-0.1-0.5l0.3-0.3c0,0.1,0.1,0.3,0.1,0.4c0,0.2,0.1,0.3,0.1,0.4l0.2-0.3l0.2-0.3c0.2,0,0.3,0,0.3,0
		L278.7,34.5z M281.9,40.7c-0.2,0-0.3,0-0.4,0c-0.1,0-0.2,0.1-0.3,0.2c-0.1,0.2-0.1,0.3,0.1,0.4c0.4,0.1,0.6,0.1,0.8-0.1
		C282.1,41,282,40.8,281.9,40.7z M290.7,51.4c0.2-0.3,0.1-0.5-0.2-0.8c-0.4-0.3-0.7-0.5-0.9-0.7c-0.1-0.2-0.2-0.4-0.5-0.5l-0.7-0.5
		l-0.5-0.7c-0.3-0.3-0.8-0.8-1.3-1.4l-1.2-1.5l-0.6-0.1l-0.1,0.1l0.6,0.4l-0.3,0.2c-0.1,0-0.2,0.1-0.2,0.3l0.2,0.4
		c0.2,0.2,0.3,0.3,0.3,0.5l-0.3,0.2c-0.1,0.1-0.2,0.2-0.2,0.2l0.2,0.1l0.2,0.3l0.1,0.4l-0.4,0.4l0,0.4l-0.5,0.1l0.2,0.2l0.2,0.1
		l-0.2,0.3l0.1,0.8l-0.5,0.4c-0.2,0.2-0.3,0.4-0.3,0.6c0.1,0,0.2,0.1,0.3,0.1s0.2,0,0.3,0c0.4,0,0.6,0,0.7,0
		c0.1,0.1,0.1,0.3,0.1,0.4l0,0.4l0.4,0.2l0.7,0.2c0.2,0,0.3-0.1,0.4-0.3l0.2-0.4l0.4,0l0.8-0.8c0.1,0.2,0.1,0.3,0.1,0.3
		c0,0,0.1,0.1,0.1,0.1l0.9-0.2l0.8,0.2l0.2-0.1L290.7,51.4z"/>
	<path class="st1" d="M338,48.2l-0.3,0.6l0.1,0.4c0,0.2-0.1,0.3-0.1,0.3l-0.1,0.2c0,0.1,0.1,0.2,0.1,0.3c0,0.1,0,0.2,0,0.2l-0.2-0.1
		c0,0-0.1,0-0.3,0l0.2,0.2l0.1,0.4l-0.7,0.7c0,0.1,0,0.1,0,0.2c0,0-0.1,0.1-0.1,0.1c-0.2-0.1-0.3-0.2-0.4-0.3
		c-0.1,0.1-0.2,0.1-0.2,0.2l-0.1,0.2l-0.4-0.1l-0.3-0.1l-0.2,0.8l-0.3,0.3l-0.2,0.3c0,0-0.1,0-0.3,0l-0.2,0.4l-0.2,0l0,0.3l-0.4,0.1
		l-0.5,0.6l-0.6,1.2c-0.2,0.1-0.4,0.2-0.5,0.3c-0.1,0.1-0.1,0.4-0.1,0.8c-0.1,0-0.2,0-0.4,0l-0.2,0.2l-0.6,0.1
		c-0.1,0.1-0.2,0.2-0.2,0.3l-0.2,0.3c-0.1-0.1-0.2-0.1-0.3-0.1c-0.1,0-0.2,0-0.2-0.1l-0.3,0.4l-0.7,0l-0.2,0.4
		c-0.2,0-0.4-0.1-0.7-0.4l-0.3-0.5c-0.2,0-0.3,0.2-0.2,0.4c0,0.2,0,0.3,0,0.3c0,0-0.1,0.1-0.1,0.1l-0.6-0.1l-0.2,0.3l-0.3,0.1
		l-0.5-0.6l-0.4,0.2l-0.6,0.4l-0.1,0.2l-0.5,0l-0.5-0.2l-0.6,0.2l-0.8-0.1c-0.5,0.1-0.8,0-0.9-0.1l-0.2-0.4l0-0.5l-0.1-0.3l0.3,0.2
		c0.1,0.1,0.2,0.1,0.4,0.1l-0.1-0.7l-0.2-0.2l-0.2-0.3l0.3-0.5l-0.1-0.6l0.5-0.2l0.1-0.2c0.3,0,0.5,0,0.5-0.2
		c-0.1-0.2-0.2-0.3-0.3-0.4l-0.5-0.2l-0.4,0l-0.1-0.2l0.4-0.2l0-0.2l0-0.4l0.5,0.1l0.4-0.3c0-0.1-0.1-0.2-0.1-0.2l-0.2-0.2l0.3,0
		c0.1-0.1,0.1-0.3,0-0.6l-0.1-0.6l0.1-0.5l0.3-0.7c0.2,0,0.4,0,0.5-0.2l0.9-0.6c0.4-0.2,0.7-0.4,1-0.4c0.4-0.1,0.7,0.1,1,0.4
		c0,0.2,0,0.4,0,0.5l-0.2,0.5l0.3,0.3l-0.4,0.5c-0.2,0.2-0.3,0.4-0.3,0.6c0.1,0.1,0.2,0.2,0.3,0.3c0.3,0,0.5-0.1,0.7-0.1l0.5-0.2
		l0.9,0.2c0.1-0.1,0.2-0.2,0.3-0.2l1.1-0.1l1.1-0.1l1.2-0.3l0.8-0.3l0.3-0.5c0.1,0,0.1,0,0.2-0.1c0,0,0.1-0.1,0.1-0.1l-0.1-0.4
		l-1-0.8l-0.6-0.7l-0.5-0.3l-0.4-0.5l-0.3-0.6l0.1-0.5l-0.4-0.3c-0.2,0-0.3-0.1-0.3-0.3c0-0.2,0-0.4-0.1-0.5
		c-0.1-0.1-0.3-0.1-0.5-0.1l-0.6,0.1l-0.2-0.2l-0.2-0.2c-0.2,0.1-0.3,0.1-0.4,0.1c-0.2,0-0.3,0-0.3-0.1l-1.5-1.2l-0.7-0.3l-0.3-0.4
		l-0.3,0l-0.7-0.3l-0.5-0.3l-0.3-0.5c0-0.2-0.1-0.3-0.1-0.4c0,0-0.1,0-0.1,0l-0.5,0.1l-0.8-0.5l-0.9-0.5l-0.9-0.3l-1-0.9l-1.2-0.5
		l-0.7-0.5l-1.4-0.5l-0.3-0.4c-0.6-0.1-1-0.2-1.2-0.3c-0.4-0.2-0.6-0.4-0.8-0.7c-0.1-0.3-0.3-0.5-0.5-0.6l-1.3-0.8l-1-0.8l-0.6-0.7
		l-0.1-0.4l-0.4,0c0-0.1,0-0.1,0-0.2s0-0.2,0-0.2L309,33l-0.2-0.4l-0.3,0.1c-0.2,0-0.2-0.2-0.1-0.4l0.4,0l0.3-0.2l0.3,0.1l0.2-0.1
		l0.2-0.3l0.4-0.1l0.2,0.2l0.6-0.2l0.7-0.2l0.8,0l0.7-0.2l0.6,0.1l0.4-0.3c0.1-0.1,0.4-0.2,0.7-0.3l0.7,0c0,0.1,0,0.1,0,0.2
		c0,0.1,0,0.2,0,0.2l0.2,0l0.5-0.2l-0.1-0.6c0-0.2,0.1-0.3,0.2-0.4l0.1,0.2l-0.1,0.7l0.2,0c0.1-0.1,0.4-0.1,0.6,0l0.6,0.1
		c0.2,0,0.2-0.1,0.2-0.3l-0.3-0.3l0.3-0.3l0-0.3l0.4-0.1l0.3-0.2l0.1,0.1l-0.3,0.2c0,0.1,0,0.2,0,0.3c0.1-0.1,0.2-0.2,0.3-0.3
		l0.1,0.2l0.4-0.4l0.5-0.1l-0.1-0.2l0-0.4l-0.1-0.7c0.3,0,0.5-0.1,0.5-0.2l0-0.2l0.1-0.1c0.1,0.1,0,0.3-0.1,0.5
		c-0.2,0.1-0.2,0.2-0.2,0.4l0.6,0l0-0.2l0.2-0.1l0.3,0.5c0.1,0.1,0.2,0.1,0.3,0c0-0.1-0.1-0.2-0.2-0.3l-0.2-0.2
		c0.1-0.2,0.2-0.3,0.4-0.3s0.4,0,0.5,0.2l0.1-0.1l-0.1,0.1l-0.3,0c0,0.3,0,0.5-0.1,0.6l-0.3,0.3c0,0,0,0.1,0,0.3
		c0.1,0,0.3-0.1,0.3-0.2l0.3,0l0.1-0.3c0.2,0,0.4-0.1,0.4-0.1l0.3-0.2l0-0.2c0.2,0.1,0.3,0.2,0.3,0.3l0.1,0.4l0.2,0.1l-0.2,0
		l-0.1,0.3c0.1,0.1,0.2,0.2,0.3,0.2l0.3,0l-0.1,0.5l0.2,0l0.2,0.2c0.1-0.1,0.2-0.2,0.3-0.3c0-0.1,0.2-0.2,0.3-0.2l0.5,0.3l0.4-0.1
		l0.1,0.3l0.3-0.2l0.3,0l0-0.1l0-0.3l0.2,0.1c0,0,0.1,0,0.3,0l0.2-0.4c0-0.2,0-0.3-0.1-0.4l-0.2-0.1c0,0,0-0.1,0-0.1l0-0.1l-0.4,0
		l-0.1,0.2c0-0.2,0-0.4,0.1-0.6c0.1-0.2,0.2-0.4,0.3-0.4l0.3,0.1l0.4-0.2l0.1,0.6c0,0.2,0.2,0.3,0.5,0.3c0.1-0.1,0.2-0.2,0.2-0.3
		l0-0.3l0.3-0.1l0-0.3l0.4,0.2c0.4,0,0.7-0.1,1,0l0.5,0.3l0.5-0.1l0.3,0.2l0.3,0.2l0.2-0.1c0,0,0.1-0.1,0.3-0.1
		c0.2,0,0.5,0.1,0.7,0.4l0.8,0.6l0.8,0.4c0.3,0.2,0.5,0.4,0.6,0.7l0.2,1.6c-0.1,0.2-0.2,0.3-0.3,0.3l-0.4,0.1l-0.1,0.2l-0.5-0.3
		l-0.4,0.6l-0.2-0.3l-0.3-0.4l-0.2,0.2l-0.6-0.3c-0.3,0.1-0.5,0.2-0.6,0.3l-0.5,0.3l-0.1,0.6l0,0.6l0.2,0.2l-0.1,0.4l0.2,0.1
		l-0.3,0.5l0.3,0.1l0.3,0.2l0.2-0.2l0.2,0.3l-0.4,0.3l-0.4,0.1c-0.1-0.2-0.1-0.3-0.1-0.3c0,0-0.1-0.1-0.1-0.1l-0.4,0.2
		c-0.1-0.1-0.1-0.1-0.2-0.1c-0.1,0-0.1,0-0.1,0l-0.1,0.5l0.1,0.6l0,0.4l-0.7,0c-0.2-0.1-0.3-0.2-0.4-0.4l0.2-0.5l0.2-0.6
		c-0.1-0.2-0.3-0.3-0.4-0.4l-0.4-0.3l-0.1-0.4l-0.6-0.2c-0.2,0-0.4,0.1-0.4,0.2l-0.9-0.3l-0.8-0.3l-0.4,0l-0.9-0.2l-0.2-0.2
		l-0.3,0.3l-0.3-0.2l-0.5-0.2L322,33l-0.4-0.2l-0.4,0l-0.3-0.1l-0.8-0.1c-0.2,0-0.3-0.1-0.5-0.1c-0.2,0-0.3,0-0.4,0
		c-0.1,0.1,0,0.3,0.2,0.6c0.3,0.2,0.5,0.3,0.7,0.3l1.7,0.6l1,0.5l0.3,0.3l1,0.4l0.5,0.3l0.8,0.6l1.6,0.7c0.3,0.3,0.6,0.5,0.8,0.6
		l2.2,1.2l0.8,0.6l1.4,0.9l1,0.5l0.5,0.5l0.4,0.5c0.2,0.1,0.3,0.2,0.5,0.3c0.2,0.1,0.3,0.2,0.5,0.4c0.3,0.2,0.5,0.5,0.7,0.8
		c-0.1,0.2-0.2,0.3-0.3,0.4c-0.1,0.1-0.1,0.2-0.1,0.4l0.6-0.3c0.1,0.1,0.2,0.2,0.2,0.3l0.1,0.3l0.2,0l0.2,0.7l0.1,1.1
		c0,0.1,0.1,0.2,0.1,0.3l0.3,0.2l0.2,1.2L338,48.2z M315.6,35.7l-0.1,0.2l-0.2-0.2L315.6,35.7z M319.2,38.2
		c-0.1-0.2-0.2-0.3-0.3-0.4l-0.2-0.2l0-0.2l0.2-0.1l-0.3-0.2l-0.1-0.6l-0.1-0.4l-0.5-0.3l0.1-0.2l-0.1-0.2c-0.1,0.1-0.2,0.2-0.2,0.3
		l-0.2,0.1l-0.3,0l-0.2-0.3c-0.1-0.1-0.2-0.1-0.4-0.2l-0.3,0.3l-0.1-0.2L316,35l-0.1,0.2c0,0.3,0.1,0.6,0.2,0.8l0.6-0.2
		c0.1,0,0.2,0,0.2,0c0,0,0.1,0.1,0.1,0.1l0.1,0.8l0.7,0l-0.1,0.3c-0.1,0.1,0,0.2,0.1,0.3l0.3-0.1c0.1,0,0.1-0.1,0.2-0.1
		c0.1,0,0.1,0,0.1,0c0.1,0.1,0.1,0.2,0.2,0.4c0,0.2,0,0.4,0,0.6c0,0.1,0.1,0.1,0.1,0.2c0,0.1,0.1,0.1,0.2,0.2L319.2,38.2z
		 M317.6,34.5c0,0.1,0,0.1,0,0.2C317.6,34.6,317.6,34.5,317.6,34.5z M320.7,38.1l-0.4-0.6l0.3-0.2l-0.2-0.1l0-0.3
		c-0.1-0.1-0.2-0.2-0.3-0.2l-0.3,0.5l-0.2,0.1l-0.4-0.2l0.2,0.3l0.6,0.1l0.1,0.4L320.7,38.1z M321.8,29.5l-0.3,0.2l-0.2,0l-0.1-0.1
		l0.1-0.1c-0.1-0.1-0.1-0.2-0.2-0.2l-0.3-0.1l-0.1-0.2c-0.1,0.1-0.2,0.3-0.2,0.4c0,0.1,0,0.2,0,0.2c0,0-0.1,0.1-0.1,0.1l-0.3-0.2
		c0,0-0.1,0.1-0.3,0.1l-0.2-0.1l0,0.4l-0.2,0.6c0,0.2,0.1,0.3,0.3,0.3l0.6-0.4l0.5-0.1l0.2-0.4l0.5,0.2l0.3,0L321.8,29.5z M321,30.8
		l0.1,0.2l-0.2,0.3l0-0.4C320.9,30.8,320.9,30.8,321,30.8z M322,38.4l-0.3,0c-0.1,0.1-0.2,0.1-0.3,0.1l0,0.2l0.3,0l-0.1,0.2
		c0.1,0,0.2-0.1,0.3-0.2c0.1-0.1,0.1-0.1,0.1-0.2S322,38.4,322,38.4z M323.5,52.6l-0.4,0.1l-0.1,0.1l0.4,0l0.1,0.5l0.2-0.3
		C323.7,52.7,323.6,52.6,323.5,52.6z M324.5,28.8l-0.2-0.2l0.1-0.2c0.1,0.1,0.2,0.2,0.2,0.3L324.5,28.8z M325.5,28.8l0.1,0.4l0,0.4
		l-0.7-0.6c-0.1-0.1-0.1-0.3-0.1-0.5l0.2-0.1c0,0.2,0.1,0.4,0.3,0.5L325.5,28.8z M325.9,40.7c-0.1-0.1-0.2-0.1-0.4,0
		c-0.2,0-0.3,0.1-0.2,0.3c0.1,0.2,0.2,0.3,0.3,0.4l0.4,0.2c0.1-0.2,0.2-0.3,0.2-0.4L325.9,40.7z M327.5,41.6c0.1-0.1,0-0.2-0.2-0.3
		l-0.5-0.3l-0.1-0.1l-0.3,0.2l0,0.6l-0.3,0.1l0.2,0.5l0.6-0.5L327.5,41.6z M327.1,40.9l0.1-0.1l0.1,0.2L327.1,40.9z M327.9,45.1
		l-0.1,0.1l0,0.1L327.9,45.1z M328.8,45.3l-0.5-0.2l-0.2,0.2c0.2,0,0.4,0,0.4,0l0.2,0.3c0.1,0,0.2,0,0.2,0
		C328.9,45.4,328.9,45.3,328.8,45.3z M328.4,30.3l0,0.3l-0.2,0.3c0-0.2,0-0.3,0-0.3S328.3,30.4,328.4,30.3z M329.7,57l0.2-0.1
		c-0.1-0.2-0.1-0.3-0.3-0.3l-0.1,0.1c0,0,0,0.1,0,0.1l0,0.1L329.7,57z M331.1,56.6l0.2,0.2l-0.2,0.1c-0.1-0.1-0.2-0.1-0.2-0.2
		L331.1,56.6z M331.5,33.1l-0.3-0.6l0-0.3l0.3,0.5L331.5,33.1z M331.9,35l-0.2,0.1l0-0.2L331.9,35z M332.4,32l-0.2,0.2l0,0.4
		c-0.1,0.1-0.1,0.2-0.2,0.2c-0.2,0-0.2-0.2,0-0.5C332.1,32,332.2,31.9,332.4,32z M333.6,53.6l-0.1,0l0-0.3l0.2,0.2
		C333.6,53.6,333.6,53.6,333.6,53.6z M338.2,47.2c0,0.1,0,0.2,0,0.2l-0.2,0.1l0-0.2C338.1,47.2,338.2,47.2,338.2,47.2z"/>
</g>
<g>
	<path class="st2" d="M128.5,53c0.9-0.1,1.5-0.5,2.4-0.6s2.6-1.2,3.5-1s3.7-0.7,5.7-1.2s1.2-1.1,1.5-0.8c2.6,1.3,4.7-0.2,7-1.1
		s5.8-1.9,8.9-2.5s4-0.1,5.8-0.6s3-1.5,4.5-2c5.7-1.5,11.3-2.7,16.8-3.9L191,38c5.5-1.2,10.9-2.7,16.1-3.9c2-0.5,4.7,0.4,5.9-1.2
		s3.1-0.6,4.3-1.4s5.1-0.2,7.5-1.1c0.6-0.2,1.3-0.3,2-0.2c3.3-0.3,6.7-0.4,9.8-0.7c2.9-0.5,5.7-1.1,8.5-1.8c2-0.2,4-0.1,6-0.3
		c4.2-0.7,8.3-1.8,12.5-2.2s6.4-0.4,9.6-0.4c13.1-0.8,26.2-1.5,39.5-1.1c8.8,0.3,17.6-0.3,26.3,1.6c6.2,1.2,11.8,3.4,17,8.4
		c1.2,1.1,1.3,2,1.1,3.6c-1.3,5-4.1,9.5-8,12.9c-5.5,5.2-11.3,9.2-17.1,13.9c-1.9,1.7-4,3.2-6.3,4.4l-13.3,7.9
		c-6.3,3.8-12.6,7.5-19.2,10.7s-13.9,6.1-21,9c-3.2,1.3-6.4,2.8-9.7,3.8l-22.1,7c-6.3,1.9-12.8,3.8-19.1,5.4s-12.7,2.6-19.1,3.9
		c-7.9,1.5-15.8,3.2-23.7,4.4c-13.4,2-26.9,3.8-40.4,5.5c-0.9,0-1.7,0.3-2.4,0.9c-0.7,0.6-1.1,1.4-1.1,2.3c0.3,2.2,0.6,4.3,1.1,6.4
		c0.7,2.7,2.2,4.1,4.4,3.9c5.1-0.5,10.4-0.8,15.5-1.3c11-1.8,22-3.9,32.9-5.9c8.9-1.3,17.8-3.1,26.5-5.4c8.7-2.2,17.2-4.9,25.6-7.3
		c5.4-1.5,10.9-3,16.1-4.8c11.2-4,22.4-7.9,33.5-12.8c15-6.9,29.5-14.9,43.3-24c8.1-5.5,16.3-11,23.8-18c3.9-3.6,7-8.1,9.1-13
		c2-4.6,2.4-9.7,1.1-14.6c-2.2-8.1-6.5-12.6-11.9-15.7c-10.7-6-22-7.3-33.1-8.3c-6.8-0.8-13.7-0.1-20.4,0S288.9,8.7,282.2,9
		c-3.1,0-6.4,1-9.5,1.3c-8.6,1.2-17.2,2.1-26,3.4s-16.1,2.6-24,4.1s-15.6,2.9-23.2,4.6l-23.2,5.2c-6.8,1.6-13.6,3-20.1,4.6
		c-2,0.5-3.9,1.6-5.8,2.2c-5.9,1.5-12,2.5-17.9,4.4c-10,2.6-20,5.8-30.1,7.2c-1.7,0.2-3.3,0.6-4.8,1.4c-5.8,2.2-11.6,4.9-17.5,6.2
		c-12.9,2.9-25.3,7.9-37.9,12c-4.5,1.4-8.8,3.4-13.3,5.1c-0.5,0.1-1,0.4-1.3,0.8c-2.1,1.1-4.2,2.6-6.3,3.8c-3.5,1.7-7.3,4-11.1,5.6
		c-2.4,1.2-5,2.1-6.5,4.7s-2.3,3.6-2.3,5.5c-0.3,5.9,0.6,12,5,15.5c0.5,0.4,0.9,0.9,1.3,1.4c2.5,2.2,5.1,4.1,8.2,3.5
		c1.8-0.4,3.6-0.4,5.4,0.1c2.5,0.5,4.9,1.2,7.2,2.3c1.2,0.5,2,1.6,3.3,1.5c1.1-0.3,2.3-0.4,3.5-0.4c3.4,0.3,7.1-0.7,10.4,1.4
		c1.2,0.8,2.7,0.3,4.1,0.5s3.1,0,4.7,0.1c5.2,0.1,10.1,0.2,15.2-0.1c6.9-0.4,13.8-0.8,20.6-1.6c11.3-1.2,22.4-2,33.6-3.5
		s24-3.8,35.6-8.1c1.9-0.8,4.1-1.1,6.1-1.9s2.6-1.2,2.1-3.6s-3.9-5.5-5.4-5c-5.2,1.2-10.5,2-15.8,3.2c-2.9,0.6-5.9,0.9-8.9,0.9
		c-4.7,0.2-9.4,0.1-14.1,0.2v0.9l7.7-0.8v0.6l-11.3,1.2c-14.2,1.5-28.3,3.3-42.4,4.8c-4,0.4-8,0.5-12.2-1.2
		c-0.5-0.2-1.1-0.2-1.6-0.1c-6.5-0.2-13.1-0.8-19.8-0.7c-4.7-0.1-9.5-2.7-14,0.6c-1,0.7-2.7-0.3-3.9-0.8c-3.2-0.9-6.3-2.1-9.5-3
		c-0.7,0-1.3-0.3-1.9-0.7c-0.8-0.6-1.3-1.4-1.5-2.3c0.2-0.9,0.6-1.8,1.1-2.6c1.2-1.1,2.5-2.1,3.9-3.2s6-4.3,9-6.2s3.2-1.2,4.9-2
		c7.7-3.3,15.4-6.6,23.2-9.2c4.3-1.7,8.7-2.5,13.3-3.6c6.5-1.6,12.7-4.4,19.3-5.7h0.4c4.6-1.1,9.4-1.9,14-3l6.3-1.6
		c1.7-0.5,3.4-1.6,5.1-2.1s5.3-0.6,7.9-1.1S126.7,55.6,128.5,53z"/>
	<path class="st3" d="M128.5,53c-1.7,2.7-4.7,2-6.9,2.6s-5.3,0.6-7.9,1.1s-3.4,1.6-5.1,2.1l-6.3,1.6c-4.6,1.1-9.4,1.9-14,3h-0.6
		c-6.6,1.3-12.8,4.1-19.3,5.7c-4.4,1.1-9,1.9-13.3,3.6C47.4,75.7,39.7,79,32,82c-1.7,0.8-3.3,1-4.9,2.1c-3.1,1.9-6.1,4-9,6.2
		c-1.4,1-2.7,2-3.9,3.2c-0.6,0.7-1.4,1.7-1.1,2.6c0.3,1,0.9,1.8,1.8,2.3c0.6,0.4,1.2,0.7,1.9,0.7c3.2,0.9,6.3,2.1,9.5,3
		c1.4,0.5,3.1,1.5,3.9,0.8c4.6-3.3,9.4-0.4,14-0.6c6.5-0.1,13,0.5,19.8,0.7c0.5-0.1,1.1-0.1,1.6,0.1c4,1.7,8.2,1.6,12.2,1.2
		c14.2-1.5,28.3-3.3,42.4-4.8l11.3-1.2v-0.5l-7.7,0.8v-0.9c4.7-0.2,9.4-0.1,14.1-0.2c3-0.1,6-0.4,8.9-0.9c5.3-0.9,10.5-2,15.8-3.2
		c1.5-0.2,5.2,2.8,5.4,5c0.4,1.5-0.5,3.1-2,3.6c0,0-0.1,0-0.1,0c-1.9,0.8-4.1,1.1-6.1,1.9c-11.6,3.9-23.5,6.6-35.6,8.1
		c-11.3,1.5-22.3,2.4-33.6,3.5c-6.9,0.7-13.7,1.1-20.6,1.6c-5.1,0.2-10.1,0.1-15.2,0.1c-1.6-0.1-3.1,0-4.7-0.1s-2.9,0.3-4.1-0.5
		c-3.6-2.1-7.1-1.1-10.4-1.4c-1.2-0.2-2.4,0-3.5,0.4c-1.3,0.4-2.1-0.7-3.3-1.5c-2.3-1-4.7-1.8-7.2-2.3c-1.8-0.3-3.6-0.4-5.4-0.1
		c-3.1,0.6-5.7-1.3-8.2-3.5c-0.5-0.4-0.9-0.9-1.3-1.4c-4.7-4-5.6-9.8-5.3-15.7c0-1.9,1.4-3.9,2.3-5.5s4.1-3.5,6.4-4.7L21.6,75
		c2.1-1.1,4.2-2.6,6.3-3.8c0.4-0.4,0.9-0.4,1.3-0.8c4.5-1.7,8.8-3.7,13.3-5.1c12.5-4.1,25-9.1,37.9-12c5.9-1.2,11.7-4,17.5-6.2
		c1.6-0.6,3.2-1.1,4.8-1.4c10.1-1.4,20.1-4.6,30.1-7.2c5.9-1.5,12-2.8,17.9-4.4c2-0.5,3.9-1.6,5.8-2.2c6.8-1.6,13.3-3.3,20.1-4.6
		s15.5-3.8,23.2-5.2s15.5-3.2,23.2-4.6s16-2.9,24-4.1s17.2-2.1,26-3.4c3.1-0.3,6.4-1.3,9.5-1.3c6.7-0.4,13.2-0.5,19.9-0.5
		s13.6-0.5,20.4,0c11.1,1,22.4,2.3,33.1,8.3c5.5,3.1,9.8,7.6,11.9,15.7c1.7,5.1,0.8,9.8-1,14.3c-2,5-5.1,9.4-9.1,13
		c-7.5,7.3-15.7,12.5-23.8,18c-13.8,9.2-28.2,17.2-43.3,24c-10.9,5.2-22.3,8.8-33.5,12.8c-5.4,1.8-10.8,3.3-16.1,4.8
		c-8.7,2.8-17.3,5.5-25.8,7.7s-17.3,3.7-25.9,5.2c-11,2.1-21.9,4.2-32.9,5.9c-5.1,0.7-10.3,1.2-15.5,1.3c-2.2,0.2-3.7-1.2-4.4-3.9
		c-0.6-2.1-1-4.2-1.1-6.4c-0.1-0.9,0.4-1.8,1.1-2.3c0.6-0.7,1.5-0.5,2.4-0.9c13.5-1.7,26.9-3.5,40.4-5.5c7.5-1.1,15.4-2.9,23.2-4.6
		c6.4-1.3,12.7-2.3,19.1-3.9s12.8-3.5,19.1-5.4s14.8-4.3,22.1-7c3.3-1,6.4-2.5,9.7-3.8c7.1-2.9,13.9-5.8,21-9S306,80,312.4,76.3
		c4.4-2.6,8.9-5,13.3-7.9L332,64c5.8-4.6,11.6-8.9,17.1-13.9c3.9-3.4,6.7-7.9,8-12.9c0.5-1.9,0.2-2.8-1.1-3.6c-5.2-5-11-6.9-17-8.4
		c-8.9-1.8-17.6-1.5-26.3-1.6c-13.2-0.2-26.3,0.6-39.5,1.1c-3.1,0-6.5,0.1-9.6,0.4s-8.3,1.8-12.5,2.2c-2,0.2-4,0.1-6,0.3
		c-2.9,0.5-5.7,1.1-8.5,1.8c-3.3,0.3-6.6,0.7-9.8,0.7c-0.7-0.1-1.4,0-2,0.2c-2.3,1.2-4.9-0.1-7.5,1.1c-2.6,1.2-2.8-0.6-4.3,1.4
		s-4,0.7-5.9,1.2c-5.5,1.2-10.9,2.7-16.1,3.9l-6.4,1.3c-5.7,1.2-11.4,2.4-16.8,3.9c-1.5,0.5-3,1.5-4.5,2s-4,0.1-5.8,0.6
		s-5.8,1.9-8.9,2.5s-4.5,2.3-7,1.1c-0.5-0.3-1,0.7-1.5,0.8s-3.3,2.2-5.7,1.2s-2.4,0.6-3.5,1S129.4,52.9,128.5,53z"/>
</g>
</svg>
