<?xml version="1.0" encoding="utf-8"?>
<!-- Generator: Adobe Illustrator 19.2.0, SVG Export Plug-In . SVG Version: 6.00 Build 0)  -->
<svg version="1.1" id="Layer_1" xmlns="http://www.w3.org/2000/svg" xmlns:xlink="http://www.w3.org/1999/xlink" x="0px" y="0px"
	 viewBox="0 0 370 152" style="enable-background:new 0 0 370 152;" xml:space="preserve">
<style type="text/css">
	.st0{enable-background:new    ;}
	.st1{fill:#231F20;}
	.st2{fill:#FFFFFF;}
	.st3{fill:#010101;}
</style>
<title>soups</title>
<g class="st0">
	<path class="st1" d="M147.9,76.6l-0.4,0.6l0,0.4c-0.1,0.2-0.1,0.3-0.2,0.3l-0.2,0.2c0,0.1,0,0.2,0,0.3c0,0.1,0,0.2,0,0.2l-0.2-0.1
		c0,0-0.1-0.1-0.3-0.1l0.2,0.3l0,0.4l-0.9,0.6c0,0.1,0,0.1-0.1,0.2c0,0-0.1,0.1-0.1,0.1c-0.2-0.1-0.3-0.3-0.4-0.4
		c-0.1,0.1-0.2,0.1-0.3,0.2l-0.1,0.2l-0.4-0.2l-0.3-0.1l-0.4,0.8l-0.4,0.2l-0.2,0.2c0,0-0.1-0.1-0.3-0.1l-0.3,0.4l-0.2,0l0,0.3
		l-0.4,0l-0.6,0.6l-0.9,1.1c-0.3,0-0.5,0.1-0.6,0.2c-0.1,0.1-0.2,0.4-0.3,0.8c-0.1,0-0.3,0-0.4-0.1l-0.2,0.1l-0.7,0
		c-0.2,0.1-0.3,0.2-0.3,0.3l-0.3,0.3c-0.1-0.1-0.2-0.2-0.3-0.2c-0.1,0-0.2-0.1-0.2-0.1l-0.4,0.4l-0.7-0.1l-0.3,0.4
		c-0.2,0-0.5-0.2-0.7-0.6l-0.2-0.6c-0.2,0-0.3,0.1-0.3,0.4c0,0.2,0,0.3-0.1,0.4c0,0-0.1,0.1-0.1,0.1l-0.6-0.2l-0.3,0.3l-0.3,0
		l-0.5-0.7l-0.5,0.2l-0.7,0.4l-0.2,0.2l-0.5-0.1l-0.5-0.3l-0.6,0.1l-0.8-0.2c-0.5,0-0.8-0.1-1-0.3l-0.1-0.5l0.1-0.5l0-0.3l0.3,0.3
		c0.1,0.1,0.2,0.1,0.4,0.2l0-0.7l-0.2-0.3l-0.1-0.3l0.4-0.4l0-0.7l0.6-0.1l0.1-0.2c0.4,0.1,0.6,0.1,0.6-0.1
		c-0.1-0.2-0.2-0.4-0.2-0.5l-0.5-0.3l-0.4-0.1l-0.1-0.2l0.5-0.1l0.1-0.2l0.1-0.4l0.5,0.2l0.5-0.3c0-0.1,0-0.2-0.1-0.3l-0.1-0.3
		l0.3,0c0.1-0.1,0.1-0.3,0.1-0.6l0-0.7l0.2-0.5l0.5-0.7c0.2,0.1,0.4,0.1,0.5-0.1l1-0.4c0.5-0.2,0.9-0.3,1.2-0.2c0.4,0,0.8,0.2,1,0.6
		c0,0.2-0.1,0.4-0.1,0.5l-0.3,0.5l0.3,0.4l-0.5,0.4c-0.2,0.2-0.4,0.3-0.4,0.5c0.1,0.2,0.2,0.3,0.2,0.4c0.3,0,0.6,0,0.7,0l0.6-0.1
		l0.9,0.4c0.1-0.1,0.2-0.1,0.4-0.1l1.1,0.1l1.2,0.1l1.3-0.1l1-0.2l0.4-0.5c0.1,0,0.1,0,0.2,0c0.1,0,0.1-0.1,0.1-0.1l0-0.4l-0.9-1.1
		l-0.5-0.8l-0.5-0.4l-0.3-0.6l-0.2-0.7l0.2-0.5l-0.4-0.4c-0.2,0-0.3-0.1-0.3-0.4c0-0.2,0-0.4,0-0.5c-0.1-0.1-0.2-0.2-0.5-0.2l-0.7,0
		l-0.1-0.3l-0.1-0.2c-0.2,0-0.4,0-0.5,0.1c-0.2,0-0.3-0.1-0.3-0.1l-1.3-1.6l-0.7-0.5l-0.2-0.5l-0.3-0.1l-0.7-0.4l-0.4-0.4l-0.2-0.6
		c0-0.2,0-0.3,0-0.4c0,0-0.1,0-0.1-0.1l-0.5,0l-0.7-0.6l-0.8-0.7l-0.9-0.4l-0.8-1.1l-1.1-0.8l-0.6-0.7l-1.3-0.8l-0.3-0.5
		c-0.6-0.2-1-0.4-1.2-0.5c-0.4-0.2-0.6-0.6-0.7-0.9c-0.1-0.4-0.2-0.6-0.4-0.8l-1.2-1.1l-0.9-1.1l-0.4-0.9l0-0.4l-0.4-0.1
		c0-0.1,0.1-0.1,0.1-0.2c0-0.1,0-0.2,0-0.2l-0.2-0.6l-0.1-0.5l-0.3,0.1c-0.2-0.1-0.2-0.2-0.1-0.4l0.4,0.1l0.3-0.1l0.3,0.2l0.2-0.1
		l0.3-0.3l0.4,0l0.2,0.3l0.7-0.1l0.7-0.1l0.8,0.2l0.7-0.1l0.6,0.2l0.5-0.3c0.2-0.1,0.4-0.2,0.8-0.2l0.8,0.1c0,0.1-0.1,0.1-0.1,0.2
		c0,0.1,0,0.2,0,0.2l0.2,0.1l0.6-0.1l0-0.7c0-0.2,0.1-0.3,0.3-0.3l0.1,0.3l-0.3,0.7l0.2,0c0.2-0.1,0.4-0.1,0.7,0.1l0.6,0.2
		c0.2,0,0.2-0.1,0.2-0.2l-0.2-0.4l0.4-0.3l0.1-0.3l0.5-0.1l0.4-0.1l0.1,0.1l-0.4,0.2c0,0.1,0,0.2,0,0.3c0.1-0.1,0.2-0.1,0.4-0.2
		l0.1,0.3l0.5-0.4l0.5,0l0-0.2l0.1-0.4l0-0.7c0.3,0,0.5,0,0.6-0.1l0-0.2l0.2,0c0.1,0.1,0,0.3-0.2,0.5c-0.2,0.1-0.3,0.2-0.3,0.4
		l0.6,0.1l0-0.2l0.2-0.1l0.2,0.6c0.1,0.1,0.2,0.1,0.3,0c0-0.2-0.1-0.3-0.1-0.4l-0.2-0.3c0.1-0.2,0.3-0.3,0.5-0.3
		c0.2,0,0.4,0.1,0.5,0.3l0.2,0l-0.1,0.1l-0.3,0c0,0.3-0.1,0.5-0.2,0.6l-0.4,0.3c0,0-0.1,0.1-0.1,0.3c0.2,0,0.3-0.1,0.4-0.1l0.3,0
		l0.2-0.3c0.2,0,0.4,0,0.5-0.1l0.3-0.1l0.1-0.2c0.2,0.1,0.2,0.3,0.2,0.4l0,0.4l0.2,0.2l-0.2,0l-0.1,0.3c0.1,0.1,0.2,0.2,0.2,0.2
		l0.3,0.1l-0.2,0.5l0.2,0l0.1,0.3c0.2-0.1,0.3-0.2,0.4-0.3c0.1-0.1,0.2-0.2,0.4-0.2l0.4,0.4l0.4,0l0,0.3l0.3-0.2l0.3,0.1L139,55
		l0.1-0.3l0.2,0.2c0,0,0.1,0.1,0.3,0.1l0.3-0.4c0.1-0.2,0.1-0.4-0.1-0.5l-0.2-0.2c0,0,0.1-0.1,0.1-0.1l0-0.1l-0.4-0.1l-0.2,0.1
		c0-0.2,0.1-0.4,0.2-0.7c0.1-0.2,0.2-0.3,0.4-0.4l0.3,0.2l0.5-0.1l0,0.6c0,0.3,0.2,0.4,0.5,0.4c0.1-0.1,0.2-0.2,0.2-0.2l0.1-0.3
		l0.4-0.1l0-0.3l0.4,0.3c0.4,0,0.8,0.1,1,0.2l0.4,0.4l0.5,0l0.3,0.3l0.2,0.2l0.2-0.1c0,0,0.1-0.1,0.3-0.1c0.3,0,0.5,0.2,0.7,0.5
		l0.7,0.8l0.8,0.6c0.3,0.2,0.5,0.5,0.5,0.9l-0.1,1.7c-0.1,0.2-0.3,0.2-0.4,0.2l-0.4,0l-0.2,0.2l-0.5-0.4l-0.5,0.5l-0.1-0.3l-0.3-0.5
		l-0.3,0.2l-0.5-0.5c-0.3,0.1-0.6,0.2-0.7,0.2l-0.6,0.3l-0.2,0.6l-0.1,0.6l0.1,0.2l-0.2,0.4l0.1,0.2l-0.4,0.4l0.3,0.1l0.2,0.2
		l0.2-0.1l0.1,0.3l-0.5,0.2l-0.4,0.1c0-0.2,0-0.3-0.1-0.4c0-0.1-0.1-0.1-0.1-0.1l-0.5,0.2c-0.1-0.1-0.1-0.1-0.2-0.1
		c-0.1,0-0.1,0-0.1-0.1l-0.2,0.5l0,0.6l-0.1,0.4l-0.7-0.1c-0.2-0.1-0.3-0.3-0.3-0.5l0.3-0.5l0.3-0.6c-0.1-0.2-0.2-0.4-0.4-0.5
		l-0.4-0.4l0-0.4l-0.6-0.3c-0.2,0-0.4,0-0.5,0.1l-0.9-0.5l-0.8-0.5l-0.4,0l-0.9-0.4l-0.2-0.2l-0.4,0.3l-0.3-0.3l-0.5-0.3l-0.8,0
		l-0.4-0.3l-0.4,0l-0.3-0.1l-0.8-0.3c-0.2-0.1-0.3-0.1-0.5-0.2c-0.2,0-0.3-0.1-0.5-0.1c-0.1,0.1-0.1,0.3,0.1,0.6
		c0.3,0.3,0.5,0.4,0.7,0.5l1.6,1l1,0.7l0.3,0.4l1,0.6l0.5,0.4l0.7,0.8l1.6,1.1c0.3,0.4,0.5,0.7,0.7,0.8l2.1,1.6l0.7,0.8l1.3,1.3
		l1,0.7l0.4,0.6l0.3,0.6c0.2,0.1,0.3,0.2,0.5,0.4c0.2,0.2,0.3,0.3,0.4,0.5c0.3,0.3,0.5,0.7,0.6,1c-0.1,0.2-0.2,0.3-0.3,0.4
		c-0.1,0.1-0.2,0.2-0.1,0.4l0.7-0.2c0.1,0.1,0.2,0.3,0.2,0.4l0.1,0.3l0.2,0l0.1,0.8l-0.1,1.2c0,0.2,0.1,0.3,0.1,0.3l0.2,0.3
		l-0.1,1.3L147.9,76.6z M126.7,59.1l-0.2,0.2l-0.1-0.3L126.7,59.1z M130,62.4c-0.1-0.2-0.2-0.4-0.2-0.5l-0.2-0.3l0.1-0.2l0.3-0.1
		l-0.3-0.3l0-0.6l0-0.4l-0.5-0.4l0.2-0.2l0-0.3c-0.2,0.1-0.3,0.2-0.3,0.2l-0.2,0l-0.3-0.1l-0.2-0.3c-0.1-0.1-0.2-0.2-0.4-0.3
		l-0.4,0.2l-0.1-0.3l-0.1-0.3l-0.2,0.2c0,0.4,0,0.6,0.1,0.8l0.6-0.1c0.1,0,0.2,0,0.2,0.1c0,0,0.1,0.1,0.1,0.1l-0.1,0.9l0.7,0.1
		l-0.1,0.3c-0.1,0.1-0.1,0.2,0.1,0.3l0.4-0.1c0.1,0,0.1,0,0.2,0c0.1,0,0.1,0,0.1,0c0.1,0.1,0.1,0.2,0.1,0.5c0,0.3-0.1,0.5-0.1,0.6
		c0,0.1,0.1,0.1,0.1,0.2c0,0.1,0.1,0.2,0.2,0.3L130,62.4z M129.1,58.2c0,0.1-0.1,0.1-0.1,0.2C129,58.3,129,58.2,129.1,58.2z
		 M131.6,62.5l-0.3-0.7l0.3-0.2l-0.2-0.1l0-0.3c-0.1-0.1-0.2-0.2-0.2-0.3l-0.4,0.5l-0.2,0l-0.4-0.3l0.1,0.4l0.6,0.2l0,0.4
		L131.6,62.5z M131.8,78.4l-0.4,0l-0.2,0l0.4,0l0,0.5l0.3-0.2C131.9,78.5,131.9,78.4,131.8,78.4z M134.4,53.7l-0.3,0.1l-0.2-0.1
		l0-0.2l0.2-0.1c-0.1-0.1-0.1-0.2-0.2-0.3l-0.3-0.1l0-0.2c-0.1,0.1-0.2,0.3-0.3,0.4c0,0.1,0,0.2-0.1,0.2c0,0-0.1,0.1-0.1,0.1
		l-0.3-0.3c0,0-0.1,0.1-0.3,0.1l-0.2-0.1l0,0.4l-0.3,0.6c0,0.2,0,0.3,0.2,0.4l0.7-0.3l0.5,0l0.3-0.3l0.5,0.3l0.3,0L134.4,53.7z
		 M132.9,63.1l-0.3-0.1c-0.2,0-0.3,0.1-0.3,0.1l0,0.2l0.3,0.1l-0.2,0.2c0.2,0,0.3-0.1,0.4-0.1s0.1-0.1,0.1-0.2
		C132.8,63.2,132.9,63.2,132.9,63.1z M133.3,54.9l0,0.2l-0.3,0.2l0-0.4C133.2,54.9,133.3,54.9,133.3,54.9z M136.6,66.3
		c-0.1-0.1-0.2-0.1-0.4-0.1c-0.2,0-0.3,0.1-0.3,0.2c0.1,0.2,0.2,0.4,0.2,0.5l0.4,0.3c0.2-0.2,0.3-0.3,0.3-0.4L136.6,66.3z
		 M138.1,67.5c0.1-0.1,0.1-0.2-0.1-0.4l-0.5-0.4l-0.1-0.2l-0.3,0.1l-0.1,0.6l-0.3,0l0.1,0.6l0.7-0.4L138.1,67.5z M137.4,53.5
		l-0.1-0.2l0.2-0.2c0.1,0.1,0.1,0.2,0.1,0.3L137.4,53.5z M137.5,84.3l0.2-0.1c0-0.2-0.1-0.3-0.2-0.4l-0.2,0.1c0,0-0.1,0.1-0.1,0.1
		l0,0.1L137.5,84.3z M137.8,71.3l-0.1,0.1l-0.1,0.1L137.8,71.3z M138.5,53.7l0,0.4l-0.1,0.4l-0.7-0.7c-0.1-0.1-0.1-0.3,0-0.6
		l0.2-0.1c0,0.3,0.1,0.5,0.2,0.6L138.5,53.7z M137.8,66.8l0.2,0l0.1,0.2L137.8,66.8z M138.8,71.7l-0.5-0.3l-0.2,0.2
		c0.2,0,0.4,0.1,0.4,0.1l0.1,0.3c0.1,0,0.2,0,0.2,0C138.8,71.9,138.8,71.8,138.8,71.7z M139,84.1l0.1,0.3l-0.2,0
		c-0.1-0.1-0.1-0.2-0.1-0.3L139,84.1z M141.2,55.9l-0.1,0.3l-0.3,0.2c0-0.2,0-0.3,0.1-0.3C140.9,56,141,55.9,141.2,55.9z
		 M142.2,81.4l-0.1-0.1l0.1-0.3l0.2,0.3C142.3,81.4,142.3,81.4,142.2,81.4z M143.9,59.4l-0.2-0.7l0-0.3L144,59L143.9,59.4z
		 M144,61.4l-0.2,0l0.1-0.2L144,61.4z M145.1,58.4l-0.3,0.2l-0.1,0.4c-0.1,0.1-0.2,0.2-0.3,0.2c-0.2-0.1-0.1-0.2,0.1-0.5
		C144.8,58.4,145,58.3,145.1,58.4z M148.3,75.5c0,0.1,0,0.2-0.1,0.2l-0.2,0l0-0.2C148.2,75.5,148.3,75.5,148.3,75.5z"/>
	<path class="st1" d="M179.6,76.2l-0.1,0.9l-0.4,0.5l0,0.3l0.1,0.4l-0.6,1l-0.9,1.2l-0.4,0l-0.5,0.5c-0.1,0.1-0.3,0.2-0.3,0.3
		c-0.1,0.1-0.2,0.1-0.3,0.1l-0.6-0.2l-0.1-0.3c-0.1-0.1-0.2-0.2-0.2-0.2c-0.1,0.1-0.2,0.4,0,0.9c0.1,0.4,0.1,0.7,0.1,0.9
		c-0.2,0.3-0.4,0.4-0.6,0.5l-0.4,0l-0.4,0.1l0,0.4l-0.7,0.2l-0.9,0.1l-0.4,0.3l-0.9,0.1c-0.2,0-0.4,0-0.5,0.1l-0.1,0.1
		c-0.1-0.1-0.1-0.3-0.1-0.4c0.1-0.2,0.1-0.3,0-0.4c-0.2-0.1-0.4-0.1-0.7,0l-0.6,0.1c0-0.1,0-0.2,0-0.2c0,0,0,0,0-0.1l-0.4,0.1
		l-0.1,0.2l-0.2-0.2l-0.2,0.1l0.2,0.4c-0.2,0.2-0.4,0.3-0.6,0.3l-0.6,0l-0.3,0.1l-0.2-0.1l-1.1-0.8l-0.2-0.6
		c-0.3-0.1-0.5-0.3-0.7-0.4l0.1-0.2l-0.1-0.1l-0.3,0.2l-1-0.2L163,82l-0.3-0.5c-0.2,0-0.4,0-0.5,0l-0.4,0.1c-0.2,0-0.4-0.2-0.6-0.5
		l-0.2-0.8l-0.3-0.3l-0.1-0.2l0.1-0.6l0-0.4l-0.3,0l-0.5,0.2l0.1-0.7l-0.3-1c-0.2-0.5-0.3-0.8-0.5-0.9l-0.5-0.3l-0.4-0.2l-1.1-1.1
		l-1.3-1.1l-0.3-0.5l-0.2-0.5l-0.4-0.2l-0.7-0.4l-0.1-0.5c0-0.2-0.1-0.3-0.2-0.4l-0.7-0.5l-0.8-0.6l-0.3,0l-0.3,0.2l-0.6-0.7
		l-0.3-0.8c0-0.5,0-0.8,0-0.9l-0.6-1l0.1-0.7l-0.1-0.5c0-0.2,0.1-0.5,0.2-0.7l0.6-1.1l-0.2-0.8l0.4-0.5l0-0.8l0.6-0.4l0.2-0.5
		c0-0.3,0.1-0.5,0.2-0.6l1.6-0.8l0.2-0.3c0-0.1,0.2-0.2,0.4-0.3l0.4-0.2l0.2-0.2c0.2-0.1,0.3-0.1,0.5-0.1l0.8-0.6l0.3-0.7l0.5,0.1
		l0.5-0.3l0.5-0.3l0.6,0l0.7,0c0.4,0,0.6,0,0.7-0.1l0.4-0.1l0.4-0.1l0.1-0.5l0.3,0l-0.1,0.3c0,0.1,0,0.3,0.2,0.4l0.3,0l0.4-0.2
		l0.8,0.1l0.8-0.2l1,0.7c0.3,0.2,0.6,0.5,0.8,0.8l0.6,0.8l0.7-0.5l0.6,0.3l1.1,0.2l0.3,0.5l0,0.5l0.7,0l0.4,0.3l0.4,0.4l0.2,0.1
		l0.4,0.2l-0.2,0.5l-0.2,0.3l0.1,1.2c-0.1,0-0.3,0.2-0.4,0.5c-0.1,0.2-0.1,0.4,0,0.5l0.3,0.1l0.7,0.1c0.3,0,0.6,0.1,0.8,0.2
		c0.2,0.1,0.3,0.2,0.4,0.2l0.1,0.3l0.1,0.3l0.6,0.3c0.2,0.4,0.4,0.7,0.5,0.8l1.1,0.6c0.1,0.4,0.2,0.6,0.3,0.8l0.4,0.1l0.8,0.8
		l0.1,0.4l0.3,0c0.1,0.2,0.1,0.3,0.1,0.4c0,0.2,0,0.3,0.1,0.4l0.4,0.3c0.2,0.1,0.3,0.3,0.4,0.5l0.3,0.6l0.5,0.8l0.2,1.1l0.2,1.3
		l0.3,0.7l-0.3,0.5l0.2,0.6L179.6,76.2z M174.5,75c0-0.5,0-0.8-0.1-1l-0.2-0.3l0-0.5l-0.4-0.3l-0.5-1l-0.5-0.9l-0.2-0.2l-0.2-0.2
		l-0.2-0.6c0-0.3-0.1-0.6-0.3-0.7l-0.4-0.3l-0.3-0.5c0-0.3-0.1-0.5-0.2-0.6l-0.4-0.4l0-0.3l-0.3-0.2l-0.2-0.1l-0.2-0.5
		c0.1-0.1,0.2-0.2,0.3-0.3l-1-1.2c-0.1-0.1-0.2-0.1-0.4,0l-0.4,0.1l-0.8-0.7l-0.6-0.7l-1.1-0.6l-1-0.6l-0.3-0.7l-0.4-0.2l-0.8-0.5
		l-0.4-0.6l-0.7-0.5c0-0.2,0.1-0.4,0.1-0.5l0.3-0.5l-0.2-0.4c-0.2-0.1-0.8,0-1.6,0.2L160,59c-1.3,0.4-2.7,1.2-4,2.5
		c-1.3,1.3-2.1,2.5-2.5,3.8c0,0.1-0.1,0.3-0.1,0.6c0,0.2,0,0.5,0.1,0.7l0.7,1.5c0.6,1.2,1.5,2.4,2.9,3.7c0.8,0.7,2.1,1.7,3.8,2.8
		c1.3,0.8,2.7,1.5,4,2c1.3,0.5,2.6,0.8,3.9,0.9c0.9,0,1.7,0,2.5-0.2c0.8-0.2,1.4-0.4,1.9-0.7C174.1,76.2,174.5,75.6,174.5,75z
		 M164.6,83.5c-0.2,0-0.3,0.1-0.3,0.1l-0.7-0.3l-0.3-0.3l0.2-0.1l0.6,0.3C164.3,83.2,164.5,83.3,164.6,83.5z M166.2,83.4l0.1,0.4
		c-0.1,0-0.2,0-0.3-0.1c-0.1,0-0.1-0.1-0.1-0.3C166,83.3,166.1,83.3,166.2,83.4z M169.6,61.2l-0.2,0.1l-0.1,0.3l-0.4,0.1l0.5,0.4
		l0-0.4L169.6,61.2z M170.3,61.8c-0.2,0.1-0.3,0.2-0.5,0.2c0.1-0.1,0.2-0.1,0.3-0.2C170.2,61.9,170.3,61.9,170.3,61.8z M171.5,60.7
		l-0.2-0.1l0.1-0.2C171.4,60.5,171.4,60.6,171.5,60.7z M174.6,82.2c0,0,0,0.1,0,0.1l0,0.1l-0.2,0l0-0.2L174.6,82.2z"/>
</g>
<g class="st0">
	<path class="st1" d="M207.4,65.2c-0.1,0.1-0.2,0.2-0.3,0.2l-0.3,0.1L207,66l-0.3,0.8l-0.1,0.8l0,1.4l0.1,0.9l-0.2,0.7l0.1,0.9
		l-0.3,0.9l0.1,0.4l-0.2,0.3l0.2,0.8L206,75c-0.1,0.5-0.2,0.9-0.4,1.3l-0.3,0.3l-0.1,0.4l-0.5,0.7l-0.5,1.8l-0.6,0.5l-0.8,0.6
		l-0.6,1l-0.5,0.3l-0.6,0.8c-0.5,0.1-0.8,0.2-0.9,0.3l-0.4,0.6l-0.5,0.3c-0.2,0.1-0.4,0.2-0.5,0.2l-0.5,0.4l-0.3,0.6l-0.8,0.5
		l-0.1-0.3c-0.1-0.1-0.2-0.1-0.4-0.1c0,0.2-0.1,0.3-0.1,0.4l0.1,0.4l-0.9,0.9l-0.5,0.2l-0.5,0.6c-0.1,0.1-0.3,0.1-0.3,0l-0.1-0.6
		l-0.4-0.2l-0.1,0.4l-0.1,0.5c-0.1,0.1-0.3,0.1-0.6-0.1c-0.3-0.1-0.5-0.2-0.7-0.1c-0.3,0.2-0.6,0.3-1,0.3l-0.4-0.1l-0.5-0.5l-1.3,0
		L189,87l-0.6-0.5l-1-0.5l-0.7-0.7l-0.3-0.5l-1-1.2l-0.9-1.3l-0.3-0.9l-0.3-0.9c-0.9-2.6-1.5-5.2-2-8l-0.5-4.8l0-0.8l0.1-0.6
		l-0.1-0.8l-0.1-0.9l0.1-1.3l-0.1-0.7l0.2-0.3l0.1-0.2l0.7-2.1l0.2-0.6l1.1-0.5l0.5-1.4l0.5-0.3c0.1-0.5,0.3-0.9,0.6-1.2
		c0.2-0.3,0.6-0.5,1-0.7l0.3-0.2c0,0,0.1,0,0.3,0c0.1,0,0.2,0.2,0.3,0.6l0,0.6c-0.3,0.3-0.5,0.8-0.6,1.5l-0.2,2.3l-0.1,0.9l0.2,0.7
		l-0.2,0.6c0,0.3,0,0.7-0.1,1c0.1,0.4,0.1,0.6,0.2,0.8l0.3,2.3c0,0.5-0.1,0.9-0.2,1.2l0.1,0.5l0.4,0.8c0,0.5,0,0.8,0,1l0.3,1
		l0.3,2.2c0.1,0.3,0.2,0.5,0.4,0.7l0.2,0.1l0.2,0.4l0.2,0.6l0.1,0.5l-0.1,0.6l0.5,0.6l0.3,0.5c0.1,0.4,0.2,0.6,0.2,0.7
		c0,0.1,0.1,0.2,0.1,0.3c0.2,0.3,0.7,0.8,1.5,1.6c0.4,0.4,0.8,0.7,1.2,0.9l1,0.2c1,0,1.9-0.2,2.7-0.9s1.5-1.5,1.9-2.5l0.4-1.5
		l0.3-1.1l0.8-3.6l0-0.7c0-0.3,0-0.5-0.1-0.6l0.1-0.7l0.2-0.6l0.1-1.5c0-0.6,0.1-1.1,0.3-1.6c0.1-0.2,0.2-0.3,0.3-0.3l0.5-0.2
		l0.1-0.6l0.3,0l0.4-0.7l0.5-0.3l0.4-0.3l0-0.3l0.6-0.4l-0.4-0.8l0.4-0.1l0.5-0.1l0.1-0.3c0.1-0.1,0.2-0.1,0.3-0.1l0.7,0.3l0.8,0.4
		l0.2-0.1l0,0.2l0,0.5l0.8,0.2c0.1,0.1,0.1,0.3,0.1,0.7l0,0.6l0.2,0.1l0.2,0.5l-0.2,0.3l-0.1,0.1c0.1,0.1,0.2,0.2,0.3,0.3
		c0.1,0,0.1,0.1,0.1,0.2C207.3,65.1,207.4,65.2,207.4,65.2z M207.4,63.4c0,0.1,0,0.2-0.1,0.3c-0.1,0.1-0.2,0.1-0.2,0
		c0-0.1,0-0.2,0.1-0.2C207.2,63.4,207.3,63.4,207.4,63.4z"/>
</g>
<g class="st0">
	<path class="st1" d="M232.8,65.4c0,0-0.1,0-0.3,0l-0.2-0.4l0,0.4l-0.2,0l-0.3-0.4l-0.4,0.4l0.4,0.2c0.4,0.1,0.5,0.2,0.5,0.5
		l-0.1,0.1l-0.6-0.1l-0.5,0.3c0,0.2,0,0.3,0.1,0.5l-0.2,0.3c0,0.1,0,0.1,0,0.2c0,0.1,0,0.1,0,0.2l-0.8,0.1c-0.2,0-0.4,0.1-0.6,0.2
		l0.2,0.4c0,0.1-0.1,0.1-0.1,0.2c0,0.1,0,0.1,0,0.2l0.2,0.1l-0.4,0.1l-0.3,0.4c-0.1-0.1-0.2-0.1-0.2-0.2c0-0.1-0.1-0.2-0.3-0.3
		l-0.1,0.2l-0.1,0.2l-0.3-0.1l-0.3,0c-0.1,0.1-0.1,0.2,0.1,0.5l0.2,0.3l-0.2,0.4l-0.3,0.5c-0.3,0-0.5,0-0.7,0.2l-0.3,0.5
		c-0.1,0.1-0.2,0.1-0.5,0l-0.4-0.1l-0.4,0.3l-0.3,0l-0.5,0.5l-0.3,0.5l-0.2,0c-0.1,0.2-0.1,0.3-0.2,0.3l-0.3,0l-0.2,0L223,73
		l0.6-0.2c0.3-0.1,0.4-0.3,0.3-0.5l-0.5,0l-0.3-0.1l-0.3,0.8c-0.2,0.5-0.5,0.7-0.9,0.7l-0.1-0.4c0.1-0.3,0.1-0.5-0.1-0.6
		c-0.1,0-0.2,0.1-0.3,0.1l-0.2,0.4l-0.2,0l-0.4,0l-0.6,0.1c-0.1-0.1-0.1-0.3-0.1-0.4l0.1-0.4l-0.2-0.2l-0.1-0.3
		c-0.2,0-0.3,0.1-0.4,0.4c0,0.4-0.1,0.7-0.1,0.7c-0.2-0.1-0.4-0.3-0.5-0.4s-0.3-0.2-0.6-0.2l-0.4,0.5l-0.4,0.7l0.2,0.4
		c0,0.1,0,0.2-0.1,0.2l-0.4-0.1l-0.3-0.1l-0.5,0.4l-0.6,0.3c-0.2-0.2-0.4-0.4-0.5-0.5c-0.2-0.3-0.2-0.5-0.1-0.6l0.4-0.1
		c0.2-0.1,0.3-0.3,0.3-0.5c0-0.3-0.1-0.4-0.3-0.3l-0.5,0.2l0.2-0.5c-0.2-0.2-0.4-0.3-0.5-0.4l-0.6-0.3l0-0.5l-0.4-0.8l0-0.5l0-0.2
		c0.2-0.1,0.3-0.1,0.3-0.2l0.5-0.9c0.2-0.3,0.5-0.5,0.8-0.7l1,0.3l0.7-0.5c0.3-0.2,0.6-0.3,0.8-0.3l0.7,0.4l0.2,0.4
		c0.4,0,0.7,0,0.9-0.1c0,0.3,0.1,0.6,0.2,0.8l0.1,0.1l0.8-0.2l0.8,0.1l0.5-0.6l1.5-0.6c0.6-0.2,1.1-0.5,1.4-0.8l0.6-0.5
		c0-0.2-0.2-0.6-0.6-1c-0.4-0.5-0.8-0.8-1.3-1l-1.2-0.8c-0.4-0.2-0.7-0.3-1-0.4c-0.3-0.1-0.9-0.2-1.9-0.5c-1-0.2-1.9-0.4-2.8-0.4
		l-2.1-0.1c-1-0.1-1.9,0-2.8,0.2c-0.5,0.1-0.8,0.2-0.9,0.3c-0.1,0.2,0,0.5,0.2,1l0.1,0.6l-0.2,0.3c0.2,0.2,0.3,0.3,0.5,0.4
		c0.1,0.1,0.2,0.2,0.2,0.3l0.1,1.5l0.2,0.4l0.4,0.4c0,0.5,0,0.8,0,1l0.5,1.2l0.1,0.6l0.3,0.4l-0.1,0.8c0,0.2,0,0.3,0.1,0.5l0.2,0.1
		l0.2,0.5l0.2,0.2c0.1,0,0.1,0.1,0.2,0.3l-0.3,0.1c-0.1,0.1-0.2,0.1-0.2,0.2l0.1,0.3l0,0.2l0.6-0.6c0.1,0.1,0.1,0.1,0.2,0.2
		s0.1,0.2,0.2,0.4l0.2,0.5l-0.3,0.4l0,0.6c-0.1,0.2-0.2,0.4-0.3,0.4l-0.2,0.3c0.1,0.3,0.1,0.5,0.1,0.7c0,0.2,0.1,0.5,0.3,0.9
		l0.4,2.7l0.2,1.2l0.3,1.4l0.4,1.4c0.1,0.5,0.2,1,0.1,1.3c0,0.1-0.1,0.2-0.1,0.2c0,0-0.1,0.2-0.3,0.5l-0.5,0.6l-0.5,0.2
		c-0.1,0-0.3,0.2-0.4,0.4c-0.6,1.1-1.4,1.7-2.4,1.9l-0.4,0.3c-0.2,0-0.4-0.2-0.5-0.5l-0.2-0.9l-0.3-0.9l-0.1-0.9l0.1-0.4l-0.3-0.5
		l0-0.9l0.1-0.4l-0.3-0.7L209,84l-0.1-1c0-0.6,0-0.9,0-1l-0.3-1l-0.2-0.2l0.1-0.4l-0.4-1.1l0.1-0.4l-0.3-0.4c0-0.5-0.1-0.8-0.2-1
		l-0.4-0.2l0.2-0.5l-0.3-0.9l0.1-0.3l0.1-0.3c-0.2-0.2-0.3-0.4-0.3-0.6l0.2-0.4l-0.4-0.5l-0.3-1c-0.1-0.5-0.1-0.7-0.2-0.8l-0.1-1.4
		l0.1-0.6l-0.3-0.6l0-0.5c-0.4-0.1-0.6-0.2-0.7-0.4c-0.1-0.1-0.1-0.4,0-0.8L205,67c-0.1-0.1-0.1-0.2-0.2-0.2l-0.1-0.1l-0.1-0.5
		l0.1-0.3l0.4,0.1l-0.2-0.7l0-0.5c-0.1-0.1-0.2-0.1-0.4,0c-0.1,0.1-0.2,0.3-0.2,0.5l-0.2,0.1l-0.4-0.8l-0.2-0.3l0.2-0.3l-0.4-0.6
		l-0.1-1.2l-0.1-0.5l0.2-0.3l-0.2-0.7l0.5,0.1l0.9,0.4l0.8,0.2l0.4-0.6c0-0.1-0.1-0.2-0.1-0.2l-0.4-0.3c0.4-0.4,0.6-0.8,0.6-1
		c-0.1-0.2-0.1-0.4-0.1-0.6s-0.1-0.4-0.2-0.6l0.2-0.4c0.1-0.1,0.2,0,0.4,0.2l0.1,0.4c0.2-0.1,0.3-0.2,0.3-0.3l0.2-0.4l0.6-0.3
		l0.3,0.2l0.2-0.2l0.2-0.3l0.2,0.3c0.1,0.1,0.1,0.2,0.2,0.3c0.2-0.1,0.3-0.2,0.4-0.3c0.1-0.1,0.2-0.1,0.3-0.2c0.1,0,0.2-0.1,0.2-0.1
		l1,0.3l0.9,0.2c0.3,0,0.5-0.2,0.7-0.7c0.2-0.5,0.4-0.7,0.6-0.8l0.3,0.1l0.3,0.3l0.4,0l0.3-0.1l0.5,0.7l0.1-0.2
		c-0.1-0.3-0.1-0.5-0.1-0.7c0.3,0,0.5,0,0.7-0.2l0.4-0.4c0.1-0.1,0.3-0.1,0.5-0.1l0.5,0.2l0.5-0.4l1,0.1c0.2,0.2,0.5,0.3,1,0.3
		l0.7,0l0.4-0.2l1,0c0.9,0,1.6,0.2,2.1,0.4l1.1,0.6l0.5,0c0.2,0,0.5,0.1,0.7,0.2l0.8,0.3l0.9,0.3l0.4,0.4c0.3,0,0.5,0.1,0.6,0.2
		l0.2,0.4l0.1,0.3l0.2,0.1L229,59l0.1,0.4c0,0.2,0.1,0.4,0.3,0.5l0.4,0.2l0.3,0.2c-0.1-0.2-0.1-0.4,0-0.4l0.2,0.2l0.3,0.2l0,0.4
		c0.2-0.1,0.4-0.1,0.5,0c0.2,0.1,0.3,0.3,0.5,0.7c0.2,0.4,0.2,0.7,0.2,0.9l-0.1,0.6l0.5,0.4l0,0.3l0.4,0.3c-0.1,0.2-0.1,0.3-0.2,0.3
		c-0.2,0.1-0.3,0.2-0.3,0.2l0.1,0.1l0.2,0c0.1,0.1,0.2,0.3,0.2,0.4L232.8,65.4z M206.9,59.4c0,0.2,0,0.3-0.1,0.3
		c-0.2,0-0.3,0-0.3-0.1c-0.1-0.1-0.1-0.2,0.1-0.2C206.8,59.4,206.9,59.4,206.9,59.4z M207.4,58l-0.1,0.2l-0.1-0.2
		C207.2,58,207.2,58,207.4,58L207.4,58z M213.7,57l-0.3,0.2l0.1-0.1L213.7,57z M214,72.1l-0.2,0.1l-0.2,0.3l0-0.4
		C213.8,72,213.9,72,214,72.1z M214.3,72.7l-0.1,0.1l-0.2,0.1l0-0.2c0,0,0.1,0,0.1,0L214.3,72.7z M218.6,73.3c0,0.2,0,0.3-0.1,0.3
		c-0.1,0-0.1,0.1-0.2,0.1c-0.1,0-0.1,0-0.1,0c0-0.2,0-0.3,0.1-0.3C218.3,73.3,218.4,73.3,218.6,73.3z M219,58.3l-0.1,0.2l-0.3,0.1
		L219,58.3z M219.4,73.6l0.1,0.3l-0.2,0c-0.1-0.1-0.2-0.1-0.2-0.2L219.4,73.6z M219.8,57.2l-0.1,0.2l0-0.2L219.8,57.2z M221.6,58.2
		l-0.4,0.1l-0.8-0.1l-0.2-0.2l0.1-0.4l-0.3,0l0.1,0.3l-0.2,0.3l0,0.2c0.2-0.1,0.3-0.1,0.5-0.1c0.1,0.2,0.1,0.3,0.2,0.4L221,59
		l0.4-0.3c0-0.1,0.1-0.1,0.1-0.2C221.5,58.3,221.5,58.2,221.6,58.2z M221.5,57.8c0.1-0.1,0.1-0.2,0-0.3c-0.1-0.1-0.3-0.2-0.5-0.3
		l-0.1,0.4l0.4,0L221.5,57.8z M221.4,71.2l0.1,0.3l-0.2,0.3l-0.1-0.4L221.4,71.2z M222.7,58.7l-0.5-0.5l-0.2,0.4l-0.2,0.2l-0.1,0.4
		c0.3,0,0.5,0,0.7-0.1C222.7,59.1,222.7,58.9,222.7,58.7z M224.1,58.9l-0.6-0.1l-0.2,0.2l0,0.4l-0.6,0.1l0.2,0.4l0.4-0.1l0.3,0.2
		c0.1,0,0.2,0,0.3-0.2l0-0.4L224.1,58.9z M224.4,61.7l0-0.2l0.1,0.1L224.4,61.7z M225.3,59.3c-0.1-0.1-0.2-0.1-0.4-0.1l-0.1,0.2
		l0,0.2c0.2,0.1,0.4,0.1,0.6,0L225.3,59.3z M227.5,61.7l-0.1-0.3l-0.6,0.1c-0.2-0.1-0.3-0.2-0.3-0.3c0-0.2,0-0.3,0.1-0.4l0.3-0.3
		l-0.3-0.4l-0.2,0.4c-0.1,0.2-0.1,0.3-0.2,0.3c-0.1,0-0.2,0-0.2-0.1c0,0-0.1-0.1-0.1-0.1c0.1-0.3,0.2-0.4,0.3-0.5l-0.3,0l-0.3,0.3
		c0,0.2,0,0.4,0,0.5l0.1,0.4l0.2,0.1L226,61c0.1,0.1,0.1,0.3,0,0.6l-0.2,0.4l0.6,0.3c0.1-0.1,0.2-0.1,0.3-0.2l0.3-0.3L227.5,61.7z
		 M226.4,62.5c0.1,0.1,0.3,0.1,0.4,0.2C226.6,62.6,226.5,62.6,226.4,62.5z M226.8,69.7c0,0,0,0.1,0,0.3c-0.1,0-0.1,0-0.2,0l0-0.2
		L226.8,69.7z M227.8,64l-0.6-0.4l0,0.2l0.4,0.5L227.8,64z M227.7,62.2c0,0.1,0,0.2,0,0.3c0,0-0.1,0-0.3,0c0-0.1,0-0.2,0-0.2
		C227.4,62.3,227.5,62.2,227.7,62.2z M228.1,63.3l-0.4-0.4l-0.2,0l0.3,0.4L228.1,63.3z M231.3,64.7l-0.1,0.1l-0.2-0.1l0.1-0.1
		L231.3,64.7z"/>
</g>
<g class="st0">
	<path class="st1" d="M254.8,81.6l-0.4,0.6l0,0.4c-0.1,0.2-0.1,0.3-0.2,0.3l-0.2,0.2c0,0.1,0,0.2,0,0.3c0,0.1,0,0.2,0,0.2l-0.2-0.1
		c0,0-0.1-0.1-0.3-0.1l0.2,0.3l0,0.4l-0.9,0.6c0,0.1,0,0.1-0.1,0.2c0,0-0.1,0.1-0.1,0.1c-0.2-0.1-0.3-0.3-0.4-0.4
		c-0.1,0.1-0.2,0.1-0.3,0.2l-0.1,0.2l-0.4-0.2l-0.3-0.1l-0.4,0.8l-0.4,0.2l-0.2,0.2c0,0-0.1-0.1-0.3-0.1l-0.3,0.4l-0.2,0l0,0.3
		l-0.4,0l-0.6,0.6l-0.9,1.1c-0.3,0-0.5,0.1-0.6,0.2c-0.1,0.1-0.2,0.4-0.3,0.8c-0.1,0-0.3,0-0.4-0.1l-0.2,0.1l-0.7,0
		c-0.2,0.1-0.3,0.2-0.3,0.3l-0.3,0.3c-0.1-0.1-0.2-0.2-0.3-0.2c-0.1,0-0.2-0.1-0.2-0.1l-0.4,0.4l-0.7-0.1l-0.3,0.4
		c-0.2,0-0.5-0.2-0.7-0.6l-0.2-0.6c-0.2,0-0.3,0.1-0.3,0.4c0,0.2,0,0.3-0.1,0.4c0,0-0.1,0.1-0.1,0.1l-0.6-0.2l-0.3,0.3l-0.3,0
		l-0.5-0.7l-0.5,0.2l-0.7,0.4l-0.2,0.2l-0.5-0.1l-0.5-0.3l-0.7,0.1l-0.8-0.2c-0.5,0-0.8-0.1-1-0.3l-0.1-0.5l0.1-0.5l0-0.3l0.3,0.3
		c0.1,0.1,0.2,0.1,0.4,0.2l0-0.7l-0.2-0.3l-0.1-0.3l0.4-0.4l0-0.7l0.6-0.1l0.1-0.2c0.4,0.1,0.6,0.1,0.6-0.1
		c-0.1-0.2-0.2-0.4-0.2-0.5l-0.5-0.3l-0.4-0.1l-0.1-0.2l0.5-0.1l0.1-0.2l0.1-0.4l0.5,0.2l0.5-0.3c0-0.1,0-0.2-0.1-0.3l-0.1-0.3
		l0.3,0c0.1-0.1,0.1-0.3,0.1-0.6l0-0.7l0.2-0.5l0.5-0.7c0.2,0.1,0.4,0.1,0.5-0.1l1-0.4c0.5-0.2,0.9-0.3,1.2-0.2c0.4,0,0.8,0.2,1,0.6
		c0,0.2-0.1,0.4-0.1,0.5l-0.3,0.5l0.3,0.4l-0.5,0.4c-0.2,0.2-0.4,0.3-0.4,0.5c0.1,0.2,0.2,0.3,0.2,0.4c0.3,0,0.6,0,0.7,0l0.6-0.1
		l0.9,0.4c0.1-0.1,0.2-0.1,0.4-0.1l1.1,0.1l1.2,0.1l1.3-0.1l1-0.2l0.4-0.5c0.1,0,0.1,0,0.2,0c0.1,0,0.1-0.1,0.1-0.1l0-0.4l-0.9-1.1
		l-0.5-0.8l-0.5-0.4l-0.3-0.6l-0.2-0.7l0.2-0.5l-0.4-0.4c-0.2,0-0.3-0.1-0.3-0.4c0-0.2,0-0.4,0-0.5c-0.1-0.1-0.2-0.2-0.5-0.2l-0.7,0
		l-0.1-0.3l-0.1-0.2c-0.2,0-0.4,0-0.5,0.1c-0.2,0-0.3-0.1-0.3-0.1l-1.3-1.6l-0.7-0.5l-0.2-0.5l-0.3-0.1l-0.7-0.4l-0.4-0.4l-0.2-0.6
		c0-0.2,0-0.3,0-0.4c0,0-0.1,0-0.1-0.1l-0.5,0l-0.7-0.6l-0.8-0.7l-0.9-0.4l-0.8-1.1l-1.1-0.8l-0.6-0.7l-1.3-0.8l-0.3-0.5
		c-0.6-0.2-1-0.4-1.2-0.5c-0.4-0.2-0.6-0.6-0.7-0.9c-0.1-0.4-0.2-0.6-0.4-0.8l-1.2-1.1l-0.9-1.1l-0.4-0.9l0-0.4l-0.4-0.1
		c0-0.1,0.1-0.1,0.1-0.2c0-0.1,0-0.2,0-0.2l-0.2-0.6l-0.1-0.5l-0.3,0.1c-0.2-0.1-0.2-0.2-0.1-0.4l0.4,0.1l0.3-0.1l0.3,0.2l0.2-0.1
		l0.3-0.3l0.4,0l0.2,0.3l0.7-0.1l0.7-0.1l0.8,0.2l0.7-0.1l0.6,0.2l0.5-0.3c0.2-0.1,0.4-0.2,0.8-0.2l0.8,0.1c0,0.1-0.1,0.1-0.1,0.2
		c0,0.1,0,0.2,0,0.2l0.2,0.1l0.6-0.1l0-0.7c0-0.2,0.1-0.3,0.3-0.3l0.1,0.3l-0.3,0.7l0.2,0c0.2-0.1,0.4-0.1,0.7,0.1l0.6,0.2
		c0.2,0,0.2-0.1,0.2-0.2l-0.2-0.4l0.4-0.3l0.1-0.3l0.5-0.1l0.4-0.1l0.1,0.1l-0.4,0.2c0,0.1,0,0.2,0,0.3c0.1-0.1,0.2-0.1,0.4-0.2
		l0.1,0.3l0.5-0.4l0.5,0l0-0.2l0.1-0.4l0-0.7c0.3,0,0.5,0,0.6-0.1l0-0.2l0.2,0c0.1,0.1,0,0.3-0.2,0.5c-0.2,0.1-0.3,0.2-0.3,0.4
		l0.6,0.1l0-0.2l0.2-0.1l0.2,0.6c0.1,0.1,0.2,0.1,0.3,0c0-0.2-0.1-0.3-0.1-0.4l-0.2-0.3c0.1-0.2,0.3-0.3,0.5-0.3
		c0.2,0,0.4,0.1,0.5,0.3l0.2,0l-0.1,0.1l-0.3,0c0,0.3-0.1,0.5-0.2,0.6l-0.4,0.3c0,0-0.1,0.1-0.1,0.3c0.2,0,0.3-0.1,0.4-0.1l0.3,0
		l0.2-0.3c0.2,0,0.4,0,0.5-0.1l0.3-0.1l0.1-0.2c0.2,0.1,0.2,0.3,0.2,0.4l0,0.4l0.2,0.2l-0.2,0l-0.1,0.3c0.1,0.1,0.2,0.2,0.2,0.2
		l0.3,0.1l-0.2,0.5l0.2,0l0.1,0.3c0.2-0.1,0.3-0.2,0.4-0.3c0.1-0.1,0.2-0.2,0.4-0.2l0.4,0.4l0.4,0l0,0.3l0.3-0.2l0.3,0.1l0.1-0.1
		l0.1-0.3l0.2,0.2c0,0,0.1,0.1,0.3,0.1l0.3-0.4c0.1-0.2,0.1-0.4-0.1-0.5l-0.2-0.2c0,0,0.1-0.1,0.1-0.1l0-0.1l-0.4-0.1l-0.2,0.1
		c0-0.2,0.1-0.4,0.2-0.7c0.1-0.2,0.2-0.3,0.4-0.4l0.3,0.2l0.5-0.1l0,0.6c0,0.3,0.2,0.4,0.5,0.4c0.1-0.1,0.2-0.2,0.2-0.2l0.1-0.3
		l0.4-0.1l0-0.3L249,58c0.4,0,0.8,0.1,1,0.2l0.4,0.4l0.5,0l0.3,0.3l0.2,0.2l0.2-0.1c0,0,0.1-0.1,0.3-0.1c0.3,0,0.5,0.2,0.7,0.5
		l0.7,0.8l0.8,0.6c0.3,0.2,0.5,0.5,0.5,0.9l-0.1,1.7c-0.1,0.2-0.3,0.2-0.4,0.2l-0.4,0l-0.2,0.2l-0.5-0.4l-0.5,0.5l-0.1-0.3l-0.3-0.5
		l-0.3,0.2l-0.5-0.5c-0.3,0.1-0.6,0.2-0.7,0.2l-0.6,0.3l-0.2,0.6l-0.1,0.6l0.1,0.2l-0.2,0.4l0.1,0.2l-0.4,0.4l0.3,0.1l0.2,0.2
		l0.2-0.1l0.1,0.3l-0.5,0.2l-0.4,0.1c0-0.2,0-0.3-0.1-0.4c0-0.1-0.1-0.1-0.1-0.1l-0.5,0.2c-0.1-0.1-0.1-0.1-0.2-0.1
		c-0.1,0-0.1,0-0.1-0.1l-0.2,0.5l0,0.6l-0.1,0.4l-0.7-0.1c-0.2-0.1-0.3-0.3-0.3-0.5l0.3-0.5l0.3-0.6c-0.1-0.2-0.2-0.4-0.4-0.5
		l-0.4-0.4l0-0.4l-0.6-0.3c-0.2,0-0.4,0-0.5,0.1l-0.9-0.5l-0.8-0.5l-0.4,0l-0.9-0.4l-0.2-0.2l-0.4,0.3l-0.3-0.3l-0.5-0.3l-0.8,0
		l-0.4-0.3l-0.4,0l-0.3-0.1l-0.8-0.3c-0.2-0.1-0.3-0.1-0.5-0.2c-0.2,0-0.3-0.1-0.5-0.1c-0.1,0.1-0.1,0.3,0.1,0.6
		c0.3,0.3,0.5,0.4,0.7,0.5l1.6,1l1,0.7l0.3,0.4l1,0.6l0.5,0.4l0.7,0.8l1.6,1.1c0.3,0.4,0.5,0.7,0.7,0.8l2.1,1.6l0.7,0.8l1.3,1.3
		l1,0.7l0.4,0.6l0.3,0.6c0.2,0.1,0.3,0.2,0.5,0.4c0.2,0.2,0.3,0.3,0.4,0.5c0.3,0.3,0.5,0.7,0.6,1c-0.1,0.2-0.2,0.3-0.3,0.4
		c-0.1,0.1-0.2,0.2-0.1,0.4l0.7-0.2c0.1,0.1,0.2,0.3,0.2,0.4l0.1,0.3l0.2,0l0.1,0.8l-0.1,1.2c0,0.2,0.1,0.3,0.1,0.3l0.2,0.3
		l-0.1,1.3L254.8,81.6z M233.5,64.1l-0.2,0.2l-0.1-0.3L233.5,64.1z M236.9,67.4c-0.1-0.2-0.2-0.4-0.2-0.5l-0.2-0.3l0.1-0.2l0.3-0.1
		l-0.3-0.3l0-0.6l0-0.4l-0.5-0.4l0.2-0.2l0-0.3c-0.2,0.1-0.3,0.2-0.3,0.2l-0.2,0l-0.3-0.1l-0.2-0.3c-0.1-0.1-0.2-0.2-0.4-0.3
		l-0.4,0.2l-0.1-0.3l-0.1-0.3l-0.2,0.2c0,0.4,0,0.6,0.1,0.8l0.6-0.1c0.1,0,0.2,0,0.2,0.1c0,0,0.1,0.1,0.1,0.1l-0.1,0.9l0.7,0.1
		l-0.1,0.3c-0.1,0.1-0.1,0.2,0.1,0.3l0.4-0.1c0.1,0,0.1,0,0.2,0c0.1,0,0.1,0,0.1,0c0.1,0.1,0.1,0.2,0.1,0.5c0,0.3-0.1,0.5-0.1,0.6
		c0,0.1,0.1,0.1,0.1,0.2c0,0.1,0.1,0.2,0.2,0.3L236.9,67.4z M235.9,63.2c0,0.1-0.1,0.1-0.1,0.2C235.9,63.3,235.9,63.2,235.9,63.2z
		 M238.5,67.5l-0.3-0.7l0.3-0.2l-0.2-0.1l0-0.3c-0.1-0.1-0.2-0.2-0.2-0.3l-0.4,0.5l-0.2,0l-0.4-0.3l0.1,0.4l0.6,0.2l0,0.4
		L238.5,67.5z M238.7,83.4l-0.4,0l-0.2,0l0.4,0l0,0.5l0.3-0.2C238.8,83.5,238.8,83.4,238.7,83.4z M241.3,58.7l-0.3,0.1l-0.2-0.1
		l0-0.2l0.2-0.1c-0.1-0.1-0.1-0.2-0.2-0.3l-0.3-0.1l0-0.2c-0.1,0.1-0.2,0.3-0.3,0.4c0,0.1,0,0.2-0.1,0.2c0,0-0.1,0.1-0.1,0.1
		l-0.3-0.3c0,0-0.1,0.1-0.3,0.1l-0.2-0.1l0,0.4l-0.3,0.6c0,0.2,0,0.3,0.2,0.4l0.7-0.3l0.5,0l0.3-0.3l0.5,0.3l0.3,0L241.3,58.7z
		 M239.8,68.1l-0.3-0.1c-0.2,0-0.3,0.1-0.3,0.1l0,0.2l0.3,0.1l-0.2,0.2c0.2,0,0.3-0.1,0.4-0.1c0.1-0.1,0.1-0.1,0.1-0.2
		S239.7,68.2,239.8,68.1z M240.2,59.9l0,0.2l-0.3,0.2l0-0.4C240.1,59.9,240.1,59.9,240.2,59.9z M243.5,71.3
		c-0.1-0.1-0.2-0.1-0.4-0.1c-0.2,0-0.3,0.1-0.3,0.2c0.1,0.2,0.2,0.4,0.2,0.5l0.4,0.3c0.2-0.2,0.3-0.3,0.3-0.4L243.5,71.3z M245,72.5
		c0.1-0.1,0.1-0.2-0.1-0.4l-0.5-0.4l-0.1-0.2l-0.3,0.1l-0.1,0.6l-0.3,0l0.1,0.6l0.7-0.4L245,72.5z M244.2,58.5l-0.1-0.2l0.2-0.2
		c0.1,0.1,0.1,0.2,0.1,0.3L244.2,58.5z M244.4,89.3l0.2-0.1c0-0.2-0.1-0.3-0.2-0.4l-0.2,0.1c0,0-0.1,0.1-0.1,0.1l0,0.1L244.4,89.3z
		 M244.7,76.3l-0.1,0.1l-0.1,0.1L244.7,76.3z M245.4,58.7l0,0.4l-0.1,0.4l-0.7-0.7c-0.1-0.1-0.1-0.3,0-0.6l0.2-0.1
		c0,0.3,0.1,0.5,0.2,0.6L245.4,58.7z M244.6,71.8l0.2,0l0.1,0.2L244.6,71.8z M245.7,76.7l-0.5-0.3l-0.2,0.2c0.2,0,0.4,0.1,0.4,0.1
		l0.1,0.3c0.1,0,0.2,0,0.2,0C245.7,76.9,245.7,76.8,245.7,76.7z M245.9,89.1l0.1,0.3l-0.2,0c-0.1-0.1-0.1-0.2-0.1-0.3L245.9,89.1z
		 M248.1,60.9l-0.1,0.3l-0.3,0.2c0-0.2,0-0.3,0.1-0.3C247.8,61,247.9,60.9,248.1,60.9z M249.1,86.4l-0.1-0.1L249,86l0.2,0.3
		C249.2,86.4,249.1,86.4,249.1,86.4z M250.8,64.4l-0.2-0.7l0-0.3l0.3,0.6L250.8,64.4z M250.9,66.4l-0.2,0l0.1-0.2L250.9,66.4z
		 M252,63.4l-0.3,0.2l-0.1,0.4c-0.1,0.1-0.2,0.2-0.3,0.2c-0.2-0.1-0.1-0.2,0.1-0.5C251.7,63.4,251.8,63.3,252,63.4z M255.2,80.5
		c0,0.1,0,0.2-0.1,0.2l-0.2,0l0-0.2C255.1,80.5,255.1,80.5,255.2,80.5z"/>
</g>
<g>
	<path class="st2" d="M132.5,50.5c0.7,0,1.2-0.4,1.8-0.4s2-1.1,2.7-0.8s2.8-0.5,4.3-0.9s0.9-1,1.1-0.7c2,1.4,3.6,0.1,5.4-0.7
		s4.5-1.5,6.8-2s3.1,0.1,4.4-0.3s2.3-1.4,3.4-1.8c4.3-1.2,8.7-2.1,12.8-3.1l4.9-1c4.2-0.9,8.3-2.1,12.3-3c1.5-0.4,3.6,0.7,4.5-0.9
		s2.3-0.5,3.3-1.2s3.9,0,5.7-0.7c0.5-0.2,1-0.2,1.5-0.1c2.5-0.2,5.1,0,7.4-0.2c2.2-0.3,4.4-0.8,6.5-1.4c1.5-0.1,3.1,0.1,4.6,0
		c3.2-0.5,6.4-1.4,9.6-1.6c2.4-0.1,4.9-0.1,7.3,0.1c10-0.1,20-0.2,30.1,1c6.7,0.8,13.4,0.6,20,2.9c5.3,1.6,9.9,4.9,13.1,9.4
		c0.8,1,1.1,2.3,0.8,3.6c-0.9,4.6-3.1,8.9-6.3,12.4c-4.2,4.9-8.7,8.6-13.2,12.9c-1.4,1.5-3,2.9-4.8,4l-10.2,7.2
		c-4.8,3.5-9.7,6.7-14.8,9.7c-5.2,3.1-10.7,5.4-16.1,7.9c-2.4,1.2-4.9,2.3-7.4,3.3l-16.9,5.8c-4.8,1.6-9.8,3.1-14.6,4.4
		s-9.7,1.9-14.6,2.9s-12,2.4-18.1,3.1c-10.3,1.3-20.5,2.4-30.8,3.4c-0.7-0.1-1.3,0.2-1.8,0.7c-0.6,0.6-0.9,1.4-0.9,2.2
		c0.1,2.1,0.5,4.3,0.8,6.4s1.6,4.2,3.3,4.1c3.9-0.3,8-0.2,11.8-0.5c8.4-1.2,16.8-2.7,25.2-4.2c6.8-0.7,13.5-1.9,20.1-3.6
		c6.7-1.7,13.1-4,19.6-6c4.2-1.2,8.3-2.4,12.3-3.9c8.6-3.4,17.2-6.7,25.7-11c11.7-6.2,22.9-13.5,33.3-21.7
		c6.3-5.1,12.5-10.1,18.3-16.7c3.2-3.6,5.7-7.9,7.2-12.5c1.6-4.7,1.9-9.7,1-14.6c-1.6-8.2-4.8-12.9-8.9-16.3
		c-8.1-6.5-16.7-8.4-25.1-10c-5.2-1.2-10.4-0.8-15.5-1.1s-10-0.5-15.1-0.5c-2.4-0.1-4.9,0.6-7.2,0.8c-6.6,0.8-13.1,1.2-19.9,2
		s-12.3,1.8-18.3,2.8s-11.9,2.1-17.7,3.4l-17.7,4c-5.2,1.3-10.4,2.3-15.4,3.5c-1.5,0.4-3,1.4-4.5,1.9c-4.5,1.2-9.2,1.9-13.7,3.4
		c-7.7,2.1-15.3,4.8-23,5.6c-1.3,0.1-2.5,0.5-3.6,1.2c-4.5,1.9-8.9,4.3-13.4,5.2c-9.9,2.2-19.4,6.6-29,10c-3.5,1.2-6.8,2.9-10.2,4.4
		c-0.4,0.1-0.8,0.4-1,0.7c-1.6,1-3.2,2.4-4.9,3.4S45,70.6,42,72s-3.8,1.8-5,4.3s-1.8,3.5-1.8,5.4c-0.3,5.9,0.3,12,3.6,15.8
		c0.4,0.5,0.7,1,1,1.5c1.9,2.3,3.9,4.4,6.2,3.9c1.4-0.4,2.8-0.3,4.1,0.3c1.9,0.6,3.7,1.5,5.4,2.7c0.9,0.6,1.5,1.7,2.5,1.7
		c0.9-0.2,1.8-0.3,2.7-0.2c2.6,0.4,5.4-0.4,7.9,1.9c0.9,0.9,2.1,0.5,3.1,0.7s2.4,0.1,3.6,0.4c3.9,0.3,7.7,0.7,11.6,0.7
		s10.5-0.1,15.7-0.5c8.6-0.6,17.1-0.9,25.7-1.8s18.3-2.5,27.2-6.2c1.5-0.7,3.2-0.8,4.6-1.6s2-1.1,1.6-3.5s-2.9-5.6-4.1-5.3
		c-4,0.9-8,1.5-12,2.4c-2.2,0.5-4.5,0.6-6.8,0.5c-3.6-0.1-7.2-0.4-10.7-0.5v0.9l5.9-0.4V96l-8.6,0.6c-10.8,0.8-21.6,1.8-32.4,2.6
		c-3,0.2-6.1,0.1-9.3-1.8c-0.4-0.2-0.8-0.3-1.2-0.2c-5-0.6-9.9-1.5-15-1.7c-3.6-0.4-7.2-3.2-10.7-0.2c-0.8,0.7-2.1-0.5-3-1
		c-2.4-1.1-4.7-2.4-7.2-3.5c-0.5-0.1-1-0.4-1.4-0.8c-0.7-0.6-1.2-1.5-1.4-2.4c0.1-0.9,0.4-1.7,0.8-2.5c0.9-1,1.9-2,3-3
		s4.6-4,6.9-5.7s2.5-1.1,3.8-1.8c5.9-2.9,11.8-5.8,17.8-8c3.3-1.5,6.6-2,10.1-2.9s9.7-3.8,14.8-4.7h0.3c3.5-0.9,7.2-1.4,10.7-2.3
		l4.8-1.3c1.3-0.4,2.6-1.4,3.9-1.8s4.1-0.3,6.1-0.7C128.8,52.5,131.1,53.1,132.5,50.5z"/>
	<path class="st3" d="M132.5,50.5c-1.3,2.6-3.6,1.8-5.3,2.2s-4.1,0.3-6.1,0.7s-2.6,1.4-3.9,1.8l-4.8,1.3c-3.5,0.9-7.2,1.4-10.7,2.3
		h-0.3c-5,1-9.8,3.5-14.8,4.7c-3.3,0.8-6.9,1.4-10.1,2.9c-5.9,2.6-11.8,5.4-17.8,8c-1.3,0.7-2.5,0.8-3.8,1.8
		C52.5,78,50.2,79.9,48,82c-1.1,0.9-2.1,1.9-3,3c-0.6,0.7-0.9,1.6-0.8,2.5c0.2,0.9,0.7,1.8,1.4,2.4c0.4,0.4,0.9,0.7,1.4,0.8
		c2.4,1.1,4.7,2.4,7.2,3.5s2.3,1.7,3,1c3.5-3,7.1,0.1,10.7,0.2s9.9,1.2,15,1.7c0.4-0.1,0.8,0,1.2,0.2c3,1.9,6.2,2,9.3,1.8
		c10.8-0.8,21.6-1.8,32.4-2.6l8.6-0.6v-0.5l-5.9,0.4v-0.9c3.6,0.1,7.2,0.4,10.7,0.5c2.3,0,4.5-0.2,6.8-0.5c4-0.6,8-1.5,12-2.4
		c1.2-0.1,3.9,3.1,4.1,5.3s-0.8,3.1-1.6,3.5s-3.2,0.8-4.6,1.6c-8.8,3.3-17.9,5.3-27.2,6.2c-8.6,0.9-17.1,1.2-25.7,1.8
		c-5.2,0.4-10.5,0.4-15.7,0.5s-7.7-0.4-11.6-0.7c-1.2-0.2-2.4-0.1-3.6-0.4s-2.2,0.2-3.1-0.7c-2.7-2.3-5.4-1.5-7.9-1.9
		c-0.9-0.2-1.8-0.2-2.7,0.2c-1,0.4-1.6-0.8-2.5-1.7c-1.7-1.1-3.5-2-5.4-2.7c-1.3-0.4-2.7-0.5-4.1-0.3c-2.3,0.5-4.3-1.5-6.2-3.9
		c-0.4-0.5-0.7-1-1-1.5c-3.3-4.1-3.9-9.9-3.6-15.8c0-1.9,1.1-3.8,1.8-5.4s3.2-3.3,5-4.3l8.5-5.3c1.6-1,3.2-2.4,4.9-3.4
		s0.7-0.4,1-0.7c3.5-1.5,6.7-3.2,10.2-4.4c9.6-3.4,19.1-7.8,29-10c4.5-0.9,8.9-3.4,13.4-5.2c1.1-0.5,2.4-0.9,3.6-1.2
		c7.7-0.8,15.4-3.5,23-5.6c4.5-1.2,9.2-2.2,13.7-3.4c1.5-0.4,3-1.4,4.5-1.9c5.2-1.3,10.2-2.6,15.4-3.5s11.8-3,17.7-4
		s11.9-2.4,17.7-3.4s12.2-2.1,18.3-2.8s13.1-1.2,19.9-2c2.4-0.2,4.9-1,7.2-0.8c5.1,0,10,0.2,15.1,0.5s10.4,0.2,15.5,1.1
		c8.4,1.6,17,3.4,25.1,10c4.1,3.4,7.3,8.1,8.9,16.3c1,4.7,0.7,9.6-0.9,14.2c-1.5,4.6-3.9,8.8-7.1,12.4c-5.8,6.9-12.1,11.6-18.3,16.7
		c-10.4,8.3-21.5,15.6-33.3,21.7c-8.3,4.6-17.1,7.7-25.7,11c-4.1,1.5-8.3,2.7-12.3,3.9c-6.6,2.3-13.2,4.6-19.7,6.3
		s-13.2,2.8-19.7,3.8c-8.4,1.5-16.8,3-25.2,4.2c-3.9,0.5-7.9,0.6-11.8,0.5c-1.7,0.1-2.8-1.3-3.3-4.1c-0.4-2.1-0.7-4.2-0.8-6.4
		c-0.1-0.8,0.3-1.6,0.9-2.2c0.5-0.6,1.2-0.4,1.8-0.7c10.3-1,20.6-2,30.8-3.4c5.7-0.7,11.7-2,17.7-3.4s9.7-1.6,14.6-2.9
		s9.8-2.8,14.6-4.4s11.3-3.6,16.9-5.8c2.5-1,5-2.1,7.4-3.3c5.4-2.5,10.7-5.1,16.1-7.9c5.1-3,10-6.2,14.8-9.7
		c3.4-2.4,6.8-4.5,10.2-7.2l4.8-4c4.4-4.3,8.9-8.3,13.2-12.9c3.2-3.5,5.4-7.8,6.3-12.4c0.4-1.9,0.1-2.8-0.8-3.6
		c-3.9-5.3-8.3-7.4-12.9-9.3c-6.8-2.3-13.4-2.5-20-2.9C263,30,253,30.1,243,29.9c-2.4-0.2-4.9-0.2-7.3-0.1c-3.2,0.2-6.4,1.4-9.6,1.6
		c-1.5,0.1-3.1-0.1-4.6,0c-2.2,0.3-4.4,0.8-6.5,1.4c-2.5,0.2-4.9,0.3-7.4,0.2c-0.5-0.1-1-0.1-1.5,0.1c-1.8,1-3.8-0.4-5.7,0.7
		s-2.1-0.8-3.3,1.2s-3,0.5-4.5,0.9c-4.2,0.9-8.3,2.1-12.3,3l-4.9,1c-4.3,0.9-8.7,1.8-12.8,3.1c-1.2,0.4-2.3,1.4-3.4,1.8
		s-3.1-0.1-4.4,0.3s-4.5,1.5-6.8,2s-3.4,2.1-5.4,0.7c-0.4-0.3-0.8,0.7-1.1,0.7s-2.6,2-4.3,0.9s-1.8,0.4-2.7,0.8
		S133.2,50.5,132.5,50.5z"/>
</g>
</svg>
