<?xml version="1.0" encoding="utf-8"?>
<!-- Generator: Adobe Illustrator 19.2.1, SVG Export Plug-In . SVG Version: 6.00 Build 0)  -->
<svg version="1.1" id="Layer_1" xmlns="http://www.w3.org/2000/svg" xmlns:xlink="http://www.w3.org/1999/xlink" x="0px" y="0px"
	 viewBox="0 0 100 100" style="enable-background:new 0 0 100 100;" xml:space="preserve">
<style type="text/css">
	.st0{enable-background:new    ;}
</style>
<g>
	<path d="M38.8,18.5c0.4-0.2,3.2-1.6,3.7-1.9c1-0.5,4.3-1.5,5.3-2.1c0,0,2.1-1.2,2.1-1.3c1.3-0.9,1.2-0.7,2.6-1.4
		c1-0.5,3.2-1.6,4.5-1.8c2.4-0.4,3.7-1.3,6-1.8c0.6,0,2.3-0.2,3-0.1c1.4,0.1,1.8,0.1,3.3,0.4C70,8.7,71.1,8.8,72,9.2
		c0.5,0.2,3.6,1.4,4.1,1.8c0.5,0.4,2.1,2.4,2.4,2.8s-0.1,1.6,0,1.9c0.3,1.1,1.7,0.2,2,1.4c0.2,0.5,1.2,3.6,0.8,5.2
		c-0.1,0.1,1.3,4.2,1.4,4.4c0.7,1.6,0.8,5.6,0.3,6.3c-2,2.5-8.5,11.8-8.9,12.3c-0.5,0.5-0.8,2.6-3.4,2.4c-1.9-0.1-5.5-0.1-4,1.1l0,0
		c1.4,1.2,2,1.2,2.3,1.1c0.6-0.1,0.9-0.5,1.6-0.5c3.3-0.8,5.6-2.3,7.5-4.3c1.7-1.8,3.1-3.9,4.6-5.9c0.9-1.2,1.7-2.5,2.5-3.9
		c0.5-1,0.8-2.2,1.2-3.3c0-0.4,0.2-0.7,0.3-1.1c0-0.4,0.4-0.5,0-1.1c-1-1.7-0.1-2.1,0-2.9c0-0.3,0.2-0.6,0.5-0.6
		c0.4-0.1-0.3-0.8-0.7-1.4c-0.4-1-0.8-1.9-0.9-2.6c-0.1-0.6,0.1-0.9,0.4-1.2c0.6-0.4-0.3-1.8-1.4-3.3c-0.1-0.2-0.4-0.5-0.7-0.9
		c-2-2.7-5.4-5.4-8.9-7.9c-1.1-0.8-2.4-1.4-3.5-1.9c-1.7-0.8-2.4-0.6-3.3-0.6c-1.4,0-2.9,0-4.3,0c-0.8,0-1.9-0.2-2.7-0.3
		C61,6,60.9,6.1,60.7,6c-1.4,0.2-2.9,0.3-4,0.7c-3.4,1-7.3,1.5-10,3.1c-1.2,0.8-3.3,0.8-5,1.2c-0.4,0.1-1,0.2-1.2,0.4
		c-1.6,1.6-4.2,2.4-6.5,3.5c-1.4,0.6-2.6,1.4-3.9,2c-0.5,0.2-1.3,0.1-1.7,0.3c-1.5,0.8-2.9,1.5-4.2,2.4c-1.6,0.9-3.4,1.8-4.9,2.8
		c-1.6,0.9-3.1,2-4.5,3.1c-1.5,1.1-2.9,2.3-4.2,3.5c-1.4,1.4-2.6,2.9-4,4.3C6,34.1,5.2,34.4,4.9,35c-0.7,1.3-1.3,2.7-1.8,4.2
		c-0.6,1.5-1.3,2.8-1.5,4.5c-0.2,2.9-0.3,6,2.4,11c1.5,2.6,3.8,5.5,8.5,9.6c2.9,2.6,5.8,4.5,8.6,6.1c3.4,1.9,6.1,3,8.4,3.7
		c4.9,1.5,8.6,2,12.5,2.6c6.7,1.1,12.4,1.2,17.6,1c3.9-0.1,6.9-1.1,10.2-1.8c1.5-0.4,2.8-0.9,4.1-1.5c2.3-0.7,4.6-1.4,6.5-2.3
		s3.5-2.2,5-3.4c2.1-1.5,4.1-3,6-4.7c0.9-0.7,1.4-1.8,2-2.9c0.3-0.4-1.8-0.5-2.1-0.5c-2,2.2-5.9,2.7-8.1,4.8
		c-1.2,1.2-6.5,4.2-8.1,5.2c-1.2,0.8-6.4,1.7-7.8,2.4c-1.5,0.7-5.4,1.1-7,1.7c-1.9,0.6-5.7-0.8-7.8-0.3c-0.8,0.3-5.6-0.3-6.6-0.1
		c-2.3,0.3-4.3-0.9-6.7-0.8s0.5,0.9-2.2,0.7c-1.9-0.2-1.7-0.5-3.8-0.8c-1-0.2-5-1.6-6.1-1.8c-3.2-0.8-4.4-3-7.7-4
		c-2.1-0.6-2-2.2-5.6-4.4c-1.2-0.7-1.7-2-2.1-2.6c-2.6-3.4-5.7-7.8-6.2-9.8c-0.5-3,1-6.8,1.7-8.8c0.9-3,4.3-4.6,5.6-7.3
		c0.2-0.7,3.6-3.6,4-4.1c0.6-0.7,4.6-3.5,5.1-4.2c0.3-0.3,5.3-2.4,5.5-2.8C27.8,23.2,38.2,18.8,38.8,18.5z"/>
</g>
<g class="st0">
	<path d="M23.3,44.5l0-0.5l0.1-1l0.1-0.1l-0.1-0.1l0-0.4l0-0.6l0.1-1.6l0-0.2l0-0.2l0.1-0.8l0-0.8l-0.4-0.5l-1.6-3.9l0-0.1l-1.9-4.7
		l-0.2-0.2l0-0.3l0.7-0.8l-0.1-0.7l0.3-0.2l1,0.4l0.1,0l1.5,0.4l0.4,0.3l0.4,1.3l0,0.1l0.2,0.2l0.1,0.4l0.1,0.1l0.6,1.5l0.1-0.2
		l0.9-2.2l0.9-1.6l0.4-0.9l0.3-0.5l0.1-0.1l0.3-0.3l0.6,0l0.5,0.2l0.2,0l0.1,0.1l0,0.2l-0.1,0.1l0,0.2l0.1,0.1l0.1-0.1l0.1,0l0,0.1
		l-0.1,0.1l0,0.3l0.1-0.2l0,0.1l0.1-0.1L29.7,27l0.1,0.1l0.1,0l-0.1,0.3l0.2,0l0.1,0.1l0.4,0l0,0.1L30,27.8l0,0.3l0,0.3l0.1-0.1
		l0-0.2l0.2,0L30,28.4L29.8,29l-0.5,0.6L29.1,30l-0.3,0.4l-0.6,1.4l-0.3,1.2l-0.5,2.5l0,0.4l0.1,0.3l0.1,0.1l-0.2,1.2l-0.2,0.4
		L26.8,41l0,0.4l-0.1,0.1l0.1,0.3l-0.1,0.4l0,0.6l-0.6,0.9l-0.1,0l-0.1,0.3l-0.2,0.2l-0.2,0L25,44.5l0.1,0.1l-0.1,0L25,44.5
		l-0.1,0.1l-0.1,0l-0.1,0.2l-0.1-0.1l0,0.2l-0.1,0L24.2,45l-0.1,0L24,45.2l-0.2,0l-0.2-0.1L23.3,44.5z M30,26.5l0,0.2l-0.1,0l0-0.2
		L30,26.5z M30.6,27.4L30.6,27.4L30.6,27.4L30.6,27.4z"/>
	<path d="M31.2,39.9l-0.3-0.7l-0.1-1.7l1-7.6l1-4.3l0.2-0.6l0.5,0l0.3,0.2l0.7-0.1l1.2-0.5l0.7-0.1l0.9-0.1l0.6,0l0.9,0.2l0.7,0.2
		l0.2,0.1l0.3,0.3l-0.1,0.2l-0.2,0l0-0.1l-0.1,0l-0.1,0.1l-0.4,0l-0.4,0.3L38.2,26l-2.1,0.7l-0.7,2.6l0.1,0l1.5-0.4l0.1-0.1l0.6-0.1
		l0.3,0l0.3-0.1l0.2,0.2l0,0.2l-0.2,0.3l-0.1,0.3L38,29.6l-0.2,0.2l-0.3,0.3l-0.2,0.4l-0.1,0l-0.1,0.3L36.9,31l-0.2,0.2l-1.2,0.4
		L35,31.7l-0.1,0.1l-0.5,3.5l1.2-1.1l0.7-0.5l0.6-0.3l0.3-0.1l0.9-0.3l0.1,0.1L38,33.3l0,0.2l0.1,0.2l0,0.2L38,34.1l0,0.2l-0.1,0.1
		l0,0.4l0.1,0.1L38,34.9l0,0.2l-0.1,0.2l-0.2,0.1l0,0.2l-0.2,0l-0.1,0.2l0,0.2l-0.1,0l0,0.1l-0.6,0.6l-0.1,0.1l-0.3,0.3l-0.2,0.2
		l-1.3,2.2l0,0.1l0.2,0l0.5-0.5l1.5-2.2l0.8-0.8l-1.1,1.2l-1.6,2.4l-0.3,0.2l-0.3,0l-0.2,0l-0.1,0.1L34,40.1L34,40.2l-0.6,0.1
		L32,40.4l-0.4-0.1L31.2,39.9z M33.7,33.2l0.1-0.1l-0.1-0.1L33.7,33.2L33.7,33.2z M34.3,35.4l0.3-2.7l0.1-0.1l0.1-0.6l-0.1-0.2
		L34.5,32l0,0.1l-0.2,0.7L34.2,33l0,0.4l-0.1,0.2l0.1,0.1l-0.1,0.5l-0.1,0.1l0,0.2l-0.1,0.1l0.1,0l0,0.2l-0.1,0.1l0.1,0.1l0,0.3
		L33.9,35l-0.2,0.2l0.1,0.2l0.1-0.2l0,0.7L34.3,35.4z"/>
	<path d="M46.5,37.1l0,0.2l-0.3,0.3l0.2,0.1l0-0.1l0.1-0.2l0,0.1l0.1,0.1l-0.1,0.3l-0.2-0.1l0.1,0.2L46.3,38l0,0.2l-0.1,0l0.1,0.1
		l0,0.1l0.2-0.1l-0.1,0.1l-0.1,0.1l-0.1,0.2l0.1,0.1l-0.2,0L46,39l0.1,0l-0.2,0.2l0.1,0.1l-0.1,0.2l0.1,0l-0.1,0.2l0,0.1l0.1,0.1
		l0.1,0.2l-0.1,0l-0.1-0.2l-0.2,0l-0.2,0.4l0-0.1l0.1-0.1l0-0.2L45.4,40l-0.1-0.1l-0.1,0.2l0,0.1l0.1-0.1l0,0.3l-0.2,0.2l-0.1,0
		l0-0.1l-0.1-0.1l-0.4-0.8l-0.1-3l0-1l-0.1,0.1l-0.3,0.1l-0.6,0.2L42.6,36l-0.1,0l-0.1,0.1l-0.5,0.3l-0.3,1l-0.2,0.9l0,0.3l-0.1,0.3
		l-0.1,0.4l-0.4,0.5L40,40l-0.6-0.2l-0.6-0.1l-0.5-0.2l-0.1-0.2l-0.1-0.7l0.3-0.7l0.1-0.3l0.2-0.7l0.2-0.9l0.1-0.3L39,35.6l0-0.2
		l0.3-0.1l0.1-0.7l-0.2,0.1l0.1-0.2l0.1,0l0.2-0.2l0.3-0.7l0-0.1l0.2-0.5l0.1-0.1l0-0.1l2.4-4.6l0.5-0.8l0.9-1.3l1-1.2l0.8-0.5
		l0.6,0l0.1,0.1l0.1-0.1l0.2,0.1l0,0.3L46.5,25l0.1,0.1l0.1-0.1l0.1,0l-0.1,0.2l0,0.3l0,0.1l0.1-0.2l0.2-0.1l-0.1-0.1l0.1,0l0.1-0.1
		l0.1,0.1l0.1-0.2L47.1,25l0.2,0l0,0.1l0.1-0.1l0,0.4l0.1,0l0,0.1l0.1,0l-0.1,0.2l0.1,0.4l0,0.3l0.1-0.1l-0.1,0.2l0,0.6l-0.1,0.2
		l0,0.2l-0.1,0.4l0,0.1l-0.2,0.9l-0.1,0.1l-0.2,1.3l-0.1,0.1l0,0.3l-0.1,0.8l0,0.4l-0.1,0.4l0,0.2l-0.1,0.2l0.1,1.2l-0.2,0.4
		l0.1,0.1l-0.2,0.4l0,0.6l-0.2,0l0.1,0l-0.1,0.1l-0.1,0.2l0,0.1l0.1-0.2l0.1,0l-0.1,0.3l0.1,0.1l-0.2,0.3l-0.2,0.1l0.1,0.2l0.2,0
		l-0.1-0.2l0.1-0.1l0.1,0.1l0,0.1l0.1,0.1l-0.1,0.1l0,0.2L46.3,37l0,0.1l-0.2,0.2l0.2,0l-0.1-0.2L46.5,37.1z M43.2,32.8l1.3-0.2
		l0.2-0.8l0-0.1l0-0.2l0.1-0.9l0-0.1l0-0.2l0.1-0.4l-0.1-0.4L44.5,30l-0.1,0.2L43.2,32.8z M46,39.5l0,0.2L46,39.5L46,39.5z M46.3,36
		l0-0.1l-0.1,0.2L46.3,36z M46.2,32.6l0.1-0.1l0-0.1L46.2,32.6z M46.3,39.1L46.3,39.1l0-0.1L46.3,39.1z M46.6,38L46.6,38l-0.1,0
		L46.6,38z M46.6,38.1L46.6,38.1L46.6,38.1L46.6,38.1z M46.7,30.9L46.7,30.9l0-0.1L46.7,30.9z M46.8,25.9L46.8,25.9l0-0.3L46.8,25.9
		z M46.8,32L46.8,32l0-0.2L46.8,32L46.8,32z M46.9,25.1L46.9,25.1L46.9,25.1L46.9,25.1z M47.2,25.5L47.2,25.5L47.2,25.5L47.2,25.5z"
		/>
	<path d="M55.4,39.7l-0.2-0.9L55,36.1l0-0.5l0-0.4l0.1-2.3l-1.4,0.4l-0.3,0l-0.3,0.1l0-0.1l-0.3,0l-0.5,0.3l-0.1,0.2l0-0.2L51.9,34
		l0.3,0L52.1,34L52,34.1L51.9,34l-0.2,0.3l0,0.1l0,0.1l0,0.2l0,0.1l0.1-0.1l0,0.3l-0.1,0.2l0,0.1l0,0.2l0.2,0L52,35.5l-0.1-0.1
		l-0.1,0.1l0,0.1l0,0.2l-0.2,0.2l0.2-0.1l0.1,0l-0.1,0.1L51.8,36l-0.2,0.2l0,0.2l-0.1,0.1l0.1,0.1l0.1-0.1l0.1,0.1l-0.1,0.2
		l-0.2,0.2l0.1,0.1l-0.1,0.1l0.1,0.1l-0.1,0.1l0,0.3l0.2,0.3l-0.1,0l0,0.1l-0.2,0.1l0.1,0.1l0.3-0.1l0.1,0l-0.1,0.1l-0.2,0l0,0.2
		l-0.1,0.1l0,0.2l0.4-0.4l0.1,0.1l-0.2,0.2l0,0.1l0.3,0l-0.2,0.1l0.1,0.1L51.4,39l0,0.1l0.2-0.1l0.2,0l-0.1,0.1l-0.4,0.2l-0.2,0.2
		l-0.3,0.2l0.1,0l-0.4,0.1l0,0.1l-0.2,0L50,40.3l0,0.1l-0.2,0.1l-0.1,0.2l0,0.1l-0.2,0l-0.1-0.1l-0.2,0l-0.3-0.4l-0.4-1.1l-0.2-1.7
		l0.2-2.8l0.1-0.1l-0.1-0.1l1.1-5.6l0-0.4l1.2-3.3l0-0.2l0.5-1.2l0.3-0.2l0.1,0l0.2-0.1l0.8,0.2l0.1,0.1l0.2-0.1l0.2,0.1l0.1,0.2
		l0.1,0.1l0.2-0.1l0.2,0.1l0.7,0.1l0.5,0.3l0.2,0.2L55,25.1l-0.2,0.2l-0.7,1.4L54,27.1l-0.2,0.6l-0.4,1l-0.1,0.6l-0.2,0.4L53,30.2
		l0.1,0.1l-0.2,0.1l0.1,0.1l-0.2,0.2l0,0.2l-0.1,0.1l0,0.3l-0.2,0l0,0.2l0.2,0.1l-0.1,0.1l0.4,0l0.3-0.1l0.6-2.6l-0.5,2.6l1.8-0.1
		l0.1-0.8l0.1-0.1l0-0.2l0.9-3.8l0.2-0.4l0.2-0.5l0-0.2l0.3-0.7l0.1-0.2l0-0.1l0.1-0.1l0.1-0.2l0.2-0.3l-0.1,0l0.1-0.1l0-0.1
		l0.3-0.2l0.1,0.1l0.3-0.1l0.1,0.1l0.3,0l0.1,0.1l0.1,0l0,0.1l0.2,0l0,0.1l0.2,0.1l0.2,0l0.1,0.2l0.2,0l0.3,0.3l0.1,0l0.1,0.1l0,0.2
		l0.3,0l0.2-0.1l-0.1,0.1l0,0.2l0.1,0.2l-0.1,0.3l-0.2,0.2l0,0.2l-0.1,0.3l-0.5,0.4l0,0.1l0.2,0l0,0.2l-0.1,0l0-0.1l-0.1,0.1l0,0.1
		l-0.1,0.1l0,0.1l-0.3,0l0,0.2l-0.2,0.1l0.1,0.1l-0.1,0.1l-0.1,0.3l-0.2,0.2l0.1,0.1l-0.1,0l0.1,0.1L59.1,28l0,0.1l0.2-0.2l0,0.2
		L59,28.5l0,0.3l0.1,0.1l-0.2,0.1l0,0.2l-0.2,0.2l0.3-0.1l0.1,0.1l-0.2,0.1l0,0.1l-0.2,0l0,0.1l-0.2,0.6l0,0.1l-0.1,0L58.2,30l0,0.2
		l-0.1-0.1L58,30.3l0.1,0.1l-0.1,0l-0.2,0.4L57.5,31l-0.1,0.3l0.2-0.1l0.4,0l0.2-0.1l0.1,0.1l0.2-0.3l0.1,0.1l-0.2,0.4l0.2,0.1
		l-0.1,0.2l-0.1-0.1L58.2,32l0,0.2L58,32.5l0.1-0.2l-0.1,0.4l0,0.2L58,33l0-0.1l-0.3,0.3l0.1,0.1l0,0.1l0.1-0.2l0.2,0l0,0.2
		l-0.3,0.1l-0.1,0.4l-0.2,0.3l0.3-0.1l-0.1,0.2l-0.1,0.1l-0.1-0.4L57.2,34l0,0.4l0.3,0l0,0.1l0.1-0.2l0.1,0.1l-0.1,0l-0.4,0.4l0.2,0
		l-0.1,0.3l-0.1,0l0.2,0.1l-0.1,0L57,35.7l0.1,0.1l0.2-0.2L57.2,36l0.1,0.1l0.1-0.4l0,0.4l-0.2,0l-0.1-0.1l0,0.2l0.2,0l0,0.5
		L57.3,37l0.1,0.7l0.1,0.1l0.1,0l-0.2,0.1l0,0.1l0.2,0l0.1-0.1l-0.1,0.2l0.1,0.1l0.2-0.1l-0.1-0.1l0-0.3l0-0.1l-0.1,0l0.1-0.2
		l0.1-0.1l-0.1,0.1l0.2-0.2l0,0.2l-0.1,0.2l0.3-0.1l0,0.1l-0.1,0l0.1,0.1l0.1,0L58,38.2l-0.2,0.2l-0.1,0.2l-0.2,0.1l-0.8,1.1l-0.2,0
		l-0.3,0.2l-0.3,0.4L55.4,39.7z M50.7,36.4l0-0.2l-0.1,0.1L50.7,36.4z M50.9,36.1l0.2-0.1l0-0.1l0.1,0.1l0.1-0.2l-0.1-0.1l0-0.1
		l0.1-0.1l-0.1-0.1L50.9,36.1z M51.1,36.4l0.1-0.3l-0.2,0l-0.1,0.1L51.1,36.4z M51.1,35L51.1,35L51,35L51.1,35z M51,35.3l0.2,0
		l0.2-0.4l0.1-0.1l0-0.1l0.1-0.1l-0.3,0.1l0-0.2l0-0.1l-0.3,0.3l0.2,0.1l0,0.2l-0.2,0L51,35.3z M51,36.9l0.1-0.1l0.2-0.4l-0.3,0
		l0,0.2L51,36.9z M51.3,37.5l0-0.1L51.3,37.5L51.3,37.5z M51.4,36.1L51.4,36.1l0.2-0.3l-0.1-0.3l0,0.1L51.4,36.1L51.4,36.1z
		 M51.5,34.2l0-0.4l-0.1,0.1l0,0.2L51.5,34.2z M51.7,39.4L51.7,39.4l-0.2,0.1L51.7,39.4z M51.5,35.4l0.1,0l0.1-0.2l-0.2,0.1
		l-0.1-0.1L51.5,35.4z M51.7,34.3l0.1-0.2L51.7,34L51.7,34.3L51.7,34.3l-0.2,0.1L51.7,34.3z M51.8,37.8L51.8,37.8L51.8,37.8
		L51.8,37.8z M52,34.2l-0.1,0.2l0.2-0.1L52,34.6l-0.2-0.3L52,34.2z M51.9,36.6l0,0.1L51.9,36.6L51.9,36.6z M52,36.2l-0.2,0L52,36.2
		L52,36.2z M52.1,35.2l-0.1,0l0-0.1L52.1,35.2z M54.6,26.8l0,0.2l-0.1,0.3l-0.3,0.8l0-0.1L54.6,26.8z M56.3,31.1L56.3,31.1l0.1-0.2
		L56.3,31.1z M56.4,35.6L56.4,35.6l0-0.1L56.4,35.6z M56.7,36.7l0.1-0.2l-0.3,0.2L56.7,36.7z M56.6,36l-0.1-0.1L56.5,36L56.6,36z
		 M56.6,33.7l0.1-0.2l-0.2,0L56.6,33.7z M56.8,34.2l0.2,0l0-0.1l0.1-0.2l-0.2,0l-0.1,0.2L56.8,34.2z M56.9,36.4l0-0.2l-0.1,0.2
		L56.9,36.4z M57,34.8l0-0.2l0.3-0.1L57,34.3l-0.1,0.5L57,34.8z M56.9,35.7l0.1-0.2l-0.1,0L56.9,35.7z M56.9,37.3l0-0.2L56.9,37.3
		L56.9,37.3z M56.9,33.3l0.1,0l0.1-0.1L56.9,33.3z M57.2,36.5L57.2,36.5l-0.1-0.2L57.2,36.5z M57.1,36.9L57.1,36.9l0-0.1L57.1,36.9z
		 M57.4,33.8l0.2-0.5l-0.4,0.2l0.1,0.1L57.4,33.8z M57.4,33.3l0.3-0.4l0,0.1l0.2-0.4l0.1-0.1l-0.1,0l0-0.2l0.2-0.5l0.3-0.4L58,31.6
		l0.1-0.2L58,31.4l-0.3,0l-0.1,0.1l-0.2,0.1l0.2,0.3l-0.3,0.2l0,0.2l-0.1,0.1l0.1,0.1l-0.2,0.2l0.1,0l0,0.1l-0.1,0.1L57.4,33.3z
		 M57.5,38.3L57.5,38.3l-0.2,0L57.5,38.3z M57.6,32.4l-0.1,0.2l0-0.1L57.6,32.4z M57.7,38.4l0-0.1L57.7,38.4L57.7,38.4z M57.6,30.4
		l0.2-0.1l0-0.1l-0.1,0.1L57.6,30.4z M57.8,36.4l-0.1,0.1l0-0.2L57.8,36.4z M57.9,36.8l0.1-0.1l0,0.1L57.8,37l-0.1,0.1l0-0.2
		L57.9,36.8z M57.8,30.3l0.3-0.2l0.1-0.2l0.1-0.2l-0.1,0.1l0.2-0.4l0,0.1l0.1,0.1l0.1,0l0-0.4l-0.6,0.3l0.1,0.1l-0.3,0.3l0.2,0.2
		l-0.1,0.1L57.8,30.3z M58.1,34l-0.3,0.1l0-0.1L58.1,34z M58.3,34l-0.1,0.1l-0.4,0.1L58.3,34z M58.1,35.8l-0.2,0.1L58,36L57.9,36
		l0-0.2L58.1,35.8z M58,33.4l0,0.1l0.1,0.1L58,33.8l0-0.2L58,33.4z M58.2,35.5l-0.1,0l0.1-0.2L58.2,35.5z M58.3,30.6l0-0.1l0.1-0.1
		l0.3,0.2l0,0.1l-0.5,0.3L58.3,30.6z M58.2,28.9l0.2,0l0-0.2l-0.1,0.1L58.2,28.9z M58.4,31.7l0.1-0.1l0,0.3L58.2,32l0.1-0.2
		L58.4,31.7z M58.3,33.1l0,0.1L58.3,33.1L58.3,33.1z M58.9,29.8l0,0.1L58.6,30l0-0.1L58.9,29.8z M58.7,30.2l0.2,0.1l-0.2,0
		L58.7,30.2z M59.1,28.3l0.1-0.1L59.1,28.3L59.1,28.3z M59.3,29l0,0.1l-0.1,0L59.3,29z"/>
</g>
<g class="st0">
	<path d="M25.1,68.4l0-0.5l0.1-1l0.1-0.1l-0.1-0.1l0-0.4l0-0.6l0.1-1.6l0-0.2l0-0.2l0.1-0.8l0-0.8L25,61.6l-1.6-3.9l0-0.1l-1.9-4.7
		l-0.2-0.2l0-0.3l0.7-0.8L22,50.9l0.3-0.2l1,0.4l0.1,0l1.5,0.4l0.4,0.3l0.4,1.3l0,0.1l0.2,0.2l0.1,0.4l0.1,0.1l0.6,1.5l0.1-0.2
		l0.9-2.2l0.9-1.6l0.4-0.9l0.3-0.5l0.1-0.1l0.3-0.3l0.6,0l0.5,0.2l0.2,0l0.1,0.1l0,0.2l-0.1,0.1l0,0.2l0.1,0.1l0.1-0.1l0.1,0l0,0.1
		l-0.1,0.1l0,0.3l0.1-0.1l0,0.1l0.1-0.1l-0.1,0.2l0.1,0.1l0.1,0l-0.1,0.3l0.2,0l0.1,0.1l0.4,0l0,0.1l-0.4,0.3l0,0.3l0,0.3l0.1-0.1
		l0-0.2l0.2,0l-0.2,0.4l-0.2,0.5l-0.5,0.6L31,53.8l-0.3,0.4l-0.6,1.4l-0.3,1.2l-0.5,2.5l0,0.4l0.1,0.3l0.1,0.1l-0.2,1.2L29,61.6
		l-0.3,3.2l0,0.4l-0.1,0.1l0.1,0.3l-0.1,0.4l0,0.6l-0.6,0.9l-0.1,0L27.6,68l-0.2,0.2l-0.2,0l-0.3,0.2l0.1,0.1l-0.1,0l-0.1-0.1
		l-0.1,0.1l-0.1,0l-0.1,0.2l-0.1-0.1l0,0.2l-0.1,0l-0.1,0.1l-0.1,0l-0.2,0.2l-0.2,0L25.4,69L25.1,68.4z M31.8,50.3l0,0.2l-0.1,0
		l0-0.2L31.8,50.3z M32.4,51.2L32.4,51.2L32.4,51.2L32.4,51.2z"/>
	<path d="M33.1,64.8l-0.6-0.5l-0.4-0.5l-0.3-0.9l-0.1-1.3l0-0.7l0.4-3.5l0.8-3.1l0.7-1.9l0.6-0.8l0.2,0l0.1-0.1l0.2,0.1l0.2,0l1,0.1
		l0-0.1l0.4-0.6l0.5-0.3l0.4,0l0.1-0.1l0.1,0.1l0.1-0.2l0.1,0.1l0.1,0l0.1-0.1l0.4,0.2l0,0.3l0.2,0.1l0.1,0l0.1,0.1l0.4,0.3l0,0.1
		l0.2-0.2L39.1,51l0.1-0.2l0.1,0.1l0.1,0.1l0.1,0.1l-0.2,0.2l0.1,0.1l0.1-0.1l0.1,0l0-0.2l0.2-0.1l0,0.1l0.1,0.1l-0.1,0.1l0.1,0.2
		l0.1-0.1l0.1-0.1l0.1-0.2l0.1,0.2l0.2-0.1l0.1,0.1l0,0.2l-0.1-0.1l-0.1,0.1l0.1,0.1l0,0.2l0.2,0.3l-0.2,0l0.1,0.2l0.2-0.1l0.1,0.2
		l-0.1,0.1l0,0.4l0.1,0.1l0-0.2l0,0.5l0,0.2l0,0.3l0.2,0l0,0.1l-0.2,0l0,0.2l0.1-0.1l0,0.2l-0.1,0.1l0,0.4l-0.1,0.2l-0.1,0.1
		l0.1,0.7l-0.2,0.1l0.1,0.1l-0.1,0.2l0,0.3l-0.1,0.1l0.1,0.1l-0.1,0.1l-0.1,0.2l-0.2,0.3l0,0.2l0-0.1l-0.1,0l0,0.4l-0.1,0.3l0.1,0.1
		l-0.2,0.4l0,0.3l-0.1,0l0,0.1l-0.1,0.1l-0.1,0.3l-0.1,0l0,0.1l-0.1,0.2L39,59.8L38.9,60l-0.2,0.7l-0.3,0.7l-0.1,0.5l-0.5,0.9
		l-0.2,0.5L37,63.7l-0.3,0.4L36,64.6L34.6,65l-1.1,0L33.1,64.8z M35.6,59.8l1.4-4.1l0.4-2.2l0-0.5l-0.1,0L37,53.8l-1.2,4.9l-0.1,0.9
		L35.6,59.8z M38,62.8L37.9,63l-0.2,0.3L38,62.8L38,62.8z M38.2,62.4l0-0.1l0.2-0.2l-0.2,0.5L38,62.8L38.2,62.4z M40.5,53.2l0-0.2
		l-0.1-0.1L40.5,53.2z M40.5,54.5l0-0.1L40.5,54.5L40.5,54.5z M40.8,53.1l0,0.1l-0.1,0.1l0-0.1L40.8,53.1z M40.8,52.1l0,0.1
		L40.8,52.1L40.8,52.1z M41,51.8l0,0.2l-0.1,0.1L41,51.8L41,51.8z"/>
	<path d="M46.8,63.1l0.6-0.7l-0.2,0.4l-0.6,0.6l-0.2,0.2l-0.6,0l0-0.1l-0.2,0.1l-0.1-0.1l-0.2,0.1l-0.2,0l-0.1,0.1L43.8,64L43,63.8
		l-0.9-0.5L41.4,62l-0.1-0.7L41.2,60l0.5-4.8l1.1-4.8l0.5-0.3l0.5,0l0.5,0.2l0.4,0.3l0.3,0l1.2,0.8l0.2,0.3l0,0.5l-1.3,5.7l0,0.3
		l2.2-5.7l-0.1-1.1l0.3-0.8l0.1-0.1l0.1-0.3L48,50l0.3,0.2l-0.1,0.1l0,0.3l0.2-0.1l0.1,0.1l0.1,0l-0.1,0.1l0,0.1l0.2,0l0.1,0l0,0.1
		l0.1,0.1l-0.1,0.2l0.2,0.2l0.3,0l0.2,0.3l0.2-0.2l0,0.1l-0.1,0.1l0.2,0l0,0.2l0.1,0.2l0,0.2l0.1,0.1l0-0.2l0,0.3l0.1,0l0,0.1
		l0.1,0.1l0,0.1l0.1,0l0,0.2L50.3,53l-0.1-0.1l0,0.3l0.2,0.1l-0.1,0.1l0,0.2l-0.2,0.1l0,0.5l-0.1,0.4l-0.1-0.1L50,55.4l-0.1-0.1
		l-0.1,0.2l0,0.4l-0.1-0.2l-0.1,0.5l0,0.3l-0.1,0.1l0,0.2L49.2,57l0,0.1l0.1,0l-0.1,0.1l0,0.1l-0.4,1l0,0.3l-0.9,2.2L47.7,61
		l-0.1,0.3l-0.1,0.2L47.3,62L47,62.3l-0.2,0.5l-0.4,0.4l-0.1,0.3l0.1,0.1L46.8,63.1z M47.9,61.6l-0.5,0.8l0.6-1L47.9,61.6z
		 M48.1,61.2L48,61.3L48.1,61.2L48.1,61.2z M48.3,60.8l-0.1,0.3l0-0.1L48.3,60.8z M48.5,60.3L48.5,60.3L48.5,60.3L48.5,60.3z
		 M49.2,51.1l-0.1,0.1L49.2,51.1L49.2,51.1z M49.6,54.8l0-0.2l-0.1,0.1L49.6,54.8z M49.9,55.5l0,0.4l0-0.2L49.9,55.5z M49.8,55.1
		l0.2-0.2l-0.2,0L49.8,55.1z"/>
	<path d="M59.2,63L58.9,62l0-1.4l0.1-1.7l0.8-4.7l0-0.3l1-4l-0.3-0.2l-0.2-0.1l-0.2-0.3l0-0.4l0.5-0.4l0.8-0.5l0.4-0.7l0.4-0.3
		l0.6,0.1l0.7,0.2l1.2-0.2l1.8-0.1l1,0.2l1.1,0.4l1.1,0.7l0.3,0.3l-0.1,0.8L69.6,50L69.4,50l-0.2,0.2l-0.5,0.4l-0.3,0.1L68.1,51
		l-0.1,0l-0.5,0.4L66.6,52l-0.7,0.5l-0.2,0.1l0.2,0l1.8-0.2l1.3,0l1,0.3l0.6,0.4l0.2,0.3l-0.1,0.9l-0.4,0.6L70.1,55l-0.3,0.5l-1.2,1
		L67.9,57l-0.4,0.3l-0.4,0.2l-0.5,0.4l-0.8,0.4l-0.3,0.3l-0.2,0L64.8,59l-0.5,0.2l-0.6,0.4l-0.1,0l-0.5,0.4l-0.4,0.1l-0.1,0.1
		l-0.1,0l-0.3,0.3l-0.2,0l-0.1,0.2l-0.1,0.1l0,0.3l-0.1,0.3l0,0.1l-0.2,0.6l-0.2,0.1l-0.1,0.2L61,62.5l-0.1,0.2L60.6,63l-0.1,0.1
		l-0.4,0.2l0,0.2l-0.1,0.1l0,0.1L60,64l-0.3-0.2L59.2,63z M62.6,57.7l0.3-0.1l0.4-0.1l0.4-0.3l1.3-0.8l0.1,0l0.5-0.4l0.4-0.2
		l2.4-1.7l0-0.1l-1-0.1l-0.3,0l-0.1,0L65.5,54L65,54.1l-0.7,0.1l-0.8,0.3l-0.2,0.3L63,56l0,0.2l-0.2,0.7l0,0.2l-0.1,0.3L62.6,57.7z
		 M63.9,52.1l3.8-2.7l-0.6-0.3l-0.6-0.1L66,49l-0.3,0l-0.8,0.1l-0.2,0l-0.6,0.4L63.9,52.1z"/>
	<path d="M71.8,60.7L71.5,60l-0.1-1.7l1-7.6l1-4.3l0.2-0.6l0.5,0l0.3,0.2l0.7-0.1l1.2-0.5l0.7-0.1l0.9-0.1l0.6,0l0.9,0.2l0.7,0.2
		l0.2,0.1l0.3,0.3l-0.1,0.2l-0.2,0l0-0.1l-0.1,0L80,46.2l-0.4,0l-0.4,0.3l-0.3,0.3l-2.1,0.7L76,50.1l0.1,0l1.5-0.4l0.1-0.1l0.6-0.1
		l0.3,0l0.3-0.1l0.2,0.2l0,0.2l-0.2,0.3L79,50.2l-0.4,0.2l-0.2,0.2L78.1,51l-0.2,0.4l-0.1,0l-0.1,0.3l-0.1,0.1L77.4,52l-1.2,0.4
		l-0.6,0.2l-0.1,0.1L75,56.1l1.2-1.1l0.7-0.5l0.6-0.3l0.3-0.1l0.9-0.3l0.1,0.1l-0.1,0.2l0,0.2l0.1,0.2l0,0.2l-0.1,0.2l0,0.2
		l-0.1,0.1l0,0.4l0.1,0.1l-0.1,0.1l0,0.2l-0.1,0.2l-0.2,0.1l0,0.2l-0.2,0l-0.1,0.2l0,0.2l-0.1,0l0,0.1l-0.6,0.6l0,0.1l-0.3,0.3
		l-0.2,0.2l-1.3,2.2l0,0.1l0.2,0l0.5-0.5l1.5-2.2l0.8-0.8l-1.1,1.2l-1.6,2.4l-0.3,0.2l-0.3,0l-0.2,0l-0.1,0.1l-0.4,0.1L74.6,61
		L74,61.1l-1.4,0.1l-0.4-0.1L71.8,60.7z M74.3,54l0.1-0.1l-0.1-0.1L74.3,54L74.3,54z M74.9,56.2l0.3-2.7l0.1-0.1l0.1-0.6l-0.1-0.2
		l-0.1,0.2l0,0.1L75,53.5l-0.1,0.2l0,0.4l-0.1,0.2l0.1,0.1l-0.1,0.5l-0.1,0.1l0,0.2l-0.1,0.1l0.1,0l0,0.2l-0.1,0.1l0.1,0.1l0,0.3
		l-0.1-0.1L74.4,56l0.1,0.2l0.1-0.2l0,0.7L74.9,56.2z"/>
	<path d="M82.4,59.4L82,57.8L81.9,56l0-1.2l0.2-2.5l0.4-2.7l-0.9,0.1l-0.7-0.1l-0.3-0.2l-0.2-0.2l0-0.3l0.1-0.5l0.3-0.5l0.7-0.7
		l0.4-0.2l1.5-1l0.3,0l0.5-0.6l1.3-0.4l0.3-0.1l1.2-0.1l0.8,0.2l1.3,0.5l-0.1,0.1l-0.2,0l-0.4,0.3l-0.5,0.6L87,46.9l-0.2,0.4
		l-0.3,1.3L86,49.8l0,0.1l-0.5,1.9l0,0.3l-0.4,4.7l0,0.3l-0.1,0.1l0,0.5l0,0.3l0,0.4l-0.1,0.3l0,0.2l-0.2,0.4l-0.5,0.3l-0.3,0l0-0.1
		l-0.3,0.2l-0.4,0l-0.2-0.1L83,59.9l-0.4-0.1L82.4,59.4z"/>
	<path d="M89.3,60.8l-0.1,0l0,0.1l0-0.1l-0.3,0l-0.4-0.1L88,60.4l-0.2-0.6l0-0.5l0.1-0.5l0.3-0.9l0.1-0.1l0.2-0.1l0.3,0l0.3,0
		l0.7,0.2l0.6,0.5l0.5,0.7l0.1,0.4l-0.3,0.4l-0.1,0.5l-0.1,0.1l0,0.4l-0.4,0l-0.1-0.1l-0.1,0.1l-0.2,0L89.4,61L89.3,60.8L89.3,60.8z
		 M88.1,55.8L88,55.5l-0.1-0.5l1.7-10.8l0.2-0.3l0.3-0.1l0.3,0l0.2,0l0.3,0.2l0.7,0.3l0.3,0.4l0,0.1l0.3,0.6l0,0.4L92,46l-0.6,4.8
		l-0.1,0.1L91,51.3l-0.1,0.9l-0.1,0.2l0,0.1l-0.2,1.2L90.5,54l0,0.4L90.3,55l-0.1,0.1l-0.1,0.2l-0.1,0l0,0.2L90,55.4l-0.2,0
		l-0.2,0.3l-0.1-0.2l-0.1,0l0,0.1l-0.1,0l0,0.2l0,0.3l-0.1,0.1l-0.1,0l-0.3,0L88.1,55.8z M89.5,55.8L89.5,55.8l0,0.2l0-0.1
		L89.5,55.8z M89.6,55.5l0.1-0.1l0.1-0.2l-0.1,0.1L89.6,55.5L89.6,55.5z"/>
</g>
</svg>
