<?xml version="1.0" encoding="utf-8"?>
<!-- Generator: Adobe Illustrator 19.2.1, SVG Export Plug-In . SVG Version: 6.00 Build 0)  -->
<svg version="1.1" id="Layer_1" xmlns="http://www.w3.org/2000/svg" xmlns:xlink="http://www.w3.org/1999/xlink" x="0px" y="0px"
	 viewBox="0 0 219 114.5" style="enable-background:new 0 0 219 114.5;" xml:space="preserve">
<style type="text/css">
	.st0{fill:#F1E1BD;}
	.st1{fill:#F6E7C6;}
	.st2{fill:#F9EBCD;}
	.st3{fill:#EEDCB8;}
	.st4{fill:#FBEFD5;}
	.st5{fill:#EAD7B3;}
	.st6{fill:#FAF0D8;}
	.st7{fill:#F4EBD2;}
	.st8{fill:#F0E8D4;}
	.st9{fill:#E4D7B8;}
	.st10{fill:#D2C09D;}
	.st11{fill:#EAE3D1;}
	.st12{fill:#E1D4B6;}
	.st13{fill:#DAC9A8;}
	.st14{fill:#FAF5E3;}
	.st15{fill:#EDE6D1;}
	.st16{fill:#DBCBA8;}
	.st17{fill:#FAF6E3;}
	.st18{fill:#CABB9B;}
	.st19{fill:#DBC9A8;}
	.st20{fill:#F9F2E0;}
	.st21{fill:#CCBB98;}
	.st22{fill:#CEBE9B;}
	.st23{fill:#C6B491;}
	.st24{fill:#C7B794;}
	.st25{fill:#DDCDAB;}
	.st26{fill:#D5C4A0;}
	.st27{fill:#C0AE8A;}
	.st28{fill:#FAF7ED;}
	.st29{fill:#FAF8F0;}
	.st30{fill:#FBF9F4;}
	.st31{fill:#D1C1A0;}
	.st32{fill:#D3C5A4;}
	.st33{fill:#D0C0A0;}
	.st34{fill:none;}
	.st35{fill:#DBCDAE;}
	.st36{fill:#DFCFB0;}
	.st37{fill:#E1D2B3;}
	.st38{fill:#FBF8F3;}
	.st39{fill:#FBF9F2;}
	.st40{fill:#E0D2B4;}
	.st41{fill:#DFD2B5;}
	.st42{fill:#D6C7A8;}
	.st43{fill:#E4D6B7;}
	.st44{fill:#DBCEB2;}
	.st45{fill:#F9F5ED;}
	.st46{fill:#D3C19E;}
	.st47{fill:#C2AF8B;}
	.st48{fill:#F8F4EC;}
	.st49{fill:#F7F5EC;}
	.st50{font-family:'DKDirrrty';}
	.st51{font-size:25.0737px;}
</style>
<g>
	<path class="st0" d="M187.5,101.6c-0.5,0.5-1.1,0.6-1.8,0.5c-0.8-0.8-2-1.3-2.6-2.2c-0.6-1.1-1.4-2.1-2.1-3.2
		c-0.2-0.2-0.5-0.4-0.8-0.6c-1.4-0.3-2.9-0.1-4.3-0.5c-2.1-0.5-3.6-1.5-2.9-3c0.8-1.7,0.6-3.4,1.8-5c0.8-0.4,1.5-0.5,2.4-0.4
		c1.7,0.5,1.2,1.6,1.7,2.6c1.8-0.5,2.4-1.7,3.6-2.4c0.3-0.2,0.6-0.4,0.9-0.5c1.4-2.7,2-5.4,0.8-8.2c-10-0.1-19.9,0.3-29.9,0.4
		c-33.7,0.3-67.5,0.1-101.2,0.1c-0.8,0-1.5,0-2.1-0.1c-2.6-0.2-2.6-1.9-4.1-3.3c-0.3,2-1.4,3.2-4.4,3.1c-0.5,0-0.9-0.1-1.4-0.1
		c-9.9,0.8-19.6,0.3-29.5,0.4C10.2,79.2,9,79,8,78.4c0-2.5,0-5,0-7.6c3-0.9,6.2-0.6,9.4-0.6c14.4,0.1,29,0,43.5,0
		c0.6,0,1.2-0.1,1.7-0.2c27.4-0.1,54.9,0,82.2,0c14.3-0.2,28.7-0.7,43-0.6c-14.3-0.2-28.6,0.4-43,0.6c-24.2,0-48.2,0-72.3,0
		c-4.6,0-9.1-0.1-13.5,0.3c-13.2,0-26.4,0-39.8,0c-1.7-0.1-2.3-0.5-1.8-1.6c0.3-0.8,0.3-1.7-1.2-1.7c-1.5-0.1-1.7,0.8-1.8,1.6
		c-0.2,0.7,0,1.4-1.2,1.7c-1.8,0.1-3.6,0.4-5.3-0.4c-1.1-2.5,0.3-5.1,0-7.6c1.2-1.2,3.8,0.1,5-1.2c0.3-0.2,0.8-0.3,1.1-0.3
		c1.7,0,3.2,0.3,4.7,0.6c11.5,0.2,23.3,0,34.8,0.1c1.4,0,2.6-0.2,3.8-0.4c9.1-0.3,18.1-0.1,27.2-0.1c22.3,0,44.7,0.1,67-0.1
		c10.8-0.1,21.6-0.7,32.4-0.5c1.8,0,3.8-0.1,5.6,0.2c2,0.4,2,1.5,2,2.6c-0.3,5.6-0.6,11.1-2.3,16.6c-0.2,0.3-0.3,0.6-0.3,0.8
		c0.8,4.2-0.5,8.2-2.9,12c-0.8,1.3,0.2,2.7,0.6,4C187.7,98.2,188.7,99.9,187.5,101.6z"/>
	<path class="st1" d="M7.9,53.6c-2.1-1.8,0.3-3.5,0.2-5.2c-0.3-4.1,0-8.2,0-12.2c2-0.6,4-1.3,4.1,1.1c0,0.3,0.9,0.3,1.5,0.4
		c3.5,0.9,4.9-1.5,7.4-2.2c8.5-0.3,17-0.1,25.5-0.1c5.5,0,10.8,0,16.3-0.6c30.1,0,60,0,90.1,0c11.9,0.4,23.6-0.8,35.4-0.6
		c1.8,0,3.8-0.1,5.6,0.4c0.8,0.2,1.1,0.7,0.9,1.2c-1.4,2.5-0.6,5.4-3.3,7.6c-13.5-0.1-27,0.3-40.7,0.3c-2,0-3.8,0.2-5.6,0.3
		c-29.2,0-58.2,0-87.4,0c-10.8,0.7-21.6,0.1-29,0.3c7.3-0.1,18.1,0.4,28.9-0.2c29.2,0,58.2,0,87.2,0c15.7-0.5,31.3-0.6,47.1-0.6
		c2.9,2.2,2,6.7-1.8,8.9c-4.9,0.6-9.6,0.2-14.4,0.3c-41.5,0.8-82.8,0.5-124.3,0.6c-9.7-0.1-19.5,0.1-29.2-0.1
		c-0.5,0-0.9-0.1-1.4-0.2c-2.7-1.3-5.5-2.1-8.4-0.1C11.4,53.7,9.3,52.5,7.9,53.6z"/>
	<path class="st2" d="M191.9,43.1c-0.2-2.8,0.6-5.5,2.6-8.1c-2.1-0.6-4.6-0.1-6.7-0.3c-1.8-1.3,0.2-2.3,0.8-3.3
		c0.8-1.2,1.5-2.4-1.8-2c-1.4,0.1-2.7,0.4-3.2-0.8c-0.5-1.1,0.5-1.8,2.1-2.2c1.8-0.1,3.6,0,5.5-0.2c-8.1,0.4-16.3,0.3-24.3,0.3
		c-2.1,0-4.4,0.1-6.5,0.5c-27.8,0.3-55.8,0-83.6,0.1c-19.9,0-39.8,0-59.7,0c-3,0-6.2,0.5-9-0.8c0-1.5,0-3.1,0-4.6
		c1.5-0.8,3.2-1,5-0.7c1.4,0.6,2.1,2.4,4.9,1.3c-1.1-1.4-3.3-0.2-4.6-1.2c0-2.3-4.1-1.5-5.3-2.9c-1.4-2.9-0.6-5.8,0-8.7
		c0.5-0.2,1.1-0.2,1.5-0.2c25.2,0,50.3-0.1,75.5,0.3c-0.9,0.2-1.7,0.3-2.4-0.1c0.5-1.1,1.8-1.3,3-1.3c6.4,0.1,12.9-0.7,19.1,0.8
		c1.2,0,2.3,0,3.5,0c-1.5,1.9,1.2,1.9,2.4,2c7.6,0.7,15.2,2.2,22.8,0.5c2-0.4,4.1-0.5,6.1-0.3c3.2,0.4,6.1,0.2,8.8-0.8
		c2.3-0.8,3.6-0.4,3.6,1.4c0,1.2,0.2,2.6,2.6,2.3c2.1-0.3,2.6-1.7,2.4-3c-0.2-1.1-1.8-2.6,1.8-2.6c3.5,0.5,7-0.2,10.5,0.6
		c1.8,0.7,0.3,2,0.8,2.8c1.2,0.2,1.7-0.4,2.4-0.7c5-2.2,6.2-2.1,9.4,1.2c1.4,1.3,2.9,2.1,5.3,2.1c1.5,0,3-0.1,4.3,0.5
		c1.7,0.8,2.4,1.8-0.3,2.5c-26,0.7-51.8,0.3-77.8,0.3c-30.4,0.1-60.9,0.9-91.3,0.6c-0.5,0-0.8-0.1-1.1,0.2c1.4-0.3,2.7-0.1,4.3-0.1
		c52.7-0.2,105.5-0.9,158.2-0.6c4.7,0,9.3-0.9,14-0.1c2.4,2,1.4,4.2,0.9,6.3c-0.9,4.4-0.3,8.9-2.3,13.3l0,0c-1.5,1.8-1.7,4-3.2,5.8
		C192.7,43.3,192.2,43.3,191.9,43.1z"/>
	<path class="st0" d="M7.9,53.6c0.3-0.9-0.6-3.6,2.6-0.9c0.2,0.1,1.2-0.2,1.8-0.3c2.6,0.7,5.2,0.5,7.8,0l0.2,0.1
		c1.1,0.6,2.4,0.6,3.8,0.6c10.2,0,20.4,0.1,30.5,0c1.8-0.3,3.8-0.2,5.6-0.2c27.2,0,54.4,0.2,81.6-0.1c16-0.1,31.8-0.7,47.7-0.5
		c2.4,2.9,2,5.7,0.2,8.6c-42.7,0.7-85.6,0.7-128.3,0.6c-2,0-3.8-0.1-5.6,0.3c-11.5,0.1-22.9,0-34.5,0c-1.1,0-1.8-0.3-2.4-0.8
		c-2.9-2.2-2.9-2.2-5.6,0.3v0.1c-3,1.1-3.2-1.4-5.2-1.8C8.1,57.4,8.1,55.5,7.9,53.6z"/>
	<path class="st1" d="M184.9,26.9c-0.3,0.6-1.2,1.2-0.6,1.9c0.8,0.6,1.5,0.1,2.3-0.1c1.2-0.3,2.4-0.9,3.6-0.1
		c1.4,0.9,0.3,1.7-0.2,2.6c-0.6,1.2-2.4,1.9-2.6,3.3c-6.7,0.6-13.5,0.3-20.4,0.6c-5.9,0.3-11.9-0.3-17.8,0.3
		c-28.9,0.1-57.7,0-86.6,0c-15.2,0.5-30.5,0.4-45.7,0.1c-3,0-6.1,0.6-9-0.4c0-2.7,0-5.4,0-8.1c2.3,0.1,5.5-1.7,6.5,1.3
		c0.2,0.9-0.2,2.1,1.7,2.2c1.8,0.1,1.7-1,1.8-1.8c0.2-0.6,0.5-1.1,1.1-1.5c17.6-0.3,35.1-0.1,52.7-0.2c2,0,4.1,0.1,6.1-0.3
		c27.7-0.1,55.3,0,83-0.1C169,26.3,176.9,25.8,184.9,26.9z"/>
	<path class="st3" d="M175.2,87.7c-0.2,1.4,0.3,2.8-0.6,4.2c-1.4,2.4-0.5,3.1,3.5,3.3c1.4,0.1,3-0.4,4,0.6c-1.8,1-4.1,0.7-6.2,0.7
		c-16.9,0-33.7,0-50.8,0c-16.3,0-32.7,0-48.9,0c-1.8,0-3.8-0.1-5.6,0.4c-17.2,0.4-34.2,0.2-51.4,0.1c-0.3,0-0.6-0.1-0.8-0.1
		c-1.7-0.9-3.2-0.6-4.6,0.4c-1.2,0.9-3,0.9-4.6,0.6c-2-0.4-1.2-1.6-1.2-2.5c-0.2-2.4,0-4.8,0-7.2c2.3-0.9,4.4-1.1,6.7,0
		c1.8,0.8-1.4,2.9,1.4,3c3,0.1,0.5-2,1.8-2.8c0.3-0.2,0.6-0.4,1.1-0.5c2.1-0.6,4.3-0.4,6.5-0.4c21.1,0,42.2,0,63.5,0
		c2.1,0,4.4,0.1,6.5-0.4c13.8-0.4,27.8-0.1,41.6-0.2c10.8,0,21.6,0,32.4,0C171.4,86.9,173.5,86.6,175.2,87.7z"/>
	<path class="st3" d="M182.2,96.3c0.6,1.2,1.2,2.4,1.8,3.6c-0.8,0.6-1.8,0.4-2.7,0.3c-2.7-0.5-3.8,0.5-4.3,2c-4,0-7.4,1.6-11.4,1.2
		c-3.2,1.1-6.7,0.4-9.9,0.5c-11.7,0.2-23.4,0.1-35.1,0.2c-6.1,0.1-12.3-0.4-18.4,0.2c-2.4,0.2-4.9,0.6-7.1,1.4c-1.2,0-2.3,0-3.5,0
		c-2.4,0.5-5,0.5-7.4,1.2c-2.1,0.6-4.3,0.4-5.9-0.8c-2,0.5,2.6-1.4-0.5-0.6c-1.8,0.5-3.8,0.4-5.8-0.1c-2-1.2-1.5-2.4-0.2-3.6
		c1.8-1.5,4-2.4,6.8-1.8c2.6,0.6,5.3,1,7.8,1.9c2.3,0.8,4.4,0.6,6.4-0.6c1.2-0.8,2.4-1.3,1.1-2.6c-0.9-0.9-0.8-1.9,1.2-2.3
		c9.4-0.2,19,0,28.4-0.1c1.7,0,3.5,0.1,5.2-0.3c16.7-0.1,33.4,0,50.3,0C180.2,96.1,181.1,96,182.2,96.3z"/>
	<path class="st4" d="M158.5,9c-1.2,0-1.5,0.4-0.8,1c1.4,1,1.1,2,0.2,3.2c-1.1,1.4-2.1,2.8-4.9,2c-2.3-0.6-3-2-2-3.6
		c0.2-0.2,0.2-0.5,0.2-1c-8.2,2.6-17,1.7-25.5,2.2c-5.3,0.3-11.7,0.6-16.9-1.6c-0.9-0.4-1.7,0-2.6,0c-1.1,0.1-2.6,0.9-2.9-0.4
		c-0.2-1.2,1.7-0.7,2.7-0.7c1.2-0.1,2-0.3,2.1-1.2c7.9,0.8,16,2.7,24,1.6c7.6-1.1,15.7-1.9,22.3-4.8c1.5-0.7,3.2-0.9,4.9-0.9
		c6.7,0,13.5-0.2,20.2,0.1c4.6,0.2,8.2-1.6,12.8-1.3c3.6,0.2,6.7,1.3,9.7,2.4c2.1,0.7,0.8,2.3,1.1,3.4c-0.5,0.2-1.1,0.3-1.5,0.3
		c-9.1-0.1-18.1,0.2-27.2-0.2C169.3,9.4,163.8,9.5,158.5,9z"/>
	<path class="st5" d="M94.2,97c0,0.4,0.3,0.8,0.2,1.1c-0.5,1.4,5,0.9,2.3,2.4s-5.8,4.4-10.3,2.1c-2.4-1.2-5.5-1-8.1-2.1
		c-1.8-0.7-3.5,0.2-5,1.2s-2.4,1.9-0.9,3.2c-2.3,1.3-4.9,0.9-7.4,0.5c-9.6-2.3-19.5-3.4-29.3-4.7c-4.3-0.5-8.7-0.3-12.8-1.4
		c-1.7-0.4-3.3-0.8-4.1-1.9c0-0.2-0.2-0.3-0.2-0.5l0.3-0.1c3.6-0.5,7.3-0.2,10.8-0.2c15.3-0.1,30.8,0.2,46.2-0.3
		c2.4,0.8,4.7,1.9,7.1,0C86.8,96.6,90.6,95.8,94.2,97z"/>
	<path class="st6" d="M104.9,8.9c-5.9,0-12,0-17.9,0c-1.4,0-2.9-0.3-4.1,0.6c-1.5,0.6-3.2,0.3-4.7,0.3c-17.2,0-34.3,0-51.4,0
		c-4.6,0-9.1-0.3-13.5-0.5c-1.8-0.8-1.2-1.5,0.2-2.1c2.3,1.1,4.6,1.7,7.1,0.3c0.9-0.5,2.3-0.4,3.3-0.4c2.7,0,5.6-0.1,8.4,0
		c11.9,0.7,23.7-1,35.6-1c10.5,0,21,1.6,31.6,1.1C101.5,7.2,103.3,8,104.9,8.9z"/>
	<path class="st7" d="M190.1,60.4c-1.2-2.7-0.3-5.4,0-8c0.2-0.2,0.5-0.4,0.8-0.5c1.7-2.6,2-5.4,1.8-8.2c-0.3-0.1-0.5-0.3-0.3-0.4
		c0.2-0.1,0.2-0.2,0.3-0.2c0.2-2.2,0.6-4.3,3.5-5.8c-0.9,7.2-1.7,14.4-3.2,21.6c-0.9,4.4-0.3,9-0.3,13.6c0,1.1,0.5,2.2-0.2,3.2
		c-2,3.4-1.7,6.7,0.2,10.1c0.9,1.6,0.3,3.1-0.8,4.4c-2.6,2.8-3.3,5.9-2.9,9.1c0.2,1.1,0,1.9-1.7,2.4c-0.5-4-4.9-7.8-1.1-11.9
		c1.8-2,1.7-4.1,1.7-6.4c0-3.6,2-7.2,2-10.8c0.2-3.8,1.2-7.6,0.9-11.4C191,60.7,190.3,60.7,190.1,60.4z"/>
	<path class="st0" d="M8.1,82.5c0-1,0-1.9,0-2.9c3.3-1.2,7-0.3,10.5-0.6c5.8,0,11.7-0.1,17.5,0.1c2.9,0.8,3.8,2.4,3.5,4.2
		c-0.3,1.9-3.2,2.2-5.5,2.3c-3.6,0.1-6.8,2.2-10.9,0.8c-1.5-0.5-2.6,1.4-4.3,1.7c-3.5,0.5-6.8,0.2-10-0.9c-1.4-0.8-0.6-1.9-0.8-2.9
		c2-0.3,3-1.7,5.3-1.9c1.2,0.4,1.5,1.8,3.3,1.3c1.4-0.4,0.8-1.3,0.6-2c-1.1-1.3-2.1-0.7-3,0.1c-0.5,0.3-0.9,0.4-1.5,0.4
		C11.2,82.4,9.7,83.4,8.1,82.5z"/>
	<path class="st4" d="M192.8,17.1c-0.5-2.2-3-1.8-5-1.7c-3,0.1-5.2-0.5-6.5-2.5c-2.3-3.1-4.6-3.3-8.1-0.8c-1.2,0.8-1.8,2.3-4,1.1
		c-1.8-1-0.2-1.9,0.6-2.7c0.2-0.2,0.2-0.6,0.3-0.8c4.4-0.7,9-0.1,13.5-0.3c3.2,1,5.9,2.4,8.7,3.3c-0.6-0.4-2-0.7-2.9-1.3
		c-0.9-0.7-2-1.6,0.6-1.9c4,0.1,7.9-0.2,11.9,0.1c2.4,2.8-1.1,5.1-1.7,7.7c0,0.4,0,0.8,0,1.1c-0.9,0.3-1.5-0.3-2.3-0.4
		C196,17.4,194.1,18,192.8,17.1z"/>
	<path class="st8" d="M95.1,105.6c1.4-1.7,3.5-2.3,6.4-2.3c14,0,28,0.3,41.9-0.1c7.4-0.2,14.7,0.3,22.2,0.1
		c-0.9,1.2-2.4,1.1-4.1,1.1c-6.8,0.2-13.7-0.7-20.4,1.1c-2.9,0.8-4.7-1.1-7.4-1.1c-4.4,0.1-8.8,0.3-13.1,0
		C111.8,103.7,103.6,105.8,95.1,105.6z"/>
	<path class="st9" d="M77.5,26.9c-1.2,0.9-2.7,0.6-4.1,0.6c-17.5,0-34.8,0-52.3-0.1c-1.4,0-1.8,0.5-2.6,0.8
		c-1.7,0.8-3.3,1.3-5.3,0.5c0.5-3.5-3.6-0.9-5.3-1.7c0-0.2,0-0.4,0-0.6c22.9,0,45.7,0,68.7,0C77,26.5,77.3,26.7,77.5,26.9z"/>
	<path class="st10" d="M8.8,87.1c3.5,0.8,7.1,0.6,10.6,0.5c3.3-1.8,7.4-0.7,11.1-0.8C49,86.4,67.6,85.7,86,86.1c1.1,0,2,0.1,3,0.2
		c2,0.5,4.4,0.2,6.1,1.3c-1.5,0.9-3.3,0.5-5,0.5c-22.3,0-44.7,0-66.9,0c-1.8,0-3.8-0.2-5.5,0.6c-0.9,0.5-1.8,0.5-2.7,0
		c-2.1-1-4.7-0.5-7-0.6C8.2,87.9,8.5,87.5,8.8,87.1z"/>
	<path class="st11" d="M18.5,97.5c4.7,1.2,9.3,2.3,14.4,2.4c4.9,0.2,9.7,1.4,14.6,1.8c5.9,0.5,11.4,1.6,16.6,3.3
		c-0.5,0.4-1.4,0.1-1.8,0.6c-0.2,0.1-0.5,0.4-0.6,0.3c-12.5-3.8-26.1-3.7-39.2-5.5C20.1,100.2,18.4,99.4,18.5,97.5z"/>
	<path class="st12" d="M8.1,35c18.2,0,36.3,0,54.6,0c0.3,0.1,0.3,0.2,0.3,0.4c-0.2,0.1-0.2,0.2-0.3,0.2c-14.3,1.2-28.7,0.3-43.2,0.6
		c-2.6,0.2-5.2,0.3-6.1,2.3c-0.6-0.2-1.4-0.4-2-0.5c-0.8-0.2-1.8-0.2-1.7-0.9c0.2-0.6,1.7,0.1,2-0.9c-1.2,0-2.3,0-3.5,0
		C8.1,35.8,8.1,35.4,8.1,35z"/>
	<path class="st13" d="M62.6,70.3c-1.2,0.9-2.7,0.6-4.1,0.6c-16.7,0-33.6,0-50.3,0c0-0.4,0-0.7,0-1.1c2,0,4.1,0,6.1-0.1
		c1.2-0.7,2.3-0.7,3.5,0c13.8,0,27.7,0,41.3,0C60,70.4,61.5,69.7,62.6,70.3z"/>
	<path class="st14" d="M198,17.6c0.6,0.2,1.2,0.4,1.7,0.6c-0.5,5.7,1.2,11.4-1.7,17c-0.5,0.8-0.5,1.7-1.8,2.1
		c-1.1-6.4,2-12.7,1.7-19.1c-0.2-0.1-0.3-0.3-0.2-0.4C198,17.7,198,17.6,198,17.6z"/>
	<path class="st15" d="M78.4,105.7c2.3,0.9,4.7,1.2,7.3,0.3c1.8-0.6,4-0.2,5.9-0.3c-7.8,2.5-15.8,3.3-24.2,1.7
		c-1.4-0.3-2.9-0.5-3.2-1.6C69,105.1,73.7,105.2,78.4,105.7z"/>
	<path class="st3" d="M18.7,79.6c-3.5,0-7.1,0-10.6,0c0-0.4,0-0.8,0-1.2c9,0,17.9-0.1,26.7,0.1c2.6,0.1,5-1.5,7.4-0.1
		c-0.8,1.8-2.7,1.2-4.6,1.1C31.5,79.2,25.1,79.1,18.7,79.6z"/>
	<path class="st16" d="M176.9,102.1c-1.7-2.2-0.9-3,2.7-2.8c1.4,0,2.9,0.4,4.3,0.6c0,0.9,3,0.9,1.8,2.3
		C182.8,102.1,179.9,102.1,176.9,102.1z"/>
	<path class="st17" d="M13.2,21.1c-1.7,0.7-3.5,0.6-5.3,0.6c0-1.2,0-2.3,0-3.5c2.1,0.3,4.3,0.5,6.4,0.8C14,19.7,13.7,20.4,13.2,21.1
		L13.2,21.1z"/>
	<path class="st18" d="M78.4,105.7c-4.7,0-9.4,0-14.1,0c-0.6,0-1.1,0-1.7-0.1c-0.2-1.1,1.2-0.3,1.8-0.6c2.6,0,5.3,0,7.9,0
		c2.3,0,4.6,0.2,6.7-0.3c0.6-0.2,1.5,0.1,1.4,0.6C80.2,105.5,79,105.6,78.4,105.7z"/>
	<path class="st14" d="M199.8,17.1c-0.5-2.6,2.9-4.8,1.8-7.5c0.3-0.2,0.5-0.3,0.8,0c0.3,0,0.6,0,0.9,0
		C203.2,12.2,202.7,14.9,199.8,17.1z"/>
	<path class="st19" d="M8.1,59.4c0.9,0.1,2.4-0.8,2.6,0.6c0.2,1.1,1.4,1,2.6,1.1c0.5,0.6,0.6,1.1-0.9,1.1c-1.4,0-2.9,0-4.3,0
		C8.1,61.3,8.1,60.3,8.1,59.4z"/>
	<path class="st3" d="M13.2,82.5c-1.7,0.6-2,3-5.2,1.7c0-0.6,0-1.2,0-1.7c1.8-0.2,3.5-0.8,5.3-0.6c0.2,0.1,0.3,0.3,0.2,0.4
		S13.4,82.5,13.2,82.5z"/>
	<path class="st20" d="M13.2,7.2C13,7.8,12.7,8.4,12.4,9c-0.9,1-2.1,1-3.6,0.5c-0.3,0-0.6,0-0.8,0C9.3,8.2,10.3,6.8,13.2,7.2z"/>
	<path class="st3" d="M89.8,87.1c-12.6,0-25.2-0.4-37.7,0.1c-10.9,0.4-21.9,0.3-32.8,0.4c1.2-1.8,2.1-3.9,5.9-1.6
		c0.5,0.3,1.7,0.5,2,0.4c2.3-1.6,5.5-1.3,8.2-1.7c6.2-0.9,1.7-3.3,1.5-5.1c9.6-1.3,19.1-0.4,28.9-0.6c30.1-0.6,60,0,90.1-0.4
		c8.5-0.1,17,0.2,25.4-0.4c2-0.1,4.1-0.3,6.1,0.2c-2.3,2.1-1.7,4.6-2,7c-0.2,1,0.2,1.9-1.7,2.3c-4.3-0.6-8.7-0.3-13.1-0.3
		c-26.3,0.1-52.6,0.1-78.9,0.1C91.3,87.4,90.6,87.4,89.8,87.1z"/>
	<path class="st21" d="M187.5,78.4c-35.7,1.3-71.4,0.2-107.1,0.7c-14.4,0.2-28.9,0.5-43.3,0.5c-6.1,0-12.3,0-18.4-0.1
		c4-1.2,8.1-0.2,12-0.6c3.8-0.3,7.9,0.6,11.5-0.6c0.3,0,0.6,0,0.9,0c2.1,0.9,4.1-1.2,6.2,0c35.1,0,70.4,0.2,105.5-0.2
		c9.3-0.1,18.7-0.3,28.1-0.4C184.5,77.8,186.2,77.5,187.5,78.4z"/>
	<path class="st22" d="M190.1,60.4c0.3,0.2,1.7-0.2,0.9,0.7c-44.5,0.7-89.2,0.5-133.7,0.6c-1.1,0.4-1.8,0.5-1.7-0.6
		c26.3,0,52.6,0,79,0C153,61,171.6,60.2,190.1,60.4z"/>
	<path class="st23" d="M89.8,87.1c24.6,0,49.4-0.1,74,0c5.6,0,10.9-0.8,16.6-0.6c1.4,0,3.2-0.4,3.3,1.1c-0.3,0-0.5,0-0.8,0
		c-1.8,0.8-3.5,1-5.3,0c-0.9,0-1.8,0-2.6,0c-26.7,0-53.3,0-80.1,0C93.5,87.5,91.5,88.2,89.8,87.1z"/>
	<path class="st24" d="M62.6,70.3c-1.2-0.1-2.6,0.3-3.5-0.6c28.7,0,57.4,0,86.2,0c0.3,0.1,0.5,0.2,0.3,0.3c-0.2,0.1-0.2,0.2-0.3,0.2
		C117.6,70.3,90.1,70.3,62.6,70.3z"/>
	<path class="st25" d="M55.6,61.1c0.3,0.5,1.1,0.5,1.7,0.6c-0.8,0.6-1.8,0.6-2.7,0.6c-11.4,0-22.6,0-34,0c-1.1,0-2.1,0.1-2.7-0.6
		c-0.2-1,0.8-0.9,1.7-0.6C31.5,61.1,43.5,61.1,55.6,61.1z"/>
	<path class="st26" d="M145.3,70.3c0-0.2,0-0.3,0-0.5c14.4-1,28.7-0.5,43.2-0.3C174,69.7,159.7,70.8,145.3,70.3z"/>
	<path class="st27" d="M182.2,96.3c-17.9,0-35.7,0.1-53.6,0.1c-1.4,0.2-2.7,1-3.5-0.6c19,0,38,0,57.1,0
		C182.2,96,182.2,96.2,182.2,96.3z"/>
	<path class="st28" d="M17.6,69.7c-1.2,0-2.3,0-3.5,0c-1.4-1.4-1.4-2.7,1.1-3.7c1.7-0.7,2.7,0,3.6,0.8C20.2,68.1,19,68.9,17.6,69.7z
		"/>
	<path class="st29" d="M16.6,73.3c1.4,0.3,2.7,0.8,2.6,1.7c-0.3,1.2-1.5,2.1-3.5,2.1c-1.4,0-2.4-0.7-2.3-1.7
		C13.7,74.1,14.7,73.5,16.6,73.3z"/>
	<path class="st30" d="M19.4,61c-0.6,0.2-1.2,0.4-1.7,0.6c-1.5-0.2-2.9-0.4-4.4-0.6c0-1.4-0.2-3,2.7-2.8C18.1,58.4,20.4,59,19.4,61z
		"/>
	<path class="st3" d="M49.4,78.4c-2.1,0.1-4.1,1.3-6.2,0c4-0.2,2-2.4,2.6-3.8C48.6,75.4,49.5,76.7,49.4,78.4z"/>
	<path class="st3" d="M177.8,87.7c1.8,0,3.5,0,5.3,0c-1.2,1.5-2.3,3.1-5.3,3.5C177.8,89.9,177.8,88.8,177.8,87.7z"/>
	<path class="st31" d="M191,51.9c-0.3,0.2-0.6,0.4-0.8,0.5C146.5,53,102.7,53,59,53c-1.5,0-2.9,0.1-4.3,0.5
		c-0.9-0.7-3.2,0.5-3.5-1.1c29.9,0,60,0.3,90-0.2C157.7,52,174.3,51.9,191,51.9z"/>
	<path class="st32" d="M62.6,35.6c0-0.2,0-0.4,0-0.5c29,0,58.1,0,87.1,0c1.4-0.2,2.9-0.9,3.5,0.6C122.9,35.6,92.8,35.6,62.6,35.6z"
		/>
	<path class="st33" d="M57.3,43.7c29.3,0,58.7,0,88,0c0.3,0.1,0.5,0.3,0.3,0.4c-0.2,0.1-0.2,0.2-0.3,0.2c-29.3,0-58.7,0-88,0
		c-0.3-0.1-0.5-0.2-0.3-0.4C57.1,43.8,57.1,43.7,57.3,43.7z"/>
	<path class="st34" d="M57.3,43.7c0,0.2,0,0.4,0,0.5c-7.8,1.2-15.8,0.4-23.6,0.6c-4.3,0.1-8.5,0-12.8,0c0-0.4,0-0.8,0-1.1
		C33,43.7,45.1,43.7,57.3,43.7z"/>
	<path class="st35" d="M145.3,44.2c0-0.2,0-0.4,0-0.6c2.3-0.4,4.6-0.6,6.8-0.6c13.2,0,26.4,0,39.8,0c0.3,0,0.6,0,0.9,0
		c0,0.2,0,0.4,0,0.6C176.9,43.3,161.1,44.5,145.3,44.2z"/>
	<path class="st36" d="M51.2,52.4c0.8,0.9,2.7,0.2,3.5,1.1c-10.3,0-20.7,0-31,0c-1.4,0-3,0.3-3.3-1.1C30.5,52.4,40.9,52.4,51.2,52.4
		z"/>
	<path class="st37" d="M153.2,35.6c-0.9-0.8-2.3-0.5-3.5-0.6c1.4-0.9,3-0.5,4.6-0.5c11.1,0,22.2,0,33.3-0.1c2.3,0.3,4.9-0.5,7,0.6
		C180.7,35.2,167,35.4,153.2,35.6z"/>
	<path class="st38" d="M20.2,52.3c-2.6,1.9-5.2,2.1-7.8,0C16.1,50.1,17.2,50.1,20.2,52.3z"/>
	<path class="st39" d="M19.3,44.7c-0.5,0.9-0.8,1.9-2.7,1.8c-1.5-0.1-3-0.7-2.9-1.8c0.2-1,1.5-1.6,3-1.6
		C18.2,43.1,19.3,43.6,19.3,44.7z"/>
	<path class="st28" d="M13.4,38.5c0.3-3.1,1.2-3.4,6.1-2.3C19.6,39.5,15.8,38.2,13.4,38.5z"/>
	<path class="st40" d="M198,17.6c0,0.2,0,0.4,0,0.5C138.6,17.8,79,19,19.6,18.7c57.7-2.1,115.5-0.2,173.2-1.7
		C194.5,17.3,196.5,16.6,198,17.6z"/>
	<path class="st41" d="M8.8,9.5c1.2,0,2.4-0.2,3.5-0.6c23.6,1.2,47,0.4,70.5,0.6c2,0,4,0,6.5,0c-1.5,0.8-2.7,0.6-3.6,0.6
		c-24.2,0-48.2,0-72.3,0C11.9,10.1,10.2,10.5,8.8,9.5z"/>
	<path class="st42" d="M77.5,26.9c-0.3-0.2-0.6-0.4-0.9-0.6c28.1,0,56.2,0,84.5,0c0.2,0.1,0.3,0.3,0.2,0.4s-0.2,0.2-0.3,0.2
		C133.3,26.9,105.3,26.9,77.5,26.9z"/>
	<path class="st43" d="M161.1,26.9c0-0.2,0-0.4,0-0.6c0.6-0.2,1.2-0.5,2-0.5c10.5,0,21,0,32.1,0c-3.6,1.4-7,1.1-10.2,1.1
		C176.9,26.9,169,26.9,161.1,26.9z"/>
	<path class="st44" d="M202.4,9.5c-0.3,0-0.6,0-0.8,0c-4.4,0-8.8,0-13.2,0c-1.2,0.7-2.4,0.5-3.5,0c-5,0-10,0-14.9,0
		c-3.8-0.4-7.8,0.6-11.4-0.6c13.1,0,26.3,0,39.4,0C199.4,9,201,8.6,202.4,9.5z"/>
	<path class="st17" d="M13.2,21.1c0.3,0,0.6,0,0.9-0.1c2.3-0.7,4.4-0.6,5.5,1.1c0.6,1.1-0.9,1.2-2,1.3C15,23.6,12.8,23.5,13.2,21.1
		L13.2,21.1z"/>
	<path class="st45" d="M13.2,28.6c1.8-0.1,3.3-0.8,5.3-0.5c1.5,1.6,0.8,2.9-1.7,3.2C14.1,31.7,13.4,30.2,13.2,28.6z"/>
	<path class="st46" d="M125.1,95.8c0.9,0.8,2.3,0.4,3.5,0.6c-1.4,0.9-3,0.5-4.6,0.5c-9.9,0-19.9,0-29.8,0c-4.1,0-8.2,0-12.3,0
		c-1.1,0.6-2.3,0.7-3.6,0.2c-2.4-1.3-5.5,0.1-7.9-0.9c1.1-0.8,2.4-0.5,3.6-0.5C91.2,95.8,108.2,95.8,125.1,95.8z"/>
	<path class="st47" d="M70.5,96.4c2.6,0.3,5.5-0.5,7.9,0.6c-0.3,0.2-0.5,0.2-0.9,0.1c-19.6,0-39.2,0-58.8-0.1c1.4-0.9,3-0.5,4.6-0.5
		C38.9,96.3,54.7,96.4,70.5,96.4z"/>
	<path class="st48" d="M15,88.9c0.9,0,1.8,0,2.7,0c1.1,1,2.6,2.1,0.3,3.1c-1.2,0.6-2.9,0.5-4-0.3C12.3,90.6,13.7,89.7,15,88.9z"/>
	<path class="st3" d="M77.5,97c0.3,0,0.6,0,0.9-0.1c1.2,0,2.4,0,3.5,0.1c0,0.9-0.8,1.8-2,1.9C78.3,98.9,77.7,98,77.5,97z"/>
	<path class="st49" d="M13.2,82.5c0-0.2,0-0.4,0-0.6c0.3-0.2,0.6-0.4,0.9-0.5c1.2-0.7,2.3-0.7,3.5,0c0.5,0.8,2.4,1.3,1.1,2.4
		c-0.8,0.6-1.7,1.1-2.9,1C13.8,84.6,13.5,83.5,13.2,82.5z"/>
	<path class="st3" d="M17.6,81.4c-1.2,0-2.3,0-3.5,0c0.3-2.1,2.6-1.2,4-0.9C19.6,80.8,18.7,81.2,17.6,81.4z"/>
	<path class="st2" d="M184.8,9.6c1.2,0,2.4,0,3.5,0c0.8,1.7,3.2,2.1,5.2,2.9c1.1,0.4,2.3,1,1.5,1.8c-1.1,1-2-0.2-2.7-0.6
		c-1.7-0.9-2.7-2.2-5.5-2C184.8,11.8,184.9,10.5,184.8,9.6z"/>
</g>
<g id="Layer_2">
	<text transform="matrix(1.0423 -0.1328 0.1264 0.992 43.7874 67.7478)" class="st50 st51"> </text>
</g>
</svg>
