<?xml version="1.0" encoding="utf-8"?>
<!-- Generator: Adobe Illustrator 19.2.1, SVG Export Plug-In . SVG Version: 6.00 Build 0)  -->
<svg version="1.1" id="Layer_1" xmlns="http://www.w3.org/2000/svg" xmlns:xlink="http://www.w3.org/1999/xlink" x="0px" y="0px"
	 viewBox="0 0 100 100" style="enable-background:new 0 0 100 100;" xml:space="preserve">
<style type="text/css">
	.st0{enable-background:new    ;}
</style>
<g>
	<path d="M27.1,29c0.3-0.3,2.3-2.9,2.6-3.4c0.7-0.9,3.3-3.4,4-4.3l1.4-2.1c0.8-1.4,0.8-1.1,1.8-2.5c0.7-0.9,2.3-2.9,3.5-3.7
		c2-1.4,2.8-2.9,4.8-4.3c0.6-0.3,2-1.2,2.8-1.5c1.3-0.5,1.7-0.7,3.3-1.1c0.8-0.1,1.8-0.5,2.8-0.6c0.5,0,4-0.4,4.7-0.2
		c0.7,0.2,3.1,1.3,3.5,1.5s0.7,1.5,0.9,1.7C64.1,9.6,65,8.1,65.8,9c0.4,0.4,2.8,2.8,3.1,4.5c0,0.1,3.1,3.4,3.3,3.5
		c1.5,1.2,3.4,4.8,3.2,5.7c-0.7,3.2-2.6,14.8-2.7,15.4c-0.3,0.7,0.4,2.8-2.1,3.8c-1.9,0.7-5.3,2.3-3.3,2.8l0,0
		c1.9,0.5,2.4,0.2,2.7,0c0.6-0.3,0.7-0.8,1.2-1.2c2.7-2.2,4.2-4.7,5-7.4c0.8-2.5,1.1-5,1.6-7.6c0.3-1.5,0.4-3.1,0.5-4.7
		c0-1.2-0.2-2.4-0.4-3.6c-0.2-0.4-0.1-0.7-0.2-1.1c-0.2-0.3,0.1-0.6-0.5-1c-1.7-1.2-1.1-1.8-1.4-2.7c-0.2-0.3-0.1-0.6,0.2-0.8
		c0.3-0.2-0.6-0.6-1.3-1c-0.8-0.7-1.6-1.5-2-2.1c-0.4-0.5-0.3-0.9-0.2-1.3c0.4-0.6-1.1-1.5-2.9-2.5c-0.2-0.2-0.7-0.3-1.1-0.5
		c-3.1-1.6-7.5-2.6-12-3.4c-1.4-0.3-2.9-0.2-4.1-0.2c-2,0-2.6,0.5-3.4,0.9c-1.4,0.6-2.7,1.3-4.1,1.9c-0.8,0.3-1.9,0.6-2.7,1
		c-0.3,0-0.3,0.1-0.5,0.2c-1.2,0.8-2.6,1.6-3.5,2.5c-2.7,2.4-6.2,4.7-8,7.4c-0.8,1.2-2.7,2.2-4.2,3.3c-0.3,0.3-0.9,0.6-0.9,0.9
		c-0.7,2.2-2.9,4.2-4.5,6.2c-1,1.2-1.8,2.5-2.8,3.7c-0.3,0.4-1.1,0.7-1.5,1.1c-1,1.4-2.1,2.7-2.9,4.2c-1.1,1.6-2.4,3.2-3.3,4.8
		C9,43.3,8.2,45,7.3,46.6c-0.5,1.6-1.3,3.4-2,5.1c-0.7,1.9-1.1,3.8-1.7,5.8c-0.2,0.7-0.8,1.3-0.7,2.1c-0.1,1.5,0.1,3.1,0.2,4.7
		c0.1,1.6,0,3.2,0.7,4.9c1.1,2.8,2.4,5.7,7.3,9.1c2.6,1.8,6.1,3.4,12.4,5.1c3.9,1.1,7.5,1.6,10.9,1.8c4.1,0.3,7.1,0,9.6-0.3
		c5.3-0.8,9-2,13-3.2c6.8-2,12.2-4.4,17-7c3.6-1.9,6-4.1,8.7-6.2c1.2-1,2.2-2.1,3.1-3.2c1.8-1.7,3.7-3.4,5-5.1
		c1.4-1.7,2.3-3.6,3.2-5.5c1.2-2.3,2.5-4.7,3.5-7c0.5-1.1,0.5-2.3,0.5-3.5c0.1-0.5-1.9,0.3-2.2,0.5c-0.9,3-4.3,5.1-5.4,8.1
		c-0.6,1.6-4.2,6.8-5.3,8.4c-0.8,1.3-5.2,4.4-6.2,5.7c-1,1.3-4.6,3.5-5.8,4.7c-1.5,1.4-5.7,1.8-7.5,3.2c-0.6,0.6-5.4,2.3-6.3,2.9
		c-2,1.3-4.4,1.1-6.7,2.3c-2.2,1.1,0.9,0.6-1.8,1.6c-1.9,0.7-1.8,0.3-3.9,0.9c-1,0.3-5.5,0.8-6.5,1.1c-3.3,0.7-5.5-0.8-9.1-0.2
		c-2.3,0.4-2.9-1.1-7.2-1.6c-1.4-0.2-2.5-1.1-3.1-1.5c-4-2-9-4.7-10.3-6.4c-1.7-2.4-2.1-6.7-2.3-8.8c-0.5-3.2,1.9-6.2,1.9-9.2
		c-0.3-0.9,1.5-5,1.7-5.7c0.2-0.9,2.7-5.3,2.9-6.2c0.1-0.4,3.8-4.6,3.9-5C18.9,38.3,26.7,29.6,27.1,29z"/>
</g>
<g class="st0">
	<path d="M28.3,45.1l0.1,0.1l-0.2,0.1l0.1,0.1l-0.4,0l0.1-0.1l-0.4-0.1l-0.1,0.3l-0.1,0l0-0.2l-0.2,0l-0.2,0.2L26.3,46l-0.6-0.4
		l-0.4-0.4l0-0.2L25,44.4l0.1-0.1l-0.2-0.4l0.1-2.8l0.1-1.3l0-0.2l0.3-2.7l1.3-6.1l0.2-0.5l0-0.2L26.6,30l-0.5-0.4l-0.2-0.4l0-0.2
		l0.3-0.2l0.4,0l0.8-0.2l0.1-0.1l0.1,0l0.5-0.8l0.4,0.1l0.3,0.1l2.7-1l0.3,0l0.3-0.1l0.1,0l0.5,0l0.3,0.1l0.2-0.2l0.6,0l0.1-0.1
		l0.2,0l0.7-0.3l-0.2,0l0.6-0.1l0,0.2l0.1-0.1l0.1,0.1l0.4,0l0.1,0.1l0.4,0l-0.1,0.2l0.6-0.3l0.2,0.2l0.1-0.1l0-0.1l0.3,0l0.5,0.1
		l0.5,0.6l0.1,0.5l-0.1,0.2l0.1,0l0,0.2l-0.1,0.1l-0.1-0.2L38,28.1l-0.2-0.2l-0.2,0l0,0.2l0.3,0.3l-0.1,0.1l0,0.3L37.7,29l0,0.1
		l0.2-0.1l-0.2,0.3l0.2,0.1l-0.1,0l-0.1,0.1l-0.5,0.1L37,29.6l-0.2-0.1l-0.5,0.2l-0.5,0.1l-1.1,0.3l-0.3,0l-0.8,0.4l-0.3,0l-1,0.3
		L32,31.1l-0.2,0.1l-0.4,0.4l-0.2,0.5l-0.1,0.1l-0.2,0.7l0,0.3l1.8-0.6l1.3-0.2l2,0.1l-0.3,0.2L35.7,33l-1.4,0.6l-0.8,0.6l-0.1,0.4
		l-0.3,0.5l-0.2,0.8l-0.5,0.6l-0.8,0.4L31.1,37l-0.1,0.2l-0.1-0.1l-0.7,0.2l-0.4,2.5l0.1,0l3.4-1.9l0.9-0.1l0.5,0.1l1,0.5l0.1,0.7
		l0.1-0.1l0,0.2l0.1,0l-0.1,0.1l-0.1,0.4l0.2-0.3l0.1,0l-0.2,0.1l0.1,0.2l0,0.2l-0.1,0.1L35.8,40l-0.1,0.2l0.2,0l0,0.1l-0.1,0
		l-0.3,0.4l-0.1,0l0.1-0.2l-0.2,0.4l-0.2,0L34.8,41L34.7,41l-0.1,0l-0.2,0.4l-0.1-0.1l-0.5,0.2l0,0.2l-0.2,0.1l0,0.2l-0.3,0.3
		l-0.1,0L33,42.2l-0.2-0.1l0-0.1l-0.1-0.1l-0.2,0.4l0.2,0l-0.2,0.1l-0.3,0l-0.1,0.1l0.1,0.1l-0.2,0.2L31.8,43l-0.3,0.3l-0.3,0.1
		l-0.2,0.2l0-0.1l-0.2,0.2l0.1,0l-0.5,0.4l0-0.1l-0.2,0.3l-0.3,0l0.1,0.1l-0.2,0.3l0-0.1l-0.3,0.1l-0.1,0.2l-0.3,0l-0.5,0.3l0.1-0.1
		l-0.2-0.1l-0.2,0L28.3,45.1z M28.5,45.2l-0.2-0.1l0.1-0.1L28.5,45.2z M30.6,28.6l0.2,0L30.6,28.6L30.6,28.6z M31.6,28.8l0-0.3
		L31.6,28.8L31.6,28.8z M32.5,28.7l0.1-0.2l0.2-0.1l0-0.1l-0.2,0l-0.1,0.2l-0.1,0l-0.1,0.1L32.5,28.7z M33.2,28L33.2,28l0-0.1
		L33.2,28z M33.4,28.8l0.1-0.2l-0.1,0L33.4,28.8z M33.6,27.2L33.5,27l-0.1,0.1L33.6,27.2z M33.8,28.8l0.1-0.2l0.2,0l0-0.1l-0.2-0.1
		l-0.2,0.2L33.8,28.8z M33.7,26.9l0.5,0l-0.5-0.1L33.7,26.9z M34.1,28.2l0-0.2L34.1,28.2L34.1,28.2z M34.4,28.7l0.2-0.2l-0.2-0.2
		l0.1-0.2l-0.2-0.1l0,0.1l-0.1,0.2L34.4,28.7z M35,28.4l0-0.3l-0.1,0.2l-0.1-0.1l-0.1,0.2L35,28.4z M34.8,27l0.1,0l0.1-0.2L34.8,27z
		 M35.4,28.6L35.4,28.6l0-0.3l-0.2-0.1l0-0.1L35.1,28l-0.1,0.3l0.1,0l0,0.1l0.1-0.1L35.4,28.6z M35.1,27.5l0.1,0l0.1-0.1L35.1,27.5
		L35.1,27.5z M35.5,27.5l0.1-0.1l-0.1,0L35.5,27.5z M35.6,28.3l0.1-0.3l-0.1,0L35.6,28.3z M35.8,28.7l0.1-0.3l-0.3,0.1L35.8,28.7z
		 M35.8,26.8l0.2,0L36,26.6l-0.3,0.1L35.8,26.8z M35.7,28.3l0.2,0l0-0.1l-0.2,0L35.7,28.3z M35.8,38.5l0-0.1l0.1-0.1L35.8,38.5z
		 M36.1,38.8L36,39l0-0.2L36.1,38.8z M36.2,28.3L36.2,28.3L36.2,28.3L36.2,28.3z M36.7,28.5l0-0.2l-0.1-0.1l-0.1,0.2L36.7,28.5z
		 M37.5,28.7l0.1-0.3l-0.2,0L37.5,28.7z M38.3,28.6l0,0.1l-0.1,0.1l-0.1,0L38.3,28.6z M38.4,28.2l0,0.2l-0.2,0l0-0.1L38.4,28.2z
		 M38.5,29l-0.2,0.2l0.1-0.1L38.5,29z M38.6,27.8l0,0.3L38.6,27.8L38.6,27.8z"/>
	<path d="M38.1,45.3l-0.1-0.6L37.9,44l-0.1-0.2l0-0.3l0.3-0.8l0.1-1.1l0-1.5l0.3-4l1.1-6.3l0.2-0.6l0.1-0.5l0.2-0.4l0-0.7l0.2-0.7
		l0.4-0.4l0.3,0l0.4,0.1l1.7-0.4l1.3,0.1l1.6,0.3l1.5,0.5l0.6,0.4l0.1,0.1l0.3,0.1l0.6,0.4l0.8,0.9l0.4,0.7L50,30l0.2,0.1l0.3,0.3
		l0,0.6l0.1,0.1l-0.1,0.2l0.2-0.2l-0.1,0.2l0,0.1l-0.1,0.1l0.1,0.3l0.1-0.1l-0.3,0.4l0.1,0l0,0.3l-0.2,0l0,0.3l0.2,0l-0.1,0.1l0,0.6
		l-0.1,0.2l0,0.1l-0.1,0.2l-0.2,0l0,0.1l0.1,0.1l-0.2,0.2l0.2,0.1L50,34.5l-0.3,0.2l0.1,0.1L49.5,35l0-0.1L49.3,35l0.1,0.1l0.1,0
		l-0.3,0.3l0,0.2l0.2,0L49.1,36l0,0.2l-0.3,0l0,0.3l-0.1,0.1l0-0.1l0-0.1l-0.3,0.4l0.2-0.2l-0.1,0.3l-0.3-0.1L48.1,37l0.1-0.4
		l0.1,0.1l0.1-0.2l-0.2,0L48,36.6l-0.2,0l0,0.1l-0.1,0.2l0,0.2L48,37l-0.3,0.4l0.1,0l0.4-0.3l0.2,0l-0.3,0.2L48,37.7L48,37.6l-0.1,0
		l0.1-0.1l-0.1-0.1l-0.1,0.1l0,0.2l-0.1,0.1l0,0.1l-0.1,0l-0.1,0.2l0.5-0.4l-0.2,0.3l0,0.2l-0.1,0l-0.2,0.2l-0.2,0L47,38.9L46.9,39
		l0,0.2l-0.3,0.4l-0.1,0l0.1,0.1l-0.3,0l-0.4,0.4l-0.2,0l-0.1,0.2l-0.3,0.3l0-0.2l-0.5,0.3l-0.2,0.6l-0.2,0.2l0.1,0.1l0.6-0.5
		l0.1,0.1L45,41.3l0.1,0l0.2-0.2L45,41.6l-0.2-0.1l-0.4,0.3l0-0.2l-0.3,0.3l0.2,0.2l-0.1,0.4l-0.2,0l-0.1,0.2l-0.1,0l-0.1,0.1
		l0.3-0.3l-0.1-0.1l-0.2,0.2l-0.1-0.1l0.2-0.2l0.1-0.1L43.7,42l-0.1,0.1l-0.4,0.4l0.1,0.1l0,0.1l0.3,0.1L43.5,43l-0.1-0.1l-0.1,0.2
		L43.3,43l-0.1,0.1l-0.1,0.1L42.9,43l-0.1,0.2l-0.2,0.2l-0.1-0.1l0.1-0.1l0-0.1l-0.3,0.2l0,0.2l0.1,0.1l-0.7,0.8l-0.4,0.3l-0.1,0.1
		L41,44.9l-0.1,0l0.1-0.3l-0.2,0.2l-0.1,0.2l-0.2,0.1l0-0.2l-0.2,0.1l0.1,0.1l-0.1,0.1l-0.1-0.1l-0.5,0.6l-0.3-0.1L39,45.8l-0.8-0.1
		L38.1,45.3z M41.7,44.2l0-0.2L41.6,44L41.7,44.2z M42.6,42.6l0.1,0l0.4-0.6L42.9,42l-0.1-0.1l-0.3,0.3l0.1,0.1L42.6,42.6z
		 M42.7,43.5l0,0.3l-0.1,0.2l-0.1-0.3L42.7,43.5z M42.8,41.3l0.4-0.2L43.1,41l-0.1,0l-0.1,0.2L42.8,41.3z M43.1,43.4l-0.1,0l0.1-0.2
		L43.1,43.4z M43,37.5l2-2.2l1.4-1.8l0.4-0.9l0.6-1.6l0-1.1l-0.1-0.5L46.6,29L46,28.8l-0.6-0.1l-0.6,0.1l-0.1,0.4l-0.4,0.7l-0.6,2.1
		l-0.1,0.6L43.6,33l-0.4,2.4l0,0.3L43,36.1l0,0.5l-0.1,0.2L43,37.5z M43.2,42.5l0.1-0.3l0.4-0.5l0.1,0l0-0.2l0.1-0.3l-0.1-0.1
		l-0.1,0.1l0,0.2l-0.4,0.5l0,0.2l-0.2,0.1l0.1,0.2L43.2,42.5L43.2,42.5z M43.1,41.7l0.2,0l0-0.3L43.1,41.7z M43.9,42l0.1-0.2
		l0.2-0.2l0.2-0.4l-0.2,0L44,41.7l-0.1,0.2L43.9,42z M44.5,42l-0.2,0.1l0-0.1L44.5,42z M44.6,41.8l-0.2,0l0.3-0.2L44.6,41.8z
		 M44.6,40.2l0.3,0l0.1-0.3l0.2-0.2l-0.4,0.2l0,0.2L44.6,40.2z M44.8,37.9l0.1-0.2l-0.1,0L44.8,37.9z M45.2,40.7l0.1,0L45.2,41
		L45,41L45.2,40.7z M45.2,37.6l0.1,0l-0.2-0.1L45.2,37.6z M45.3,40.2l0.2-0.1l0.2,0l0.2-0.3l0.3-0.2l0-0.1l0.2-0.2l-0.1,0.1
		l-0.1-0.1L46,39.5l-0.5,0.2l0.1,0.2l-0.1,0L45.3,40.2z M45.6,40.5l-0.1,0.2l0.2-0.1l-0.4,0.3l0.1-0.3L45.6,40.5z M45.7,39.1
		l0.1-0.2l-0.1-0.1L45.7,39.1L45.7,39.1z M45.9,39.4l0.1-0.2l-0.2,0L45.9,39.4z M46,40.1l0.1-0.1L46,40.3L46,40.3L46,40.1z M46.1,39
		l0.3-0.1l0.1-0.4l0.2-0.2l-0.1-0.1l-0.3,0.3l-0.1,0.2l0.2-0.2L46.1,39z M46.2,39.6l0.5-0.2l0.2-0.9l-0.2,0.1l0,0.3l-0.1,0.1l0,0.1
		l-0.2,0.2l-0.1,0.2L46.2,39.6z M46.7,37.9L46.7,37.9l0.2-0.2l-0.2,0.1L46.7,37.9z M46.8,38.1l0.1,0L46.8,38.1L46.8,38.1z
		 M46.9,37.5l0.2-0.2l-0.1,0L46.9,37.5z M47.1,37.7l0.2-0.2l0-0.1L47.1,37.7L47.1,37.7z M47.1,38.3L47.1,38.3l0-0.1L47.1,38.3z
		 M47.2,37.8l0.2,0L47.2,37.8L47.2,37.8z M47.3,37l0.2-0.1l0-0.2l-0.2,0.2L47.3,37z M48.1,35.9l0-0.2l-0.1,0.1L48.1,35.9L48,36.1
		L48.1,35.9z M48.5,35.5l-0.1-0.1l-0.1,0.1L48.5,35.5z M48.7,37.2l-0.1,0L48.7,37.2L48.7,37.2z M48.9,35.9l0-0.2l0.1-0.2l0-0.1
		l-0.2,0.2l-0.1,0.2l0.1-0.1L48.9,35.9z M49,34.1l0-0.1L49,34.1L49,34.1z M49.6,34.3l0.1-0.2l0.1,0l0.1-0.1L49.8,34l0.1-0.1l-0.2,0
		L49.6,34.3L49.6,34.3z M49.7,35.2l-0.1,0L49.7,35.2L49.7,35.2z M50,33.7l0-0.1l-0.1,0L50,33.7z M50,34.8L50,34.8L50,34.7L50,34.8z"
		/>
	<path d="M51.6,43.4l-0.2-0.9l-0.1-1.8l-0.1-0.8l0.6-5.2l1.1-5.3l0.5-1.4l0.6-1.3l0.2-0.3l0.2-0.5l0.7-0.1l2.2,1l0.5,0.1l1,0.9
		l0,0.4l-0.1,0.1l-0.6,0.3l-0.5,0.9l-1.2,4.5l0,0.2l-0.1,0.3L56,35l-0.1,0.1l0,0.4l-0.1,0.3L55.6,36l0,0.2l-0.2,0.6l0.1,0.2
		l-0.2,0.4l0.2-0.2l0.1,0l-0.1,0.1l0,0.7l-0.2,0.9l0,0.2l0.1,0.1l-0.2,0.6L55.1,40l0,0.6L55,41.2l-0.1,0l0,0.3l-0.2,0.2l-0.1,0
		l-0.2,0.4L54,42.3l-0.2,0.3l-0.2,0L53.4,43l-0.3,0.3l-0.7,1l-0.2,0.4L52,44.5L51.6,43.4z M55,40.7l0-0.3L55,40.7L55,40.7z M55.6,38
		l-0.1,0l0.1-0.4L55.6,38z"/>
	<path d="M63.9,42.4l-0.7-2.7l0-3.2l0.7-6.6l-0.1,0.1l-0.1,0.2l-0.8,0l-0.5-0.3l-0.3-0.1L61,28.9l-0.5-0.7l-0.2-0.2L59.5,27l0.1-0.5
		l1.1-0.9l0.1,0l0.3-0.3l1.1-0.6l0,0.1l0.2,0.1l1.4-0.5l0.1,0l0.3-0.1l0-0.2l-0.3,0.1l-0.2-0.1l0-0.2l0.3,0l0.9-0.2l-0.2,0.2
		l0.3-0.1l0.2,0l0.2-0.2l0.3,0.1l0.1-0.1L66,23.8l0.4-0.2l0.7,0l1-0.2l0.2,0.1l0.1-0.1l0.8,0l1.2-0.1l1.2,0.1l0.2-0.1l0.2-0.1
		l-0.1,0.1l0.4,0l2.1,0.5l-1.7,1.7l-0.1,1.1l0,0.5l-0.1,0.3l-0.4,0.2l-1.4,0.3L70.2,28L70,28.1l-0.7,1.5l-0.3,1l-0.6,1.3l-0.6,5.4
		l0,0.4L67.7,39l0,0.7l-0.1,0.2l0.1,0.1l0,0.5l0.2,0.2L67.7,41l0.1,0.1l0.1-0.2l0,0.4l-0.2,0.1l0.1,0.1l-0.3,0.2l-0.1,0.2l-0.1,0
		L67,42l0,0.1l-0.2,0.1l0.1-0.2l-0.1-0.2l-0.1,0.1l-0.1,0.4l-0.1,0l-0.1,0.2L66,42.7l-0.1-0.2l-0.2,0.1l-0.1,0.2l-0.2-0.1l-0.2,0.4
		l-0.9-0.3L63.9,42.4z M63.4,40.1L63.4,40.1l0-0.3L63.4,40.1z M71,23.5l0.2,0.1L71,23.5L71,23.5z"/>
</g>
<g class="st0">
	<path d="M27.5,75l-0.2-0.9l-0.1-1.8L27,71.5l0.6-5.2l1.1-5.3l0.5-1.4l0.6-1.3L30,58l0.2-0.5l0.7-0.1l2.2,1l0.5,0.1l1,0.9l0,0.4
		L34.5,60l-0.6,0.3l-0.5,0.9l-1.2,4.5l0,0.2L32,66.1l-0.1,0.5l-0.1,0.1l0,0.4l-0.1,0.3l-0.1,0.1l0,0.2l-0.2,0.6l0.1,0.2l-0.2,0.4
		l0.2-0.2l0.1,0l-0.1,0.1l0,0.7l-0.2,0.9l0,0.2l0.1,0.1l-0.2,0.6l-0.1,0.3l0.1,0.6L31,72.7l-0.1,0l0,0.3l-0.2,0.2l-0.1,0l-0.2,0.4
		L30,73.9l-0.2,0.3l-0.2,0l-0.2,0.3L29,74.9l-0.7,1l-0.2,0.4l-0.2-0.2L27.5,75z M31,72.3l0-0.3L31,72.3L31,72.3z M31.6,69.6l-0.1,0
		l0.1-0.4L31.6,69.6z"/>
	<path d="M49.5,57.5l0,0.5l0.3,0.3l0,0.1l0.1,0.2l0,0.2l-0.1-0.1l-0.2-0.1l-0.1,0.1l0.2,0.1L49.7,59l0.2,0.3l0,0.4l-0.1,0.2l-0.3-1
		L49.5,59l0,0.4l0,0.3l0,0.3l0.2,0l-0.3,1.4l0,0.2l-0.2,0.5l0,0.1l0.1,0.1l0,0.3l-0.1-0.1L49.1,63l0.2-0.1l0.1,1.2l-0.1,0.5l0,0.4
		l-0.1,0L49,65l0.1,0.2l-0.1,0.3l0,0.4l-0.2,0.3l0.1,0.3l-0.1,1.4l0,0.4l-0.2,0l0.2,0.8l-0.5,4.1l-0.3,0.5l-0.1,0.6l0,0.2l-0.1,0
		l-0.2-0.1l-0.5,0l-0.2,0.2l-0.1,0l0,0.1l-0.3,0l-0.1-0.1l-0.1,0.1l0.1-0.2l0-0.2l-0.2,0.2L46,74.8l-0.3,0l0-0.1L45.3,75l0-0.2
		L45.2,75l-0.1-0.1l-0.3,0.2l-0.2-0.1L44.5,75l-0.3,0.3L44,74.8l0-0.1l-0.1-0.1l-0.2-1.1l-3.4-7.8l-0.1,0.1L40,66.8l0,0.2l-0.2,0.3
		l0.1,0.1l-0.1,0.2l0,0.2l-0.1,0.2l0.1,1l-0.2,0.5l0,0.2l-0.1,0.6l-0.4,0.5l0,0.2L39,71.3l-0.3,0.5l-0.1,0.2L38.6,72l-0.2,0.1L38,73
		l-0.1,0.2l-0.1,0.3l-0.1-0.1l-0.2,0.1l-0.1,0.5L37,74.3l-0.6,1.3l-0.3,0l-0.8-2l-0.2-2.2l0.5-6.9l0.1-0.2l0.1-1.2l0.8-3.7l0-1.1
		l0.3-0.7l0.3-0.3l0.2,0.2l0.2,0.1l0.1,0.1l0.3,0.1l0.9,0.5l1,0.3l0.2,0l0.1,0.1l0.4,0.1l0.6,0.4l0.3,0.1l0.3,0.3l0.6,0.8l0.7,1.4
		l1.2,3.1l0.1,0.1l0.2-1.2l0.1-0.1l0.5-2.2l0.2-0.7l0.2-0.8l0.1,0.1l0.2,0l0-0.3l-0.3,0.1l0.2-0.6l-0.2,0.2l0-0.3l1.1-2.7l0.1,0.3
		L47,56.9l0,0.1l0.9-0.6l-0.3-0.1l0.1-0.1l0.3-0.2l-0.1-0.2l0.4,0l0.1-0.2l0.6,0.1l-0.1,0.4l0,0.5l0.1-0.1l0.1-0.6l0,0.2l-0.1,0.6
		l0.2,0.2l-0.1,0.2l0,0.4l-0.1,0.1l0.1,0.1l0.1,0.3l0.2-0.1L49.5,57.5L49.5,57.5z M39,70.6L39,70.6l0-0.1L39,70.6z M39.2,70l0.1,0.1
		l0-0.4L39.2,70z M46.3,58.7l0.2-0.8l-0.3,0.5L46.3,58.7z M47.6,65.1l0-0.2l-0.1-0.1l0,0.3L47.6,65.1z M47.7,64.6l0.1-0.5l-0.1,0
		L47.7,64.6z M47.7,63.8l0.1,0.2L47.7,63.8L47.7,63.8z M47.7,63.4l0.1-0.2l0-0.2L47.7,63.4z M48.3,65.3l0.1-0.5l0.1-0.1l0-0.4
		l0.1-0.3l-0.2,0l-0.2-0.5l0,0.4L48,64.2l0.1,0.4l0,0.6L48.3,65.3z M48.4,63.9l0.1-0.2l0-0.3l0.1-0.3l0.1-0.3l0.1,0l0.2-0.3
		l-0.1-0.1l-0.1,0.2l-0.1-0.1l-0.2,0l-0.1,0.3L48.4,63l-0.3,0L48.4,63.9z M48.2,61.4l0.1-0.2l-0.1,0L48.2,61.4z M48.4,62.7
		L48.4,62.7l0-0.4l-0.2,0.1L48.4,62.7z M48.5,63.1l0,0.1L48.5,63.1L48.5,63.1z M48.6,62.2l0.1-0.1l0.1-0.2l0.1,0l0-0.8l-0.1,0.1
		l-0.2,0l0.1,0.7l-0.1,0.2L48.6,62.2z M49,63.9l0-0.3l0.1-0.2l-0.2-0.1l0,0.7L49,63.9L49,63.9z M49.1,59.8l0,0.4L49,60.9l0,0.2
		L49,61.6l0.1,0.2l0.1-0.7l0.2-0.5l-0.1-0.8L49.1,59.8l0-0.3L49.1,59.8z M49.4,59.5l-0.1-0.3L49.4,59.5L49.4,59.5z M50.2,59.1l0,0.1
		l-0.1,0.2l0-0.1L50.2,59.1z"/>
	<path d="M52.7,73.9l-0.2-0.8L52.3,73l-0.1-0.4l-0.4-6.2l0.8-6.3l0.2-1.3l-0.1-0.1L52,58.5L51.6,58l-0.2-0.5l0.1-0.1l0.1,0l0.1-0.2
		l1.5-1.1l0.3-0.3l0.4-0.2l1.6-0.8l3.4-1.2l0.2,0l0.7-0.2l1.2-0.1l2.5,0.7l-0.1,0.1L63,54.8l-1,0.7L61.9,56l-0.3,0.3l-0.2,0.3
		l-1.4,0.6L59,57.5l-0.2,0l-0.3,0.2L57.3,58L57,58.4L57,59.5l0.1,0l1.7-0.6l1.5-0.1l1.8,0L61.9,59l-0.3,0.5l-0.7,0.6l-0.6,1.4
		l-0.9,0.9L58,63.1l-0.4,0.2l-1.1,0.5l-0.2,0.2l-0.2,1.1l0.1,0.1l-0.1,0.3l0,1L56,67l0.2-0.1L56,67.5l-0.1,1.5L56,69l-0.1,1.6
		l-0.1,0.1l0,0.1l0.1,0.1L55.8,71l0,0.3l-0.5,1.2l-0.2,0.2L55,72.6L54.8,73l-0.2,0.2l-0.1-0.1l-0.1,0.1l0,0.3l-0.2,0.2l-0.2,0
		L54,74.2l-0.7,0.1l-0.1-0.1L52.7,73.9z M55.7,69.8l0.1-0.3l-0.1-0.1L55.7,69.8z"/>
	<path d="M63.8,71.6l-0.8-1.1l-0.5-1.3l-0.3-2l0-1.8l0.5-5.4l0.8-2.9l0.7-1.6l0.9-1.5l0.2-0.1l1.3,0l0.7-0.1l1.3,0.3l0.1,0.3l0-0.3
		l0.2,0l0.2,0.1l0.3,0l0.1,0.1l0.3,0l0.2,0.2l0.1,0.1l0.2-0.2l0.2,0.6l0.1-0.3l-0.1-0.1l0.1-0.1l0.1,0l0.2,0.3l0.1,0l0,0.1l0.1,0
		l0.1,0.1l0.1,0l-0.1,0.2l0.1,0l0.2,0.2l0.2-0.3l0.2,0.3l0,0.4l0.2,0.2l0.1-0.2l0-0.1l0.1-0.1l0.1,0.1l0,0.3l0.2,0l0.1,0.4l0.1-0.6
		l0,0.6l0.1,0.1l-0.2,0.8l0,0.1l-0.1,0.2l0.1,0.2l0.1-0.2l0.2,0.3l0.1,0.8l-0.1,0.1l0,0.2l-0.1,0.3l0,1.9l0.1,0l-0.1-0.7l0.1,0.1
		l0.2,0.1l-0.1,0.2l0,0.3l-0.1,0.2l0,0.4l-0.1,0.1l0,0.3l-0.1,0.1l0,0.2L73,62.5l0,0.6l-0.2,0.2l0,0.4l0.1,0.1l0,0.3l-0.1,0.2
		L72.6,64l0-0.5l-0.2,0.4l0,0.3l0.1,0.1l-0.1,0.1l0.1,0.7L72.3,65l0,0.3l-0.2,0.5l0,0.1l-0.1,0.1l-0.2,1.3l-0.2,0.2l0.1,0l0.1-0.1
		l-0.1,0.2l-0.2,0l-0.1,0l-0.1,0.1l0.1,0.2l0.1,0.1l-0.1,0.1l0,0.3l-0.1,0.2l-0.1,0.4l0,0.1L71,69.2l-0.1,0.2l-0.1,0.2l0,0.4l-0.3,0
		l-0.1,0.4l-0.5,0.4l0.1-0.2L69.7,71l-0.1-0.2l-0.3,0.4l-0.2,0.1l0,0.2L69,71.6l0-0.1l-0.1-0.1l-0.3,0.4l-0.2,0.5l-0.1,0l-0.1,0.1
		L68,72.1l-0.2,0.3l-0.2,0l-0.4-0.1l-0.1,0.1l-1.1,0.4l-0.7-0.2L63.8,71.6z M67.1,68.2l1.1-2.7l0.3-0.4l0.1-0.6l0.4-1.1l0.6-2.7
		l0.2-1.7l-0.3-0.6l-0.2-0.1l-0.1-0.3l-0.4-0.2l-0.3-0.1l0,0.4l-0.2,0.4L67,63.9l-0.2,2l0,0.2l-0.1,0.2l0.1,1.8L67.1,68.2z
		 M68.8,54.7l0.5-0.2l-0.2-0.1l-0.2,0.1L68.8,54.7z M69.3,55.2l0.1-0.1l-0.1-0.1L69,54.8l0,0.1L69.3,55.2z M70.3,55.6l-0.3-0.6
		l-0.2-0.2l-0.1,0l0.4,0.4l-0.2,0L69.6,55l0,0.5l0.1,0L70.3,55.6z M71.8,64.9l0.1-0.4l-0.1-0.1l-0.1,0.2L71.8,64.9z M72.7,62.8
		l0-0.3l-0.1-0.1l-0.1,0.5L72.7,62.8z M72.6,63.1l0.3,0l0-0.4l-0.1,0.2L72.6,63.1z M72.9,62.3l0.1-0.4l0.1-0.7L73,61.1l-0.1-0.3
		l0,0.9L72.8,62L72.9,62.3L72.9,62.3L72.9,62.3z M73.4,56l-0.1,0.5l-0.1-0.1L73.4,56z M73.4,57.7l-0.1-0.1l0-0.5l-0.1,0.2l0-0.6
		l0.3,0l-0.2,0.2l0.1,1l-0.1,0.3l-0.1-0.2L73.4,57.7z M73.5,59.9l0-0.4l0.1-0.1L73.3,59l0.2-0.4l0.1,1.1l-0.1,0.7L73.4,60L73.5,59.9
		z"/>
</g>
</svg>
