<?xml version="1.0" encoding="utf-8"?>
<!-- Generator: Adobe Illustrator 19.2.1, SVG Export Plug-In . SVG Version: 6.00 Build 0)  -->
<svg version="1.1" id="Layer_1" xmlns="http://www.w3.org/2000/svg" xmlns:xlink="http://www.w3.org/1999/xlink" x="0px" y="0px"
	 viewBox="0 0 100 100" style="enable-background:new 0 0 100 100;" xml:space="preserve">
<style type="text/css">
	.st0{fill:#FFFFFF;}
</style>
<g>
	<path d="M72.9,48.8C72.9,48.8,72.8,48.9,72.9,48.8c-0.5,0.3-0.6,0.6-0.6,1.1c0,0.1-0.1,0.2-0.1,0.3c-0.2,0.2-0.4,0.4-0.5,0.5
		s-0.1,0.1-0.1,0.2c0,0.2-0.1,0.3-0.4,0.3c0.1,0.2,0.1,0.3,0.2,0.5c0.2-0.2,0.4-0.4,0.6-0.6c0.1,0.3-0.2,0.8-0.7,1.1
		c0-0.1,0-0.3,0.1-0.4c-0.2-0.1-0.4,0-0.4,0.2c0,0.1-0.1,0.2-0.1,0.3c0,0.2-0.1,0.4-0.4,0.4c0.1,0.2-0.1,0.4-0.2,0.5
		c-0.3,0.2-0.5,0.4-0.6,0.7c0,0-0.1,0-0.2-0.1c0,0.2,0,0.4,0,0.6c-0.5-0.1-0.7,0.2-0.6,0.6c-0.1,0-0.2-0.1-0.3-0.1
		c0.2,0.3,0.6,0.1,0.9,0.2c-0.1,0.7-0.9,1-1,1.7c-0.4-0.1-0.7,0-0.9,0.3c-0.1,0.1-0.2,0.2-0.4,0.3c0.1,0,0.2-0.1,0.3-0.1
		c-0.1,0.2-0.2,0.4-0.4,0.5c-0.2,0.1-0.3,0.2-0.5,0.3c-0.1,0.1-0.2,0.2-0.2,0.3c-0.1,0.2-0.3,0.4-0.5,0.5c-0.1,0.1-0.3,0.5-0.2,0.7
		c-0.3,0.2-0.8,0.2-0.8,0.8c-0.1,0-0.3,0-0.4,0c0,0.9-0.7,1.3-1.1,2c0.1-0.1,0.2-0.1,0.4-0.2c0,0,0,0,0.1,0
		c-0.1,0.2-0.2,0.3-0.3,0.5c-0.2-0.3-0.5-0.1-0.7-0.1c0.1,0.1,0.1,0.2,0.2,0.3c-0.2,0-0.4,0.1-0.6,0.1c0.2,0.4,0,0.6-0.3,0.8
		c-0.2,0.1-0.3,0.2-0.6,0.4c-0.2,0-0.2,0-0.4,0.4c-0.1,0.5-0.2,0.5-0.6,0.5h-0.1c-0.1,0.1-0.2,0.3-0.4,0.4c0.1,0.1,0.1,0.1,0.5-0.2
		c0.1,0.3-0.1,0.5-0.7,0.6c0.1,0.2,0,0.4-0.2,0.6c-0.3,0.2-0.5,0.5-0.8,0.7h-0.1c-0.1,0.1-0.2,0.2-0.2,0.3c-0.1,0.2-0.1,0.5-0.2,0.6
		c-0.1,0.1-0.3,0.1-0.5,0.2c0,0.1,0.1,0.2,0.1,0.3c-0.3,0.2-0.6,0.7-1.1,0.7l-0.1-0.1c0.1,0,0.2,0,0.2-0.1c-0.5,0-0.5,0.6-0.7,0.8
		c-0.2-0.1-0.4-0.1-0.6-0.2c0,0,0-0.1,0-0.2c-0.3,0.2,0.1,0.3,0,0.5c-0.1,0-0.2,0-0.3,0c0.1,0.4-0.3,0.6-0.4,0.8
		c-0.1,0.1-0.3,0.1-0.5,0.1c0,0-0.1,0-0.1,0.1c-0.1,0.3-0.4,0.4-0.7,0.6c-0.2,0.1-0.3,0.3-0.5,0.4c-0.7,0.4-1.4,0.7-2,1
		c-0.8,0.4-1.6,0.8-2.4,1.2c-0.3,0.1-0.6,0.2-1,0.3v-0.1c0.3-0.2,0.7-0.3,1-0.5c-0.1,0-0.2-0.1-0.2-0.1c0-0.1,0.4-0.3,0.7-0.3
		c-0.1,0.1-0.2,0.1-0.3,0.2c0,0,0,0,0,0.1c0.2-0.1,0.3-0.1,0.5-0.2c0.1,0,0.3-0.1,0.5-0.1s0.3-0.1,0.3-0.3c0-0.2,0-0.3,0-0.5
		c-0.1,0-0.2,0-0.3,0.2c0,0.1-0.1,0.2-0.1,0.3c0,0.1-0.1,0.1-0.2,0.1c-0.1,0-0.1-0.1-0.1-0.2c0-0.2,0-0.4,0.2-0.4
		c0.3-0.1,0.4-0.2,0.6-0.4c0.3-0.3,0.6-0.5,1-0.8v-0.1c-0.1,0-0.2,0-0.3,0.1s-0.3,0.2-0.4,0.3c-0.1,0.2-0.4,0.2-0.5,0.3
		c-0.1,0-0.1,0.2-0.2,0.3c-0.1,0-0.2,0-0.3,0c0-0.1-0.1-0.1-0.1-0.2c0,0.1-0.1,0.2-0.1,0.2c0-0.1-0.1-0.1-0.1-0.2
		c-0.5,0.2-0.9,0.5-1.1,1c-0.5-0.3-0.7,0.1-1.2,0.2c0.1-0.1,0.1-0.3,0.2-0.4l0,0c-0.2,0.2-0.4,0.3-0.6,0.5c0,0,0,0-0.1-0.1
		c0.1-0.1,0.2-0.2,0.2-0.4c0-0.1,0-0.2,0.1-0.3c-0.1,0-0.2,0-0.2,0c-0.2,0-0.3,0.1-0.5,0.1c0.2-0.4,0.2-1,0.9-1
		c-0.1-0.6,0-1,0.6-1.2c0-0.1-0.1-0.2-0.1-0.2c0-0.1,0.1-0.2,0.1-0.3c0.1-0.2,0.3-0.3,0.4-0.5c0.1-0.3,0.3-0.6,0.7-0.6
		c0-0.1,0-0.2-0.1-0.4c-0.2,0-0.3,0.2-0.3,0.3c-0.1,0.2-0.2,0.3-0.4,0.3c0.1-0.2,0.2-0.3,0.3-0.5c0,0,0,0-0.1,0
		c0.1-0.1,0.4-0.1,0.3-0.3l0.1-0.1c0.1-0.1,0.2-0.3,0.2-0.4l0.1-0.1c0.2-0.1,0.3-0.3,0.3-0.5c0.2,0,0.3,0,0.5,0
		c-0.1-0.2-0.2-0.3-0.3-0.5c0,0-0.1,0-0.2,0l-0.1-0.1l0.1-0.1c0.2,0,0.3,0.1,0.5,0.1c0,0,0.1-0.1,0.1-0.2c-0.4-0.1-0.6-0.2-0.7-0.6
		L49,65.8c-0.1,0-0.1,0-0.2,0c-0.3-0.1-0.3-0.2-0.1-0.4c0.1,0,0.2,0,0.3,0c0-0.1-0.1-0.1-0.1-0.2c0.1,0,0.2,0,0.3,0
		c0.3,0.1,0.7,0.2,1,0.4c0.4,0.2,0.6,0.1,0.6-0.4c-0.1,0-0.2,0-0.3,0c0.1-0.2,0.3-0.3,0.7-0.2c0,0.1,0,0.2-0.1,0.3
		c0.2,0,0.3,0,0.5-0.1c0.1,0,0.2-0.1,0.3-0.2c-0.1-0.1-0.2-0.2-0.3-0.3c-0.1-0.1-0.2,0-0.4-0.1c0,0,0,0,0-0.1c0.1,0,0.3-0.1,0.4-0.1
		c0.3,0,0.3,0,0.3-0.4c0-0.2,0.1-0.3,0.3-0.3c0.1,0,0.2,0,0.3,0c0.3,0,0.3-0.1,0.2-0.3c0-0.1-0.1-0.1-0.1-0.2
		c0.5-0.1,0.8-0.4,0.7-0.6c-0.1,0.1-0.2,0.1-0.3,0.2c0,0,0,0,0-0.1c0.2-0.2,0.4-0.5,0.7-0.8c0,0.3,0,0.5,0,0.7
		c0.4-0.1,0.6-0.6,0.4-1c0-0.1,0.1-0.1,0.1-0.2c0.1-0.3,0.3-0.2,0.4-0.1c0.1,0,0.1,0.1,0.2,0.1c0,0,0,0,0-0.1
		c-0.1-0.1-0.2-0.2-0.4-0.3c0.2,0,0.4,0,0.7,0c0-0.1-0.1-0.2-0.1-0.3c-0.2-0.1-0.1-0.2-0.1-0.3c0.2-0.3,0.4-0.6,0.8-0.6h0.1
		c-0.1-0.1-0.1-0.1-0.2-0.1c0.3-0.5,0.7-0.9,1.2-1.2c0,0.1-0.1,0.2-0.1,0.2s0,0,0.1,0c0.1-0.2,0.2-0.4,0.5-0.3c0.1-0.4,0-0.8,0.4-1
		c0,0.1,0.1,0.2,0.1,0.2c0.1-0.3,0.2-0.5,0.3-0.7c0.2-0.3,0.4-0.6,0.8-0.7c0.3-0.1,0.3-0.1,0.3-0.4C59.1,55.9,59,56,59,56
		c0.1-0.3,0.2-0.6,0.3-0.9c0.1-0.2,0.1-0.4,0.2-0.6l0,0c0.2-0.2,0.4-0.2,0.6,0c0.1-0.2,0.3-0.3,0.4-0.5c-0.1-0.5-0.1-0.5,0.1-0.6
		c0,0.1,0,0.2,0,0.3c0.2-0.1,0.4-0.2,0.5-0.3c-0.1-0.1-0.3-0.2-0.4,0c-0.2-0.3-0.1-0.6,0.3-0.8c0,0.1-0.1,0.3-0.1,0.4
		c0.3,0,0.4-0.5,0.8-0.3c0-0.4,0.3-0.9,0.6-1c0,0.1-0.1,0.1-0.1,0.2c0,0,0,0,0.1,0c0.1-0.2,0.3-0.3,0.4-0.5c0.2-0.4,0.4-0.8,0.6-1.2
		c0.1-0.1,0.1-0.2,0.3-0.2s0.2-0.1,0.2-0.2c0-0.1,0-0.2,0.1-0.4c-0.1,0-0.2,0-0.3,0c0,0,0,0,0-0.1c0.1-0.1,0.2-0.1,0.3-0.2
		c-0.1-0.2,0.2-0.5-0.2-0.7c0.1-0.1,0.2-0.3,0.2-0.4c0,0,0,0,0.1,0c0,0.2,0,0.4,0,0.6c0,0.2,0,0.4,0.1,0.5c0,0,0.1,0,0.2,0.1
		c0-0.1,0-0.2,0-0.2c-0.2-0.2-0.1-0.3,0-0.4c0.1-0.1,0.2-0.1,0.3-0.2c0.1-0.1,0.2-0.1,0.3-0.2c0.1-0.1,0-0.2,0.1-0.3
		c-0.1,0-0.2,0-0.2,0h-0.1c0-0.2,0-0.3-0.3-0.4c0.1-0.2,0.2-0.3,0.3-0.4l0,0c0,0.1-0.1,0.2-0.1,0.3c0.3,0,0.4,0,0.5-0.3
		c0-0.1,0.1-0.2,0.1-0.3s0.1-0.1,0.2-0.1c0,0,0.1,0.1,0.1,0.2c0,0.1,0.1,0.1,0.1,0.2h0.1c0-0.3,0-0.6,0-0.9c0.3,0.1,0.5,0.1,0.7,0
		v-0.1c-0.2,0-0.3,0-0.5,0c0.1-0.3,0.4-0.3,0.6-0.4c0-0.2,0-0.3,0-0.5c0.1-0.3,0.1-0.3-0.3-0.4c-0.1,0-0.2,0-0.2-0.1
		c-0.1-0.1-0.1-0.1-0.1-0.2c0.2,0,0.3,0,0.4,0c0.3-0.2,0.6-0.4,0.9-0.6c0,0,0,0,0.1,0s0.1,0.1,0.3,0.2c0.1-0.1,0.1-0.3,0.2-0.5
		c-0.2,0.1-0.3,0.2-0.5,0.3c0-0.2,0-0.5,0-0.7c0,0,0-0.1,0.1-0.1c0.1-0.3,0.3-0.6,0.4-0.8c0.2-0.5,0.3-0.9,0.5-1.4
		c0.1-0.2,0-0.3,0.1-0.5c0-0.1,0-0.2,0.1-0.3c0.1-0.3,0.2-0.6,0.3-0.8v-0.1c-0.1-0.1-0.1-0.2,0-0.4s0.2-0.4,0.3-0.6c0,0,0,0-0.1-0.1
		c-0.1,0-0.3,0.1-0.4,0.1c0,0.3,0.1,0.6-0.1,0.8c-0.2-0.1-0.3-0.3-0.5-0.4c0.2-0.2,0.2,0.2,0.4,0.1c0.1-0.3,0-0.6-0.3-0.9
		c0.1,0,0.2-0.1,0.3-0.1c-0.1-0.2-0.5-0.4-0.2-0.7c-0.1,0-0.2-0.1-0.2-0.1c0.1-0.4,0.3-0.5,0.6-0.6c0.1,0.3-0.2,0.3-0.3,0.5
		c0.3,0,0.5,0,0.6-0.3c0.1-0.2,0.3-0.3,0.4-0.4c0,0,0.1-0.1,0.1-0.2c-0.3-0.1-0.5,0.4-0.8,0.2c0-0.2,0-0.4,0-0.6c0-0.1,0-0.2,0-0.2
		c0.2-0.2,0-0.3-0.2-0.4c0.1-0.4,0-0.6-0.2-0.8c0.1,0,0.1-0.1,0.2-0.2c-0.2-0.2-0.4-0.5-0.6-0.7c-0.1,0.2-0.2,0.3-0.3,0.4
		c-0.2-0.2,0-0.3,0.1-0.4c0.3-0.3,0.3-0.3,0.1-0.6c0-0.1-0.1-0.1-0.1-0.2c-0.1-0.2-0.2-0.2-0.3,0c0,0.1-0.1,0.1-0.2,0.1
		c-0.1-0.3-0.2-0.6-0.3-1c0.4,0.1,0.4,0.4,0.4,0.6c0.2,0,0.3-0.1,0.2-0.3c-0.2-0.3-0.4-0.5-0.6-0.8h-0.1c0,0.1-0.1,0.2-0.1,0.2h-0.2
		c-0.2-0.4-0.6-0.4-1-0.4c-0.5,0.1-0.9,0.2-1.4,0.4c0,0-0.1,0-0.1,0.1c-0.3,0.2-0.7,0.4-1,0.6c-0.4,0.2-0.7,0.3-0.9,0.7
		c-0.1,0.1-0.2,0.2-0.3,0.2c-0.3,0-0.4,0.3-0.5,0.5c0,0.1-0.1,0.2-0.1,0.3c-0.5,0-0.6,0.2-0.7,0.7c0,0.1-0.1,0.1-0.2,0.2
		c-0.1,0.1-0.2,0.2-0.3,0.3c0,0,0,0,0,0.1c-0.7,0.2-0.7,0.2-0.6,0.4c0.1,0,0.1-0.1,0.3-0.1c-0.1,0.2-0.2,0.3-0.3,0.4
		c-0.5,0-0.3,0.5-0.6,0.7c0.3,0.2,0.1,0.4,0,0.6h-0.1c0-0.1,0.1-0.2,0.1-0.3c0,0,0,0,0-0.1c-0.1,0.1-0.3,0.2-0.4,0.3
		c-0.1,0.2-0.3,0.4-0.4,0.6c-0.2,0.3-0.2,0.2,0.2,0.4c-0.1,0-0.2,0.1-0.2,0.1c-0.3-0.1-0.3,0.1-0.4,0.2c-0.4,0.7-0.9,1.4-1.3,2.1
		c0,0,0-0.1-0.1-0.1c0,0,0,0-0.1,0c0,0.2,0,0.4,0.1,0.6c-0.1,0.1-0.2,0.2-0.4,0.3c-0.1,0.1-0.2,0.1-0.2,0.2
		c-0.1,0.1-0.1,0.2-0.1,0.3c-0.3,0.9-0.8,1.6-1.3,2.4c-0.4,0.5-0.7,0.9-1.1,1.4v-0.1c-0.1,0-0.3,0-0.4,0.1c-0.1,0-0.1,0.2-0.1,0.3
		c-0.3,0.2-0.6,0.6-1.1,0.7c-0.4,0.1-0.7,0.6-1.3,0.5c0.1-0.1,0.1-0.1,0.2-0.1l0.1-0.1c0-0.4,0-0.8,0-1.2c-0.3,0.3-0.9,0.2-1,0.7
		c-0.8-0.2-1.4-0.7-2-1.3l-0.1-0.1c-0.2,0.1-0.3-0.1-0.4-0.2c-0.2-0.3-0.4-0.6-0.5-0.8c0-0.1-0.1-0.2-0.1-0.2
		c-0.1-0.3-0.1-0.5-0.2-0.8c0-0.1-0.1-0.2-0.1-0.3s0.2-0.1,0.2-0.1c0-0.1,0-0.3,0-0.4l-0.1-0.1L46,41.9V42c-0.2-0.1-0.3-0.3-0.2-0.6
		c0.1,0.1,0.1,0.1,0.2,0.2c0-0.1,0.1-0.1,0.1-0.2c-0.1,0-0.1-0.1-0.2-0.1c-0.1,0-0.1,0-0.2,0c-0.1,0-0.1-0.1-0.1-0.1v-0.1
		c0,0,0.1,0,0.2,0c0.1,0,0.2,0,0.3,0c0-0.1,0-0.2-0.1-0.3c0-0.1-0.2-0.1-0.2-0.1c-0.1,0-0.2,0.1-0.3,0.1c0-0.1-0.1-0.3-0.1-0.4
		c0,0,0,0,0.1-0.1c0.1,0.1,0.2,0.1,0.4,0.2c-0.1-0.4-0.1-0.9-0.6-1.1c0.1,0.3,0.2,0.5,0.3,0.8c-0.3-0.1-0.4-0.2-0.5-0.4
		s-0.2-0.5-0.3-0.7c-0.2-0.4-0.4-0.8-0.5-1.2c-0.1-0.1-0.1-0.2-0.2-0.4c-0.1-0.2-0.3-0.4-0.4-0.6c-0.2-0.3-0.4-0.6-0.6-1
		c-0.1-0.2-0.3-0.4-0.4-0.6c-0.1-0.1-0.2-0.3-0.3-0.4c0-0.1-0.1-0.1-0.1-0.2c-0.2-0.2-0.3-0.5-0.5-0.6c-0.4-0.1-0.5-0.3-0.7-0.6
		s-0.5-0.6-0.9-0.7c-0.2-0.1-0.4-0.1-0.5-0.4l-0.1-0.1c-0.5-0.2-1-0.4-1.4-0.6c-0.5-0.2-1-0.3-1.5-0.3c-0.9,0-1.7,0.5-2.5,0.9
		c-0.4,0.5-0.9,0.9-1.1,1.6c0,0.1,0,0.2-0.1,0.2l0,0c0-0.1,0-0.1-0.1-0.2c-0.3,0.3-0.4,0.7-0.5,1.1c-0.1,0.4-0.2,0.7-0.3,1.1
		c0,0.1,0,0.2,0,0.3s0.1,0.2,0,0.2c-0.2,0.1-0.1,0.3-0.1,0.5c0,0.1,0.1,0.3,0,0.4c-0.1,0.2-0.1,0.3,0.1,0.5
		c-0.2,0.3-0.2,0.4,0.2,0.6c-0.1,0.1-0.2,0.1-0.3,0.2c0,1.3,0.2,2.7,0.4,4c0.2,1.1,0.5,2.2,0.8,3.3c0,0.1,0.1,0.2,0.2,0.3
		c0,0.1,0,0.2,0,0.3c0.1,0.2,0.2,0.5,0.4,0.7c0.2,0.4,0.4,0.7,0.5,1.1c0,0.2,0.1,0.5,0.4,0.5l0.1,0.1c0.2,0.5,0.4,1,0.6,1.4
		c0,0.1,0.1,0.2,0.2,0.2c0.3,0.2,0.6,0.4,0.5,0.9c0.2,0,0.2,0,0.3,0.2c0.1,0.3,0.3,0.5,0.5,0.7c0.1,0.2,0.3,0.4,0.5,0.6
		c0.5,0.6,0.8,1.4,1.6,1.8l0,0c0.2,0.3,0.3,0.5,0.5,0.8l0.1,0.1c0.3,0.1,0.4,0.3,0.6,0.5c0,0.1,0.1,0.1,0.2,0.2
		c0.2,0.2,0.5,0.4,0.7,0.6c0.3,0.3,0.3,0.5,0,0.8c0,0,0,0,0,0.1c0.2,0.1,0.2-0.1,0.3-0.2c0.5,0.3,0.6,0.4,0.8,0.8
		c0.2-0.1,0.2-0.1,0.3,0.1c0.2,0.2,0.3,0.4,0.5,0.6c0.1,0.1,0.3,0.2,0.5,0.3c0.4,0.2,0.6,0.8,1,1c0.3,0.1,0.5,0.4,0.7,0.6
		c0.3,0.2,0.7,0.5,0.9,0.9c-0.1,0-0.1,0-0.2,0.1v0.1c0.1,0,0.2,0,0.3,0s0.2,0,0.3,0.1c0.4,0.2,0.8,0.4,1.1,0.8
		c0,0.1,0.1,0.1,0.2,0.1c0.5,0.2,0.9,0.5,1.1,0.8c0,0.2-0.1,0.2-0.1,0.3c-0.2,0-0.3-0.1-0.3-0.3c0-0.1-0.1-0.2-0.1-0.3
		c-0.1,0.2-0.2,0.3-0.4,0.4c-0.3-0.3-0.6-0.5-0.9-0.8c-0.2,0.1-0.3-0.1-0.5-0.2c0.1-0.2,0.5-0.1,0.3-0.5c-0.9,1.3-1.1,1.3-1.4,1
		c-0.1,0.2-0.3,0.1-0.4,0v-0.1c-0.1-0.4-0.1-0.4-0.5-0.2c-0.3,0.1-0.4,0.1-0.5-0.2c0-0.1,0-0.2-0.1-0.3c-0.2,0-0.3,0-0.5,0
		c0.2-0.4-0.1-0.4-0.3-0.5S42.9,62.2,43,62c0.1-0.1,0-0.2-0.2-0.2c0,0.1,0,0.1,0.1,0.2c-0.3,0.1-0.3,0.1-0.2-0.4
		c-0.2,0.1-0.3,0.2-0.5,0.3c-0.3-0.2-0.5-0.4-0.8-0.6v-0.1c0.2-0.1,0.4-0.1,0.7-0.2c0,0,0-0.1,0-0.2h-0.2c-0.1,0-0.2,0.1-0.3,0.1
		c-0.2-0.2-0.4-0.4-0.5-0.6c-0.2,0.1,0.1,0.5-0.3,0.4c0,0,0-0.2-0.1-0.4c-0.2,0-0.6,0.2-0.6-0.3c0.1,0,0.3,0.1,0.5,0.1
		c-0.2-0.4-0.5-0.3-0.7-0.3c0-0.3,0-0.5-0.1-0.8c-0.1,0.2-0.2,0.3-0.3,0.4c0,0.1,0.2,0.2,0.2,0.3c-0.5-0.2-0.9-0.5-1.2-0.9
		c0.1,0,0.3,0,0.4,0.1c0,0,0,0,0-0.1c-0.1-0.1-0.2-0.2-0.3-0.3c-0.1,0-0.2,0.2-0.3,0.1c-0.1-0.1-0.1-0.2-0.2-0.3h0.1
		c0,0.1,0.1,0.1,0.1,0.2l0.1-0.1c0-0.1,0-0.1-0.1-0.1c-0.2-0.1-0.4-0.3-0.6-0.4c0,0-0.1,0.1-0.2,0.1c-0.1-0.1-0.2-0.2-0.3-0.4
		c0,0,0,0,0.1-0.1c0.1,0.1,0.3,0.2,0.4,0.3c0.1-0.1,0.1-0.2,0.1-0.3c-0.2-0.1-0.5-0.2-0.7-0.2c0,0,0,0.1-0.1,0.3
		c-0.2-0.2-0.4-0.3-0.6-0.5c-0.3-0.3-0.6-0.5-0.8-0.8c-0.1-0.1-0.1-0.2,0-0.3c0.1,0,0.1-0.1,0.2-0.2h-0.1c-0.4,0.1-0.6,0-0.8-0.3
		c-0.3-0.3-0.6-0.6-0.9-1c-0.1-0.1-0.2-0.3-0.3-0.4c0.1,0,0.2,0,0.3,0c0.1-0.3,0-0.4-0.3-0.4c0.1,0.1,0.2,0.1,0.3,0.2
		c-0.1,0.2-0.3,0.2-0.4,0.1c-0.3-0.1-0.3-0.3-0.2-0.6c-0.2,0.1-0.3,0.3-0.5,0c-0.1-0.2-0.2-0.3-0.3-0.4c-0.2,0-0.3,0.1-0.4,0.1
		c-0.1,0-0.1-0.2-0.2-0.3c0.5,0,0.7-0.1,0.6-0.6c-0.1,0.1-0.1,0.2-0.1,0.3c-0.4-0.2-0.6-0.6-0.9-0.9c-0.2-0.4-0.4-0.7-0.6-1.1
		c-0.1-0.1-0.1-0.3-0.3-0.3l-0.1-0.1c0-0.4-0.2-0.6-0.5-0.8c-0.2-0.1-0.3-0.3-0.4-0.5c-0.1-0.3-0.2-0.6-0.5-0.8
		c0.1-0.3,0.1-0.6-0.2-0.8c-0.1,0-0.1-0.1-0.1-0.2c0-0.1-0.1-0.2-0.1-0.3c0-0.4-0.5-0.3-0.6-0.6c0,0-0.2,0.1-0.3,0.1
		C27.8,46,27.8,46,28.1,46c0-0.3,0-0.6,0-0.9c0-0.1,0-0.2,0-0.2c-0.2-0.2-0.2-0.5-0.2-0.7c-0.1-0.4-0.3-0.7-0.4-1.1
		c0-0.1,0-0.2,0-0.2c0-0.3-0.2-1.2-0.4-1.5c0,0.1,0,0.2-0.1,0.3c-0.1-0.1-0.2-0.2-0.3-0.3c0,0.2,0,0.4,0,0.6c0,0.2,0,0.4,0,0.5
		s-0.1,0.1-0.2,0.3c0-0.2,0-0.2,0-0.3c0-0.2,0.1-0.5-0.1-0.7c-0.1-0.1,0-0.2,0-0.4c0.1-0.2,0.1-0.3,0.2-0.5s0.2-0.4,0-0.6
		c-0.1-0.1-0.2-0.4-0.2-0.6c0-0.2-0.1-0.5-0.1-0.8C26.2,39,26.2,39,26.1,39c-0.2,0.3-0.2,0.6,0,0.9c0.1,0.1,0.1,0.2,0.1,0.3
		S26,40.4,26,40.4c-0.1-0.5-0.3-0.9-0.4-1.3c-0.2-0.5-0.2-1,0-1.5c-0.1-0.1-0.2-0.2-0.3-0.3c0.2-0.1,0.3-0.1,0.5-0.2
		c0,0.2,0,0.3-0.1,0.4c0.1-0.1,0.2-0.1,0.3-0.1c0-0.2-0.3-0.3-0.1-0.5c0.1-0.1,0.2-0.2,0.3-0.3h0.1c0-0.1,0-0.3,0-0.4h-0.1
		c0,0.1,0,0.1,0,0.2c0,0.1-0.1,0.1-0.1,0.2c0-0.1-0.1-0.1-0.1-0.2c0-0.1,0-0.3,0-0.5c-0.1,0.1-0.2,0.2-0.3,0.2
		c-0.1,0.1-0.2,0.2-0.3,0.3c0,0,0,0-0.1,0c0-0.3-0.1-0.6-0.1-0.9c0-0.1,0.1-0.3,0.1-0.4c0-0.1,0.1-0.2,0.1-0.3c-0.1,0-0.2,0-0.3,0
		c-0.1-0.2,0.5-0.2,0.1-0.5c0.2,0,0.3,0,0.5,0c0,0.2-0.1,0.3-0.1,0.4c0,0,0,0,0.1,0.1c0.2-0.1,0.3-0.3,0.5-0.4c0,0,0.1-0.1,0-0.1
		c0-0.2-0.1-0.4-0.1-0.6c0-0.1,0-0.3,0-0.4c-0.2,0-0.3,0.3-0.4,0.4c-0.1-0.3,0.1-0.4,0.6-0.8c-0.2-0.2-0.3-0.2-0.4,0.1
		c-0.1,0.1-0.1,0.2-0.2,0.3h-0.1c0.1-0.3,0.2-0.6,0.3-0.9c0.3,0,0.5,0.2,0.7-0.2c-0.2,0-0.4,0-0.5,0.1c0.2-0.5,0.4-1,0.7-1.5
		c0.1-0.1,0.2-0.2,0.3-0.3c0.4-0.4,0.8-0.9,1.3-1.3c0.1-0.1,0.3-0.3,0.5-0.4c0.3-0.1,0.5-0.4,0.8-0.6c1-0.7,2.1-1.2,3.3-1.5
		c1.8-0.5,3.7-0.7,5.6-0.6c1.1,0.1,2.3,0.3,3.3,0.7c0.5,0.2,0.9,0.4,1.4,0.5c0,0,0.1,0,0.1,0.1c0.3,0.4,0.7,0.5,1.1,0.7
		c0.2,0.1,0.3,0.2,0.4,0.3c0.1,0,0.1,0.1,0.2,0.1c0.7,0.2,1.1,0.6,1.6,1c0.2,0.2,0,0.3-0.1,0.4c0.2,0,0.3,0,0.4,0
		c0,0.1-0.1,0.2-0.1,0.3c0.2,0.1,0.5-0.1,0.6,0.3c0.4,0.1,0.7,0.4,0.9,0.8l0.1,0.1c0.3,0,0.4,0.2,0.5,0.4c0.1,0.2,0.2,0.3,0.3,0.5
		c-0.1,0.1-0.3,0.1-0.4,0.2c0,0,0,0,0,0.1c0.1,0,0.3-0.1,0.4-0.1c0,0,0,0,0,0.1c-0.1,0-0.1,0.1-0.2,0.1c-0.1,0-0.1,0.1-0.2,0.1
		c0.1,0,0.1,0.1,0.2,0.1l0,0c0.2,0.3,0.3,0.5,0.5,0.8c0.1-0.2,0-0.4-0.2-0.5c-0.1-0.1-0.1-0.1-0.1-0.2c0.1,0,0.1,0,0.2,0
		c0.3,0.1,0.4,0.4,0.5,0.6c0.1,0.4,0.3,0.7,0.6,0.9c0.2,0.1,0.1,0.2,0,0.3s-0.1,0.2-0.2,0.3c0,0,0.1,0,0.1,0.1
		c0.1-0.1,0.1-0.2,0.2-0.3c0.1,0,0.2,0,0.3-0.1c0.2-0.1,0.4-0.2,0.4-0.5c0,0,0-0.1,0.1-0.1c0.5-0.6,0.9-1.1,1.4-1.7
		c0.1-0.1,0.3-0.3,0.5-0.4c0.1-0.1,0.3-0.1,0.2-0.3l0.1-0.1l0.1-0.1c0-0.4,0.3-0.5,0.6-0.6c0.2-0.1,0.3-0.2,0.3-0.4
		c0-0.1,0.2-0.2,0.3-0.3c0.4-0.3,0.9-0.5,1.1-1c0.1-0.1,0.2-0.1,0.3-0.2c0.3-0.2,0.5-0.4,0.8-0.6c0.5-0.4,1.1-0.7,1.7-0.9
		c0.1,0,0.2-0.1,0.2-0.1c0.2-0.1,0.4-0.3,0.6-0.4c0.6-0.2,1.2-0.5,1.8-0.7c1.6-0.6,3.2-0.9,4.9-0.8c0.4,0,0.8,0,1.1,0
		c0.2,0,0.4,0.1,0.5,0.2h0.1c0.5,0.1,0.9,0.2,1.4,0.3c0.2,0,0.2,0.1,0,0.3c0.1,0.1,0.2,0.2,0.3,0.2c0.1,0,0.2,0,0.3,0
		c0.1,0,0.2,0,0.3,0.1c0.4,0.4,0.8,0.7,1.2,1.1c0.2,0.1,0.3,0.2,0.4,0c0,0,0,0,0.1,0c0,0.2-0.1,0.3-0.1,0.4c0.2,0.3,0.4,0.6,0.6,0.8
		c0.1,0.1,0.2,0.2,0.3,0.1c0.1,0,0.2,0,0.3,0c-0.2,0.2-0.5,0.3-0.1,0.6c0.3-0.2,0.4-0.2,0.5,0.1c-0.1,0-0.1,0-0.2,0s-0.1,0-0.2,0
		c0.1,0.2,0.2,0.2,0.4,0.2c0.2,0,0.5,0.3,0.4,0.5c0,0.1-0.1,0.1-0.1,0.1c-0.3-0.1-0.3,0.1-0.3,0.3c0,0,0,0.1,0,0.2
		c0.3,0.1,0.4-0.5,0.8-0.3c-0.1,0.1-0.1,0.2-0.2,0.2c-0.2,0.1-0.3,0.2-0.2,0.4c0.1,0.2,0.1,0.3,0.1,0.5s0.2,0.3,0.4,0.4
		c0.1,0.1,0.2,0.1,0.3,0.2v0.1c-0.2,0-0.4,0.1-0.6,0.1c0.2,0.2,0.3,0.3,0.4,0.5c0.1-0.2,0.1-0.2,0.1-0.3c0.1,0,0.1,0,0.2,0.8
		c-0.1,0-0.2,0-0.3,0.1c0,0.1,0.1,0.2,0.1,0.3c0.1-0.1,0.2-0.1,0.2-0.1c0.1,0.3,0.2,0.7,0.2,1c0.3,1.2,0.3,2.5,0.2,3.7
		c-0.1,1.1-0.2,2.2-0.3,3.2c-0.1,0.1-0.2,0.1-0.4,0.2c0.1,0.1,0.2,0.2,0.3,0.2c-0.1,0.1-0.2,0.3-0.3,0.4c-0.1,0.1-0.2,0.1-0.3,0.2
		c0.1,0,0.2,0.1,0.2,0.1c0,0.1-0.1,0.3-0.1,0.4c-0.1,0.5-0.1,1.1-0.4,1.5c-0.1,0.1-0.1,0.3,0,0.4c0,0.3-0.1,0.4-0.2,0.5h-0.1
		c0.1-0.1,0.1-0.2,0.2-0.4c-0.2,0-0.3,0-0.3,0.2c0,0.4-0.1,0.8-0.1,1.2c0,0.1-0.1,0.2-0.2,0.3c0,0.1,0,0.3,0,0.4l0,0
		c-0.2,0.2-0.3,0.4-0.5,0.6c0,0.1-0.1,0.1-0.1,0.2c-0.1,0.3-0.2,0.2-0.4,0.1c0,0,0,0,0,0.1c0.1,0.1,0.1,0.2,0.2,0.2
		C72.9,48.6,72.9,48.7,72.9,48.8L72.9,48.8z M46.7,72.5L46.7,72.5c0.7-0.6,1.3-1.3,1.9-2.1c0-0.3,0.2-0.4,0.6-0.6
		c0.1,0,0.1-0.1,0.2-0.1c0.2-0.4,0.5-0.7,0.7-1.1c0.1-0.2,0.3-0.3,0.5-0.4c0.1-0.1,0.1-0.2,0.1-0.3h-0.1c-0.1,0.1-0.2,0.2-0.3,0.4
		c-0.4,0.4-0.7,0.7-1.1,1.1c-0.3,0.3-0.2,0.3-0.6,0.2c0,0.2,0.2,0.4,0,0.6c-0.2,0.1-0.4,0.2-0.6,0.3c0.1,0.2,0,0.4-0.2,0.6
		c-0.1,0.1-0.2,0.2-0.3,0.2c-0.1,0.1-0.1,0.1-0.2,0.2c-0.1,0.2-0.2,0.4-0.3,0.6C46.9,72.2,46.8,72.4,46.7,72.5z M47.4,72.6
		c0.4,0,0.5-0.2,0.6-0.4c0.2-0.3,0.4-0.4,0.7-0.4c0.1-0.2,0.2-0.5,0.5-0.6c-0.1,0.1-0.2,0.3-0.3,0.4c0,0,0,0.1,0.1,0.1
		c0.1-0.1,0.4-0.1,0.4-0.2c0-0.2-0.1-0.4-0.1-0.7c-0.2,0.2-0.3,0.3-0.5,0.4c-0.4,0.4-0.7,0.9-1.2,1.1C47.5,72.3,47.5,72.5,47.4,72.6
		z M66.5,29.1c-0.1-0.2,0-0.5-0.2-0.6c-0.1,0.1-0.2,0.4-0.3,0.1c0,0,0,0-0.1,0.1c0,0.1,0,0.2,0,0.4c0,0-0.1,0.1-0.2,0.1
		c0-0.2-0.1-0.4-0.1-0.5h-0.1c0,0.5-0.3,0.2-0.5,0.3c-0.2,0.1-0.2-0.2-0.3-0.2c-0.1,0.1-0.2,0.3-0.3,0.4c0.2,0,0.4,0,0.5,0
		c0.1,0.1,0.1,0.2,0.1,0.2c0.3,0.1,0.2-0.2,0.4-0.3c0,0.1,0.1,0.2,0.1,0.3C65.8,29.2,66.1,29.2,66.5,29.1z M52.2,71.4
		c-0.1-0.2-0.2-0.3-0.3-0.1c-0.2,0.3-0.5,0.4-0.8,0.6c-0.4,0.2-0.8,0.4-0.8,1c0.4,0,0.5-0.1,0.6-0.5c0.4,0.1,0.4,0,0.4-0.4
		C51.6,71.9,51.9,71.6,52.2,71.4z M45.9,34.8L45.9,34.8c-0.1,0.2-0.2,0.4,0.1,0.4c0.1,0,0.1,0.1,0.1,0.1c0.1,0.2,0.2,0.3,0.3,0.5
		c0.1,0.3,0.3,0.5,0.5,0.8c0.1,0.1,0.2,0.2,0.3,0.3c0.1-0.4,0.2-0.8,0.3-1.1c-0.4,0-0.3,0.3-0.5,0.5C46.6,35.8,46.3,35.3,45.9,34.8z
		 M50,71c0,0.3-0.1,0.6-0.1,1c0.4-0.2,0.7-0.4,0.8-0.7C50.5,71.2,50.3,71.1,50,71z M41.6,30.3c0,0.4,0.3,0.4,0.5,0.6
		c0.1,0.1,0.3,0.2,0.4,0.3c0.1,0.2,0.2,0.2,0.3,0.1c0.2-0.1,0.3-0.2,0.3-0.5c-0.4,0.2-0.6,0.2-0.9-0.1C42,30.5,41.8,30.4,41.6,30.3z
		 M70.5,31.8c-0.1-0.7-0.4-1.4-0.9-1.3c0,0.3,0.3,0.5,0.5,0.6s0.3,0.2,0.3,0.5C70.3,31.6,70.3,31.8,70.5,31.8z M54.2,68.3
		c0.3-0.2,0.5-0.4,0.7-0.7c0.1-0.1,0.1-0.2,0.2-0.3L55,67.2c-0.1,0-0.2,0.1-0.2,0.2c-0.1,0.1-0.2,0.2-0.4,0.3
		C54.3,67.8,54.2,68,54.2,68.3z M40.2,31.9L40.2,31.9c0.1-0.1,0.2-0.1,0.3-0.2c0.1,0.1,0.2,0.2,0.4,0.4c0.3,0,0.3,0,0.4,0.4
		c0.2-0.2,0.2-0.4,0-0.5c-0.3-0.2-0.7-0.3-1-0.4C40.2,31.7,40.2,31.8,40.2,31.9z M69,35.1c0.1,0,0.2,0,0.4-0.1
		c-0.1-0.1-0.1-0.2-0.2-0.2c0.1-0.1,0.2-0.3,0.3-0.3c-0.2-0.1-0.3-0.2-0.4-0.4C69,34.5,69,34.8,69,35.1z M62.1,59.3
		c-0.2,0.2-0.3,0.3-0.4,0.4c-0.2,0.2-0.2,0.3-0.1,0.5c0.3-0.2,0.6-0.5,0.7-0.9C62.2,59.3,62.1,59.3,62.1,59.3z M55.8,67.9
		C55.8,68,55.8,68,55.8,67.9c0.1,0,0.2,0,0.2-0.1c0.2-0.2,0.4-0.4,0.7-0.4l0.1-0.1c0-0.1,0-0.1-0.1-0.2c-0.2-0.1-0.3,0-0.5,0.1
		C56.1,67.5,55.9,67.7,55.8,67.9z M48.9,45.1c-0.1,0.4,0,0.6,0.4,0.8c0-0.2,0.1-0.3,0-0.5C49.3,45.2,49.1,45.1,48.9,45.1z
		 M63.7,57.5c0.2-0.1,0.3-0.1,0.4-0.4c0.1-0.2,0.1-0.4,0.4-0.5v-0.1c-0.2,0.1-0.3,0.1-0.5,0.2C64.2,57.1,63.6,57.1,63.7,57.5z
		 M71,35.6C71,35.6,71.1,35.6,71,35.6c0.2-0.1,0.3-0.2,0.4-0.4c0,0-0.1,0-0.1-0.1c-0.1,0.1-0.1,0.2-0.2,0.3H71c0-0.2,0-0.3-0.1-0.5
		c0-0.2,0-0.3-0.1-0.5h-0.1C70.7,34.9,70.9,35.2,71,35.6z M26.9,30.8C26.9,30.7,26.8,30.7,26.9,30.8c-0.3,0.3-0.4,0.6-0.6,0.9
		C26.9,31.6,26.7,31.1,26.9,30.8z M71.2,36.2c-0.1,0.3-0.1,1,0.1,1.2C71.2,37,71.5,36.6,71.2,36.2z M67.1,30.2
		c0.1,0.1,0.2,0.3,0.3,0.4c0.1,0,0.2-0.1,0.4-0.1c-0.2-0.2-0.4-0.3-0.6-0.5C67.2,30,67.2,30.1,67.1,30.2z M54.1,69.8
		c-0.4,0-0.8,0.4-0.8,0.7C53.5,70.2,53.9,70.1,54.1,69.8z M59.7,62c0.1-0.1,0.4,0,0.4-0.3l0.1-0.1c0.2,0.1,0.2-0.1,0.3-0.2
		C60.1,61.4,59.7,61.6,59.7,62z M45,33.4L45,33.4c-0.1-0.1-0.3-0.1-0.4-0.1c-0.1,0-0.2,0-0.3-0.1s-0.2-0.2-0.4-0.4
		C44.1,33.4,44.6,33.6,45,33.4z M62.1,59c0.5,0,0.7-0.1,0.6-0.4C62.5,58.6,62.3,58.7,62.1,59z M70.5,45.8L70.5,45.8
		c-0.1-0.1-0.2-0.1-0.3-0.2c-0.1,0-0.2-0.1-0.3-0.1c0,0.2,0,0.3,0,0.5C70.1,45.9,70.3,45.9,70.5,45.8z M46.4,44.5
		c-0.1-0.4-0.2-0.7-0.3-1.1C45.9,43.9,46.1,44.4,46.4,44.5z M66.7,46c0.2-0.2,0.4-0.3,0.6-0.5c-0.2,0-0.4,0-0.6-0.1
		C66.7,45.7,66.7,45.8,66.7,46z M70.8,34.2c0.4,0.1,0.3,0.6,0.5,0.8c0,0,0,0,0.1,0c-0.1-0.3-0.2-0.6-0.3-1
		C71,34,70.9,34.1,70.8,34.2z M68.5,31C68.5,31,68.5,31.1,68.5,31c0.2,0.3,0.3,0.6,0.5,0.8l0,0c0-0.2-0.1-0.3-0.1-0.4
		C68.8,31.2,68.7,31.1,68.5,31z M69.6,36.4L69.6,36.4c-0.2,0.2-0.2,0.3-0.3,0.5c0,0.1,0.1,0.1,0.2,0.2
		C69.6,36.9,69.6,36.7,69.6,36.4z M45.5,32.9c0,0.1,0,0.2,0,0.3s-0.1,0.2-0.1,0.3c0.1,0,0.2,0,0.4-0.1
		C45.9,33.2,45.9,33.1,45.5,32.9z M61.1,29.4c-0.2,0.2-0.4,0.3-0.6,0.5C60.8,30,61.1,29.9,61.1,29.4z M68.5,45.2c0-0.1,0-0.2,0-0.2
		c0-0.1-0.1-0.2-0.1-0.2c-0.1,0.1-0.1,0.1-0.2,0.2c0,0.1-0.1,0.2-0.1,0.3C68.2,45.2,68.3,45.2,68.5,45.2z M34.5,31.2
		c0.1-0.1,0.3-0.2,0.4-0.2c-0.1-0.1-0.2-0.2-0.3-0.2s-0.2,0.1-0.3,0.2C34.3,31,34.4,31.1,34.5,31.2z M55.4,40.7L55.4,40.7
		c-0.3,0-0.4,0.1-0.4,0.3c0,0.1,0,0.2,0.1,0.3h0.1C55.3,41.1,55.4,40.9,55.4,40.7z M44.3,39.2c0.1,0.5,0.1,0.6,0.3,0.7
		C44.7,39.7,44.7,39.5,44.3,39.2z M62.7,58.4L62.7,58.4c0.2,0,0.4,0,0.5-0.1s0.2-0.3,0.2-0.4C63.1,58.1,62.9,58.2,62.7,58.4z
		 M69.1,52c0-0.1,0-0.2,0-0.2c-0.2,0.2-0.1,0.3,0,0.4c0.1,0.1,0.2,0,0.3,0C69.5,51.8,69.3,52,69.1,52z M68,28.6L68,28.6
		c0.1,0.2,0.2,0.3,0.4,0.4c0.1,0,0.2,0,0.2,0c0-0.1,0-0.2,0-0.2C68.4,28.7,68.2,28.7,68,28.6z M54.7,69L54.7,69
		c-0.2,0.1-0.4,0.3-0.6,0.5C54.6,69.5,54.7,69.4,54.7,69z M70.1,39.6c0,0.1,0,0.2,0,0.4c0.2-0.1,0.5-0.1,0.5-0.4
		C70.4,39.6,70.3,39.6,70.1,39.6z M68.9,29.9c0,0.2,0.2,0.5,0.4,0.5c0.1,0,0.1-0.1,0.2-0.2C69.2,30,69.1,29.9,68.9,29.9z M49.8,33.7
		c0.1,0.3,0.2,0.5,0.3,0.7C50.2,34.1,50.1,33.8,49.8,33.7z M70.5,28.4c-0.2-0.1-0.3-0.1-0.5-0.2c0,0.1,0,0.2,0,0.3
		C70.4,28.6,70.4,28.6,70.5,28.4z M47.4,38.4c0,0.4,0.3,0.9,0.5,0.8C47.7,39,47.5,38.7,47.4,38.4z M67.7,46.2L67.7,46.2
		c-0.2,0.2-0.2,0.3-0.3,0.6C67.8,46.6,67.8,46.6,67.7,46.2z M59.5,56c0.1-0.2,0.2-0.4,0.3-0.6C59.5,55.4,59.4,55.6,59.5,56z
		 M68.4,34.8L68.4,34.8c0-0.2,0-0.3,0-0.5c0-0.1-0.2,0-0.3-0.1C68.1,34.5,68.2,34.6,68.4,34.8z M50.9,71c0.2-0.1,0.4-0.2,0.6-0.4
		c-0.2-0.1-0.3-0.1-0.3-0.2C51.1,70.7,51,70.9,50.9,71z M50.5,46.3C50.6,46.3,50.6,46.2,50.5,46.3c0.1-0.2,0.1-0.3,0.1-0.4
		c0,0-0.1-0.1-0.2-0.1c0,0.1-0.1,0.2-0.1,0.3C50.4,46.2,50.5,46.2,50.5,46.3z M70.8,30.6L70.8,30.6c0,0.3,0.1,0.6,0.4,0.7
		c0,0,0,0,0.1,0C71.1,31,71,30.8,70.8,30.6z M64.9,52.8c-0.2-0.2,0.2-0.4,0-0.6C64.6,52.5,64.6,52.7,64.9,52.8z M69.6,31.2
		c0.1,0.5,0.2,0.6,0.5,0.6C69.9,31.6,69.7,31.4,69.6,31.2z M50.5,44.6c0.3-0.4,0.2-0.6-0.1-0.6C50.4,44.2,50.5,44.4,50.5,44.6z
		 M31.5,51c0.2-0.3,0.2-0.4,0-0.6c0,0.1,0,0.2,0,0.2c-0.1,0-0.1,0-0.2-0.1C31.4,50.7,31.5,50.9,31.5,51z M58.2,66.1
		c-0.4,0.1-0.4,0.2-0.5,0.5C57.9,66.4,58.1,66.3,58.2,66.1z M66.7,48.1c0.3-0.1,0.5-0.2,0.7-0.2c0,0,0,0,0-0.1
		C67,47.8,66.9,47.8,66.7,48.1z M39.7,31.4c-0.2-0.3-0.5-0.3-0.6-0.1C39.3,31.3,39.4,31.3,39.7,31.4z M44.2,38.4L44.2,38.4
		c-0.2,0-0.3,0-0.4,0c0.1,0.1,0.2,0.2,0.3,0.3l0,0c0-0.1,0-0.1,0-0.2C44.1,38.5,44.2,38.5,44.2,38.4z M28.8,33.1
		C28.8,33.1,28.7,33.1,28.8,33.1c-0.2,0.2-0.4,0.3-0.2,0.6C28.7,33.5,28.7,33.3,28.8,33.1z M71.7,32.4L71.7,32.4
		c0-0.2,0-0.5-0.1-0.7h-0.1C71.6,31.9,71.7,32.2,71.7,32.4z M55.4,68.1c-0.1,0.2-0.2,0.3-0.3,0.5c0,0,0.1,0,0.1,0.1
		c0.1-0.1,0.2-0.2,0.3-0.3C55.6,68.3,55.5,68.2,55.4,68.1z M48.3,72.1c-0.1,0.1-0.1,0.2-0.1,0.3l0.1,0.1c0.1-0.1,0.2-0.1,0.3-0.2
		C48.5,72.3,48.4,72.2,48.3,72.1z M60.6,61.2C60.6,61.2,60.7,61.2,60.6,61.2c0.2-0.1,0.3-0.2,0.4-0.4c0,0,0,0,0-0.1
		c-0.1,0-0.2,0.1-0.3,0.1C60.6,61,60.6,61.1,60.6,61.2z M25.9,35.7c-0.1-0.2-0.2-0.2-0.3-0.2l-0.1,0.1c0.1,0,0.1,0.1,0.2,0.1
		C25.7,35.8,25.8,35.7,25.9,35.7z M34.8,30.2c-0.2,0-0.5,0-0.6,0.2C34.5,30.4,34.7,30.4,34.8,30.2z M66.5,27.5
		c0.2-0.1,0.4-0.2,0.6-0.3C66.7,27.1,66.6,27.2,66.5,27.5z M49.8,45.5c-0.2,0.2-0.1,0.3,0.1,0.5C49.9,45.8,50.1,45.6,49.8,45.5z
		 M46.7,34.6c-0.2-0.1-0.3-0.1-0.5-0.2c0.1,0.2,0.1,0.3,0.2,0.4l0.1,0.1C46.6,34.7,46.6,34.7,46.7,34.6z M25.5,35.4
		c0.2,0,0.3-0.1,0.3-0.3L25.7,35C25.6,35.1,25.5,35.2,25.5,35.4z M27.9,42.4C28,42.4,28,42.4,27.9,42.4C28,42.2,28,42.1,28,42
		c0,0-0.2,0-0.3,0C27.8,42.1,27.9,42.2,27.9,42.4z M68.6,29.1c0.3,0.3,0.4-0.1,0.6-0.1c0,0,0,0,0-0.1C69,29,68.8,29.1,68.6,29.1z
		 M34.1,30.4C34.1,30.3,34.1,30.3,34.1,30.4c-0.2,0-0.3,0-0.4,0c0.1,0.1,0.1,0.2,0.1,0.3C34,30.6,34.1,30.5,34.1,30.4z M61,31.7
		c0.1,0.1,0.2,0.2,0.4,0.3c0-0.2,0.1-0.2,0.1-0.3C61.4,31.7,61.3,31.7,61,31.7z M74.5,33.9c-0.2,0-0.3,0-0.3,0c0,0.1,0,0.2,0,0.4
		h0.1C74.3,34.2,74.4,34.1,74.5,33.9z M52.3,69.8C52.4,69.8,52.4,69.8,52.3,69.8c0.2-0.1,0.3-0.2,0.4-0.3c-0.1-0.1-0.1-0.1-0.2-0.2
		C52.5,69.5,52.4,69.7,52.3,69.8z M35,54.7C35,54.7,34.9,54.7,35,54.7c-0.1-0.1-0.2-0.1-0.3-0.1c0,0.1,0,0.2,0,0.4
		C34.8,54.8,34.9,54.8,35,54.7z M67.9,38.2c0.2-0.1,0.3-0.1,0.3-0.4c-0.1,0-0.2,0-0.3,0.1C67.9,38,67.9,38.1,67.9,38.2z M41.2,59.8
		c0,0.1-0.1,0.1-0.1,0.2L41,60.1c0,0.1,0.1,0.1,0.1,0.1c0.1-0.1,0.2-0.2,0.3-0.3C41.3,59.9,41.3,59.8,41.2,59.8z M47.2,71.3
		C47.1,71.3,47.1,71.3,47.2,71.3c-0.2,0-0.2,0-0.3,0.1c0,0,0,0.1-0.1,0.1c0.1,0,0.2,0.1,0.2,0C47,71.5,47.1,71.4,47.2,71.3z
		 M59,31.3L59,31.3c0.4-0.2,0.4-0.2,0.3-0.4C59.2,31,59.1,31.1,59,31.3z M57.4,65.9C57.3,66,57.2,66,57,66.1
		c0.2,0.1,0.3,0.1,0.4,0.2C57.4,66.2,57.4,66.1,57.4,65.9z M43.4,62.2C43.4,62.2,43.4,62.3,43.4,62.2c0.2,0,0.2-0.1,0.3-0.1
		c-0.1-0.1-0.1-0.1-0.2-0.2C43.4,62,43.4,62.1,43.4,62.2z M56.9,31.2L56.9,31.2c0.2,0,0.3-0.1,0.5-0.3C57,30.8,57,31.1,56.9,31.2z
		 M37.1,29.8L37.1,29.8c0.2,0.1,0.3,0.1,0.5,0.1C37.5,29.7,37.3,29.7,37.1,29.8z M56.2,65.7L56.2,65.7c0.1,0,0.2-0.1,0.3-0.1
		c0.2,0,0.1-0.1,0.1-0.2C56.5,65.4,56.3,65.6,56.2,65.7z M26.6,32.4c-0.3,0.2-0.4,0.4-0.3,0.6C26.4,32.9,26.5,32.7,26.6,32.4z
		 M64.1,50.2L64.1,50.2c0.3-0.1,0.2-0.3,0.3-0.5c0,0,0,0-0.1,0C64.2,49.8,64.1,50,64.1,50.2z M57.7,31.8v-0.1c-0.1,0-0.2-0.1-0.3,0
		c0,0-0.1,0.1-0.1,0.2c0,0,0,0,0,0.1C57.4,31.8,57.6,31.8,57.7,31.8z M63.8,29.6L63.8,29.6c-0.2,0-0.3,0.1-0.4,0.2
		C63.6,29.9,63.8,29.9,63.8,29.6z M67.5,29.2c-0.1-0.1-0.2-0.1-0.3-0.1c-0.1,0-0.1,0.2-0.2,0.2c0,0,0,0,0.1,0
		C67.2,29.4,67.3,29.3,67.5,29.2z M48.4,68.3c0.3,0,0.4-0.1,0.3-0.3C48.6,68.1,48.5,68.2,48.4,68.3z M63.9,50.2
		c-0.3-0.1-0.2,0.1-0.2,0.2l0.1,0.1C63.8,50.4,63.8,50.3,63.9,50.2z M61.8,54.7c-0.2,0-0.2,0.1-0.3,0.1c0.1,0.1,0.1,0.2,0.2,0.3
		C61.7,55,61.7,54.9,61.8,54.7z M65.5,30.4c0.1-0.1,0.2-0.2,0.2-0.3c-0.2,0-0.2,0-0.4,0C65.4,30.2,65.5,30.3,65.5,30.4z M67.1,47.3
		c0,0.1,0,0.2,0,0.4l0,0c0.1-0.1,0.1-0.2,0.2-0.4C67.2,47.3,67.1,47.3,67.1,47.3z M43.6,32.5C43.5,32.5,43.5,32.5,43.6,32.5
		c-0.1,0.3,0,0.3,0.3,0.3C43.7,32.7,43.6,32.6,43.6,32.5z M26.4,39.4h0.1c0-0.1,0.1-0.2,0.1-0.2c0-0.1-0.1-0.1-0.2-0.2
		C26.4,39.2,26.4,39.3,26.4,39.4z M44.4,32.3C44.4,32.3,44.4,32.4,44.4,32.3c0.4,0.1,0.4,0.1,0.4-0.1C44.7,32.3,44.5,32.3,44.4,32.3
		z M57.6,64.3c-0.2,0-0.3,0.1-0.4,0.2c0,0,0,0.1,0.1,0.2C57.4,64.5,57.5,64.4,57.6,64.3z M28.5,34.9c-0.2,0.2-0.2,0.4,0,0.5
		C28.5,35.2,28.5,35.1,28.5,34.9z M68.6,43.9L68.6,43.9c0.2,0,0.3-0.1,0.3-0.3C68.7,43.7,68.7,43.8,68.6,43.9z M39.7,33.1
		c-0.2-0.2-0.3-0.1-0.4,0.1C39.5,33.1,39.6,33.1,39.7,33.1z M69.5,29.7C69.6,29.7,69.6,29.7,69.5,29.7c0.2,0,0.2,0,0.3-0.1l-0.1-0.1
		C69.7,29.6,69.6,29.6,69.5,29.7z M71.1,36.2L71.1,36.2c0.1-0.1,0.1-0.2,0.2-0.4c-0.1,0.1-0.2,0.1-0.2,0.1
		C71,36,71.1,36.1,71.1,36.2z M26.1,38.2c-0.3-0.2-0.4-0.2-0.4,0.1C25.8,38.3,25.9,38.3,26.1,38.2z M67.2,28.7
		c-0.2-0.1-0.3-0.1-0.4,0v0.1C67,28.8,67.1,28.8,67.2,28.7z"/>
	<path d="M28.3,47.1c-0.4-0.3-0.2-0.6-0.3-1C28.3,46.5,28.4,46.8,28.3,47.1z"/>
	<path d="M25.1,36.4c0.2,0.2,0.3,0.3,0.4,0.4v0.1c0,0-0.1,0.1-0.2,0.1C25.1,37,25,36.8,25.1,36.4z"/>
	<path d="M25.9,40.6c0.1,0,0.2,0,0.3-0.1c0.1,0.3,0,0.4-0.2,0.5C25.9,40.9,25.9,40.8,25.9,40.6z"/>
	<path d="M47.8,67.7c0.2-0.2,0.3-0.2,0.4,0c0,0.1,0,0.2-0.1,0.3C48,67.8,47.9,67.8,47.8,67.7z"/>
	<path d="M64.3,61.4c-0.1,0.3-0.2,0.5-0.5,0.5C63.8,61.6,64.1,61.6,64.3,61.4z"/>
	<path d="M73.6,47.4c0.1,0,0.2-0.1,0.3-0.1c0,0,0.1,0,0.1,0.1c-0.1,0.1-0.2,0.3-0.2,0.4h-0.1C73.6,47.6,73.6,47.5,73.6,47.4
		L73.6,47.4z"/>
	<path d="M72.9,48.8c0.1-0.1,0.2-0.2,0.3-0.3c0,0,0,0,0.1,0c-0.1,0.2-0.1,0.3-0.2,0.5H73C73,48.9,72.9,48.9,72.9,48.8L72.9,48.8z"/>
	<path d="M28.7,48.1c0.2-0.1,0.3-0.1,0.4-0.2c0,0.1,0,0.2,0,0.4C29,48.2,28.9,48.2,28.7,48.1z"/>
	<path d="M71.8,27.2c-0.2,0-0.3-0.1-0.5-0.1C71.6,26.8,71.7,27.1,71.8,27.2C71.8,27.1,71.8,27.1,71.8,27.2z"/>
	<path d="M59.2,54.8c-0.1,0-0.2,0.1-0.3,0.1c0,0,0,0-0.1-0.1c0.1-0.1,0.2-0.3,0.3-0.4c0,0,0,0,0.1,0C59.2,54.6,59.2,54.7,59.2,54.8
		L59.2,54.8z"/>
	<path d="M67.3,41.9c0-0.1,0.1-0.2,0.1-0.4c0-0.1,0-0.1,0-0.2c-0.1,0-0.1,0-0.2,0c0,0-0.1,0-0.2,0c0.1-0.2,0.1-0.3,0.1-0.4h0.1
		c0,0.1,0,0.1,0,0.2c0.2,0,0.3-0.1,0.4-0.3c0-0.1,0-0.3,0.1-0.4C67.9,41.1,67.7,41.8,67.3,41.9z"/>
	<path d="M56.9,57.2c0.2-0.2,0.4-0.4,0.5-0.7c0,0,0.1,0,0.1-0.1c0,0.1,0.1,0.2,0.2,0.4C57.3,56.7,57.2,57.1,56.9,57.2z"/>
	<path d="M52.8,61.9c0.1,0.3,0,0.5-0.4,0.5C52.6,62.2,52.7,62.1,52.8,61.9z"/>
	<path d="M67.8,36.4C67.8,36.4,67.7,36.4,67.8,36.4c-0.1-0.1-0.1-0.1-0.1-0.2c0.1,0,0.2,0,0.3,0c0,0.1-0.1,0.2-0.1,0.2
		c0,0.1-0.1,0.1-0.2,0.1C67.8,36.6,67.8,36.6,67.8,36.4C67.8,36.5,67.8,36.5,67.8,36.4z"/>
	<path d="M52.5,62.2c0-0.2,0-0.2,0.4-0.6l0,0C52.8,61.8,52.6,62,52.5,62.2z"/>
	<path d="M66.5,43.3c-0.1-0.3,0-0.5,0.3-0.5C66.7,42.9,66.6,43.1,66.5,43.3z"/>
	<path d="M66.1,44c0.1-0.1,0.1-0.3,0.2-0.5c0,0.1,0.1,0.2,0.1,0.3C66.3,43.9,66.2,44,66.1,44C66.1,44.1,66.1,44,66.1,44z"/>
	<path d="M66.6,43.6c0.1-0.1,0.2-0.2,0.3-0.3c0,0,0.1,0,0.1,0.1c-0.1,0.1-0.2,0.2-0.3,0.4C66.7,43.6,66.7,43.6,66.6,43.6z"/>
	<path d="M67.9,35.1c0,0.2,0,0.3,0,0.4C67.6,35.4,67.6,35.4,67.9,35.1z"/>
</g>
<g>
	<g>
		<g>
			<g>
				<path d="M50.4,46.8c0.1,0.3-0.3,0-0.6-0.9l-0.3-0.5C49.5,45.4,49.6,45.3,50.4,46.8z"/>
				<path class="st0" d="M52.6,50.4c-0.3-0.1-0.3-0.5-0.5-0.8l0.2-0.1C52.6,49.8,52.6,50.2,52.6,50.4z"/>
				<path d="M56.9,58.2l0.3,0.1c-0.3-0.1-0.5,0-0.7,0.1c-0.2-0.4-0.2-1,0.2-1.1C56.8,57.7,56.5,58,56.9,58.2z"/>
				<path d="M48.7,51c-0.1,0.8-0.1,1.7-0.1,2.7c0.1,0.9,0.3,1.7,0.5,2.4c0,0-0.1,0.6-0.1,1.1c-0.1,0.6-0.1,1.1-0.1,1.1
					c-0.5-1.1-1.4-0.6-2.2-0.8c-0.4,0.4,0.6,0.9-0.3,1.2c0-0.4,0.2-0.9,0-1.2c-0.8,0.4-0.9,2.3-2.3,1.2c0,0,0-0.3-0.1-0.6
					c0-0.3,0-0.6,0-0.6c-1.2-0.6-2.6-1-3.9-1.9c-0.6-0.4-1.2-0.9-1.7-1.5c-0.2-0.3-0.5-0.6-0.6-0.9c-0.2-0.3-0.3-0.7-0.3-1
					c-1.2,0.3-1.4-0.7-2.3-0.8l0.6-0.4c-1.2,0.4-0.2-0.8-0.5-1l0.4-0.6c0.9-0.7,0.9,0.4,2.2-0.7c0.5-1.1-1.9-0.1-1.2-1.2
					c-0.1-0.6-0.7-0.1-1.2-0.2c-0.6,0.3-0.5,0.5-1.2,0.9c-1.1-0.9,1.9-2.9,1-3.8c-0.5,0.3-2.3,0.1-2.5,1.4h0.9l-0.5,0.7
					c-0.2-0.3-0.5-0.9-1.2-0.4c1-0.9,0.1-1.1-0.5-1.4c-0.6-0.3-1-0.4,1-0.8c-0.2,0.9,0,1,1.1,0.9c-0.5-1.4-0.2-3.1-0.6-4.4
					c0,0-0.3,0-0.6,0s-0.6,0-0.6,0c1.1-0.4,1.6-1.2,1.8-1.9c-0.3-0.2-0.3-0.6-0.8-0.4c-0.4,0-0.4,0.6-0.5,1.2
					c-0.1,0.5-0.5,1-1.6,0.6c0-0.5,0.1-1,0.2-1.5s0.3-1,0.6-1.4c0.5-0.9,1.2-1.5,2.1-1.9c0.1,0.4,0.1,0.7,0.2,1
					c0.1,0.3,0.4,0.6,1.2,0.9c0.8,1,1.1,2,1.6,2.9s1.1,1.7,2.3,2c-0.7,0.5-0.7,1-1.4,1.3c-0.4,0.4,0.4,0.5-0.5,1.2
					c1.7,0.6,2.1,2.3,2.6,3.4c1.5-1.4,1.5,0,2.4-0.2c-0.6,0.7,0.1,1,0.3,1.4c0.3-0.2,0.6,0,1-0.4c-0.4-0.1-0.1-0.4-0.1-0.8
					c1.3-0.7,0.3,0.6,0.5,1c0,0-0.2,0.1-0.4,0.2c-0.2,0.1-0.4,0.1-0.4,0.1c0.2,0.3-0.1,1.1-0.1,1.7c-0.1,0.7,0.1,1.3,0.8,1
					c0,0,0.1-0.4,0.2-0.8c0.1-0.4,0.3-0.8,0.3-0.8c0.5,0.1,0.5,0.6,0.8,1.1c0.2,0.5,0.6,0.8,1.2,0.1c-0.1-0.7-1.4-0.4-0.2-2
					c0.6-0.8,0.9-0.6,0.8,0c-0.1,1.2,0.6,0.9,1,0.6C48.2,49.6,48.4,49.3,48.7,51z"/>
				<path d="M48.5,47c-0.3,0-1.2,2.8-1.6,2.1c0.6-0.9,0.8-1.9,0.8-2c-0.4,0.4-0.3-0.1-0.4-0.1c0.1-0.2,1-1.2,1-1.1
					c-0.6,0.9-0.2,0.8,0,0.6C48.6,46.3,48.7,45.9,48.5,47z"/>
				<path class="st0" d="M47.6,53.4c-0.6,0,0.2-2.5-0.3-2.1c0.5-1.3,0.2,0.1,0.6,0.2c0,0-0.1,0.2-0.2,0.3c-0.1,0.2-0.2,0.3-0.2,0.3
					s0,0.3,0,0.6C47.6,53.1,47.6,53.4,47.6,53.4z"/>
				<path d="M46.1,48.3c-0.3-0.1-0.1-0.9,1-1.8c0.1-0.1,0.6-0.5,0.4-0.4C47.1,46.5,47.2,46.8,46.1,48.3z"/>
				<path class="st0" d="M43.9,53.9c-0.3,0.1-0.5-0.1-0.9-0.4C43.4,53.5,43.9,53.2,43.9,53.9z"/>
				<path d="M44.1,49.9c-0.7,0.8-0.4-0.1-0.4-0.1l0.2-0.5C44.1,49.4,44.4,49.4,44.1,49.9z"/>
				<path d="M45,45.9c0.1-0.6,1.4-0.2,1.2-0.8l0.3,0.2l-1.3,0.9L45,45.9z"/>
				<path d="M45.8,44.5c-0.4,0.1-0.6,0-0.5-0.4l0.6-0.2C46.1,43.8,45.6,44.3,45.8,44.5z"/>
				<path d="M43.1,46.9c-0.4,0,0.3-0.4,0.5-0.7C44,46.1,43.3,47.1,43.1,46.9z"/>
				<path d="M33.7,50c1.2-0.5,0.8,0.2,1.3,0.4C34.4,50.2,33.8,50.5,33.7,50z"/>
				<path d="M50.6,44.8c0.5,0.1,0.3-0.3,0.1-0.6L50.3,44L50.6,44.8z"/>
				<path d="M49.5,45.1c0.9,1.3,0.4,0.7,1.2,1.5c0.2,0.1,0.1-0.2-0.1-0.4c-0.1-0.1-0.1-0.2-0.2-0.3c0-0.1-0.1-0.1,0-0.1
					c0-0.1,0.1-0.1,0.1-0.2l-0.4-0.8c-0.2,0-0.4,0.1-0.6,0.1c-0.1-0.1-0.1-0.1-0.2-0.1C49.2,44.7,49.3,44.8,49.5,45.1z"/>
				<path class="st0" d="M53.5,51.8c0.7,0.2,0.4-1.1,0.6-1.3c-0.5,0.2-0.9,0.6-1.2,0.8C53.1,51.6,53.3,51.6,53.5,51.8z"/>
				<path d="M52.7,40.5c-0.3,0.6-1.7,0.6-0.5,2.2c0.4-0.1,0.8,0.2,1.3-0.1c1.4,1.4-0.7,0.5-0.9,0.9c0.6-0.1,1,0.8,0.9,1.2
					c-0.8,0.2-1.2,1.1-1.7,1.8c0.1,0.2,0,0.4,0,0.5s-0.1,0.1-0.1,0.2c-0.1,0.1,0,0.4,0.6,1.1c-0.1,0.4-1.1-0.8-1.4-1
					c0.5,1.2-0.4,0.5-0.8-0.5c-0.6-0.9-0.7-1.9-0.5-0.4c-0.2-1.3-0.2-1.1-0.3-1.2c0-0.1-0.1-0.2-0.3,2.2c0,0.8,0.1,0.6,0.2,0.3
					c0.1-0.3,0.2-0.5,0.4,0.3c0.3,1.3,0.3,1.5,0.1,1.8c-0.2,0.2-0.5,0.4-0.6,1.5c0.1-0.4,0.2,1.6,0.5,0.8c-0.4,0.5-0.3,1.1-0.1,1.8
					c0.2,0.6,0.5,1.2,0.2,1.8c0.7,0.5,1.1,0.7,1.4,1.1c0.3,0.4,0.6,1,1.3,2.1c0.9-0.7,0.2-2.3,0.1-3.3c0.3-0.7,0.7-0.6,1.2-0.4
					c0.5,0.1,1,0.3,1.2-0.2c0.5,1.5,1,1.8,1.7,1.6c0.6-0.3,1.2-1.1,1.6-1.6c0.6-0.5,0.2-1.1-0.2-1.7c-0.4-0.5-0.7-1.1-0.2-1.5
					c0.7,0.3,0.9,0.8,1.1,1.3c0.1,0.6,0.2,1.2,1.2,1.3c0,0,0-0.3,0-0.5S60,53.5,60,53.5c-0.7-1-1.7-2.2-2.1-3
					c0.1-0.2,0.3-0.5,0.7-0.2c0.1,0.6,1.1,1.3,1.9,1.3c-0.2-0.5-0.3-0.6-0.6-1c-3.1-1.3,0.4-0.9-0.7-2.5c-1.2-3,3.7,1.4,3.6-1
					c-2.7-1-0.6-1.8-1.2-2.9c0.3-0.4,1.1-0.2,2,0c-0.2-0.3-0.2-0.7-0.6-1c-3.5-1.5-7.1-2.3-10.3-3C52.5,40.4,52.6,40.5,52.7,40.5z"
					/>
			</g>
		</g>
	</g>
</g>
<g>
	<g>
		<g>
			<g>
				<path d="M52.6,56.8c-0.3-0.4,0-1.1,0.9-1.1l0.5-0.2C54,56,54.2,57.4,52.6,56.8z"/>
				<path class="st0" d="M48.5,57.4c0.3-0.3,0.6-0.1,0.9-0.1v0.4C48.9,57.8,48.6,57.5,48.5,57.4z"/>
				<path d="M39.8,58.1l-0.2,0.1c0.2-0.1,0.3-0.2,0.3-0.3c0.5-0.1,0.9,0,0.7,0.2C40.3,58.1,40.3,58,39.8,58.1z"/>
				<path d="M47.5,51.2c-1.2,0.6-2.8,2-3.8,2.8c0,0-0.5,0.2-1.1,0.5c-0.5,0.2-1,0.5-1,0.5c0.9-0.7,0.2-0.7-0.1-1
					c-0.5,0.1-0.4,0.7-1,0.7c0.3-0.2,0.7-0.5,0.9-0.7c-0.4,0-0.9,0.3-1.3,0.5c-0.4,0.2-0.8,0.3-0.9-0.4l0.7-1
					c-0.3-0.4-0.7-0.9-1.2-1.4c-0.2-0.3-0.5-0.6-0.7-1c-0.1-0.2-0.2-0.4-0.4-0.6C37.2,50,37.2,50,37.2,50h-0.1
					c-0.4-0.1-0.5-0.1-0.1-0.6c-0.5,0.3-0.7,0.5-0.9,0.5C36,49.9,36,50,35.9,50h-0.1c-0.2-0.2-0.5-0.4-0.7-0.7
					c-0.5-0.5-0.9-1.1-1.2-1.5l0.6-0.4c-0.3-0.2-0.5-0.4-0.6-0.7c-0.2-0.3-0.3-0.5-0.3-0.8c-0.2-0.6-0.1-1.1,0-1.5
					c0.2-0.9,0.6-1.5,0.6-1.9c0,0,0.2-0.2,0.4-0.3S35,42,35,42c0.6,0,0.6,0.3,0.7,0.9c0.1,0.5,0.4,1,1.2,0.7
					c0.3-0.4,0.3-0.6,0.3-0.9c0-0.3-0.2-0.3-0.4-0.4c-0.3-0.2-0.6-0.3,0-0.4c0.4-0.3-0.5-0.3-0.8-0.4c-0.7,0-0.7,0-1.5,0
					c-0.2-0.1,0.6-0.2,1.5-0.5c0.9-0.2,1.8-0.6,1.6-0.9c-0.3,0.1-0.8,0.1-1.4,0.3c-0.6,0.1-1.2,0.4-1.7,0.6c0,0,0.2,0,0.4-0.1
					c0.2,0,0.4-0.1,0.4-0.1s-0.2,0.1-0.4,0.1C34.7,41,34.5,41,34.5,41s0.1-0.2-0.8,0.1c1.4-0.5,0.7-0.4,0.3-0.2
					c-0.5,0.2-0.8,0.3,1.4-0.6c-0.7,0.5-0.6,0.4,0.6,0.1c0.1-0.2,0.5-0.6,0.8-1c0.3-0.5,0.2-0.5,0-0.5l-1.2,0.7
					c1-0.7,1.4-1.2,1.4-1.6c-0.3,0.1-0.4,0-0.7,0.4c-0.3,0.2-0.2,0.4-0.2,0.6c-0.1,0.2-0.4,0.5-1.4,1.1c0.1-0.1,0.1-0.3,0.2-0.4
					c0-0.1,0.1-0.2,0.1-0.3c0,0,0,0,0.1,0s0.1,0.1,0.1,0l-0.1-0.1L35,39c-0.1-0.2-0.2-0.3-0.2-0.5c-0.3-0.7-0.4-1.4-0.3-2.1
					c0-0.3,0.1-0.7,0.2-1.1v-0.1c0,0,0,0,0.1-0.1l0.1-0.1l0.3-0.2c0.1,0,0.4,0.9,0.7,1.2s0.9,0.5,1.7,0.3c0.1,0,0.2,0.1,0.3,0.1H38
					c0,0,0,0,0.1,0s0.3,0,0.4,0c0.3,0,0.5,0.1,0.8,0.1c0.5,0.1,1,0,1.5-0.1c0.2,0,0.5-0.1,0.7,0.1c0.2,0.1,0.3,0.3,0.4,0.5
					c0.2,0.4,0.4,0.7,0.8,1c-0.8,0.3-1.2,0.9-2,1c-0.6,0.3,0,0.5-1.2,0.9c0.5,0.4,0.6,1,0.4,1.6c-0.1,0.3-0.2,0.6-0.3,0.8
					c-0.1,0.1-0.1,0.2-0.2,0.4c-0.1,0.2-0.1,0.4-0.2,0.7c1-0.1,1.3,0.2,1.5,0.5s0.3,0.7,0.8,0.6c-0.3,0.4-0.1,0.6,0.1,0.7
					c0.2,0.1,0.5,0,0.7,0.1c0.3-0.2,0.6-0.1,1-0.5c-0.4-0.1-0.2-0.4-0.3-0.7c1.3-1,0.7,0.4,0.8,0.9c0,0-0.2,0.1-0.4,0.1
					c-0.2,0.1-0.4,0.1-0.4,0.1c0.2,0.4-0.3,1.1-0.6,1.7c-0.4,0.6-0.6,1,0.2,1c0,0,0.3-0.3,0.6-0.5c0.3-0.3,0.6-0.6,0.6-0.6
					c0.2,0.2,0.3,0.4,0.3,0.7c0,0.2,0,0.5,0,0.7c0,0.5,0.2,0.9,1.1,0.6c0.2-0.7-1.2-0.9,0.6-1.6c1-0.4,1-0.1,0.8,0.3
					C44.8,49.8,49.1,48.3,47.5,51.2z"/>
				<path d="M49,47.5c-0.4-0.4-1-0.1-1.6,0.2s-1.2,0.5-1.3,0.1c0.9-0.5,1.5-1.2,1.6-1.2c-0.3,0.1-0.3,0.1-0.3,0.1s0,0,0-0.1v-0.2
					c0-0.1,0-0.3,0-0.4c0.1-0.4,1.4-0.8,1.5-0.1c-0.1,0.1-0.1,0.2-0.2,0.2l-0.1,0.1v0.1l0,0l0,0l0,0c-0.5,0.2,1.2-0.4-1.2,0.4l0,0
					l0,0c0.1,0,0.2-0.1,0.3-0.1c0.1-0.1,0.3-0.1,0.4-0.2c0.1-0.1,0,0,0,0l0,0c0,0,0.2,0,0.4,0C49.1,46.4,49.6,46.5,49,47.5z"/>
				<path class="st0" d="M44.9,51.6c-0.5-0.4,1.6-1.6,0.8-1.7c1.2-0.5,0.2,0.2,0.6,0.7l-0.8,0.2L44.9,51.6z"/>
				<path d="M45.8,46.4c-0.2-0.4,0-1.8,1.2-2.5c0.1-0.1,0.7-0.4,0.4-0.5C47.2,44,47.5,45.6,45.8,46.4z"/>
				<path class="st0" d="M41.3,50.2c-0.3-0.1-0.5-0.4-0.7-0.7C41,49.6,41.7,49.6,41.3,50.2z"/>
				<path d="M43.3,46.9c-0.9,0.5-0.3-0.2-0.3-0.3l0.3-0.4C43.6,46.2,43.8,46.5,43.3,46.9z"/>
				<path d="M43.7,42.2c0,0.1,0.1,0.2,0.1,0.2s0,0.1,0.1,0.1l0,0l0,0l0,0l0,0l-2.5,1.9l0,0l0,0l0,0l0,0l0,0l0,0l0,0l2.8-2.1l0,0l0,0
					l0,0c0-0.1,0-0.1,0-0.2c0-0.1,0-0.3,0.1-0.5c0.2,0,0.4-0.1,0.5-0.2c0,0,0.1-0.1,0.1-0.2c0,0-0.1-0.3,0.1,0.2
					c-0.3-0.7,0.4-0.1,0.3-0.2c0,0-0.3,0.3-0.5,0.6c-0.3,0.3-0.5,0.6-0.5,0.6s-0.1-0.1-0.2-0.1C43.8,42.3,43.7,42.2,43.7,42.2z"/>
				<path d="M42.5,44.2c0.4,0,0.8,0,1.8,0.1l-0.5-0.1C43.5,44.2,43,44.1,42.5,44.2z"/>
				<path d="M42.1,43.9L42.1,43.9L42.1,43.9L42.1,43.9l-0.6,0.5l0,0l0,0l0,0l0,0l0,0l0,0h0.1c0,0,0.1,0,0.2-0.1
					c-0.1,0-0.3,0.1-0.4,0.1l0,0l0,0l0,0l1-0.8l0,0l0,0l0,0l0,0l0,0c-0.1,0-0.1,0-0.2,0.1C42.2,43.8,42.1,43.8,42.1,43.9z"/>
				<path d="M32.9,41.5c0.6,0.1,0.8,0.1,0.8,0.1l0,0c0,0,0,0.2,0,0.3s0,0.3,0,0.5c0-0.2,0-0.3-0.1-0.4c0-0.1-0.1-0.2-0.1-0.3
					c-0.1-0.1-0.2-0.1-0.3-0.1C33,41.5,32.8,41.5,32.9,41.5z"/>
				<path d="M53.9,61.2c-0.4,0.2-0.1,0.5,0.3,0.6l0.4-0.1L53.9,61.2z"/>
				<path d="M54.4,57.5c-1.5-0.2-0.8,0.3-1.8,0.9c-0.3,0.7,1,1.3,0.9,2l0.8,0.4C54.8,60,55.3,58.5,54.4,57.5z"/>
				<path class="st0" d="M46.9,57.6c-0.6,0.5,0.5,0.9,0.5,1.3c0.2-0.5,0.2-1.2,0.2-1.6C47.3,57.3,47.1,57.5,46.9,57.6z"/>
				<path d="M54.7,59.4c-0.1,0-0.2,0.1-0.4,0.1L44,53.7c-0.2,0.3-0.3,0.7,0,1.5c0.5,0,0.8,0.3,1.4,0.2c1,1.8-0.8,0.4-1.2,0.8
					c0.6,0,0.8,1,0.6,1.4c-0.5,0-0.9,0.3-1.2,0.7l8.3,3.7c0-0.4-0.1-0.9-0.1-1.4c-0.7-0.4,0.4-1.9-1.5-1.6c-0.2-0.6,1.3-0.8,1.7-1.3
					c-1.2-0.6-0.2-1.4,0.6-2.3c0.8-0.9,1.5-2.1-0.1-2.7c1.1-0.2,0.6-1.2,0.5-1.6c-0.1-0.5-0.4-1.3-1-1.7c-0.5-0.5-1.2-0.6-2,0.2
					c-0.5,0.6-0.1,0.9,0.4,1.2c0.4,0.3,0.9,0.8,0.3,1.4c-0.8,1.1-1.2,0.8-1.5,0.4c-0.4-0.4-0.8-1-1.7-0.6c0.4,0-1.1,0.8-0.3,1
					c-0.6-0.3-1.1,0-1.5,0.4c-0.5,0.4-0.9,0.8-1.6,0.8c-0.4,0.6-0.6,0.9-1,1.2s-0.9,0.5-2.1,1c0.5,0.3,2.1-0.2,3-0.3
					c0.5,0.2,0.3,0.5,0,0.8s-0.7,0.6-0.4,0.8c-3,0-2.2,1-2.1,1.6c-0.1,0.8,2.7,0.2,2.4,1.1c-1.4,0.5-1.9-0.9-3.5-0.3l0.6,0.4
					c1.2,0.2,2.7,0.5,3.5,0.8c0,0.2,0,0.5-0.4,0.5c-0.5-0.4-1.5-0.3-2.1,0.1L41.8,62l8.4,3.6c0.1,0,0.1,0,0.2,0.1
					c-0.2-0.5-0.2-0.6-0.5-1c-2.8-1.9,0.5-0.7-0.3-2.5c-0.3-1.9,0.9-0.7,2,0.1l-5.5-2.4c-0.8,0.3-1.6,1-0.7,2.1
					c1.3-0.8,1.7-0.4,2,0.1s0.6,1.2,1.3,1.3c0.3,0.6-0.2,1.2-0.5,2.2c0.4,0,0.9,0.2,1.3-0.1c1.1-1.6,2-3.2,3.3-4.4
					c0.3-0.3,0.6-0.6,1-0.9c0.2-0.1,0.3-0.3,0.5-0.4L54.7,59.4C54.8,59.4,54.8,59.4,54.7,59.4L54.7,59.4z"/>
			</g>
		</g>
	</g>
</g>
<g>
	<g>
		<g>
			<g>
				<path d="M68.7,48.5c-0.2-0.1,0.2-0.1,1.1,0.3l0.5,0.2C70.2,49,70.1,49.1,68.7,48.5z"/>
				<path class="st0" d="M64.8,47.1c0.4,0,0.6,0.2,0.9,0.3l-0.2,0.1C65,47.5,64.9,47.2,64.8,47.1z"/>
				<path d="M56.6,44h-0.3c0.3,0,0.4-0.2,0.5-0.3c0.4,0.2,0.8,0.5,0.5,0.7C57,44.2,57.1,44,56.6,44z"/>
				<path d="M67.1,44.6c-1.2-0.7-3.1-1.5-4.4-1.9l-1.9-1.2c1.1,0.4,0.7-0.3,0.9-0.7c-0.3-0.3-0.8-0.1-1.1-0.6c0.3,0.1,0.8,0.4,1,0.5
					c-0.4-0.6-2-1.3-1.3-1.7h0.1l10.4,6.4c-0.4-0.1-0.7-0.1-1-0.2c-0.7,0.9-1.2,2.1-2,3.1s-2,1.7-3.3,1.5c0,0.1,0,0.3-0.1,0.4
					l-7.8-5.1c-0.8-0.2-0.6-0.7-1.3-1L56,44c-1.2-0.1,0.2-0.6,0-0.9l0.6-0.3c1.1-0.2,0.6,0.6,2.3,0.2c0.9-0.6-1.7-0.7-0.5-1.2
					c0.2-0.4-0.5-0.3-0.9-0.6c-0.7,0-0.7,0.1-1.5,0.2c-0.5-1,3.1-1.3,2.7-2c-0.6,0-2.1-0.6-2.9,0.1l0.7,0.3l-0.8,0.3
					c0-0.2,0-0.7-0.8-0.6c2.6-0.4-2.5-1.6,1.4-1c-0.6,0.4-0.5,0.5,0.6,0.8c0.2-0.9,1.2-1.7,1.3-2.4L57,36.7c1.1,0,1.9-0.3,2.2-0.7
					c-0.2-0.2-0.1-0.3-0.7-0.3c-0.7-0.1-0.4,1.2-2.4,0.6c0.5-0.8,1.6-1.7,3.2-2.1c0.3,0.4-0.1,0.6,1.4,1.1c1.5,1.3,0.3,2.7,2.2,3.8
					c-0.8,0.1-1.1,0.4-1.9,0.4c-0.5,0.1,0.1,0.4-1,0.6c1.2,0.9,0.7,2,0.6,2.9c2-0.5,1.4,0.3,2.2,0.5c-0.8,0.3-0.4,0.7-0.3,0.9h0.1
					l0,0c0-0.3,0-0.5-0.1-0.9c0,0.1-0.1,0.1-0.1,0.1l1.1,0.7c0-0.1,0.3-0.2,0.4-0.4c0.8-0.1,0.7,0.1,0.5,0.3l-2.2-1.4
					c0.1,0.2,0.3,0.5,0.4,0.5c0,0,0,0.2,0.1,0.4c0,0.2,0.1,0.4,0.1,0.4c0.2,0,0.7,0.5,1.2,0.7c0.5,0.3,1,0.3,0.8-0.4
					c0,0-1.2-0.9-1.1-1c0-0.4,0.4-0.3,0.8-0.3c0.3,0,0.6-0.2,0-0.9c-0.5-0.1-0.2,1-1.4-0.5c-0.6-0.8-0.5-0.9-0.1-0.6
					c0.6,0.3,0.7,0.2,0.5-0.1l4.5,2.7C68.2,44,69.1,45,67.1,44.6z"/>
				<path d="M70.7,45.1c0.1-0.1,0-0.3-0.1-0.4l-8.9-5.4l0,0l0,0l0.2,0.1c0.2,0.2,0.4,0.3,0.6,0.5c0.4,0.3,0.6,0.6,0.5,0.6
					c-0.8-0.7-1.4-1.3-1.5-1.3c0.4,0.5,0.1,0.2,0.1,0.2l-0.1-0.2c0,0,0.1,0.1,0.2,0.2l9.7,5.9C71.2,45.2,71,45.2,70.7,45.1z"/>
				<path class="st0" d="M65.4,42.9c0-0.4,2.1,0.9,1.7,0.3c1,0.8-0.1,0.2-0.2,0.5l-0.5-0.5L65.4,42.9z"/>
				<path d="M62.5,40.7c0,0.2-0.5-0.3-1-1.5l0,0l0,0l0,0c0,0.1,0.1,0.1,0.1,0.2C61.7,39.5,62,39.9,62.5,40.7z"/>
				<path class="st0" d="M66.7,44.3c0,0.3-0.1,0.5-0.3,0.7C66.3,44.7,66.1,44.1,66.7,44.3z"/>
				<path d="M63.7,43c0.5,0.9,0,0.3-0.1,0.3L63.3,43C63.3,42.7,63.3,42.5,63.7,43z"/>
				<path d="M66.5,42.8c0.4-0.4,1.3,0.1,1.5-0.3l0.2,0.2L66.6,43L66.5,42.8z"/>
				<path d="M67.8,42.1c-0.4,0-0.5-0.1-0.2-0.3h0.6C68.4,41.8,67.8,42,67.8,42.1z"/>
				<path d="M64.3,43c-0.4-0.1,0.4-0.2,0.7-0.3C65.5,42.7,64.5,43.2,64.3,43z"/>
				<path d="M54.6,42.4c1.3,0.1,0.6,0.5,1,0.8C55.2,42.9,54.4,42.8,54.6,42.4z"/>
				<path d="M69.7,49.3c-0.2,0-0.2,0.1-0.2,0.2c0,0,0.1,0.1,0.2,0.2c0.1,0.1,0.2,0.2,0.2,0.2l0.5-0.2c0,0,0-0.1-0.1-0.1
					c-0.1-0.1-0.2-0.1-0.2-0.1C69.9,49.4,69.7,49.3,69.7,49.3z"/>
				<path d="M70.4,49.2c-1.5-0.5-0.8-0.2-1.9-0.5c-0.2,0,0.1,0.2,0.4,0.3c0.2,0.1,0.4,0.1,0.4,0.2c0,0,0.2,0,0.4,0.1
					c0.2,0,0.4,0.1,0.4,0.1c0.2,0,0.4,0,0.5,0C70.8,49.3,70.8,49.3,70.4,49.2z"/>
				<path class="st0" d="M63.2,46.7c-0.8,0.1,0.1,0.7,0.1,0.9c0.3-0.3,0.6-0.6,0.7-0.8C63.7,46.6,63.5,46.7,63.2,46.7z"/>
				<path d="M68.3,56.4c0.2-0.3,0.6-0.6,0.9-1.1s0.4-1.1-0.3-1.9c-0.5,0.3-0.9,0.2-1.4,0.6c-0.8-0.6-0.6-0.8-0.2-0.9
					c0.4-0.1,1-0.2,1.1-0.5c-0.6,0.4-1.1-0.6-1.2-1c0.4-0.3,0.6-0.9,0.6-1.5c0-0.2,0-0.3,0-0.5c0-0.1,0-0.2,0-0.3
					c0-0.2-0.1-0.2-0.1-0.3c-0.3-0.1-0.3-0.2-0.3-0.3s-0.1-0.3-1.2-0.5c-0.1-0.3,1.4,0.1,1.8,0.2c-1-0.5,0.1-0.4,1,0
					c0.2,0.1,0.5,0.2,0.6,0.3c0.1,0,0.2,0.1,0.2,0.1c0.1,0,0.2,0,0.2,0c0.3-0.1,0.3-0.3-0.2-0.9c1,0.6,1,0.1,1.2,0
					c0.2-0.3,0.8-1-1.2-1.9c-1.4-0.5,0.4,1.1-1,0.8c-2.3-0.5-0.4-1.1-2.1-2c0.3,0.3-1.3-0.5-0.9,0c-0.5-1-2-0.8-2.9-1.7
					c-1.4,0.1-1.3,0-3.7-0.9c0.1,0.6,1.7,1.3,2.4,1.9c0.6,0.9-1.7,0.4-1.5,1.1c-2.6-1.6-2.7,0.2-2.8,1c-0.2,0.6,0.7,0.8,1.4,1
					c0.5,0.2,1,0.4,0.9,0.7c-0.7,0.1-1.2-0.1-1.7-0.4c-0.5-0.3-1-0.6-1.8-0.4c0,0,0.1,0.2,0.3,0.3s0.3,0.3,0.3,0.3
					c1.2,0.5,2.7,0.8,3.6,1.1c0,0.1,0,0.2,0,0.2c-0.1,0-0.2,0-0.4,0c-0.1,0-0.5,0-0.9,0c-0.2,0-0.4,0-0.6,0c-0.1,0-0.1,0-0.2,0
					c0,0,0,0-0.1,0c0.1,0,0.2,0,0.2,0c0.1,0,0.3,0.1,0.5,0.1c1.6,0.2,1.7,0.2,1.5,0.3c-0.1,0.1-0.5,0.2,0.4,0.6
					c0.6,0.4,0.6,0.6,0.3,0.6c-0.2,0-0.7-0.2-1.2-0.3c-1.1-0.4-2.2-0.9-1.7-0.3c2.6,1.2,1,1.2,1.7,2.1c-0.2,0.2-0.9-0.2-1.8-0.5
					c0.2,0.2,0.2,0.5,0.6,0.9c3.2,2,6.4,3.7,9.8,4.1C68.4,56.5,68.3,56.5,68.3,56.4z"/>
			</g>
		</g>
	</g>
</g>
<g>
	<g>
		<g>
			<g>
				<path d="M47.9,39.4c-0.3,0,0-0.4,0.9-0.6l0.5-0.2C49.3,38.7,49.4,39.1,47.9,39.4z"/>
				<path class="st0" d="M44,40.8c0.3-0.2,0.5-0.2,0.9-0.3v0.2C44.4,40.9,44.2,40.9,44,40.8z"/>
				<path d="M35.8,43.7l-0.2,0.1c0.2-0.1,0.3-0.2,0.2-0.2c0.4-0.2,0.9-0.2,0.7-0.1C36.3,43.6,36.2,43.5,35.8,43.7z"/>
				<path d="M44.1,38.6c-1.3,0.4-3.2,1.2-4.4,1.8l-2.2,0.7c1-0.5,0.3-0.5,0.2-0.7c-0.5,0.1-0.7,0.4-1.2,0.4c0.3-0.1,0.9-0.3,1-0.4
					c-0.6,0.1-2.3,0.7-2,0.3l1-0.5c-0.1-0.2-0.6-0.3-1-0.3s-0.6-0.1-0.2-0.4c-0.5,0.3-0.7,0.3-0.8,0.4c-0.1,0-0.1,0.1-0.2,0.2
					l-0.1,0.1h-0.1c0,0,0,0,0-0.1l0,0c0,0,0,0,0.1-0.1s0.3-0.2,0.3-0.2c-0.1,0.1-0.2,0.1-0.3,0.1v-0.1l0,0l0,0l0,0l0,0l0,0l0,0
					l0.3-0.1l0,0l0,0l0,0l0,0l0.1-0.1l0.5-0.4c0.9-0.7,0.5-0.3,1.8-1.3c0.4-0.3,0-0.1-0.3,0.1c-0.3,0.2-0.6,0.4-0.2,0
					c0.2-0.3-0.4,0.3-0.7,0.5c-0.5,0.5-0.5,0.5-1.1,1c-0.3,0.3,2.1-2.4,1.7-2.3c-0.4,0.4-1.3,1.5-1.8,2.2l0.5-0.5l-0.5,0.6
					c0,0,0,0-0.1,0.1c0,0.1-0.1,0.1-0.3,0.4c0.1-0.2,0.2-0.3,0.3-0.3c0.1-0.1,0.1-0.1,0.1-0.1s-0.2,0.2-0.3,0.4l0,0
					c0.1-0.1,0.3-0.4,0.7-1.1c-0.3,0.5-0.3,0.4,0.4-0.4c0.1-0.2,0.5-1.2,0.3-1.3l-0.6,1c0.5-1,0.8-1.7,0.8-2.1
					c-0.1,0.2-0.2,0.1-0.3,0.6c-0.3,0.6,0.1,0.5-0.9,2.3c0.1-0.5,0.6-1.4,0.6-3.1c0.1-0.1,0.2-0.1,0.3-0.2c0.1-0.1,0.2-0.4,0.5-1.1
					c0.5-0.6,0.9-0.6,1.2-0.5c0.4,0.1,0.7,0.1,1.6-0.4c-0.5,0.7-0.5,1-1,1.6c-0.3,0.5,0.2,0.1-0.5,1c1.1-0.6,1,0.3,1,0.6
					c1.6-1.3,1.2-0.6,2-0.9c-0.7,0.6-0.2,0.5-0.1,0.7c0.3-0.2,0.5-0.1,1-0.4c-0.3,0,0.1-0.2,0.2-0.5c1.3-0.7,0.1,0.3,0.1,0.5
					L41,36.6c0.1,0.3-2.1,1.7-0.7,1.3c0,0,0.3-0.2,0.6-0.4s0.6-0.4,0.6-0.4c0.7,0.1-0.9,1.2,0.8,0.8c0.4-0.4-0.8-0.4,1-1.1
					c1-0.4,1-0.1,0.7,0.2C42.5,38.3,46.6,37.2,44.1,38.6z"/>
				<path d="M47,36.8c-0.3-0.4-2.7,0.7-2.6,0.2c1-0.3,1.7-0.9,1.7-1.1c-0.6,0.1-0.3-0.3-0.4-0.4c0.1-0.2,1.3-0.7,1.4-0.5
					C45.4,36.3,48.7,35.7,47,36.8z"/>
				<path class="st0" d="M41.7,39.1c-0.2-0.1,2.1-0.9,1.4-0.9c1.2-0.3,0.1,0.1,0.2,0.3l-0.7,0.1L41.7,39.1z"/>
				<path d="M44.1,36.2c-0.2-0.1,0.2-0.7,1.4-1.3c0.1-0.1,0.7-0.3,0.5-0.3C45.6,34.8,45.7,35.4,44.1,36.2z"/>
				<path class="st0" d="M39.3,38.8c-0.3,0-0.3,0-0.4-0.1C39.2,38.7,39.7,38.6,39.3,38.8z"/>
				<path d="M41.6,37c-0.9,0.5-0.3,0-0.3,0l0.4-0.3C42,36.7,42.1,36.7,41.6,37z"/>
				<path d="M43.6,34.2c0.1-0.2,0.4-0.4,0.7-0.4c0.3-0.1,0.6-0.1,0.5-0.4l0.3,0.2l-1.3,0.9L43.6,34.2z"/>
				<path d="M44.5,33.1c-0.4,0.1-0.5,0.1-0.4-0.2l0.5-0.3C44.9,32.5,44.4,33,44.5,33.1z"/>
				<path d="M41.7,35.4c-0.4,0.1,0.3-0.3,0.6-0.5C42.7,34.6,41.9,35.4,41.7,35.4z"/>
				<path d="M34.6,39.9C34.7,39.8,34.7,39.9,34.6,39.9C34.7,39.9,34.6,39.9,34.6,39.9z"/>
				<path d="M49.4,40.4c-0.4,0.2,0,0.2,0.3,0.1l0.4-0.2L49.4,40.4z"/>
				<path d="M49.6,39.1c-1.4,0.4-0.7,0.3-1.7,0.9c-0.2,0.3,1,0.1,1,0.3l0.8-0.2C50.2,39.7,50.4,39.1,49.6,39.1z"/>
				<path class="st0" d="M42.5,41.4c-0.6,0.4,0.5,0.2,0.6,0.3c0.1-0.2,0.1-0.5,0.1-0.7C42.9,41.2,42.7,41.3,42.5,41.4z"/>
				<path d="M50.9,42.1c-0.2-0.2,0.8-1-1.1-0.6c-0.2,0.2-0.7,0.4-0.9,0.7c-1.9,0.5,0.1-0.4,0-0.6c-0.3,0.3-1.2,0.4-1.4,0.3
					c0.4-0.4,0.1-0.7-0.1-1c-0.7,0.1,0.2-0.8-1.6,0c-0.2-0.1,1.2-0.7,1.5-1c-2.3,0.3,3.6-2.2,0.9-1.8c1.1-0.4,0.8-0.5,0.9-0.7
					c0-0.2-0.1-0.7-2.1,0.1c-1.3,0.6,1,0.1-0.3,0.8c-2,1.1-1-0.1-2.8,0.6c0.4-0.1-1.2,0.5-0.6,0.5c-1,0-2,0.9-3.1,1.1
					c-0.9,0.8-1,0.8-3.2,1.8c0.5,0.1,2-0.5,2.9-0.8c1-0.1-1,0.9-0.5,0.9c-2.9,0.8-2,1.1-1.9,1.4c0,0.4,2.5-0.8,2.4-0.3
					c-1.3,0.7-1.9,0.3-3.3,1h0.6c1.1-0.3,2.6-0.7,3.4-0.9c0,0.1,0.1,0.2-0.3,0.3c-0.5,0-1.6,0.4-2.1,0.8c0.5-0.1,0.6-0.1,1-0.2
					c2.9-1.4,0.3,0.3,2.1-0.2c2.7-0.3-3.5,1.6-1.9,1.7c2.6-1.1,1.5-0.1,2.6-0.3c0,0.2-0.7,0.5-1.5,0.9c0.3-0.1,0.5,0,1-0.1
					c3.5-1.4,6.7-2.9,9.5-4.5C51.1,42.1,51,42.1,50.9,42.1z"/>
			</g>
		</g>
	</g>
</g>
<g>
	<g>
		<g>
			<g>
				<path d="M70.4,39.1c-0.3,0,0.1-0.2,1.1-0.3l0.6-0.1C72,38.8,72,39.1,70.4,39.1z"/>
				<path class="st0" d="M66.3,39.4c0.3-0.1,0.6-0.1,0.9-0.1l-0.1,0.1C66.7,39.5,66.5,39.4,66.3,39.4z"/>
				<path d="M57.7,40.1h-0.2C57.7,40.1,57.8,40.1,57.7,40.1c0.5-0.1,1-0.1,0.8,0C58.1,40.1,58.1,40,57.7,40.1z"/>
				<path d="M67,38.3c-1.4,0.1-3.4,0.4-4.7,0.6L60,39.1c1.1-0.2,0.5-0.2,0.4-0.3c-0.5,0-0.7,0.2-1.3,0.1c0.3,0,0.9-0.1,1.1-0.1
					c-0.6,0-2.4,0.2-1.9,0l1.1-0.2c-0.1-0.3-2-0.3-0.9-0.7c-1.2,0.1-0.8-0.1-1.5,0l0.7-0.1c-1.2,0.2,0.3,0,0.1,0l0.6-0.1
					c1.1-0.2,0.5-0.1,2.2-0.4c0.9-0.3-1.6,0.2-0.4-0.1c0.3-0.1-0.5,0.1-0.9,0.1c-0.7,0.2-0.7,0.2-1.4,0.4c-0.4,0.1,3-0.9,2.7-0.9
					c-0.6,0.2-1.9,0.5-2.7,0.8l0.7-0.2l-0.7,0.2c0,0,0,0-0.7,0.2c2.4-0.8-2.3,0.7,1.4-0.5c-0.6,0.2-0.5,0.2,0.5-0.1
					c0.2-0.1,1.1-0.5,1-0.6L59,37c1-0.4,1.6-0.7,1.8-0.8c-0.2,0.1-0.2,0-0.7,0.3c-0.6,0.2-0.2,0.2-2,0.9c0.4-0.2,1.2-0.6,2.4-1.1
					c0.3-0.1,0,0,1.4-0.6c0.8-0.3,1-0.3,1.3-0.2c0.3,0,0.5,0.1,1.5,0c-0.8,0.3-1,0.4-1.8,0.6c-0.5,0.2,0.1,0.1-1,0.4
					c1.2-0.1,0.6,0.3,0.5,0.5c2-0.4,1.3-0.1,2.2-0.2c-0.9,0.2-0.5,0.2-0.4,0.3c0.3,0,0.5,0,1-0.1c-0.3,0,0.2-0.1,0.4-0.2
					c1.5-0.2,0,0.1-0.1,0.2l-0.7,0c0,0.2-2.5,0.7-1.1,0.6l1.4-0.3c0.7,0.1-1.3,0.5,0.5,0.4c0.5-0.2-0.6-0.2,1.3-0.5
					c1-0.1,1,0,0.6,0.1C65.6,38,69.8,37.7,67,38.3z"/>
				<path d="M70.3,37.5c-0.1-0.2-2.8,0.2-2.6-0.1c1-0.1,1.9-0.3,2-0.4c-0.6,0-0.2-0.1-0.2-0.2c0.2-0.1,1.5-0.2,1.5-0.1
					C68.9,37.2,72.3,37.1,70.3,37.5z"/>
				<path class="st0" d="M64.6,38.3c-0.2-0.1,2.2-0.3,1.6-0.4c1.3-0.1,0,0.1,0.1,0.2h-0.7L64.6,38.3z"/>
				<path d="M67.8,37c-0.2-0.1,0.4-0.3,1.8-0.5c0.1,0,0.8-0.1,0.5-0.1C69.7,36.6,69.6,36.8,67.8,37z"/>
				<path class="st0" d="M62.4,38c-0.2,0-0.3,0-0.3-0.1C62.3,38,62.9,37.9,62.4,38z"/>
				<path d="M65.2,37.3c-1,0.1-0.3,0-0.3,0H65.2C65.6,37.2,65.8,37.2,65.2,37.3z"/>
				<path d="M68.1,36.2c0.4-0.2,1.3-0.1,1.5-0.2l0.2,0.1L68.1,36.2L68.1,36.2z"/>
				<path d="M69.5,35.8c-0.4,0-0.5,0-0.2-0.2l0.6-0.1C70.1,35.5,69.5,35.7,69.5,35.8z"/>
				<path d="M66,36.5c-0.4,0,0.4-0.1,0.7-0.2C67.2,36.3,66.1,36.6,66,36.5z"/>
				<path d="M56.5,38c1.2-0.3,0.5-0.1,0.9-0.2C57.1,37.9,56.7,38,56.5,38z"/>
				<path d="M71.6,39.8c-0.4,0.1-0.1,0.1,0.3,0.1l0.4-0.1H71.6z"/>
				<path d="M72.2,39.1c-1.5,0.1-0.8,0.1-1.9,0.3c-0.3,0.1,0.9,0.2,0.9,0.3H72C72.5,39.5,73,39.2,72.2,39.1z"/>
				<path class="st0" d="M64.8,39.6c-0.6,0.1,0.4,0.2,0.5,0.2c0.2-0.1,0.2-0.2,0.3-0.3C65.2,39.5,65,39.5,64.8,39.6z"/>
				<path d="M72.5,41c-0.1-0.2,1.1-0.4-0.8-0.5c-0.3,0.1-0.8,0.1-1,0.3c-2,0,0.3-0.2,0.2-0.3c-0.4,0.1-1.3,0-1.4,0
					c0.5-0.2,0.3-0.4,0.2-0.6c-0.7,0,0.4-0.4-1.5-0.2c-0.2-0.1,1.3-0.2,1.7-0.4c-2.3-0.1,4.1-0.8,1.3-0.9c1.1-0.1,1-0.2,1-0.3
					c0.1-0.1,0.1-0.4-2-0.2c-1.4,0.2,0.9,0.2-0.5,0.4c-2.3,0.4-0.9-0.1-2.8,0.1c0.4,0-1.3,0.2-0.7,0.2c-0.9-0.1-2.1,0.3-3.3,0.3
					c-1.1,0.3-1.1,0.3-3.6,0.6c0.4,0.1,2.1-0.1,3-0.2c1,0-1.2,0.3-0.7,0.4c-3,0.2-2.3,0.4-2.2,0.5c-0.1,0.2,2.7-0.1,2.4,0.1
					c-1.4,0.2-1.9,0-3.5,0.2h0.6c1.2,0,2.7-0.1,3.5-0.1c0,0,0.1,0.1-0.4,0.1s-1.6,0.1-2.3,0.2c0.5,0,0.6,0,1.1,0
					c3.2-0.3,0.2,0.1,2.1,0.1c2.7,0.2-3.8,0.3-2.4,0.6c2.8-0.2,1.5,0.1,2.6,0.2c-0.1,0.1-0.9,0.1-1.7,0.2c0.3,0,0.5,0.1,1,0.1
					c3.8-0.1,7.3-0.4,10.4-0.9C72.6,41,72.6,41,72.5,41z"/>
			</g>
		</g>
	</g>
</g>
<g>
	<g>
		<g>
			<g>
				<path d="M59.5,37.9c0.2-0.2,0.1,0.2-0.4,1l-0.2,0.5C58.9,39.3,58.7,39.2,59.5,37.9z"/>
				<path class="st0" d="M61.4,34.2c-0.1,0.3-0.2,0.5-0.4,0.8v-0.1C61.1,34.5,61.3,34.3,61.4,34.2z"/>
				<path d="M65.3,26.5l0.1-0.2C65.3,26.5,65.3,26.6,65.3,26.5c-0.2,0.5-0.5,0.9-0.4,0.7C65.1,26.9,65.1,26.9,65.3,26.5z"/>
				<path d="M61.7,35.2c0.6-1.2,1.4-3.1,1.9-4.3l1-2.1c-0.4,1-0.1,0.5-0.1,0.5c0.2-0.4,0.3-0.7,0.5-1.1c-0.1,0.3-0.4,0.8-0.5,1
					c0.3-0.5,1-2.2,0.9-1.7l-0.4,1c0.2,0,1-1.6,0.7-0.6c0.4-1.1,0.4-0.7,0.7-1.4l-0.2,0.6c0.4-1.1,0,0.3,0,0.1L66,28
					c-0.4,1.1-0.3,0.5-0.8,2.1c-0.3,0.9,0.6-1.5,0.3-0.3c0,0.3,0.2-0.5,0.4-0.8c0.2-0.7,0.2-0.6,0.5-1.4c0.2-0.4-0.9,3.1-0.7,2.8
					c0.2-0.5,0.7-1.9,0.9-2.7l-0.3,0.7l0.2-0.7c0,0,0.1,0.1,0.3-0.7c-0.8,2.5,0.9-2.3-0.4,1.4c0.2-0.6,0.1-0.5-0.2,0.5
					c0,0.3-0.2,1.3-0.1,1.3l0.4-1.1c-0.3,1.1-0.5,1.8-0.5,2.1c0.1-0.2,0.1-0.1,0.2-0.7c0.2-0.7,0-0.4,0.6-2.4
					c-0.1,0.5-0.2,1.5-0.6,3.1c-0.1,0.2-0.1-0.1-0.5,1.4c-0.6,1.4-0.5,0.2-1.3,1.9c0.2-0.8,0.3-1.1,0.5-1.8c0.2-0.5-0.1,0,0.3-1
					c-0.5,1-0.5,0.4-0.6,0.2c-0.7,1.9-0.5,1.2-0.9,2c0.3-0.8,0.1-0.5,0-0.5c-0.1,0.3-0.2,0.4-0.4,1c0.1-0.2,0,0.2-0.1,0.4
					c-0.6,1.4-0.1-0.1-0.1-0.2l0.3-0.8c-0.1-0.1,0.8-2.5,0.2-1.2L63.1,34c-0.4,0.6,0.3-1.3-0.5,0.3c-0.1,0.5,0.4-0.5-0.3,1.3
					c-0.4,0.9-0.5,0.9-0.3,0.4C62.5,34.1,60.7,37.9,61.7,35.2z"/>
				<path d="M60.6,38.4c0.2,0,1.2-2.5,1.3-2.2c-0.4,0.9-0.7,1.8-0.7,1.9c0.3-0.5,0.2-0.1,0.2-0.1c0,0.2-0.5,1.4-0.6,1.4
					C61.4,37.3,59.9,40.3,60.6,38.4z"/>
				<path class="st0" d="M62.8,33.1c0.1-0.1-0.9,2.1-0.6,1.5c-0.5,1.2-0.1,0-0.1,0l0.3-0.6L62.8,33.1z"/>
				<path d="M62.1,36.4c0.1-0.1,0,0.5-0.5,1.8c0,0.1-0.3,0.7-0.2,0.5C61.5,38.2,61.4,38.1,62.1,36.4z"/>
				<path class="st0" d="M64,31.3c0.1-0.2,0.1-0.2,0.2-0.2C64.1,31.2,63.8,31.8,64,31.3z"/>
				<path d="M63.1,34c0.4-0.9,0.1-0.2,0.1-0.2l-0.1,0.4C63,34.4,62.9,34.6,63.1,34z"/>
				<path d="M62.4,37c-0.1,0.4-0.5,1.2-0.5,1.4l-0.1,0.1L62.4,37L62.4,37z"/>
				<path d="M62,38.4C62.1,38.1,62.2,38,62,38.4l-0.1,0.4C61.8,39,62,38.4,62,38.4z"/>
				<path d="M63.2,35c0.2-0.3-0.1,0.4-0.2,0.7C62.8,36.1,63.1,35.1,63.2,35z"/>
				<path d="M66.7,26.1c-0.4,1.2-0.2,0.5-0.4,0.8C66.5,26.6,66.8,25.9,66.7,26.1z"/>
				<path d="M58.4,38.6c0.2-0.4,0-0.1-0.2,0.2L58,39.2L58.4,38.6z"/>
				<path d="M58.6,39.4c0.7-1.3,0.3-0.7,0.8-1.7c0.1-0.3-0.6,0.7-0.7,0.6L58.3,39C58.1,39.5,58.1,40,58.6,39.4z"/>
				<path class="st0" d="M62.1,32.8c0.3-0.6-0.3,0.3-0.4,0.3c0,0.2,0,0.3,0,0.4C61.9,33.2,62,33,62.1,32.8z"/>
				<path d="M57.2,38.8c0.1,0-0.3,1.1,0.8-0.5c0.1-0.3,0.3-0.7,0.4-1c1.1-1.7,0,0.3,0.1,0.3c0.1-0.4,0.6-1.1,0.8-1.2
					c-0.2,0.5,0.1,0.4,0.3,0.4c0.4-0.6,0,0.5,0.9-1.2c0.2-0.1-0.5,1.2-0.7,1.6c1.2-1.9-1.5,3.9-0.1,1.5c-0.5,1-0.3,0.9-0.3,1
					c0.1,0.1,0.2,0.3,1.1-1.7c0.6-1.3-0.6,0.7,0-0.6c0.9-2.2,0.5-0.7,1.4-2.5c-0.2,0.3,0.5-1.2,0.2-0.7c0.5-0.7,0.9-2,1.4-3
					c0.4-1.1,0.4-1.1,1.4-3.3c-0.2,0.3-1,1.9-1.4,2.7c-0.5,0.8,0.4-1.2,0.2-0.8c1.4-2.7,1-2.1,0.9-2.1c0-0.2-1.3,2.3-1.2,2.1
					c0.6-1.3,1-1.6,1.7-3l-0.3,0.5c-0.6,1-1.3,2.3-1.7,3c0,0-0.1,0,0.1-0.4c0.3-0.4,0.8-1.4,1.1-2c-0.2,0.4-0.3,0.5-0.5,0.9
					c-1.5,2.9-0.2,0.1-1.1,1.7c-1.5,2.2,1.8-3.3,1-2.2c-1.4,2.4-0.8,1.2-1.5,2.1c0-0.1,0.4-0.8,0.8-1.5c-0.2,0.3-0.3,0.4-0.6,0.8
					C60.4,32.9,58.6,36,57.2,38.8C57.1,38.9,57.1,38.9,57.2,38.8z"/>
			</g>
		</g>
	</g>
</g>
<g>
	<g>
		<g>
			<g>
				<path d="M65.3,29.4c0.1,0.2-0.1-0.1-0.5-0.9L64.6,28C64.6,28,64.7,27.9,65.3,29.4z"/>
				<path class="st0" d="M67,33.1c-0.1-0.3-0.2-0.5-0.4-0.8l0.1,0.1C66.9,32.7,67,33,67,33.1z"/>
				<path d="M70.6,41l0.1,0.2C70.6,41,70.6,40.9,70.6,41c-0.2-0.5-0.4-0.9-0.3-0.7C70.4,40.6,70.4,40.6,70.6,41z"/>
				<path d="M66.4,32.6c0.6,1.2,1.5,3,2.1,4.2l1,2c-0.5-1-0.2-0.4-0.2-0.4c0.2,0.4,0.3,0.7,0.6,1.1c-0.2-0.3-0.4-0.8-0.5-1
					c0.3,0.5,1.1,2.1,0.9,1.7l-0.5-1c0,0.1,0.9,1.7,0.3,0.7c0.6,1,0.4,0.7,0.7,1.3l-0.3-0.6c0.6,1-0.1-0.2-0.1-0.1L70,40.2
					c-0.6-1-0.3-0.5-1.1-1.9c-0.5-0.8,0.8,1.4,0.2,0.4c-0.2-0.2,0.2,0.4,0.4,0.7c0.4,0.6,0.3,0.6,0.8,1.2c0.2,0.4-1.7-2.6-1.5-2.3
					c0.3,0.5,1.1,1.7,1.5,2.3L69.8,40l0.4,0.6c0,0,0,0,0.4,0.6c-1.4-2.1,1.3,2-0.8-1.2c0.3,0.5,0.3,0.4-0.3-0.5
					c-0.1-0.2-0.7-1-0.8-1l0.6,0.9c-0.6-0.9-1-1.5-1.2-1.7c0.1,0.2,0.1,0.1,0.4,0.6c0.4,0.5,0.3,0.3,1.3,1.9
					c-0.3-0.4-0.9-1.2-1.8-2.4c-0.1-0.2,0,0-0.8-1.2c-0.8-1.3-0.1-0.4-1-2c0.4,0.7,0.6,0.9,1,1.6c0.3,0.4,0-0.1,0.6,0.9
					c-0.6-1-0.2-0.5-0.1-0.4c-1-1.7-0.6-1.1-1-1.9c0.5,0.8,0.3,0.4,0.3,0.3c-0.2-0.3-0.2-0.4-0.5-0.9c0.1,0.2-0.1-0.2-0.2-0.3
					c-0.7-1.3,0.1,0,0.1,0.1l0.4,0.7c0.1,0,1.3,2.2,0.7,0.9l-0.7-1.2c-0.3-0.6,0.7,1.1-0.1-0.5c-0.3-0.4,0.2,0.6-0.7-1.1
					c-0.5-0.9-0.4-0.9-0.2-0.5C66.8,33.9,65,30.1,66.4,32.6z"/>
				<path d="M64.7,29.7c-0.1,0.1,1.2,2.5,1.1,2.3c-0.5-0.9-0.9-1.7-1-1.7c0.3,0.6,0,0.2,0,0.2c-0.1-0.2-0.7-1.3-0.7-1.3
					C65.1,31,63.7,28,64.7,29.7z"/>
				<path class="st0" d="M67.4,34.7c0,0.2-1-2-0.8-1.4c-0.6-1.1,0,0,0-0.1l0.3,0.6L67.4,34.7z"/>
				<path d="M65.6,32c0,0.1-0.3-0.4-1-1.6c-0.1-0.1-0.4-0.7-0.3-0.5C64.5,30.4,64.7,30.4,65.6,32z"/>
				<path class="st0" d="M68.3,36.8c0.1,0.2,0.1,0.2,0.1,0.3C68.3,36.8,68,36.3,68.3,36.8z"/>
				<path d="M66.8,34.3c0.5,0.9,0.1,0.2,0.1,0.2l-0.2-0.4C66.6,34,66.5,33.8,66.8,34.3z"/>
				<path d="M65.1,31.8c-0.2-0.3-0.6-1.2-0.8-1.3v-0.1L65.1,31.8L65.1,31.8z"/>
				<path d="M64.3,30.6c0.2,0.3,0.2,0.4,0,0.2L64,30.3C64,30.1,64.3,30.6,64.3,30.6z"/>
				<path d="M66.2,33.7c0.2,0.3-0.2-0.4-0.4-0.6C65.6,32.6,66.1,33.6,66.2,33.7z"/>
				<path d="M71,41.8c-0.6-1.1-0.3-0.4-0.5-0.8C70.7,41.4,70.9,41.7,71,41.8z"/>
				<path d="M65.2,28.2c0.2,0.4,0.1,0,0-0.3L65,27.5L65.2,28.2z"/>
				<path d="M64.7,27.7c0.6,1.4,0.3,0.7,0.8,1.7c0.2,0.2-0.3-0.9-0.2-0.8L65,27.8C64.8,27.4,64.4,27,64.7,27.7z"/>
				<path class="st0" d="M67.7,34.6c0.3,0.6-0.1-0.4-0.1-0.5c-0.1-0.2-0.2-0.2-0.2-0.2C67.5,34.2,67.6,34.4,67.7,34.6z"/>
				<path d="M65.5,27.2c0,0.1-0.6-1,0,0.8c0.2,0.3,0.3,0.7,0.5,0.9c0.7,1.9-0.2-0.2-0.2-0.2c0.2,0.4,0.5,1.2,0.5,1.3
					c-0.3-0.3-0.3-0.1-0.4,0c0.3,0.7-0.3-0.3,0.5,1.4c0,0.2-0.6-1.2-0.8-1.5c0.9,2.1-1.9-3.7-0.9-1.1c-0.5-1-0.5-0.9-0.5-0.9
					c-0.1,0-0.3-0.1,0.7,1.9c0.7,1.3-0.3-0.9,0.4,0.4c1.1,2,0.3,0.9,1.2,2.6c-0.1-0.3,0.6,1.2,0.4,0.6c0.3,0.8,1,1.9,1.5,3
					c0.5,1,0.5,1,1.6,3.2c-0.2-0.4-0.9-1.9-1.3-2.7C68.2,36,69.2,38,69,37.5c1.2,2.7,1,2.1,1,2c0.1,0.1-1.1-2.4-0.9-2.2
					c0.6,1.3,0.7,1.8,1.4,3.2l-0.2-0.6c-0.4-1.1-1-2.5-1.3-3.2c0,0,0-0.1,0.2,0.4s0.6,1.5,0.9,2.1c-0.2-0.4-0.2-0.5-0.4-1
					c-1.3-3,0-0.2-0.7-1.9c-0.9-2.5,1.4,3.5,1,2.2c-1-2.6-0.5-1.4-0.8-2.4c0,0.1,0.3,0.8,0.6,1.6c-0.1-0.3-0.1-0.4-0.3-1
					c-1.1-3.6-2.4-6.9-3.7-9.8C65.4,27,65.5,27.1,65.5,27.2z"/>
			</g>
		</g>
	</g>
</g>
<g>
	<g>
		<g>
			<g>
				<path d="M69.2,32.3c-0.2,0.1,0.1-0.1,1-0.5l0.5-0.3C70.6,31.6,70.6,31.7,69.2,32.3z"/>
				<path class="st0" d="M65.6,34.2c0.3-0.1,0.5-0.3,0.8-0.4h-0.1C65.9,34,65.7,34.2,65.6,34.2z"/>
				<path d="M57.8,38.2l-0.2,0.1C57.8,38.2,57.9,38.1,57.8,38.2c0.5-0.3,0.9-0.5,0.7-0.4C58.2,37.9,58.2,38,57.8,38.2z"/>
				<path d="M66.2,33.8c-1.2,0.6-3,1.6-4.2,2.2l-2,1c1-0.5,0.4-0.2,0.4-0.2c-0.4,0.2-0.7,0.4-1.1,0.6c0.3-0.2,0.8-0.4,1-0.5
					c-0.5,0.3-2.2,1.1-1.7,0.9l1-0.5c0,0-1.7,0.8-0.7,0.3c-1,0.5-0.7,0.3-1.4,0.7l0.6-0.3c-1,0.5,0.2-0.1,0.1-0.1l0.6-0.3
					c1-0.5,0.5-0.2,2-1c0.9-0.5-1.4,0.7-0.4,0.1c0.3-0.1-0.5,0.2-0.8,0.4c-0.6,0.3-0.6,0.3-1.3,0.7c-0.4,0.2,2.8-1.5,2.5-1.3
					c-0.5,0.3-1.8,0.9-2.6,1.3l0.6-0.3l-0.7,0.4c0,0,0,0-0.7,0.3c2.3-1.2-2.2,1.1,1.3-0.7c-0.6,0.3-0.4,0.2,0.5-0.2
					c0.2-0.1,1.1-0.6,1.1-0.7l-1,0.5c1-0.5,1.7-0.9,2-1c-0.2,0.1-0.1,0.1-0.6,0.3c-0.6,0.3-0.4,0.2-2.2,1.1c0.4-0.2,1.3-0.7,2.8-1.5
					c0.2-0.1,0,0,1.3-0.7c1.4-0.7,0.3-0.1,2-0.9c-0.7,0.4-1,0.5-1.7,0.9c-0.5,0.3,0.1,0-1,0.5c1-0.5,0.5-0.2,0.4-0.1
					c1.8-0.9,1.2-0.6,1.9-1c-0.8,0.4-0.4,0.2-0.4,0.2c0.3-0.2,0.4-0.2,0.9-0.5c-0.2,0.1,0.2-0.1,0.3-0.2c1.3-0.7,0,0-0.1,0.1
					l-0.7,0.4c0,0-2.3,1.2-1,0.6l1.3-0.7c0.6-0.3-1.2,0.6,0.4-0.2C65.5,34.1,64.5,34.5,66.2,33.8c0.9-0.6,0.9-0.5,0.5-0.3
					C65,34.3,68.7,32.4,66.2,33.8z"/>
				<path d="M69.2,32.2c-0.1,0-2.5,1.3-2.3,1.1c0.9-0.5,1.7-0.9,1.8-0.9c-0.5,0.3-0.2,0.1-0.2,0.1c0.2-0.1,1.3-0.7,1.3-0.7
					C68,32.8,70.9,31.3,69.2,32.2z"/>
				<path class="st0" d="M64.1,34.8c-0.2,0.1,2-1,1.4-0.8c1.1-0.6,0,0,0.1,0L65,34.4L64.1,34.8z"/>
				<path d="M66.9,33.3c-0.1,0.1,0.4-0.2,1.6-0.9c0.1-0.1,0.7-0.4,0.5-0.3C68.7,32.4,68.6,32.4,66.9,33.3z"/>
				<path class="st0" d="M62.1,35.8c-0.2,0.1-0.2,0.1-0.3,0.1C62.1,35.8,62.6,35.5,62.1,35.8z"/>
				<path d="M64.7,34.4c-0.9,0.5-0.2,0.1-0.2,0.1l0.4-0.2C65,34.2,65.2,34.2,64.7,34.4z"/>
				<path d="M67.3,33c0.4-0.2,1.2-0.6,1.3-0.7l0.1-0.1L67.3,33L67.3,33z"/>
				<path d="M68.6,32.3C68.3,32.5,68.2,32.5,68.6,32.3l0.4-0.2C69.2,32,68.6,32.3,68.6,32.3z"/>
				<path d="M65.4,34c-0.3,0.2,0.4-0.2,0.7-0.4C66.5,33.4,65.5,33.9,65.4,34z"/>
				<path d="M56.8,38.3c1.1-0.6,0.5-0.2,0.8-0.4C57.3,38.1,56.7,38.4,56.8,38.3z"/>
				<path d="M70.2,31.9c-0.4,0.2-0.1,0,0.3-0.1l0.4-0.2L70.2,31.9z"/>
				<path d="M70.8,31.6c-1.3,0.7-0.7,0.4-1.7,0.9c-0.3,0.1,0.8-0.4,0.8-0.4l0.7-0.4C71.1,31.5,71.5,31.2,70.8,31.6z"/>
				<path class="st0" d="M64.1,34.9c-0.6,0.3,0.4-0.2,0.4-0.2c0.2-0.1,0.2-0.1,0.3-0.2C64.5,34.7,64.3,34.8,64.1,34.9z"/>
				<path d="M71,31.6c-0.1,0,1-0.5-0.7,0.3c-0.3,0.1-0.7,0.4-0.9,0.5c-1.8,0.9,0.2-0.1,0.2-0.1c-0.4,0.2-1.1,0.6-1.3,0.6
					c0.4-0.2,0.3-0.2,0.2-0.1c-0.6,0.3,0.4-0.2-1.4,0.7c-0.2,0.1,1.2-0.6,1.5-0.8c-2,1,3.7-1.9,1.2-0.7c1-0.5,0.9-0.5,0.9-0.5
					c0.1,0,0.1-0.1-1.8,0.9c-1.3,0.7,0.8-0.4-0.5,0.3c-2,1.1-0.8,0.4-2.5,1.3c0.3-0.2-1.2,0.6-0.7,0.3c-0.8,0.4-1.9,1-3,1.5
					c-1,0.5-1,0.5-3.2,1.7c0.4-0.2,1.9-0.9,2.7-1.4c0.9-0.4-1.1,0.6-0.7,0.4c-2.7,1.4-2,1.1-2,1c-0.1,0.1,2.4-1.2,2.1-1.1
					c-1.3,0.7-1.7,0.9-3.1,1.6l0.5-0.3c1-0.5,2.4-1.2,3.1-1.6c0,0,0,0-0.4,0.2s-1.4,0.7-2,1c0.4-0.2,0.5-0.3,0.9-0.5
					c2.9-1.5,0.2-0.1,1.9-0.9c2.4-1.2-3.4,1.7-2.1,1.1c2.5-1.3,1.3-0.6,2.3-1.1c-0.1,0-0.8,0.4-1.5,0.8c0.3-0.1,0.4-0.2,0.9-0.5
					c3.4-1.7,6.5-3.3,9.3-4.8C71.2,31.5,71.1,31.6,71,31.6z"/>
			</g>
		</g>
	</g>
</g>
<g>
	<g>
		<g>
			<g>
				<path d="M43.6,32c-0.2,0.2-0.2-0.3,0.3-1.1l0.2-0.5C44.1,30.5,44.4,30.6,43.6,32z"/>
				<path class="st0" d="M41.9,35.7c0.1-0.3,0.2-0.5,0.4-0.8l0.1,0.1C42.2,35.4,42,35.6,41.9,35.7z"/>
				<path d="M38.1,43.5L38,43.7C38.1,43.5,38.1,43.4,38.1,43.5c0.2-0.5,0.4-0.9,0.4-0.7C38.3,43.1,38.3,43.1,38.1,43.5z"/>
				<path d="M40.8,34.3c-0.6,1.3-1.3,3.1-1.7,4.4l-1,2.1c0.4-1.1,0-0.5-0.2-0.6c-0.2,0.4-0.2,0.7-0.5,1.2c0.1-0.3,0.4-0.8,0.4-1
					c-0.4,0.5-1,2.2-1,1.7l0.4-1.1c-0.4-0.1-1.5,1.4-1.5,0.2c-0.5,1.1-0.5,0.6-0.9,1.3l0.2-0.6c-0.5,1.1-0.1-0.3-0.2-0.2l0.2-0.6
					c0.4-1.1,0.4-0.4,0.9-2c0.2-1-0.8,1.4-0.6,0.2c0-0.3-0.3,0.4-0.5,0.7c-0.3,0.6-0.2,0.6-0.5,1.4c-0.4,0.3,0.8-3.1,0.4-2.9
					c-0.2,0.5-0.9,1.8-1,2.7l0.3-0.6l-0.2,0.8c-0.1,0-0.2-0.1-0.4,0.6c0.7-2.5-1.3,2.2,0.2-1.5c-0.1,0.6,0,0.5,0.4-0.4
					c-0.2-0.3-0.1-1.4-0.4-1.5l-0.4,1.1c0.3-1.1,0.5-1.8,0.4-2.2c-0.1,0.2-0.2,0.1-0.3,0.7c-0.2,0.7,0.3,0.5-0.5,2.4
					c-0.1-0.5-0.1-1.6,0.2-3.2c0.2-0.2,0.2,0.1,0.8-1.3c0.9-1.3,1.1,0,2.2-1.6c-0.2,0.8-0.2,1.1-0.5,1.8c-0.1,0.5,0.2,0-0.2,1.1
					c0.7-1,0.9-0.2,1.2,0c0.6-1.9,0.7-1.2,1-1.9c-0.2,0.9,0.1,0.5,0.2,0.6c0.1-0.3,0.3-0.4,0.4-1c-0.2,0.2,0-0.2-0.1-0.4
					c0.6-1.4,0.2,0.1,0.3,0.2L38,35.3c0.2,0.1-0.5,2.6,0.2,1.3l0.4-1.4c0.5-0.5,0,1.4,0.9-0.1c0-0.5-0.6,0.4,0.1-1.4
					c0.4-0.9,0.6-0.8,0.5-0.4C39.6,35.3,41.6,31.5,40.8,34.3z"/>
				<path d="M41.6,31c-0.4,0-1.3,2.5-1.5,2.1c0.4-0.9,0.6-1.8,0.6-1.9c-0.3,0.5-0.3,0.1-0.4,0.1c0-0.2,0.5-1.4,0.6-1.4
					C40.4,31.9,42.1,29,41.6,31z"/>
				<path class="st0" d="M39.6,36.4c-0.2,0.1,0.8-2.1,0.4-1.6c0.6-1.1,0.1,0,0.2,0l-0.4,0.6L39.6,36.4z"/>
				<path d="M39.6,32.8c-0.2,0.1-0.2-0.6,0.3-1.8c0-0.1,0.3-0.7,0.2-0.5C40.1,30.9,40.3,31.1,39.6,32.8z"/>
				<path class="st0" d="M38,38.1c-0.1,0.2-0.2,0.2-0.3,0.2C37.8,38,38.1,37.5,38,38.1z"/>
				<path d="M38.5,35.2c-0.4,1-0.2,0.2-0.2,0.2l0.1-0.4C38.6,34.7,38.7,34.6,38.5,35.2z"/>
				<path d="M38.8,32c0-0.4,0.6-1.2,0.5-1.4l0.2-0.1L38.9,32H38.8z"/>
				<path d="M39.1,30.6c-0.2,0.3-0.3,0.4-0.2,0.1l0.2-0.5C39.2,29.9,39,30.6,39.1,30.6z"/>
				<path d="M38,34c-0.2,0.3,0.1-0.4,0.2-0.8C38.4,32.8,38.1,33.9,38,34z"/>
				<path d="M34,42.8c0.5-1.2,0.3-0.4,0.6-0.7C34.3,42.3,34.1,43,34,42.8z"/>
				<path d="M45.2,31.5c-0.1,0.4,0.1,0.1,0.3-0.2l0.2-0.4L45.2,31.5z"/>
				<path d="M44.6,30.5c-0.7,1.3-0.3,0.7-0.7,1.8c0,0.3,0.7-0.7,0.9-0.5l0.5-0.7C45.3,30.5,45.1,29.9,44.6,30.5z"/>
				<path class="st0" d="M41.2,37.1c-0.2,0.6,0.4-0.3,0.5-0.3c-0.1-0.2-0.2-0.4-0.3-0.5C41.3,36.7,41.3,36.9,41.2,37.1z"/>
				<path d="M47.1,31.6c-0.2-0.1,0-1.2-1.1,0.3c0,0.3-0.3,0.7-0.2,1.1c-1,1.7-0.1-0.4-0.3-0.4c-0.1,0.4-0.6,1.1-0.8,1.2
					c0.1-0.6-0.3-0.5-0.6-0.6c-0.4,0.6-0.3-0.6-1.1,1.1c-0.2,0.1,0.4-1.3,0.5-1.7c-1.3,1.9,1.1-4-0.4-1.7c0.5-1,0.2-1,0.2-1.1
					c-0.1-0.1-0.5-0.4-1.3,1.6c-0.5,1.4,0.7-0.7,0.3,0.7c-0.7,2.2-0.7,0.7-1.5,2.5c0.2-0.3-0.5,1.3-0.1,0.8c-0.6,0.7-0.8,2-1.4,3
					c-0.2,1.2-0.2,1.2-1.1,3.5c0.3-0.3,1-1.9,1.4-2.7c0.6-0.8-0.2,1.3,0.1,0.9c-1.4,2.7-0.8,2.2-0.6,2.2c0.1,0.2,1.2-2.3,1.4-2
					c-0.5,1.3-1.1,1.6-1.6,3.1l0.4-0.5c0.6-1,1.3-2.3,1.8-3c0.1,0,0.1,0-0.1,0.4c-0.3,0.4-0.8,1.4-1,2c0.3-0.4,0.3-0.5,0.6-0.9
					c1.3-3,0.3-0.1,1.3-1.7c1.7-2.1-1.6,3.5-0.5,2.4c1.2-2.5,1-1.2,1.6-2c0.1,0.1-0.3,0.8-0.6,1.6c0.2-0.3,0.3-0.3,0.6-0.8
					c1.8-3.3,3.3-6.6,4.3-9.5C47.2,31.4,47.2,31.5,47.1,31.6z"/>
			</g>
		</g>
	</g>
</g>
</svg>
