<?xml version="1.0" encoding="utf-8"?>
<!-- Generator: Adobe Illustrator 19.2.0, SVG Export Plug-In . SVG Version: 6.00 Build 0)  -->
<svg version="1.1" id="Layer_1" xmlns="http://www.w3.org/2000/svg" xmlns:xlink="http://www.w3.org/1999/xlink" x="0px" y="0px"
	 viewBox="0 0 373.4 113.7" style="enable-background:new 0 0 373.4 113.7;" xml:space="preserve">
<style type="text/css">
	.st0{enable-background:new    ;}
	.st1{fill:#231F20;}
	.st2{fill:#FFFFFF;}
	.st3{fill:#010101;}
</style>
<title>sandwiches</title>
<g class="st0">
	<path class="st1" d="M66.5,79.6l-0.4,0.6l0,0.4C66.1,80.9,66.1,81,66,81l-0.1,0.2c0,0.1,0.1,0.2,0.1,0.3c0,0.1,0,0.2,0,0.2
		l-0.2-0.1c0,0-0.1,0-0.3,0l0.2,0.2l0,0.4l-0.8,0.7c0,0.1,0,0.1,0,0.2c0,0.1-0.1,0.1-0.1,0.1c-0.2-0.1-0.3-0.2-0.4-0.4
		c-0.1,0.1-0.2,0.1-0.2,0.2L64,83.5l-0.4-0.1l-0.3-0.1L63,84.2l-0.3,0.3l-0.2,0.3c0,0-0.1,0-0.3,0l-0.3,0.5l-0.2,0l0,0.3l-0.4,0.1
		l-0.6,0.6L60,87.4c-0.3,0-0.4,0.1-0.6,0.3c-0.1,0.1-0.2,0.4-0.2,0.9c-0.1,0-0.3,0-0.4-0.1l-0.2,0.2l-0.7,0
		c-0.2,0.1-0.3,0.2-0.3,0.3l-0.2,0.4c-0.1-0.1-0.2-0.2-0.3-0.2c-0.1,0-0.2-0.1-0.2-0.1l-0.4,0.4l-0.7-0.1l-0.3,0.4
		c-0.2,0-0.5-0.2-0.7-0.5l-0.3-0.5c-0.2,0-0.3,0.1-0.3,0.4c0,0.2,0,0.3,0,0.4c0,0-0.1,0.1-0.1,0.1l-0.7-0.2l-0.2,0.3L53,89.9
		l-0.5-0.7l-0.4,0.2l-0.7,0.4l-0.1,0.3l-0.5,0L50.2,90l-0.6,0.2L48.7,90c-0.5,0-0.8,0-1-0.2l-0.2-0.4l0-0.5l-0.1-0.3l0.3,0.2
		c0.1,0.1,0.2,0.1,0.4,0.2l0-0.7L48,88l-0.2-0.3l0.3-0.5L48,86.5l0.6-0.1l0.1-0.2c0.4,0.1,0.6,0,0.6-0.1c-0.1-0.2-0.2-0.4-0.3-0.4
		l-0.6-0.3l-0.4-0.1L48,85.1l0.4-0.2l0-0.2l0.1-0.4l0.5,0.1l0.4-0.3c0-0.1,0-0.2-0.1-0.2l-0.2-0.2l0.3,0c0.1-0.1,0.1-0.3,0.1-0.6
		l-0.1-0.7l0.2-0.6L50,81c0.2,0.1,0.4,0,0.5-0.1l1-0.6c0.4-0.2,0.8-0.3,1.1-0.4c0.4,0,0.8,0.2,1.1,0.5c0,0.2,0,0.4-0.1,0.5l-0.2,0.6
		l0.3,0.4l-0.4,0.5c-0.2,0.2-0.3,0.4-0.4,0.6c0.1,0.2,0.2,0.3,0.3,0.3c0.3,0,0.6,0,0.7-0.1l0.6-0.2l0.9,0.3c0.1-0.1,0.2-0.2,0.4-0.2
		l1.1,0l1.2,0l1.3-0.2l0.9-0.3l0.3-0.6c0.1,0,0.1,0,0.2-0.1c0,0,0.1-0.1,0.1-0.1l-0.1-0.4l-1-1l-0.6-0.8l-0.6-0.3l-0.4-0.5l-0.3-0.7
		l0.2-0.5l-0.4-0.3c-0.2,0-0.3-0.1-0.3-0.3c0-0.2,0-0.4-0.1-0.5c-0.1-0.1-0.3-0.2-0.5-0.1l-0.7,0.1L56,76.2l-0.2-0.2
		c-0.2,0-0.4,0.1-0.4,0.1c-0.2,0-0.3-0.1-0.3-0.1l-1.5-1.4l-0.8-0.4l-0.3-0.4l-0.3,0l-0.8-0.4L51,73.2l-0.3-0.6c0-0.2,0-0.3-0.1-0.4
		c0,0-0.1,0-0.1,0l-0.5,0l-0.8-0.5L48.4,71l-1-0.3l-1-1L45.2,69l-0.7-0.6l-1.4-0.7l-0.3-0.5c-0.6-0.1-1-0.3-1.2-0.4
		c-0.4-0.2-0.7-0.5-0.8-0.8c-0.1-0.4-0.3-0.6-0.5-0.7l-1.3-1l-1-1l-0.5-0.8l-0.1-0.4l-0.4,0c0-0.1,0-0.2,0-0.3c0-0.1,0-0.2,0-0.2
		l-0.2-0.6l-0.2-0.5l-0.3,0.1c-0.2-0.1-0.2-0.2-0.1-0.4l0.4,0l0.3-0.2l0.4,0.1l0.2-0.1l0.3-0.3l0.4-0.1l0.2,0.2l0.7-0.2l0.7-0.2
		l0.8,0.1l0.7-0.2l0.7,0.1l0.4-0.3c0.2-0.1,0.4-0.2,0.8-0.2l0.8,0.1c0,0.1,0,0.2,0,0.2s0,0.2,0,0.2l0.2,0l0.5-0.2l0-0.7
		c0-0.2,0.1-0.3,0.3-0.4l0.1,0.2l-0.2,0.7l0.2,0c0.2-0.1,0.4-0.1,0.7,0l0.7,0.2c0.2,0,0.2-0.1,0.2-0.3l-0.3-0.4l0.4-0.3l0-0.3
		l0.4-0.1l0.4-0.2l0.2,0.1l-0.3,0.2c0,0.1,0,0.2,0,0.3c0.1-0.1,0.2-0.2,0.4-0.3l0.1,0.2l0.4-0.4l0.5,0l-0.1-0.2l0-0.4l0-0.7
		c0.3,0,0.5-0.1,0.6-0.1l0-0.2l0.1-0.1c0.1,0.1,0,0.3-0.2,0.5C49.1,57,49,57.1,49,57.3l0.6,0.1l0-0.2l0.2-0.1l0.3,0.6
		c0.1,0.1,0.2,0.1,0.3,0c0-0.2-0.1-0.3-0.2-0.3L50,57c0.1-0.2,0.2-0.3,0.4-0.3c0.2,0,0.4,0.1,0.6,0.2l0.1-0.1L51.1,57l-0.3,0
		c0,0.3,0,0.5-0.1,0.6l-0.3,0.3c0,0,0,0.1,0,0.3c0.2,0,0.3-0.1,0.4-0.2l0.3,0l0.2-0.4c0.2,0,0.4-0.1,0.5-0.1l0.3-0.2l0-0.2
		c0.2,0.1,0.3,0.2,0.3,0.3l0.1,0.4l0.2,0.1l-0.2,0l-0.1,0.3c0.1,0.1,0.2,0.2,0.3,0.2l0.3,0l-0.1,0.5l0.2,0l0.2,0.2
		c0.2-0.1,0.3-0.2,0.3-0.3c0.1-0.1,0.2-0.2,0.4-0.2l0.5,0.4l0.4-0.1l0.1,0.3l0.3-0.2l0.3,0l0-0.2l0-0.3l0.3,0.1c0,0,0.1,0,0.3,0
		l0.3-0.4c0.1-0.2,0-0.4-0.1-0.5l-0.2-0.1c0,0,0-0.1,0-0.1l0-0.1l-0.4,0l-0.1,0.2c0-0.2,0.1-0.5,0.2-0.7c0.1-0.2,0.2-0.4,0.3-0.4
		l0.4,0.2l0.5-0.1l0.1,0.6c0,0.3,0.2,0.4,0.6,0.3c0.1-0.1,0.2-0.2,0.2-0.3l0-0.3l0.3-0.1l0-0.3l0.4,0.2c0.4,0,0.8,0,1,0l0.5,0.4
		l0.5,0l0.4,0.2l0.3,0.2l0.2-0.1c0,0,0.1-0.1,0.3-0.1c0.3,0,0.5,0.1,0.8,0.5l0.8,0.7l0.9,0.5c0.3,0.2,0.5,0.5,0.6,0.8l0.1,1.7
		c-0.1,0.2-0.2,0.3-0.3,0.3l-0.4,0.1l-0.1,0.3l-0.5-0.4l-0.5,0.6l-0.2-0.3l-0.3-0.4l-0.2,0.2l-0.6-0.4c-0.3,0.1-0.5,0.2-0.7,0.3
		L60.1,62L60,62.6l0,0.6l0.2,0.2L60,63.9l0.2,0.1l-0.3,0.5l0.3,0.1l0.3,0.2l0.2-0.2l0.2,0.3l-0.4,0.3l-0.4,0.1
		c0-0.2-0.1-0.3-0.1-0.4c0,0-0.1-0.1-0.1-0.1L59.2,65C59.1,65,59,64.9,59,64.9c-0.1,0-0.1,0-0.2,0l-0.2,0.6l0,0.6l-0.1,0.4l-0.7-0.1
		c-0.2-0.1-0.3-0.2-0.4-0.4l0.2-0.6l0.2-0.7c-0.1-0.2-0.3-0.4-0.4-0.5l-0.4-0.4l0-0.4l-0.7-0.2c-0.2,0-0.4,0-0.5,0.2l-1-0.4
		l-0.9-0.4l-0.4,0l-0.9-0.3l-0.2-0.2l-0.4,0.3l-0.4-0.2L51.4,62l-0.8,0.1l-0.4-0.3l-0.4,0l-0.3-0.1l-0.8-0.2
		c-0.2-0.1-0.3-0.1-0.5-0.1c-0.2,0-0.3,0-0.5,0c-0.1,0.1-0.1,0.3,0.2,0.6c0.3,0.2,0.5,0.4,0.7,0.4l1.7,0.8l1.1,0.6l0.3,0.4l1.1,0.5
		l0.6,0.3l0.8,0.7l1.7,0.9c0.3,0.4,0.6,0.6,0.8,0.7l2.3,1.4l0.8,0.7l1.5,1.1l1,0.6l0.5,0.6l0.4,0.5c0.2,0.1,0.3,0.2,0.5,0.3
		c0.2,0.1,0.3,0.3,0.5,0.4c0.3,0.3,0.5,0.6,0.7,1c-0.1,0.2-0.2,0.3-0.3,0.4c-0.1,0.1-0.1,0.2-0.1,0.4l0.7-0.3
		c0.1,0.1,0.2,0.2,0.2,0.3l0.1,0.3l0.2,0l0.1,0.8l0.1,1.2c0,0.2,0.1,0.3,0.1,0.3l0.3,0.2l0.1,1.3L66.5,79.6z M43.5,64.5l-0.1,0.3
		l-0.2-0.2L43.5,64.5z M47.2,67.4c-0.1-0.2-0.2-0.4-0.3-0.4l-0.2-0.3l0-0.2l0.2-0.1l-0.3-0.3l0-0.6l-0.1-0.4L46,64.7l0.1-0.3
		l-0.1-0.2c-0.2,0.1-0.3,0.2-0.3,0.3l-0.2,0.1l-0.4-0.1l-0.2-0.3c-0.1-0.1-0.2-0.1-0.5-0.2l-0.4,0.3L44.1,64L44,63.8L43.8,64
		c0,0.4,0.1,0.6,0.2,0.8l0.6-0.1c0.1,0,0.2,0,0.2,0c0.1,0,0.1,0.1,0.1,0.1l0,0.9l0.7,0.1L45.6,66c-0.1,0.1-0.1,0.2,0.1,0.3l0.3-0.1
		c0.1,0,0.1-0.1,0.2-0.1s0.1,0,0.1,0c0.1,0.1,0.1,0.2,0.1,0.5c0,0.3,0,0.5-0.1,0.6c0,0.1,0.1,0.1,0.1,0.2c0,0.1,0.1,0.2,0.2,0.3
		L47.2,67.4z M45.8,63.4c0,0.1,0,0.1,0,0.2C45.7,63.5,45.7,63.5,45.8,63.4z M48.8,67.5l-0.4-0.7l0.3-0.2l-0.2-0.1l0-0.3
		c-0.1-0.1-0.2-0.2-0.3-0.2l-0.4,0.6l-0.2,0.1l-0.4-0.2l0.2,0.3l0.6,0.1l0.1,0.4L48.8,67.5z M50.6,58.4l-0.3,0.2l-0.2,0L50,58.4
		l0.1-0.1C50.1,58.1,50,58,50,58l-0.4-0.1l-0.1-0.2c-0.1,0.1-0.2,0.3-0.2,0.4c0,0.1,0,0.2,0,0.2s-0.1,0.1-0.1,0.1l-0.4-0.2
		c0,0-0.1,0.1-0.3,0.1l-0.2-0.1l0,0.4l-0.3,0.7c0,0.2,0.1,0.3,0.3,0.3l0.6-0.3l0.5-0.1l0.3-0.4l0.5,0.2l0.3,0L50.6,58.4z M49.7,59.7
		l0.1,0.2l-0.2,0.3l0-0.4C49.5,59.7,49.6,59.7,49.7,59.7z M50.1,67.9l-0.3,0c-0.2,0-0.3,0.1-0.3,0.1l0,0.2l0.3,0l-0.1,0.3
		c0.2,0,0.3-0.1,0.3-0.2s0.1-0.1,0.1-0.2C50.1,68,50.1,68,50.1,67.9z M50.7,83.2l-0.4,0.1l-0.1,0.1l0.4,0l0,0.5l0.2-0.3
		C50.9,83.3,50.9,83.2,50.7,83.2z M53.5,57.9l-0.2-0.2l0.1-0.3c0.1,0.1,0.2,0.2,0.2,0.3L53.5,57.9z M54.2,70.6
		c-0.1-0.1-0.2-0.1-0.5-0.1c-0.2,0-0.3,0.1-0.3,0.3c0.1,0.2,0.2,0.4,0.3,0.4l0.4,0.2c0.2-0.2,0.2-0.3,0.2-0.5L54.2,70.6z M54.7,57.9
		l0,0.4l0,0.4l-0.7-0.7c-0.1-0.1-0.1-0.3-0.1-0.6l0.2-0.1c0,0.3,0.1,0.5,0.3,0.6L54.7,57.9z M55.8,71.7c0.1-0.1,0-0.2-0.2-0.3
		l-0.6-0.3L55,70.9l-0.3,0.2l0,0.6l-0.3,0.1l0.2,0.5l0.7-0.5L55.8,71.7z M55.4,71l0.1-0.1l0.1,0.2L55.4,71z M55.9,75.5l-0.1,0.2
		l0,0.2L55.9,75.5z M56.9,75.8l-0.6-0.3l-0.2,0.2c0.2,0,0.4,0,0.4,0.1l0.2,0.3c0.1,0,0.2,0,0.2,0C57,75.9,57,75.8,56.9,75.8z
		 M57,88.4l0.2-0.1c0-0.2-0.1-0.3-0.3-0.3l-0.1,0.1c0,0,0,0.1,0,0.1l0,0.1L57,88.4z M57.6,59.8l0,0.3l-0.3,0.3c0-0.2,0-0.3,0-0.3
		C57.3,60,57.4,59.9,57.6,59.8z M58.5,88l0.2,0.2l-0.2,0.1c-0.1-0.1-0.2-0.2-0.2-0.2L58.5,88z M60.7,63l-0.3-0.6l0-0.3l0.3,0.5
		L60.7,63z M61,65L60.8,65l0-0.2L61,65z M61.7,61.9l-0.2,0.2l0,0.4c-0.1,0.1-0.2,0.2-0.2,0.2c-0.2-0.1-0.2-0.2,0-0.5
		C61.4,61.9,61.6,61.8,61.7,61.9z M61.4,85.1l-0.2,0l0-0.3l0.2,0.2C61.5,85,61.4,85,61.4,85.1z M66.8,78.5c0,0.1,0,0.2,0,0.2
		l-0.2,0.1l0-0.2C66.7,78.5,66.8,78.5,66.8,78.5z"/>
</g>
<g class="st0">
	<path class="st1" d="M98.3,87.5L98,87.6l-0.2,0.1l-0.9,0.8l-1.1,0.8c0,0.3,0,0.4-0.1,0.6l-0.2,0.1l-0.3,0.6L95,91
		c-0.2,0.2-0.4,0.2-0.6,0l-0.6-0.7l-0.4-0.1l-0.5-0.9l-0.4-0.1L92.1,89l-0.4-0.4l0-0.3c-0.3,0-0.6-0.1-0.7-0.2
		c-0.1-0.3-0.2-0.5-0.3-0.6L89.8,87l-0.4-0.6L88.6,86l-0.1-0.4l-0.4-0.4c-0.2-0.2-0.3-0.4-0.4-0.5c0.2-0.2,0.2-0.4,0.1-0.5l-0.4,0.1
		l-0.2-0.3c-0.2-0.1-0.4-0.1-0.6-0.2l0-0.4l-0.2-0.1l-0.4-0.3l-0.2-0.4l-0.6-0.1l-0.5,0c-0.2,0.2-0.4,0.3-0.5,0.4l-0.5-0.1l-0.5-0.1
		L83,82.9l-0.8,0.2l-0.8,0l-1.3-0.4l-0.3,0.1L79.6,83l-1.1-0.1L78,82.4l-0.2,0.2l0.1,0.4c-0.3-0.1-0.6-0.1-0.8-0.2l-0.6-0.3
		l-0.3,0.1l-0.1,0.2c-0.3,0-0.5,0.1-0.6,0.2L75.3,83l-0.4-0.3l-0.8,0.1l-0.8,0l-0.8,0l-0.2,0.8c0.1,0,0.1,0.1,0.2,0.1
		c0.1,0,0.1,0.1,0.1,0.1l0,1l-0.4,0.6l0.1,0.5L72,87.3L72,88.8L71.6,91c0.1,0.2,0.2,0.4,0.2,0.6c0,0.3-0.1,0.8-0.3,1.5l-0.3,1.4
		l0,0.9l0,0.8l-0.1,0.2L71,97l0.2,0.1l-0.4,0.4l-0.5,0.1l-0.5-0.1l-0.1-0.3l-0.3,0.3c-0.1,0.2-0.2,0.3-0.4,0.3l-0.4-0.4l-0.3,0.1
		l-0.5-0.3L67.8,97l-0.1-0.1L67.5,97l0,0.4l-0.1,0.1L66.9,97c-0.1-0.2-0.1-0.4-0.1-0.6l0.2-0.1L66.8,96c0-0.1-0.1-0.1-0.3-0.2
		L66.1,96C66,96.1,66,96.2,66,96.4l0.4,0l0.1,0.2l-0.6,0.4L65.1,97l-0.4,0.1l-0.1,0.3c0.1,0.2,0.1,0.3,0,0.3
		c-0.2-0.1-0.3-0.2-0.4-0.3c0-0.1-0.1-0.1-0.3-0.2c-0.1,0.3-0.2,0.5-0.3,0.6c-0.1,0.1-0.2,0.1-0.3-0.1l0-0.2l0.1-0.2l-0.2-0.6
		l0.3-0.4l-0.2-0.6c0-0.3,0-0.7,0.2-1.2l0.1-0.6l0.1-0.5l0-0.2l-0.1-1.2l0.2-0.7L63.7,91l0.4-2c0.2-0.7,0.2-1.3,0.2-1.8
		c-0.1-0.1-0.1-0.3-0.1-0.5l0.3-0.7l0.1-1.5L64.5,84l0.1-2l0.1-1.6l0-1.3l-0.1-0.3l0.1-0.6c0-0.3,0-0.6,0.1-0.7l0.3-0.4L65,76.5
		l-0.2-0.8l0.2-0.7l-0.2-0.5c0.1-0.2,0.2-0.3,0.2-0.4l0.2-0.3l-0.6-1.2l0.2-0.2l0.3-0.1l0-0.5l0-0.3l-0.3-0.2l-0.2-0.1l0.2-0.5
		l0.2-0.3l-0.2-0.4l0.3-0.7l0.3-1.1l-0.2-0.1c-0.1-0.1-0.2-0.1-0.2-0.2l0.1-0.8l0.2-0.6l-0.4-0.4c-0.2-0.2-0.2-0.4-0.1-0.6
		c0.2-0.1,0.3,0,0.4,0.1l0.3-0.2l0.2,0.3l0.2,0c0.1-0.1,0-0.2-0.2-0.4l-0.7-0.4l0.2-0.8l0.3-0.1l0-0.2l-0.3-0.3
		c-0.2-0.6-0.4-1.1-0.4-1.4L64.8,62c0-0.2,0-0.3,0.1-0.4l0.4-0.2l-0.2-0.2L65.1,61l0.3-0.4l0.3-0.4l-0.1-0.7c0.4,0.1,0.6,0.1,0.7,0
		l-0.4-0.4c-0.3-0.2-0.4-0.4-0.4-0.6c0.1-0.3,0.5-0.5,1.2-0.8l0.2-0.3l0.7,0.1l0.3-0.2l0-0.2l0.4,0.2c0.1-0.1,0.2-0.2,0.3-0.2
		c0.1,0,0.2-0.1,0.2-0.1l0.3,0.3l-0.5,0.2c-0.1,0.1-0.1,0.2,0.1,0.4l0.2,0l0,0.3l0.4,0l0.3,0l0.2-0.5l0.4,0.2l0.2-0.3
		c0,0,0.1-0.1,0.3-0.1l0.1,0.2c0.1,0.2,0.3,0.2,0.4,0.3l0.5,0.2l0.4,0l-0.4,0.5l0.6,0.2c0.2,0,0.4,0.1,0.7,0.2l0.4,0.7l0.7,0.8
		c0.2,0.3,0.4,0.6,0.6,1l0.1,1l0.1,0.4l0,0.4c-0.1,0.1-0.1,0.1-0.2,0.2c-0.1,0-0.1,0.1-0.2,0.1l0.6,0l-0.2,0.6c0.2,0,0.3,0,0.4-0.1
		c0.2-0.1,0.3-0.1,0.4,0l-0.2,0.5l0.2,0.3l0.3,0l0.4,0.2l0.1,0.4l0.5,0.3l-0.1,0.9L77,67c0.2,0,0.3,0,0.4,0.1l0,0.4l0.1,0.1
		c0.2,0,0.3,0,0.4,0.2l0.3,0.5l0.5,0.1c0,0-0.1,0.2-0.1,0.4l0.8,0.5l0.2,0.5l0.7,0.4l0.6,0.8l0.7,0.4c0.1,0.2,0.2,0.3,0.2,0.4
		l0.1,0.3l0.8,0.5c0,0.1,0,0.1,0,0.2c0,0.1,0,0.1,0.1,0.1l0.9,0.5l0.9,0.8l0.1,0.6c0,0.3,0.1,0.5,0.3,0.6l1.8,0.4
		c0.2,0,0.3-0.1,0.5-0.3c0.2-0.2,0.5-0.1,1.1,0.2l0.6,0.4l0.1,0.3l-0.5,0.2c0.2,0.1,0.3,0.2,0.5,0.2c0.3,0,0.5,0,0.5,0.2l-0.3,0.6
		l-0.4,0.5l0.3,0.2l0.5,0.3c0.3,0.4,0.4,0.6,0.6,0.7l0.4,0.1c0.3,0,0.4,0,0.5,0.2l0.4,0.4l0.4,0.3l0.3,0.7l0.6,0.2
		c0.3,0,0.5,0.1,0.6,0.2c0,0.1-0.1,0.2-0.1,0.3c0,0.1,0,0.2,0,0.2l0.5,0.3c0.2,0.1,0.3,0.2,0.4,0.3l0.3,0.5l0.9,0.4
		c0.3,0.1,0.6,0.3,0.8,0.5l0.4,0.1l0.2,0.5l0.4,0.3l0.4,0.2l-0.1,0.3l0.3,0.3c0.1,0.1,0.2,0.2,0.3,0.3l-0.1,0.5l0.4,0.4L98,86.9
		c0,0-0.1,0.2-0.1,0.4L98.3,87.5z M66.9,56.9L66.7,57l-0.3,0c0,0.1,0,0.3,0,0.4l0.1,0.3l-0.2,0L66,57.5l-0.3,0.1l-0.1,0.1
		c-0.2,0-0.3-0.2-0.4-0.5l-0.1-0.5l0.4-0.3c0,0.2,0.1,0.3,0.1,0.4c0,0.2,0.1,0.4,0.1,0.4l0.2-0.3l0.2-0.4c0.2,0,0.3,0,0.3,0
		L66.9,56.9z M69.7,63.8c-0.2-0.1-0.4-0.1-0.4-0.1c-0.1,0-0.2,0.1-0.4,0.2c-0.2,0.2-0.1,0.3,0.1,0.4c0.4,0.2,0.7,0.2,0.8,0
		C69.9,64.1,69.9,63.9,69.7,63.8z M78.3,75.9c0.2-0.3,0.1-0.6-0.2-0.8c-0.4-0.3-0.7-0.6-0.9-0.8c0-0.2-0.2-0.4-0.5-0.6L76,73.1
		l-0.5-0.8c-0.4-0.3-0.8-0.9-1.3-1.6l-1.2-1.7L72.4,69L72.3,69l0.6,0.5l-0.4,0.2c-0.1,0-0.2,0.1-0.2,0.3l0.2,0.4
		c0.2,0.2,0.3,0.4,0.3,0.5l-0.3,0.2c-0.2,0.1-0.2,0.1-0.2,0.2l0.3,0.1l0.2,0.4l0.1,0.4l-0.4,0.4l0,0.4l-0.5,0.1l0.2,0.2l0.3,0.1
		l-0.2,0.3l0.1,0.8l-0.6,0.4c-0.3,0.2-0.4,0.4-0.4,0.6c0.1,0.1,0.2,0.1,0.3,0.1c0.1,0,0.2,0.1,0.4,0.1c0.4,0,0.6,0,0.7,0.1
		c0.1,0.2,0.1,0.3,0.1,0.4l0,0.4l0.5,0.3l0.7,0.3c0.2,0.1,0.3,0,0.5-0.3l0.3-0.4l0.4,0l0.9-0.8c0,0.2,0.1,0.3,0.1,0.4
		c0,0,0.1,0.1,0.1,0.1l1-0.2l0.8,0.3l0.2-0.1L78.3,75.9z"/>
</g>
<g class="st0">
	<path class="st1" d="M116.4,80l-0.2,0.4l-0.2,0.8c0,0.3-0.1,0.6-0.3,0.9l-0.5,0.7l-0.4,1.2c-0.1,0.2-0.2,0.4-0.3,0.6
		c-0.1,0.1-0.3,0.2-0.6,0.2l-0.7,0L113,85l-0.4-0.1c0,0.2,0,0.4-0.1,0.5l-0.3-0.2c-0.1-0.1-0.2-0.1-0.4,0.1c-0.1,0.2,0,0.3,0.2,0.3
		l0.9,0.2l-0.2,0.1l-0.3,0.5c-0.3,0.1-0.5,0.2-0.6,0.3l-0.3,0.8c-0.1,0.3-0.2,0.6-0.5,0.9c-0.2,0.2-0.5,0.2-0.8,0l-0.2-0.2l-0.4,0.1
		l-0.1,0.2c-0.2-0.1-0.4-0.2-0.5-0.2l-0.5-0.4l-0.6-0.1l-0.7-0.2l-0.6-0.5l-0.5-0.5l-1.1-0.5c-0.6-0.4-1.2-0.8-1.9-1.4l-1.8-1.7
		l-0.8-0.9l-0.1-0.4l-1.7-1.6l-0.5-0.7c-0.2-0.4-0.4-0.6-0.6-0.8l-0.4-0.4l-0.3-0.6c-0.1-0.2-0.3-0.5-0.5-0.7l-0.5-0.6l-0.7-1.5
		l-0.5-0.7c-0.1-0.2-0.3-0.3-0.6-0.3c-0.2,0.1-0.2,0.3-0.2,0.4l0.1,0.4l0.2,0.3l0.1,0.4l0,0.7l0.3,0.3c0.2,0.6,0.3,1.2,0.3,1.8
		l-0.1,0.4l0.1,0.2l0.2,0.3L95,79.7c0,0.1,0.1,0.2,0.1,0.3c0,0.1,0.1,0.2,0.2,0.3l0.3,0.4l0,1.2c0,0.6,0.1,1,0.2,1.3
		c-0.1,0.2-0.2,0.4-0.3,0.5l-0.3,0.4L94.8,84l0,0.4L94.4,85l-0.4,0.5L94,85.7l-0.2,0l-0.3,0.9l0.2,0.3c-0.4,0-0.7,0.1-0.8,0.1
		l-0.5,0.7l0.4,0.2c0,0.2,0,0.3-0.1,0.4c-0.1,0.1-0.2,0.1-0.4,0l-0.3-0.2c-0.2,0.1-0.3,0.2-0.4,0.3s-0.2,0.2-0.5,0.2
		c-0.2,0-0.5-0.1-0.8-0.2l-0.2-1.1c0-0.5-0.1-1-0.3-1.5l-0.4-1.8l-0.4-1.7l-0.2-1.1l0-0.6l-0.2-1.3l-0.4-1.8L88,76.5
		c0-0.4,0-0.6,0.1-0.8l0.2-1l-0.5-1.5l0.4-2.6l-0.4-0.7l0.1-0.6l0.1-0.7l-0.2-0.8L87.5,67c0-0.5,0.2-1.1,0.3-1.7l0.1-0.2l0.2-0.2
		L88,64.6l0-0.5l0.2-0.6l-0.4-0.3l0-0.9c0-0.5,0.1-0.8,0.2-0.9c0.2,0,0.4,0.1,0.5,0.1l0.4,0.2l0.8-0.4l0.6,0.1l1.3-0.7l0-0.3
		l-0.2-0.2l0.1-0.4L91,59.5c-0.1-0.1-0.2-0.3-0.1-0.5c0.1-0.1,0.2-0.2,0.3-0.2l0.5-0.2l-0.4-0.5l0.4-0.2c0.2,0,0.4-0.1,0.4-0.3
		L91.6,57c-0.3-0.3-0.4-0.6-0.3-0.8c0.2,0,0.3-0.2,0.3-0.4c0-0.1,0-0.1,0-0.2c0-0.1,0.1-0.1,0.1-0.1c0.2,0.1,0.3,0.2,0.4,0.3
		l0.4,0.6l0.3,0.1l0.5,0.2l-0.3,0.4c-0.2,0.2-0.1,0.3,0.1,0.4c0.2,0,0.3,0,0.3-0.1l0.2-0.3l0.3,0.1c0.2,0.1,0.4,0.2,0.5,0.2
		c0.2,0.1,0.4,0.3,0.6,0.8s0.3,0.9,0.4,1.3l0,0.6l0.1,0.5c0.1,0.2,0.1,0.4,0,0.6l-0.2,0.1l-0.3,0.2L95,62.2c0,0.2,0.1,0.2,0.3,0.2
		c0-0.4,0-0.6,0.1-0.6c0.2-0.1,0.4-0.1,0.6,0.2l-0.1,0.6L95.7,63l0.2,0.4l-0.2,0.2l-0.1,0.1l0.2,0.3c0.1,0,0.2,0.1,0.2,0.1
		c0,0.1,0.1,0.1,0.1,0.1L96,64.7l-0.1,0.4l0.1,0.6l0.2,0.4l0,0.7c0,0.2,0.1,0.4,0.3,0.6l0-0.6c0.1-0.2,0.3-0.3,0.7-0.2
		c0.1,0,0.2,0.2,0.1,0.5c-0.1,0.3,0,0.5,0.1,0.7c0.2,0.1,0.4,0.3,0.6,0.4c0,0,0.1,0,0.1,0.1l0-0.4l0.2,0c0.2,0.1,0.4,0.5,0.8,1.3
		l0.8,1.4l0.2,0.3l0.1,0.1l0.4-0.1c0.2,0.1,0.3,0.2,0.3,0.3l0.2,0.4c0.4,0.2,0.7,0.3,0.8,0.5l0.3,0.6c0.2,0,0.3,0,0.5,0.1l1.2,1.5
		l0.6,1l0.5,0.2l0.5,0.9l0.6,0.5c0.1,0.1,0.3,0.3,0.4,0.6l0.6,0.4l0.7,0.6c0.3,0.3,0.6,0.3,0.8,0.1l0.2-0.5l0-0.7l-0.1-0.7l-0.3-0.3
		c-0.2-0.3-0.3-0.8-0.3-1.5l0.3-0.7l-0.1-0.2l0.1-0.5l-0.4-0.3l-0.5,0.2l0-1.1l0-1.1l-0.5-1l-0.1-0.8l-0.1-1.8l-0.2-0.8l0.2-0.9
		c0-0.3-0.1-0.6-0.1-0.8l0.4-0.9c-0.1-0.1-0.2-0.2-0.3-0.2l-0.2-0.2l0-0.5l0-0.5l-0.4-0.5l0.4-1.2l0.4-0.5l-0.3-0.7l0.4,0.1
		c0.1,0.2,0.2,0.3,0.3,0.3c0.1,0.1,0.1,0.1,0.2,0.1c0.3,0,0.4-0.2,0.4-0.5l0-0.7l0.5,0c0.2,0,0.3-0.1,0.5-0.3
		c0.1-0.1,0.1-0.3-0.1-0.5l-0.4-0.6l0.4-0.2l-0.1-0.2l-0.3-0.2L109,57l-0.3-0.4l0.2-1.2c0.1-0.5,0.2-0.8,0.3-1
		c0.4,0,0.7-0.1,0.7-0.1l0-0.5c0-0.1,0-0.2,0.1-0.2c0,0,0.2,0,0.3,0.1c0.2,0.1,0.4,0.2,0.6,0.3c0,0,0.1,0.1,0.1,0.1l0.2,0.3l0.2,0.2
		l0.3,0l0.6,0.9l0.9,0.8c0.3,0.4,0.5,0.8,0.5,1.2l0,0.8l0,0.9c0.1,0.3,0.2,0.5,0.2,0.7l-0.2,0.7l0,0.5l0.3,1.4l-0.2,0.4l0,0.5
		l0.1,0.9l0.3,0.6l0.1,0.9l0.1,0.9l0.3,1.4l0.3,1.1l-0.1,1.1l0.3,0.4l-0.1,0.5l0.3,0.7l-0.1,0.8l0.4,2.2l0.3,2.1l0.3,1.2l0.1,0.8
		L116.4,80z M90.8,57.4c0.1,0.1,0.2,0.2,0.2,0.3c-0.1,0.2-0.2,0.3-0.2,0.3c-0.1-0.1-0.2-0.2-0.2-0.3c0-0.1,0-0.1,0.1-0.2
		C90.7,57.5,90.7,57.4,90.8,57.4z M90.8,56.9l0,0.2l-0.1,0L90.8,56.9z M91.6,59.2l0,0.2l-0.2,0.1c-0.1-0.1-0.1-0.2,0-0.2L91.6,59.2z
		 M94.8,63.6c0.1,0.1,0.1,0.2,0,0.4c-0.1,0.2-0.2,0.2-0.4,0.1c-0.1-0.1-0.1-0.2,0-0.4C94.5,63.4,94.6,63.4,94.8,63.6z M95.1,63.6
		c0.2-0.4,0-0.7-0.4-0.9l0,0.5L95.1,63.6z M96.7,67.9l-0.4-0.3l-0.2,0.1L96,67.9l0.1,0.8c0,0.2,0.2,0.3,0.4,0.3
		c0.2,0,0.3-0.1,0.3-0.3l-0.1-0.3l-0.2-0.3L96.7,67.9z M98.1,69.9c-0.2,0.1-0.3,0.2-0.3,0.3c0,0-0.1,0.1-0.1,0.1
		c0.1-0.1,0.1-0.2,0.2-0.2C98,70,98.1,69.9,98.1,69.9z M101.8,76.9l-0.2-0.3l-0.2-0.4l-0.1-0.6c0-0.2-0.1-0.4-0.2-0.5l-0.3,0l0-0.5
		l-0.5,0L100,74l0.3,0.1c0-0.3,0-0.6,0.2-0.8l0.1-0.2l-0.4,0.1l-0.1-0.8l-0.3,0.2c-0.1,0.1-0.2,0.2-0.3,0.3l-0.3-0.4l-0.3,0
		l-0.2-0.2l-0.1-0.2l-0.2-0.1l-0.3-0.1c0-0.1,0-0.3-0.1-0.4l-0.1,0.1l0,0.2L98,72L98,72.2l-0.1,0.1l0,0.4l0.3,0.3l0.2,0l0.3,0l0,0.5
		l0.4,0.1L98.9,74l0.4,0.1l0.7,0.7l0.4,0.6c-0.2,0-0.4-0.1-0.6-0.1l-0.2,0l0.1,0.2c0.1,0.2,0.2,0.3,0.4,0.3l0.4-0.2l0.4,0
		c0.1,0.2,0.1,0.3,0.1,0.4l0,0.4l0.4,0.4l0.2,0.1C101.8,77,101.8,76.9,101.8,76.9z M99.2,69.8c0,0.1-0.1,0.2-0.1,0.3
		C99.1,70,99.1,69.9,99.2,69.8z M102.4,77.5l-0.3,0l-0.3-0.2c-0.2-0.1-0.3,0-0.3,0.2l0.2,0.4l-0.2,0.3l-0.2,0.4l0.6,0l0.2-0.1
		l0.2-0.1l-0.3-0.7l0.3,0L102.4,77.5z M103.4,79.8l0.2-0.2l-0.3-0.4l-0.1-0.3c-0.1,0-0.2,0-0.2,0.1c0,0.1,0,0.2,0.1,0.4
		C103.2,79.6,103.3,79.7,103.4,79.8z M104.2,79.1l0-0.2l-0.1-0.4l-0.7-0.4l-0.2,0.1l0,0.4l0.3,0L104.2,79.1z M103.8,80.3l0.1,0.3
		l-0.2,0.2c-0.1-0.1-0.1-0.2-0.1-0.3L103.8,80.3z M105.5,79.8c-0.1-0.2-0.5-0.4-0.9-0.6l0.2,0.6l0.4,0.1l0.3,0.4L105.5,79.8z
		 M105.6,80.7l-0.8-0.3l0.1,0.2l0.6,0.6L105.6,80.7z M105.8,82l0.2-0.3l-0.2-0.4l0,0.2l-0.2,0.2l0.2,0.1L105.8,82z M106.2,80.8
		l-0.4-0.1l-0.2-0.3c0.2-0.1,0.3,0,0.5,0.2L106.2,80.8z M106.8,81.1c0.2,0,0.3,0.1,0.3,0.2c-0.1,0-0.2,0.1-0.3,0.1
		c-0.1,0-0.2-0.1-0.2-0.1c0,0-0.1-0.1-0.1-0.1L106.8,81.1z M107.1,82.8c0,0.1,0,0.2,0,0.2l-0.2,0l-0.2-0.2L107.1,82.8z M107.2,62.3
		l-0.1,0.3c-0.1,0-0.2,0-0.2,0l0-0.2C107,62.3,107.1,62.3,107.2,62.3z M107.5,83l-0.3,0.4c0-0.2,0.1-0.3,0.1-0.3
		C107.4,83,107.4,83,107.5,83z M108.4,81.7l-0.3,0c0-0.2-0.1-0.3-0.2-0.3s-0.2,0-0.2,0l-0.1,0.3l-0.1,0.1l-0.1,0.1l0.4,0.3l0.6,0.1
		c0.1-0.1,0.2-0.1,0.2-0.2C108.5,81.8,108.4,81.7,108.4,81.7z M107.6,62.9l0.1,0.2c-0.1,0-0.2,0.1-0.2,0.1l-0.1-0.2
		C107.5,62.9,107.6,62.9,107.6,62.9z M108.9,83.3c0,0.1-0.1,0.2-0.1,0.3l-0.3,0c0-0.1,0-0.2,0-0.2C108.7,83.3,108.8,83.3,108.9,83.3
		z M109.6,82.5c-0.1-0.1-0.3-0.1-0.6-0.2c-0.2,0-0.3,0.1-0.3,0.1l0.2,0.3l0.5,0.2c0.2,0,0.3,0,0.3-0.1
		C109.7,82.7,109.6,82.6,109.6,82.5z M109.7,83.6l0.2,0.2c-0.1,0.1-0.1,0.2-0.2,0.2l-0.2-0.2C109.5,83.6,109.6,83.6,109.7,83.6z
		 M110.2,87.3l0,0.2l-0.1,0.1l0-0.3L110.2,87.3z M111.4,85.7l0-0.2l0.1,0.1L111.4,85.7z"/>
</g>
<g class="st0">
	<path class="st1" d="M150,67.5c0.1,0.1,0.2,0.3,0.1,0.7l-0.2,0.9l-0.2,0.3l-0.1-0.6c0-0.1,0-0.2,0-0.3c0-0.1-0.1-0.2-0.1-0.3
		l-0.6,0.3c0,0.1,0.1,0.1,0.1,0.2c0,0.1,0.1,0.2,0.1,0.2l-0.7,0.1l0.1,0.2l0.2,0.1l-0.2,0.6c0,0.3-0.1,0.5-0.2,0.5l-0.2-0.3
		l-0.6,0.2c-0.1-0.1-0.2-0.2-0.2-0.3l-0.2-0.2l0.2-0.3c-0.1-0.1-0.1-0.2-0.2-0.2l-0.2,0.1l-0.2,0.6c-0.2,0-0.4,0.1-0.4,0.1
		c0.1,0.1,0.2,0.3,0.3,0.4l1.1,0.5l0.1,0.3c0.1,0,0.2,0.1,0.3,0.1c0.1,0.1,0.1,0.1,0.2,0.1c0,0.1-0.1,0.1-0.1,0.2
		c0,0.1-0.1,0.2-0.2,0.2l-0.4,0.3l0.1,0.4c-0.3,0.1-0.5,0.3-0.7,0.5l-0.1,0.6c-0.4,0-0.6,0.1-0.7,0.1l0.1,0.7l-0.2,0
		c-0.1-0.2-0.3-0.2-0.4-0.1l0.2,0.6c-0.1,0-0.2,0-0.2,0.1c0,0-0.1,0.1-0.1,0.1l0.2,0.3c0,0.1,0.1,0.2,0.1,0.3
		c-0.2,0.2-0.4,0.3-0.6,0.3c-0.2,0-0.3,0.2-0.4,0.4l0.1,0.6c-0.1,0.2-0.2,0.4-0.2,0.5c-0.3,0-0.6,0.1-0.7,0.1l-0.3,0.6l-0.3-0.1
		c-0.1,0-0.2,0-0.3,0l-0.2,0.4c-0.3,0-0.5,0.1-0.6,0.2l-0.4,0.4l0.1-0.4c0.1-0.3,0-0.4-0.2-0.4l-0.2,0.2l0,0.2l-0.5,0.3l0,0.5
		l-0.9,0.1l-0.2,0.4c-0.1,0.2-0.2,0.4-0.5,0.5c-0.3,0.1-0.7,0.2-1.4,0.2s-1.1,0.1-1.2,0.2c-0.2,0-0.3,0.1-0.4,0.3
		c-0.1,0.2-0.2,0.3-0.4,0.4l-0.8,0.3l-0.2,0.5l-0.3,0.3c-0.2,0.1-0.4,0.2-0.8,0.2l-0.5,0.3l-0.7,0.3l-0.5,0
		c-0.2-0.1-0.4-0.1-0.7-0.1l-0.9,0.1l-0.3-0.2l-0.6,0.1l-0.3,0.4l-0.5-0.3l-0.4-0.3l-0.8,0l-0.3-0.2l0.4-0.6l0.5-0.8l0-0.5l0.6-0.8
		l0-0.8c0-0.3,0-0.5,0.1-0.7l0.6,0.1c0.1-0.1,0.2-0.2,0.2-0.3c-0.2-0.2-0.4-0.4-0.6-0.6l-0.5-0.7l-0.6-0.7l-0.4-0.7l-0.5-0.7
		l-0.4-0.8l-0.8-0.7l-2.9-3.7l-0.5-0.8l-0.5-0.9l-0.4-0.2c-0.3-0.3-0.6-0.7-0.8-1.1l-0.2-0.6l-0.5-0.2l-1.5,0.4
		c-0.4,0-0.8,0.1-1.2,0.3l-1,0.5l-1.2,0.2l-0.7,0.3c-0.3,0.1-0.5,0.1-0.7-0.1l-0.4-0.4l-0.5,0.2l-0.5-0.1c0-0.3-0.1-0.5-0.1-0.6
		l-0.5-0.6c-0.2-0.1-0.4-0.2-0.5-0.2l0-0.2l0.5,0c0-0.1-0.1-0.2-0.1-0.3c0-0.1,0-0.2,0-0.2l0.5,0.2c0.2-0.1,0.3-0.2,0.3-0.3l0.2-0.4
		l0.4,0l0.2-0.9l-0.1-0.4l0.3,0.1l0.3,0.2c0.2-0.1,0.3-0.1,0.3-0.2l0.4-0.6l0.4,0l-0.2-0.3l-0.3-0.3l-0.5-0.1
		c0.2-0.3,0.6-0.5,1.2-0.7l1.6-0.2l0.5-0.4l1.3-0.3l2-0.2l0.7-0.2c0.3-0.1,0.5-0.1,0.8-0.1l0.8-0.1c0.5-0.2,0.9-0.2,1.1-0.2l0.6,0
		l0.9,0l1.3,0.2l1.2,0l0.8-0.4c0.2,0,0.4,0.1,0.7,0.4l0.5,0.3l1-0.1l0.4,0.4l0,0.3l0.3,0.8l0.2-0.1l0.4-0.5l0.5,0.7l-0.6-0.2
		c-0.2,0-0.4,0.2-0.4,0.5l0.5,0.1l0.2,0.2l0.3-0.1c0.2-0.1,0.3-0.1,0.5,0c0.2,0.1,0.3,0.2,0.4,0.3l0.3,0.4l0.6,0c0-0.1,0-0.2,0-0.2
		c0-0.1,0.1-0.1,0.1-0.1l0.1,0.5l0.2,0l0.1-0.2l0.2,0.2l0.1-0.4c0.4,0,0.7-0.1,0.7-0.1c0-0.1,0-0.2-0.1-0.2l-0.2-0.2
		c0-0.2,0.1-0.2,0.4-0.2l0.7,0.2l0.5-0.1l0.3,0.2l0.1,0.2c-0.3,0-0.5,0-0.6,0.1c-0.1,0.1-0.1,0.2-0.1,0.4l0.4,0.3
		c0,0.2,0.1,0.5,0.4,0.7l0.2-0.2l0-0.4l0.2,0.2l0.8,0c0.2,0,0.3,0.2,0.4,0.5l0.2,0.5l0.2,0.1l0.2-0.3l0.8,0.2l0.1-0.3l0.2-0.1
		c0.1-0.1,0.2-0.2,0.2-0.3l0-0.2l-0.1-0.2l0.7,0.2c0.1-0.1,0.2-0.2,0.2-0.3c-0.1-0.2-0.1-0.2-0.2-0.2l-0.5-0.1l0-0.2l0.1-0.4
		l0.1-0.3c0.2,0.1,0.3,0.2,0.3,0.2l0.3,0.3l0.3-0.1l0.3-0.1l1.3,1l0.3-0.1l0.4,0.4l0.3,0.1c-0.1,0.1-0.1,0.3,0,0.4l0.3-0.2l0.3,0
		l0.3,0.5l0.3,0.5c0.3,0,0.5,0,0.6,0.1l0.2,0.9l0.6,0.3l0.5,0.1c0,0.2,0,0.3-0.1,0.4l0.1,0.5l0.2,0.3l0,0.3l0.2-0.1
		c0.1-0.2,0.2-0.3,0.3-0.3C149.9,67.6,149.9,67.6,150,67.5z M127.7,82.3L128,82l0.2-0.2L127.7,82.3z M131.2,61.5l-0.3,0.6l0.1-0.4
		L131.2,61.5z M143.3,73.4l0.1-0.6c0-0.5-0.3-1.1-0.7-1.6c-0.4-0.6-0.8-1-1.4-1.4c-0.5-0.4-1.1-0.7-1.8-0.9l-2-0.7l-0.8-0.4
		l-1.1-0.3l-1.2-0.3l-1.8-0.3l-0.6-0.1c-0.3,0-0.5,0.1-0.7,0.1c-0.1,0.1-0.2,0.2-0.2,0.4l0.7,1.1c0.3,0.5,0.6,0.9,0.9,1l0.5,0.3
		l0,0.3l0.5,0.6l0.1,0.4c0.1,0.1,0.2,0.1,0.3,0.1c0.2,0.1,0.4,0.3,0.7,0.7l0.6,0.6l0.9,1.1l0.8,1.2l0.4,1l-0.1,0.6l0.2,0.3l-0.2,0.3
		c-0.1,0.1-0.1,0.2,0,0.3l0.3-0.1l0.6-0.3c0.2,0,0.4-0.1,0.8-0.3l1.1-0.6l1.5-0.7c0.6-0.3,1-0.6,1.3-0.9l0.2-0.5
		C143.2,73.7,143.2,73.5,143.3,73.4z M134.2,61l-0.3,0.4l-0.3-0.3l-0.2,0l0.8-0.2L134.2,61z M136.7,63.2l-0.2-0.1l-0.3-0.1
		c-0.1,0-0.2,0-0.2,0.1l0.1,0.3l0.4,0.2L136.7,63.2z M137.1,61c0.1,0.1,0.1,0.2,0,0.4c0,0.1-0.1,0.1-0.3,0.2c-0.1-0.1-0.1-0.2,0-0.4
		C136.9,61.1,137,61,137.1,61z M138.3,63.3l-0.3-0.1l0.2-0.1L138.3,63.3z M140,62.2l0.3,0.4c-0.1,0.2-0.2,0.4-0.4,0.5l-0.1,0.2
		c-0.1-0.2-0.1-0.3-0.2-0.5c0,0-0.1,0-0.1,0l-0.2,0.2l-0.9-0.1c-0.1-0.2-0.1-0.3,0.1-0.5c0.2-0.2,0.4-0.3,0.7-0.2L140,62.2z
		 M139.1,80.2l-0.2-0.3l0.2-0.2c0.2,0,0.2,0.1,0.2,0.3L139.1,80.2z M141.5,62.7c0.1,0.1,0.1,0.3,0,0.4c-0.1,0-0.2,0-0.2,0l-0.3-0.3
		l-0.6-0.1c-0.1-0.1-0.1-0.2,0-0.4c0.1-0.1,0.2-0.2,0.4-0.2C141.1,62.3,141.3,62.5,141.5,62.7z M141.8,63.2l0.1,0.1l-0.3-0.1
		L141.8,63.2z M144.8,65.4l0.2,0.2l-0.2,0.1l-0.2-0.1L144.8,65.4z M145.7,68.1l-0.2-0.1l-0.4-0.1l-0.2-0.2l-0.2,0.2l-0.1,0.4
		l0.4,0.1c0.2,0,0.3,0,0.5,0.1L145.7,68.1z M145.6,67.3c0.1,0.1,0.1,0.2,0.1,0.5c-0.1,0.1-0.3,0.1-0.4,0.1c-0.2-0.1-0.2-0.2-0.1-0.4
		C145.3,67.2,145.4,67.2,145.6,67.3z M146.7,68.9l-0.2,0l-0.3-0.4l0.1-0.4l-0.4,0.3l0.3,0.3l0.1,0.1l-0.6,0.3l0.4,0
		c0.1,0.1,0.1,0.1,0.2,0.1c0.1,0,0.1,0,0.2,0L146.7,68.9z M145.7,73.9l0.1,0.1l-0.1,0.1L145.7,73.9z M147,72.3
		c-0.2-0.1-0.3-0.2-0.4-0.4l0.3,0.2L147,72.3z M147.8,69.6c0.1,0.1,0.1,0.2,0,0.4l-0.2,0.1l-0.1-0.3c0-0.1,0-0.2,0.1-0.2
		C147.6,69.5,147.7,69.5,147.8,69.6z M148.5,67.8c0-0.3-0.1-0.5-0.2-0.6c-0.1-0.2-0.2-0.3-0.4-0.4l0,0.6l0.4,0.1c0,0.1,0,0.2,0,0.2
		L148.5,67.8z M148.2,68.2l-0.1,0.3l0,0.2l-0.1-0.3L148.2,68.2z M148.7,67.9c0,0.1,0,0.1,0,0.2C148.7,68,148.7,68,148.7,67.9z
		 M149.1,69c0,0.1,0.1,0.2,0.1,0.2l-0.2,0.4l0-0.5C149,69.1,149,69,149.1,69z"/>
</g>
<g class="st0">
	<path class="st1" d="M184.9,54.1c-0.3-0.1-0.6-0.1-0.7,0c-0.1,0.1-0.2,0.4-0.3,0.8l0.1,0.2l-0.1,0.1c-0.1,0.1-0.2,0.2-0.2,0.3
		c0,0.1-0.2,0.1-0.4,0.2c-0.2,0.1-0.4,0.1-0.5,0.2l0.5,0.2c0.2,0,0.3,0.1,0.3,0.3l-0.2,0.2l0.1,0.4l-0.5,0.1c-0.2,0-0.3,0.1-0.4,0.2
		c-0.1,0.1-0.1,0.3,0,0.4l0.2,0.2c0,0.5-0.1,0.9-0.5,1.4l-0.1-0.1l-0.2-0.2l-0.2,0.2l0,0.2l-0.6,0.2c0,0.2,0.2,0.3,0.6,0.3
		c0.4,0,0.6,0.1,0.7,0.3l-0.2,0.2l-0.6,0.6l-0.4,0.3c0.1,0.2,0.2,0.4,0.3,0.5l0.3,0.5l-0.2,0.2l-0.1,0.2l0.3,0.2
		c0.2,0,0.3,0.1,0.2,0.3l-0.7,0.9l0.1,0.2l0.2,0.2l-0.4,0.2c-0.2,0-0.4,0.2-0.4,0.4c0.1,0.1,0.2,0.2,0.3,0.2l0.3,0
		c-0.1,0.2-0.2,0.3-0.3,0.3l-0.3,0.2l0,0.3l-0.3,0.4l0.2,0.5l-0.2,0.5l0.2,0.4l0,0.3l-0.5,1.5l0.2,0.7l-0.2,0.5l-0.3,0.1l0.2,0.3
		l-0.1,0.5c0.2,0.3,0.3,0.5,0.3,0.7l-0.4,0.4l-0.1,0.3l0.2,0.1l0.3,0.1c-0.2,0.2-0.2,0.4-0.2,0.7l0.2,0.2l-0.1,0.4l0.3,0.1l-0.1,0.3
		l-0.1,0.1l0.3,1.3c-0.2,0.2-0.2,0.4-0.2,0.7l0.3,0.2l0.2,0.2l-0.3,0.1l-0.1,0.3l0,0.3c-0.1,0.1-0.1,0.2-0.2,0.2l0.3,0.2
		c0,0.1,0,0.2,0,0.3l-0.4,0c0,0.2,0.1,0.3,0.1,0.3l0.1,0.3l0.2,0l-0.1,0.2l-0.1,0.1l0.4,0.8l-0.4,0.2l-0.2,0.3
		c0.1,0.2,0.2,0.3,0.3,0.4c0.1,0,0.1,0.1,0.2,0.2c0,0.1,0.1,0.1,0.1,0.1l-0.3,0.7l0.3,0.4l0,0.2c0.1,0,0.2,0,0.2,0
		c0.1,0,0.1,0.1,0.1,0.1l-0.2,0.2l-0.1,0.2l0.7,0.5l0.2,0.4l0.2,0.1l0.3,0.2c-0.1,0.2-0.1,0.3-0.2,0.4l-0.2,0.3l0.7,0.4
		c-0.2,0.2-0.3,0.3-0.5,0.3l-0.4,0.1l0,0.3c0,0.2-0.1,0.4-0.4,0.5l-0.9-0.3l-0.2,0.1l-0.6-0.1l-0.4,0.1c-0.2,0.1-0.3,0-0.5-0.1
		c0-0.3-0.1-0.6-0.1-0.7l0,0.5l0,0.4l-0.2,0.1l-0.4,0.5l-0.9,0.2l-0.2,0.2c-0.2-0.1-0.3-0.2-0.4-0.2l-0.3-0.3
		c-0.4-0.1-1-0.5-1.8-1.2l-1-1l-1.7-2.2l0-0.5l-0.3-0.2l-0.2-0.6c-0.1-0.3-0.2-0.5-0.2-0.6l-0.7-0.9l-0.6-1l-0.2-0.8l-0.1-0.7
		l-0.3-0.3l-0.4-0.4l-0.1-0.8c0-0.4-0.1-0.7-0.2-0.9l-0.4-0.5l-0.3-0.9l-0.3-0.7l-0.2-0.8l0-0.4l0.1-0.4l-0.6-1.1l0-0.6l-0.1-0.4
		c-0.1,0-0.2-0.1-0.2-0.1c-0.1-0.1-0.1-0.1-0.1-0.1l-0.1-0.7l0.1-0.5l-0.4-1l0.3-0.5l-0.5-1l0-0.5l-0.1-0.3c-0.1,0-0.2,0-0.2,0
		l-0.1,0.6c0,0.4,0,0.6-0.1,0.7l-0.2,2.6l-0.2,2.4l-0.3,2.7l-0.2,2.4v1.7c0,0.6,0,1.1,0,1.4l-0.2,1.7l-0.1,1.2
		c-0.1,0.6-0.2,1.2-0.4,1.8l-0.2,0.3l-0.1,0.1c0.1,0.1,0.2,0.2,0.3,0.3c0,0.5-0.1,0.8-0.1,1s-0.1,0.5-0.2,0.8l-0.5,1.6l-0.2,0.6
		c0,0.3-0.1,0.5-0.3,0.6s-0.5,0.3-0.9,0.4l-1.1,0.3l-0.2,0.2l-0.5-0.2c-0.1,0.1-0.2,0.2-0.2,0.3l0,0.4l-0.6-0.1l-1.6-0.5l-0.6-0.5
		c0-0.2-0.1-0.4-0.3-0.5l-0.6-0.2c0-0.2-0.1-0.4-0.2-0.5c-0.1-0.1-0.1-0.2-0.2-0.2l-0.9,0.3l-0.4-0.3l-0.4-0.4l-0.3-0.8l-0.3-1.2
		l-0.7-1.1l0.1-0.6l0.1-0.7l-0.1-0.1l-0.2-0.3l0.4-0.4l0-0.3l0.3-0.3c-0.1-0.1-0.2-0.1-0.3-0.1l-0.3-0.1l-0.1-0.4l0.2-0.5l0.1-0.7
		l0.4,0.4l0.2,0.1l0.2,0c-0.1,0.1-0.1,0.2-0.2,0.2c-0.1,0.1-0.1,0.2-0.1,0.3l0.5-0.1c0-0.2,0-0.4-0.1-0.5l-0.3-0.6l-0.2-0.1
		l-0.1-0.2l0.1-0.5l-0.4-0.4l0.3-0.3c-0.1-0.1-0.2-0.1-0.2-0.1c0,0-0.1-0.1-0.1-0.1c0.1-0.2,0.2-0.3,0.2-0.4l0.2-0.3
		c0-0.4-0.1-0.6-0.1-0.8l-0.1-0.8l0.2-0.5l-0.4-0.5l-0.2-0.5l-0.1-0.8l0.1-0.6l-0.1-0.2l-0.1-0.7l0.3,0c0.1,0,0.1-0.1,0.2-0.2
		c-0.1-0.1-0.2-0.2-0.3-0.2l-0.5-0.2l0.1-0.8l-0.3-0.3c0-0.5-0.1-0.8-0.1-0.9l-0.4-0.4l0.1-0.4c0.1-0.1,0.2-0.3,0.2-0.5l-0.2,0
		c-0.2,0-0.5-0.1-0.7-0.4l0.1-0.8l-0.4-1.2c0-0.2,0.1-0.5,0.3-0.8c0.2-0.3,0.4-0.5,0.4-0.7l0.2-0.8l0.3-0.2l0-0.2l-0.2-0.4l0.3-0.1
		c0.3-0.1,0.6,0.1,0.9,0.8l0.5,1.1c0.2,0.2,0.4,0.6,0.5,1.2l0.3,1l0.3,0.8c0.1,0.4,0.3,0.7,0.5,1l0.7,1l-0.1,0.5l0.4,0.4l0.5,1.8
		l0.2,0.5l0.2-0.2c0-0.6,0-1,0.1-1.1c0.3-0.4,0.4-0.7,0.5-1.1l-0.2-0.4l0.2-0.4l-0.2-0.8c0-0.2,0.1-0.3,0.3-0.4l0.6-0.2l0.1-0.3
		l0.3,0.6l0.1,0.9l-0.1,1l0.3,0.7l-0.3,0l-0.3,0.4l0.1,0.7l0.2,0.5c-0.1,0.1-0.2,0.1-0.2,0.2c0,0,0,0.1,0,0.1
		c0.1,0.4,0.2,0.7,0.1,0.9l-0.3,0.1c-0.1,0.1-0.1,0.2-0.1,0.3l0.6,0.3c0,0.3,0.1,0.5,0.2,0.6l0.5,0.4l0,0.6c0,0.2,0.1,0.3,0.3,0.4
		l0.2-0.4c0.1-0.2,0.2-0.4,0.4-0.4l0.6,0.3l-0.3-0.7l0.5-0.2c0.1-0.3,0-0.6-0.2-0.8l-0.3,0l0-0.4l0-0.4l0.3-0.4l-0.2-0.4
		c0.1-0.1,0.2-0.1,0.2,0l0.2,0.1l-0.1-0.7l0.3-1.1c-0.1-0.1-0.2-0.2-0.3-0.2l-0.4-0.3c0.1-0.1,0.2-0.2,0.3-0.2s0.2,0,0.2-0.1
		c0,0,0.1-0.1,0.1-0.1l-0.1-0.1l-0.1-0.1l0.3-0.5l-0.2-0.3l0.2-0.2l0-0.6l-0.1-1.2l0.5-0.5l0.2-0.8c0-0.4,0-0.6,0-0.8l0.5-0.2
		c0.1,0,0.2-0.2,0.2-0.4l-0.2,0l-0.2-0.1c0.2-0.3,0.3-0.6,0.3-0.9l-0.3-0.3c0-0.2,0-0.4,0-0.5l0.2-0.2l0.3-0.2l-0.4-0.1
		c0-0.2-0.1-0.3-0.1-0.3l0.3-0.8l0-0.6l-0.4-0.3c0-0.1,0-0.2,0-0.2l-0.2-0.1l-0.1-0.1l0.3-0.1l-0.2-1.2l0.3-0.2l0.5-0.2l-0.5,0
		l-0.4-0.5l0.3-0.2l0.6-0.7l0-0.5l0.2-0.1c0-0.3-0.1-0.5-0.1-0.6l0.3-0.4l-0.2-0.2c0-0.3,0.2-0.5,0.6-0.8l0.2,0l0.1,0.1l0.3-0.2
		l0.3,0.1l-0.1-0.4l0.2-0.1l0.1-0.9l1.5-0.2l0-0.4c0.1-0.3,0.3-0.4,0.5-0.4l0.4,0.1c0.4,0.1,0.6,0.4,0.7,0.9l-0.1,0.8l-0.4,1l0,0.6
		l-0.5,1.1l0.2,0.6l0,0.8c0,0.3,0.2,0.6,0.4,0.8c-0.2,0.1-0.2,0.3-0.2,0.4l0.3,0.4l0.5,0l0.7,0.7l0.3,0.8l-0.3,0.7l0.2,0.2l0.3,0.4
		l-0.2,0.4l0.1,0.8c0.1,0.4,0.2,0.7,0.3,0.7l0.4,0.2l0.3,0.2c-0.2,0.2-0.3,0.3-0.3,0.5l0.3,0.1c0.1,0.1,0.2,0.2,0.2,0.3l-0.3,0.6
		l0.2,0l0.2,0.4l0.3-0.1l-0.1,0.2l-0.2,0l0,0.5l0.7,0.7l0.2,0l-0.1,0.2l-0.1,0.3c0.1,0.2,0.3,0.5,0.6,0.8l0.1-0.1l0.2-0.3l0.1,0.1
		c0.1,0.2,0.3,0.4,0.4,0.4l0.7,0.4l-0.1,1.2l-0.3,0.2l-0.1,0.6l0.1,0.5l0.2,0c0.1,0.1,0.2,0.2,0.2,0.2c0.1,0,0.1,0,0.1,0
		c0.2,0,0.3-0.1,0.3-0.1l-0.1,0.6l0.3,0.7l0.3,0.8c0.2,0,0.3,0.1,0.4,0.3c-0.1,0.2-0.2,0.3-0.2,0.4l-0.2,0.3
		c0.1,0.2,0.3,0.2,0.4,0.3l0.2,0c0,0.1,0,0.3,0,0.5c0,0.2,0.1,0.3,0.2,0.4l0.6,0.4l0.1,0.5c0,0.3,0.1,0.5,0.4,0.7l-0.1,0.7l0.4,0.3
		c0.2,0.1,0.4,0.2,0.4,0.3l-0.4,0.2l0.1,0.3c0.3,0,0.5-0.2,0.5-0.7l-0.1-0.8l0.1-1.1l0-0.3l0-0.2l-0.1-0.6l-0.1-0.8l0.1-0.2
		l-0.1-1.1l-0.1-0.8l0-0.7l0.1-0.9l-0.2-0.9l-0.2-1l0-0.8l-0.1-0.7l0.2-1.3l-0.3-1.1l0.1-1.1l0-0.9l0.2-0.5l-0.2-0.5
		c0-0.2,0-0.4,0.2-0.7l0.3-0.6l-0.4-1c-0.1-0.5-0.1-0.9,0-1.2l0.5-1.6l0.3-0.5l0.4,0l-0.1-0.6c0.1-0.1,0.2-0.2,0.2-0.3l0.3-0.2
		c0-0.3,0-0.5,0.2-0.7c0.1-0.1,0.2-0.1,0.2,0l0.3,0.2l0.2-0.2l0.2,0.2l0.1-0.1l0.3-0.1c0.3,0.2,0.5,0.2,0.8,0.2l0.1-0.2l-0.3-0.3
		l0.4,0l0.5-0.1l0.3-0.7c0.2,0,0.3-0.1,0.4-0.3l0.3-0.6l0.2-0.1l-0.2-0.1l-0.3,0c0.1-0.1,0.1-0.2,0.2-0.2l0.8,0.1l0.3-0.2l0.1,0.1
		l0.3,0.2c0.2,0,0.3,0,0.4,0.2l-0.1,0.4l1.4,0.3l-0.2,0.8l-0.1,0.8l0.6,0C184.9,53.9,184.9,54,184.9,54.1z M157.6,66.6l-0.2-0.1
		l0.1,0.2l-0.3,0.3c-0.1-0.2-0.1-0.3-0.1-0.4c0.1-0.2,0.1-0.3,0.2-0.4c0,0,0.1,0,0.1-0.1l0.1,0.1c0.1,0.1,0.1,0.1,0.1,0.2
		S157.6,66.6,157.6,66.6z M159.5,77.5l-0.3-0.2l-0.3-0.3l-0.1-0.2l-0.4,0.3l0.1,0.2l0.3,0l0,0.9l0.5,0.3l0-0.2L159,78
		c0-0.2,0.1-0.3,0.1-0.3L159.5,77.5z M159.8,76.2l-0.2-0.3c-0.1-0.2-0.3-0.1-0.4,0c-0.1,0.1,0,0.3,0.2,0.5L159.8,76.2z M178.6,54.9
		l-0.2,0l-0.2,0.3c0,0.2,0.1,0.4,0.2,0.5c0,0,0.1,0,0.3,0l0.1-0.3C178.7,55.2,178.7,55,178.6,54.9z"/>
</g>
<g class="st0">
	<path class="st1" d="M199.1,74.8c-0.1,0.2-0.2,0.4-0.4,0.5l-0.5,0.2l-0.7-0.2l-0.6,0.4l-0.4,0.2c-0.1,0.2-0.2,0.3-0.3,0.4l-0.2,0.3
		l0.1,0.6l-0.3,0.3l-0.3,0.4l0.1,0.6c0,0.3,0,0.5-0.1,0.5l-0.7-0.5c-0.1,0.1-0.1,0.2,0,0.3l0.2,0.2l0,0.4l0.5,0.2
		c0.2,0.2,0.3,0.3,0.1,0.6l-0.5,0l-0.2,0.3l-0.6-0.3l-0.5-0.1c-0.2-0.2-0.5-0.7-0.7-1.3c-0.1-0.6-0.2-1-0.3-1l-0.6-1.8
		c-0.1-0.8-0.3-1.4-0.4-1.7l-2.4-6.4l-1.2-3c-0.3-0.7-0.5-1.2-0.6-1.6c-0.1-0.4-0.3-0.9-0.4-1.5l-0.4-0.5l-0.6-1.6
		c-0.2-0.6-0.5-1.1-0.8-1.4l-0.7-1.1c-0.1-0.4-0.3-0.7-0.4-0.8l-0.2-0.5l0-0.7l-0.2-0.4l-0.2-0.8l0.2-0.2c0.1-0.1,0.3-0.1,0.5,0
		l0.5,0.1l0.4-0.2c0-0.2,0-0.3,0-0.4c0-0.1,0.1-0.1,0.1-0.1l0.2,0.3l0.3,0.1l0-0.2l0-0.3c0-0.1,0-0.2,0-0.2c0-0.1,0.1-0.1,0.1-0.1
		c0.1,0.2,0.2,0.4,0.3,0.5c0,0.3,0.1,0.5,0.3,0.5c0.2-0.1,0.2-0.1,0.2-0.2l0.1-0.4l0.5-0.4l0.1-0.3l0.2,0.3c0.1-0.4,0.3-0.6,0.5-0.6
		l0.3,0.3c0.1,0.2,0.2,0.2,0.4,0.1l-0.2-0.2c-0.1-0.2-0.1-0.3,0.1-0.4l0.1,0.2l0.1,0.2c0.2,0,0.3,0,0.4,0.1c-0.1,0.2-0.1,0.4,0,0.6
		l0.6,0.5c0.3,0.3,0.5,0.6,0.6,0.8s0.1,0.8,0.2,1.6l-0.2,0.4l0.1,0.2l0.4,0.1c0.2,0,0.3,0.1,0.3,0.3c-0.2,0-0.3,0.1-0.3,0.1l0.3,0.4
		c0.1-0.1,0.2-0.2,0.3-0.2c0.1,0,0.1,0,0.2-0.1c0.1,0.2,0.1,0.3,0.1,0.4c0,0.2,0,0.4-0.1,0.5c0.1,0.2,0.2,0.3,0.3,0.3l0.1,0.1l0,0.3
		l1.1,1.2l0.6,1.2l0.3,0.8l-0.2,0.4l-0.2-0.2l-0.2-0.2c-0.2,0-0.3,0.1-0.3,0.3c0,0.3,0.1,0.5,0.2,0.7c0.1,0.2,0.3,0.2,0.5-0.1
		l0.1-0.3l0.2,0.2c0,0.1,0.1,0.1,0.3,0.2l0.2-0.2l0.3-0.3c0.1,0.2,0.2,0.3,0.3,0.5c0.1,0.2,0.1,0.3,0.1,0.5l-0.4,0.3l0.2,0.4
		c-0.1,0.1-0.1,0.3-0.1,0.5l0.5,0.2c0,0.1,0,0.2,0,0.2l-0.1,0.1l0.3,0.5l0.4,0.5l0,0.3l-0.2,0.6l0.3,0.2l0.4,0.3l0.1,0.6l-0.1,0.8
		l0.1,0.1c0.1,0.2,0.2,0.3,0.3,0.5l0.4,1.2l0.3,0.2l0.4,0.3L198,72c-0.1,0.1-0.1,0.2-0.1,0.4l0.3,0.2l0.2,0.4c0,0.2,0.1,0.4,0.1,0.4
		l0.4,0.2c0.1,0.1,0.1,0.3,0.1,0.5l-0.1,0.4L199.1,74.8z M184.6,54.6c0.2,0.1,0.3,0.2,0.2,0.3c-0.1,0.1-0.2,0.1-0.3,0.1
		c-0.1-0.1-0.2-0.2-0.2-0.3C184.3,54.5,184.4,54.5,184.6,54.6z M188,55.1l0-0.5l-0.2-1l-0.5,0l-0.1-0.3l-0.1,0.2l0.1,0.3l-0.5,0.5
		c0,0.2,0.1,0.3,0.3,0.3l0.2-0.1l0,0.4l0.3,0l0.1,0.5l0.2-0.5L188,55.1z M189.4,55.8l-0.3,0.1c-0.1,0.2-0.2,0.4-0.2,0.5
		c0,0.2,0.1,0.3,0.3,0.4c0.1,0.1,0.3,0.1,0.3,0c0.1-0.1,0.1-0.3,0.1-0.5C189.7,56.1,189.6,55.9,189.4,55.8z M195.1,65.9
		c-0.1-0.1-0.2-0.2-0.2-0.3c0-0.1,0-0.1,0-0.2c0-0.1,0-0.1,0.1-0.2l0.2,0.3c0,0.1,0,0.2,0,0.2C195.1,65.8,195.1,65.8,195.1,65.9z
		 M195.3,66.2l0,0.5l-0.1,0.2l0-0.3L195.3,66.2z M197.4,70.2l-0.1-0.4l0,0.2L197.4,70.2z"/>
</g>
<g class="st0">
	<path class="st1" d="M217.3,45.8l0.8,0.4l0.5,0.3l0.5,0l1.3,1l1.3,1.2l1,1c0,0.2,0.1,0.5,0.2,0.7c0.1,0.2,0.1,0.4,0,0.5l-0.9-0.4
		c-0.4-0.3-0.7-0.4-0.9-0.5l-1.1,0.1l-0.6-0.3l0.2-0.1l-0.8-0.2l-1.3,0.3l-0.2-0.6c0-0.2-0.2-0.2-0.6-0.2c-0.1,0-0.2,0-0.2,0.1
		c0,0.1,0,0.1,0.1,0.3l0.3,0.3c-0.2,0.1-0.4,0.2-0.5,0.2l-0.4,0l-0.2,0c-0.2,0.3-0.3,0.4-0.5,0.5l-0.6-0.1c0,0.1,0,0.2,0.1,0.3
		l0.2,0.2c-0.1,0.1-0.2,0.1-0.3,0.1l-0.2,0l0,0.4l-0.1,0.4c-0.2,0-0.4,0.1-0.5,0.2l-0.3,0.3l-0.6,0l-0.8-0.2l-0.7,0.2l-0.7,0.3
		l-0.4,0.1l-0.3-0.2l-0.1,0.5c0,0.2,0,0.4-0.1,0.6c-0.1,0-0.2,0.1-0.4,0.1c-0.1,0.1-0.3,0.1-0.4,0.1c-0.4,0-0.7,0.1-0.9,0.3
		l-0.7,0.6l-0.9,0.6l-1.1,1.2l0.1,0.3l-0.2,0.5l-0.6,1.2c-0.3,0.7-0.6,1.4-0.8,2.1l-1.1,4l-0.2,1l0.1,0.3l-0.3,0.3
		c0,0.5,0.1,0.8,0.2,1l-0.4,1.1l0,0.6c0,0.6,0,1-0.1,1.3l-0.3,0.8l0.4,0.7l-0.1,0.8l0.2,0.2c0.2,0.2,0.3,0.4,0.3,0.7
		c0,0.4,0.1,0.7,0.2,1c0.1,0.3,0.2,0.5,0.4,0.8l0.2,0.4c0,0.2,0.1,0.3,0.1,0.4c0.3,0.8,0.9,1.4,1.5,1.8l1,0.5l1.1,0.3l1-0.1l0.6,0.1
		l0.6,0c0.7,0,1.4-0.1,2-0.3c0.6-0.2,1.4-0.5,2.3-0.9l4.1-2.1c0.4-0.2,0.9-0.6,1.4-1.1l1.2-1.4l0.4-0.9c0.2-0.4,0.4-0.5,0.6-0.4
		l0.2,0.5l-0.1,0.6l0.1,0.2l0.4,0.2l-0.2,0.1c-0.1,0.2-0.2,0.4-0.2,0.7l0.3,0.3c-0.1,0-0.1,0.1-0.2,0.1c0,0-0.1,0.1-0.1,0.1l0.5,0.2
		l-0.3,0.4l0.3,0l0.3,0.1l-0.4,0.3l-0.3,0.2l0.1,0.4c0,0.1,0,0.1-0.1,0.2c0,0.1,0,0.1-0.1,0.2c0.2,0.1,0.3,0.1,0.3,0.2l-0.2,0.4
		l-0.3,0.4l0.1,0.5c0,0.3,0,0.5-0.1,0.6c0.1,0.2,0,0.4-0.2,0.7l-0.5,0.4l-0.4,0.1l0,0.2l0.2,0.2l-0.4,0.3l-0.3,1l-0.6,0.5l-0.3,0.6
		l-0.3,0.5c-0.3,0-0.5,0.1-0.7,0.2l-0.1,0.3l-0.3,0.1l-0.3,0c-0.1,0.1-0.1,0.2-0.1,0.2c0,0-0.1,0.1-0.1,0.1l-0.2,0.1
		c0,0.3-0.1,0.5-0.3,0.7l-1.2,0.7l-0.6,0.1l-0.5,0l-0.4-0.1l-0.8-0.2l-0.7,0.3l-0.5,0l-0.4-0.1l-0.5,0.2l-0.6,0.2l0-0.1l-0.5-0.2
		l-1.3-0.1l-1.1-0.1c-0.1-0.1-0.2-0.3-0.3-0.4c-0.1-0.1-0.1-0.2-0.2-0.3l-1.2-0.2c-0.6-0.1-1-0.2-1.3-0.4l-0.5-0.4l-0.3,0.1
		l-0.1-0.4c-0.3,0-0.4,0-0.5-0.1l-0.5-0.8l-0.4-0.3c-0.3-0.4-0.5-1-0.7-1.6l0-0.3l0.1-0.2l-0.4-0.7l-0.6-0.3l0.2-0.5l-0.7-0.7
		l-0.1-0.4c0-0.2-0.1-0.3-0.1-0.4l-0.4-0.4l0-0.5l0-0.3l-0.3-0.1l-0.5-1l0.1-0.2l0.2-0.4l-0.3-0.6l0.1-0.6l0.1-0.6l-0.2-0.3
		l-0.3-0.3c0.1-0.2,0.1-0.4,0.2-0.5c0.1-0.1,0.1-0.2,0.1-0.5l-0.3-0.4l0-0.3l0.2-0.5L199,69l0-0.9l0.4-0.7l-0.2-0.6l0.4-0.2l-0.1-1
		l0.2-0.5l0.2-0.4l-0.1-0.2l-0.1-0.2l0.3-0.6l0.6-0.8l-0.2-0.2l0.1-0.5l0.3-0.4l0.2-0.6l0.2-0.7l0.3-0.8l0.8-1.4l0.1-0.8l0.3-0.3
		c0.2-0.1,0.3-0.3,0.4-0.6l0.2-0.8l0.5,0l0.4-0.2l-0.2-0.2c-0.1-0.1-0.2-0.3-0.2-0.4l0.5-0.7l0-0.3c0.4-0.1,0.6-0.2,0.7-0.3l0.3-0.5
		l0.9-0.4l0.5-1.1l0.6-0.2l0.2,0.1l0.1,0.1c0.2,0,0.4-0.1,0.5-0.4l0.3-0.5l0.4,0l0-0.2l0.3-0.2l-0.2-0.1l-0.2-0.1
		c0.2-0.2,0.4-0.3,0.6-0.3c0.4,0,0.7-0.2,0.7-0.4l-0.8,0c-0.2,0-0.4,0-0.4-0.2c0.1-0.1,0.2-0.2,0.2-0.2l0.3,0l0.5-0.6l0.6-0.4
		l0.4,0.1l0.2-0.1l-0.2-0.1l-0.2-0.1l0.1-0.2c-0.2,0-0.3,0-0.3,0.1l-0.2,0c0-0.2,0-0.3,0.2-0.4l0.5,0l-0.1-0.1l0.2-0.2l-0.1-0.3
		l0.5,0.1l0.3-0.1c0-0.1-0.1-0.1-0.1-0.2c0-0.1,0-0.2,0-0.2l0.3-0.1l0.4,0l0.2-0.2l0.2-0.4l0.5,0.3l0.8-0.7c0.4-0.2,0.7-0.3,1-0.2
		l1.1,0.2C216.8,45.8,217.2,45.8,217.3,45.8z M202.1,80.8l0.2,0.1l-0.2,0.1L202.1,80.8z M202.3,81.3l0,0.2l-0.2-0.2L202.3,81.3z
		 M203,60l-0.2,0l0-0.3l0.3,0.1L203,60z M204.1,84l0.2,0l-0.1,0.2L204.1,84z M210.6,50.1l0.2-0.4c0.2-0.1,0.4-0.2,0.6-0.1
		c0.1,0.1,0.1,0.2,0,0.3C211.1,50.1,210.8,50.2,210.6,50.1z M211.4,52.1c0-0.1-0.1-0.2-0.1-0.2c0.1-0.1,0.2-0.1,0.3-0.1
		c0,0.1,0.1,0.2,0.1,0.2C211.7,52.1,211.6,52.2,211.4,52.1z M211.5,50.2c-0.1-0.1-0.2-0.2-0.1-0.4c0.1-0.2,0.2-0.3,0.3-0.2
		c0.1,0.1,0.1,0.2,0.1,0.4C211.8,50.2,211.7,50.3,211.5,50.2z M212.1,49c-0.2,0-0.3-0.1-0.3-0.2c0-0.2,0.1-0.3,0.2-0.3
		c0.2,0.1,0.3,0.2,0.3,0.3C212.2,48.9,212.2,49,212.1,49z M211.9,51.8l0.1-0.2c0.2,0,0.3,0.1,0.3,0.1l0,0.2L211.9,51.8z M214,47.7
		l-0.3,0.2l-0.1-0.1l0.1-0.1L214,47.7z M213.6,48.9l0-0.2l0.2-0.1l0,0.2L213.6,48.9z M214.5,49.1l0-0.5c0.1,0,0.1-0.1,0.2-0.1
		c0.1,0,0.1,0.1,0.1,0.2L214.5,49.1z M215,51.2l-0.1-0.1c0.1,0,0.2,0,0.3,0l0.2,0.1C215.3,51.4,215.1,51.4,215,51.2z M218.7,82.4
		l0.1,0.2l-0.3,0l-0.1-0.2C218.5,82.3,218.6,82.3,218.7,82.4z"/>
	<path class="st1" d="M246.2,44.2L246,45c0.1,0.2,0.2,0.4,0.3,0.4l0.4,0.4l0.2,0.8l0.2,1l0.2,0.8c0,0.4,0.1,0.7,0.2,0.9l0.5,1.3
		l0.1,1.1l0.4,1.1l0.3,1.9l0.1,1.3l0.2,0.9l0,0.8l0.2,0.8l0.2,0.8l0.1,1.1l0.1,0.2l-0.1,0.5l0.4,0.6l0.1,1.4l0.3,0.7l-0.1,0.4
		l0.1,0.6c-0.1,0.2-0.1,0.3-0.2,0.3l-0.1,0.3l0.4,0.4c0.3,0.2,0.4,0.4,0.5,0.5c0.1,0.3,0.1,0.5-0.1,0.7l-0.2,0.2
		c0.1,0.2,0.2,0.4,0.3,0.5l0.3,0.4c-0.1,0.2-0.2,0.4-0.2,0.6l0.4,0.6l-0.2,0.4l-0.1,0.8l0.3,0.6l0.3,0.1l-0.2,0.5l0.2,0.3l0.2,0.2
		c-0.1,0.1-0.1,0.2-0.1,0.4c0,0.2,0.2,0.4,0.4,0.5l0.4,0.3l0,0.6l0.4,0.4l0,0.5l0.4,0.9c0.2,0.4,0.4,0.8,0.5,1.2l-0.1,0.5l-0.4,0.5
		l0.1,0.5l0.3,0.1c0,0.2-0.1,0.3-0.1,0.4l-0.5-0.1l-0.3-0.4L253,79l0,0.2l-0.3,0.3l-0.1,0.4c-0.1,0.1-0.1,0.2-0.2,0.3l-0.4,0.2
		l0.3,0.4l0.2,0.4c-0.1,0.1-0.1,0.1-0.3,0.2c-0.1,0.1-0.2,0.1-0.3,0.1l-0.6,0.3l0,0.2c-0.2,0.2-0.6,0.4-1.2,0.4
		c-0.4,0-0.7,0-0.9-0.2l-0.1-0.1l-0.9-0.5l-0.4-0.5c-0.1-0.3-0.2-0.5-0.4-0.6l-0.6-0.7l-0.5-0.8l-0.5-1.4l-0.3-1.5l0-1.1l-0.2-0.2
		l0.1-1.6l-0.3-0.4l-0.4-0.8l-0.1-1.2l0.3-0.5c-0.1-0.1-0.2-0.2-0.3-0.2c-0.1,0-0.2-0.1-0.2-0.1l0-0.4l0-0.4
		c-0.2-0.2-0.6-0.3-1.1-0.3l-1.1,0.1l-1.1-0.1l-1.2,0.4l-2.8,0c-0.4,0.2-0.7,0.2-1,0.3l-1.2-0.1l-0.8-0.1c-0.4,0-0.6,0.1-0.8,0.1
		l-0.5,0.2c-0.2,0.1-0.4,0.2-0.5,0.3c-0.1,0.1-0.2,0.1-0.3,0.2l0.3,0.4c0.1,0.1,0.2,0.2,0.2,0.4L232,72l0.5,0.5
		c0.2,0.3,0.4,0.5,0.4,0.9l-0.2,0.4c0.1,0.2,0.3,0.4,0.4,0.4l0.4,0.4l0.5,1.1l0,0.4l1.7,2l0.4,0.4l0.4,0.6l-0.1,0.8l0.1,0.5
		l-0.6,0.7l-0.6,0.8l-0.9,0.4l-0.9,0.3l-0.8,0.1l-1.4,0l-0.7-0.2c-0.3-0.1-0.5-0.2-0.6-0.5c0-0.2-0.1-0.4-0.2-0.5l-0.9-0.9l-0.1-0.8
		c-0.2-0.1-0.3-0.1-0.4-0.2c0.1-0.3,0.1-0.5,0-0.6l-0.6-0.4l0-0.6l-0.5-0.5l-0.3-1.2l-0.1-0.9l-0.4-0.5c0-0.4,0-0.7,0-0.9l-0.8-2.4
		l-0.2-1l-0.1-1.1l-0.3-0.6l0-0.6l0.1-0.6c-0.3-0.3-0.4-0.5-0.5-0.8l-0.1-1l0-0.9c-0.1-0.1-0.1-0.2-0.2-0.2l-0.2,0l0-1l-0.4-0.6
		l-0.1-0.7l0-0.8l-0.1-0.4l-0.3-0.7l0-0.9l-0.4-0.7l0.1-0.6l-0.4-0.7l0-1.4l-0.2-0.5l-0.2-0.5c0.1-0.3,0.2-0.4,0.2-0.5l0.8-0.6
		l1-0.4l0.6-0.2c0.2,0,0.3,0,0.3,0c0.6,0.5,0.9,1,0.9,1.7c0,0.1-0.1,0.2-0.1,0.4c0.1,0.1,0.2,0.2,0.2,0.2c0,0,0,0.1,0.1,0.1l0,0.5
		l0.4,0.8l-0.1,0.4l0.5,0.6l0.5,0.6l0.3,0.7l0.3,0.8l0.3,0.4l0.3,0.2c-0.1,0.1-0.2,0.3-0.2,0.5l0.3,0.3l0.1,0.7l0.7,1.6l-0.1,1
		l0.5,0.1l0.7,0.4l0.8-0.3l1-0.4l0.7,0.1l0.6-0.4l0.4,0.2l0.4,0.1l0.8-0.4l0.8,0.3l0.6-0.1l0.1-0.3l0.3,0.2c0.1,0.1,0.2,0.1,0.3,0.1
		s0.2,0,0.3,0.1c0.2-0.1,0.3-0.3,0.3-0.4c0-0.1,0.1-0.3,0.1-0.3c0,0,0.1,0,0.1-0.1c0.2,0,0.3,0.1,0.5,0.3l0.4,0.3l0.6-0.2l0.4,0
		l0.2-0.3l0.7,0l0.6,0l0.6-0.4l0.6-0.2c-0.1-0.1-0.1-0.3-0.1-0.5l0-0.8l0-1.1l-0.1-0.6l-0.2-0.3c0-0.5,0-0.9,0-1.1l0-1.2l-0.3-0.6
		l0.2-0.7l-0.3-0.3l0.4-2l0.1-0.3l0.2-0.4c-0.1-0.1-0.1-0.2-0.2-0.2l-0.2-0.1l0-0.5l-0.4-0.2c0.1-0.1,0.2-0.2,0.4-0.2
		c0.2-0.1,0.3-0.1,0.3-0.2l-0.3-0.6l-0.3-0.9l-0.2-0.1c0.2,0,0.3-0.1,0.4-0.1c0.2,0.1,0.3,0,0.4-0.1c-0.1-0.1-0.1-0.3-0.1-0.5
		l0.2-0.3c-0.2-0.1-0.4-0.1-0.4-0.1c0,0-0.1-0.1-0.1-0.1l0-0.6l-0.3-0.5c0.2-0.2,0.4-0.4,0.5-0.5c0.2-0.1,0.3-0.2,0.3-0.2
		c0-0.1,0.1-0.1,0.1-0.1l-0.7-0.2c-0.2,0-0.4-0.1-0.4-0.4c0-0.2,0.1-0.3,0.4-0.4c0.3,0,0.4-0.2,0.5-0.3c0-0.2-0.1-0.3-0.3-0.3
		l-0.5,0l0-0.3l0.6-0.4L244,44l0.1-0.4l0.4-0.2l0.3-0.2c0.1-0.2,0.2-0.3,0.3-0.4c0.1-0.1,0.2-0.1,0.2-0.1c0.1,0.1,0.1,0.1,0.2,0.2
		c0.1,0.1,0.2,0.2,0.3,0.5L246.2,44.2z M242,65.1c0-0.1,0-0.2,0.1-0.3l0.3-0.1c0,0.1-0.1,0.2-0.1,0.3C242.3,65,242.2,65.1,242,65.1z
		 M253.2,77l0.1,0.2l-0.1,0.1C253.1,77.1,253.2,77,253.2,77z"/>
</g>
<g class="st0">
	<path class="st1" d="M294.1,71.6c-0.1,0.2-0.2,0.3-0.2,0.4l-0.5,0.4l0,0.2l-0.4,0.2l0,0.3c-0.4,0.1-0.6,0.2-0.7,0.3l-0.3,0.5
		l-0.3,0.2l-0.4,0.1l-0.4,0.3l-0.3,0.4c-0.4-0.1-0.7-0.1-0.8,0l0,0.4l-0.2,0l-0.1,0.2l-0.5-0.1l-1,1.2l-0.5,0L287,77
		c-0.2,0.1-0.3,0-0.5-0.2c-0.1-0.3-0.3-0.4-0.5-0.2c-0.1,0.2-0.1,0.3-0.1,0.4c0,0.1,0,0.3,0,0.4l-0.2-0.1c-0.2-0.4-0.4-0.5-0.6-0.4
		c0,0.2,0.1,0.4,0.2,0.5c0.2,0.3,0.3,0.4,0.1,0.6l-0.2,0l-0.2,0c0-0.1,0-0.2-0.1-0.3c0,0-0.1,0-0.1,0c-0.2,0.1-0.3,0.2-0.3,0.3
		l-0.3,0.4l-0.5,0.1l-0.8,0l-0.6,0.2l-0.4,0.1l-0.2-0.3l-0.7-0.1l-0.4-0.3c0-0.1-0.1-0.1-0.3-0.2l-0.1,0.4c-0.1,0.2-0.2,0.3-0.4,0.4
		l-0.4-0.2l-0.7-0.1l-0.3,0.2l-0.3,0.2l-0.6,0l-0.8,0.2l-0.1,0.3l-0.6-0.2l-0.8,0l-0.1-0.3l-0.2,0.3c-0.1,0.1-0.2,0.1-0.4,0.2
		c-0.2-0.1-0.3-0.2-0.3-0.4l-0.1-0.9l-0.2,0.3l-0.4-0.1l-0.2,0.5l-0.7,0c-0.3,0-0.5-0.1-0.6-0.3l-0.1-0.3l-0.4-0.2l-0.1-0.3
		l-0.2-0.1c-0.1,0.1-0.2,0.2-0.2,0.3c-0.2,0.3-0.4,0.6-0.5,0.9s-0.4,0.4-0.7,0.4l-0.5-0.3l0-0.3c-0.4-0.1-0.7-0.1-0.8-0.2
		c0-0.2-0.1-0.3-0.3-0.4l-0.2,0.3c0,0.1-0.1,0.1-0.2,0.1c-0.1-0.1-0.1-0.2-0.1-0.4l0.1-0.4c0-0.2-0.1-0.2-0.3-0.2l-0.3,0.1
		c-0.1-0.1-0.2-0.2-0.3-0.3l-0.3,0.2l-0.2,0.2l0,0.3l-0.3,0l-0.4-0.2l-0.7,0.2l0.1-0.6c-0.2-0.2-0.4-0.3-0.6-0.3
		c-0.3,0.1-0.5,0.3-0.6,0.4c-0.1,0.2-0.3,0.2-0.5,0.2c0.1-0.2,0.1-0.4,0-0.5c-0.3,0-0.6-0.1-0.8-0.2l-0.3-0.6l-0.4-0.3
		c0-0.2-0.2-0.4-0.4-0.4L261,75l0.2-0.2l0-0.2l-0.7-0.2l-0.2-0.3l-0.6,0l-0.1-0.3l-0.2-0.2l-0.2,0.3c-0.1,0-0.2,0.1-0.2,0.1
		l-0.1-0.3l-0.3,0l-0.3-0.5l-0.1-0.4c-0.3,0-0.5,0-0.6-0.1c0-0.1,0-0.2,0.1-0.3c0.1-0.1,0.1-0.1,0.1-0.2c0-0.1,0-0.1,0-0.1l-0.7-0.3
		l-0.3-0.7l-0.5-0.2l-0.1-0.8c0-0.3-0.1-0.5-0.1-0.5l-0.4,0.2l0-0.7c0-0.3-0.1-0.5-0.1-0.6l-0.2,0.1l-0.2,0.2
		c-0.2-0.1-0.3-0.2-0.4-0.3l-0.3-0.5l-0.3-0.2l0-0.4l0.3-0.2l-0.1-0.7l0.3,0l0-0.5l-0.2-1l0.2-0.3l0-0.8c0-0.2-0.1-0.4-0.3-0.8
		l-0.3-0.8l-0.2-0.3l0.3,0l0.8-0.3l-0.2-0.3l-0.1-0.3l0.4-1l0-0.4l0.3-0.1l-0.4-0.6l0.6-0.4l0.4-0.5c0.1-0.2,0.2-0.4,0.3-0.5
		l0.2-0.4c0.1-0.2,0.1-0.3,0.2-0.3l0.6,0.2c0.3,0.1,0.5,0.1,0.6-0.1l-0.1-0.5l0.2-0.3l-0.2,0l-0.1-0.2c0.2-0.2,0.4-0.3,0.5-0.3
		c0.2,0,0.3,0,0.4,0c0.1,0,0.1,0,0.2-0.1l0-0.2l-0.2-0.1l0.2-0.4l0.2-0.6l0.1-0.3l0.2,0.1l0.1,0.3l-0.3,0.4c0.1,0.1,0.3,0.1,0.4,0.1
		l0.3,0l0.1,0.5c0.1,0,0.2,0,0.3-0.1c-0.1-0.3-0.1-0.5-0.1-0.6l0.2-0.2l0.2-0.3l-0.3-0.8l1.1-0.7l-0.2-0.4c-0.1-0.3-0.1-0.5,0-0.6
		c0.3,0,0.5-0.1,0.5-0.1l0-0.2l-0.1-0.1c0.1-0.4,0.2-0.7,0.3-0.9c0.1,0,0.2,0,0.3,0.1c0.1,0,0.2,0,0.3,0l0.3-0.7
		c0.5-0.1,0.8-0.2,0.9-0.3l0.1-0.5c0.5-0.1,0.8-0.3,0.9-0.4c0,0.1,0.1,0.1,0.3,0.2l0.2-0.6l0.3-0.1c0.2,0,0.4-0.1,0.4-0.1
		c0-0.2,0-0.3,0.1-0.4l0.4,0l0.2-0.3l0.7-0.2c0.1,0,0.2,0.1,0.5,0.1l0.2-0.2l0.4,0l0.3-0.6l0.5,0.2l0.3-0.1l0.3,0.3l0.2,0.4l0.2,0.3
		l0.1,0.1l-0.2,0.6l0,0.5c0,0.1,0,0.1,0.1,0.2c0.1,0,0.1,0.1,0.1,0.1l0.3-0.1l0.3-0.1l-0.3-0.3l0.4-0.3L271,47l-0.1-0.8
		c0-0.2,0.1-0.4,0.2-0.4l0.1,0.2l0.1,0.3l0.4,0.1c-0.2,0-0.4,0.1-0.4,0.1c0,0.1,0,0.2,0.1,0.2l0.4,0.2l0.3-0.2l0.1,0.3l0.1,0.4
		c0.2-0.1,0.3-0.2,0.3-0.3l0-0.6l-0.4-0.3c0-0.1-0.1-0.1-0.1-0.2c0-0.1,0-0.1-0.1-0.2c0.1-0.1,0.3-0.1,0.6,0
		c0.3,0.1,0.6,0.2,0.7,0.3l0.1,0.3c0.1,0.1,0.1,0.2,0.2,0.2l0.3,0c0.2,0,0.3-0.1,0.3-0.1l0.2,0.2l0.2-0.2l0.1-0.2
		c0.1,0.1,0.2,0.2,0.3,0.3c0,0.1,0.1,0.1,0.1,0.2c0,0,0.1,0.1,0.1,0.1l1.2-0.1l0.1,0.2l0.3,0l-0.4,0.3c-0.1,0.1-0.1,0.2,0,0.4
		c0.1,0,0.2,0,0.2-0.1l0.2-0.2c0.2,0.1,0.4,0.2,0.5,0.2l0.5,0.4c0.1,0.1,0.3,0.1,0.5,0.1l0.4-0.3l0.3,0.2l0.2,0l0.3,0l0.2,0.3
		l0.3-0.2l0-0.2l-0.1-0.2l-0.2-0.1l0-0.4l-0.4-0.1l-0.1-0.2c0.1-0.1,0.2-0.2,0.3-0.2c0-0.2,0-0.4,0.1-0.5l0.4-0.1L280,46l0.1-0.3
		c0.2,0,0.3,0.1,0.3,0.2c0,0.1,0,0.1,0,0.2c0,0,0,0.1,0.1,0.1l0.3-0.5l0.5-0.6l0.3-0.2c0,0.3,0,0.5-0.1,0.6c0.1,0,0.2,0,0.3-0.1
		l0.4-0.2l0.4,0.3l0.8,0.5l1.1,0.4c0,0.1,0,0.1,0,0.2c0,0.1,0,0.1,0.1,0.1l0.8,0.5c0.1,0.1,0.2,0.3,0.2,0.6c0,0.3,0.1,0.5,0.1,0.5
		l0.3-0.1l0.1,0.1l0.5,0.4l0,0.5l0.4,0.4l0.3,0.3l0,0.7l0.3,0.6c0.1,0.2,0.1,0.4,0,0.5c-0.1,0.1-0.2,0.1-0.4-0.1l-0.3-0.2l-0.3,0.2
		l-0.4-0.2l-0.3,0.2l-0.5-0.4c-0.2,0.1-0.3,0.2-0.5,0.3c-0.1,0.1-0.3,0.2-0.4,0.3c-0.4,0.1-0.6,0.2-0.8,0.3
		c-0.2,0.1-0.2,0.3-0.2,0.5l0,0.6l-0.6,0.7l0.1,0.2l0.1,0.1c0,0.2-0.2,0.4-0.6,0.6l-0.9,0.2l-0.1-0.1l0.1-0.2c0-0.1,0-0.2-0.1-0.2
		l-0.3-0.2l0-0.4l-0.5-0.2l-0.5-0.3c-0.1-0.4-0.2-0.6-0.4-0.7c-0.1-0.1-0.2-0.3-0.1-0.6s0-0.5-0.1-0.6c-0.2,0-0.3,0.1-0.3,0.2
		l-0.2,0.5c-0.2-0.1-0.3-0.3-0.4-0.5l0-0.4c-0.1,0-0.2,0-0.2,0c0,0.1-0.1,0.1-0.1,0.1l-0.1,0c0.1-0.3,0.1-0.5,0-0.6l-0.1,0.1
		l-0.4-0.4l-0.3,0.2c-0.1-0.1-0.2-0.1-0.2-0.2l-0.1-0.2l-0.6,0.2l-0.4-0.4l-0.5-0.2l-0.2,0.1l-0.8,0.1c-0.2,0-0.4-0.1-0.6-0.3
		l-0.3-0.5l-0.2,0.2c0,0-0.1,0.1-0.3,0.1l-0.1-0.2l0-0.4c-0.1-0.2-0.2-0.3-0.3-0.4c-0.1,0.1-0.2,0.1-0.2,0.2
		c-0.3,0.2-0.4,0.4-0.5,0.5c-0.3,0.4-0.6,0.6-0.8,0.7l-0.3-0.3l-0.9,0.2l-0.7,0.3l-0.8,0.4l-0.3,0l-0.3,0l-0.7,0.7l-0.6,0.2
		l-1.1,1.1l-0.6,0.7l-0.8,0.5l-0.4,0.1l-0.1,0.5l0,0.5l-0.7,0.6l0.1,0.3l-0.2,0.4l0.2,0.1l0.8,0.1l0.6-0.2c0.2,0.1,0.5,0.1,0.8,0
		l0.7-0.2l0.6,0.2l0.9-0.2l1-0.2l1.1,0l1-0.1l0.9,0.1l0.9,0.1l0.2,0l0.1-0.2l0.6,0.2l0.6,0l1-0.1c0.4,0,0.8,0,1.2-0.1
		c0.5,0.1,0.8,0.1,1,0.1l2.6,0.2l0.2-0.1l0.6,0l0.5,0.1l0.2-0.3l0.2-0.1l0.2,0.2l0.3,0.1l0.7,0.2l0.2,0.2l0.2-0.2l1,0.3
		c0.5,0.2,0.9,0.2,1.1,0.1l0.3-0.3l0.1-0.1l0.6,0.1l0.4,0.1l0.3-0.2l0.4,0.1l0.5,0c0.6,0,1.1,0.1,1.5,0.3l0.5,0.2l0.1,0.4l0,0.4
		l0.2,0.1c0,0.2-0.1,0.3-0.1,0.3l-0.3,0.6l0.1,0.1l0.3,0.5l-0.1,0.7l-0.1,0.2c-0.1,0.1-0.2,0.2-0.3,0.3c-0.1,0.1-0.2,0.1-0.3,0.2
		c-0.2-0.1-0.3-0.2-0.3-0.3c-0.1-0.1-0.1-0.2-0.2-0.2l-1.9,0.2l-0.2-0.2l-0.3-0.2c-0.1,0.1-0.1,0.3,0.1,0.5c0.2,0.1,0.2,0.2,0.2,0.3
		c-0.1,0-0.2,0-0.2,0c-0.1,0-0.2,0-0.2,0l-0.4,0.7l-0.3,0L286,62l-0.2-0.1l-0.2,0.6c0,0.3-0.1,0.4-0.2,0.5l-0.7,0.1l-0.6,0l-0.8,0.2
		l-0.7-0.2l-1.3,0.1l-0.4-0.3l-0.4,0l-0.1-0.2l-0.5,0.1l-0.8-0.2l-0.4,0.3c-0.1,0.1-0.3,0.2-0.5,0.2c-0.2,0-0.4,0-0.5-0.1l-0.8-0.2
		l-0.8,0.1l-0.7-0.3l-1.3,0l-0.7,0.3l-0.4-0.2l-0.3-0.1l-1.1,0.2l-0.4,0.3l-0.4-0.3l-0.5-0.1l-0.9,0.2l-0.6-0.1l-0.7-0.1l-1.1,0.2
		l-0.2,0.1l-0.4,0l-0.3-0.3c-0.1,0.1-0.2,0.2-0.2,0.3c0,0.1-0.1,0.1-0.1,0.2c0,0.1-0.1,0.1-0.1,0.1l-0.6-0.3l-1.4-0.1l-0.9,0.1
		l-0.4,0.3l-0.5,0c-0.2,0-0.3,0.1-0.3,0.1c-0.2,0.2-0.3,0.4-0.3,0.7l0.5,1.1c0.3,0.9,0.8,1.8,1.5,2.6l1,1.1c0.2,0.2,0.8,0.6,1.6,1
		l1.6,0.8l0.6,0.2c1,0.5,2.2,1,3.4,1.4c0.6,0.2,1.2,0.3,1.8,0.4c0.6,0.1,1.2,0.2,1.8,0.3l2.8,0.4l1.9,0l2.8-0.1l2.9-0.1l1.2-0.2
		l1.3-0.2l0.6-0.1c0.2,0.1,0.4,0.1,0.6,0l0.7-0.4l0.5,0l1.2-0.4l0.9-0.6l0.5-0.1l0.5-0.1C293.8,71.5,293.9,71.5,294.1,71.6
		C294,71.6,294,71.6,294.1,71.6z M254.5,65c0,0.1,0,0.1,0,0.2l-0.2,0.1c0-0.1-0.1-0.1-0.1-0.2C254.2,65.1,254.3,65.1,254.5,65z
		 M255.8,60.4c0.2,0,0.2,0.1,0.2,0.3l-0.2,0.1l-0.2-0.3L255.8,60.4z M257.3,67.5l0,0.3l-0.2,0.1c0-0.1-0.1-0.2-0.1-0.3L257.3,67.5z
		 M257.4,55.5l-0.1,0.3l0-0.2L257.4,55.5z M260,53.3l0,0.2l-0.1,0.1l-0.1-0.2L260,53.3z M261.2,72.7l-0.2,0.2
		c-0.1,0.2-0.1,0.4,0,0.6l0.2-0.1C261.3,73.1,261.3,72.9,261.2,72.7z M261.9,72.5c-0.1,0.1-0.2,0.2-0.3,0.3c-0.1,0.1-0.1,0.2,0,0.3
		l0.3-0.2c0-0.1,0-0.2,0-0.2C261.9,72.6,261.9,72.5,261.9,72.5z M262.1,74.1l-0.3-0.2l0,0.2L262.1,74.1z M266.9,48.5l-0.2,0
		l-0.1,0.2l-0.2-0.1c-0.1,0.1-0.2,0.2-0.2,0.3l0,0.4c0.2,0.3,0.4,0.2,0.6-0.1C267,48.9,267,48.7,266.9,48.5z M267.2,76.9
		c0,0.2,0.1,0.3,0,0.4l-0.3,0.2c-0.1-0.1-0.1-0.2,0-0.4C266.9,77.1,267,77,267.2,76.9z M267.5,48.8l0.1,0.3l-0.2,0.1L267.5,48.8z
		 M268.4,48.1c0,0.1,0,0.2,0,0.2l-0.2,0l0-0.2C268.3,48.1,268.4,48.1,268.4,48.1z M268.6,77c0,0,0.1,0.1,0.1,0.3
		c-0.1,0.1-0.2,0.1-0.3,0c0,0-0.1-0.1-0.1-0.3C268.5,76.9,268.6,76.9,268.6,77z M268.6,49c0-0.1-0.1-0.1-0.1-0.2
		C268.6,48.9,268.6,49,268.6,49z M269.8,47.9l0,0.3l-0.2,0.1l0,0.2c0.2-0.1,0.3-0.1,0.3-0.2C269.9,48.1,269.8,48,269.8,47.9z
		 M270.1,78l0.1,0.3l-0.1,0.2l-0.1-0.3L270.1,78z M270.2,46l-0.2,0.2l0-0.2L270.2,46z M271.1,78.2l0,0.2l-0.3,0.2l0-0.2L271.1,78.2z
		 M273.8,76.6l0,0.3l0.1-0.1L273.8,76.6z M274.2,48.7l0.1,0.4l-0.1,0.4l0-0.3L274.2,48.7z M275.5,48.4l-0.3-0.2l-0.1-0.1l-0.1,0.5
		l-0.3,0.9l0,0.5c0.1,0,0.2,0,0.2-0.1l0-0.4l0.3-0.5c0.1-0.1,0.1-0.1,0.1-0.2C275.4,48.6,275.5,48.5,275.5,48.4z M275.3,47.4
		l0.2,0.2c0.1,0.2,0,0.3-0.2,0.3c-0.1-0.1-0.2-0.1-0.2-0.2C275.1,47.5,275.2,47.4,275.3,47.4z M275.4,78.4l0,0.2l-0.2,0l0-0.2
		L275.4,78.4z M276.2,46l0.1,0.2l-0.5,0.2l-0.2,0.2l0.1-0.4c0.1-0.1,0.2-0.1,0.3-0.2C276.1,46,276.2,46,276.2,46z M277.2,46.3
		l-0.1,0.2c-0.3,0.2-0.5,0.3-0.6,0.2l0.2-0.3C276.9,46.2,277.1,46.2,277.2,46.3z M277.7,45.8l-0.2,0.3l-0.1,0.5l0-0.5L277.7,45.8z
		 M278.3,45.7c0,0.2,0,0.3,0,0.3c-0.1,0-0.2,0-0.2,0c-0.1-0.1-0.1-0.2,0-0.2C278.1,45.6,278.2,45.6,278.3,45.7z M279.1,46.7l0.1,0.1
		L279,47L279.1,46.7z M280.5,77.2l-0.5-0.1c-0.3,0-0.4,0.1-0.5,0.3c0.1,0.2,0.3,0.3,0.4,0.3l0.2-0.4L280.5,77.2z M279.9,44.7l0,0.2
		l-0.2,0L279.9,44.7z M280.8,47.7l-0.2,0.5l0-0.3L280.8,47.7z M281.4,46.8l-0.2,0.1l-0.2-0.2L281.4,46.8z M282.8,47.4l-0.4,0.3
		l0.4,0.6l0.1-0.3L282.8,47.4z M283.8,61.7l-0.1-0.2l-0.4,0.2c-0.1,0-0.1,0.1-0.2,0.2l0.2,0.1l0.4,0C283.8,62,283.8,61.9,283.8,61.7
		z M285,48.5c0.1,0.1,0.1,0.2,0,0.3l-0.3,0.3l0.1-0.7L285,48.5z M287.2,44.6l-0.1,0.3l-0.2,0.1l-0.2,0.8c-0.1,0.2-0.2,0.3-0.4,0.3
		l-0.7-0.3l-0.2-0.2l-0.1-0.2l-0.4-0.3l0.3-1.1c0.2,0,0.4-0.1,0.4-0.1l0.4-0.3c0.2,0.1,0.3,0.3,0.3,0.4c0.1,0.2,0.2,0.3,0.3,0.4
		L287.2,44.6z M287.6,76.3c0-0.1,0-0.2,0-0.3c0,0.1,0,0.1,0,0.2C287.7,76.2,287.6,76.2,287.6,76.3z M294.5,71.5l0,0.2l-0.2,0l0-0.2
		L294.5,71.5z"/>
</g>
<g class="st0">
	<path class="st1" d="M306.6,65.8l-0.4,0.6l0,0.4c-0.1,0.2-0.1,0.3-0.2,0.4l-0.1,0.2c0,0.1,0.1,0.2,0.1,0.3c0,0.1,0,0.2,0,0.2
		l-0.2-0.1c0,0-0.1,0-0.3,0l0.2,0.2l0,0.4l-0.8,0.7c0,0.1,0,0.1,0,0.2c0,0.1-0.1,0.1-0.1,0.1c-0.2-0.1-0.3-0.2-0.4-0.4
		c-0.1,0.1-0.2,0.1-0.2,0.2l-0.1,0.3l-0.4-0.1l-0.3-0.1l-0.3,0.9l-0.3,0.3l-0.2,0.3c0,0-0.1,0-0.3,0l-0.3,0.5l-0.2,0l0,0.3l-0.4,0.1
		l-0.6,0.6l-0.7,1.2c-0.3,0-0.4,0.1-0.6,0.3c-0.1,0.1-0.2,0.4-0.2,0.9c-0.1,0-0.3,0-0.4-0.1l-0.2,0.2l-0.7,0
		c-0.2,0.1-0.3,0.2-0.3,0.3l-0.2,0.4c-0.1-0.1-0.2-0.2-0.3-0.2c-0.1,0-0.2-0.1-0.2-0.1l-0.4,0.4l-0.7-0.1l-0.3,0.4
		c-0.2,0-0.5-0.2-0.7-0.5l-0.3-0.5c-0.2,0-0.3,0.1-0.3,0.4c0,0.2,0,0.3,0,0.4c0,0-0.1,0.1-0.1,0.1l-0.7-0.2l-0.2,0.3l-0.3,0.1
		l-0.5-0.7l-0.4,0.2l-0.7,0.4l-0.1,0.3l-0.5,0l-0.5-0.2l-0.6,0.2l-0.9-0.1c-0.5,0-0.8,0-1-0.2l-0.2-0.4l0-0.5l-0.1-0.3l0.3,0.2
		c0.1,0.1,0.2,0.1,0.4,0.2l0-0.7l-0.2-0.2l-0.2-0.3l0.3-0.5l-0.1-0.7l0.6-0.1l0.1-0.2c0.4,0.1,0.6,0,0.6-0.1
		c-0.1-0.2-0.2-0.4-0.3-0.4l-0.6-0.3l-0.4-0.1l-0.1-0.2l0.4-0.2l0-0.2l0.1-0.4l0.5,0.1l0.4-0.3c0-0.1,0-0.2-0.1-0.2l-0.2-0.2l0.3,0
		c0.1-0.1,0.1-0.3,0.1-0.6l-0.1-0.7l0.2-0.6l0.4-0.7c0.2,0.1,0.4,0,0.5-0.1l1-0.6c0.4-0.2,0.8-0.3,1.1-0.4c0.4,0,0.8,0.2,1.1,0.5
		c0,0.2,0,0.4-0.1,0.5l-0.2,0.6l0.3,0.4l-0.4,0.5c-0.2,0.2-0.3,0.4-0.4,0.6c0.1,0.2,0.2,0.3,0.3,0.3c0.3,0,0.6,0,0.7-0.1l0.6-0.2
		l0.9,0.3c0.1-0.1,0.2-0.2,0.4-0.2l1.1,0l1.2,0l1.3-0.2l0.9-0.3l0.3-0.6c0.1,0,0.1,0,0.2-0.1c0,0,0.1-0.1,0.1-0.1l-0.1-0.4l-1-1
		l-0.6-0.8l-0.6-0.3l-0.4-0.5l-0.3-0.7l0.2-0.5l-0.4-0.3c-0.2,0-0.3-0.1-0.3-0.3c0-0.2,0-0.4-0.1-0.5c-0.1-0.1-0.3-0.2-0.5-0.1
		l-0.7,0.1l-0.2-0.2l-0.2-0.2c-0.2,0-0.4,0.1-0.4,0.1c-0.2,0-0.3-0.1-0.3-0.1l-1.5-1.4l-0.8-0.4l-0.3-0.4l-0.3,0l-0.8-0.4l-0.5-0.3
		l-0.3-0.6c0-0.2,0-0.3-0.1-0.4c0,0-0.1,0-0.1,0l-0.5,0l-0.8-0.5l-0.9-0.6l-1-0.3l-1-1l-1.2-0.6l-0.7-0.6l-1.4-0.7l-0.3-0.5
		c-0.6-0.1-1-0.3-1.2-0.4c-0.4-0.2-0.7-0.5-0.8-0.8c-0.1-0.4-0.3-0.6-0.5-0.7l-1.3-1l-1-1l-0.5-0.8l-0.1-0.4l-0.4,0
		c0-0.1,0-0.2,0-0.3c0-0.1,0-0.2,0-0.2l-0.2-0.6l-0.2-0.5l-0.3,0.1c-0.2-0.1-0.2-0.2-0.1-0.4l0.4,0l0.3-0.2l0.4,0.1l0.2-0.1l0.3-0.3
		l0.4-0.1l0.2,0.2l0.7-0.2l0.7-0.2l0.8,0.1l0.7-0.2l0.7,0.1l0.4-0.3c0.2-0.1,0.4-0.2,0.8-0.2l0.8,0.1c0,0.1,0,0.2,0,0.2s0,0.2,0,0.2
		l0.2,0l0.5-0.2l0-0.7c0-0.2,0.1-0.3,0.3-0.4l0.1,0.2l-0.2,0.7l0.2,0c0.2-0.1,0.4-0.1,0.7,0l0.7,0.2c0.2,0,0.2-0.1,0.2-0.3l-0.3-0.4
		l0.4-0.3l0-0.3l0.4-0.1l0.4-0.2l0.2,0.1l-0.3,0.2c0,0.1,0,0.2,0,0.3c0.1-0.1,0.2-0.2,0.4-0.3l0.1,0.2l0.4-0.4l0.5,0l-0.1-0.2l0-0.4
		l0-0.7c0.3,0,0.5-0.1,0.6-0.1l0-0.2l0.1-0.1c0.1,0.1,0,0.3-0.2,0.5c-0.2,0.1-0.3,0.2-0.3,0.4l0.6,0.1l0-0.2l0.2-0.1l0.3,0.6
		c0.1,0.1,0.2,0.1,0.3,0c0-0.2-0.1-0.3-0.2-0.3l-0.2-0.3c0.1-0.2,0.2-0.3,0.4-0.3c0.2,0,0.4,0.1,0.6,0.2l0.1-0.1l-0.1,0.2l-0.3,0
		c0,0.3,0,0.5-0.1,0.6l-0.3,0.3c0,0,0,0.1,0,0.3c0.2,0,0.3-0.1,0.4-0.2l0.3,0l0.2-0.4c0.2,0,0.4-0.1,0.5-0.1l0.3-0.2l0-0.2
		c0.2,0.1,0.3,0.2,0.3,0.3l0.1,0.4l0.2,0.1l-0.2,0l-0.1,0.3c0.1,0.1,0.2,0.2,0.3,0.2l0.3,0l-0.1,0.5l0.2,0l0.2,0.2
		c0.2-0.1,0.3-0.2,0.3-0.3c0.1-0.1,0.2-0.2,0.4-0.2l0.5,0.4l0.4-0.1l0.1,0.3l0.3-0.2l0.3,0l0-0.2l0-0.3l0.3,0.1c0,0,0.1,0,0.3,0
		l0.3-0.4c0.1-0.2,0-0.4-0.1-0.5l-0.2-0.1c0,0,0-0.1,0-0.1l0-0.1l-0.4,0l-0.1,0.2c0-0.2,0.1-0.5,0.2-0.7c0.1-0.2,0.2-0.4,0.3-0.4
		l0.4,0.2l0.5-0.1l0.1,0.6c0,0.3,0.2,0.4,0.6,0.3c0.1-0.1,0.2-0.2,0.2-0.3l0-0.3l0.3-0.1l0-0.3l0.4,0.2c0.4,0,0.8,0,1,0l0.5,0.4
		l0.5,0l0.4,0.2l0.3,0.2l0.2-0.1c0,0,0.1-0.1,0.3-0.1c0.3,0,0.5,0.1,0.8,0.5l0.8,0.7l0.9,0.5c0.3,0.2,0.5,0.5,0.6,0.8l0.1,1.7
		c-0.1,0.2-0.2,0.3-0.3,0.3l-0.4,0.1l-0.1,0.3l-0.5-0.4l-0.5,0.6l-0.2-0.3l-0.3-0.4L302,48l-0.6-0.4c-0.3,0.1-0.5,0.2-0.7,0.3
		l-0.5,0.3l-0.2,0.6l0,0.6l0.2,0.2l-0.2,0.4l0.2,0.1l-0.3,0.5l0.3,0.1l0.3,0.2l0.2-0.2l0.2,0.3l-0.4,0.3l-0.4,0.1
		c0-0.2-0.1-0.3-0.1-0.4c0,0-0.1-0.1-0.1-0.1l-0.5,0.2c-0.1-0.1-0.1-0.1-0.2-0.1c-0.1,0-0.1,0-0.2,0l-0.2,0.6l0,0.6l-0.1,0.4
		l-0.7-0.1c-0.2-0.1-0.3-0.2-0.4-0.4l0.2-0.6l0.2-0.7c-0.1-0.2-0.3-0.4-0.4-0.5l-0.4-0.4l0-0.4l-0.7-0.2c-0.2,0-0.4,0-0.5,0.2
		l-1-0.4l-0.9-0.4l-0.4,0l-0.9-0.3l-0.2-0.2l-0.4,0.3l-0.4-0.2l-0.5-0.3l-0.8,0.1l-0.4-0.3l-0.4,0l-0.3-0.1l-0.8-0.2
		c-0.2-0.1-0.3-0.1-0.5-0.1s-0.3,0-0.5,0c-0.1,0.1-0.1,0.3,0.2,0.6c0.3,0.2,0.5,0.4,0.7,0.4l1.7,0.8l1.1,0.6l0.3,0.4l1.1,0.5
		l0.6,0.3l0.8,0.7l1.7,0.9c0.3,0.4,0.6,0.6,0.8,0.7l2.3,1.4l0.8,0.7l1.5,1.1l1,0.6l0.5,0.6l0.4,0.5c0.2,0.1,0.3,0.2,0.5,0.3
		c0.2,0.1,0.3,0.3,0.5,0.4c0.3,0.3,0.5,0.6,0.7,1c-0.1,0.2-0.2,0.3-0.3,0.4c-0.1,0.1-0.1,0.2-0.1,0.4l0.7-0.3
		c0.1,0.1,0.2,0.2,0.2,0.3l0.1,0.3l0.2,0l0.1,0.8l0.1,1.2c0,0.2,0.1,0.3,0.1,0.3l0.3,0.2l0.1,1.3L306.6,65.8z M283.6,50.7l-0.1,0.3
		l-0.2-0.2L283.6,50.7z M287.3,53.6c-0.1-0.2-0.2-0.4-0.3-0.4l-0.2-0.3l0-0.2l0.2-0.1l-0.3-0.3l0-0.6l-0.1-0.4l-0.5-0.4l0.1-0.3
		l-0.1-0.2c-0.2,0.1-0.3,0.2-0.3,0.3l-0.2,0.1l-0.4-0.1l-0.2-0.3c-0.1-0.1-0.2-0.1-0.5-0.2l-0.4,0.3l-0.1-0.2l-0.2-0.2l-0.1,0.2
		c0,0.4,0.1,0.6,0.2,0.8l0.6-0.1c0.1,0,0.2,0,0.2,0c0.1,0,0.1,0.1,0.1,0.1l0,0.9l0.7,0.1l-0.1,0.3c-0.1,0.1-0.1,0.2,0.1,0.3l0.3-0.1
		c0.1,0,0.1-0.1,0.2-0.1c0.1,0,0.1,0,0.1,0c0.1,0.1,0.1,0.2,0.1,0.5c0,0.3,0,0.5-0.1,0.6c0,0.1,0.1,0.1,0.1,0.2
		c0,0.1,0.1,0.2,0.2,0.3L287.3,53.6z M285.9,49.6c0,0.1,0,0.1,0,0.2C285.8,49.7,285.8,49.6,285.9,49.6z M288.9,53.6l-0.4-0.7
		l0.3-0.2l-0.2-0.1l0-0.3c-0.1-0.1-0.2-0.2-0.3-0.2l-0.4,0.6l-0.2,0.1l-0.4-0.2l0.2,0.3l0.6,0.1l0.1,0.4L288.9,53.6z M290.7,44.5
		l-0.3,0.2l-0.2,0l-0.1-0.1l0.1-0.1c-0.1-0.1-0.1-0.2-0.2-0.2l-0.4-0.1l-0.1-0.2c-0.1,0.1-0.2,0.3-0.2,0.4c0,0.1,0,0.2,0,0.2
		c0,0.1-0.1,0.1-0.1,0.1l-0.4-0.2c0,0-0.1,0.1-0.3,0.1l-0.2-0.1l0,0.4l-0.3,0.7c0,0.2,0.1,0.3,0.3,0.3l0.6-0.3l0.5-0.1l0.3-0.4
		l0.5,0.2l0.3,0L290.7,44.5z M289.8,45.8l0.1,0.2l-0.2,0.3l0-0.4C289.6,45.9,289.7,45.8,289.8,45.8z M290.2,54.1l-0.3,0
		c-0.2,0-0.3,0.1-0.3,0.1l0,0.2l0.3,0l-0.1,0.3c0.2,0,0.3-0.1,0.3-0.2s0.1-0.1,0.1-0.2C290.2,54.2,290.2,54.1,290.2,54.1z
		 M290.8,69.3l-0.4,0.1l-0.1,0.1l0.4,0l0,0.5l0.2-0.3C291,69.5,291,69.4,290.8,69.3z M293.6,44l-0.2-0.2l0.1-0.3
		c0.1,0.1,0.2,0.2,0.2,0.3L293.6,44z M294.3,56.8c-0.1-0.1-0.2-0.1-0.5-0.1c-0.2,0-0.3,0.1-0.3,0.3c0.1,0.2,0.2,0.4,0.3,0.4l0.4,0.2
		c0.2-0.2,0.2-0.3,0.2-0.5L294.3,56.8z M294.8,44.1l0,0.4l0,0.4l-0.7-0.7c-0.1-0.1-0.1-0.3-0.1-0.6l0.2-0.1c0,0.3,0.1,0.5,0.3,0.6
		L294.8,44.1z M295.9,57.9c0.1-0.1,0-0.2-0.2-0.3l-0.6-0.3l-0.1-0.1l-0.3,0.2l0,0.6l-0.3,0.1l0.2,0.5l0.7-0.5L295.9,57.9z
		 M295.5,57.1l0.1-0.1l0.1,0.2L295.5,57.1z M296,61.7l-0.1,0.2l0,0.2L296,61.7z M297,62l-0.6-0.3l-0.2,0.2c0.2,0,0.4,0,0.4,0.1
		l0.2,0.3c0.1,0,0.2,0,0.2,0C297.1,62.1,297.1,62,297,62z M297.1,74.6l0.2-0.1c0-0.2-0.1-0.3-0.3-0.3l-0.1,0.1c0,0,0,0.1,0,0.1
		l0,0.1L297.1,74.6z M297.7,45.9l0,0.3l-0.3,0.3c0-0.2,0-0.3,0-0.3C297.4,46.1,297.5,46,297.7,45.9z M298.6,74.2l0.2,0.2l-0.2,0.1
		c-0.1-0.1-0.2-0.2-0.2-0.2L298.6,74.2z M300.8,49.2l-0.3-0.6l0-0.3l0.3,0.5L300.8,49.2z M301.1,51.1l-0.2,0.1l0-0.2L301.1,51.1z
		 M301.8,48l-0.2,0.2l0,0.4c-0.1,0.1-0.2,0.2-0.2,0.2c-0.2-0.1-0.2-0.2,0-0.5C301.5,48,301.7,47.9,301.8,48z M301.5,71.2l-0.2,0
		l0-0.3l0.2,0.2C301.6,71.2,301.5,71.2,301.5,71.2z M306.9,64.7c0,0.1,0,0.2,0,0.2l-0.2,0.1l0-0.2C306.8,64.7,306.9,64.7,306.9,64.7
		z"/>
</g>
<g>
	<path class="st2" d="M241.8,86.4c-0.9,0-1.6,0.3-2.5,0.3s-2.7,0.9-3.6,0.6s-3.8,0.3-5.8,0.6s-1.3,0.9-1.6,0.6
		c-2.5-1.5-4.7-0.3-7.2,0.3s-6,1.2-9.2,1.5s-4-0.3-5.8,0s-3.1,1.2-4.7,1.5c-5.8,0.9-11.6,1.5-17.2,2.1l-6.5,0.6
		c-5.6,0.6-11.2,1.5-16.6,2.1c-2,0.3-4.7-0.9-6,0.6s-3.1,0.3-4.5,0.9s-5.1-0.3-7.6,0.3c-0.7,0.2-1.3,0.2-2,0c-3.4,0-6.7-0.3-9.8-0.3
		c-2.9,0.2-5.8,0.5-8.7,0.9c-2,0-4-0.3-6-0.3c-4.3,0.3-8.5,0.9-12.8,0.9s-6.5-0.3-9.6-0.6c-13.2-0.6-26.4-1.2-39.6-3
		c-8.7-1.2-17.7-1.5-26.2-4.2c-6-1.8-11.4-4.5-16.1-10c-1.1-1.2-1.1-2.1-0.7-3.6c1.9-4.8,5.2-8.9,9.5-11.8c6-4.5,12.3-7.9,18.6-11.8
		c2.1-1.4,4.3-2.6,6.7-3.6l14.1-6.4c6.7-3,13.4-6.1,20.4-8.5s14.5-4.5,21.9-6.7c3.4-0.9,6.7-2.1,10.1-2.7l22.8-4.5
		c6.5-1.2,13.2-2.4,19.7-3.3c6.5-0.9,13-1.2,19.5-1.8c8.1-0.6,16.1-1.5,24.2-1.8c13.6-0.6,27.3-0.9,40.9-1.2
		c0.9,0.1,1.8-0.1,2.5-0.6c0.7-0.5,1.2-1.2,1.3-2.1c0-2.1-0.2-4.3-0.4-6.4c-0.4-2.7-1.8-4.2-4-4.2l-15.7-0.3
		C212.4,1.1,201.2,2,190,2.9c-9,0.2-18,0.9-26.9,2.1c-9,1.2-17.7,3-26.4,4.5c-5.6,0.9-11.2,1.8-16.6,3c-11.6,2.7-23.3,5.4-34.9,9.1
		c-15.8,5.2-31.1,11.6-45.9,19.1c-8.7,4.5-17.4,9-25.7,15.1C9.3,58.9,5.7,63,3.1,67.6c-2.5,4.3-3.4,9.3-2.7,14.2
		c1.3,8.2,5.1,13,10.3,16.6c10.1,7,21.3,9.4,32.2,11.5c6.7,1.5,13.6,1.5,20.4,2.1s13.2,1.2,19.9,1.5c3.1,0.3,6.5-0.3,9.6-0.3
		c8.7-0.3,17.5-0.3,26.4-0.6s16.3-0.9,24.4-1.5s15.9-1.2,23.7-2.1l23.7-2.7c6.9-0.9,13.9-1.5,20.6-2.4c2-0.3,4-1.2,6-1.5
		c6-0.9,12.3-1.2,18.3-2.4c10.3-1.5,20.6-3.6,30.9-3.9c1.7,0,3.3-0.3,4.9-0.9c6-1.5,12.1-3.6,18.1-4.2c13.2-1.5,26.2-5.1,39.2-7.9
		c4.7-0.9,9.2-2.4,13.9-3.6c0.5-0.1,0.9-0.3,1.3-0.6c2.2-0.9,4.5-2.1,6.7-3c4-1.5,8.1-3.3,12.1-4.5c2.5-0.9,5.1-1.5,6.9-3.9
		s2.7-3.3,2.9-5.1c0.9-5.8,0.7-11.8-3.4-15.7c-0.4-0.4-0.8-0.9-1.1-1.5c-2.2-2.4-4.7-4.5-7.8-4.2c-1.8,0.3-3.7,0-5.4-0.6
		c-2.4-0.7-4.7-1.7-6.9-3c-1.1-0.6-1.8-1.8-3.1-1.8c-1.2,0.2-2.4,0.2-3.6,0c-3.4-0.6-7.2,0-10.3-2.4c-1.1-0.9-2.7-0.6-4-0.9
		s-3.1-0.3-4.7-0.6c-5.1-0.6-10.1-1.2-15.2-1.5c-6.9-0.3-13.9-0.6-20.8-0.6c-11.4,0-22.6-0.3-34,0s-24.4,1.2-36.5,4.2
		c-2,0.6-4.3,0.6-6.3,1.2s-2.7,0.9-2.5,3.3s3.4,5.8,4.9,5.4c5.4-0.6,10.7-0.9,16.1-1.5c3-0.3,6-0.3,9,0c4.7,0.3,9.4,0.9,14.1,1.2
		v-1.2h-7.8v-0.6H255c14.3,0,28.6-0.3,43-0.3c4,0,8.1,0.3,12.1,2.4c0.5,0.3,1,0.4,1.6,0.3c6.5,0.9,13,2.1,19.7,2.7
		c4.7,0.6,9.2,3.6,14.1,0.9c1.1-0.6,2.7,0.6,3.8,1.2c3.1,1.2,6,2.7,9.2,3.9c0.7,0.1,1.3,0.4,1.8,0.9c0.8,0.6,1.4,1.4,1.6,2.4
		c-0.3,0.9-0.7,1.7-1.3,2.4l-4.3,2.7c-3.1,1.8-6.5,3.6-9.6,5.1c-1.6,0.9-3.4,0.9-5.1,1.5c-8.1,2.4-16.1,4.8-24.2,6.7
		c-4.5,1.2-9,1.5-13.6,2.1c-6.7,0.9-13.2,3-19.9,3.6h-0.4c-4.7,0.6-9.6,0.9-14.3,1.5l-6.5,0.9c-1.8,0.3-3.6,1.2-5.4,1.5
		s-5.4,0-8.1,0.3S243.9,83.9,241.8,86.4z"/>
	<path class="st3" d="M241.8,86.4c2-2.4,4.9-1.5,7.2-1.8s5.4,0,8.1-0.3s3.6-1.2,5.4-1.5l6.5-0.9c4.7-0.6,9.6-0.9,14.3-1.5h0.4
		c6.7-0.6,13.2-2.7,19.9-3.6c4.5-0.6,9.2-0.9,13.6-2.1c8.1-2.1,16.1-4.5,24.2-6.7c1.8-0.6,3.4-0.6,5.1-1.5c3.3-1.5,6.5-3.2,9.6-5.1
		c1.5-0.8,2.9-1.7,4.3-2.7c0.7-0.6,1.6-1.5,1.3-2.4c-0.2-1-0.8-1.8-1.6-2.4c-0.5-0.5-1.1-0.8-1.8-0.9c-3.1-1.2-6-2.7-9.2-3.9
		c-1.3-0.6-2.9-1.8-3.8-1.2c-4.9,2.7-9.4-0.6-14.1-0.9c-6.5-0.6-13-1.8-19.7-2.7c-0.6,0.1-1.1,0-1.6-0.3c-3.8-2.1-8.1-2.4-12.1-2.4
		c-14.3,0-28.6,0.3-43,0.3h-11.2v0.6h7.8v0.9c-4.7-0.3-9.4-0.9-14.1-1.2c-3-0.2-6-0.2-9,0c-5.4,0.3-10.7,0.9-16.1,1.5
		c-1.6,0-4.9-3.3-4.9-5.4c-0.3-1.5,0.7-3,2.2-3.3c0.1,0,0.2,0,0.3,0c2-0.6,4.3-0.6,6.3-1.2c12-2.6,24.2-4,36.5-4.2
		c11.4-0.3,22.6,0,34,0c6.9,0,13.9,0.3,20.8,0.6c5.1,0.3,10.1,0.9,15.2,1.5c1.6,0.3,3.1,0.3,4.7,0.6s2.9,0,4,0.9
		c3.4,2.4,6.9,1.8,10.3,2.4c1.2,0.3,2.4,0.3,3.6,0c1.3-0.3,2,0.9,3.1,1.8c2.2,1.2,4.5,2.3,6.9,3c1.8,0.5,3.6,0.7,5.4,0.6
		c3.1-0.3,5.6,1.8,7.8,4.2c0.4,0.4,0.8,0.9,1.1,1.5c4,4.2,4.3,10,3.4,15.7c-0.2,1.8-1.8,3.6-2.9,5.1s-4.5,3-6.9,3.9L351,75.8
		c-2.2,0.9-4.5,2.1-6.7,3c-0.4,0.3-0.9,0.3-1.3,0.6c-4.7,1.2-9.2,2.7-13.9,3.6c-13,2.7-26,6.4-39.2,7.9c-6,0.6-12.1,2.7-18.1,4.2
		c-1.6,0.4-3.2,0.7-4.9,0.9c-10.3,0.3-20.6,2.4-30.9,3.9c-6,0.9-12.3,1.5-18.3,2.4c-2,0.3-4,1.2-6,1.5c-6.9,0.9-13.6,1.8-20.6,2.4
		s-15.9,2.1-23.7,2.7s-15.9,1.5-23.7,2.1s-16.3,1.2-24.4,1.5s-17.5,0.3-26.4,0.6c-3.1,0-6.5,0.6-9.6,0.3c-6.7-0.3-13.2-0.9-19.9-1.5
		S49.8,111,43,109.8c-11-2.1-22.2-4.5-32.2-11.5c-5.1-3.6-9-8.5-10.3-16.6C-0.6,76.6,0.7,72,3,67.8c2.5-4.6,6.1-8.6,10.4-11.7
		c8.3-6.4,17-10.6,25.7-15.1C53.9,33.4,69.2,27,85,21.9c11.4-3.9,23.3-6.4,34.9-9.1c5.6-1.2,11.2-2.1,16.6-3
		c9-1.8,17.9-3.6,26.6-4.8s17.7-1.8,26.4-2.4c11.2-1,22.4-1.9,33.5-2.5c5.2-0.2,10.5-0.1,15.7,0.3c2.2,0,3.6,1.5,4,4.2
		c0.4,2.1,0.5,4.3,0.4,6.4c0,0.9-0.5,1.7-1.3,2.1c-0.7,0.6-1.6,0.3-2.5,0.6c-13.6,0.3-27.3,0.6-40.9,1.2c-7.6,0.3-15.7,1.2-23.7,2.1
		c-6.5,0.6-13,0.9-19.5,1.8c-6.5,0.9-13.2,2.1-19.7,3.3c-6.5,1.2-15.2,2.7-22.8,4.5c-3.4,0.6-6.7,1.8-10.1,2.7
		c-7.4,2.1-14.5,4.2-21.9,6.7s-13.6,5.4-20.4,8.5c-4.6,2.2-9.3,4-14,6.5l-6.7,3.6C33.3,58.5,27,62.2,21,66.4
		c-4.3,2.9-7.6,7-9.4,11.8c-0.7,1.8-0.4,2.7,0.7,3.6c4.7,5.4,10.3,7.9,16.1,10c8.7,2.7,17.5,3.3,26.2,4.2c13.2,1.5,26.4,2.1,39.6,3
		c3.1,0.3,6.5,0.6,9.6,0.6s8.5-0.9,12.8-0.9c2,0,4,0.3,6,0.3c2.9-0.2,5.8-0.5,8.7-0.9c3.4,0,6.7,0,9.8,0.3c0.7,0.2,1.3,0.2,2,0
		c2.5-0.9,4.9,0.6,7.6-0.3s2.7,0.9,4.5-0.9s4-0.3,6-0.6c5.6-0.6,11.2-1.5,16.6-2.1l6.5-0.6c5.8-0.6,11.6-1.2,17.2-2.1
		c1.6-0.3,3.1-1.2,4.7-1.5s4,0.3,5.8,0s6-1.2,9.2-1.5s4.7-1.8,7.2-0.3c0.4,0.3,1.1-0.6,1.6-0.6s3.6-1.8,5.8-0.6s2.5-0.3,3.6-0.6
		S240.9,86.4,241.8,86.4z"/>
</g>
</svg>
