<?xml version="1.0" encoding="utf-8"?>
<!-- Generator: Adobe Illustrator 19.2.1, SVG Export Plug-In . SVG Version: 6.00 Build 0)  -->
<svg version="1.1" id="Layer_1" xmlns="http://www.w3.org/2000/svg" xmlns:xlink="http://www.w3.org/1999/xlink" x="0px" y="0px"
	 viewBox="0 0 100 100" style="enable-background:new 0 0 100 100;" xml:space="preserve">
<style type="text/css">
	.st0{fill:#98022F;}
	.st1{fill:#FBF5F7;}
	.st2{fill:#A8A8AC;}
</style>
<g>
	<path class="st0" d="M50.2,87.7c-16.4,0-32.9,0-49.3,0c-0.5,0-0.7-0.1-0.7-0.7c0-24.6,0-49.2,0-73.7c0-0.5,0.1-0.6,0.6-0.6
		c32.9,0,65.8,0,98.7,0c0.6,0,0.7,0.2,0.7,0.7c0,24.5,0,49.1,0,73.6c0,0.6-0.1,0.7-0.7,0.7C83.1,87.7,66.6,87.7,50.2,87.7z
		 M59.8,36.2c0.5-0.3,0.9-0.7,1.1-1.2c0.7-1.9-0.5-3.5-2.6-3.6c-1.6-0.1-3.2,0-4.7,0c-0.6,0-0.7,0.2-0.7,0.8c0,2.1,0,4.1,0,6.2
		c0,2.2,0,2.2,2.2,2.2c0.5,0,0.6-0.2,0.6-0.6c0-0.7,0-1.3,0-2c0-0.2-0.1-0.4,0.2-0.5c1.4-0.4,2.3,0.1,2.5,1.6c0,0.1,0,0.3,0,0.4
		c0.1,1.2,0.1,1.2,1.3,1.2c0.5,0,1.1,0.2,1.5-0.1c0.4-0.3,0-1,0-1.5C61,37.9,60.8,36.9,59.8,36.2z M86.9,35.8c0,1.3,0,2.7,0,4
		c0,0.3,0,0.6,0.5,0.6c1.6,0,3.2,0.1,4.7-0.1c1.8-0.2,2.9-1.4,3.3-3.1c0.2-0.9,0.2-1.8,0-2.6c-0.4-2-1.7-3.1-3.7-3.2
		c-1.4-0.1-2.8,0-4.2,0c-0.5,0-0.6,0.2-0.6,0.6C86.9,33.2,86.8,34.5,86.9,35.8z M78.4,35.9c0,1.3,0,2.6,0,3.9c0,0.5,0.2,0.7,0.7,0.6
		c1.8,0,3.6,0,5.3,0c1.7,0,1.7,0,1.7-1.7c0-0.6-0.2-0.6-0.7-0.6c-1.2,0-2.4,0-3.7,0c-0.5,0-0.5-0.2-0.5-0.6c0-0.4,0.1-0.5,0.5-0.5
		c0.7,0,1.5,0,2.2,0c1.6,0,1.6,0,1.5-1.6c0-0.5-0.2-0.6-0.7-0.6c-1,0-2.1,0-3.1,0c-0.4,0-0.6-0.1-0.6-0.6c0-0.4,0.1-0.6,0.6-0.6
		c0.8,0,1.7,0,2.5,0c1.7,0,1.7,0,1.7-1.8c0-0.4-0.2-0.6-0.6-0.6c-2.1,0-4.2,0-6.3,0c-0.5,0-0.6,0.1-0.6,0.6
		C78.4,33.3,78.4,34.6,78.4,35.9z M31.6,37.9c0-0.6,0-1.3,0-1.9c0-0.4-0.1-0.6-0.6-0.6c-0.8,0-1.6,0.1-2.3,0c-0.7-0.1-1,0.2-0.8,0.9
		c0.1,0.4-0.4,1.2,0.6,1.1c0.2,0,0.4-0.1,0.5,0.1c0.1,0.2-0.2,0.4-0.3,0.5c-0.7,0.6-2,0.4-2.6-0.4c-0.6-0.8-0.6-2.7-0.1-3.5
		c0.6-0.9,2-1,2.5-0.2c0.3,0.5,0.7,0.6,1.2,0.6c0.4,0,0.8,0,1.2,0c0.5,0,0.6-0.1,0.5-0.6c-0.4-1.2-1.1-2.1-2.4-2.5
		c-2.8-1-5.5,0.6-6,3.5c-0.3,1.8,0,3.6,1.5,4.8c1.4,1.1,3,1.3,4.7,0.4c0.3-0.2,0.5-0.2,0.7,0.2c0.3,0.6,0.8,0.3,1.2,0.2
		c0.5-0.1,0.5-0.4,0.5-0.8C31.5,39.1,31.6,38.5,31.6,37.9z M9.2,33.7C8,35,7.1,36.1,6,37.1c-0.8,0.8-1.1,1.6-1,2.6
		c0,0.5,0.2,0.7,0.7,0.6c2,0,3.9,0,5.9,0c1.6,0,1.5,0,1.6-1.6c0-0.6-0.1-0.8-0.7-0.7c-1.2,0-2.4,0-3.7,0c1.2-1.3,2.2-2.6,3.4-3.7
		c0.7-0.7,0.9-1.4,0.9-2.4c0-0.5-0.1-0.7-0.7-0.7c-1.8,0-3.6,0-5.3,0c-1.7,0-1.7,0-1.6,1.7c0,0.5,0.1,0.6,0.6,0.6
		C6.9,33.7,7.9,33.7,9.2,33.7z M40,40.4c0.3,0,0.6,0,0.9,0c0.5,0,0.6-0.1,0.4-0.6c-1-2.7-2-5.4-2.9-8.1c-0.1-0.4-0.4-0.5-0.7-0.4
		c-0.8,0.2-1.9-0.5-2.2,0.4c-1.1,2.7-2.1,5.5-3.1,8.3c-0.1,0.3-0.1,0.4,0.3,0.4c0.7,0,1.3,0,2,0c0.3,0,0.5-0.1,0.5-0.4
		c0.1-0.8,0.6-1,1.3-0.9c0.4,0,0.8,0,1.2,0c0.5-0.1,0.8,0.1,0.8,0.6c0.1,0.6,0.4,0.7,0.9,0.7C39.5,40.4,39.7,40.4,40,40.4z
		 M21.8,40.4c0.2,0,0.4,0,0.6,0c0.9,0,0.9,0,0.6-0.9c-0.8-2.3-1.7-4.5-2.5-6.8c-0.5-1.4-0.5-1.3-2-1.4c-1-0.1-1.4,0.3-1.7,1.2
		c-0.8,2.4-1.8,4.8-2.6,7.3c-0.1,0.2-0.5,0.6,0.2,0.6c0.7,0,1.4,0,2.1,0c0.3,0,0.4-0.2,0.4-0.4c0.1-0.9,0.6-1,1.3-0.9
		c0.4,0,0.8,0,1.2,0c0.5-0.1,0.8,0.1,0.8,0.7c0.1,0.6,0.4,0.7,0.9,0.7C21.4,40.4,21.6,40.4,21.8,40.4z M69.8,40.4c0.2,0,0.4,0,0.6,0
		c0.9,0,0.9,0,0.6-0.9c-0.8-2.1-1.5-4.2-2.3-6.3C68,31.3,68,31.4,66,31.3c-0.5,0-0.8,0.2-0.9,0.7c-0.2,0.7-0.5,1.5-0.8,2.2
		c-0.7,1.9-1.4,3.7-2.1,5.6c-0.2,0.4-0.2,0.7,0.4,0.6c0.6,0,1.2,0,1.7,0c0.3,0,0.6-0.1,0.6-0.4c0.1-0.9,0.7-0.9,1.3-0.9
		c0.4,0,0.7,0,1.1,0c0.5-0.1,0.9,0.1,0.9,0.7c0.1,0.6,0.4,0.7,0.9,0.7C69.4,40.4,69.6,40.4,69.8,40.4z M50.6,46.6
		c-4.6,0-9.1,0-13.7,0c-0.6,0-0.8,0.1-0.8,0.7c0,7.4,0,14.9,0,22.3c0,0.6,0.2,0.7,0.8,0.7c9,0,18.1,0,27.1,0c0.6,0,0.8-0.1,0.8-0.8
		c0-7.4,0-14.8,0-22.2c0-0.7-0.2-0.8-0.8-0.8C59.6,46.6,55.1,46.6,50.6,46.6z M44,31.4c-0.9,0-1.8,0-2.7,0c-1.4,0-1.3,0-1.4,1.3
		c0,0.8,0.1,1.1,1,1c0.3-0.1,0.6,0,0.9,0c0.5-0.1,0.7,0.1,0.7,0.6c0,1.3,0,2.7,0,4c0,2.2,0,2.2,2.2,2.1c0.5,0,0.6-0.2,0.6-0.7
		c0-1.7,0-3.5,0-5.2c0-0.7,0.2-0.9,0.9-0.8c1.7,0,1.7,0,1.7-1.8c0-0.5-0.2-0.6-0.6-0.5C46.2,31.4,45.1,31.4,44,31.4z M73.6,31.4
		c-1.1,0-2.2,0-3.2,0c-0.6,0-0.7,0.2-0.7,0.7c0,1.6,0,1.6,1.6,1.6c0.1,0,0.1,0,0.2,0c0.6-0.1,0.8,0.1,0.8,0.7c0,1.3,0,2.7,0,4
		c0,2.1,0,2.1,2.1,2.1c0.6,0,0.8-0.1,0.7-0.7c0-1.7,0-3.4,0-5.2c0-0.7,0.1-0.9,0.8-0.9c1.8,0,1.8,0,1.7-1.8c0-0.4-0.1-0.5-0.5-0.5
		C75.8,31.4,74.7,31.4,73.6,31.4z M46.8,40c0-0.3-0.1-0.6-0.5-0.6c-0.3,0-0.6,0.1-0.6,0.5c0,0.4,0.1,0.6,0.5,0.6
		C46.5,40.5,46.7,40.3,46.8,40z"/>
	<path class="st1" d="M59.8,36.2c1,0.7,1.2,1.6,1.2,2.7c0,0.5,0.5,1.1,0,1.5c-0.3,0.2-1,0.1-1.5,0.1c-1.1,0-1.1,0-1.3-1.2
		c0-0.1,0-0.3,0-0.4c-0.2-1.4-1.1-2-2.5-1.6c-0.3,0.1-0.2,0.3-0.2,0.5c0,0.7,0,1.3,0,2c0,0.4-0.1,0.6-0.6,0.6
		c-2.2,0.1-2.2,0.1-2.2-2.2c0-2.1,0-4.1,0-6.2c0-0.6,0.1-0.8,0.7-0.8c1.6,0,3.2,0,4.7,0c2.1,0.1,3.3,1.8,2.6,3.6
		C60.6,35.5,60.3,35.9,59.8,36.2z M56.8,33.5c-1.4,0-1.2-0.2-1.2,1.1c0,0.3-0.2,0.7,0.3,0.7c0.6,0,1.2,0,1.7-0.1
		c0.4-0.1,0.7-0.4,0.7-0.8c0-0.5-0.2-0.7-0.7-0.8C57.2,33.6,56.9,33.5,56.8,33.5z"/>
	<path class="st1" d="M86.8,35.8c0-1.3,0-2.6,0-3.9c0-0.4,0.1-0.6,0.6-0.6c1.4,0,2.8,0,4.2,0c2,0.1,3.3,1.2,3.7,3.2
		c0.2,0.9,0.2,1.8,0,2.6C95,39,93.8,40.1,92,40.3c-1.6,0.2-3.2,0.1-4.7,0.1c-0.5,0-0.5-0.3-0.5-0.6C86.9,38.5,86.9,37.2,86.8,35.8z
		 M89.6,35.8c0,0.6,0,1.2,0,1.8c0,0.2,0,0.4,0.2,0.4c0.8,0,1.6,0.1,2.2-0.5c0.7-0.7,0.7-1.6,0.5-2.6c-0.2-0.8-0.8-1.2-1.6-1.3
		c-1.2-0.2-1.3-0.1-1.3,1.1C89.6,35.1,89.6,35.5,89.6,35.8z"/>
	<path class="st1" d="M78.4,35.9c0-1.3,0-2.6,0-3.9c0-0.5,0.1-0.6,0.6-0.6c2.1,0,4.2,0,6.3,0c0.4,0,0.6,0.1,0.6,0.6
		c0.1,1.8,0.1,1.8-1.7,1.8c-0.8,0-1.7,0-2.5,0c-0.5,0-0.5,0.2-0.6,0.6c0,0.4,0.1,0.6,0.6,0.6c1,0,2.1,0,3.1,0c0.4,0,0.6,0.1,0.7,0.6
		c0,1.6,0.1,1.6-1.5,1.6c-0.7,0-1.5,0-2.2,0c-0.4,0-0.5,0.1-0.5,0.5c0,0.4,0,0.6,0.5,0.6c1.2,0,2.4,0,3.7,0c0.5,0,0.7,0.1,0.7,0.6
		c0,1.7,0,1.7-1.7,1.7c-1.8,0-3.6,0-5.3,0c-0.5,0-0.7-0.1-0.7-0.6C78.4,38.5,78.4,37.2,78.4,35.9z"/>
	<path class="st1" d="M31.6,37.9c0,0.6,0,1.2,0,1.8c0,0.4,0,0.7-0.5,0.8c-0.4,0-1,0.3-1.2-0.2c-0.2-0.4-0.4-0.4-0.7-0.2
		c-1.6,0.9-3.2,0.8-4.7-0.4c-1.6-1.2-1.9-3-1.5-4.8c0.5-2.9,3.3-4.5,6-3.5c1.2,0.4,1.9,1.3,2.4,2.5c0.2,0.5,0,0.7-0.5,0.6
		c-0.4,0-0.8,0-1.2,0c-0.5,0-0.9-0.1-1.2-0.6c-0.5-0.8-1.9-0.7-2.5,0.2c-0.5,0.8-0.5,2.7,0.1,3.5c0.6,0.8,1.9,1,2.6,0.4
		c0.2-0.1,0.4-0.3,0.3-0.5c-0.1-0.2-0.3-0.1-0.5-0.1c-1,0.1-0.5-0.7-0.6-1.1c-0.1-0.7,0.1-0.9,0.8-0.9c0.8,0.1,1.6,0,2.3,0
		c0.4,0,0.6,0.1,0.6,0.6C31.5,36.6,31.6,37.3,31.6,37.9z"/>
	<path class="st1" d="M9.2,33.7c-1.3,0-2.3,0-3.4,0c-0.5,0-0.6-0.1-0.6-0.6c0-1.7,0-1.7,1.6-1.7c1.8,0,3.6,0,5.3,0
		c0.6,0,0.7,0.2,0.7,0.7c0.1,0.9-0.2,1.7-0.9,2.4c-1.1,1.1-2.2,2.4-3.4,3.7c1.4,0,2.6,0,3.7,0c0.6,0,0.7,0.2,0.7,0.7
		c0,1.6,0,1.6-1.6,1.6c-2,0-3.9,0-5.9,0c-0.5,0-0.6-0.1-0.7-0.6c-0.1-1.1,0.2-1.9,1-2.6C7.1,36.1,8,35,9.2,33.7z"/>
	<path class="st1" d="M40,40.4c-0.2,0-0.4,0-0.7,0c-0.5,0.1-0.9-0.1-0.9-0.7c-0.1-0.5-0.3-0.7-0.8-0.6c-0.4,0-0.8,0-1.2,0
		c-0.7-0.1-1.3,0.1-1.3,0.9c0,0.3-0.2,0.4-0.5,0.4c-0.7,0-1.3,0-2,0c-0.3,0-0.4-0.1-0.3-0.4c1-2.8,2-5.5,3.1-8.3
		c0.4-0.9,1.5-0.2,2.2-0.4c0.4-0.1,0.6,0,0.7,0.4c1,2.7,1.9,5.4,2.9,8.1c0.2,0.4,0.1,0.6-0.4,0.6C40.6,40.4,40.3,40.4,40,40.4z
		 M36.8,34.4c-0.3,0.9-0.5,1.5-0.7,2.2c-0.1,0.2-0.2,0.4,0,0.5c0.3,0.2,0.7,0.1,1.1,0.1c0.2-0.1,0.3-0.3,0.2-0.5
		C37.3,36,37.1,35.3,36.8,34.4z"/>
	<path class="st1" d="M21.8,40.4c-0.2,0-0.4,0-0.7,0c-0.5,0.1-0.9-0.1-0.9-0.7c-0.1-0.5-0.3-0.7-0.8-0.7c-0.4,0-0.8,0-1.2,0
		c-0.7-0.1-1.3,0-1.3,0.9c0,0.2-0.1,0.4-0.4,0.4c-0.7,0-1.4,0-2.1,0c-0.7,0-0.2-0.4-0.2-0.6c0.9-2.4,1.8-4.8,2.6-7.3
		c0.3-0.9,0.7-1.3,1.7-1.2c1.5,0.1,1.5,0,2,1.4c0.8,2.3,1.7,4.5,2.5,6.8c0.3,0.9,0.3,0.9-0.6,0.9C22.2,40.4,22,40.4,21.8,40.4z
		 M18.7,34.4c-0.3,1.1-0.6,1.9-0.9,2.8c0.5,0,0.9,0,1.2,0c0.3,0,0.4-0.1,0.3-0.4C19.1,36.1,18.9,35.4,18.7,34.4z"/>
	<path class="st1" d="M69.8,40.4c-0.2,0-0.4,0-0.7,0c-0.5,0.1-0.9-0.1-0.9-0.7c-0.1-0.6-0.4-0.7-0.9-0.7c-0.4,0-0.7,0-1.1,0
		c-0.7-0.1-1.3,0-1.3,0.9c0,0.3-0.3,0.4-0.6,0.4c-0.6,0-1.2,0-1.7,0c-0.6,0-0.5-0.2-0.4-0.6c0.7-1.9,1.4-3.7,2.1-5.6
		c0.3-0.7,0.6-1.4,0.8-2.2c0.2-0.5,0.4-0.7,0.9-0.7c2,0,2,0,2.7,1.9c0.8,2.1,1.5,4.2,2.3,6.3c0.3,0.9,0.3,0.9-0.6,0.9
		C70.2,40.4,70,40.4,69.8,40.4z M67.5,37.1c-0.3-0.9-0.5-1.7-0.8-2.8c-0.3,1.1-0.6,1.9-0.8,2.8C66.4,37.1,66.9,37.1,67.5,37.1z"/>
	<path class="st1" d="M50.6,46.6c4.5,0,9,0,13.5,0c0.6,0,0.8,0.1,0.8,0.8c0,7.4,0,14.8,0,22.2c0,0.6-0.2,0.8-0.8,0.8
		c-9,0-18.1,0-27.1,0c-0.6,0-0.8-0.1-0.8-0.7c0-7.4,0-14.9,0-22.3c0-0.6,0.2-0.7,0.8-0.7C41.5,46.6,46,46.6,50.6,46.6z M50.6,70
		c4.4,0,8.7,0,13.1,0c0.7,0,0.8-0.2,0.8-0.8c0-7.1,0-14.2,0-21.3c0-0.7-0.2-0.9-0.9-0.9c-8.7,0-17.4,0-26.2,0
		c-0.7,0-0.9,0.2-0.9,0.9c0,7,0,14.1,0,21.1c0,0.9,0.3,1,1.1,1C41.9,70,46.3,70,50.6,70z"/>
	<path class="st1" d="M44,31.4c1.1,0,2.2,0,3.2,0c0.4,0,0.6,0.1,0.6,0.5c0.1,1.8,0.1,1.8-1.7,1.8c-0.7,0-0.9,0.1-0.9,0.8
		c0.1,1.7,0,3.5,0,5.2c0,0.5-0.1,0.7-0.6,0.7c-2.2,0-2.2,0.1-2.2-2.1c0-1.3,0-2.7,0-4c0-0.5-0.2-0.7-0.7-0.6c-0.3,0-0.6,0-0.9,0
		c-0.8,0.1-1-0.2-1-1c0.1-1.3,0-1.3,1.4-1.3C42.2,31.4,43.1,31.4,44,31.4z"/>
	<path class="st1" d="M73.6,31.4c1.1,0,2.3,0,3.4,0c0.4,0,0.5,0.1,0.5,0.5c0.1,1.8,0.1,1.8-1.7,1.8c-0.7,0-0.9,0.2-0.8,0.9
		c0,1.7,0,3.4,0,5.2c0,0.6-0.2,0.7-0.7,0.7c-2.1,0-2.1,0-2.1-2.1c0-1.3,0-2.7,0-4c0-0.6-0.2-0.8-0.8-0.7c-0.1,0-0.1,0-0.2,0
		c-1.6,0-1.6,0-1.6-1.6c0-0.5,0.1-0.7,0.7-0.7C71.4,31.4,72.5,31.4,73.6,31.4z"/>
	<path class="st2" d="M46.8,40c-0.1,0.3-0.3,0.5-0.6,0.5c-0.3,0-0.5-0.2-0.5-0.6c0-0.4,0.3-0.5,0.6-0.5C46.7,39.4,46.8,39.7,46.8,40
		z"/>
	<path class="st0" d="M56.8,33.5c0.1,0,0.4,0,0.8,0.1c0.4,0.1,0.7,0.4,0.7,0.8c0,0.5-0.2,0.8-0.7,0.8c-0.6,0.1-1.2,0.1-1.7,0.1
		c-0.5,0-0.3-0.5-0.3-0.7C55.5,33.4,55.4,33.5,56.8,33.5z"/>
	<path class="st0" d="M89.6,35.8c0-0.3,0-0.7,0-1c0-1.2,0.1-1.3,1.3-1.1c0.8,0.1,1.4,0.5,1.6,1.3c0.2,0.9,0.2,1.8-0.5,2.6
		c-0.6,0.6-1.4,0.5-2.2,0.5c-0.3,0-0.2-0.3-0.2-0.4C89.6,37,89.6,36.4,89.6,35.8z"/>
	<path class="st0" d="M36.8,34.4c0.3,0.9,0.5,1.5,0.7,2.2c0.1,0.3,0,0.5-0.2,0.5c-0.4,0.1-0.8,0.2-1.1-0.1c-0.2-0.1-0.1-0.3,0-0.5
		C36.3,35.9,36.5,35.3,36.8,34.4z"/>
	<path class="st0" d="M18.7,34.4c0.3,1,0.5,1.7,0.7,2.4c0.1,0.3,0,0.4-0.3,0.4c-0.4,0-0.8,0-1.2,0C18.1,36.3,18.3,35.5,18.7,34.4z"
		/>
	<path class="st0" d="M67.5,37.1c-0.6,0-1.1,0-1.7,0c0.3-0.9,0.5-1.7,0.8-2.8C67,35.4,67.2,36.3,67.5,37.1z"/>
	<path class="st2" d="M50.6,70c-4.3,0-8.7,0-13,0c-0.8,0-1.1-0.2-1.1-1c0-7,0-14.1,0-21.1c0-0.7,0.2-0.9,0.9-0.9
		c8.7,0,17.4,0,26.2,0c0.7,0,0.9,0.2,0.9,0.9c0,7.1,0,14.2,0,21.3c0,0.7-0.2,0.9-0.8,0.8C59.3,70,54.9,70,50.6,70z M59.5,59.2
		c0-5.1-4-9.2-9.1-9.2c-5.1,0-9.2,4-9.2,9.1c0,5,4,9.1,9.1,9.2C55.4,68.3,59.5,64.3,59.5,59.2z M61.2,58.9
		C61.2,58.9,61.1,58.9,61.2,58.9c-0.1,0.4-0.1,0.8-0.1,1.2C61,62.4,61,64.7,60.9,67c0,0.6,0,1.2,0.8,1.2c0.7,0,0.7-0.6,0.7-1.2
		c0-0.8-0.1-1.7-0.1-2.5c-0.1-3.4-0.5-6.8,0-10.2c0.3-1.6,0.1-3.3-0.4-4.9c-0.1-0.3,0-0.7-0.4-0.7c-0.4,0-0.4,0.5-0.5,0.8
		c-0.2,1.3-0.2,2.7-0.1,4C61,55.3,61.1,57.1,61.2,58.9z M38.5,52.7c-0.2,1.3-0.1,2.4,0.5,3.5c0.1,0.2,0.2,0.5,0.2,0.7
		c0,2.2-0.1,4.5-0.3,6.7c-0.1,1.2-0.3,2.4-0.4,3.6c0,0.5,0.1,0.9,0.7,0.9c0.6,0,0.8-0.3,0.9-0.9c0.1-0.6-0.2-1.2-0.2-1.8
		c-0.1-2.8-0.1-5.6-0.2-8.4c0-0.2,0-0.5,0.2-0.7c0.5-0.9,0.9-1.9,0.8-3c-0.1-1.3,0-2.6,0-3.8c0-0.5,0-0.4-0.3-0.4
		c-0.1,1.6,0.1,3-0.1,4.5c-0.1,0-0.2,0-0.3,0c0-1.4,0-2.8,0-4.2c-0.1,0-0.2,0-0.3,0c-0.1,1.4,0.1,5.5-0.2,4.1c0-1.5,0-3,0-4.5
		c-0.4,1.6-0.1-0.7-0.6,4.8C38.5,53.6,38.8,53.1,38.5,52.7z M38.5,51.9c0.1,0,0.2,0,0.3,0c0-0.9,0-1.9,0-2.8c0,0-0.1,0-0.1,0
		C38.6,50,38.6,51,38.5,51.9z"/>
	<path class="st0" d="M59.5,59.2c0,5.1-4.1,9.1-9.2,9.1c-5,0-9.1-4.2-9.1-9.2c0-5.1,4.2-9.1,9.2-9.1C55.5,50,59.6,54.1,59.5,59.2z
		 M44.6,59.1c0,3.2,2.6,5.8,5.8,5.7c3.2,0,5.8-2.6,5.7-5.8c0-3.2-2.6-5.8-5.8-5.7C47.2,53.3,44.6,55.9,44.6,59.1z"/>
	<path class="st0" d="M61.2,58.9c-0.1-1.8-0.2-3.6-0.3-5.4c-0.1-1.3-0.1-2.7,0.1-4c0.1-0.3,0.1-0.8,0.5-0.8c0.4,0,0.4,0.4,0.4,0.7
		c0.4,1.6,0.6,3.2,0.4,4.9c-0.6,3.4-0.2,6.8,0,10.2c0,0.8,0.1,1.7,0.1,2.5c0,0.5,0.1,1.2-0.7,1.2c-0.8,0-0.8-0.7-0.8-1.2
		c0.1-2.3,0.1-4.6,0.2-6.9C61.1,59.7,61.1,59.3,61.2,58.9C61.1,58.9,61.2,58.9,61.2,58.9z"/>
	<path class="st0" d="M38.5,52.7c0.3,0.4-0.1,0.9,0.4,1.2c0.4-5.8,0.2-4.6,0.6-4.8c0,1.5,0,3,0,4.5c0.3,0.9,0.1-3.1,0.2-4.5
		c0.1,0,0.2,0,0.3,0c0,1.4,0,3.1,0,4.5c0.1,0,0.2,0,0.3,0c0.2-1.5,0-2.9,0.1-4.5c0.4-0.1,0.3,0,0.3,0.4c0,1.3,0,2.6,0,3.8
		c0,1.1-0.3,2.1-0.8,3c-0.1,0.2-0.2,0.5-0.2,0.7c0.1,2.8,0.1,5.6,0.2,8.4c0,0.6,0.3,1.2,0.2,1.8c-0.1,0.6-0.3,0.9-0.9,0.9
		c-0.6,0-0.7-0.4-0.7-0.9c0.1-1.2,0.3-2.4,0.4-3.6c0.2-2.2,0.4-4.5,0.3-6.7c0-0.3-0.1-0.5-0.2-0.7C38.4,55.1,38.4,54,38.5,52.7z"/>
	<path class="st0" d="M38.5,52.8c0-0.9,0.1-2.8,0.1-3.7c0,0,0.1,0,0.1,0c0,0.9,0,3.8,0,4.7C38.7,53.8,38.6,52.8,38.5,52.8z"/>
	<path class="st2" d="M44.6,59.1c0-3.2,2.5-5.8,5.7-5.8c3.2,0,5.8,2.6,5.8,5.7c0,3.2-2.6,5.8-5.7,5.8C47.2,64.9,44.6,62.3,44.6,59.1
		z M50.4,54.2c-2.7,0-4.9,2.2-4.9,4.9c0,2.7,2.2,4.9,4.9,4.9c2.7,0,4.9-2.2,4.9-4.9C55.3,56.4,53.1,54.2,50.4,54.2z"/>
	<path class="st0" d="M50.4,54.2c2.7,0,4.9,2.2,4.9,4.9c0,2.7-2.2,4.9-4.9,4.9c-2.7,0-4.9-2.2-4.9-4.9
		C45.5,56.4,47.7,54.2,50.4,54.2z"/>
</g>
</svg>
